o human_iron_pauldron
s off
v -0.330000 -0.190000 -0.170000
v -0.235714 -0.190000 -0.233673
v -0.141429 -0.190000 -0.276122
v -0.047143 -0.190000 -0.297347
v 0.047143 -0.190000 -0.297347
v 0.141429 -0.190000 -0.276122
v 0.235714 -0.190000 -0.233673
v 0.330000 -0.190000 -0.170000
v -0.330000 0.000000 -0.170000
v -0.235714 0.000000 -0.233673
v -0.141429 0.000000 -0.276122
v -0.047143 0.000000 -0.297347
v 0.047143 0.000000 -0.297347
v 0.141429 0.000000 -0.276122
v 0.235714 0.000000 -0.233673
v 0.330000 0.000000 -0.170000
v -0.330000 0.190000 -0.170000
v -0.235714 0.190000 -0.233673
v -0.141429 0.190000 -0.276122
v -0.047143 0.190000 -0.297347
v 0.047143 0.190000 -0.297347
v 0.141429 0.190000 -0.276122
v 0.235714 0.190000 -0.233673
v 0.330000 0.190000 -0.170000
v -0.330000 -0.190000 0.170000
v -0.235714 -0.190000 0.106327
v -0.141429 -0.190000 0.063878
v -0.047143 -0.190000 0.042653
v 0.047143 -0.190000 0.042653
v 0.141429 -0.190000 0.063878
v 0.235714 -0.190000 0.106327
v 0.330000 -0.190000 0.170000
v -0.330000 0.000000 0.170000
v -0.235714 0.000000 0.106327
v -0.141429 0.000000 0.063878
v -0.047143 0.000000 0.042653
v 0.047143 0.000000 0.042653
v 0.141429 0.000000 0.063878
v 0.235714 0.000000 0.106327
v 0.330000 0.000000 0.170000
v -0.330000 0.190000 0.170000
v -0.235714 0.190000 0.106327
v -0.141429 0.190000 0.063878
v -0.047143 0.190000 0.042653
v 0.047143 0.190000 0.042653
v 0.141429 0.190000 0.063878
v 0.235714 0.190000 0.106327
v 0.330000 0.190000 0.170000
f 9 10 2 1
f 10 11 3 2
f 11 12 4 3
f 12 13 5 4
f 13 14 6 5
f 14 15 7 6
f 15 16 8 7
f 17 18 10 9
f 18 19 11 10
f 19 20 12 11
f 20 21 13 12
f 21 22 14 13
f 22 23 15 14
f 23 24 16 15
f 26 34 33 25
f 27 35 34 26
f 28 36 35 27
f 29 37 36 28
f 30 38 37 29
f 31 39 38 30
f 32 40 39 31
f 34 42 41 33
f 35 43 42 34
f 36 44 43 35
f 37 45 44 36
f 38 46 45 37
f 39 47 46 38
f 40 48 47 39
f 2 26 25 1
f 41 42 18 17
f 3 27 26 2
f 42 43 19 18
f 4 28 27 3
f 43 44 20 19
f 5 29 28 4
f 44 45 21 20
f 6 30 29 5
f 45 46 22 21
f 7 31 30 6
f 46 47 23 22
f 8 32 31 7
f 47 48 24 23
f 25 33 9 1
f 40 32 8 16
f 33 41 17 9
f 48 40 16 24
