o human_bronze_helmet
s off
v 0.280000 0.000000 0.000000
v 0.263114 0.000000 0.088104
v 0.214492 0.000000 0.165582
v 0.140000 0.000000 0.223088
v 0.048621 0.000000 0.253686
v -0.048621 0.000000 0.253686
v -0.140000 0.000000 0.223088
v -0.214492 0.000000 0.165582
v -0.263114 0.000000 0.088104
v -0.280000 0.000000 0.000000
v -0.263114 0.000000 -0.088104
v -0.214492 0.000000 -0.165582
v -0.140000 0.000000 -0.223088
v -0.048621 0.000000 -0.253686
v 0.048621 0.000000 -0.253686
v 0.140000 0.000000 -0.223088
v 0.214492 0.000000 -0.165582
v 0.263114 0.000000 -0.088104
v 0.270459 0.064705 0.000000
v 0.254149 0.064705 0.085102
v 0.207184 0.064705 0.159940
v 0.135230 0.064705 0.215487
v 0.046965 0.064705 0.245042
v -0.046965 0.064705 0.245042
v -0.135230 0.064705 0.215487
v -0.207184 0.064705 0.159940
v -0.254149 0.064705 0.085102
v -0.270459 0.064705 0.000000
v -0.254149 0.064705 -0.085102
v -0.207184 0.064705 -0.159940
v -0.135230 0.064705 -0.215487
v -0.046965 0.064705 -0.245042
v 0.046965 0.064705 -0.245042
v 0.135230 0.064705 -0.215487
v 0.207184 0.064705 -0.159940
v 0.254149 0.064705 -0.085102
v 0.242487 0.125000 0.000000
v 0.227863 0.125000 0.076301
v 0.185756 0.125000 0.143398
v 0.121244 0.125000 0.193200
v 0.042107 0.125000 0.219699
v -0.042107 0.125000 0.219699
v -0.121244 0.125000 0.193200
v -0.185756 0.125000 0.143398
v -0.227863 0.125000 0.076301
v -0.242487 0.125000 0.000000
v -0.227863 0.125000 -0.076301
v -0.185756 0.125000 -0.143398
v -0.121244 0.125000 -0.193200
v -0.042107 0.125000 -0.219699
v 0.042107 0.125000 -0.219699
v 0.121244 0.125000 -0.193200
v 0.185756 0.125000 -0.143398
v 0.227863 0.125000 -0.076301
v 0.197990 0.176777 0.000000
v 0.186050 0.176777 0.062299
v 0.151669 0.176777 0.117084
v 0.098995 0.176777 0.157747
v 0.034381 0.176777 0.179383
v -0.034381 0.176777 0.179383
v -0.098995 0.176777 0.157747
v -0.151669 0.176777 0.117084
v -0.186050 0.176777 0.062299
v -0.197990 0.176777 0.000000
v -0.186050 0.176777 -0.062299
v -0.151669 0.176777 -0.117084
v -0.098995 0.176777 -0.157747
v -0.034381 0.176777 -0.179383
v 0.034381 0.176777 -0.179383
v 0.098995 0.176777 -0.157747
v 0.151669 0.176777 -0.117084
v 0.186050 0.176777 -0.062299
v 0.140000 0.216506 0.000000
v 0.131557 0.216506 0.044052
v 0.107246 0.216506 0.082791
v 0.070000 0.216506 0.111544
v 0.024311 0.216506 0.126843
v -0.024311 0.216506 0.126843
v -0.070000 0.216506 0.111544
v -0.107246 0.216506 0.082791
v -0.131557 0.216506 0.044052
v -0.140000 0.216506 0.000000
v -0.131557 0.216506 -0.044052
v -0.107246 0.216506 -0.082791
v -0.070000 0.216506 -0.111544
v -0.024311 0.216506 -0.126843
v 0.024311 0.216506 -0.126843
v 0.070000 0.216506 -0.111544
v 0.107246 0.216506 -0.082791
v 0.131557 0.216506 -0.044052
v 0.072469 0.241481 0.000000
v 0.068099 0.241481 0.022803
v 0.055515 0.241481 0.042856
v 0.036235 0.241481 0.057739
v 0.012584 0.241481 0.065659
v -0.012584 0.241481 0.065659
v -0.036235 0.241481 0.057739
v -0.055515 0.241481 0.042856
v -0.068099 0.241481 0.022803
v -0.072469 0.241481 0.000000
v -0.068099 0.241481 -0.022803
v -0.055515 0.241481 -0.042856
v -0.036235 0.241481 -0.057739
v -0.012584 0.241481 -0.065659
v 0.012584 0.241481 -0.065659
v 0.036235 0.241481 -0.057739
v 0.055515 0.241481 -0.042856
v 0.068099 0.241481 -0.022803
v 0.000000 0.250000 0.000000
v 0.000000 0.250000 0.000000
v 0.000000 0.250000 0.000000
v 0.000000 0.250000 0.000000
v 0.000000 0.250000 0.000000
v -0.000000 0.250000 0.000000
v -0.000000 0.250000 0.000000
v -0.000000 0.250000 0.000000
v -0.000000 0.250000 0.000000
v -0.000000 0.250000 0.000000
v -0.000000 0.250000 -0.000000
v -0.000000 0.250000 -0.000000
v -0.000000 0.250000 -0.000000
v -0.000000 0.250000 -0.000000
v 0.000000 0.250000 -0.000000
v 0.000000 0.250000 -0.000000
v 0.000000 0.250000 -0.000000
v 0.000000 0.250000 -0.000000
v 0.290000 -0.052500 0.000000
v 0.290000 0.022500 0.000000
v 0.272511 -0.052500 0.099186
v 0.272511 0.022500 0.099186
v 0.222153 -0.052500 0.186408
v 0.222153 0.022500 0.186408
v 0.145000 -0.052500 0.251147
v 0.145000 0.022500 0.251147
v 0.050358 -0.052500 0.285594
v 0.050358 0.022500 0.285594
v -0.050358 -0.052500 0.285594
v -0.050358 0.022500 0.285594
v -0.145000 -0.052500 0.251147
v -0.145000 0.022500 0.251147
v -0.222153 -0.052500 0.186408
v -0.222153 0.022500 0.186408
v -0.272511 -0.052500 0.099186
v -0.272511 0.022500 0.099186
v -0.290000 -0.052500 0.000000
v -0.290000 0.022500 0.000000
v -0.272511 -0.052500 -0.099186
v -0.272511 0.022500 -0.099186
v -0.222153 -0.052500 -0.186408
v -0.222153 0.022500 -0.186408
v -0.145000 -0.052500 -0.251147
v -0.145000 0.022500 -0.251147
v -0.050358 -0.052500 -0.285594
v -0.050358 0.022500 -0.285594
v 0.050358 -0.052500 -0.285594
v 0.050358 0.022500 -0.285594
v 0.145000 -0.052500 -0.251147
v 0.145000 0.022500 -0.251147
v 0.222153 -0.052500 -0.186408
v 0.222153 0.022500 -0.186408
v 0.272511 -0.052500 -0.099186
v 0.272511 0.022500 -0.099186
v -0.028800 -0.180000 -0.292500
v 0.028800 -0.180000 -0.292500
v 0.040000 0.100000 -0.292500
v -0.040000 0.100000 -0.292500
v -0.028800 -0.180000 -0.217500
v 0.028800 -0.180000 -0.217500
v 0.040000 0.100000 -0.217500
v -0.040000 0.100000 -0.217500
v -0.291289 -0.235557 -0.087500
v -0.216664 -0.243044 -0.087500
v -0.188711 0.035557 -0.110000
v -0.263336 0.043044 -0.110000
v -0.291289 -0.235557 0.047500
v -0.216664 -0.243044 0.047500
v -0.188711 0.035557 0.070000
v -0.263336 0.043044 0.070000
v 0.216664 -0.243044 -0.087500
v 0.291289 -0.235557 -0.087500
v 0.263336 0.043044 -0.110000
v 0.188711 0.035557 -0.110000
v 0.216664 -0.243044 0.047500
v 0.291289 -0.235557 0.047500
v 0.263336 0.043044 0.070000
v 0.188711 0.035557 0.070000
f 19 20 2 1
f 20 21 3 2
f 21 22 4 3
f 22 23 5 4
f 23 24 6 5
f 24 25 7 6
f 25 26 8 7
f 26 27 9 8
f 27 28 10 9
f 28 29 11 10
f 29 30 12 11
f 30 31 13 12
f 31 32 14 13
f 32 33 15 14
f 33 34 16 15
f 34 35 17 16
f 35 36 18 17
f 36 19 1 18
f 37 38 20 19
f 38 39 21 20
f 39 40 22 21
f 40 41 23 22
f 41 42 24 23
f 42 43 25 24
f 43 44 26 25
f 44 45 27 26
f 45 46 28 27
f 46 47 29 28
f 47 48 30 29
f 48 49 31 30
f 49 50 32 31
f 50 51 33 32
f 51 52 34 33
f 52 53 35 34
f 53 54 36 35
f 54 37 19 36
f 55 56 38 37
f 56 57 39 38
f 57 58 40 39
f 58 59 41 40
f 59 60 42 41
f 60 61 43 42
f 61 62 44 43
f 62 63 45 44
f 63 64 46 45
f 64 65 47 46
f 65 66 48 47
f 66 67 49 48
f 67 68 50 49
f 68 69 51 50
f 69 70 52 51
f 70 71 53 52
f 71 72 54 53
f 72 55 37 54
f 73 74 56 55
f 74 75 57 56
f 75 76 58 57
f 76 77 59 58
f 77 78 60 59
f 78 79 61 60
f 79 80 62 61
f 80 81 63 62
f 81 82 64 63
f 82 83 65 64
f 83 84 66 65
f 84 85 67 66
f 85 86 68 67
f 86 87 69 68
f 87 88 70 69
f 88 89 71 70
f 89 90 72 71
f 90 73 55 72
f 91 92 74 73
f 92 93 75 74
f 93 94 76 75
f 94 95 77 76
f 95 96 78 77
f 96 97 79 78
f 97 98 80 79
f 98 99 81 80
f 99 100 82 81
f 100 101 83 82
f 101 102 84 83
f 102 103 85 84
f 103 104 86 85
f 104 105 87 86
f 105 106 88 87
f 106 107 89 88
f 107 108 90 89
f 108 91 73 90
f 109 110 92 91
f 110 111 93 92
f 111 112 94 93
f 112 113 95 94
f 113 114 96 95
f 114 115 97 96
f 115 116 98 97
f 116 117 99 98
f 117 118 100 99
f 118 119 101 100
f 119 120 102 101
f 120 121 103 102
f 121 122 104 103
f 122 123 105 104
f 123 124 106 105
f 124 125 107 106
f 125 126 108 107
f 126 109 91 108
f 128 130 129 127
f 130 132 131 129
f 132 134 133 131
f 134 136 135 133
f 136 138 137 135
f 138 140 139 137
f 140 142 141 139
f 142 144 143 141
f 144 146 145 143
f 146 148 147 145
f 148 150 149 147
f 150 152 151 149
f 152 154 153 151
f 154 156 155 153
f 156 158 157 155
f 158 160 159 157
f 160 162 161 159
f 162 128 127 161
f 127 129 131 133 135 137 139 141 143 145 147 149 151 153 155 157 159 161
f 162 160 158 156 154 152 150 148 146 144 142 140 138 136 134 132 130 128
f 166 165 164 163
f 169 170 167 168
f 170 166 163 167
f 165 169 168 164
f 170 169 165 166
f 163 164 168 167
f 174 173 172 171
f 177 178 175 176
f 178 174 171 175
f 173 177 176 172
f 178 177 173 174
f 171 172 176 175
f 182 181 180 179
f 185 186 183 184
f 186 182 179 183
f 181 185 184 180
f 186 185 181 182
f 179 180 184 183
