o human_iron_helmet
s off
v 0.300000 0.000000 0.000000
v 0.285317 0.000000 0.087143
v 0.242705 0.000000 0.165755
v 0.176336 0.000000 0.228143
v 0.092705 0.000000 0.268198
v 0.000000 0.000000 0.282000
v -0.092705 0.000000 0.268198
v -0.176336 0.000000 0.228143
v -0.242705 0.000000 0.165755
v -0.285317 0.000000 0.087143
v -0.300000 0.000000 0.000000
v -0.285317 0.000000 -0.087143
v -0.242705 0.000000 -0.165755
v -0.176336 0.000000 -0.228143
v -0.092705 0.000000 -0.268198
v -0.000000 0.000000 -0.282000
v 0.092705 0.000000 -0.268198
v 0.176336 0.000000 -0.228143
v 0.242705 0.000000 -0.165755
v 0.285317 0.000000 -0.087143
v 0.292478 0.062306 0.000000
v 0.278163 0.062306 0.084958
v 0.236620 0.062306 0.161600
v 0.171914 0.062306 0.222423
v 0.090381 0.062306 0.261474
v 0.000000 0.062306 0.274930
v -0.090381 0.062306 0.261474
v -0.171914 0.062306 0.222423
v -0.236620 0.062306 0.161600
v -0.278163 0.062306 0.084958
v -0.292478 0.062306 0.000000
v -0.278163 0.062306 -0.084958
v -0.236620 0.062306 -0.161600
v -0.171914 0.062306 -0.222423
v -0.090381 0.062306 -0.261474
v -0.000000 0.062306 -0.274930
v 0.090381 0.062306 -0.261474
v 0.171914 0.062306 -0.222423
v 0.236620 0.062306 -0.161600
v 0.278163 0.062306 -0.084958
v 0.270291 0.121487 0.000000
v 0.257062 0.121487 0.078513
v 0.218670 0.121487 0.149340
v 0.158873 0.121487 0.205550
v 0.083524 0.121487 0.241638
v 0.000000 0.121487 0.254073
v -0.083524 0.121487 0.241638
v -0.158873 0.121487 0.205550
v -0.218670 0.121487 0.149340
v -0.257062 0.121487 0.078513
v -0.270291 0.121487 0.000000
v -0.257062 0.121487 -0.078513
v -0.218670 0.121487 -0.149340
v -0.158873 0.121487 -0.205550
v -0.083524 0.121487 -0.241638
v -0.000000 0.121487 -0.254073
v 0.083524 0.121487 -0.241638
v 0.158873 0.121487 -0.205550
v 0.218670 0.121487 -0.149340
v 0.257062 0.121487 -0.078513
v 0.234549 0.174577 0.000000
v 0.223070 0.174577 0.068131
v 0.189754 0.174577 0.129593
v 0.137865 0.174577 0.178369
v 0.072480 0.174577 0.209686
v 0.000000 0.174577 0.220476
v -0.072480 0.174577 0.209686
v -0.137865 0.174577 0.178369
v -0.189754 0.174577 0.129593
v -0.223070 0.174577 0.068131
v -0.234549 0.174577 0.000000
v -0.223070 0.174577 -0.068131
v -0.189754 0.174577 -0.129593
v -0.137865 0.174577 -0.178369
v -0.072480 0.174577 -0.209686
v -0.000000 0.174577 -0.220476
v 0.072480 0.174577 -0.209686
v 0.137865 0.174577 -0.178369
v 0.189754 0.174577 -0.129593
v 0.223070 0.174577 -0.068131
v 0.187047 0.218913 0.000000
v 0.177892 0.218913 0.054333
v 0.151324 0.218913 0.103347
v 0.109943 0.218913 0.142245
v 0.057801 0.218913 0.167219
v 0.000000 0.218913 0.175824
v -0.057801 0.218913 0.167219
v -0.109943 0.218913 0.142245
v -0.151324 0.218913 0.103347
v -0.177892 0.218913 0.054333
v -0.187047 0.218913 0.000000
v -0.177892 0.218913 -0.054333
v -0.151324 0.218913 -0.103347
v -0.109943 0.218913 -0.142245
v -0.057801 0.218913 -0.167219
v -0.000000 0.218913 -0.175824
v 0.057801 0.218913 -0.167219
v 0.109943 0.218913 -0.142245
v 0.151324 0.218913 -0.103347
v 0.177892 0.218913 -0.054333
v 0.130165 0.252271 0.000000
v 0.123794 0.252271 0.037810
v 0.105306 0.252271 0.071919
v 0.076509 0.252271 0.098987
v 0.040223 0.252271 0.116367
v 0.000000 0.252271 0.122355
v -0.040223 0.252271 0.116367
v -0.076509 0.252271 0.098987
v -0.105306 0.252271 0.071919
v -0.123794 0.252271 0.037810
v -0.130165 0.252271 0.000000
v -0.123794 0.252271 -0.037810
v -0.105306 0.252271 -0.071919
v -0.076509 0.252271 -0.098987
v -0.040223 0.252271 -0.116367
v -0.000000 0.252271 -0.122355
v 0.040223 0.252271 -0.116367
v 0.076509 0.252271 -0.098987
v 0.105306 0.252271 -0.071919
v 0.123794 0.252271 -0.037810
v 0.066756 0.272980 0.000000
v 0.063489 0.272980 0.019391
v 0.054007 0.272980 0.036884
v 0.039238 0.272980 0.050767
v 0.020629 0.272980 0.059680
v 0.000000 0.272980 0.062751
v -0.020629 0.272980 0.059680
v -0.039238 0.272980 0.050767
v -0.054007 0.272980 0.036884
v -0.063489 0.272980 0.019391
v -0.066756 0.272980 0.000000
v -0.063489 0.272980 -0.019391
v -0.054007 0.272980 -0.036884
v -0.039238 0.272980 -0.050767
v -0.020629 0.272980 -0.059680
v -0.000000 0.272980 -0.062751
v 0.020629 0.272980 -0.059680
v 0.039238 0.272980 -0.050767
v 0.054007 0.272980 -0.036884
v 0.063489 0.272980 -0.019391
v 0.000000 0.280000 0.000000
v 0.000000 0.280000 0.000000
v 0.000000 0.280000 0.000000
v 0.000000 0.280000 0.000000
v 0.000000 0.280000 0.000000
v 0.000000 0.280000 0.000000
v -0.000000 0.280000 0.000000
v -0.000000 0.280000 0.000000
v -0.000000 0.280000 0.000000
v -0.000000 0.280000 0.000000
v -0.000000 0.280000 0.000000
v -0.000000 0.280000 -0.000000
v -0.000000 0.280000 -0.000000
v -0.000000 0.280000 -0.000000
v -0.000000 0.280000 -0.000000
v -0.000000 0.280000 -0.000000
v 0.000000 0.280000 -0.000000
v 0.000000 0.280000 -0.000000
v 0.000000 0.280000 -0.000000
v 0.000000 0.280000 -0.000000
v 0.310000 -0.057500 0.000000
v 0.300000 0.027500 0.000000
v 0.294828 -0.057500 0.095795
v 0.285317 0.027500 0.092705
v 0.250795 -0.057500 0.182213
v 0.242705 0.027500 0.176336
v 0.182213 -0.057500 0.250795
v 0.176336 0.027500 0.242705
v 0.095795 -0.057500 0.294828
v 0.092705 0.027500 0.285317
v 0.000000 -0.057500 0.310000
v 0.000000 0.027500 0.300000
v -0.095795 -0.057500 0.294828
v -0.092705 0.027500 0.285317
v -0.182213 -0.057500 0.250795
v -0.176336 0.027500 0.242705
v -0.250795 -0.057500 0.182213
v -0.242705 0.027500 0.176336
v -0.294828 -0.057500 0.095795
v -0.285317 0.027500 0.092705
v -0.310000 -0.057500 0.000000
v -0.300000 0.027500 0.000000
v -0.294828 -0.057500 -0.095795
v -0.285317 0.027500 -0.092705
v -0.250795 -0.057500 -0.182213
v -0.242705 0.027500 -0.176336
v -0.182213 -0.057500 -0.250795
v -0.176336 0.027500 -0.242705
v -0.095795 -0.057500 -0.294828
v -0.092705 0.027500 -0.285317
v -0.000000 -0.057500 -0.310000
v -0.000000 0.027500 -0.300000
v 0.095795 -0.057500 -0.294828
v 0.092705 0.027500 -0.285317
v 0.182213 -0.057500 -0.250795
v 0.176336 0.027500 -0.242705
v 0.250795 -0.057500 -0.182213
v 0.242705 0.027500 -0.176336
v 0.294828 -0.057500 -0.095795
v 0.285317 0.027500 -0.092705
v -0.023250 -0.195000 -0.317500
v 0.023250 -0.195000 -0.317500
v 0.037500 0.125000 -0.317500
v -0.037500 0.125000 -0.317500
v -0.023250 -0.195000 -0.232500
v 0.023250 -0.195000 -0.232500
v 0.037500 0.125000 -0.232500
v -0.037500 0.125000 -0.232500
v -0.317545 -0.273690 -0.087000
v -0.233157 -0.283865 -0.087000
v -0.192455 0.053690 -0.115000
v -0.276843 0.063865 -0.115000
v -0.317545 -0.273690 0.057000
v -0.233157 -0.283865 0.057000
v -0.192455 0.053690 0.085000
v -0.276843 0.063865 0.085000
v 0.233157 -0.283865 -0.087000
v 0.317545 -0.273690 -0.087000
v 0.276843 0.063865 -0.115000
v 0.192455 0.053690 -0.115000
v 0.233157 -0.283865 0.057000
v 0.317545 -0.273690 0.057000
v 0.276843 0.063865 0.085000
v 0.192455 0.053690 0.085000
v -0.035000 0.150000 -0.056500
v 0.035000 0.150000 -0.056500
v 0.035000 0.490000 -0.150000
v -0.035000 0.490000 -0.150000
v -0.035000 0.150000 0.096500
v 0.035000 0.150000 0.096500
v 0.035000 0.490000 0.190000
v -0.035000 0.490000 0.190000
f 21 22 2 1
f 22 23 3 2
f 23 24 4 3
f 24 25 5 4
f 25 26 6 5
f 26 27 7 6
f 27 28 8 7
f 28 29 9 8
f 29 30 10 9
f 30 31 11 10
f 31 32 12 11
f 32 33 13 12
f 33 34 14 13
f 34 35 15 14
f 35 36 16 15
f 36 37 17 16
f 37 38 18 17
f 38 39 19 18
f 39 40 20 19
f 40 21 1 20
f 41 42 22 21
f 42 43 23 22
f 43 44 24 23
f 44 45 25 24
f 45 46 26 25
f 46 47 27 26
f 47 48 28 27
f 48 49 29 28
f 49 50 30 29
f 50 51 31 30
f 51 52 32 31
f 52 53 33 32
f 53 54 34 33
f 54 55 35 34
f 55 56 36 35
f 56 57 37 36
f 57 58 38 37
f 58 59 39 38
f 59 60 40 39
f 60 41 21 40
f 61 62 42 41
f 62 63 43 42
f 63 64 44 43
f 64 65 45 44
f 65 66 46 45
f 66 67 47 46
f 67 68 48 47
f 68 69 49 48
f 69 70 50 49
f 70 71 51 50
f 71 72 52 51
f 72 73 53 52
f 73 74 54 53
f 74 75 55 54
f 75 76 56 55
f 76 77 57 56
f 77 78 58 57
f 78 79 59 58
f 79 80 60 59
f 80 61 41 60
f 81 82 62 61
f 82 83 63 62
f 83 84 64 63
f 84 85 65 64
f 85 86 66 65
f 86 87 67 66
f 87 88 68 67
f 88 89 69 68
f 89 90 70 69
f 90 91 71 70
f 91 92 72 71
f 92 93 73 72
f 93 94 74 73
f 94 95 75 74
f 95 96 76 75
f 96 97 77 76
f 97 98 78 77
f 98 99 79 78
f 99 100 80 79
f 100 81 61 80
f 101 102 82 81
f 102 103 83 82
f 103 104 84 83
f 104 105 85 84
f 105 106 86 85
f 106 107 87 86
f 107 108 88 87
f 108 109 89 88
f 109 110 90 89
f 110 111 91 90
f 111 112 92 91
f 112 113 93 92
f 113 114 94 93
f 114 115 95 94
f 115 116 96 95
f 116 117 97 96
f 117 118 98 97
f 118 119 99 98
f 119 120 100 99
f 120 101 81 100
f 121 122 102 101
f 122 123 103 102
f 123 124 104 103
f 124 125 105 104
f 125 126 106 105
f 126 127 107 106
f 127 128 108 107
f 128 129 109 108
f 129 130 110 109
f 130 131 111 110
f 131 132 112 111
f 132 133 113 112
f 133 134 114 113
f 134 135 115 114
f 135 136 116 115
f 136 137 117 116
f 137 138 118 117
f 138 139 119 118
f 139 140 120 119
f 140 121 101 120
f 141 142 122 121
f 142 143 123 122
f 143 144 124 123
f 144 145 125 124
f 145 146 126 125
f 146 147 127 126
f 147 148 128 127
f 148 149 129 128
f 149 150 130 129
f 150 151 131 130
f 151 152 132 131
f 152 153 133 132
f 153 154 134 133
f 154 155 135 134
f 155 156 136 135
f 156 157 137 136
f 157 158 138 137
f 158 159 139 138
f 159 160 140 139
f 160 141 121 140
f 162 164 163 161
f 164 166 165 163
f 166 168 167 165
f 168 170 169 167
f 170 172 171 169
f 172 174 173 171
f 174 176 175 173
f 176 178 177 175
f 178 180 179 177
f 180 182 181 179
f 182 184 183 181
f 184 186 185 183
f 186 188 187 185
f 188 190 189 187
f 190 192 191 189
f 192 194 193 191
f 194 196 195 193
f 196 198 197 195
f 198 200 199 197
f 200 162 161 199
f 161 163 165 167 169 171 173 175 177 179 181 183 185 187 189 191 193 195 197 199
f 200 198 196 194 192 190 188 186 184 182 180 178 176 174 172 170 168 166 164 162
f 204 203 202 201
f 207 208 205 206
f 208 204 201 205
f 203 207 206 202
f 208 207 203 204
f 201 202 206 205
f 212 211 210 209
f 215 216 213 214
f 216 212 209 213
f 211 215 214 210
f 216 215 211 212
f 209 210 214 213
f 220 219 218 217
f 223 224 221 222
f 224 220 217 221
f 219 223 222 218
f 224 223 219 220
f 217 218 222 221
f 228 227 226 225
f 231 232 229 230
f 232 228 225 229
f 227 231 230 226
f 232 231 227 228
f 225 226 230 229
