o mount_iron_barding
s off
v -0.540000 -0.240000 -0.150000
v -0.405000 -0.240000 -0.215625
v -0.270000 -0.240000 -0.262500
v -0.135000 -0.240000 -0.290625
v 0.000000 -0.240000 -0.300000
v 0.135000 -0.240000 -0.290625
v 0.270000 -0.240000 -0.262500
v 0.405000 -0.240000 -0.215625
v 0.540000 -0.240000 -0.150000
v -0.540000 0.000000 -0.150000
v -0.405000 0.000000 -0.215625
v -0.270000 0.000000 -0.262500
v -0.135000 0.000000 -0.290625
v 0.000000 0.000000 -0.300000
v 0.135000 0.000000 -0.290625
v 0.270000 0.000000 -0.262500
v 0.405000 0.000000 -0.215625
v 0.540000 0.000000 -0.150000
v -0.540000 0.240000 -0.150000
v -0.405000 0.240000 -0.215625
v -0.270000 0.240000 -0.262500
v -0.135000 0.240000 -0.290625
v 0.000000 0.240000 -0.300000
v 0.135000 0.240000 -0.290625
v 0.270000 0.240000 -0.262500
v 0.405000 0.240000 -0.215625
v 0.540000 0.240000 -0.150000
v -0.540000 -0.240000 0.150000
v -0.405000 -0.240000 0.084375
v -0.270000 -0.240000 0.037500
v -0.135000 -0.240000 0.009375
v 0.000000 -0.240000 0.000000
v 0.135000 -0.240000 0.009375
v 0.270000 -0.240000 0.037500
v 0.405000 -0.240000 0.084375
v 0.540000 -0.240000 0.150000
v -0.540000 0.000000 0.150000
v -0.405000 0.000000 0.084375
v -0.270000 0.000000 0.037500
v -0.135000 0.000000 0.009375
v 0.000000 0.000000 0.000000
v 0.135000 0.000000 0.009375
v 0.270000 0.000000 0.037500
v 0.405000 0.000000 0.084375
v 0.540000 0.000000 0.150000
v -0.540000 0.240000 0.150000
v -0.405000 0.240000 0.084375
v -0.270000 0.240000 0.037500
v -0.135000 0.240000 0.009375
v 0.000000 0.240000 0.000000
v 0.135000 0.240000 0.009375
v 0.270000 0.240000 0.037500
v 0.405000 0.240000 0.084375
v 0.540000 0.240000 0.150000
v -0.522642 -0.324669 -0.060000
v -0.352948 -0.334863 -0.060000
v -0.337358 -0.075331 -0.060000
v -0.507052 -0.065137 -0.060000
v -0.522642 -0.324669 0.200000
v -0.352948 -0.334863 0.200000
v -0.337358 -0.075331 0.200000
v -0.507052 -0.065137 0.200000
v -0.077052 -0.334863 -0.060000
v 0.092642 -0.324669 -0.060000
v 0.077052 -0.065137 -0.060000
v -0.092642 -0.075331 -0.060000
v -0.077052 -0.334863 0.200000
v 0.092642 -0.324669 0.200000
v 0.077052 -0.065137 0.200000
v -0.092642 -0.075331 0.200000
v 0.352948 -0.334863 -0.060000
v 0.522642 -0.324669 -0.060000
v 0.507052 -0.065137 -0.060000
v 0.337358 -0.075331 -0.060000
v 0.352948 -0.334863 0.200000
v 0.522642 -0.324669 0.200000
v 0.507052 -0.065137 0.200000
v 0.337358 -0.075331 0.200000
f 10 11 2 1
f 11 12 3 2
f 12 13 4 3
f 13 14 5 4
f 14 15 6 5
f 15 16 7 6
f 16 17 8 7
f 17 18 9 8
f 19 20 11 10
f 20 21 12 11
f 21 22 13 12
f 22 23 14 13
f 23 24 15 14
f 24 25 16 15
f 25 26 17 16
f 26 27 18 17
f 29 38 37 28
f 30 39 38 29
f 31 40 39 30
f 32 41 40 31
f 33 42 41 32
f 34 43 42 33
f 35 44 43 34
f 36 45 44 35
f 38 47 46 37
f 39 48 47 38
f 40 49 48 39
f 41 50 49 40
f 42 51 50 41
f 43 52 51 42
f 44 53 52 43
f 45 54 53 44
f 2 29 28 1
f 46 47 20 19
f 3 30 29 2
f 47 48 21 20
f 4 31 30 3
f 48 49 22 21
f 5 32 31 4
f 49 50 23 22
f 6 33 32 5
f 50 51 24 23
f 7 34 33 6
f 51 52 25 24
f 8 35 34 7
f 52 53 26 25
f 9 36 35 8
f 53 54 27 26
f 28 37 10 1
f 45 36 9 18
f 37 46 19 10
f 54 45 18 27
f 58 57 56 55
f 61 62 59 60
f 62 58 55 59
f 57 61 60 56
f 62 61 57 58
f 55 56 60 59
f 66 65 64 63
f 69 70 67 68
f 70 66 63 67
f 65 69 68 64
f 70 69 65 66
f 63 64 68 67
f 74 73 72 71
f 77 78 75 76
f 78 74 71 75
f 73 77 76 72
f 78 77 73 74
f 71 72 76 75
