o ogre_captain_helmet
s off
v 0.434808 0.000000 0.000000
v 0.401710 0.000000 0.146365
v 0.307456 0.000000 0.270447
v 0.166394 0.000000 0.353356
v 0.000000 0.000000 0.382470
v -0.166394 0.000000 0.353356
v -0.307456 0.000000 0.270447
v -0.401710 0.000000 0.146365
v -0.434808 0.000000 0.000000
v -0.401710 0.000000 -0.146365
v -0.307456 0.000000 -0.270447
v -0.166394 0.000000 -0.353356
v -0.000000 0.000000 -0.382470
v 0.166394 0.000000 -0.353356
v 0.307456 0.000000 -0.270447
v 0.401710 0.000000 -0.146365
v 0.413527 0.098020 0.000000
v 0.382049 0.098020 0.139201
v 0.292408 0.098020 0.257211
v 0.158250 0.098020 0.336062
v 0.000000 0.098020 0.363751
v -0.158250 0.098020 0.336062
v -0.292408 0.098020 0.257211
v -0.382049 0.098020 0.139201
v -0.413527 0.098020 0.000000
v -0.382049 0.098020 -0.139201
v -0.292408 0.098020 -0.257211
v -0.158250 0.098020 -0.336062
v -0.000000 0.098020 -0.363751
v 0.158250 0.098020 -0.336062
v 0.292408 0.098020 -0.257211
v 0.382049 0.098020 -0.139201
v 0.351767 0.186445 0.000000
v 0.324990 0.186445 0.118412
v 0.248737 0.186445 0.218796
v 0.134615 0.186445 0.285871
v 0.000000 0.186445 0.309425
v -0.134615 0.186445 0.285871
v -0.248737 0.186445 0.218796
v -0.324990 0.186445 0.118412
v -0.351767 0.186445 0.000000
v -0.324990 0.186445 -0.118412
v -0.248737 0.186445 -0.218796
v -0.134615 0.186445 -0.285871
v -0.000000 0.186445 -0.309425
v 0.134615 0.186445 -0.285871
v 0.248737 0.186445 -0.218796
v 0.324990 0.186445 -0.118412
v 0.255574 0.256620 0.000000
v 0.236119 0.256620 0.086031
v 0.180718 0.256620 0.158965
v 0.097804 0.256620 0.207698
v 0.000000 0.256620 0.224810
v -0.097804 0.256620 0.207698
v -0.180718 0.256620 0.158965
v -0.236119 0.256620 0.086031
v -0.255574 0.256620 0.000000
v -0.236119 0.256620 -0.086031
v -0.180718 0.256620 -0.158965
v -0.097804 0.256620 -0.207698
v -0.000000 0.256620 -0.224810
v 0.097804 0.256620 -0.207698
v 0.180718 0.256620 -0.158965
v 0.236119 0.256620 -0.086031
v 0.134363 0.301675 0.000000
v 0.124135 0.301675 0.045229
v 0.095009 0.301675 0.083573
v 0.051419 0.301675 0.109193
v 0.000000 0.301675 0.118190
v -0.051419 0.301675 0.109193
v -0.095009 0.301675 0.083573
v -0.124135 0.301675 0.045229
v -0.134363 0.301675 0.000000
v -0.124135 0.301675 -0.045229
v -0.095009 0.301675 -0.083573
v -0.051419 0.301675 -0.109193
v -0.000000 0.301675 -0.118190
v 0.051419 0.301675 -0.109193
v 0.095009 0.301675 -0.083573
v 0.124135 0.301675 -0.045229
v 0.000000 0.317200 0.000000
v 0.000000 0.317200 0.000000
v 0.000000 0.317200 0.000000
v 0.000000 0.317200 0.000000
v 0.000000 0.317200 0.000000
v -0.000000 0.317200 0.000000
v -0.000000 0.317200 0.000000
v -0.000000 0.317200 0.000000
v -0.000000 0.317200 0.000000
v -0.000000 0.317200 -0.000000
v -0.000000 0.317200 -0.000000
v -0.000000 0.317200 -0.000000
v -0.000000 0.317200 -0.000000
v 0.000000 0.317200 -0.000000
v 0.000000 0.317200 -0.000000
v 0.000000 0.317200 -0.000000
v 0.427000 -0.097600 0.000000
v 0.414800 0.024400 0.000000
v 0.384714 -0.097600 0.185268
v 0.373722 0.024400 0.179975
v 0.266230 -0.097600 0.333842
v 0.258624 0.024400 0.324304
v 0.095016 -0.097600 0.416294
v 0.092302 0.024400 0.404400
v -0.095016 -0.097600 0.416294
v -0.092302 0.024400 0.404400
v -0.266230 -0.097600 0.333842
v -0.258624 0.024400 0.324304
v -0.384714 -0.097600 0.185268
v -0.373722 0.024400 0.179975
v -0.427000 -0.097600 0.000000
v -0.414800 0.024400 0.000000
v -0.384714 -0.097600 -0.185268
v -0.373722 0.024400 -0.179975
v -0.266230 -0.097600 -0.333842
v -0.258624 0.024400 -0.324304
v -0.095016 -0.097600 -0.416294
v -0.092302 0.024400 -0.404400
v 0.095016 -0.097600 -0.416294
v 0.092302 0.024400 -0.404400
v 0.266230 -0.097600 -0.333842
v 0.258624 0.024400 -0.324304
v 0.384714 -0.097600 -0.185268
v 0.373722 0.024400 -0.179975
v -0.048312 -0.311100 -0.420900
v 0.048312 -0.311100 -0.420900
v 0.067100 0.091500 -0.420900
v -0.067100 0.091500 -0.420900
v -0.048312 -0.311100 -0.286700
v 0.048312 -0.311100 -0.286700
v 0.067100 0.091500 -0.286700
v -0.067100 0.091500 -0.286700
v -0.421380 -0.281646 -0.126392
v -0.288493 -0.300373 -0.126392
v -0.237420 0.062046 -0.158600
v -0.370307 0.080773 -0.158600
v -0.421380 -0.281646 0.077592
v -0.288493 -0.300373 0.077592
v -0.237420 0.062046 0.109800
v -0.370307 0.080773 0.109800
v -0.225700 0.170800 0.020000
v -0.252500 0.170800 0.084700
v -0.317200 0.170800 0.111500
v -0.381900 0.170800 0.084700
v -0.408700 0.170800 0.020000
v -0.381900 0.170800 -0.044700
v -0.317200 0.170800 -0.071500
v -0.252500 0.170800 -0.044700
v -0.622011 0.597761 0.020000
v 0.288493 -0.300373 -0.126392
v 0.421380 -0.281646 -0.126392
v 0.370307 0.080773 -0.158600
v 0.237420 0.062046 -0.158600
v 0.288493 -0.300373 0.077592
v 0.421380 -0.281646 0.077592
v 0.370307 0.080773 0.109800
v 0.237420 0.062046 0.109800
v 0.408700 0.170800 0.020000
v 0.381900 0.170800 0.084700
v 0.317200 0.170800 0.111500
v 0.252500 0.170800 0.084700
v 0.225700 0.170800 0.020000
v 0.252500 0.170800 -0.044700
v 0.317200 0.170800 -0.071500
v 0.381900 0.170800 -0.044700
v 0.622011 0.597761 0.020000
v -0.140300 0.305000 0.158600
v -0.165564 0.305000 0.211061
v -0.222331 0.305000 0.224018
v -0.267855 0.305000 0.187714
v -0.267855 0.305000 0.129486
v -0.222331 0.305000 0.093182
v -0.165564 0.305000 0.106139
v -0.348019 0.669021 0.299219
v 0.274500 0.305000 0.158600
v 0.249236 0.305000 0.211061
v 0.192469 0.305000 0.224018
v 0.146945 0.305000 0.187714
v 0.146945 0.305000 0.129486
v 0.192469 0.305000 0.093182
v 0.249236 0.305000 0.106139
v 0.348019 0.669021 0.299219
v -0.155550 0.152500 -0.298900
v 0.155550 0.152500 -0.298900
v 0.207400 0.311100 -0.298900
v -0.207400 0.311100 -0.298900
v -0.155550 0.152500 -0.189100
v 0.155550 0.152500 -0.189100
v 0.207400 0.311100 -0.189100
v -0.207400 0.311100 -0.189100
f 17 18 2 1
f 18 19 3 2
f 19 20 4 3
f 20 21 5 4
f 21 22 6 5
f 22 23 7 6
f 23 24 8 7
f 24 25 9 8
f 25 26 10 9
f 26 27 11 10
f 27 28 12 11
f 28 29 13 12
f 29 30 14 13
f 30 31 15 14
f 31 32 16 15
f 32 17 1 16
f 33 34 18 17
f 34 35 19 18
f 35 36 20 19
f 36 37 21 20
f 37 38 22 21
f 38 39 23 22
f 39 40 24 23
f 40 41 25 24
f 41 42 26 25
f 42 43 27 26
f 43 44 28 27
f 44 45 29 28
f 45 46 30 29
f 46 47 31 30
f 47 48 32 31
f 48 33 17 32
f 49 50 34 33
f 50 51 35 34
f 51 52 36 35
f 52 53 37 36
f 53 54 38 37
f 54 55 39 38
f 55 56 40 39
f 56 57 41 40
f 57 58 42 41
f 58 59 43 42
f 59 60 44 43
f 60 61 45 44
f 61 62 46 45
f 62 63 47 46
f 63 64 48 47
f 64 49 33 48
f 65 66 50 49
f 66 67 51 50
f 67 68 52 51
f 68 69 53 52
f 69 70 54 53
f 70 71 55 54
f 71 72 56 55
f 72 73 57 56
f 73 74 58 57
f 74 75 59 58
f 75 76 60 59
f 76 77 61 60
f 77 78 62 61
f 78 79 63 62
f 79 80 64 63
f 80 65 49 64
f 81 82 66 65
f 82 83 67 66
f 83 84 68 67
f 84 85 69 68
f 85 86 70 69
f 86 87 71 70
f 87 88 72 71
f 88 89 73 72
f 89 90 74 73
f 90 91 75 74
f 91 92 76 75
f 92 93 77 76
f 93 94 78 77
f 94 95 79 78
f 95 96 80 79
f 96 81 65 80
f 98 100 99 97
f 100 102 101 99
f 102 104 103 101
f 104 106 105 103
f 106 108 107 105
f 108 110 109 107
f 110 112 111 109
f 112 114 113 111
f 114 116 115 113
f 116 118 117 115
f 118 120 119 117
f 120 122 121 119
f 122 124 123 121
f 124 98 97 123
f 97 99 101 103 105 107 109 111 113 115 117 119 121 123
f 124 122 120 118 116 114 112 110 108 106 104 102 100 98
f 128 127 126 125
f 131 132 129 130
f 132 128 125 129
f 127 131 130 126
f 132 131 127 128
f 125 126 130 129
f 136 135 134 133
f 139 140 137 138
f 140 136 133 137
f 135 139 138 134
f 140 139 135 136
f 133 134 138 137
f 149 142 141
f 149 143 142
f 149 144 143
f 149 145 144
f 149 146 145
f 149 147 146
f 149 148 147
f 149 141 148
f 141 142 143 144 145 146 147 148
f 153 152 151 150
f 156 157 154 155
f 157 153 150 154
f 152 156 155 151
f 157 156 152 153
f 150 151 155 154
f 166 159 158
f 166 160 159
f 166 161 160
f 166 162 161
f 166 163 162
f 166 164 163
f 166 165 164
f 166 158 165
f 158 159 160 161 162 163 164 165
f 174 168 167
f 174 169 168
f 174 170 169
f 174 171 170
f 174 172 171
f 174 173 172
f 174 167 173
f 167 168 169 170 171 172 173
f 182 176 175
f 182 177 176
f 182 178 177
f 182 179 178
f 182 180 179
f 182 181 180
f 182 175 181
f 175 176 177 178 179 180 181
f 186 185 184 183
f 189 190 187 188
f 190 186 183 187
f 185 189 188 184
f 190 189 185 186
f 183 184 188 187
