o ogre_captain_jaw
s off
v -0.194400 -0.100000 -0.140000
v 0.194400 -0.100000 -0.140000
v 0.270000 0.080000 -0.140000
v -0.270000 0.080000 -0.140000
v -0.194400 -0.100000 0.040000
v 0.194400 -0.100000 0.040000
v 0.270000 0.080000 0.040000
v -0.270000 0.080000 0.040000
v -0.155000 -0.040000 -0.130000
v -0.171109 -0.040000 -0.091109
v -0.210000 -0.040000 -0.075000
v -0.248891 -0.040000 -0.091109
v -0.265000 -0.040000 -0.130000
v -0.248891 -0.040000 -0.168891
v -0.210000 -0.040000 -0.185000
v -0.171109 -0.040000 -0.168891
v -0.210000 0.189453 -0.323265
v 0.265000 -0.040000 -0.130000
v 0.248891 -0.040000 -0.091109
v 0.210000 -0.040000 -0.075000
v 0.171109 -0.040000 -0.091109
v 0.155000 -0.040000 -0.130000
v 0.171109 -0.040000 -0.168891
v 0.210000 -0.040000 -0.185000
v 0.248891 -0.040000 -0.168891
v 0.210000 0.189453 -0.323265
f 4 3 2 1
f 7 8 5 6
f 8 4 1 5
f 3 7 6 2
f 8 7 3 4
f 1 2 6 5
f 17 10 9
f 17 11 10
f 17 12 11
f 17 13 12
f 17 14 13
f 17 15 14
f 17 16 15
f 17 9 16
f 9 10 11 12 13 14 15 16
f 26 19 18
f 26 20 19
f 26 21 20
f 26 22 21
f 26 23 22
f 26 24 23
f 26 25 24
f 26 18 25
f 18 19 20 21 22 23 24 25
