o ogre_bronze_guard_helmet
s off
v 0.356400 0.000000 0.000000
v 0.329271 0.000000 0.119971
v 0.252013 0.000000 0.221678
v 0.136388 0.000000 0.289636
v 0.000000 0.000000 0.313500
v -0.136388 0.000000 0.289636
v -0.252013 0.000000 0.221678
v -0.329271 0.000000 0.119971
v -0.356400 0.000000 0.000000
v -0.329271 0.000000 -0.119971
v -0.252013 0.000000 -0.221678
v -0.136388 0.000000 -0.289636
v -0.000000 0.000000 -0.313500
v 0.136388 0.000000 -0.289636
v 0.252013 0.000000 -0.221678
v 0.329271 0.000000 -0.119971
v 0.338957 0.080344 0.000000
v 0.313155 0.080344 0.114099
v 0.239678 0.080344 0.210828
v 0.129713 0.080344 0.275460
v 0.000000 0.080344 0.298156
v -0.129713 0.080344 0.275460
v -0.239678 0.080344 0.210828
v -0.313155 0.080344 0.114099
v -0.338957 0.080344 0.000000
v -0.313155 0.080344 -0.114099
v -0.239678 0.080344 -0.210828
v -0.129713 0.080344 -0.275460
v -0.000000 0.080344 -0.298156
v 0.129713 0.080344 -0.275460
v 0.239678 0.080344 -0.210828
v 0.313155 0.080344 -0.114099
v 0.288334 0.152824 0.000000
v 0.266386 0.152824 0.097059
v 0.203883 0.152824 0.179341
v 0.110341 0.152824 0.234321
v 0.000000 0.152824 0.253627
v -0.110341 0.152824 0.234321
v -0.203883 0.152824 0.179341
v -0.266386 0.152824 0.097059
v -0.288334 0.152824 0.000000
v -0.266386 0.152824 -0.097059
v -0.203883 0.152824 -0.179341
v -0.110341 0.152824 -0.234321
v -0.000000 0.152824 -0.253627
v 0.110341 0.152824 -0.234321
v 0.203883 0.152824 -0.179341
v 0.266386 0.152824 -0.097059
v 0.209487 0.210344 0.000000
v 0.193540 0.210344 0.070517
v 0.148129 0.210344 0.130299
v 0.080167 0.210344 0.170244
v 0.000000 0.210344 0.184271
v -0.080167 0.210344 0.170244
v -0.148129 0.210344 0.130299
v -0.193540 0.210344 0.070517
v -0.209487 0.210344 0.000000
v -0.193540 0.210344 -0.070517
v -0.148129 0.210344 -0.130299
v -0.080167 0.210344 -0.170244
v -0.000000 0.210344 -0.184271
v 0.080167 0.210344 -0.170244
v 0.148129 0.210344 -0.130299
v 0.193540 0.210344 -0.070517
v 0.110134 0.247275 0.000000
v 0.101750 0.247275 0.037073
v 0.077876 0.247275 0.068502
v 0.042146 0.247275 0.089503
v 0.000000 0.247275 0.096877
v -0.042146 0.247275 0.089503
v -0.077876 0.247275 0.068502
v -0.101750 0.247275 0.037073
v -0.110134 0.247275 0.000000
v -0.101750 0.247275 -0.037073
v -0.077876 0.247275 -0.068502
v -0.042146 0.247275 -0.089503
v -0.000000 0.247275 -0.096877
v 0.042146 0.247275 -0.089503
v 0.077876 0.247275 -0.068502
v 0.101750 0.247275 -0.037073
v 0.000000 0.260000 0.000000
v 0.000000 0.260000 0.000000
v 0.000000 0.260000 0.000000
v 0.000000 0.260000 0.000000
v 0.000000 0.260000 0.000000
v -0.000000 0.260000 0.000000
v -0.000000 0.260000 0.000000
v -0.000000 0.260000 0.000000
v -0.000000 0.260000 0.000000
v -0.000000 0.260000 -0.000000
v -0.000000 0.260000 -0.000000
v -0.000000 0.260000 -0.000000
v -0.000000 0.260000 -0.000000
v 0.000000 0.260000 -0.000000
v 0.000000 0.260000 -0.000000
v 0.000000 0.260000 -0.000000
v 0.350000 -0.080000 0.000000
v 0.340000 0.020000 0.000000
v 0.315339 -0.080000 0.151859
v 0.306329 0.020000 0.147520
v 0.218221 -0.080000 0.273641
v 0.211987 0.020000 0.265823
v 0.077882 -0.080000 0.341225
v 0.075657 0.020000 0.331475
v -0.077882 -0.080000 0.341225
v -0.075657 0.020000 0.331475
v -0.218221 -0.080000 0.273641
v -0.211987 0.020000 0.265823
v -0.315339 -0.080000 0.151859
v -0.306329 0.020000 0.147520
v -0.350000 -0.080000 0.000000
v -0.340000 0.020000 0.000000
v -0.315339 -0.080000 -0.151859
v -0.306329 0.020000 -0.147520
v -0.218221 -0.080000 -0.273641
v -0.211987 0.020000 -0.265823
v -0.077882 -0.080000 -0.341225
v -0.075657 0.020000 -0.331475
v 0.077882 -0.080000 -0.341225
v 0.075657 0.020000 -0.331475
v 0.218221 -0.080000 -0.273641
v 0.211987 0.020000 -0.265823
v 0.315339 -0.080000 -0.151859
v 0.306329 0.020000 -0.147520
v -0.039600 -0.255000 -0.345000
v 0.039600 -0.255000 -0.345000
v 0.055000 0.075000 -0.345000
v -0.055000 0.075000 -0.345000
v -0.039600 -0.255000 -0.235000
v 0.039600 -0.255000 -0.235000
v 0.055000 0.075000 -0.235000
v -0.055000 0.075000 -0.235000
v -0.345393 -0.230858 -0.103600
v -0.236470 -0.246207 -0.103600
v -0.194607 0.050858 -0.130000
v -0.303530 0.066207 -0.130000
v -0.345393 -0.230858 0.063600
v -0.236470 -0.246207 0.063600
v -0.194607 0.050858 0.090000
v -0.303530 0.066207 0.090000
v -0.185000 0.140000 0.020000
v -0.206967 0.140000 0.073033
v -0.260000 0.140000 0.095000
v -0.313033 0.140000 0.073033
v -0.335000 0.140000 0.020000
v -0.313033 0.140000 -0.033033
v -0.260000 0.140000 -0.055000
v -0.206967 0.140000 -0.033033
v -0.509845 0.489968 0.020000
v 0.236470 -0.246207 -0.103600
v 0.345393 -0.230858 -0.103600
v 0.303530 0.066207 -0.130000
v 0.194607 0.050858 -0.130000
v 0.236470 -0.246207 0.063600
v 0.345393 -0.230858 0.063600
v 0.303530 0.066207 0.090000
v 0.194607 0.050858 0.090000
v 0.335000 0.140000 0.020000
v 0.313033 0.140000 0.073033
v 0.260000 0.140000 0.095000
v 0.206967 0.140000 0.073033
v 0.185000 0.140000 0.020000
v 0.206967 0.140000 -0.033033
v 0.260000 0.140000 -0.055000
v 0.313033 0.140000 -0.033033
v 0.509845 0.489968 0.020000
f 17 18 2 1
f 18 19 3 2
f 19 20 4 3
f 20 21 5 4
f 21 22 6 5
f 22 23 7 6
f 23 24 8 7
f 24 25 9 8
f 25 26 10 9
f 26 27 11 10
f 27 28 12 11
f 28 29 13 12
f 29 30 14 13
f 30 31 15 14
f 31 32 16 15
f 32 17 1 16
f 33 34 18 17
f 34 35 19 18
f 35 36 20 19
f 36 37 21 20
f 37 38 22 21
f 38 39 23 22
f 39 40 24 23
f 40 41 25 24
f 41 42 26 25
f 42 43 27 26
f 43 44 28 27
f 44 45 29 28
f 45 46 30 29
f 46 47 31 30
f 47 48 32 31
f 48 33 17 32
f 49 50 34 33
f 50 51 35 34
f 51 52 36 35
f 52 53 37 36
f 53 54 38 37
f 54 55 39 38
f 55 56 40 39
f 56 57 41 40
f 57 58 42 41
f 58 59 43 42
f 59 60 44 43
f 60 61 45 44
f 61 62 46 45
f 62 63 47 46
f 63 64 48 47
f 64 49 33 48
f 65 66 50 49
f 66 67 51 50
f 67 68 52 51
f 68 69 53 52
f 69 70 54 53
f 70 71 55 54
f 71 72 56 55
f 72 73 57 56
f 73 74 58 57
f 74 75 59 58
f 75 76 60 59
f 76 77 61 60
f 77 78 62 61
f 78 79 63 62
f 79 80 64 63
f 80 65 49 64
f 81 82 66 65
f 82 83 67 66
f 83 84 68 67
f 84 85 69 68
f 85 86 70 69
f 86 87 71 70
f 87 88 72 71
f 88 89 73 72
f 89 90 74 73
f 90 91 75 74
f 91 92 76 75
f 92 93 77 76
f 93 94 78 77
f 94 95 79 78
f 95 96 80 79
f 96 81 65 80
f 98 100 99 97
f 100 102 101 99
f 102 104 103 101
f 104 106 105 103
f 106 108 107 105
f 108 110 109 107
f 110 112 111 109
f 112 114 113 111
f 114 116 115 113
f 116 118 117 115
f 118 120 119 117
f 120 122 121 119
f 122 124 123 121
f 124 98 97 123
f 97 99 101 103 105 107 109 111 113 115 117 119 121 123
f 124 122 120 118 116 114 112 110 108 106 104 102 100 98
f 128 127 126 125
f 131 132 129 130
f 132 128 125 129
f 127 131 130 126
f 132 131 127 128
f 125 126 130 129
f 136 135 134 133
f 139 140 137 138
f 140 136 133 137
f 135 139 138 134
f 140 139 135 136
f 133 134 138 137
f 149 142 141
f 149 143 142
f 149 144 143
f 149 145 144
f 149 146 145
f 149 147 146
f 149 148 147
f 149 141 148
f 141 142 143 144 145 146 147 148
f 153 152 151 150
f 156 157 154 155
f 157 153 150 154
f 152 156 155 151
f 157 156 152 153
f 150 151 155 154
f 166 159 158
f 166 160 159
f 166 161 160
f 166 162 161
f 166 163 162
f 166 164 163
f 166 165 164
f 166 158 165
f 158 159 160 161 162 163 164 165
