o ogre_iron_breaker_helmet
s off
v 0.384912 0.000000 0.000000
v 0.355612 0.000000 0.129569
v 0.272174 0.000000 0.239412
v 0.147299 0.000000 0.312807
v 0.000000 0.000000 0.338580
v -0.147299 0.000000 0.312807
v -0.272174 0.000000 0.239412
v -0.355612 0.000000 0.129569
v -0.384912 0.000000 0.000000
v -0.355612 0.000000 -0.129569
v -0.272174 0.000000 -0.239412
v -0.147299 0.000000 -0.312807
v -0.000000 0.000000 -0.338580
v 0.147299 0.000000 -0.312807
v 0.272174 0.000000 -0.239412
v 0.355612 0.000000 -0.129569
v 0.366073 0.086772 0.000000
v 0.338207 0.086772 0.123227
v 0.258853 0.086772 0.227695
v 0.140090 0.086772 0.297497
v 0.000000 0.086772 0.322009
v -0.140090 0.086772 0.297497
v -0.258853 0.086772 0.227695
v -0.338207 0.086772 0.123227
v -0.366073 0.086772 0.000000
v -0.338207 0.086772 -0.123227
v -0.258853 0.086772 -0.227695
v -0.140090 0.086772 -0.297497
v -0.000000 0.086772 -0.322009
v 0.140090 0.086772 -0.297497
v 0.258853 0.086772 -0.227695
v 0.338207 0.086772 -0.123227
v 0.311400 0.165050 0.000000
v 0.287696 0.165050 0.104823
v 0.220193 0.165050 0.193689
v 0.119168 0.165050 0.253066
v 0.000000 0.165050 0.273917
v -0.119168 0.165050 0.253066
v -0.220193 0.165050 0.193689
v -0.287696 0.165050 0.104823
v -0.311400 0.165050 0.000000
v -0.287696 0.165050 -0.104823
v -0.220193 0.165050 -0.193689
v -0.119168 0.165050 -0.253066
v -0.000000 0.165050 -0.273917
v 0.119168 0.165050 -0.253066
v 0.220193 0.165050 -0.193689
v 0.287696 0.165050 -0.104823
v 0.226246 0.227172 0.000000
v 0.209024 0.227172 0.076159
v 0.159980 0.227172 0.140723
v 0.086580 0.227172 0.183863
v 0.000000 0.227172 0.199012
v -0.086580 0.227172 0.183863
v -0.159980 0.227172 0.140723
v -0.209024 0.227172 0.076159
v -0.226246 0.227172 0.000000
v -0.209024 0.227172 -0.076159
v -0.159980 0.227172 -0.140723
v -0.086580 0.227172 -0.183863
v -0.000000 0.227172 -0.199012
v 0.086580 0.227172 -0.183863
v 0.159980 0.227172 -0.140723
v 0.209024 0.227172 -0.076159
v 0.118944 0.267057 0.000000
v 0.109890 0.267057 0.040039
v 0.084106 0.267057 0.073982
v 0.045518 0.267057 0.096663
v 0.000000 0.267057 0.104627
v -0.045518 0.267057 0.096663
v -0.084106 0.267057 0.073982
v -0.109890 0.267057 0.040039
v -0.118944 0.267057 0.000000
v -0.109890 0.267057 -0.040039
v -0.084106 0.267057 -0.073982
v -0.045518 0.267057 -0.096663
v -0.000000 0.267057 -0.104627
v 0.045518 0.267057 -0.096663
v 0.084106 0.267057 -0.073982
v 0.109890 0.267057 -0.040039
v 0.000000 0.280800 0.000000
v 0.000000 0.280800 0.000000
v 0.000000 0.280800 0.000000
v 0.000000 0.280800 0.000000
v 0.000000 0.280800 0.000000
v -0.000000 0.280800 0.000000
v -0.000000 0.280800 0.000000
v -0.000000 0.280800 0.000000
v -0.000000 0.280800 0.000000
v -0.000000 0.280800 -0.000000
v -0.000000 0.280800 -0.000000
v -0.000000 0.280800 -0.000000
v -0.000000 0.280800 -0.000000
v 0.000000 0.280800 -0.000000
v 0.000000 0.280800 -0.000000
v 0.000000 0.280800 -0.000000
v 0.378000 -0.086400 0.000000
v 0.367200 0.021600 0.000000
v 0.340566 -0.086400 0.164008
v 0.330836 0.021600 0.159322
v 0.235679 -0.086400 0.295532
v 0.228945 0.021600 0.287089
v 0.084113 -0.086400 0.368523
v 0.081710 0.021600 0.357994
v -0.084113 -0.086400 0.368523
v -0.081710 0.021600 0.357994
v -0.235679 -0.086400 0.295532
v -0.228945 0.021600 0.287089
v -0.340566 -0.086400 0.164008
v -0.330836 0.021600 0.159322
v -0.378000 -0.086400 0.000000
v -0.367200 0.021600 0.000000
v -0.340566 -0.086400 -0.164008
v -0.330836 0.021600 -0.159322
v -0.235679 -0.086400 -0.295532
v -0.228945 0.021600 -0.287089
v -0.084113 -0.086400 -0.368523
v -0.081710 0.021600 -0.357994
v 0.084113 -0.086400 -0.368523
v 0.081710 0.021600 -0.357994
v 0.235679 -0.086400 -0.295532
v 0.228945 0.021600 -0.287089
v 0.340566 -0.086400 -0.164008
v 0.330836 0.021600 -0.159322
v -0.042768 -0.275400 -0.372600
v 0.042768 -0.275400 -0.372600
v 0.059400 0.081000 -0.372600
v -0.059400 0.081000 -0.372600
v -0.042768 -0.275400 -0.253800
v 0.042768 -0.275400 -0.253800
v 0.059400 0.081000 -0.253800
v -0.059400 0.081000 -0.253800
v -0.373025 -0.249326 -0.111888
v -0.255387 -0.265904 -0.111888
v -0.210175 0.054926 -0.140400
v -0.327813 0.071504 -0.140400
v -0.373025 -0.249326 0.068688
v -0.255387 -0.265904 0.068688
v -0.210175 0.054926 0.097200
v -0.327813 0.071504 0.097200
v -0.199800 0.151200 0.020000
v -0.223524 0.151200 0.077276
v -0.280800 0.151200 0.101000
v -0.338076 0.151200 0.077276
v -0.361800 0.151200 0.020000
v -0.338076 0.151200 -0.037276
v -0.280800 0.151200 -0.061000
v -0.223524 0.151200 -0.037276
v -0.550633 0.529165 0.020000
v 0.255387 -0.265904 -0.111888
v 0.373025 -0.249326 -0.111888
v 0.327813 0.071504 -0.140400
v 0.210175 0.054926 -0.140400
v 0.255387 -0.265904 0.068688
v 0.373025 -0.249326 0.068688
v 0.327813 0.071504 0.097200
v 0.210175 0.054926 0.097200
v 0.361800 0.151200 0.020000
v 0.338076 0.151200 0.077276
v 0.280800 0.151200 0.101000
v 0.223524 0.151200 0.077276
v 0.199800 0.151200 0.020000
v 0.223524 0.151200 -0.037276
v 0.280800 0.151200 -0.061000
v 0.338076 0.151200 -0.037276
v 0.550633 0.529165 0.020000
v -0.124200 0.270000 0.140400
v -0.146565 0.270000 0.186841
v -0.196818 0.270000 0.198311
v -0.237118 0.270000 0.166173
v -0.237118 0.270000 0.114627
v -0.196818 0.270000 0.082489
v -0.146565 0.270000 0.093959
v -0.308083 0.592248 0.264883
v 0.243000 0.270000 0.140400
v 0.220635 0.270000 0.186841
v 0.170382 0.270000 0.198311
v 0.130082 0.270000 0.166173
v 0.130082 0.270000 0.114627
v 0.170382 0.270000 0.082489
v 0.220635 0.270000 0.093959
v 0.308083 0.592248 0.264883
v -0.137700 0.135000 -0.264600
v 0.137700 0.135000 -0.264600
v 0.183600 0.275400 -0.264600
v -0.183600 0.275400 -0.264600
v -0.137700 0.135000 -0.167400
v 0.137700 0.135000 -0.167400
v 0.183600 0.275400 -0.167400
v -0.183600 0.275400 -0.167400
f 17 18 2 1
f 18 19 3 2
f 19 20 4 3
f 20 21 5 4
f 21 22 6 5
f 22 23 7 6
f 23 24 8 7
f 24 25 9 8
f 25 26 10 9
f 26 27 11 10
f 27 28 12 11
f 28 29 13 12
f 29 30 14 13
f 30 31 15 14
f 31 32 16 15
f 32 17 1 16
f 33 34 18 17
f 34 35 19 18
f 35 36 20 19
f 36 37 21 20
f 37 38 22 21
f 38 39 23 22
f 39 40 24 23
f 40 41 25 24
f 41 42 26 25
f 42 43 27 26
f 43 44 28 27
f 44 45 29 28
f 45 46 30 29
f 46 47 31 30
f 47 48 32 31
f 48 33 17 32
f 49 50 34 33
f 50 51 35 34
f 51 52 36 35
f 52 53 37 36
f 53 54 38 37
f 54 55 39 38
f 55 56 40 39
f 56 57 41 40
f 57 58 42 41
f 58 59 43 42
f 59 60 44 43
f 60 61 45 44
f 61 62 46 45
f 62 63 47 46
f 63 64 48 47
f 64 49 33 48
f 65 66 50 49
f 66 67 51 50
f 67 68 52 51
f 68 69 53 52
f 69 70 54 53
f 70 71 55 54
f 71 72 56 55
f 72 73 57 56
f 73 74 58 57
f 74 75 59 58
f 75 76 60 59
f 76 77 61 60
f 77 78 62 61
f 78 79 63 62
f 79 80 64 63
f 80 65 49 64
f 81 82 66 65
f 82 83 67 66
f 83 84 68 67
f 84 85 69 68
f 85 86 70 69
f 86 87 71 70
f 87 88 72 71
f 88 89 73 72
f 89 90 74 73
f 90 91 75 74
f 91 92 76 75
f 92 93 77 76
f 93 94 78 77
f 94 95 79 78
f 95 96 80 79
f 96 81 65 80
f 98 100 99 97
f 100 102 101 99
f 102 104 103 101
f 104 106 105 103
f 106 108 107 105
f 108 110 109 107
f 110 112 111 109
f 112 114 113 111
f 114 116 115 113
f 116 118 117 115
f 118 120 119 117
f 120 122 121 119
f 122 124 123 121
f 124 98 97 123
f 97 99 101 103 105 107 109 111 113 115 117 119 121 123
f 124 122 120 118 116 114 112 110 108 106 104 102 100 98
f 128 127 126 125
f 131 132 129 130
f 132 128 125 129
f 127 131 130 126
f 132 131 127 128
f 125 126 130 129
f 136 135 134 133
f 139 140 137 138
f 140 136 133 137
f 135 139 138 134
f 140 139 135 136
f 133 134 138 137
f 149 142 141
f 149 143 142
f 149 144 143
f 149 145 144
f 149 146 145
f 149 147 146
f 149 148 147
f 149 141 148
f 141 142 143 144 145 146 147 148
f 153 152 151 150
f 156 157 154 155
f 157 153 150 154
f 152 156 155 151
f 157 156 152 153
f 150 151 155 154
f 166 159 158
f 166 160 159
f 166 161 160
f 166 162 161
f 166 163 162
f 166 164 163
f 166 165 164
f 166 158 165
f 158 159 160 161 162 163 164 165
f 174 168 167
f 174 169 168
f 174 170 169
f 174 171 170
f 174 172 171
f 174 173 172
f 174 167 173
f 167 168 169 170 171 172 173
f 182 176 175
f 182 177 176
f 182 178 177
f 182 179 178
f 182 180 179
f 182 181 180
f 182 175 181
f 175 176 177 178 179 180 181
f 186 185 184 183
f 189 190 187 188
f 190 186 183 187
f 185 189 188 184
f 190 189 185 186
f 183 184 188 187
