{"asset":{"version":"2.0","generator":"Castlehold original medieval mesh authoring v4 / Fieldcraft","extras":{"buffer_sha256":"bb9f37adbbd36759f164838937cb88cd5dca3a8bd2b1cfc30e4c3a9e10fc18db"}},"scene":0,"scenes":[{"nodes":[0,24]}],"nodes":[{"name":"root","translation":[0,0,0],"children":[1]},{"name":"hips","translation":[0,0.94,0],"children":[2,10,13,23]},{"name":"chest","translation":[0,0.38,0],"children":[3,4,7,16]},{"name":"head","translation":[0,0.43,0],"children":[17,22]},{"name":"upper_arm_L","translation":[-0.37,0.18,0],"children":[5]},{"name":"forearm_L","translation":[0,-0.3,0],"children":[6]},{"name":"hand_L","translation":[0,-0.24,0],"children":[18]},{"name":"upper_arm_R","translation":[0.37,0.18,0],"children":[8]},{"name":"forearm_R","translation":[0,-0.3,0],"children":[9]},{"name":"hand_R","translation":[0,-0.24,0],"children":[19]},{"name":"thigh_L","translation":[-0.16,-0.06,0],"children":[11]},{"name":"shin_L","translation":[0,-0.39,0],"children":[12]},{"name":"foot_L","translation":[0,-0.37,0],"children":[20]},{"name":"thigh_R","translation":[0.16,-0.06,0],"children":[14]},{"name":"shin_R","translation":[0,-0.39,0],"children":[15]},{"name":"foot_R","translation":[0,-0.37,0],"children":[21]},{"name":"neck","translation":[0,0.3,0]},{"name":"jaw","translation":[0,-0.14,-0.06]},{"name":"thumb_L","translation":[0.06,0,-0.02]},{"name":"thumb_R","translation":[-0.06,0,-0.02]},{"name":"toe_L","translation":[0,-0.01,-0.13]},{"name":"toe_R","translation":[0,-0.01,-0.13]},{"name":"plume","translation":[0,0.25,0.06]},{"name":"tabard","translation":[0,-0.14,-0.19]},{"name":"Archer","mesh":0,"skin":0}],"skins":[{"inverseBindMatrices":6,"joints":[0,1,2,3,4,5,6,7,8,9,10,11,12,13,14,15,16,17,18,19,20,21,22,23],"skeleton":0}],"meshes":[{"primitives":[{"attributes":{"POSITION":0,"NORMAL":1,"COLOR_0":2,"TEXCOORD_0":5,"JOINTS_0":3,"WEIGHTS_0":4},"material":0}]}],"materials":[{"name":"Fieldcraft cloth, linked mail, forged steel and skin","pbrMetallicRoughness":{"baseColorFactor":[1,1,1,1],"baseColorTexture":{"index":0},"metallicFactor":1,"roughnessFactor":1,"metallicRoughnessTexture":{"index":2}},"normalTexture":{"index":1,"scale":0.42},"doubleSided":true}],"images":[{"uri":"fieldcraft_albedo.png"},{"uri":"fieldcraft_normal.png"},{"uri":"fieldcraft_orm.png"}],"textures":[{"source":0,"sampler":0},{"source":1,"sampler":0},{"source":2,"sampler":0}],"samplers":[{"magFilter":9729,"minFilter":9987,"wrapS":33071,"wrapT":33071}],"buffers":[{"uri":"archer.bin","byteLength":1139904}],"bufferViews":[{"buffer":0,"byteOffset":0,"byteLength":185328},{"buffer":0,"byteOffset":185328,"byteLength":185328},{"buffer":0,"byteOffset":370656,"byteLength":247104},{"buffer":0,"byteOffset":617760,"byteLength":123552},{"buffer":0,"byteOffset":741312,"byteLength":247104},{"buffer":0,"byteOffset":988416,"byteLength":123552},{"buffer":0,"byteOffset":1111968,"byteLength":1536},{"buffer":0,"byteOffset":1113504,"byteLength":20},{"buffer":0,"byteOffset":1113524,"byteLength":80},{"buffer":0,"byteOffset":1113604,"byteLength":20},{"buffer":0,"byteOffset":1113624,"byteLength":80},{"buffer":0,"byteOffset":1113704,"byteLength":20},{"buffer":0,"byteOffset":1113724,"byteLength":80},{"buffer":0,"byteOffset":1113804,"byteLength":20},{"buffer":0,"byteOffset":1113824,"byteLength":80},{"buffer":0,"byteOffset":1113904,"byteLength":20},{"buffer":0,"byteOffset":1113924,"byteLength":80},{"buffer":0,"byteOffset":1114004,"byteLength":20},{"buffer":0,"byteOffset":1114024,"byteLength":80},{"buffer":0,"byteOffset":1114104,"byteLength":20},{"buffer":0,"byteOffset":1114124,"byteLength":80},{"buffer":0,"byteOffset":1114204,"byteLength":20},{"buffer":0,"byteOffset":1114224,"byteLength":80},{"buffer":0,"byteOffset":1114304,"byteLength":20},{"buffer":0,"byteOffset":1114324,"byteLength":80},{"buffer":0,"byteOffset":1114404,"byteLength":20},{"buffer":0,"byteOffset":1114424,"byteLength":80},{"buffer":0,"byteOffset":1114504,"byteLength":20},{"buffer":0,"byteOffset":1114524,"byteLength":80},{"buffer":0,"byteOffset":1114604,"byteLength":20},{"buffer":0,"byteOffset":1114624,"byteLength":80},{"buffer":0,"byteOffset":1114704,"byteLength":20},{"buffer":0,"byteOffset":1114724,"byteLength":80},{"buffer":0,"byteOffset":1114804,"byteLength":20},{"buffer":0,"byteOffset":1114824,"byteLength":80},{"buffer":0,"byteOffset":1114904,"byteLength":20},{"buffer":0,"byteOffset":1114924,"byteLength":80},{"buffer":0,"byteOffset":1115004,"byteLength":20},{"buffer":0,"byteOffset":1115024,"byteLength":80},{"buffer":0,"byteOffset":1115104,"byteLength":20},{"buffer":0,"byteOffset":1115124,"byteLength":80},{"buffer":0,"byteOffset":1115204,"byteLength":20},{"buffer":0,"byteOffset":1115224,"byteLength":80},{"buffer":0,"byteOffset":1115304,"byteLength":20},{"buffer":0,"byteOffset":1115324,"byteLength":80},{"buffer":0,"byteOffset":1115404,"byteLength":20},{"buffer":0,"byteOffset":1115424,"byteLength":80},{"buffer":0,"byteOffset":1115504,"byteLength":20},{"buffer":0,"byteOffset":1115524,"byteLength":80},{"buffer":0,"byteOffset":1115604,"byteLength":20},{"buffer":0,"byteOffset":1115624,"byteLength":80},{"buffer":0,"byteOffset":1115704,"byteLength":20},{"buffer":0,"byteOffset":1115724,"byteLength":80},{"buffer":0,"byteOffset":1115804,"byteLength":20},{"buffer":0,"byteOffset":1115824,"byteLength":80},{"buffer":0,"byteOffset":1115904,"byteLength":20},{"buffer":0,"byteOffset":1115924,"byteLength":80},{"buffer":0,"byteOffset":1116004,"byteLength":20},{"buffer":0,"byteOffset":1116024,"byteLength":80},{"buffer":0,"byteOffset":1116104,"byteLength":20},{"buffer":0,"byteOffset":1116124,"byteLength":80},{"buffer":0,"byteOffset":1116204,"byteLength":20},{"buffer":0,"byteOffset":1116224,"byteLength":80},{"buffer":0,"byteOffset":1116304,"byteLength":20},{"buffer":0,"byteOffset":1116324,"byteLength":80},{"buffer":0,"byteOffset":1116404,"byteLength":20},{"buffer":0,"byteOffset":1116424,"byteLength":80},{"buffer":0,"byteOffset":1116504,"byteLength":20},{"buffer":0,"byteOffset":1116524,"byteLength":80},{"buffer":0,"byteOffset":1116604,"byteLength":20},{"buffer":0,"byteOffset":1116624,"byteLength":80},{"buffer":0,"byteOffset":1116704,"byteLength":20},{"buffer":0,"byteOffset":1116724,"byteLength":80},{"buffer":0,"byteOffset":1116804,"byteLength":20},{"buffer":0,"byteOffset":1116824,"byteLength":80},{"buffer":0,"byteOffset":1116904,"byteLength":20},{"buffer":0,"byteOffset":1116924,"byteLength":80},{"buffer":0,"byteOffset":1117004,"byteLength":20},{"buffer":0,"byteOffset":1117024,"byteLength":80},{"buffer":0,"byteOffset":1117104,"byteLength":20},{"buffer":0,"byteOffset":1117124,"byteLength":80},{"buffer":0,"byteOffset":1117204,"byteLength":20},{"buffer":0,"byteOffset":1117224,"byteLength":80},{"buffer":0,"byteOffset":1117304,"byteLength":20},{"buffer":0,"byteOffset":1117324,"byteLength":80},{"buffer":0,"byteOffset":1117404,"byteLength":20},{"buffer":0,"byteOffset":1117424,"byteLength":80},{"buffer":0,"byteOffset":1117504,"byteLength":20},{"buffer":0,"byteOffset":1117524,"byteLength":80},{"buffer":0,"byteOffset":1117604,"byteLength":20},{"buffer":0,"byteOffset":1117624,"byteLength":80},{"buffer":0,"byteOffset":1117704,"byteLength":20},{"buffer":0,"byteOffset":1117724,"byteLength":80},{"buffer":0,"byteOffset":1117804,"byteLength":20},{"buffer":0,"byteOffset":1117824,"byteLength":80},{"buffer":0,"byteOffset":1117904,"byteLength":20},{"buffer":0,"byteOffset":1117924,"byteLength":80},{"buffer":0,"byteOffset":1118004,"byteLength":20},{"buffer":0,"byteOffset":1118024,"byteLength":80},{"buffer":0,"byteOffset":1118104,"byteLength":20},{"buffer":0,"byteOffset":1118124,"byteLength":80},{"buffer":0,"byteOffset":1118204,"byteLength":20},{"buffer":0,"byteOffset":1118224,"byteLength":80},{"buffer":0,"byteOffset":1118304,"byteLength":20},{"buffer":0,"byteOffset":1118324,"byteLength":80},{"buffer":0,"byteOffset":1118404,"byteLength":20},{"buffer":0,"byteOffset":1118424,"byteLength":80},{"buffer":0,"byteOffset":1118504,"byteLength":20},{"buffer":0,"byteOffset":1118524,"byteLength":80},{"buffer":0,"byteOffset":1118604,"byteLength":20},{"buffer":0,"byteOffset":1118624,"byteLength":80},{"buffer":0,"byteOffset":1118704,"byteLength":20},{"buffer":0,"byteOffset":1118724,"byteLength":80},{"buffer":0,"byteOffset":1118804,"byteLength":20},{"buffer":0,"byteOffset":1118824,"byteLength":80},{"buffer":0,"byteOffset":1118904,"byteLength":20},{"buffer":0,"byteOffset":1118924,"byteLength":80},{"buffer":0,"byteOffset":1119004,"byteLength":20},{"buffer":0,"byteOffset":1119024,"byteLength":80},{"buffer":0,"byteOffset":1119104,"byteLength":20},{"buffer":0,"byteOffset":1119124,"byteLength":80},{"buffer":0,"byteOffset":1119204,"byteLength":20},{"buffer":0,"byteOffset":1119224,"byteLength":80},{"buffer":0,"byteOffset":1119304,"byteLength":20},{"buffer":0,"byteOffset":1119324,"byteLength":80},{"buffer":0,"byteOffset":1119404,"byteLength":20},{"buffer":0,"byteOffset":1119424,"byteLength":80},{"buffer":0,"byteOffset":1119504,"byteLength":20},{"buffer":0,"byteOffset":1119524,"byteLength":80},{"buffer":0,"byteOffset":1119604,"byteLength":20},{"buffer":0,"byteOffset":1119624,"byteLength":80},{"buffer":0,"byteOffset":1119704,"byteLength":20},{"buffer":0,"byteOffset":1119724,"byteLength":80},{"buffer":0,"byteOffset":1119804,"byteLength":20},{"buffer":0,"byteOffset":1119824,"byteLength":80},{"buffer":0,"byteOffset":1119904,"byteLength":20},{"buffer":0,"byteOffset":1119924,"byteLength":80},{"buffer":0,"byteOffset":1120004,"byteLength":20},{"buffer":0,"byteOffset":1120024,"byteLength":80},{"buffer":0,"byteOffset":1120104,"byteLength":20},{"buffer":0,"byteOffset":1120124,"byteLength":80},{"buffer":0,"byteOffset":1120204,"byteLength":20},{"buffer":0,"byteOffset":1120224,"byteLength":80},{"buffer":0,"byteOffset":1120304,"byteLength":20},{"buffer":0,"byteOffset":1120324,"byteLength":80},{"buffer":0,"byteOffset":1120404,"byteLength":20},{"buffer":0,"byteOffset":1120424,"byteLength":80},{"buffer":0,"byteOffset":1120504,"byteLength":20},{"buffer":0,"byteOffset":1120524,"byteLength":80},{"buffer":0,"byteOffset":1120604,"byteLength":20},{"buffer":0,"byteOffset":1120624,"byteLength":80},{"buffer":0,"byteOffset":1120704,"byteLength":20},{"buffer":0,"byteOffset":1120724,"byteLength":80},{"buffer":0,"byteOffset":1120804,"byteLength":20},{"buffer":0,"byteOffset":1120824,"byteLength":80},{"buffer":0,"byteOffset":1120904,"byteLength":20},{"buffer":0,"byteOffset":1120924,"byteLength":80},{"buffer":0,"byteOffset":1121004,"byteLength":20},{"buffer":0,"byteOffset":1121024,"byteLength":80},{"buffer":0,"byteOffset":1121104,"byteLength":20},{"buffer":0,"byteOffset":1121124,"byteLength":80},{"buffer":0,"byteOffset":1121204,"byteLength":20},{"buffer":0,"byteOffset":1121224,"byteLength":80},{"buffer":0,"byteOffset":1121304,"byteLength":20},{"buffer":0,"byteOffset":1121324,"byteLength":80},{"buffer":0,"byteOffset":1121404,"byteLength":20},{"buffer":0,"byteOffset":1121424,"byteLength":80},{"buffer":0,"byteOffset":1121504,"byteLength":20},{"buffer":0,"byteOffset":1121524,"byteLength":80},{"buffer":0,"byteOffset":1121604,"byteLength":20},{"buffer":0,"byteOffset":1121624,"byteLength":80},{"buffer":0,"byteOffset":1121704,"byteLength":20},{"buffer":0,"byteOffset":1121724,"byteLength":80},{"buffer":0,"byteOffset":1121804,"byteLength":20},{"buffer":0,"byteOffset":1121824,"byteLength":80},{"buffer":0,"byteOffset":1121904,"byteLength":20},{"buffer":0,"byteOffset":1121924,"byteLength":80},{"buffer":0,"byteOffset":1122004,"byteLength":20},{"buffer":0,"byteOffset":1122024,"byteLength":80},{"buffer":0,"byteOffset":1122104,"byteLength":20},{"buffer":0,"byteOffset":1122124,"byteLength":80},{"buffer":0,"byteOffset":1122204,"byteLength":20},{"buffer":0,"byteOffset":1122224,"byteLength":80},{"buffer":0,"byteOffset":1122304,"byteLength":20},{"buffer":0,"byteOffset":1122324,"byteLength":80},{"buffer":0,"byteOffset":1122404,"byteLength":20},{"buffer":0,"byteOffset":1122424,"byteLength":80},{"buffer":0,"byteOffset":1122504,"byteLength":20},{"buffer":0,"byteOffset":1122524,"byteLength":80},{"buffer":0,"byteOffset":1122604,"byteLength":20},{"buffer":0,"byteOffset":1122624,"byteLength":80},{"buffer":0,"byteOffset":1122704,"byteLength":20},{"buffer":0,"byteOffset":1122724,"byteLength":80},{"buffer":0,"byteOffset":1122804,"byteLength":20},{"buffer":0,"byteOffset":1122824,"byteLength":80},{"buffer":0,"byteOffset":1122904,"byteLength":20},{"buffer":0,"byteOffset":1122924,"byteLength":80},{"buffer":0,"byteOffset":1123004,"byteLength":20},{"buffer":0,"byteOffset":1123024,"byteLength":80},{"buffer":0,"byteOffset":1123104,"byteLength":20},{"buffer":0,"byteOffset":1123124,"byteLength":80},{"buffer":0,"byteOffset":1123204,"byteLength":20},{"buffer":0,"byteOffset":1123224,"byteLength":80},{"buffer":0,"byteOffset":1123304,"byteLength":20},{"buffer":0,"byteOffset":1123324,"byteLength":80},{"buffer":0,"byteOffset":1123404,"byteLength":20},{"buffer":0,"byteOffset":1123424,"byteLength":80},{"buffer":0,"byteOffset":1123504,"byteLength":20},{"buffer":0,"byteOffset":1123524,"byteLength":80},{"buffer":0,"byteOffset":1123604,"byteLength":20},{"buffer":0,"byteOffset":1123624,"byteLength":80},{"buffer":0,"byteOffset":1123704,"byteLength":20},{"buffer":0,"byteOffset":1123724,"byteLength":80},{"buffer":0,"byteOffset":1123804,"byteLength":20},{"buffer":0,"byteOffset":1123824,"byteLength":80},{"buffer":0,"byteOffset":1123904,"byteLength":20},{"buffer":0,"byteOffset":1123924,"byteLength":80},{"buffer":0,"byteOffset":1124004,"byteLength":20},{"buffer":0,"byteOffset":1124024,"byteLength":80},{"buffer":0,"byteOffset":1124104,"byteLength":20},{"buffer":0,"byteOffset":1124124,"byteLength":80},{"buffer":0,"byteOffset":1124204,"byteLength":20},{"buffer":0,"byteOffset":1124224,"byteLength":80},{"buffer":0,"byteOffset":1124304,"byteLength":20},{"buffer":0,"byteOffset":1124324,"byteLength":80},{"buffer":0,"byteOffset":1124404,"byteLength":20},{"buffer":0,"byteOffset":1124424,"byteLength":80},{"buffer":0,"byteOffset":1124504,"byteLength":20},{"buffer":0,"byteOffset":1124524,"byteLength":80},{"buffer":0,"byteOffset":1124604,"byteLength":20},{"buffer":0,"byteOffset":1124624,"byteLength":80},{"buffer":0,"byteOffset":1124704,"byteLength":20},{"buffer":0,"byteOffset":1124724,"byteLength":80},{"buffer":0,"byteOffset":1124804,"byteLength":20},{"buffer":0,"byteOffset":1124824,"byteLength":80},{"buffer":0,"byteOffset":1124904,"byteLength":20},{"buffer":0,"byteOffset":1124924,"byteLength":80},{"buffer":0,"byteOffset":1125004,"byteLength":20},{"buffer":0,"byteOffset":1125024,"byteLength":80},{"buffer":0,"byteOffset":1125104,"byteLength":20},{"buffer":0,"byteOffset":1125124,"byteLength":80},{"buffer":0,"byteOffset":1125204,"byteLength":20},{"buffer":0,"byteOffset":1125224,"byteLength":80},{"buffer":0,"byteOffset":1125304,"byteLength":20},{"buffer":0,"byteOffset":1125324,"byteLength":80},{"buffer":0,"byteOffset":1125404,"byteLength":20},{"buffer":0,"byteOffset":1125424,"byteLength":80},{"buffer":0,"byteOffset":1125504,"byteLength":20},{"buffer":0,"byteOffset":1125524,"byteLength":80},{"buffer":0,"byteOffset":1125604,"byteLength":20},{"buffer":0,"byteOffset":1125624,"byteLength":80},{"buffer":0,"byteOffset":1125704,"byteLength":20},{"buffer":0,"byteOffset":1125724,"byteLength":80},{"buffer":0,"byteOffset":1125804,"byteLength":20},{"buffer":0,"byteOffset":1125824,"byteLength":80},{"buffer":0,"byteOffset":1125904,"byteLength":20},{"buffer":0,"byteOffset":1125924,"byteLength":80},{"buffer":0,"byteOffset":1126004,"byteLength":20},{"buffer":0,"byteOffset":1126024,"byteLength":80},{"buffer":0,"byteOffset":1126104,"byteLength":20},{"buffer":0,"byteOffset":1126124,"byteLength":80},{"buffer":0,"byteOffset":1126204,"byteLength":20},{"buffer":0,"byteOffset":1126224,"byteLength":80},{"buffer":0,"byteOffset":1126304,"byteLength":20},{"buffer":0,"byteOffset":1126324,"byteLength":80},{"buffer":0,"byteOffset":1126404,"byteLength":20},{"buffer":0,"byteOffset":1126424,"byteLength":80},{"buffer":0,"byteOffset":1126504,"byteLength":20},{"buffer":0,"byteOffset":1126524,"byteLength":80},{"buffer":0,"byteOffset":1126604,"byteLength":20},{"buffer":0,"byteOffset":1126624,"byteLength":80},{"buffer":0,"byteOffset":1126704,"byteLength":20},{"buffer":0,"byteOffset":1126724,"byteLength":80},{"buffer":0,"byteOffset":1126804,"byteLength":20},{"buffer":0,"byteOffset":1126824,"byteLength":80},{"buffer":0,"byteOffset":1126904,"byteLength":20},{"buffer":0,"byteOffset":1126924,"byteLength":80},{"buffer":0,"byteOffset":1127004,"byteLength":20},{"buffer":0,"byteOffset":1127024,"byteLength":80},{"buffer":0,"byteOffset":1127104,"byteLength":20},{"buffer":0,"byteOffset":1127124,"byteLength":80},{"buffer":0,"byteOffset":1127204,"byteLength":20},{"buffer":0,"byteOffset":1127224,"byteLength":80},{"buffer":0,"byteOffset":1127304,"byteLength":20},{"buffer":0,"byteOffset":1127324,"byteLength":80},{"buffer":0,"byteOffset":1127404,"byteLength":20},{"buffer":0,"byteOffset":1127424,"byteLength":80},{"buffer":0,"byteOffset":1127504,"byteLength":20},{"buffer":0,"byteOffset":1127524,"byteLength":80},{"buffer":0,"byteOffset":1127604,"byteLength":20},{"buffer":0,"byteOffset":1127624,"byteLength":80},{"buffer":0,"byteOffset":1127704,"byteLength":20},{"buffer":0,"byteOffset":1127724,"byteLength":80},{"buffer":0,"byteOffset":1127804,"byteLength":20},{"buffer":0,"byteOffset":1127824,"byteLength":80},{"buffer":0,"byteOffset":1127904,"byteLength":20},{"buffer":0,"byteOffset":1127924,"byteLength":80},{"buffer":0,"byteOffset":1128004,"byteLength":20},{"buffer":0,"byteOffset":1128024,"byteLength":80},{"buffer":0,"byteOffset":1128104,"byteLength":20},{"buffer":0,"byteOffset":1128124,"byteLength":80},{"buffer":0,"byteOffset":1128204,"byteLength":20},{"buffer":0,"byteOffset":1128224,"byteLength":80},{"buffer":0,"byteOffset":1128304,"byteLength":20},{"buffer":0,"byteOffset":1128324,"byteLength":80},{"buffer":0,"byteOffset":1128404,"byteLength":20},{"buffer":0,"byteOffset":1128424,"byteLength":80},{"buffer":0,"byteOffset":1128504,"byteLength":20},{"buffer":0,"byteOffset":1128524,"byteLength":80},{"buffer":0,"byteOffset":1128604,"byteLength":20},{"buffer":0,"byteOffset":1128624,"byteLength":80},{"buffer":0,"byteOffset":1128704,"byteLength":20},{"buffer":0,"byteOffset":1128724,"byteLength":80},{"buffer":0,"byteOffset":1128804,"byteLength":20},{"buffer":0,"byteOffset":1128824,"byteLength":80},{"buffer":0,"byteOffset":1128904,"byteLength":20},{"buffer":0,"byteOffset":1128924,"byteLength":80},{"buffer":0,"byteOffset":1129004,"byteLength":20},{"buffer":0,"byteOffset":1129024,"byteLength":80},{"buffer":0,"byteOffset":1129104,"byteLength":20},{"buffer":0,"byteOffset":1129124,"byteLength":80},{"buffer":0,"byteOffset":1129204,"byteLength":20},{"buffer":0,"byteOffset":1129224,"byteLength":80},{"buffer":0,"byteOffset":1129304,"byteLength":20},{"buffer":0,"byteOffset":1129324,"byteLength":80},{"buffer":0,"byteOffset":1129404,"byteLength":20},{"buffer":0,"byteOffset":1129424,"byteLength":80},{"buffer":0,"byteOffset":1129504,"byteLength":20},{"buffer":0,"byteOffset":1129524,"byteLength":80},{"buffer":0,"byteOffset":1129604,"byteLength":20},{"buffer":0,"byteOffset":1129624,"byteLength":80},{"buffer":0,"byteOffset":1129704,"byteLength":20},{"buffer":0,"byteOffset":1129724,"byteLength":80},{"buffer":0,"byteOffset":1129804,"byteLength":20},{"buffer":0,"byteOffset":1129824,"byteLength":80},{"buffer":0,"byteOffset":1129904,"byteLength":20},{"buffer":0,"byteOffset":1129924,"byteLength":80},{"buffer":0,"byteOffset":1130004,"byteLength":20},{"buffer":0,"byteOffset":1130024,"byteLength":80},{"buffer":0,"byteOffset":1130104,"byteLength":20},{"buffer":0,"byteOffset":1130124,"byteLength":80},{"buffer":0,"byteOffset":1130204,"byteLength":20},{"buffer":0,"byteOffset":1130224,"byteLength":80},{"buffer":0,"byteOffset":1130304,"byteLength":20},{"buffer":0,"byteOffset":1130324,"byteLength":80},{"buffer":0,"byteOffset":1130404,"byteLength":20},{"buffer":0,"byteOffset":1130424,"byteLength":80},{"buffer":0,"byteOffset":1130504,"byteLength":20},{"buffer":0,"byteOffset":1130524,"byteLength":80},{"buffer":0,"byteOffset":1130604,"byteLength":20},{"buffer":0,"byteOffset":1130624,"byteLength":80},{"buffer":0,"byteOffset":1130704,"byteLength":20},{"buffer":0,"byteOffset":1130724,"byteLength":80},{"buffer":0,"byteOffset":1130804,"byteLength":20},{"buffer":0,"byteOffset":1130824,"byteLength":80},{"buffer":0,"byteOffset":1130904,"byteLength":20},{"buffer":0,"byteOffset":1130924,"byteLength":80},{"buffer":0,"byteOffset":1131004,"byteLength":20},{"buffer":0,"byteOffset":1131024,"byteLength":80},{"buffer":0,"byteOffset":1131104,"byteLength":20},{"buffer":0,"byteOffset":1131124,"byteLength":80},{"buffer":0,"byteOffset":1131204,"byteLength":20},{"buffer":0,"byteOffset":1131224,"byteLength":80},{"buffer":0,"byteOffset":1131304,"byteLength":20},{"buffer":0,"byteOffset":1131324,"byteLength":80},{"buffer":0,"byteOffset":1131404,"byteLength":20},{"buffer":0,"byteOffset":1131424,"byteLength":80},{"buffer":0,"byteOffset":1131504,"byteLength":20},{"buffer":0,"byteOffset":1131524,"byteLength":80},{"buffer":0,"byteOffset":1131604,"byteLength":20},{"buffer":0,"byteOffset":1131624,"byteLength":80},{"buffer":0,"byteOffset":1131704,"byteLength":20},{"buffer":0,"byteOffset":1131724,"byteLength":80},{"buffer":0,"byteOffset":1131804,"byteLength":20},{"buffer":0,"byteOffset":1131824,"byteLength":80},{"buffer":0,"byteOffset":1131904,"byteLength":20},{"buffer":0,"byteOffset":1131924,"byteLength":80},{"buffer":0,"byteOffset":1132004,"byteLength":20},{"buffer":0,"byteOffset":1132024,"byteLength":80},{"buffer":0,"byteOffset":1132104,"byteLength":20},{"buffer":0,"byteOffset":1132124,"byteLength":80},{"buffer":0,"byteOffset":1132204,"byteLength":20},{"buffer":0,"byteOffset":1132224,"byteLength":80},{"buffer":0,"byteOffset":1132304,"byteLength":20},{"buffer":0,"byteOffset":1132324,"byteLength":80},{"buffer":0,"byteOffset":1132404,"byteLength":20},{"buffer":0,"byteOffset":1132424,"byteLength":80},{"buffer":0,"byteOffset":1132504,"byteLength":20},{"buffer":0,"byteOffset":1132524,"byteLength":80},{"buffer":0,"byteOffset":1132604,"byteLength":20},{"buffer":0,"byteOffset":1132624,"byteLength":80},{"buffer":0,"byteOffset":1132704,"byteLength":20},{"buffer":0,"byteOffset":1132724,"byteLength":80},{"buffer":0,"byteOffset":1132804,"byteLength":20},{"buffer":0,"byteOffset":1132824,"byteLength":80},{"buffer":0,"byteOffset":1132904,"byteLength":20},{"buffer":0,"byteOffset":1132924,"byteLength":80},{"buffer":0,"byteOffset":1133004,"byteLength":20},{"buffer":0,"byteOffset":1133024,"byteLength":80},{"buffer":0,"byteOffset":1133104,"byteLength":20},{"buffer":0,"byteOffset":1133124,"byteLength":80},{"buffer":0,"byteOffset":1133204,"byteLength":20},{"buffer":0,"byteOffset":1133224,"byteLength":80},{"buffer":0,"byteOffset":1133304,"byteLength":20},{"buffer":0,"byteOffset":1133324,"byteLength":80},{"buffer":0,"byteOffset":1133404,"byteLength":20},{"buffer":0,"byteOffset":1133424,"byteLength":80},{"buffer":0,"byteOffset":1133504,"byteLength":20},{"buffer":0,"byteOffset":1133524,"byteLength":80},{"buffer":0,"byteOffset":1133604,"byteLength":20},{"buffer":0,"byteOffset":1133624,"byteLength":80},{"buffer":0,"byteOffset":1133704,"byteLength":20},{"buffer":0,"byteOffset":1133724,"byteLength":80},{"buffer":0,"byteOffset":1133804,"byteLength":20},{"buffer":0,"byteOffset":1133824,"byteLength":80},{"buffer":0,"byteOffset":1133904,"byteLength":20},{"buffer":0,"byteOffset":1133924,"byteLength":80},{"buffer":0,"byteOffset":1134004,"byteLength":20},{"buffer":0,"byteOffset":1134024,"byteLength":80},{"buffer":0,"byteOffset":1134104,"byteLength":20},{"buffer":0,"byteOffset":1134124,"byteLength":80},{"buffer":0,"byteOffset":1134204,"byteLength":20},{"buffer":0,"byteOffset":1134224,"byteLength":80},{"buffer":0,"byteOffset":1134304,"byteLength":20},{"buffer":0,"byteOffset":1134324,"byteLength":80},{"buffer":0,"byteOffset":1134404,"byteLength":20},{"buffer":0,"byteOffset":1134424,"byteLength":80},{"buffer":0,"byteOffset":1134504,"byteLength":20},{"buffer":0,"byteOffset":1134524,"byteLength":80},{"buffer":0,"byteOffset":1134604,"byteLength":20},{"buffer":0,"byteOffset":1134624,"byteLength":80},{"buffer":0,"byteOffset":1134704,"byteLength":20},{"buffer":0,"byteOffset":1134724,"byteLength":80},{"buffer":0,"byteOffset":1134804,"byteLength":20},{"buffer":0,"byteOffset":1134824,"byteLength":80},{"buffer":0,"byteOffset":1134904,"byteLength":20},{"buffer":0,"byteOffset":1134924,"byteLength":80},{"buffer":0,"byteOffset":1135004,"byteLength":20},{"buffer":0,"byteOffset":1135024,"byteLength":80},{"buffer":0,"byteOffset":1135104,"byteLength":20},{"buffer":0,"byteOffset":1135124,"byteLength":80},{"buffer":0,"byteOffset":1135204,"byteLength":20},{"buffer":0,"byteOffset":1135224,"byteLength":80},{"buffer":0,"byteOffset":1135304,"byteLength":20},{"buffer":0,"byteOffset":1135324,"byteLength":80},{"buffer":0,"byteOffset":1135404,"byteLength":20},{"buffer":0,"byteOffset":1135424,"byteLength":80},{"buffer":0,"byteOffset":1135504,"byteLength":20},{"buffer":0,"byteOffset":1135524,"byteLength":80},{"buffer":0,"byteOffset":1135604,"byteLength":20},{"buffer":0,"byteOffset":1135624,"byteLength":80},{"buffer":0,"byteOffset":1135704,"byteLength":20},{"buffer":0,"byteOffset":1135724,"byteLength":80},{"buffer":0,"byteOffset":1135804,"byteLength":20},{"buffer":0,"byteOffset":1135824,"byteLength":80},{"buffer":0,"byteOffset":1135904,"byteLength":20},{"buffer":0,"byteOffset":1135924,"byteLength":80},{"buffer":0,"byteOffset":1136004,"byteLength":20},{"buffer":0,"byteOffset":1136024,"byteLength":80},{"buffer":0,"byteOffset":1136104,"byteLength":20},{"buffer":0,"byteOffset":1136124,"byteLength":80},{"buffer":0,"byteOffset":1136204,"byteLength":20},{"buffer":0,"byteOffset":1136224,"byteLength":80},{"buffer":0,"byteOffset":1136304,"byteLength":20},{"buffer":0,"byteOffset":1136324,"byteLength":80},{"buffer":0,"byteOffset":1136404,"byteLength":20},{"buffer":0,"byteOffset":1136424,"byteLength":80},{"buffer":0,"byteOffset":1136504,"byteLength":20},{"buffer":0,"byteOffset":1136524,"byteLength":80},{"buffer":0,"byteOffset":1136604,"byteLength":20},{"buffer":0,"byteOffset":1136624,"byteLength":80},{"buffer":0,"byteOffset":1136704,"byteLength":20},{"buffer":0,"byteOffset":1136724,"byteLength":80},{"buffer":0,"byteOffset":1136804,"byteLength":20},{"buffer":0,"byteOffset":1136824,"byteLength":80},{"buffer":0,"byteOffset":1136904,"byteLength":20},{"buffer":0,"byteOffset":1136924,"byteLength":80},{"buffer":0,"byteOffset":1137004,"byteLength":20},{"buffer":0,"byteOffset":1137024,"byteLength":80},{"buffer":0,"byteOffset":1137104,"byteLength":20},{"buffer":0,"byteOffset":1137124,"byteLength":80},{"buffer":0,"byteOffset":1137204,"byteLength":20},{"buffer":0,"byteOffset":1137224,"byteLength":80},{"buffer":0,"byteOffset":1137304,"byteLength":20},{"buffer":0,"byteOffset":1137324,"byteLength":80},{"buffer":0,"byteOffset":1137404,"byteLength":20},{"buffer":0,"byteOffset":1137424,"byteLength":80},{"buffer":0,"byteOffset":1137504,"byteLength":20},{"buffer":0,"byteOffset":1137524,"byteLength":80},{"buffer":0,"byteOffset":1137604,"byteLength":20},{"buffer":0,"byteOffset":1137624,"byteLength":80},{"buffer":0,"byteOffset":1137704,"byteLength":20},{"buffer":0,"byteOffset":1137724,"byteLength":80},{"buffer":0,"byteOffset":1137804,"byteLength":20},{"buffer":0,"byteOffset":1137824,"byteLength":80},{"buffer":0,"byteOffset":1137904,"byteLength":20},{"buffer":0,"byteOffset":1137924,"byteLength":80},{"buffer":0,"byteOffset":1138004,"byteLength":20},{"buffer":0,"byteOffset":1138024,"byteLength":80},{"buffer":0,"byteOffset":1138104,"byteLength":20},{"buffer":0,"byteOffset":1138124,"byteLength":80},{"buffer":0,"byteOffset":1138204,"byteLength":20},{"buffer":0,"byteOffset":1138224,"byteLength":80},{"buffer":0,"byteOffset":1138304,"byteLength":20},{"buffer":0,"byteOffset":1138324,"byteLength":80},{"buffer":0,"byteOffset":1138404,"byteLength":20},{"buffer":0,"byteOffset":1138424,"byteLength":80},{"buffer":0,"byteOffset":1138504,"byteLength":20},{"buffer":0,"byteOffset":1138524,"byteLength":80},{"buffer":0,"byteOffset":1138604,"byteLength":20},{"buffer":0,"byteOffset":1138624,"byteLength":80},{"buffer":0,"byteOffset":1138704,"byteLength":20},{"buffer":0,"byteOffset":1138724,"byteLength":80},{"buffer":0,"byteOffset":1138804,"byteLength":20},{"buffer":0,"byteOffset":1138824,"byteLength":80},{"buffer":0,"byteOffset":1138904,"byteLength":20},{"buffer":0,"byteOffset":1138924,"byteLength":80},{"buffer":0,"byteOffset":1139004,"byteLength":20},{"buffer":0,"byteOffset":1139024,"byteLength":80},{"buffer":0,"byteOffset":1139104,"byteLength":20},{"buffer":0,"byteOffset":1139124,"byteLength":80},{"buffer":0,"byteOffset":1139204,"byteLength":20},{"buffer":0,"byteOffset":1139224,"byteLength":80},{"buffer":0,"byteOffset":1139304,"byteLength":20},{"buffer":0,"byteOffset":1139324,"byteLength":80},{"buffer":0,"byteOffset":1139404,"byteLength":20},{"buffer":0,"byteOffset":1139424,"byteLength":80},{"buffer":0,"byteOffset":1139504,"byteLength":20},{"buffer":0,"byteOffset":1139524,"byteLength":80},{"buffer":0,"byteOffset":1139604,"byteLength":20},{"buffer":0,"byteOffset":1139624,"byteLength":80},{"buffer":0,"byteOffset":1139704,"byteLength":20},{"buffer":0,"byteOffset":1139724,"byteLength":80},{"buffer":0,"byteOffset":1139804,"byteLength":20},{"buffer":0,"byteOffset":1139824,"byteLength":80}],"accessors":[{"bufferView":0,"componentType":5126,"count":15444,"type":"VEC3","min":[-0.52,0.012999999999999887,-1.024],"max":[0.52,2.1399999999999997,0.4068700576850888]},{"bufferView":1,"componentType":5126,"count":15444,"type":"VEC3","min":[-1.0,-1.0,-1.0],"max":[1.0,1.0,1.0]},{"bufferView":2,"componentType":5126,"count":15444,"type":"VEC4"},{"bufferView":3,"componentType":5123,"count":15444,"type":"VEC4"},{"bufferView":4,"componentType":5126,"count":15444,"type":"VEC4"},{"bufferView":5,"componentType":5126,"count":15444,"type":"VEC2"},{"bufferView":6,"componentType":5126,"count":24,"type":"MAT4"},{"bufferView":7,"componentType":5126,"count":5,"type":"SCALAR","min":[0.0],"max":[2.4]},{"bufferView":8,"componentType":5126,"count":5,"type":"VEC4"},{"bufferView":9,"componentType":5126,"count":5,"type":"SCALAR","min":[0.0],"max":[2.4]},{"bufferView":10,"componentType":5126,"count":5,"type":"VEC4"},{"bufferView":11,"componentType":5126,"count":5,"type":"SCALAR","min":[0.0],"max":[2.4]},{"bufferView":12,"componentType":5126,"count":5,"type":"VEC4"},{"bufferView":13,"componentType":5126,"count":5,"type":"SCALAR","min":[0.0],"max":[2.4]},{"bufferView":14,"componentType":5126,"count":5,"type":"VEC4"},{"bufferView":15,"componentType":5126,"count":5,"type":"SCALAR","min":[0.0],"max":[2.4]},{"bufferView":16,"componentType":5126,"count":5,"type":"VEC4"},{"bufferView":17,"componentType":5126,"count":5,"type":"SCALAR","min":[0.0],"max":[2.4]},{"bufferView":18,"componentType":5126,"count":5,"type":"VEC4"},{"bufferView":19,"componentType":5126,"count":5,"type":"SCALAR","min":[0.0],"max":[2.4]},{"bufferView":20,"componentType":5126,"count":5,"type":"VEC4"},{"bufferView":21,"componentType":5126,"count":5,"type":"SCALAR","min":[0.0],"max":[2.4]},{"bufferView":22,"componentType":5126,"count":5,"type":"VEC4"},{"bufferView":23,"componentType":5126,"count":5,"type":"SCALAR","min":[0.0],"max":[2.4]},{"bufferView":24,"componentType":5126,"count":5,"type":"VEC4"},{"bufferView":25,"componentType":5126,"count":5,"type":"SCALAR","min":[0.0],"max":[2.4]},{"bufferView":26,"componentType":5126,"count":5,"type":"VEC4"},{"bufferView":27,"componentType":5126,"count":5,"type":"SCALAR","min":[0.0],"max":[2.4]},{"bufferView":28,"componentType":5126,"count":5,"type":"VEC4"},{"bufferView":29,"componentType":5126,"count":5,"type":"SCALAR","min":[0.0],"max":[2.4]},{"bufferView":30,"componentType":5126,"count":5,"type":"VEC4"},{"bufferView":31,"componentType":5126,"count":5,"type":"SCALAR","min":[0.0],"max":[2.4]},{"bufferView":32,"componentType":5126,"count":5,"type":"VEC4"},{"bufferView":33,"componentType":5126,"count":5,"type":"SCALAR","min":[0.0],"max":[2.4]},{"bufferView":34,"componentType":5126,"count":5,"type":"VEC4"},{"bufferView":35,"componentType":5126,"count":5,"type":"SCALAR","min":[0.0],"max":[2.4]},{"bufferView":36,"componentType":5126,"count":5,"type":"VEC4"},{"bufferView":37,"componentType":5126,"count":5,"type":"SCALAR","min":[0.0],"max":[2.4]},{"bufferView":38,"componentType":5126,"count":5,"type":"VEC4"},{"bufferView":39,"componentType":5126,"count":5,"type":"SCALAR","min":[0.0],"max":[2.4]},{"bufferView":40,"componentType":5126,"count":5,"type":"VEC4"},{"bufferView":41,"componentType":5126,"count":5,"type":"SCALAR","min":[0.0],"max":[2.4]},{"bufferView":42,"componentType":5126,"count":5,"type":"VEC4"},{"bufferView":43,"componentType":5126,"count":5,"type":"SCALAR","min":[0.0],"max":[2.4]},{"bufferView":44,"componentType":5126,"count":5,"type":"VEC4"},{"bufferView":45,"componentType":5126,"count":5,"type":"SCALAR","min":[0.0],"max":[2.4]},{"bufferView":46,"componentType":5126,"count":5,"type":"VEC4"},{"bufferView":47,"componentType":5126,"count":5,"type":"SCALAR","min":[0.0],"max":[2.4]},{"bufferView":48,"componentType":5126,"count":5,"type":"VEC4"},{"bufferView":49,"componentType":5126,"count":5,"type":"SCALAR","min":[0.0],"max":[2.4]},{"bufferView":50,"componentType":5126,"count":5,"type":"VEC4"},{"bufferView":51,"componentType":5126,"count":5,"type":"SCALAR","min":[0.0],"max":[2.4]},{"bufferView":52,"componentType":5126,"count":5,"type":"VEC4"},{"bufferView":53,"componentType":5126,"count":5,"type":"SCALAR","min":[0.0],"max":[2.4]},{"bufferView":54,"componentType":5126,"count":5,"type":"VEC4"},{"bufferView":55,"componentType":5126,"count":5,"type":"SCALAR","min":[0.0],"max":[0.85]},{"bufferView":56,"componentType":5126,"count":5,"type":"VEC4"},{"bufferView":57,"componentType":5126,"count":5,"type":"SCALAR","min":[0.0],"max":[0.85]},{"bufferView":58,"componentType":5126,"count":5,"type":"VEC4"},{"bufferView":59,"componentType":5126,"count":5,"type":"SCALAR","min":[0.0],"max":[0.85]},{"bufferView":60,"componentType":5126,"count":5,"type":"VEC4"},{"bufferView":61,"componentType":5126,"count":5,"type":"SCALAR","min":[0.0],"max":[0.85]},{"bufferView":62,"componentType":5126,"count":5,"type":"VEC4"},{"bufferView":63,"componentType":5126,"count":5,"type":"SCALAR","min":[0.0],"max":[0.85]},{"bufferView":64,"componentType":5126,"count":5,"type":"VEC4"},{"bufferView":65,"componentType":5126,"count":5,"type":"SCALAR","min":[0.0],"max":[0.85]},{"bufferView":66,"componentType":5126,"count":5,"type":"VEC4"},{"bufferView":67,"componentType":5126,"count":5,"type":"SCALAR","min":[0.0],"max":[0.85]},{"bufferView":68,"componentType":5126,"count":5,"type":"VEC4"},{"bufferView":69,"componentType":5126,"count":5,"type":"SCALAR","min":[0.0],"max":[0.85]},{"bufferView":70,"componentType":5126,"count":5,"type":"VEC4"},{"bufferView":71,"componentType":5126,"count":5,"type":"SCALAR","min":[0.0],"max":[0.85]},{"bufferView":72,"componentType":5126,"count":5,"type":"VEC4"},{"bufferView":73,"componentType":5126,"count":5,"type":"SCALAR","min":[0.0],"max":[0.85]},{"bufferView":74,"componentType":5126,"count":5,"type":"VEC4"},{"bufferView":75,"componentType":5126,"count":5,"type":"SCALAR","min":[0.0],"max":[0.85]},{"bufferView":76,"componentType":5126,"count":5,"type":"VEC4"},{"bufferView":77,"componentType":5126,"count":5,"type":"SCALAR","min":[0.0],"max":[0.85]},{"bufferView":78,"componentType":5126,"count":5,"type":"VEC4"},{"bufferView":79,"componentType":5126,"count":5,"type":"SCALAR","min":[0.0],"max":[0.85]},{"bufferView":80,"componentType":5126,"count":5,"type":"VEC4"},{"bufferView":81,"componentType":5126,"count":5,"type":"SCALAR","min":[0.0],"max":[0.85]},{"bufferView":82,"componentType":5126,"count":5,"type":"VEC4"},{"bufferView":83,"componentType":5126,"count":5,"type":"SCALAR","min":[0.0],"max":[0.85]},{"bufferView":84,"componentType":5126,"count":5,"type":"VEC4"},{"bufferView":85,"componentType":5126,"count":5,"type":"SCALAR","min":[0.0],"max":[0.85]},{"bufferView":86,"componentType":5126,"count":5,"type":"VEC4"},{"bufferView":87,"componentType":5126,"count":5,"type":"SCALAR","min":[0.0],"max":[0.85]},{"bufferView":88,"componentType":5126,"count":5,"type":"VEC4"},{"bufferView":89,"componentType":5126,"count":5,"type":"SCALAR","min":[0.0],"max":[0.85]},{"bufferView":90,"componentType":5126,"count":5,"type":"VEC4"},{"bufferView":91,"componentType":5126,"count":5,"type":"SCALAR","min":[0.0],"max":[0.85]},{"bufferView":92,"componentType":5126,"count":5,"type":"VEC4"},{"bufferView":93,"componentType":5126,"count":5,"type":"SCALAR","min":[0.0],"max":[0.85]},{"bufferView":94,"componentType":5126,"count":5,"type":"VEC4"},{"bufferView":95,"componentType":5126,"count":5,"type":"SCALAR","min":[0.0],"max":[0.85]},{"bufferView":96,"componentType":5126,"count":5,"type":"VEC4"},{"bufferView":97,"componentType":5126,"count":5,"type":"SCALAR","min":[0.0],"max":[0.85]},{"bufferView":98,"componentType":5126,"count":5,"type":"VEC4"},{"bufferView":99,"componentType":5126,"count":5,"type":"SCALAR","min":[0.0],"max":[0.85]},{"bufferView":100,"componentType":5126,"count":5,"type":"VEC4"},{"bufferView":101,"componentType":5126,"count":5,"type":"SCALAR","min":[0.0],"max":[0.85]},{"bufferView":102,"componentType":5126,"count":5,"type":"VEC4"},{"bufferView":103,"componentType":5126,"count":5,"type":"SCALAR","min":[0.0],"max":[0.6]},{"bufferView":104,"componentType":5126,"count":5,"type":"VEC4"},{"bufferView":105,"componentType":5126,"count":5,"type":"SCALAR","min":[0.0],"max":[0.6]},{"bufferView":106,"componentType":5126,"count":5,"type":"VEC4"},{"bufferView":107,"componentType":5126,"count":5,"type":"SCALAR","min":[0.0],"max":[0.6]},{"bufferView":108,"componentType":5126,"count":5,"type":"VEC4"},{"bufferView":109,"componentType":5126,"count":5,"type":"SCALAR","min":[0.0],"max":[0.6]},{"bufferView":110,"componentType":5126,"count":5,"type":"VEC4"},{"bufferView":111,"componentType":5126,"count":5,"type":"SCALAR","min":[0.0],"max":[0.6]},{"bufferView":112,"componentType":5126,"count":5,"type":"VEC4"},{"bufferView":113,"componentType":5126,"count":5,"type":"SCALAR","min":[0.0],"max":[0.6]},{"bufferView":114,"componentType":5126,"count":5,"type":"VEC4"},{"bufferView":115,"componentType":5126,"count":5,"type":"SCALAR","min":[0.0],"max":[0.6]},{"bufferView":116,"componentType":5126,"count":5,"type":"VEC4"},{"bufferView":117,"componentType":5126,"count":5,"type":"SCALAR","min":[0.0],"max":[0.6]},{"bufferView":118,"componentType":5126,"count":5,"type":"VEC4"},{"bufferView":119,"componentType":5126,"count":5,"type":"SCALAR","min":[0.0],"max":[0.6]},{"bufferView":120,"componentType":5126,"count":5,"type":"VEC4"},{"bufferView":121,"componentType":5126,"count":5,"type":"SCALAR","min":[0.0],"max":[0.6]},{"bufferView":122,"componentType":5126,"count":5,"type":"VEC4"},{"bufferView":123,"componentType":5126,"count":5,"type":"SCALAR","min":[0.0],"max":[0.6]},{"bufferView":124,"componentType":5126,"count":5,"type":"VEC4"},{"bufferView":125,"componentType":5126,"count":5,"type":"SCALAR","min":[0.0],"max":[0.6]},{"bufferView":126,"componentType":5126,"count":5,"type":"VEC4"},{"bufferView":127,"componentType":5126,"count":5,"type":"SCALAR","min":[0.0],"max":[0.6]},{"bufferView":128,"componentType":5126,"count":5,"type":"VEC4"},{"bufferView":129,"componentType":5126,"count":5,"type":"SCALAR","min":[0.0],"max":[0.6]},{"bufferView":130,"componentType":5126,"count":5,"type":"VEC4"},{"bufferView":131,"componentType":5126,"count":5,"type":"SCALAR","min":[0.0],"max":[0.6]},{"bufferView":132,"componentType":5126,"count":5,"type":"VEC4"},{"bufferView":133,"componentType":5126,"count":5,"type":"SCALAR","min":[0.0],"max":[0.6]},{"bufferView":134,"componentType":5126,"count":5,"type":"VEC4"},{"bufferView":135,"componentType":5126,"count":5,"type":"SCALAR","min":[0.0],"max":[0.6]},{"bufferView":136,"componentType":5126,"count":5,"type":"VEC4"},{"bufferView":137,"componentType":5126,"count":5,"type":"SCALAR","min":[0.0],"max":[0.6]},{"bufferView":138,"componentType":5126,"count":5,"type":"VEC4"},{"bufferView":139,"componentType":5126,"count":5,"type":"SCALAR","min":[0.0],"max":[0.6]},{"bufferView":140,"componentType":5126,"count":5,"type":"VEC4"},{"bufferView":141,"componentType":5126,"count":5,"type":"SCALAR","min":[0.0],"max":[0.6]},{"bufferView":142,"componentType":5126,"count":5,"type":"VEC4"},{"bufferView":143,"componentType":5126,"count":5,"type":"SCALAR","min":[0.0],"max":[0.6]},{"bufferView":144,"componentType":5126,"count":5,"type":"VEC4"},{"bufferView":145,"componentType":5126,"count":5,"type":"SCALAR","min":[0.0],"max":[0.6]},{"bufferView":146,"componentType":5126,"count":5,"type":"VEC4"},{"bufferView":147,"componentType":5126,"count":5,"type":"SCALAR","min":[0.0],"max":[0.6]},{"bufferView":148,"componentType":5126,"count":5,"type":"VEC4"},{"bufferView":149,"componentType":5126,"count":5,"type":"SCALAR","min":[0.0],"max":[0.6]},{"bufferView":150,"componentType":5126,"count":5,"type":"VEC4"},{"bufferView":151,"componentType":5126,"count":5,"type":"SCALAR","min":[0.0],"max":[0.95]},{"bufferView":152,"componentType":5126,"count":5,"type":"VEC4"},{"bufferView":153,"componentType":5126,"count":5,"type":"SCALAR","min":[0.0],"max":[0.95]},{"bufferView":154,"componentType":5126,"count":5,"type":"VEC4"},{"bufferView":155,"componentType":5126,"count":5,"type":"SCALAR","min":[0.0],"max":[0.95]},{"bufferView":156,"componentType":5126,"count":5,"type":"VEC4"},{"bufferView":157,"componentType":5126,"count":5,"type":"SCALAR","min":[0.0],"max":[0.95]},{"bufferView":158,"componentType":5126,"count":5,"type":"VEC4"},{"bufferView":159,"componentType":5126,"count":5,"type":"SCALAR","min":[0.0],"max":[0.95]},{"bufferView":160,"componentType":5126,"count":5,"type":"VEC4"},{"bufferView":161,"componentType":5126,"count":5,"type":"SCALAR","min":[0.0],"max":[0.95]},{"bufferView":162,"componentType":5126,"count":5,"type":"VEC4"},{"bufferView":163,"componentType":5126,"count":5,"type":"SCALAR","min":[0.0],"max":[0.95]},{"bufferView":164,"componentType":5126,"count":5,"type":"VEC4"},{"bufferView":165,"componentType":5126,"count":5,"type":"SCALAR","min":[0.0],"max":[0.95]},{"bufferView":166,"componentType":5126,"count":5,"type":"VEC4"},{"bufferView":167,"componentType":5126,"count":5,"type":"SCALAR","min":[0.0],"max":[0.95]},{"bufferView":168,"componentType":5126,"count":5,"type":"VEC4"},{"bufferView":169,"componentType":5126,"count":5,"type":"SCALAR","min":[0.0],"max":[0.95]},{"bufferView":170,"componentType":5126,"count":5,"type":"VEC4"},{"bufferView":171,"componentType":5126,"count":5,"type":"SCALAR","min":[0.0],"max":[0.95]},{"bufferView":172,"componentType":5126,"count":5,"type":"VEC4"},{"bufferView":173,"componentType":5126,"count":5,"type":"SCALAR","min":[0.0],"max":[0.95]},{"bufferView":174,"componentType":5126,"count":5,"type":"VEC4"},{"bufferView":175,"componentType":5126,"count":5,"type":"SCALAR","min":[0.0],"max":[0.95]},{"bufferView":176,"componentType":5126,"count":5,"type":"VEC4"},{"bufferView":177,"componentType":5126,"count":5,"type":"SCALAR","min":[0.0],"max":[0.95]},{"bufferView":178,"componentType":5126,"count":5,"type":"VEC4"},{"bufferView":179,"componentType":5126,"count":5,"type":"SCALAR","min":[0.0],"max":[0.95]},{"bufferView":180,"componentType":5126,"count":5,"type":"VEC4"},{"bufferView":181,"componentType":5126,"count":5,"type":"SCALAR","min":[0.0],"max":[0.95]},{"bufferView":182,"componentType":5126,"count":5,"type":"VEC4"},{"bufferView":183,"componentType":5126,"count":5,"type":"SCALAR","min":[0.0],"max":[0.95]},{"bufferView":184,"componentType":5126,"count":5,"type":"VEC4"},{"bufferView":185,"componentType":5126,"count":5,"type":"SCALAR","min":[0.0],"max":[0.95]},{"bufferView":186,"componentType":5126,"count":5,"type":"VEC4"},{"bufferView":187,"componentType":5126,"count":5,"type":"SCALAR","min":[0.0],"max":[0.95]},{"bufferView":188,"componentType":5126,"count":5,"type":"VEC4"},{"bufferView":189,"componentType":5126,"count":5,"type":"SCALAR","min":[0.0],"max":[0.95]},{"bufferView":190,"componentType":5126,"count":5,"type":"VEC4"},{"bufferView":191,"componentType":5126,"count":5,"type":"SCALAR","min":[0.0],"max":[0.95]},{"bufferView":192,"componentType":5126,"count":5,"type":"VEC4"},{"bufferView":193,"componentType":5126,"count":5,"type":"SCALAR","min":[0.0],"max":[0.95]},{"bufferView":194,"componentType":5126,"count":5,"type":"VEC4"},{"bufferView":195,"componentType":5126,"count":5,"type":"SCALAR","min":[0.0],"max":[0.95]},{"bufferView":196,"componentType":5126,"count":5,"type":"VEC4"},{"bufferView":197,"componentType":5126,"count":5,"type":"SCALAR","min":[0.0],"max":[0.95]},{"bufferView":198,"componentType":5126,"count":5,"type":"VEC4"},{"bufferView":199,"componentType":5126,"count":5,"type":"SCALAR","min":[0.0],"max":[0.95]},{"bufferView":200,"componentType":5126,"count":5,"type":"VEC4"},{"bufferView":201,"componentType":5126,"count":5,"type":"SCALAR","min":[0.0],"max":[0.95]},{"bufferView":202,"componentType":5126,"count":5,"type":"VEC4"},{"bufferView":203,"componentType":5126,"count":5,"type":"SCALAR","min":[0.0],"max":[0.95]},{"bufferView":204,"componentType":5126,"count":5,"type":"VEC4"},{"bufferView":205,"componentType":5126,"count":5,"type":"SCALAR","min":[0.0],"max":[0.95]},{"bufferView":206,"componentType":5126,"count":5,"type":"VEC4"},{"bufferView":207,"componentType":5126,"count":5,"type":"SCALAR","min":[0.0],"max":[0.95]},{"bufferView":208,"componentType":5126,"count":5,"type":"VEC4"},{"bufferView":209,"componentType":5126,"count":5,"type":"SCALAR","min":[0.0],"max":[0.95]},{"bufferView":210,"componentType":5126,"count":5,"type":"VEC4"},{"bufferView":211,"componentType":5126,"count":5,"type":"SCALAR","min":[0.0],"max":[0.95]},{"bufferView":212,"componentType":5126,"count":5,"type":"VEC4"},{"bufferView":213,"componentType":5126,"count":5,"type":"SCALAR","min":[0.0],"max":[0.95]},{"bufferView":214,"componentType":5126,"count":5,"type":"VEC4"},{"bufferView":215,"componentType":5126,"count":5,"type":"SCALAR","min":[0.0],"max":[0.95]},{"bufferView":216,"componentType":5126,"count":5,"type":"VEC4"},{"bufferView":217,"componentType":5126,"count":5,"type":"SCALAR","min":[0.0],"max":[0.95]},{"bufferView":218,"componentType":5126,"count":5,"type":"VEC4"},{"bufferView":219,"componentType":5126,"count":5,"type":"SCALAR","min":[0.0],"max":[0.95]},{"bufferView":220,"componentType":5126,"count":5,"type":"VEC4"},{"bufferView":221,"componentType":5126,"count":5,"type":"SCALAR","min":[0.0],"max":[0.95]},{"bufferView":222,"componentType":5126,"count":5,"type":"VEC4"},{"bufferView":223,"componentType":5126,"count":5,"type":"SCALAR","min":[0.0],"max":[0.95]},{"bufferView":224,"componentType":5126,"count":5,"type":"VEC4"},{"bufferView":225,"componentType":5126,"count":5,"type":"SCALAR","min":[0.0],"max":[0.95]},{"bufferView":226,"componentType":5126,"count":5,"type":"VEC4"},{"bufferView":227,"componentType":5126,"count":5,"type":"SCALAR","min":[0.0],"max":[0.95]},{"bufferView":228,"componentType":5126,"count":5,"type":"VEC4"},{"bufferView":229,"componentType":5126,"count":5,"type":"SCALAR","min":[0.0],"max":[0.95]},{"bufferView":230,"componentType":5126,"count":5,"type":"VEC4"},{"bufferView":231,"componentType":5126,"count":5,"type":"SCALAR","min":[0.0],"max":[0.95]},{"bufferView":232,"componentType":5126,"count":5,"type":"VEC4"},{"bufferView":233,"componentType":5126,"count":5,"type":"SCALAR","min":[0.0],"max":[0.95]},{"bufferView":234,"componentType":5126,"count":5,"type":"VEC4"},{"bufferView":235,"componentType":5126,"count":5,"type":"SCALAR","min":[0.0],"max":[0.95]},{"bufferView":236,"componentType":5126,"count":5,"type":"VEC4"},{"bufferView":237,"componentType":5126,"count":5,"type":"SCALAR","min":[0.0],"max":[0.95]},{"bufferView":238,"componentType":5126,"count":5,"type":"VEC4"},{"bufferView":239,"componentType":5126,"count":5,"type":"SCALAR","min":[0.0],"max":[0.95]},{"bufferView":240,"componentType":5126,"count":5,"type":"VEC4"},{"bufferView":241,"componentType":5126,"count":5,"type":"SCALAR","min":[0.0],"max":[0.95]},{"bufferView":242,"componentType":5126,"count":5,"type":"VEC4"},{"bufferView":243,"componentType":5126,"count":5,"type":"SCALAR","min":[0.0],"max":[0.95]},{"bufferView":244,"componentType":5126,"count":5,"type":"VEC4"},{"bufferView":245,"componentType":5126,"count":5,"type":"SCALAR","min":[0.0],"max":[0.95]},{"bufferView":246,"componentType":5126,"count":5,"type":"VEC4"},{"bufferView":247,"componentType":5126,"count":5,"type":"SCALAR","min":[0.0],"max":[1.25]},{"bufferView":248,"componentType":5126,"count":5,"type":"VEC4"},{"bufferView":249,"componentType":5126,"count":5,"type":"SCALAR","min":[0.0],"max":[1.25]},{"bufferView":250,"componentType":5126,"count":5,"type":"VEC4"},{"bufferView":251,"componentType":5126,"count":5,"type":"SCALAR","min":[0.0],"max":[1.25]},{"bufferView":252,"componentType":5126,"count":5,"type":"VEC4"},{"bufferView":253,"componentType":5126,"count":5,"type":"SCALAR","min":[0.0],"max":[1.25]},{"bufferView":254,"componentType":5126,"count":5,"type":"VEC4"},{"bufferView":255,"componentType":5126,"count":5,"type":"SCALAR","min":[0.0],"max":[1.25]},{"bufferView":256,"componentType":5126,"count":5,"type":"VEC4"},{"bufferView":257,"componentType":5126,"count":5,"type":"SCALAR","min":[0.0],"max":[1.25]},{"bufferView":258,"componentType":5126,"count":5,"type":"VEC4"},{"bufferView":259,"componentType":5126,"count":5,"type":"SCALAR","min":[0.0],"max":[1.25]},{"bufferView":260,"componentType":5126,"count":5,"type":"VEC4"},{"bufferView":261,"componentType":5126,"count":5,"type":"SCALAR","min":[0.0],"max":[1.25]},{"bufferView":262,"componentType":5126,"count":5,"type":"VEC4"},{"bufferView":263,"componentType":5126,"count":5,"type":"SCALAR","min":[0.0],"max":[1.25]},{"bufferView":264,"componentType":5126,"count":5,"type":"VEC4"},{"bufferView":265,"componentType":5126,"count":5,"type":"SCALAR","min":[0.0],"max":[1.25]},{"bufferView":266,"componentType":5126,"count":5,"type":"VEC4"},{"bufferView":267,"componentType":5126,"count":5,"type":"SCALAR","min":[0.0],"max":[1.25]},{"bufferView":268,"componentType":5126,"count":5,"type":"VEC4"},{"bufferView":269,"componentType":5126,"count":5,"type":"SCALAR","min":[0.0],"max":[1.25]},{"bufferView":270,"componentType":5126,"count":5,"type":"VEC4"},{"bufferView":271,"componentType":5126,"count":5,"type":"SCALAR","min":[0.0],"max":[1.25]},{"bufferView":272,"componentType":5126,"count":5,"type":"VEC4"},{"bufferView":273,"componentType":5126,"count":5,"type":"SCALAR","min":[0.0],"max":[1.25]},{"bufferView":274,"componentType":5126,"count":5,"type":"VEC4"},{"bufferView":275,"componentType":5126,"count":5,"type":"SCALAR","min":[0.0],"max":[1.25]},{"bufferView":276,"componentType":5126,"count":5,"type":"VEC4"},{"bufferView":277,"componentType":5126,"count":5,"type":"SCALAR","min":[0.0],"max":[1.25]},{"bufferView":278,"componentType":5126,"count":5,"type":"VEC4"},{"bufferView":279,"componentType":5126,"count":5,"type":"SCALAR","min":[0.0],"max":[1.25]},{"bufferView":280,"componentType":5126,"count":5,"type":"VEC4"},{"bufferView":281,"componentType":5126,"count":5,"type":"SCALAR","min":[0.0],"max":[1.25]},{"bufferView":282,"componentType":5126,"count":5,"type":"VEC4"},{"bufferView":283,"componentType":5126,"count":5,"type":"SCALAR","min":[0.0],"max":[1.25]},{"bufferView":284,"componentType":5126,"count":5,"type":"VEC4"},{"bufferView":285,"componentType":5126,"count":5,"type":"SCALAR","min":[0.0],"max":[1.25]},{"bufferView":286,"componentType":5126,"count":5,"type":"VEC4"},{"bufferView":287,"componentType":5126,"count":5,"type":"SCALAR","min":[0.0],"max":[1.25]},{"bufferView":288,"componentType":5126,"count":5,"type":"VEC4"},{"bufferView":289,"componentType":5126,"count":5,"type":"SCALAR","min":[0.0],"max":[1.25]},{"bufferView":290,"componentType":5126,"count":5,"type":"VEC4"},{"bufferView":291,"componentType":5126,"count":5,"type":"SCALAR","min":[0.0],"max":[1.25]},{"bufferView":292,"componentType":5126,"count":5,"type":"VEC4"},{"bufferView":293,"componentType":5126,"count":5,"type":"SCALAR","min":[0.0],"max":[1.25]},{"bufferView":294,"componentType":5126,"count":5,"type":"VEC4"},{"bufferView":295,"componentType":5126,"count":5,"type":"SCALAR","min":[0.0],"max":[0.25]},{"bufferView":296,"componentType":5126,"count":5,"type":"VEC4"},{"bufferView":297,"componentType":5126,"count":5,"type":"SCALAR","min":[0.0],"max":[0.25]},{"bufferView":298,"componentType":5126,"count":5,"type":"VEC4"},{"bufferView":299,"componentType":5126,"count":5,"type":"SCALAR","min":[0.0],"max":[0.25]},{"bufferView":300,"componentType":5126,"count":5,"type":"VEC4"},{"bufferView":301,"componentType":5126,"count":5,"type":"SCALAR","min":[0.0],"max":[0.25]},{"bufferView":302,"componentType":5126,"count":5,"type":"VEC4"},{"bufferView":303,"componentType":5126,"count":5,"type":"SCALAR","min":[0.0],"max":[0.25]},{"bufferView":304,"componentType":5126,"count":5,"type":"VEC4"},{"bufferView":305,"componentType":5126,"count":5,"type":"SCALAR","min":[0.0],"max":[0.25]},{"bufferView":306,"componentType":5126,"count":5,"type":"VEC4"},{"bufferView":307,"componentType":5126,"count":5,"type":"SCALAR","min":[0.0],"max":[0.25]},{"bufferView":308,"componentType":5126,"count":5,"type":"VEC4"},{"bufferView":309,"componentType":5126,"count":5,"type":"SCALAR","min":[0.0],"max":[0.25]},{"bufferView":310,"componentType":5126,"count":5,"type":"VEC4"},{"bufferView":311,"componentType":5126,"count":5,"type":"SCALAR","min":[0.0],"max":[0.25]},{"bufferView":312,"componentType":5126,"count":5,"type":"VEC4"},{"bufferView":313,"componentType":5126,"count":5,"type":"SCALAR","min":[0.0],"max":[0.25]},{"bufferView":314,"componentType":5126,"count":5,"type":"VEC4"},{"bufferView":315,"componentType":5126,"count":5,"type":"SCALAR","min":[0.0],"max":[0.25]},{"bufferView":316,"componentType":5126,"count":5,"type":"VEC4"},{"bufferView":317,"componentType":5126,"count":5,"type":"SCALAR","min":[0.0],"max":[0.25]},{"bufferView":318,"componentType":5126,"count":5,"type":"VEC4"},{"bufferView":319,"componentType":5126,"count":5,"type":"SCALAR","min":[0.0],"max":[0.25]},{"bufferView":320,"componentType":5126,"count":5,"type":"VEC4"},{"bufferView":321,"componentType":5126,"count":5,"type":"SCALAR","min":[0.0],"max":[0.25]},{"bufferView":322,"componentType":5126,"count":5,"type":"VEC4"},{"bufferView":323,"componentType":5126,"count":5,"type":"SCALAR","min":[0.0],"max":[0.25]},{"bufferView":324,"componentType":5126,"count":5,"type":"VEC4"},{"bufferView":325,"componentType":5126,"count":5,"type":"SCALAR","min":[0.0],"max":[0.25]},{"bufferView":326,"componentType":5126,"count":5,"type":"VEC4"},{"bufferView":327,"componentType":5126,"count":5,"type":"SCALAR","min":[0.0],"max":[0.25]},{"bufferView":328,"componentType":5126,"count":5,"type":"VEC4"},{"bufferView":329,"componentType":5126,"count":5,"type":"SCALAR","min":[0.0],"max":[0.25]},{"bufferView":330,"componentType":5126,"count":5,"type":"VEC4"},{"bufferView":331,"componentType":5126,"count":5,"type":"SCALAR","min":[0.0],"max":[0.25]},{"bufferView":332,"componentType":5126,"count":5,"type":"VEC4"},{"bufferView":333,"componentType":5126,"count":5,"type":"SCALAR","min":[0.0],"max":[0.25]},{"bufferView":334,"componentType":5126,"count":5,"type":"VEC4"},{"bufferView":335,"componentType":5126,"count":5,"type":"SCALAR","min":[0.0],"max":[0.25]},{"bufferView":336,"componentType":5126,"count":5,"type":"VEC4"},{"bufferView":337,"componentType":5126,"count":5,"type":"SCALAR","min":[0.0],"max":[0.25]},{"bufferView":338,"componentType":5126,"count":5,"type":"VEC4"},{"bufferView":339,"componentType":5126,"count":5,"type":"SCALAR","min":[0.0],"max":[0.25]},{"bufferView":340,"componentType":5126,"count":5,"type":"VEC4"},{"bufferView":341,"componentType":5126,"count":5,"type":"SCALAR","min":[0.0],"max":[0.25]},{"bufferView":342,"componentType":5126,"count":5,"type":"VEC4"},{"bufferView":343,"componentType":5126,"count":5,"type":"SCALAR","min":[0.0],"max":[0.35]},{"bufferView":344,"componentType":5126,"count":5,"type":"VEC4"},{"bufferView":345,"componentType":5126,"count":5,"type":"SCALAR","min":[0.0],"max":[0.35]},{"bufferView":346,"componentType":5126,"count":5,"type":"VEC4"},{"bufferView":347,"componentType":5126,"count":5,"type":"SCALAR","min":[0.0],"max":[0.35]},{"bufferView":348,"componentType":5126,"count":5,"type":"VEC4"},{"bufferView":349,"componentType":5126,"count":5,"type":"SCALAR","min":[0.0],"max":[0.35]},{"bufferView":350,"componentType":5126,"count":5,"type":"VEC4"},{"bufferView":351,"componentType":5126,"count":5,"type":"SCALAR","min":[0.0],"max":[0.35]},{"bufferView":352,"componentType":5126,"count":5,"type":"VEC4"},{"bufferView":353,"componentType":5126,"count":5,"type":"SCALAR","min":[0.0],"max":[0.35]},{"bufferView":354,"componentType":5126,"count":5,"type":"VEC4"},{"bufferView":355,"componentType":5126,"count":5,"type":"SCALAR","min":[0.0],"max":[0.35]},{"bufferView":356,"componentType":5126,"count":5,"type":"VEC4"},{"bufferView":357,"componentType":5126,"count":5,"type":"SCALAR","min":[0.0],"max":[0.35]},{"bufferView":358,"componentType":5126,"count":5,"type":"VEC4"},{"bufferView":359,"componentType":5126,"count":5,"type":"SCALAR","min":[0.0],"max":[0.35]},{"bufferView":360,"componentType":5126,"count":5,"type":"VEC4"},{"bufferView":361,"componentType":5126,"count":5,"type":"SCALAR","min":[0.0],"max":[0.35]},{"bufferView":362,"componentType":5126,"count":5,"type":"VEC4"},{"bufferView":363,"componentType":5126,"count":5,"type":"SCALAR","min":[0.0],"max":[0.35]},{"bufferView":364,"componentType":5126,"count":5,"type":"VEC4"},{"bufferView":365,"componentType":5126,"count":5,"type":"SCALAR","min":[0.0],"max":[0.35]},{"bufferView":366,"componentType":5126,"count":5,"type":"VEC4"},{"bufferView":367,"componentType":5126,"count":5,"type":"SCALAR","min":[0.0],"max":[0.35]},{"bufferView":368,"componentType":5126,"count":5,"type":"VEC4"},{"bufferView":369,"componentType":5126,"count":5,"type":"SCALAR","min":[0.0],"max":[0.35]},{"bufferView":370,"componentType":5126,"count":5,"type":"VEC4"},{"bufferView":371,"componentType":5126,"count":5,"type":"SCALAR","min":[0.0],"max":[0.35]},{"bufferView":372,"componentType":5126,"count":5,"type":"VEC4"},{"bufferView":373,"componentType":5126,"count":5,"type":"SCALAR","min":[0.0],"max":[0.35]},{"bufferView":374,"componentType":5126,"count":5,"type":"VEC4"},{"bufferView":375,"componentType":5126,"count":5,"type":"SCALAR","min":[0.0],"max":[0.35]},{"bufferView":376,"componentType":5126,"count":5,"type":"VEC4"},{"bufferView":377,"componentType":5126,"count":5,"type":"SCALAR","min":[0.0],"max":[0.35]},{"bufferView":378,"componentType":5126,"count":5,"type":"VEC4"},{"bufferView":379,"componentType":5126,"count":5,"type":"SCALAR","min":[0.0],"max":[0.35]},{"bufferView":380,"componentType":5126,"count":5,"type":"VEC4"},{"bufferView":381,"componentType":5126,"count":5,"type":"SCALAR","min":[0.0],"max":[0.35]},{"bufferView":382,"componentType":5126,"count":5,"type":"VEC4"},{"bufferView":383,"componentType":5126,"count":5,"type":"SCALAR","min":[0.0],"max":[0.35]},{"bufferView":384,"componentType":5126,"count":5,"type":"VEC4"},{"bufferView":385,"componentType":5126,"count":5,"type":"SCALAR","min":[0.0],"max":[0.35]},{"bufferView":386,"componentType":5126,"count":5,"type":"VEC4"},{"bufferView":387,"componentType":5126,"count":5,"type":"SCALAR","min":[0.0],"max":[0.35]},{"bufferView":388,"componentType":5126,"count":5,"type":"VEC4"},{"bufferView":389,"componentType":5126,"count":5,"type":"SCALAR","min":[0.0],"max":[0.35]},{"bufferView":390,"componentType":5126,"count":5,"type":"VEC4"},{"bufferView":391,"componentType":5126,"count":5,"type":"SCALAR","min":[0.0],"max":[0.4]},{"bufferView":392,"componentType":5126,"count":5,"type":"VEC4"},{"bufferView":393,"componentType":5126,"count":5,"type":"SCALAR","min":[0.0],"max":[0.4]},{"bufferView":394,"componentType":5126,"count":5,"type":"VEC4"},{"bufferView":395,"componentType":5126,"count":5,"type":"SCALAR","min":[0.0],"max":[0.4]},{"bufferView":396,"componentType":5126,"count":5,"type":"VEC4"},{"bufferView":397,"componentType":5126,"count":5,"type":"SCALAR","min":[0.0],"max":[0.4]},{"bufferView":398,"componentType":5126,"count":5,"type":"VEC4"},{"bufferView":399,"componentType":5126,"count":5,"type":"SCALAR","min":[0.0],"max":[0.4]},{"bufferView":400,"componentType":5126,"count":5,"type":"VEC4"},{"bufferView":401,"componentType":5126,"count":5,"type":"SCALAR","min":[0.0],"max":[0.4]},{"bufferView":402,"componentType":5126,"count":5,"type":"VEC4"},{"bufferView":403,"componentType":5126,"count":5,"type":"SCALAR","min":[0.0],"max":[0.4]},{"bufferView":404,"componentType":5126,"count":5,"type":"VEC4"},{"bufferView":405,"componentType":5126,"count":5,"type":"SCALAR","min":[0.0],"max":[0.4]},{"bufferView":406,"componentType":5126,"count":5,"type":"VEC4"},{"bufferView":407,"componentType":5126,"count":5,"type":"SCALAR","min":[0.0],"max":[0.4]},{"bufferView":408,"componentType":5126,"count":5,"type":"VEC4"},{"bufferView":409,"componentType":5126,"count":5,"type":"SCALAR","min":[0.0],"max":[0.4]},{"bufferView":410,"componentType":5126,"count":5,"type":"VEC4"},{"bufferView":411,"componentType":5126,"count":5,"type":"SCALAR","min":[0.0],"max":[0.4]},{"bufferView":412,"componentType":5126,"count":5,"type":"VEC4"},{"bufferView":413,"componentType":5126,"count":5,"type":"SCALAR","min":[0.0],"max":[0.4]},{"bufferView":414,"componentType":5126,"count":5,"type":"VEC4"},{"bufferView":415,"componentType":5126,"count":5,"type":"SCALAR","min":[0.0],"max":[0.4]},{"bufferView":416,"componentType":5126,"count":5,"type":"VEC4"},{"bufferView":417,"componentType":5126,"count":5,"type":"SCALAR","min":[0.0],"max":[0.4]},{"bufferView":418,"componentType":5126,"count":5,"type":"VEC4"},{"bufferView":419,"componentType":5126,"count":5,"type":"SCALAR","min":[0.0],"max":[0.4]},{"bufferView":420,"componentType":5126,"count":5,"type":"VEC4"},{"bufferView":421,"componentType":5126,"count":5,"type":"SCALAR","min":[0.0],"max":[0.4]},{"bufferView":422,"componentType":5126,"count":5,"type":"VEC4"},{"bufferView":423,"componentType":5126,"count":5,"type":"SCALAR","min":[0.0],"max":[0.4]},{"bufferView":424,"componentType":5126,"count":5,"type":"VEC4"},{"bufferView":425,"componentType":5126,"count":5,"type":"SCALAR","min":[0.0],"max":[0.4]},{"bufferView":426,"componentType":5126,"count":5,"type":"VEC4"},{"bufferView":427,"componentType":5126,"count":5,"type":"SCALAR","min":[0.0],"max":[0.4]},{"bufferView":428,"componentType":5126,"count":5,"type":"VEC4"},{"bufferView":429,"componentType":5126,"count":5,"type":"SCALAR","min":[0.0],"max":[0.4]},{"bufferView":430,"componentType":5126,"count":5,"type":"VEC4"},{"bufferView":431,"componentType":5126,"count":5,"type":"SCALAR","min":[0.0],"max":[0.4]},{"bufferView":432,"componentType":5126,"count":5,"type":"VEC4"},{"bufferView":433,"componentType":5126,"count":5,"type":"SCALAR","min":[0.0],"max":[0.4]},{"bufferView":434,"componentType":5126,"count":5,"type":"VEC4"},{"bufferView":435,"componentType":5126,"count":5,"type":"SCALAR","min":[0.0],"max":[0.4]},{"bufferView":436,"componentType":5126,"count":5,"type":"VEC4"},{"bufferView":437,"componentType":5126,"count":5,"type":"SCALAR","min":[0.0],"max":[0.4]},{"bufferView":438,"componentType":5126,"count":5,"type":"VEC4"},{"bufferView":439,"componentType":5126,"count":5,"type":"SCALAR","min":[0.0],"max":[0.8]},{"bufferView":440,"componentType":5126,"count":5,"type":"VEC4"},{"bufferView":441,"componentType":5126,"count":5,"type":"SCALAR","min":[0.0],"max":[0.8]},{"bufferView":442,"componentType":5126,"count":5,"type":"VEC4"},{"bufferView":443,"componentType":5126,"count":5,"type":"SCALAR","min":[0.0],"max":[0.8]},{"bufferView":444,"componentType":5126,"count":5,"type":"VEC4"},{"bufferView":445,"componentType":5126,"count":5,"type":"SCALAR","min":[0.0],"max":[0.8]},{"bufferView":446,"componentType":5126,"count":5,"type":"VEC4"},{"bufferView":447,"componentType":5126,"count":5,"type":"SCALAR","min":[0.0],"max":[0.8]},{"bufferView":448,"componentType":5126,"count":5,"type":"VEC4"},{"bufferView":449,"componentType":5126,"count":5,"type":"SCALAR","min":[0.0],"max":[0.8]},{"bufferView":450,"componentType":5126,"count":5,"type":"VEC4"},{"bufferView":451,"componentType":5126,"count":5,"type":"SCALAR","min":[0.0],"max":[0.8]},{"bufferView":452,"componentType":5126,"count":5,"type":"VEC4"},{"bufferView":453,"componentType":5126,"count":5,"type":"SCALAR","min":[0.0],"max":[0.8]},{"bufferView":454,"componentType":5126,"count":5,"type":"VEC4"},{"bufferView":455,"componentType":5126,"count":5,"type":"SCALAR","min":[0.0],"max":[0.8]},{"bufferView":456,"componentType":5126,"count":5,"type":"VEC4"},{"bufferView":457,"componentType":5126,"count":5,"type":"SCALAR","min":[0.0],"max":[0.8]},{"bufferView":458,"componentType":5126,"count":5,"type":"VEC4"},{"bufferView":459,"componentType":5126,"count":5,"type":"SCALAR","min":[0.0],"max":[0.8]},{"bufferView":460,"componentType":5126,"count":5,"type":"VEC4"},{"bufferView":461,"componentType":5126,"count":5,"type":"SCALAR","min":[0.0],"max":[0.8]},{"bufferView":462,"componentType":5126,"count":5,"type":"VEC4"},{"bufferView":463,"componentType":5126,"count":5,"type":"SCALAR","min":[0.0],"max":[0.8]},{"bufferView":464,"componentType":5126,"count":5,"type":"VEC4"},{"bufferView":465,"componentType":5126,"count":5,"type":"SCALAR","min":[0.0],"max":[0.8]},{"bufferView":466,"componentType":5126,"count":5,"type":"VEC4"},{"bufferView":467,"componentType":5126,"count":5,"type":"SCALAR","min":[0.0],"max":[0.8]},{"bufferView":468,"componentType":5126,"count":5,"type":"VEC4"},{"bufferView":469,"componentType":5126,"count":5,"type":"SCALAR","min":[0.0],"max":[0.8]},{"bufferView":470,"componentType":5126,"count":5,"type":"VEC4"},{"bufferView":471,"componentType":5126,"count":5,"type":"SCALAR","min":[0.0],"max":[0.8]},{"bufferView":472,"componentType":5126,"count":5,"type":"VEC4"},{"bufferView":473,"componentType":5126,"count":5,"type":"SCALAR","min":[0.0],"max":[0.8]},{"bufferView":474,"componentType":5126,"count":5,"type":"VEC4"},{"bufferView":475,"componentType":5126,"count":5,"type":"SCALAR","min":[0.0],"max":[0.8]},{"bufferView":476,"componentType":5126,"count":5,"type":"VEC4"},{"bufferView":477,"componentType":5126,"count":5,"type":"SCALAR","min":[0.0],"max":[0.8]},{"bufferView":478,"componentType":5126,"count":5,"type":"VEC4"},{"bufferView":479,"componentType":5126,"count":5,"type":"SCALAR","min":[0.0],"max":[0.8]},{"bufferView":480,"componentType":5126,"count":5,"type":"VEC4"},{"bufferView":481,"componentType":5126,"count":5,"type":"SCALAR","min":[0.0],"max":[0.8]},{"bufferView":482,"componentType":5126,"count":5,"type":"VEC4"},{"bufferView":483,"componentType":5126,"count":5,"type":"SCALAR","min":[0.0],"max":[0.8]},{"bufferView":484,"componentType":5126,"count":5,"type":"VEC4"},{"bufferView":485,"componentType":5126,"count":5,"type":"SCALAR","min":[0.0],"max":[0.8]},{"bufferView":486,"componentType":5126,"count":5,"type":"VEC4"},{"bufferView":487,"componentType":5126,"count":5,"type":"SCALAR","min":[0.0],"max":[1.2]},{"bufferView":488,"componentType":5126,"count":5,"type":"VEC4"},{"bufferView":489,"componentType":5126,"count":5,"type":"SCALAR","min":[0.0],"max":[1.2]},{"bufferView":490,"componentType":5126,"count":5,"type":"VEC4"},{"bufferView":491,"componentType":5126,"count":5,"type":"SCALAR","min":[0.0],"max":[1.2]},{"bufferView":492,"componentType":5126,"count":5,"type":"VEC4"},{"bufferView":493,"componentType":5126,"count":5,"type":"SCALAR","min":[0.0],"max":[1.2]},{"bufferView":494,"componentType":5126,"count":5,"type":"VEC4"},{"bufferView":495,"componentType":5126,"count":5,"type":"SCALAR","min":[0.0],"max":[1.2]},{"bufferView":496,"componentType":5126,"count":5,"type":"VEC4"},{"bufferView":497,"componentType":5126,"count":5,"type":"SCALAR","min":[0.0],"max":[1.2]},{"bufferView":498,"componentType":5126,"count":5,"type":"VEC4"},{"bufferView":499,"componentType":5126,"count":5,"type":"SCALAR","min":[0.0],"max":[1.2]},{"bufferView":500,"componentType":5126,"count":5,"type":"VEC4"},{"bufferView":501,"componentType":5126,"count":5,"type":"SCALAR","min":[0.0],"max":[1.2]},{"bufferView":502,"componentType":5126,"count":5,"type":"VEC4"},{"bufferView":503,"componentType":5126,"count":5,"type":"SCALAR","min":[0.0],"max":[1.2]},{"bufferView":504,"componentType":5126,"count":5,"type":"VEC4"},{"bufferView":505,"componentType":5126,"count":5,"type":"SCALAR","min":[0.0],"max":[1.2]},{"bufferView":506,"componentType":5126,"count":5,"type":"VEC4"},{"bufferView":507,"componentType":5126,"count":5,"type":"SCALAR","min":[0.0],"max":[1.2]},{"bufferView":508,"componentType":5126,"count":5,"type":"VEC4"},{"bufferView":509,"componentType":5126,"count":5,"type":"SCALAR","min":[0.0],"max":[1.2]},{"bufferView":510,"componentType":5126,"count":5,"type":"VEC4"},{"bufferView":511,"componentType":5126,"count":5,"type":"SCALAR","min":[0.0],"max":[1.2]},{"bufferView":512,"componentType":5126,"count":5,"type":"VEC4"},{"bufferView":513,"componentType":5126,"count":5,"type":"SCALAR","min":[0.0],"max":[1.2]},{"bufferView":514,"componentType":5126,"count":5,"type":"VEC4"},{"bufferView":515,"componentType":5126,"count":5,"type":"SCALAR","min":[0.0],"max":[1.2]},{"bufferView":516,"componentType":5126,"count":5,"type":"VEC4"},{"bufferView":517,"componentType":5126,"count":5,"type":"SCALAR","min":[0.0],"max":[1.2]},{"bufferView":518,"componentType":5126,"count":5,"type":"VEC4"},{"bufferView":519,"componentType":5126,"count":5,"type":"SCALAR","min":[0.0],"max":[1.2]},{"bufferView":520,"componentType":5126,"count":5,"type":"VEC4"},{"bufferView":521,"componentType":5126,"count":5,"type":"SCALAR","min":[0.0],"max":[1.2]},{"bufferView":522,"componentType":5126,"count":5,"type":"VEC4"},{"bufferView":523,"componentType":5126,"count":5,"type":"SCALAR","min":[0.0],"max":[1.2]},{"bufferView":524,"componentType":5126,"count":5,"type":"VEC4"},{"bufferView":525,"componentType":5126,"count":5,"type":"SCALAR","min":[0.0],"max":[1.2]},{"bufferView":526,"componentType":5126,"count":5,"type":"VEC4"},{"bufferView":527,"componentType":5126,"count":5,"type":"SCALAR","min":[0.0],"max":[1.2]},{"bufferView":528,"componentType":5126,"count":5,"type":"VEC4"},{"bufferView":529,"componentType":5126,"count":5,"type":"SCALAR","min":[0.0],"max":[1.2]},{"bufferView":530,"componentType":5126,"count":5,"type":"VEC4"},{"bufferView":531,"componentType":5126,"count":5,"type":"SCALAR","min":[0.0],"max":[1.2]},{"bufferView":532,"componentType":5126,"count":5,"type":"VEC4"},{"bufferView":533,"componentType":5126,"count":5,"type":"SCALAR","min":[0.0],"max":[1.2]},{"bufferView":534,"componentType":5126,"count":5,"type":"VEC4"}],"animations":[{"name":"idle","samplers":[{"input":7,"output":8,"interpolation":"LINEAR"},{"input":9,"output":10,"interpolation":"LINEAR"},{"input":11,"output":12,"interpolation":"LINEAR"},{"input":13,"output":14,"interpolation":"LINEAR"},{"input":15,"output":16,"interpolation":"LINEAR"},{"input":17,"output":18,"interpolation":"LINEAR"},{"input":19,"output":20,"interpolation":"LINEAR"},{"input":21,"output":22,"interpolation":"LINEAR"},{"input":23,"output":24,"interpolation":"LINEAR"},{"input":25,"output":26,"interpolation":"LINEAR"},{"input":27,"output":28,"interpolation":"LINEAR"},{"input":29,"output":30,"interpolation":"LINEAR"},{"input":31,"output":32,"interpolation":"LINEAR"},{"input":33,"output":34,"interpolation":"LINEAR"},{"input":35,"output":36,"interpolation":"LINEAR"},{"input":37,"output":38,"interpolation":"LINEAR"},{"input":39,"output":40,"interpolation":"LINEAR"},{"input":41,"output":42,"interpolation":"LINEAR"},{"input":43,"output":44,"interpolation":"LINEAR"},{"input":45,"output":46,"interpolation":"LINEAR"},{"input":47,"output":48,"interpolation":"LINEAR"},{"input":49,"output":50,"interpolation":"LINEAR"},{"input":51,"output":52,"interpolation":"LINEAR"},{"input":53,"output":54,"interpolation":"LINEAR"}],"channels":[{"sampler":0,"target":{"node":0,"path":"rotation"}},{"sampler":1,"target":{"node":1,"path":"rotation"}},{"sampler":2,"target":{"node":2,"path":"rotation"}},{"sampler":3,"target":{"node":3,"path":"rotation"}},{"sampler":4,"target":{"node":4,"path":"rotation"}},{"sampler":5,"target":{"node":5,"path":"rotation"}},{"sampler":6,"target":{"node":6,"path":"rotation"}},{"sampler":7,"target":{"node":7,"path":"rotation"}},{"sampler":8,"target":{"node":8,"path":"rotation"}},{"sampler":9,"target":{"node":9,"path":"rotation"}},{"sampler":10,"target":{"node":10,"path":"rotation"}},{"sampler":11,"target":{"node":11,"path":"rotation"}},{"sampler":12,"target":{"node":12,"path":"rotation"}},{"sampler":13,"target":{"node":13,"path":"rotation"}},{"sampler":14,"target":{"node":14,"path":"rotation"}},{"sampler":15,"target":{"node":15,"path":"rotation"}},{"sampler":16,"target":{"node":16,"path":"rotation"}},{"sampler":17,"target":{"node":17,"path":"rotation"}},{"sampler":18,"target":{"node":18,"path":"rotation"}},{"sampler":19,"target":{"node":19,"path":"rotation"}},{"sampler":20,"target":{"node":20,"path":"rotation"}},{"sampler":21,"target":{"node":21,"path":"rotation"}},{"sampler":22,"target":{"node":22,"path":"rotation"}},{"sampler":23,"target":{"node":23,"path":"rotation"}}]},{"name":"walk","samplers":[{"input":55,"output":56,"interpolation":"LINEAR"},{"input":57,"output":58,"interpolation":"LINEAR"},{"input":59,"output":60,"interpolation":"LINEAR"},{"input":61,"output":62,"interpolation":"LINEAR"},{"input":63,"output":64,"interpolation":"LINEAR"},{"input":65,"output":66,"interpolation":"LINEAR"},{"input":67,"output":68,"interpolation":"LINEAR"},{"input":69,"output":70,"interpolation":"LINEAR"},{"input":71,"output":72,"interpolation":"LINEAR"},{"input":73,"output":74,"interpolation":"LINEAR"},{"input":75,"output":76,"interpolation":"LINEAR"},{"input":77,"output":78,"interpolation":"LINEAR"},{"input":79,"output":80,"interpolation":"LINEAR"},{"input":81,"output":82,"interpolation":"LINEAR"},{"input":83,"output":84,"interpolation":"LINEAR"},{"input":85,"output":86,"interpolation":"LINEAR"},{"input":87,"output":88,"interpolation":"LINEAR"},{"input":89,"output":90,"interpolation":"LINEAR"},{"input":91,"output":92,"interpolation":"LINEAR"},{"input":93,"output":94,"interpolation":"LINEAR"},{"input":95,"output":96,"interpolation":"LINEAR"},{"input":97,"output":98,"interpolation":"LINEAR"},{"input":99,"output":100,"interpolation":"LINEAR"},{"input":101,"output":102,"interpolation":"LINEAR"}],"channels":[{"sampler":0,"target":{"node":0,"path":"rotation"}},{"sampler":1,"target":{"node":1,"path":"rotation"}},{"sampler":2,"target":{"node":2,"path":"rotation"}},{"sampler":3,"target":{"node":3,"path":"rotation"}},{"sampler":4,"target":{"node":4,"path":"rotation"}},{"sampler":5,"target":{"node":5,"path":"rotation"}},{"sampler":6,"target":{"node":6,"path":"rotation"}},{"sampler":7,"target":{"node":7,"path":"rotation"}},{"sampler":8,"target":{"node":8,"path":"rotation"}},{"sampler":9,"target":{"node":9,"path":"rotation"}},{"sampler":10,"target":{"node":10,"path":"rotation"}},{"sampler":11,"target":{"node":11,"path":"rotation"}},{"sampler":12,"target":{"node":12,"path":"rotation"}},{"sampler":13,"target":{"node":13,"path":"rotation"}},{"sampler":14,"target":{"node":14,"path":"rotation"}},{"sampler":15,"target":{"node":15,"path":"rotation"}},{"sampler":16,"target":{"node":16,"path":"rotation"}},{"sampler":17,"target":{"node":17,"path":"rotation"}},{"sampler":18,"target":{"node":18,"path":"rotation"}},{"sampler":19,"target":{"node":19,"path":"rotation"}},{"sampler":20,"target":{"node":20,"path":"rotation"}},{"sampler":21,"target":{"node":21,"path":"rotation"}},{"sampler":22,"target":{"node":22,"path":"rotation"}},{"sampler":23,"target":{"node":23,"path":"rotation"}}]},{"name":"run","samplers":[{"input":103,"output":104,"interpolation":"LINEAR"},{"input":105,"output":106,"interpolation":"LINEAR"},{"input":107,"output":108,"interpolation":"LINEAR"},{"input":109,"output":110,"interpolation":"LINEAR"},{"input":111,"output":112,"interpolation":"LINEAR"},{"input":113,"output":114,"interpolation":"LINEAR"},{"input":115,"output":116,"interpolation":"LINEAR"},{"input":117,"output":118,"interpolation":"LINEAR"},{"input":119,"output":120,"interpolation":"LINEAR"},{"input":121,"output":122,"interpolation":"LINEAR"},{"input":123,"output":124,"interpolation":"LINEAR"},{"input":125,"output":126,"interpolation":"LINEAR"},{"input":127,"output":128,"interpolation":"LINEAR"},{"input":129,"output":130,"interpolation":"LINEAR"},{"input":131,"output":132,"interpolation":"LINEAR"},{"input":133,"output":134,"interpolation":"LINEAR"},{"input":135,"output":136,"interpolation":"LINEAR"},{"input":137,"output":138,"interpolation":"LINEAR"},{"input":139,"output":140,"interpolation":"LINEAR"},{"input":141,"output":142,"interpolation":"LINEAR"},{"input":143,"output":144,"interpolation":"LINEAR"},{"input":145,"output":146,"interpolation":"LINEAR"},{"input":147,"output":148,"interpolation":"LINEAR"},{"input":149,"output":150,"interpolation":"LINEAR"}],"channels":[{"sampler":0,"target":{"node":0,"path":"rotation"}},{"sampler":1,"target":{"node":1,"path":"rotation"}},{"sampler":2,"target":{"node":2,"path":"rotation"}},{"sampler":3,"target":{"node":3,"path":"rotation"}},{"sampler":4,"target":{"node":4,"path":"rotation"}},{"sampler":5,"target":{"node":5,"path":"rotation"}},{"sampler":6,"target":{"node":6,"path":"rotation"}},{"sampler":7,"target":{"node":7,"path":"rotation"}},{"sampler":8,"target":{"node":8,"path":"rotation"}},{"sampler":9,"target":{"node":9,"path":"rotation"}},{"sampler":10,"target":{"node":10,"path":"rotation"}},{"sampler":11,"target":{"node":11,"path":"rotation"}},{"sampler":12,"target":{"node":12,"path":"rotation"}},{"sampler":13,"target":{"node":13,"path":"rotation"}},{"sampler":14,"target":{"node":14,"path":"rotation"}},{"sampler":15,"target":{"node":15,"path":"rotation"}},{"sampler":16,"target":{"node":16,"path":"rotation"}},{"sampler":17,"target":{"node":17,"path":"rotation"}},{"sampler":18,"target":{"node":18,"path":"rotation"}},{"sampler":19,"target":{"node":19,"path":"rotation"}},{"sampler":20,"target":{"node":20,"path":"rotation"}},{"sampler":21,"target":{"node":21,"path":"rotation"}},{"sampler":22,"target":{"node":22,"path":"rotation"}},{"sampler":23,"target":{"node":23,"path":"rotation"}}]},{"name":"attack_a","samplers":[{"input":151,"output":152,"interpolation":"LINEAR"},{"input":153,"output":154,"interpolation":"LINEAR"},{"input":155,"output":156,"interpolation":"LINEAR"},{"input":157,"output":158,"interpolation":"LINEAR"},{"input":159,"output":160,"interpolation":"LINEAR"},{"input":161,"output":162,"interpolation":"LINEAR"},{"input":163,"output":164,"interpolation":"LINEAR"},{"input":165,"output":166,"interpolation":"LINEAR"},{"input":167,"output":168,"interpolation":"LINEAR"},{"input":169,"output":170,"interpolation":"LINEAR"},{"input":171,"output":172,"interpolation":"LINEAR"},{"input":173,"output":174,"interpolation":"LINEAR"},{"input":175,"output":176,"interpolation":"LINEAR"},{"input":177,"output":178,"interpolation":"LINEAR"},{"input":179,"output":180,"interpolation":"LINEAR"},{"input":181,"output":182,"interpolation":"LINEAR"},{"input":183,"output":184,"interpolation":"LINEAR"},{"input":185,"output":186,"interpolation":"LINEAR"},{"input":187,"output":188,"interpolation":"LINEAR"},{"input":189,"output":190,"interpolation":"LINEAR"},{"input":191,"output":192,"interpolation":"LINEAR"},{"input":193,"output":194,"interpolation":"LINEAR"},{"input":195,"output":196,"interpolation":"LINEAR"},{"input":197,"output":198,"interpolation":"LINEAR"}],"channels":[{"sampler":0,"target":{"node":0,"path":"rotation"}},{"sampler":1,"target":{"node":1,"path":"rotation"}},{"sampler":2,"target":{"node":2,"path":"rotation"}},{"sampler":3,"target":{"node":3,"path":"rotation"}},{"sampler":4,"target":{"node":4,"path":"rotation"}},{"sampler":5,"target":{"node":5,"path":"rotation"}},{"sampler":6,"target":{"node":6,"path":"rotation"}},{"sampler":7,"target":{"node":7,"path":"rotation"}},{"sampler":8,"target":{"node":8,"path":"rotation"}},{"sampler":9,"target":{"node":9,"path":"rotation"}},{"sampler":10,"target":{"node":10,"path":"rotation"}},{"sampler":11,"target":{"node":11,"path":"rotation"}},{"sampler":12,"target":{"node":12,"path":"rotation"}},{"sampler":13,"target":{"node":13,"path":"rotation"}},{"sampler":14,"target":{"node":14,"path":"rotation"}},{"sampler":15,"target":{"node":15,"path":"rotation"}},{"sampler":16,"target":{"node":16,"path":"rotation"}},{"sampler":17,"target":{"node":17,"path":"rotation"}},{"sampler":18,"target":{"node":18,"path":"rotation"}},{"sampler":19,"target":{"node":19,"path":"rotation"}},{"sampler":20,"target":{"node":20,"path":"rotation"}},{"sampler":21,"target":{"node":21,"path":"rotation"}},{"sampler":22,"target":{"node":22,"path":"rotation"}},{"sampler":23,"target":{"node":23,"path":"rotation"}}]},{"name":"attack_b","samplers":[{"input":199,"output":200,"interpolation":"LINEAR"},{"input":201,"output":202,"interpolation":"LINEAR"},{"input":203,"output":204,"interpolation":"LINEAR"},{"input":205,"output":206,"interpolation":"LINEAR"},{"input":207,"output":208,"interpolation":"LINEAR"},{"input":209,"output":210,"interpolation":"LINEAR"},{"input":211,"output":212,"interpolation":"LINEAR"},{"input":213,"output":214,"interpolation":"LINEAR"},{"input":215,"output":216,"interpolation":"LINEAR"},{"input":217,"output":218,"interpolation":"LINEAR"},{"input":219,"output":220,"interpolation":"LINEAR"},{"input":221,"output":222,"interpolation":"LINEAR"},{"input":223,"output":224,"interpolation":"LINEAR"},{"input":225,"output":226,"interpolation":"LINEAR"},{"input":227,"output":228,"interpolation":"LINEAR"},{"input":229,"output":230,"interpolation":"LINEAR"},{"input":231,"output":232,"interpolation":"LINEAR"},{"input":233,"output":234,"interpolation":"LINEAR"},{"input":235,"output":236,"interpolation":"LINEAR"},{"input":237,"output":238,"interpolation":"LINEAR"},{"input":239,"output":240,"interpolation":"LINEAR"},{"input":241,"output":242,"interpolation":"LINEAR"},{"input":243,"output":244,"interpolation":"LINEAR"},{"input":245,"output":246,"interpolation":"LINEAR"}],"channels":[{"sampler":0,"target":{"node":0,"path":"rotation"}},{"sampler":1,"target":{"node":1,"path":"rotation"}},{"sampler":2,"target":{"node":2,"path":"rotation"}},{"sampler":3,"target":{"node":3,"path":"rotation"}},{"sampler":4,"target":{"node":4,"path":"rotation"}},{"sampler":5,"target":{"node":5,"path":"rotation"}},{"sampler":6,"target":{"node":6,"path":"rotation"}},{"sampler":7,"target":{"node":7,"path":"rotation"}},{"sampler":8,"target":{"node":8,"path":"rotation"}},{"sampler":9,"target":{"node":9,"path":"rotation"}},{"sampler":10,"target":{"node":10,"path":"rotation"}},{"sampler":11,"target":{"node":11,"path":"rotation"}},{"sampler":12,"target":{"node":12,"path":"rotation"}},{"sampler":13,"target":{"node":13,"path":"rotation"}},{"sampler":14,"target":{"node":14,"path":"rotation"}},{"sampler":15,"target":{"node":15,"path":"rotation"}},{"sampler":16,"target":{"node":16,"path":"rotation"}},{"sampler":17,"target":{"node":17,"path":"rotation"}},{"sampler":18,"target":{"node":18,"path":"rotation"}},{"sampler":19,"target":{"node":19,"path":"rotation"}},{"sampler":20,"target":{"node":20,"path":"rotation"}},{"sampler":21,"target":{"node":21,"path":"rotation"}},{"sampler":22,"target":{"node":22,"path":"rotation"}},{"sampler":23,"target":{"node":23,"path":"rotation"}}]},{"name":"shoot","samplers":[{"input":247,"output":248,"interpolation":"LINEAR"},{"input":249,"output":250,"interpolation":"LINEAR"},{"input":251,"output":252,"interpolation":"LINEAR"},{"input":253,"output":254,"interpolation":"LINEAR"},{"input":255,"output":256,"interpolation":"LINEAR"},{"input":257,"output":258,"interpolation":"LINEAR"},{"input":259,"output":260,"interpolation":"LINEAR"},{"input":261,"output":262,"interpolation":"LINEAR"},{"input":263,"output":264,"interpolation":"LINEAR"},{"input":265,"output":266,"interpolation":"LINEAR"},{"input":267,"output":268,"interpolation":"LINEAR"},{"input":269,"output":270,"interpolation":"LINEAR"},{"input":271,"output":272,"interpolation":"LINEAR"},{"input":273,"output":274,"interpolation":"LINEAR"},{"input":275,"output":276,"interpolation":"LINEAR"},{"input":277,"output":278,"interpolation":"LINEAR"},{"input":279,"output":280,"interpolation":"LINEAR"},{"input":281,"output":282,"interpolation":"LINEAR"},{"input":283,"output":284,"interpolation":"LINEAR"},{"input":285,"output":286,"interpolation":"LINEAR"},{"input":287,"output":288,"interpolation":"LINEAR"},{"input":289,"output":290,"interpolation":"LINEAR"},{"input":291,"output":292,"interpolation":"LINEAR"},{"input":293,"output":294,"interpolation":"LINEAR"}],"channels":[{"sampler":0,"target":{"node":0,"path":"rotation"}},{"sampler":1,"target":{"node":1,"path":"rotation"}},{"sampler":2,"target":{"node":2,"path":"rotation"}},{"sampler":3,"target":{"node":3,"path":"rotation"}},{"sampler":4,"target":{"node":4,"path":"rotation"}},{"sampler":5,"target":{"node":5,"path":"rotation"}},{"sampler":6,"target":{"node":6,"path":"rotation"}},{"sampler":7,"target":{"node":7,"path":"rotation"}},{"sampler":8,"target":{"node":8,"path":"rotation"}},{"sampler":9,"target":{"node":9,"path":"rotation"}},{"sampler":10,"target":{"node":10,"path":"rotation"}},{"sampler":11,"target":{"node":11,"path":"rotation"}},{"sampler":12,"target":{"node":12,"path":"rotation"}},{"sampler":13,"target":{"node":13,"path":"rotation"}},{"sampler":14,"target":{"node":14,"path":"rotation"}},{"sampler":15,"target":{"node":15,"path":"rotation"}},{"sampler":16,"target":{"node":16,"path":"rotation"}},{"sampler":17,"target":{"node":17,"path":"rotation"}},{"sampler":18,"target":{"node":18,"path":"rotation"}},{"sampler":19,"target":{"node":19,"path":"rotation"}},{"sampler":20,"target":{"node":20,"path":"rotation"}},{"sampler":21,"target":{"node":21,"path":"rotation"}},{"sampler":22,"target":{"node":22,"path":"rotation"}},{"sampler":23,"target":{"node":23,"path":"rotation"}}]},{"name":"hit","samplers":[{"input":295,"output":296,"interpolation":"LINEAR"},{"input":297,"output":298,"interpolation":"LINEAR"},{"input":299,"output":300,"interpolation":"LINEAR"},{"input":301,"output":302,"interpolation":"LINEAR"},{"input":303,"output":304,"interpolation":"LINEAR"},{"input":305,"output":306,"interpolation":"LINEAR"},{"input":307,"output":308,"interpolation":"LINEAR"},{"input":309,"output":310,"interpolation":"LINEAR"},{"input":311,"output":312,"interpolation":"LINEAR"},{"input":313,"output":314,"interpolation":"LINEAR"},{"input":315,"output":316,"interpolation":"LINEAR"},{"input":317,"output":318,"interpolation":"LINEAR"},{"input":319,"output":320,"interpolation":"LINEAR"},{"input":321,"output":322,"interpolation":"LINEAR"},{"input":323,"output":324,"interpolation":"LINEAR"},{"input":325,"output":326,"interpolation":"LINEAR"},{"input":327,"output":328,"interpolation":"LINEAR"},{"input":329,"output":330,"interpolation":"LINEAR"},{"input":331,"output":332,"interpolation":"LINEAR"},{"input":333,"output":334,"interpolation":"LINEAR"},{"input":335,"output":336,"interpolation":"LINEAR"},{"input":337,"output":338,"interpolation":"LINEAR"},{"input":339,"output":340,"interpolation":"LINEAR"},{"input":341,"output":342,"interpolation":"LINEAR"}],"channels":[{"sampler":0,"target":{"node":0,"path":"rotation"}},{"sampler":1,"target":{"node":1,"path":"rotation"}},{"sampler":2,"target":{"node":2,"path":"rotation"}},{"sampler":3,"target":{"node":3,"path":"rotation"}},{"sampler":4,"target":{"node":4,"path":"rotation"}},{"sampler":5,"target":{"node":5,"path":"rotation"}},{"sampler":6,"target":{"node":6,"path":"rotation"}},{"sampler":7,"target":{"node":7,"path":"rotation"}},{"sampler":8,"target":{"node":8,"path":"rotation"}},{"sampler":9,"target":{"node":9,"path":"rotation"}},{"sampler":10,"target":{"node":10,"path":"rotation"}},{"sampler":11,"target":{"node":11,"path":"rotation"}},{"sampler":12,"target":{"node":12,"path":"rotation"}},{"sampler":13,"target":{"node":13,"path":"rotation"}},{"sampler":14,"target":{"node":14,"path":"rotation"}},{"sampler":15,"target":{"node":15,"path":"rotation"}},{"sampler":16,"target":{"node":16,"path":"rotation"}},{"sampler":17,"target":{"node":17,"path":"rotation"}},{"sampler":18,"target":{"node":18,"path":"rotation"}},{"sampler":19,"target":{"node":19,"path":"rotation"}},{"sampler":20,"target":{"node":20,"path":"rotation"}},{"sampler":21,"target":{"node":21,"path":"rotation"}},{"sampler":22,"target":{"node":22,"path":"rotation"}},{"sampler":23,"target":{"node":23,"path":"rotation"}}]},{"name":"block","samplers":[{"input":343,"output":344,"interpolation":"LINEAR"},{"input":345,"output":346,"interpolation":"LINEAR"},{"input":347,"output":348,"interpolation":"LINEAR"},{"input":349,"output":350,"interpolation":"LINEAR"},{"input":351,"output":352,"interpolation":"LINEAR"},{"input":353,"output":354,"interpolation":"LINEAR"},{"input":355,"output":356,"interpolation":"LINEAR"},{"input":357,"output":358,"interpolation":"LINEAR"},{"input":359,"output":360,"interpolation":"LINEAR"},{"input":361,"output":362,"interpolation":"LINEAR"},{"input":363,"output":364,"interpolation":"LINEAR"},{"input":365,"output":366,"interpolation":"LINEAR"},{"input":367,"output":368,"interpolation":"LINEAR"},{"input":369,"output":370,"interpolation":"LINEAR"},{"input":371,"output":372,"interpolation":"LINEAR"},{"input":373,"output":374,"interpolation":"LINEAR"},{"input":375,"output":376,"interpolation":"LINEAR"},{"input":377,"output":378,"interpolation":"LINEAR"},{"input":379,"output":380,"interpolation":"LINEAR"},{"input":381,"output":382,"interpolation":"LINEAR"},{"input":383,"output":384,"interpolation":"LINEAR"},{"input":385,"output":386,"interpolation":"LINEAR"},{"input":387,"output":388,"interpolation":"LINEAR"},{"input":389,"output":390,"interpolation":"LINEAR"}],"channels":[{"sampler":0,"target":{"node":0,"path":"rotation"}},{"sampler":1,"target":{"node":1,"path":"rotation"}},{"sampler":2,"target":{"node":2,"path":"rotation"}},{"sampler":3,"target":{"node":3,"path":"rotation"}},{"sampler":4,"target":{"node":4,"path":"rotation"}},{"sampler":5,"target":{"node":5,"path":"rotation"}},{"sampler":6,"target":{"node":6,"path":"rotation"}},{"sampler":7,"target":{"node":7,"path":"rotation"}},{"sampler":8,"target":{"node":8,"path":"rotation"}},{"sampler":9,"target":{"node":9,"path":"rotation"}},{"sampler":10,"target":{"node":10,"path":"rotation"}},{"sampler":11,"target":{"node":11,"path":"rotation"}},{"sampler":12,"target":{"node":12,"path":"rotation"}},{"sampler":13,"target":{"node":13,"path":"rotation"}},{"sampler":14,"target":{"node":14,"path":"rotation"}},{"sampler":15,"target":{"node":15,"path":"rotation"}},{"sampler":16,"target":{"node":16,"path":"rotation"}},{"sampler":17,"target":{"node":17,"path":"rotation"}},{"sampler":18,"target":{"node":18,"path":"rotation"}},{"sampler":19,"target":{"node":19,"path":"rotation"}},{"sampler":20,"target":{"node":20,"path":"rotation"}},{"sampler":21,"target":{"node":21,"path":"rotation"}},{"sampler":22,"target":{"node":22,"path":"rotation"}},{"sampler":23,"target":{"node":23,"path":"rotation"}}]},{"name":"knockback","samplers":[{"input":391,"output":392,"interpolation":"LINEAR"},{"input":393,"output":394,"interpolation":"LINEAR"},{"input":395,"output":396,"interpolation":"LINEAR"},{"input":397,"output":398,"interpolation":"LINEAR"},{"input":399,"output":400,"interpolation":"LINEAR"},{"input":401,"output":402,"interpolation":"LINEAR"},{"input":403,"output":404,"interpolation":"LINEAR"},{"input":405,"output":406,"interpolation":"LINEAR"},{"input":407,"output":408,"interpolation":"LINEAR"},{"input":409,"output":410,"interpolation":"LINEAR"},{"input":411,"output":412,"interpolation":"LINEAR"},{"input":413,"output":414,"interpolation":"LINEAR"},{"input":415,"output":416,"interpolation":"LINEAR"},{"input":417,"output":418,"interpolation":"LINEAR"},{"input":419,"output":420,"interpolation":"LINEAR"},{"input":421,"output":422,"interpolation":"LINEAR"},{"input":423,"output":424,"interpolation":"LINEAR"},{"input":425,"output":426,"interpolation":"LINEAR"},{"input":427,"output":428,"interpolation":"LINEAR"},{"input":429,"output":430,"interpolation":"LINEAR"},{"input":431,"output":432,"interpolation":"LINEAR"},{"input":433,"output":434,"interpolation":"LINEAR"},{"input":435,"output":436,"interpolation":"LINEAR"},{"input":437,"output":438,"interpolation":"LINEAR"}],"channels":[{"sampler":0,"target":{"node":0,"path":"rotation"}},{"sampler":1,"target":{"node":1,"path":"rotation"}},{"sampler":2,"target":{"node":2,"path":"rotation"}},{"sampler":3,"target":{"node":3,"path":"rotation"}},{"sampler":4,"target":{"node":4,"path":"rotation"}},{"sampler":5,"target":{"node":5,"path":"rotation"}},{"sampler":6,"target":{"node":6,"path":"rotation"}},{"sampler":7,"target":{"node":7,"path":"rotation"}},{"sampler":8,"target":{"node":8,"path":"rotation"}},{"sampler":9,"target":{"node":9,"path":"rotation"}},{"sampler":10,"target":{"node":10,"path":"rotation"}},{"sampler":11,"target":{"node":11,"path":"rotation"}},{"sampler":12,"target":{"node":12,"path":"rotation"}},{"sampler":13,"target":{"node":13,"path":"rotation"}},{"sampler":14,"target":{"node":14,"path":"rotation"}},{"sampler":15,"target":{"node":15,"path":"rotation"}},{"sampler":16,"target":{"node":16,"path":"rotation"}},{"sampler":17,"target":{"node":17,"path":"rotation"}},{"sampler":18,"target":{"node":18,"path":"rotation"}},{"sampler":19,"target":{"node":19,"path":"rotation"}},{"sampler":20,"target":{"node":20,"path":"rotation"}},{"sampler":21,"target":{"node":21,"path":"rotation"}},{"sampler":22,"target":{"node":22,"path":"rotation"}},{"sampler":23,"target":{"node":23,"path":"rotation"}}]},{"name":"defeat","samplers":[{"input":439,"output":440,"interpolation":"LINEAR"},{"input":441,"output":442,"interpolation":"LINEAR"},{"input":443,"output":444,"interpolation":"LINEAR"},{"input":445,"output":446,"interpolation":"LINEAR"},{"input":447,"output":448,"interpolation":"LINEAR"},{"input":449,"output":450,"interpolation":"LINEAR"},{"input":451,"output":452,"interpolation":"LINEAR"},{"input":453,"output":454,"interpolation":"LINEAR"},{"input":455,"output":456,"interpolation":"LINEAR"},{"input":457,"output":458,"interpolation":"LINEAR"},{"input":459,"output":460,"interpolation":"LINEAR"},{"input":461,"output":462,"interpolation":"LINEAR"},{"input":463,"output":464,"interpolation":"LINEAR"},{"input":465,"output":466,"interpolation":"LINEAR"},{"input":467,"output":468,"interpolation":"LINEAR"},{"input":469,"output":470,"interpolation":"LINEAR"},{"input":471,"output":472,"interpolation":"LINEAR"},{"input":473,"output":474,"interpolation":"LINEAR"},{"input":475,"output":476,"interpolation":"LINEAR"},{"input":477,"output":478,"interpolation":"LINEAR"},{"input":479,"output":480,"interpolation":"LINEAR"},{"input":481,"output":482,"interpolation":"LINEAR"},{"input":483,"output":484,"interpolation":"LINEAR"},{"input":485,"output":486,"interpolation":"LINEAR"}],"channels":[{"sampler":0,"target":{"node":0,"path":"rotation"}},{"sampler":1,"target":{"node":1,"path":"rotation"}},{"sampler":2,"target":{"node":2,"path":"rotation"}},{"sampler":3,"target":{"node":3,"path":"rotation"}},{"sampler":4,"target":{"node":4,"path":"rotation"}},{"sampler":5,"target":{"node":5,"path":"rotation"}},{"sampler":6,"target":{"node":6,"path":"rotation"}},{"sampler":7,"target":{"node":7,"path":"rotation"}},{"sampler":8,"target":{"node":8,"path":"rotation"}},{"sampler":9,"target":{"node":9,"path":"rotation"}},{"sampler":10,"target":{"node":10,"path":"rotation"}},{"sampler":11,"target":{"node":11,"path":"rotation"}},{"sampler":12,"target":{"node":12,"path":"rotation"}},{"sampler":13,"target":{"node":13,"path":"rotation"}},{"sampler":14,"target":{"node":14,"path":"rotation"}},{"sampler":15,"target":{"node":15,"path":"rotation"}},{"sampler":16,"target":{"node":16,"path":"rotation"}},{"sampler":17,"target":{"node":17,"path":"rotation"}},{"sampler":18,"target":{"node":18,"path":"rotation"}},{"sampler":19,"target":{"node":19,"path":"rotation"}},{"sampler":20,"target":{"node":20,"path":"rotation"}},{"sampler":21,"target":{"node":21,"path":"rotation"}},{"sampler":22,"target":{"node":22,"path":"rotation"}},{"sampler":23,"target":{"node":23,"path":"rotation"}}]},{"name":"cheer","samplers":[{"input":487,"output":488,"interpolation":"LINEAR"},{"input":489,"output":490,"interpolation":"LINEAR"},{"input":491,"output":492,"interpolation":"LINEAR"},{"input":493,"output":494,"interpolation":"LINEAR"},{"input":495,"output":496,"interpolation":"LINEAR"},{"input":497,"output":498,"interpolation":"LINEAR"},{"input":499,"output":500,"interpolation":"LINEAR"},{"input":501,"output":502,"interpolation":"LINEAR"},{"input":503,"output":504,"interpolation":"LINEAR"},{"input":505,"output":506,"interpolation":"LINEAR"},{"input":507,"output":508,"interpolation":"LINEAR"},{"input":509,"output":510,"interpolation":"LINEAR"},{"input":511,"output":512,"interpolation":"LINEAR"},{"input":513,"output":514,"interpolation":"LINEAR"},{"input":515,"output":516,"interpolation":"LINEAR"},{"input":517,"output":518,"interpolation":"LINEAR"},{"input":519,"output":520,"interpolation":"LINEAR"},{"input":521,"output":522,"interpolation":"LINEAR"},{"input":523,"output":524,"interpolation":"LINEAR"},{"input":525,"output":526,"interpolation":"LINEAR"},{"input":527,"output":528,"interpolation":"LINEAR"},{"input":529,"output":530,"interpolation":"LINEAR"},{"input":531,"output":532,"interpolation":"LINEAR"},{"input":533,"output":534,"interpolation":"LINEAR"}],"channels":[{"sampler":0,"target":{"node":0,"path":"rotation"}},{"sampler":1,"target":{"node":1,"path":"rotation"}},{"sampler":2,"target":{"node":2,"path":"rotation"}},{"sampler":3,"target":{"node":3,"path":"rotation"}},{"sampler":4,"target":{"node":4,"path":"rotation"}},{"sampler":5,"target":{"node":5,"path":"rotation"}},{"sampler":6,"target":{"node":6,"path":"rotation"}},{"sampler":7,"target":{"node":7,"path":"rotation"}},{"sampler":8,"target":{"node":8,"path":"rotation"}},{"sampler":9,"target":{"node":9,"path":"rotation"}},{"sampler":10,"target":{"node":10,"path":"rotation"}},{"sampler":11,"target":{"node":11,"path":"rotation"}},{"sampler":12,"target":{"node":12,"path":"rotation"}},{"sampler":13,"target":{"node":13,"path":"rotation"}},{"sampler":14,"target":{"node":14,"path":"rotation"}},{"sampler":15,"target":{"node":15,"path":"rotation"}},{"sampler":16,"target":{"node":16,"path":"rotation"}},{"sampler":17,"target":{"node":17,"path":"rotation"}},{"sampler":18,"target":{"node":18,"path":"rotation"}},{"sampler":19,"target":{"node":19,"path":"rotation"}},{"sampler":20,"target":{"node":20,"path":"rotation"}},{"sampler":21,"target":{"node":21,"path":"rotation"}},{"sampler":22,"target":{"node":22,"path":"rotation"}},{"sampler":23,"target":{"node":23,"path":"rotation"}}]}]}