{"asset":{"version":"2.0","generator":"Castlehold original medieval mesh authoring v4 / Fieldcraft","extras":{"buffer_sha256":"5df5b322e78e35174a625a925a3cfd2b29e5e7970c0a706539d95401d61c8b2d"}},"scene":0,"scenes":[{"nodes":[0,24]}],"nodes":[{"name":"root","translation":[0,0,0],"children":[1]},{"name":"hips","translation":[0,1.35,0.02],"children":[2,10,13,23]},{"name":"chest","translation":[0,0.55,0.11],"children":[3,4,7,16]},{"name":"head","translation":[0,0.51,-0.19],"children":[17,22]},{"name":"upper_arm_L","translation":[-0.67,0.29,0],"children":[5]},{"name":"forearm_L","translation":[0,-0.48,0],"children":[6]},{"name":"hand_L","translation":[0,-0.4,0],"children":[18]},{"name":"upper_arm_R","translation":[0.67,0.29,0],"children":[8]},{"name":"forearm_R","translation":[0,-0.48,0],"children":[9]},{"name":"hand_R","translation":[0,-0.4,0],"children":[19]},{"name":"thigh_L","translation":[-0.3,-0.09,0],"children":[11]},{"name":"shin_L","translation":[0,-0.56,0],"children":[12]},{"name":"foot_L","translation":[0,-0.51,0],"children":[20]},{"name":"thigh_R","translation":[0.3,-0.09,0],"children":[14]},{"name":"shin_R","translation":[0,-0.56,0],"children":[15]},{"name":"foot_R","translation":[0,-0.51,0],"children":[21]},{"name":"neck","translation":[0,0.3,0]},{"name":"jaw","translation":[0,-0.14,-0.06]},{"name":"thumb_L","translation":[0.06,0,-0.02]},{"name":"thumb_R","translation":[-0.06,0,-0.02]},{"name":"toe_L","translation":[0,-0.01,-0.13]},{"name":"toe_R","translation":[0,-0.01,-0.13]},{"name":"plume","translation":[0,0.25,0.06]},{"name":"tabard","translation":[0,-0.14,-0.19]},{"name":"Ogre","mesh":0,"skin":0}],"skins":[{"inverseBindMatrices":6,"joints":[0,1,2,3,4,5,6,7,8,9,10,11,12,13,14,15,16,17,18,19,20,21,22,23],"skeleton":0}],"meshes":[{"primitives":[{"attributes":{"POSITION":0,"NORMAL":1,"COLOR_0":2,"TEXCOORD_0":5,"JOINTS_0":3,"WEIGHTS_0":4},"material":0}]}],"materials":[{"name":"Fieldcraft cloth, linked mail, forged steel and skin","pbrMetallicRoughness":{"baseColorFactor":[1,1,1,1],"baseColorTexture":{"index":0},"metallicFactor":1,"roughnessFactor":1,"metallicRoughnessTexture":{"index":2}},"normalTexture":{"index":1,"scale":0.42},"doubleSided":true}],"images":[{"uri":"fieldcraft_albedo.png"},{"uri":"fieldcraft_normal.png"},{"uri":"fieldcraft_orm.png"}],"textures":[{"source":0,"sampler":0},{"source":1,"sampler":0},{"source":2,"sampler":0}],"samplers":[{"magFilter":9729,"minFilter":9987,"wrapS":33071,"wrapT":33071}],"buffers":[{"uri":"ogre.bin","byteLength":1915344}],"bufferViews":[{"buffer":0,"byteOffset":0,"byteLength":314568},{"buffer":0,"byteOffset":314568,"byteLength":314568},{"buffer":0,"byteOffset":629136,"byteLength":419424},{"buffer":0,"byteOffset":1048560,"byteLength":209712},{"buffer":0,"byteOffset":1258272,"byteLength":419424},{"buffer":0,"byteOffset":1677696,"byteLength":209712},{"buffer":0,"byteOffset":1887408,"byteLength":1536},{"buffer":0,"byteOffset":1888944,"byteLength":20},{"buffer":0,"byteOffset":1888964,"byteLength":80},{"buffer":0,"byteOffset":1889044,"byteLength":20},{"buffer":0,"byteOffset":1889064,"byteLength":80},{"buffer":0,"byteOffset":1889144,"byteLength":20},{"buffer":0,"byteOffset":1889164,"byteLength":80},{"buffer":0,"byteOffset":1889244,"byteLength":20},{"buffer":0,"byteOffset":1889264,"byteLength":80},{"buffer":0,"byteOffset":1889344,"byteLength":20},{"buffer":0,"byteOffset":1889364,"byteLength":80},{"buffer":0,"byteOffset":1889444,"byteLength":20},{"buffer":0,"byteOffset":1889464,"byteLength":80},{"buffer":0,"byteOffset":1889544,"byteLength":20},{"buffer":0,"byteOffset":1889564,"byteLength":80},{"buffer":0,"byteOffset":1889644,"byteLength":20},{"buffer":0,"byteOffset":1889664,"byteLength":80},{"buffer":0,"byteOffset":1889744,"byteLength":20},{"buffer":0,"byteOffset":1889764,"byteLength":80},{"buffer":0,"byteOffset":1889844,"byteLength":20},{"buffer":0,"byteOffset":1889864,"byteLength":80},{"buffer":0,"byteOffset":1889944,"byteLength":20},{"buffer":0,"byteOffset":1889964,"byteLength":80},{"buffer":0,"byteOffset":1890044,"byteLength":20},{"buffer":0,"byteOffset":1890064,"byteLength":80},{"buffer":0,"byteOffset":1890144,"byteLength":20},{"buffer":0,"byteOffset":1890164,"byteLength":80},{"buffer":0,"byteOffset":1890244,"byteLength":20},{"buffer":0,"byteOffset":1890264,"byteLength":80},{"buffer":0,"byteOffset":1890344,"byteLength":20},{"buffer":0,"byteOffset":1890364,"byteLength":80},{"buffer":0,"byteOffset":1890444,"byteLength":20},{"buffer":0,"byteOffset":1890464,"byteLength":80},{"buffer":0,"byteOffset":1890544,"byteLength":20},{"buffer":0,"byteOffset":1890564,"byteLength":80},{"buffer":0,"byteOffset":1890644,"byteLength":20},{"buffer":0,"byteOffset":1890664,"byteLength":80},{"buffer":0,"byteOffset":1890744,"byteLength":20},{"buffer":0,"byteOffset":1890764,"byteLength":80},{"buffer":0,"byteOffset":1890844,"byteLength":20},{"buffer":0,"byteOffset":1890864,"byteLength":80},{"buffer":0,"byteOffset":1890944,"byteLength":20},{"buffer":0,"byteOffset":1890964,"byteLength":80},{"buffer":0,"byteOffset":1891044,"byteLength":20},{"buffer":0,"byteOffset":1891064,"byteLength":80},{"buffer":0,"byteOffset":1891144,"byteLength":20},{"buffer":0,"byteOffset":1891164,"byteLength":80},{"buffer":0,"byteOffset":1891244,"byteLength":20},{"buffer":0,"byteOffset":1891264,"byteLength":80},{"buffer":0,"byteOffset":1891344,"byteLength":20},{"buffer":0,"byteOffset":1891364,"byteLength":80},{"buffer":0,"byteOffset":1891444,"byteLength":20},{"buffer":0,"byteOffset":1891464,"byteLength":80},{"buffer":0,"byteOffset":1891544,"byteLength":20},{"buffer":0,"byteOffset":1891564,"byteLength":80},{"buffer":0,"byteOffset":1891644,"byteLength":20},{"buffer":0,"byteOffset":1891664,"byteLength":80},{"buffer":0,"byteOffset":1891744,"byteLength":20},{"buffer":0,"byteOffset":1891764,"byteLength":80},{"buffer":0,"byteOffset":1891844,"byteLength":20},{"buffer":0,"byteOffset":1891864,"byteLength":80},{"buffer":0,"byteOffset":1891944,"byteLength":20},{"buffer":0,"byteOffset":1891964,"byteLength":80},{"buffer":0,"byteOffset":1892044,"byteLength":20},{"buffer":0,"byteOffset":1892064,"byteLength":80},{"buffer":0,"byteOffset":1892144,"byteLength":20},{"buffer":0,"byteOffset":1892164,"byteLength":80},{"buffer":0,"byteOffset":1892244,"byteLength":20},{"buffer":0,"byteOffset":1892264,"byteLength":80},{"buffer":0,"byteOffset":1892344,"byteLength":20},{"buffer":0,"byteOffset":1892364,"byteLength":80},{"buffer":0,"byteOffset":1892444,"byteLength":20},{"buffer":0,"byteOffset":1892464,"byteLength":80},{"buffer":0,"byteOffset":1892544,"byteLength":20},{"buffer":0,"byteOffset":1892564,"byteLength":80},{"buffer":0,"byteOffset":1892644,"byteLength":20},{"buffer":0,"byteOffset":1892664,"byteLength":80},{"buffer":0,"byteOffset":1892744,"byteLength":20},{"buffer":0,"byteOffset":1892764,"byteLength":80},{"buffer":0,"byteOffset":1892844,"byteLength":20},{"buffer":0,"byteOffset":1892864,"byteLength":80},{"buffer":0,"byteOffset":1892944,"byteLength":20},{"buffer":0,"byteOffset":1892964,"byteLength":80},{"buffer":0,"byteOffset":1893044,"byteLength":20},{"buffer":0,"byteOffset":1893064,"byteLength":80},{"buffer":0,"byteOffset":1893144,"byteLength":20},{"buffer":0,"byteOffset":1893164,"byteLength":80},{"buffer":0,"byteOffset":1893244,"byteLength":20},{"buffer":0,"byteOffset":1893264,"byteLength":80},{"buffer":0,"byteOffset":1893344,"byteLength":20},{"buffer":0,"byteOffset":1893364,"byteLength":80},{"buffer":0,"byteOffset":1893444,"byteLength":20},{"buffer":0,"byteOffset":1893464,"byteLength":80},{"buffer":0,"byteOffset":1893544,"byteLength":20},{"buffer":0,"byteOffset":1893564,"byteLength":80},{"buffer":0,"byteOffset":1893644,"byteLength":20},{"buffer":0,"byteOffset":1893664,"byteLength":80},{"buffer":0,"byteOffset":1893744,"byteLength":20},{"buffer":0,"byteOffset":1893764,"byteLength":80},{"buffer":0,"byteOffset":1893844,"byteLength":20},{"buffer":0,"byteOffset":1893864,"byteLength":80},{"buffer":0,"byteOffset":1893944,"byteLength":20},{"buffer":0,"byteOffset":1893964,"byteLength":80},{"buffer":0,"byteOffset":1894044,"byteLength":20},{"buffer":0,"byteOffset":1894064,"byteLength":80},{"buffer":0,"byteOffset":1894144,"byteLength":20},{"buffer":0,"byteOffset":1894164,"byteLength":80},{"buffer":0,"byteOffset":1894244,"byteLength":20},{"buffer":0,"byteOffset":1894264,"byteLength":80},{"buffer":0,"byteOffset":1894344,"byteLength":20},{"buffer":0,"byteOffset":1894364,"byteLength":80},{"buffer":0,"byteOffset":1894444,"byteLength":20},{"buffer":0,"byteOffset":1894464,"byteLength":80},{"buffer":0,"byteOffset":1894544,"byteLength":20},{"buffer":0,"byteOffset":1894564,"byteLength":80},{"buffer":0,"byteOffset":1894644,"byteLength":20},{"buffer":0,"byteOffset":1894664,"byteLength":80},{"buffer":0,"byteOffset":1894744,"byteLength":20},{"buffer":0,"byteOffset":1894764,"byteLength":80},{"buffer":0,"byteOffset":1894844,"byteLength":20},{"buffer":0,"byteOffset":1894864,"byteLength":80},{"buffer":0,"byteOffset":1894944,"byteLength":20},{"buffer":0,"byteOffset":1894964,"byteLength":80},{"buffer":0,"byteOffset":1895044,"byteLength":20},{"buffer":0,"byteOffset":1895064,"byteLength":80},{"buffer":0,"byteOffset":1895144,"byteLength":20},{"buffer":0,"byteOffset":1895164,"byteLength":80},{"buffer":0,"byteOffset":1895244,"byteLength":20},{"buffer":0,"byteOffset":1895264,"byteLength":80},{"buffer":0,"byteOffset":1895344,"byteLength":20},{"buffer":0,"byteOffset":1895364,"byteLength":80},{"buffer":0,"byteOffset":1895444,"byteLength":20},{"buffer":0,"byteOffset":1895464,"byteLength":80},{"buffer":0,"byteOffset":1895544,"byteLength":20},{"buffer":0,"byteOffset":1895564,"byteLength":80},{"buffer":0,"byteOffset":1895644,"byteLength":20},{"buffer":0,"byteOffset":1895664,"byteLength":80},{"buffer":0,"byteOffset":1895744,"byteLength":20},{"buffer":0,"byteOffset":1895764,"byteLength":80},{"buffer":0,"byteOffset":1895844,"byteLength":20},{"buffer":0,"byteOffset":1895864,"byteLength":80},{"buffer":0,"byteOffset":1895944,"byteLength":20},{"buffer":0,"byteOffset":1895964,"byteLength":80},{"buffer":0,"byteOffset":1896044,"byteLength":20},{"buffer":0,"byteOffset":1896064,"byteLength":80},{"buffer":0,"byteOffset":1896144,"byteLength":20},{"buffer":0,"byteOffset":1896164,"byteLength":80},{"buffer":0,"byteOffset":1896244,"byteLength":20},{"buffer":0,"byteOffset":1896264,"byteLength":80},{"buffer":0,"byteOffset":1896344,"byteLength":20},{"buffer":0,"byteOffset":1896364,"byteLength":80},{"buffer":0,"byteOffset":1896444,"byteLength":20},{"buffer":0,"byteOffset":1896464,"byteLength":80},{"buffer":0,"byteOffset":1896544,"byteLength":20},{"buffer":0,"byteOffset":1896564,"byteLength":80},{"buffer":0,"byteOffset":1896644,"byteLength":20},{"buffer":0,"byteOffset":1896664,"byteLength":80},{"buffer":0,"byteOffset":1896744,"byteLength":20},{"buffer":0,"byteOffset":1896764,"byteLength":80},{"buffer":0,"byteOffset":1896844,"byteLength":20},{"buffer":0,"byteOffset":1896864,"byteLength":80},{"buffer":0,"byteOffset":1896944,"byteLength":20},{"buffer":0,"byteOffset":1896964,"byteLength":80},{"buffer":0,"byteOffset":1897044,"byteLength":20},{"buffer":0,"byteOffset":1897064,"byteLength":80},{"buffer":0,"byteOffset":1897144,"byteLength":20},{"buffer":0,"byteOffset":1897164,"byteLength":80},{"buffer":0,"byteOffset":1897244,"byteLength":20},{"buffer":0,"byteOffset":1897264,"byteLength":80},{"buffer":0,"byteOffset":1897344,"byteLength":20},{"buffer":0,"byteOffset":1897364,"byteLength":80},{"buffer":0,"byteOffset":1897444,"byteLength":20},{"buffer":0,"byteOffset":1897464,"byteLength":80},{"buffer":0,"byteOffset":1897544,"byteLength":20},{"buffer":0,"byteOffset":1897564,"byteLength":80},{"buffer":0,"byteOffset":1897644,"byteLength":20},{"buffer":0,"byteOffset":1897664,"byteLength":80},{"buffer":0,"byteOffset":1897744,"byteLength":20},{"buffer":0,"byteOffset":1897764,"byteLength":80},{"buffer":0,"byteOffset":1897844,"byteLength":20},{"buffer":0,"byteOffset":1897864,"byteLength":80},{"buffer":0,"byteOffset":1897944,"byteLength":20},{"buffer":0,"byteOffset":1897964,"byteLength":80},{"buffer":0,"byteOffset":1898044,"byteLength":20},{"buffer":0,"byteOffset":1898064,"byteLength":80},{"buffer":0,"byteOffset":1898144,"byteLength":20},{"buffer":0,"byteOffset":1898164,"byteLength":80},{"buffer":0,"byteOffset":1898244,"byteLength":20},{"buffer":0,"byteOffset":1898264,"byteLength":80},{"buffer":0,"byteOffset":1898344,"byteLength":20},{"buffer":0,"byteOffset":1898364,"byteLength":80},{"buffer":0,"byteOffset":1898444,"byteLength":20},{"buffer":0,"byteOffset":1898464,"byteLength":80},{"buffer":0,"byteOffset":1898544,"byteLength":20},{"buffer":0,"byteOffset":1898564,"byteLength":80},{"buffer":0,"byteOffset":1898644,"byteLength":20},{"buffer":0,"byteOffset":1898664,"byteLength":80},{"buffer":0,"byteOffset":1898744,"byteLength":20},{"buffer":0,"byteOffset":1898764,"byteLength":80},{"buffer":0,"byteOffset":1898844,"byteLength":20},{"buffer":0,"byteOffset":1898864,"byteLength":80},{"buffer":0,"byteOffset":1898944,"byteLength":20},{"buffer":0,"byteOffset":1898964,"byteLength":80},{"buffer":0,"byteOffset":1899044,"byteLength":20},{"buffer":0,"byteOffset":1899064,"byteLength":80},{"buffer":0,"byteOffset":1899144,"byteLength":20},{"buffer":0,"byteOffset":1899164,"byteLength":80},{"buffer":0,"byteOffset":1899244,"byteLength":20},{"buffer":0,"byteOffset":1899264,"byteLength":80},{"buffer":0,"byteOffset":1899344,"byteLength":20},{"buffer":0,"byteOffset":1899364,"byteLength":80},{"buffer":0,"byteOffset":1899444,"byteLength":20},{"buffer":0,"byteOffset":1899464,"byteLength":80},{"buffer":0,"byteOffset":1899544,"byteLength":20},{"buffer":0,"byteOffset":1899564,"byteLength":80},{"buffer":0,"byteOffset":1899644,"byteLength":20},{"buffer":0,"byteOffset":1899664,"byteLength":80},{"buffer":0,"byteOffset":1899744,"byteLength":20},{"buffer":0,"byteOffset":1899764,"byteLength":80},{"buffer":0,"byteOffset":1899844,"byteLength":20},{"buffer":0,"byteOffset":1899864,"byteLength":80},{"buffer":0,"byteOffset":1899944,"byteLength":20},{"buffer":0,"byteOffset":1899964,"byteLength":80},{"buffer":0,"byteOffset":1900044,"byteLength":20},{"buffer":0,"byteOffset":1900064,"byteLength":80},{"buffer":0,"byteOffset":1900144,"byteLength":20},{"buffer":0,"byteOffset":1900164,"byteLength":80},{"buffer":0,"byteOffset":1900244,"byteLength":20},{"buffer":0,"byteOffset":1900264,"byteLength":80},{"buffer":0,"byteOffset":1900344,"byteLength":20},{"buffer":0,"byteOffset":1900364,"byteLength":80},{"buffer":0,"byteOffset":1900444,"byteLength":20},{"buffer":0,"byteOffset":1900464,"byteLength":80},{"buffer":0,"byteOffset":1900544,"byteLength":20},{"buffer":0,"byteOffset":1900564,"byteLength":80},{"buffer":0,"byteOffset":1900644,"byteLength":20},{"buffer":0,"byteOffset":1900664,"byteLength":80},{"buffer":0,"byteOffset":1900744,"byteLength":20},{"buffer":0,"byteOffset":1900764,"byteLength":80},{"buffer":0,"byteOffset":1900844,"byteLength":20},{"buffer":0,"byteOffset":1900864,"byteLength":80},{"buffer":0,"byteOffset":1900944,"byteLength":20},{"buffer":0,"byteOffset":1900964,"byteLength":80},{"buffer":0,"byteOffset":1901044,"byteLength":20},{"buffer":0,"byteOffset":1901064,"byteLength":80},{"buffer":0,"byteOffset":1901144,"byteLength":20},{"buffer":0,"byteOffset":1901164,"byteLength":80},{"buffer":0,"byteOffset":1901244,"byteLength":20},{"buffer":0,"byteOffset":1901264,"byteLength":80},{"buffer":0,"byteOffset":1901344,"byteLength":20},{"buffer":0,"byteOffset":1901364,"byteLength":80},{"buffer":0,"byteOffset":1901444,"byteLength":20},{"buffer":0,"byteOffset":1901464,"byteLength":80},{"buffer":0,"byteOffset":1901544,"byteLength":20},{"buffer":0,"byteOffset":1901564,"byteLength":80},{"buffer":0,"byteOffset":1901644,"byteLength":20},{"buffer":0,"byteOffset":1901664,"byteLength":80},{"buffer":0,"byteOffset":1901744,"byteLength":20},{"buffer":0,"byteOffset":1901764,"byteLength":80},{"buffer":0,"byteOffset":1901844,"byteLength":20},{"buffer":0,"byteOffset":1901864,"byteLength":80},{"buffer":0,"byteOffset":1901944,"byteLength":20},{"buffer":0,"byteOffset":1901964,"byteLength":80},{"buffer":0,"byteOffset":1902044,"byteLength":20},{"buffer":0,"byteOffset":1902064,"byteLength":80},{"buffer":0,"byteOffset":1902144,"byteLength":20},{"buffer":0,"byteOffset":1902164,"byteLength":80},{"buffer":0,"byteOffset":1902244,"byteLength":20},{"buffer":0,"byteOffset":1902264,"byteLength":80},{"buffer":0,"byteOffset":1902344,"byteLength":20},{"buffer":0,"byteOffset":1902364,"byteLength":80},{"buffer":0,"byteOffset":1902444,"byteLength":20},{"buffer":0,"byteOffset":1902464,"byteLength":80},{"buffer":0,"byteOffset":1902544,"byteLength":20},{"buffer":0,"byteOffset":1902564,"byteLength":80},{"buffer":0,"byteOffset":1902644,"byteLength":20},{"buffer":0,"byteOffset":1902664,"byteLength":80},{"buffer":0,"byteOffset":1902744,"byteLength":20},{"buffer":0,"byteOffset":1902764,"byteLength":80},{"buffer":0,"byteOffset":1902844,"byteLength":20},{"buffer":0,"byteOffset":1902864,"byteLength":80},{"buffer":0,"byteOffset":1902944,"byteLength":20},{"buffer":0,"byteOffset":1902964,"byteLength":80},{"buffer":0,"byteOffset":1903044,"byteLength":20},{"buffer":0,"byteOffset":1903064,"byteLength":80},{"buffer":0,"byteOffset":1903144,"byteLength":20},{"buffer":0,"byteOffset":1903164,"byteLength":80},{"buffer":0,"byteOffset":1903244,"byteLength":20},{"buffer":0,"byteOffset":1903264,"byteLength":80},{"buffer":0,"byteOffset":1903344,"byteLength":20},{"buffer":0,"byteOffset":1903364,"byteLength":80},{"buffer":0,"byteOffset":1903444,"byteLength":20},{"buffer":0,"byteOffset":1903464,"byteLength":80},{"buffer":0,"byteOffset":1903544,"byteLength":20},{"buffer":0,"byteOffset":1903564,"byteLength":80},{"buffer":0,"byteOffset":1903644,"byteLength":20},{"buffer":0,"byteOffset":1903664,"byteLength":80},{"buffer":0,"byteOffset":1903744,"byteLength":20},{"buffer":0,"byteOffset":1903764,"byteLength":80},{"buffer":0,"byteOffset":1903844,"byteLength":20},{"buffer":0,"byteOffset":1903864,"byteLength":80},{"buffer":0,"byteOffset":1903944,"byteLength":20},{"buffer":0,"byteOffset":1903964,"byteLength":80},{"buffer":0,"byteOffset":1904044,"byteLength":20},{"buffer":0,"byteOffset":1904064,"byteLength":80},{"buffer":0,"byteOffset":1904144,"byteLength":20},{"buffer":0,"byteOffset":1904164,"byteLength":80},{"buffer":0,"byteOffset":1904244,"byteLength":20},{"buffer":0,"byteOffset":1904264,"byteLength":80},{"buffer":0,"byteOffset":1904344,"byteLength":20},{"buffer":0,"byteOffset":1904364,"byteLength":80},{"buffer":0,"byteOffset":1904444,"byteLength":20},{"buffer":0,"byteOffset":1904464,"byteLength":80},{"buffer":0,"byteOffset":1904544,"byteLength":20},{"buffer":0,"byteOffset":1904564,"byteLength":80},{"buffer":0,"byteOffset":1904644,"byteLength":20},{"buffer":0,"byteOffset":1904664,"byteLength":80},{"buffer":0,"byteOffset":1904744,"byteLength":20},{"buffer":0,"byteOffset":1904764,"byteLength":80},{"buffer":0,"byteOffset":1904844,"byteLength":20},{"buffer":0,"byteOffset":1904864,"byteLength":80},{"buffer":0,"byteOffset":1904944,"byteLength":20},{"buffer":0,"byteOffset":1904964,"byteLength":80},{"buffer":0,"byteOffset":1905044,"byteLength":20},{"buffer":0,"byteOffset":1905064,"byteLength":80},{"buffer":0,"byteOffset":1905144,"byteLength":20},{"buffer":0,"byteOffset":1905164,"byteLength":80},{"buffer":0,"byteOffset":1905244,"byteLength":20},{"buffer":0,"byteOffset":1905264,"byteLength":80},{"buffer":0,"byteOffset":1905344,"byteLength":20},{"buffer":0,"byteOffset":1905364,"byteLength":80},{"buffer":0,"byteOffset":1905444,"byteLength":20},{"buffer":0,"byteOffset":1905464,"byteLength":80},{"buffer":0,"byteOffset":1905544,"byteLength":20},{"buffer":0,"byteOffset":1905564,"byteLength":80},{"buffer":0,"byteOffset":1905644,"byteLength":20},{"buffer":0,"byteOffset":1905664,"byteLength":80},{"buffer":0,"byteOffset":1905744,"byteLength":20},{"buffer":0,"byteOffset":1905764,"byteLength":80},{"buffer":0,"byteOffset":1905844,"byteLength":20},{"buffer":0,"byteOffset":1905864,"byteLength":80},{"buffer":0,"byteOffset":1905944,"byteLength":20},{"buffer":0,"byteOffset":1905964,"byteLength":80},{"buffer":0,"byteOffset":1906044,"byteLength":20},{"buffer":0,"byteOffset":1906064,"byteLength":80},{"buffer":0,"byteOffset":1906144,"byteLength":20},{"buffer":0,"byteOffset":1906164,"byteLength":80},{"buffer":0,"byteOffset":1906244,"byteLength":20},{"buffer":0,"byteOffset":1906264,"byteLength":80},{"buffer":0,"byteOffset":1906344,"byteLength":20},{"buffer":0,"byteOffset":1906364,"byteLength":80},{"buffer":0,"byteOffset":1906444,"byteLength":20},{"buffer":0,"byteOffset":1906464,"byteLength":80},{"buffer":0,"byteOffset":1906544,"byteLength":20},{"buffer":0,"byteOffset":1906564,"byteLength":80},{"buffer":0,"byteOffset":1906644,"byteLength":20},{"buffer":0,"byteOffset":1906664,"byteLength":80},{"buffer":0,"byteOffset":1906744,"byteLength":20},{"buffer":0,"byteOffset":1906764,"byteLength":80},{"buffer":0,"byteOffset":1906844,"byteLength":20},{"buffer":0,"byteOffset":1906864,"byteLength":80},{"buffer":0,"byteOffset":1906944,"byteLength":20},{"buffer":0,"byteOffset":1906964,"byteLength":80},{"buffer":0,"byteOffset":1907044,"byteLength":20},{"buffer":0,"byteOffset":1907064,"byteLength":80},{"buffer":0,"byteOffset":1907144,"byteLength":20},{"buffer":0,"byteOffset":1907164,"byteLength":80},{"buffer":0,"byteOffset":1907244,"byteLength":20},{"buffer":0,"byteOffset":1907264,"byteLength":80},{"buffer":0,"byteOffset":1907344,"byteLength":20},{"buffer":0,"byteOffset":1907364,"byteLength":80},{"buffer":0,"byteOffset":1907444,"byteLength":20},{"buffer":0,"byteOffset":1907464,"byteLength":80},{"buffer":0,"byteOffset":1907544,"byteLength":20},{"buffer":0,"byteOffset":1907564,"byteLength":80},{"buffer":0,"byteOffset":1907644,"byteLength":20},{"buffer":0,"byteOffset":1907664,"byteLength":80},{"buffer":0,"byteOffset":1907744,"byteLength":20},{"buffer":0,"byteOffset":1907764,"byteLength":80},{"buffer":0,"byteOffset":1907844,"byteLength":20},{"buffer":0,"byteOffset":1907864,"byteLength":80},{"buffer":0,"byteOffset":1907944,"byteLength":20},{"buffer":0,"byteOffset":1907964,"byteLength":80},{"buffer":0,"byteOffset":1908044,"byteLength":20},{"buffer":0,"byteOffset":1908064,"byteLength":80},{"buffer":0,"byteOffset":1908144,"byteLength":20},{"buffer":0,"byteOffset":1908164,"byteLength":80},{"buffer":0,"byteOffset":1908244,"byteLength":20},{"buffer":0,"byteOffset":1908264,"byteLength":80},{"buffer":0,"byteOffset":1908344,"byteLength":20},{"buffer":0,"byteOffset":1908364,"byteLength":80},{"buffer":0,"byteOffset":1908444,"byteLength":20},{"buffer":0,"byteOffset":1908464,"byteLength":80},{"buffer":0,"byteOffset":1908544,"byteLength":20},{"buffer":0,"byteOffset":1908564,"byteLength":80},{"buffer":0,"byteOffset":1908644,"byteLength":20},{"buffer":0,"byteOffset":1908664,"byteLength":80},{"buffer":0,"byteOffset":1908744,"byteLength":20},{"buffer":0,"byteOffset":1908764,"byteLength":80},{"buffer":0,"byteOffset":1908844,"byteLength":20},{"buffer":0,"byteOffset":1908864,"byteLength":80},{"buffer":0,"byteOffset":1908944,"byteLength":20},{"buffer":0,"byteOffset":1908964,"byteLength":80},{"buffer":0,"byteOffset":1909044,"byteLength":20},{"buffer":0,"byteOffset":1909064,"byteLength":80},{"buffer":0,"byteOffset":1909144,"byteLength":20},{"buffer":0,"byteOffset":1909164,"byteLength":80},{"buffer":0,"byteOffset":1909244,"byteLength":20},{"buffer":0,"byteOffset":1909264,"byteLength":80},{"buffer":0,"byteOffset":1909344,"byteLength":20},{"buffer":0,"byteOffset":1909364,"byteLength":80},{"buffer":0,"byteOffset":1909444,"byteLength":20},{"buffer":0,"byteOffset":1909464,"byteLength":80},{"buffer":0,"byteOffset":1909544,"byteLength":20},{"buffer":0,"byteOffset":1909564,"byteLength":80},{"buffer":0,"byteOffset":1909644,"byteLength":20},{"buffer":0,"byteOffset":1909664,"byteLength":80},{"buffer":0,"byteOffset":1909744,"byteLength":20},{"buffer":0,"byteOffset":1909764,"byteLength":80},{"buffer":0,"byteOffset":1909844,"byteLength":20},{"buffer":0,"byteOffset":1909864,"byteLength":80},{"buffer":0,"byteOffset":1909944,"byteLength":20},{"buffer":0,"byteOffset":1909964,"byteLength":80},{"buffer":0,"byteOffset":1910044,"byteLength":20},{"buffer":0,"byteOffset":1910064,"byteLength":80},{"buffer":0,"byteOffset":1910144,"byteLength":20},{"buffer":0,"byteOffset":1910164,"byteLength":80},{"buffer":0,"byteOffset":1910244,"byteLength":20},{"buffer":0,"byteOffset":1910264,"byteLength":80},{"buffer":0,"byteOffset":1910344,"byteLength":20},{"buffer":0,"byteOffset":1910364,"byteLength":80},{"buffer":0,"byteOffset":1910444,"byteLength":20},{"buffer":0,"byteOffset":1910464,"byteLength":80},{"buffer":0,"byteOffset":1910544,"byteLength":20},{"buffer":0,"byteOffset":1910564,"byteLength":80},{"buffer":0,"byteOffset":1910644,"byteLength":20},{"buffer":0,"byteOffset":1910664,"byteLength":80},{"buffer":0,"byteOffset":1910744,"byteLength":20},{"buffer":0,"byteOffset":1910764,"byteLength":80},{"buffer":0,"byteOffset":1910844,"byteLength":20},{"buffer":0,"byteOffset":1910864,"byteLength":80},{"buffer":0,"byteOffset":1910944,"byteLength":20},{"buffer":0,"byteOffset":1910964,"byteLength":80},{"buffer":0,"byteOffset":1911044,"byteLength":20},{"buffer":0,"byteOffset":1911064,"byteLength":80},{"buffer":0,"byteOffset":1911144,"byteLength":20},{"buffer":0,"byteOffset":1911164,"byteLength":80},{"buffer":0,"byteOffset":1911244,"byteLength":20},{"buffer":0,"byteOffset":1911264,"byteLength":80},{"buffer":0,"byteOffset":1911344,"byteLength":20},{"buffer":0,"byteOffset":1911364,"byteLength":80},{"buffer":0,"byteOffset":1911444,"byteLength":20},{"buffer":0,"byteOffset":1911464,"byteLength":80},{"buffer":0,"byteOffset":1911544,"byteLength":20},{"buffer":0,"byteOffset":1911564,"byteLength":80},{"buffer":0,"byteOffset":1911644,"byteLength":20},{"buffer":0,"byteOffset":1911664,"byteLength":80},{"buffer":0,"byteOffset":1911744,"byteLength":20},{"buffer":0,"byteOffset":1911764,"byteLength":80},{"buffer":0,"byteOffset":1911844,"byteLength":20},{"buffer":0,"byteOffset":1911864,"byteLength":80},{"buffer":0,"byteOffset":1911944,"byteLength":20},{"buffer":0,"byteOffset":1911964,"byteLength":80},{"buffer":0,"byteOffset":1912044,"byteLength":20},{"buffer":0,"byteOffset":1912064,"byteLength":80},{"buffer":0,"byteOffset":1912144,"byteLength":20},{"buffer":0,"byteOffset":1912164,"byteLength":80},{"buffer":0,"byteOffset":1912244,"byteLength":20},{"buffer":0,"byteOffset":1912264,"byteLength":80},{"buffer":0,"byteOffset":1912344,"byteLength":20},{"buffer":0,"byteOffset":1912364,"byteLength":80},{"buffer":0,"byteOffset":1912444,"byteLength":20},{"buffer":0,"byteOffset":1912464,"byteLength":80},{"buffer":0,"byteOffset":1912544,"byteLength":20},{"buffer":0,"byteOffset":1912564,"byteLength":80},{"buffer":0,"byteOffset":1912644,"byteLength":20},{"buffer":0,"byteOffset":1912664,"byteLength":80},{"buffer":0,"byteOffset":1912744,"byteLength":20},{"buffer":0,"byteOffset":1912764,"byteLength":80},{"buffer":0,"byteOffset":1912844,"byteLength":20},{"buffer":0,"byteOffset":1912864,"byteLength":80},{"buffer":0,"byteOffset":1912944,"byteLength":20},{"buffer":0,"byteOffset":1912964,"byteLength":80},{"buffer":0,"byteOffset":1913044,"byteLength":20},{"buffer":0,"byteOffset":1913064,"byteLength":80},{"buffer":0,"byteOffset":1913144,"byteLength":20},{"buffer":0,"byteOffset":1913164,"byteLength":80},{"buffer":0,"byteOffset":1913244,"byteLength":20},{"buffer":0,"byteOffset":1913264,"byteLength":80},{"buffer":0,"byteOffset":1913344,"byteLength":20},{"buffer":0,"byteOffset":1913364,"byteLength":80},{"buffer":0,"byteOffset":1913444,"byteLength":20},{"buffer":0,"byteOffset":1913464,"byteLength":80},{"buffer":0,"byteOffset":1913544,"byteLength":20},{"buffer":0,"byteOffset":1913564,"byteLength":80},{"buffer":0,"byteOffset":1913644,"byteLength":20},{"buffer":0,"byteOffset":1913664,"byteLength":80},{"buffer":0,"byteOffset":1913744,"byteLength":20},{"buffer":0,"byteOffset":1913764,"byteLength":80},{"buffer":0,"byteOffset":1913844,"byteLength":20},{"buffer":0,"byteOffset":1913864,"byteLength":80},{"buffer":0,"byteOffset":1913944,"byteLength":20},{"buffer":0,"byteOffset":1913964,"byteLength":80},{"buffer":0,"byteOffset":1914044,"byteLength":20},{"buffer":0,"byteOffset":1914064,"byteLength":80},{"buffer":0,"byteOffset":1914144,"byteLength":20},{"buffer":0,"byteOffset":1914164,"byteLength":80},{"buffer":0,"byteOffset":1914244,"byteLength":20},{"buffer":0,"byteOffset":1914264,"byteLength":80},{"buffer":0,"byteOffset":1914344,"byteLength":20},{"buffer":0,"byteOffset":1914364,"byteLength":80},{"buffer":0,"byteOffset":1914444,"byteLength":20},{"buffer":0,"byteOffset":1914464,"byteLength":80},{"buffer":0,"byteOffset":1914544,"byteLength":20},{"buffer":0,"byteOffset":1914564,"byteLength":80},{"buffer":0,"byteOffset":1914644,"byteLength":20},{"buffer":0,"byteOffset":1914664,"byteLength":80},{"buffer":0,"byteOffset":1914744,"byteLength":20},{"buffer":0,"byteOffset":1914764,"byteLength":80},{"buffer":0,"byteOffset":1914844,"byteLength":20},{"buffer":0,"byteOffset":1914864,"byteLength":80},{"buffer":0,"byteOffset":1914944,"byteLength":20},{"buffer":0,"byteOffset":1914964,"byteLength":80},{"buffer":0,"byteOffset":1915044,"byteLength":20},{"buffer":0,"byteOffset":1915064,"byteLength":80},{"buffer":0,"byteOffset":1915144,"byteLength":20},{"buffer":0,"byteOffset":1915164,"byteLength":80},{"buffer":0,"byteOffset":1915244,"byteLength":20},{"buffer":0,"byteOffset":1915264,"byteLength":80}],"accessors":[{"bufferView":0,"componentType":5126,"count":26214,"type":"VEC3","min":[-1.07,0.06499999999999995,-0.512],"max":[0.99,2.8400000000000003,0.5342269461446391]},{"bufferView":1,"componentType":5126,"count":26214,"type":"VEC3","min":[-1.0,-1.0,-1.0],"max":[1.0,1.0,1.0]},{"bufferView":2,"componentType":5126,"count":26214,"type":"VEC4"},{"bufferView":3,"componentType":5123,"count":26214,"type":"VEC4"},{"bufferView":4,"componentType":5126,"count":26214,"type":"VEC4"},{"bufferView":5,"componentType":5126,"count":26214,"type":"VEC2"},{"bufferView":6,"componentType":5126,"count":24,"type":"MAT4"},{"bufferView":7,"componentType":5126,"count":5,"type":"SCALAR","min":[0.0],"max":[2.4]},{"bufferView":8,"componentType":5126,"count":5,"type":"VEC4"},{"bufferView":9,"componentType":5126,"count":5,"type":"SCALAR","min":[0.0],"max":[2.4]},{"bufferView":10,"componentType":5126,"count":5,"type":"VEC4"},{"bufferView":11,"componentType":5126,"count":5,"type":"SCALAR","min":[0.0],"max":[2.4]},{"bufferView":12,"componentType":5126,"count":5,"type":"VEC4"},{"bufferView":13,"componentType":5126,"count":5,"type":"SCALAR","min":[0.0],"max":[2.4]},{"bufferView":14,"componentType":5126,"count":5,"type":"VEC4"},{"bufferView":15,"componentType":5126,"count":5,"type":"SCALAR","min":[0.0],"max":[2.4]},{"bufferView":16,"componentType":5126,"count":5,"type":"VEC4"},{"bufferView":17,"componentType":5126,"count":5,"type":"SCALAR","min":[0.0],"max":[2.4]},{"bufferView":18,"componentType":5126,"count":5,"type":"VEC4"},{"bufferView":19,"componentType":5126,"count":5,"type":"SCALAR","min":[0.0],"max":[2.4]},{"bufferView":20,"componentType":5126,"count":5,"type":"VEC4"},{"bufferView":21,"componentType":5126,"count":5,"type":"SCALAR","min":[0.0],"max":[2.4]},{"bufferView":22,"componentType":5126,"count":5,"type":"VEC4"},{"bufferView":23,"componentType":5126,"count":5,"type":"SCALAR","min":[0.0],"max":[2.4]},{"bufferView":24,"componentType":5126,"count":5,"type":"VEC4"},{"bufferView":25,"componentType":5126,"count":5,"type":"SCALAR","min":[0.0],"max":[2.4]},{"bufferView":26,"componentType":5126,"count":5,"type":"VEC4"},{"bufferView":27,"componentType":5126,"count":5,"type":"SCALAR","min":[0.0],"max":[2.4]},{"bufferView":28,"componentType":5126,"count":5,"type":"VEC4"},{"bufferView":29,"componentType":5126,"count":5,"type":"SCALAR","min":[0.0],"max":[2.4]},{"bufferView":30,"componentType":5126,"count":5,"type":"VEC4"},{"bufferView":31,"componentType":5126,"count":5,"type":"SCALAR","min":[0.0],"max":[2.4]},{"bufferView":32,"componentType":5126,"count":5,"type":"VEC4"},{"bufferView":33,"componentType":5126,"count":5,"type":"SCALAR","min":[0.0],"max":[2.4]},{"bufferView":34,"componentType":5126,"count":5,"type":"VEC4"},{"bufferView":35,"componentType":5126,"count":5,"type":"SCALAR","min":[0.0],"max":[2.4]},{"bufferView":36,"componentType":5126,"count":5,"type":"VEC4"},{"bufferView":37,"componentType":5126,"count":5,"type":"SCALAR","min":[0.0],"max":[2.4]},{"bufferView":38,"componentType":5126,"count":5,"type":"VEC4"},{"bufferView":39,"componentType":5126,"count":5,"type":"SCALAR","min":[0.0],"max":[2.4]},{"bufferView":40,"componentType":5126,"count":5,"type":"VEC4"},{"bufferView":41,"componentType":5126,"count":5,"type":"SCALAR","min":[0.0],"max":[2.4]},{"bufferView":42,"componentType":5126,"count":5,"type":"VEC4"},{"bufferView":43,"componentType":5126,"count":5,"type":"SCALAR","min":[0.0],"max":[2.4]},{"bufferView":44,"componentType":5126,"count":5,"type":"VEC4"},{"bufferView":45,"componentType":5126,"count":5,"type":"SCALAR","min":[0.0],"max":[2.4]},{"bufferView":46,"componentType":5126,"count":5,"type":"VEC4"},{"bufferView":47,"componentType":5126,"count":5,"type":"SCALAR","min":[0.0],"max":[2.4]},{"bufferView":48,"componentType":5126,"count":5,"type":"VEC4"},{"bufferView":49,"componentType":5126,"count":5,"type":"SCALAR","min":[0.0],"max":[2.4]},{"bufferView":50,"componentType":5126,"count":5,"type":"VEC4"},{"bufferView":51,"componentType":5126,"count":5,"type":"SCALAR","min":[0.0],"max":[2.4]},{"bufferView":52,"componentType":5126,"count":5,"type":"VEC4"},{"bufferView":53,"componentType":5126,"count":5,"type":"SCALAR","min":[0.0],"max":[2.4]},{"bufferView":54,"componentType":5126,"count":5,"type":"VEC4"},{"bufferView":55,"componentType":5126,"count":5,"type":"SCALAR","min":[0.0],"max":[1.1]},{"bufferView":56,"componentType":5126,"count":5,"type":"VEC4"},{"bufferView":57,"componentType":5126,"count":5,"type":"SCALAR","min":[0.0],"max":[1.1]},{"bufferView":58,"componentType":5126,"count":5,"type":"VEC4"},{"bufferView":59,"componentType":5126,"count":5,"type":"SCALAR","min":[0.0],"max":[1.1]},{"bufferView":60,"componentType":5126,"count":5,"type":"VEC4"},{"bufferView":61,"componentType":5126,"count":5,"type":"SCALAR","min":[0.0],"max":[1.1]},{"bufferView":62,"componentType":5126,"count":5,"type":"VEC4"},{"bufferView":63,"componentType":5126,"count":5,"type":"SCALAR","min":[0.0],"max":[1.1]},{"bufferView":64,"componentType":5126,"count":5,"type":"VEC4"},{"bufferView":65,"componentType":5126,"count":5,"type":"SCALAR","min":[0.0],"max":[1.1]},{"bufferView":66,"componentType":5126,"count":5,"type":"VEC4"},{"bufferView":67,"componentType":5126,"count":5,"type":"SCALAR","min":[0.0],"max":[1.1]},{"bufferView":68,"componentType":5126,"count":5,"type":"VEC4"},{"bufferView":69,"componentType":5126,"count":5,"type":"SCALAR","min":[0.0],"max":[1.1]},{"bufferView":70,"componentType":5126,"count":5,"type":"VEC4"},{"bufferView":71,"componentType":5126,"count":5,"type":"SCALAR","min":[0.0],"max":[1.1]},{"bufferView":72,"componentType":5126,"count":5,"type":"VEC4"},{"bufferView":73,"componentType":5126,"count":5,"type":"SCALAR","min":[0.0],"max":[1.1]},{"bufferView":74,"componentType":5126,"count":5,"type":"VEC4"},{"bufferView":75,"componentType":5126,"count":5,"type":"SCALAR","min":[0.0],"max":[1.1]},{"bufferView":76,"componentType":5126,"count":5,"type":"VEC4"},{"bufferView":77,"componentType":5126,"count":5,"type":"SCALAR","min":[0.0],"max":[1.1]},{"bufferView":78,"componentType":5126,"count":5,"type":"VEC4"},{"bufferView":79,"componentType":5126,"count":5,"type":"SCALAR","min":[0.0],"max":[1.1]},{"bufferView":80,"componentType":5126,"count":5,"type":"VEC4"},{"bufferView":81,"componentType":5126,"count":5,"type":"SCALAR","min":[0.0],"max":[1.1]},{"bufferView":82,"componentType":5126,"count":5,"type":"VEC4"},{"bufferView":83,"componentType":5126,"count":5,"type":"SCALAR","min":[0.0],"max":[1.1]},{"bufferView":84,"componentType":5126,"count":5,"type":"VEC4"},{"bufferView":85,"componentType":5126,"count":5,"type":"SCALAR","min":[0.0],"max":[1.1]},{"bufferView":86,"componentType":5126,"count":5,"type":"VEC4"},{"bufferView":87,"componentType":5126,"count":5,"type":"SCALAR","min":[0.0],"max":[1.1]},{"bufferView":88,"componentType":5126,"count":5,"type":"VEC4"},{"bufferView":89,"componentType":5126,"count":5,"type":"SCALAR","min":[0.0],"max":[1.1]},{"bufferView":90,"componentType":5126,"count":5,"type":"VEC4"},{"bufferView":91,"componentType":5126,"count":5,"type":"SCALAR","min":[0.0],"max":[1.1]},{"bufferView":92,"componentType":5126,"count":5,"type":"VEC4"},{"bufferView":93,"componentType":5126,"count":5,"type":"SCALAR","min":[0.0],"max":[1.1]},{"bufferView":94,"componentType":5126,"count":5,"type":"VEC4"},{"bufferView":95,"componentType":5126,"count":5,"type":"SCALAR","min":[0.0],"max":[1.1]},{"bufferView":96,"componentType":5126,"count":5,"type":"VEC4"},{"bufferView":97,"componentType":5126,"count":5,"type":"SCALAR","min":[0.0],"max":[1.1]},{"bufferView":98,"componentType":5126,"count":5,"type":"VEC4"},{"bufferView":99,"componentType":5126,"count":5,"type":"SCALAR","min":[0.0],"max":[1.1]},{"bufferView":100,"componentType":5126,"count":5,"type":"VEC4"},{"bufferView":101,"componentType":5126,"count":5,"type":"SCALAR","min":[0.0],"max":[1.1]},{"bufferView":102,"componentType":5126,"count":5,"type":"VEC4"},{"bufferView":103,"componentType":5126,"count":5,"type":"SCALAR","min":[0.0],"max":[0.91]},{"bufferView":104,"componentType":5126,"count":5,"type":"VEC4"},{"bufferView":105,"componentType":5126,"count":5,"type":"SCALAR","min":[0.0],"max":[0.91]},{"bufferView":106,"componentType":5126,"count":5,"type":"VEC4"},{"bufferView":107,"componentType":5126,"count":5,"type":"SCALAR","min":[0.0],"max":[0.91]},{"bufferView":108,"componentType":5126,"count":5,"type":"VEC4"},{"bufferView":109,"componentType":5126,"count":5,"type":"SCALAR","min":[0.0],"max":[0.91]},{"bufferView":110,"componentType":5126,"count":5,"type":"VEC4"},{"bufferView":111,"componentType":5126,"count":5,"type":"SCALAR","min":[0.0],"max":[0.91]},{"bufferView":112,"componentType":5126,"count":5,"type":"VEC4"},{"bufferView":113,"componentType":5126,"count":5,"type":"SCALAR","min":[0.0],"max":[0.91]},{"bufferView":114,"componentType":5126,"count":5,"type":"VEC4"},{"bufferView":115,"componentType":5126,"count":5,"type":"SCALAR","min":[0.0],"max":[0.91]},{"bufferView":116,"componentType":5126,"count":5,"type":"VEC4"},{"bufferView":117,"componentType":5126,"count":5,"type":"SCALAR","min":[0.0],"max":[0.91]},{"bufferView":118,"componentType":5126,"count":5,"type":"VEC4"},{"bufferView":119,"componentType":5126,"count":5,"type":"SCALAR","min":[0.0],"max":[0.91]},{"bufferView":120,"componentType":5126,"count":5,"type":"VEC4"},{"bufferView":121,"componentType":5126,"count":5,"type":"SCALAR","min":[0.0],"max":[0.91]},{"bufferView":122,"componentType":5126,"count":5,"type":"VEC4"},{"bufferView":123,"componentType":5126,"count":5,"type":"SCALAR","min":[0.0],"max":[0.91]},{"bufferView":124,"componentType":5126,"count":5,"type":"VEC4"},{"bufferView":125,"componentType":5126,"count":5,"type":"SCALAR","min":[0.0],"max":[0.91]},{"bufferView":126,"componentType":5126,"count":5,"type":"VEC4"},{"bufferView":127,"componentType":5126,"count":5,"type":"SCALAR","min":[0.0],"max":[0.91]},{"bufferView":128,"componentType":5126,"count":5,"type":"VEC4"},{"bufferView":129,"componentType":5126,"count":5,"type":"SCALAR","min":[0.0],"max":[0.91]},{"bufferView":130,"componentType":5126,"count":5,"type":"VEC4"},{"bufferView":131,"componentType":5126,"count":5,"type":"SCALAR","min":[0.0],"max":[0.91]},{"bufferView":132,"componentType":5126,"count":5,"type":"VEC4"},{"bufferView":133,"componentType":5126,"count":5,"type":"SCALAR","min":[0.0],"max":[0.91]},{"bufferView":134,"componentType":5126,"count":5,"type":"VEC4"},{"bufferView":135,"componentType":5126,"count":5,"type":"SCALAR","min":[0.0],"max":[0.91]},{"bufferView":136,"componentType":5126,"count":5,"type":"VEC4"},{"bufferView":137,"componentType":5126,"count":5,"type":"SCALAR","min":[0.0],"max":[0.91]},{"bufferView":138,"componentType":5126,"count":5,"type":"VEC4"},{"bufferView":139,"componentType":5126,"count":5,"type":"SCALAR","min":[0.0],"max":[0.91]},{"bufferView":140,"componentType":5126,"count":5,"type":"VEC4"},{"bufferView":141,"componentType":5126,"count":5,"type":"SCALAR","min":[0.0],"max":[0.91]},{"bufferView":142,"componentType":5126,"count":5,"type":"VEC4"},{"bufferView":143,"componentType":5126,"count":5,"type":"SCALAR","min":[0.0],"max":[0.91]},{"bufferView":144,"componentType":5126,"count":5,"type":"VEC4"},{"bufferView":145,"componentType":5126,"count":5,"type":"SCALAR","min":[0.0],"max":[0.91]},{"bufferView":146,"componentType":5126,"count":5,"type":"VEC4"},{"bufferView":147,"componentType":5126,"count":5,"type":"SCALAR","min":[0.0],"max":[0.91]},{"bufferView":148,"componentType":5126,"count":5,"type":"VEC4"},{"bufferView":149,"componentType":5126,"count":5,"type":"SCALAR","min":[0.0],"max":[0.91]},{"bufferView":150,"componentType":5126,"count":5,"type":"VEC4"},{"bufferView":151,"componentType":5126,"count":5,"type":"SCALAR","min":[0.0],"max":[1.7]},{"bufferView":152,"componentType":5126,"count":5,"type":"VEC4"},{"bufferView":153,"componentType":5126,"count":5,"type":"SCALAR","min":[0.0],"max":[1.7]},{"bufferView":154,"componentType":5126,"count":5,"type":"VEC4"},{"bufferView":155,"componentType":5126,"count":5,"type":"SCALAR","min":[0.0],"max":[1.7]},{"bufferView":156,"componentType":5126,"count":5,"type":"VEC4"},{"bufferView":157,"componentType":5126,"count":5,"type":"SCALAR","min":[0.0],"max":[1.7]},{"bufferView":158,"componentType":5126,"count":5,"type":"VEC4"},{"bufferView":159,"componentType":5126,"count":5,"type":"SCALAR","min":[0.0],"max":[1.7]},{"bufferView":160,"componentType":5126,"count":5,"type":"VEC4"},{"bufferView":161,"componentType":5126,"count":5,"type":"SCALAR","min":[0.0],"max":[1.7]},{"bufferView":162,"componentType":5126,"count":5,"type":"VEC4"},{"bufferView":163,"componentType":5126,"count":5,"type":"SCALAR","min":[0.0],"max":[1.7]},{"bufferView":164,"componentType":5126,"count":5,"type":"VEC4"},{"bufferView":165,"componentType":5126,"count":5,"type":"SCALAR","min":[0.0],"max":[1.7]},{"bufferView":166,"componentType":5126,"count":5,"type":"VEC4"},{"bufferView":167,"componentType":5126,"count":5,"type":"SCALAR","min":[0.0],"max":[1.7]},{"bufferView":168,"componentType":5126,"count":5,"type":"VEC4"},{"bufferView":169,"componentType":5126,"count":5,"type":"SCALAR","min":[0.0],"max":[1.7]},{"bufferView":170,"componentType":5126,"count":5,"type":"VEC4"},{"bufferView":171,"componentType":5126,"count":5,"type":"SCALAR","min":[0.0],"max":[1.7]},{"bufferView":172,"componentType":5126,"count":5,"type":"VEC4"},{"bufferView":173,"componentType":5126,"count":5,"type":"SCALAR","min":[0.0],"max":[1.7]},{"bufferView":174,"componentType":5126,"count":5,"type":"VEC4"},{"bufferView":175,"componentType":5126,"count":5,"type":"SCALAR","min":[0.0],"max":[1.7]},{"bufferView":176,"componentType":5126,"count":5,"type":"VEC4"},{"bufferView":177,"componentType":5126,"count":5,"type":"SCALAR","min":[0.0],"max":[1.7]},{"bufferView":178,"componentType":5126,"count":5,"type":"VEC4"},{"bufferView":179,"componentType":5126,"count":5,"type":"SCALAR","min":[0.0],"max":[1.7]},{"bufferView":180,"componentType":5126,"count":5,"type":"VEC4"},{"bufferView":181,"componentType":5126,"count":5,"type":"SCALAR","min":[0.0],"max":[1.7]},{"bufferView":182,"componentType":5126,"count":5,"type":"VEC4"},{"bufferView":183,"componentType":5126,"count":5,"type":"SCALAR","min":[0.0],"max":[1.7]},{"bufferView":184,"componentType":5126,"count":5,"type":"VEC4"},{"bufferView":185,"componentType":5126,"count":5,"type":"SCALAR","min":[0.0],"max":[1.7]},{"bufferView":186,"componentType":5126,"count":5,"type":"VEC4"},{"bufferView":187,"componentType":5126,"count":5,"type":"SCALAR","min":[0.0],"max":[1.7]},{"bufferView":188,"componentType":5126,"count":5,"type":"VEC4"},{"bufferView":189,"componentType":5126,"count":5,"type":"SCALAR","min":[0.0],"max":[1.7]},{"bufferView":190,"componentType":5126,"count":5,"type":"VEC4"},{"bufferView":191,"componentType":5126,"count":5,"type":"SCALAR","min":[0.0],"max":[1.7]},{"bufferView":192,"componentType":5126,"count":5,"type":"VEC4"},{"bufferView":193,"componentType":5126,"count":5,"type":"SCALAR","min":[0.0],"max":[1.7]},{"bufferView":194,"componentType":5126,"count":5,"type":"VEC4"},{"bufferView":195,"componentType":5126,"count":5,"type":"SCALAR","min":[0.0],"max":[1.7]},{"bufferView":196,"componentType":5126,"count":5,"type":"VEC4"},{"bufferView":197,"componentType":5126,"count":5,"type":"SCALAR","min":[0.0],"max":[1.7]},{"bufferView":198,"componentType":5126,"count":5,"type":"VEC4"},{"bufferView":199,"componentType":5126,"count":5,"type":"SCALAR","min":[0.0],"max":[1.7]},{"bufferView":200,"componentType":5126,"count":5,"type":"VEC4"},{"bufferView":201,"componentType":5126,"count":5,"type":"SCALAR","min":[0.0],"max":[1.7]},{"bufferView":202,"componentType":5126,"count":5,"type":"VEC4"},{"bufferView":203,"componentType":5126,"count":5,"type":"SCALAR","min":[0.0],"max":[1.7]},{"bufferView":204,"componentType":5126,"count":5,"type":"VEC4"},{"bufferView":205,"componentType":5126,"count":5,"type":"SCALAR","min":[0.0],"max":[1.7]},{"bufferView":206,"componentType":5126,"count":5,"type":"VEC4"},{"bufferView":207,"componentType":5126,"count":5,"type":"SCALAR","min":[0.0],"max":[1.7]},{"bufferView":208,"componentType":5126,"count":5,"type":"VEC4"},{"bufferView":209,"componentType":5126,"count":5,"type":"SCALAR","min":[0.0],"max":[1.7]},{"bufferView":210,"componentType":5126,"count":5,"type":"VEC4"},{"bufferView":211,"componentType":5126,"count":5,"type":"SCALAR","min":[0.0],"max":[1.7]},{"bufferView":212,"componentType":5126,"count":5,"type":"VEC4"},{"bufferView":213,"componentType":5126,"count":5,"type":"SCALAR","min":[0.0],"max":[1.7]},{"bufferView":214,"componentType":5126,"count":5,"type":"VEC4"},{"bufferView":215,"componentType":5126,"count":5,"type":"SCALAR","min":[0.0],"max":[1.7]},{"bufferView":216,"componentType":5126,"count":5,"type":"VEC4"},{"bufferView":217,"componentType":5126,"count":5,"type":"SCALAR","min":[0.0],"max":[1.7]},{"bufferView":218,"componentType":5126,"count":5,"type":"VEC4"},{"bufferView":219,"componentType":5126,"count":5,"type":"SCALAR","min":[0.0],"max":[1.7]},{"bufferView":220,"componentType":5126,"count":5,"type":"VEC4"},{"bufferView":221,"componentType":5126,"count":5,"type":"SCALAR","min":[0.0],"max":[1.7]},{"bufferView":222,"componentType":5126,"count":5,"type":"VEC4"},{"bufferView":223,"componentType":5126,"count":5,"type":"SCALAR","min":[0.0],"max":[1.7]},{"bufferView":224,"componentType":5126,"count":5,"type":"VEC4"},{"bufferView":225,"componentType":5126,"count":5,"type":"SCALAR","min":[0.0],"max":[1.7]},{"bufferView":226,"componentType":5126,"count":5,"type":"VEC4"},{"bufferView":227,"componentType":5126,"count":5,"type":"SCALAR","min":[0.0],"max":[1.7]},{"bufferView":228,"componentType":5126,"count":5,"type":"VEC4"},{"bufferView":229,"componentType":5126,"count":5,"type":"SCALAR","min":[0.0],"max":[1.7]},{"bufferView":230,"componentType":5126,"count":5,"type":"VEC4"},{"bufferView":231,"componentType":5126,"count":5,"type":"SCALAR","min":[0.0],"max":[1.7]},{"bufferView":232,"componentType":5126,"count":5,"type":"VEC4"},{"bufferView":233,"componentType":5126,"count":5,"type":"SCALAR","min":[0.0],"max":[1.7]},{"bufferView":234,"componentType":5126,"count":5,"type":"VEC4"},{"bufferView":235,"componentType":5126,"count":5,"type":"SCALAR","min":[0.0],"max":[1.7]},{"bufferView":236,"componentType":5126,"count":5,"type":"VEC4"},{"bufferView":237,"componentType":5126,"count":5,"type":"SCALAR","min":[0.0],"max":[1.7]},{"bufferView":238,"componentType":5126,"count":5,"type":"VEC4"},{"bufferView":239,"componentType":5126,"count":5,"type":"SCALAR","min":[0.0],"max":[1.7]},{"bufferView":240,"componentType":5126,"count":5,"type":"VEC4"},{"bufferView":241,"componentType":5126,"count":5,"type":"SCALAR","min":[0.0],"max":[1.7]},{"bufferView":242,"componentType":5126,"count":5,"type":"VEC4"},{"bufferView":243,"componentType":5126,"count":5,"type":"SCALAR","min":[0.0],"max":[1.7]},{"bufferView":244,"componentType":5126,"count":5,"type":"VEC4"},{"bufferView":245,"componentType":5126,"count":5,"type":"SCALAR","min":[0.0],"max":[1.7]},{"bufferView":246,"componentType":5126,"count":5,"type":"VEC4"},{"bufferView":247,"componentType":5126,"count":5,"type":"SCALAR","min":[0.0],"max":[1.25]},{"bufferView":248,"componentType":5126,"count":5,"type":"VEC4"},{"bufferView":249,"componentType":5126,"count":5,"type":"SCALAR","min":[0.0],"max":[1.25]},{"bufferView":250,"componentType":5126,"count":5,"type":"VEC4"},{"bufferView":251,"componentType":5126,"count":5,"type":"SCALAR","min":[0.0],"max":[1.25]},{"bufferView":252,"componentType":5126,"count":5,"type":"VEC4"},{"bufferView":253,"componentType":5126,"count":5,"type":"SCALAR","min":[0.0],"max":[1.25]},{"bufferView":254,"componentType":5126,"count":5,"type":"VEC4"},{"bufferView":255,"componentType":5126,"count":5,"type":"SCALAR","min":[0.0],"max":[1.25]},{"bufferView":256,"componentType":5126,"count":5,"type":"VEC4"},{"bufferView":257,"componentType":5126,"count":5,"type":"SCALAR","min":[0.0],"max":[1.25]},{"bufferView":258,"componentType":5126,"count":5,"type":"VEC4"},{"bufferView":259,"componentType":5126,"count":5,"type":"SCALAR","min":[0.0],"max":[1.25]},{"bufferView":260,"componentType":5126,"count":5,"type":"VEC4"},{"bufferView":261,"componentType":5126,"count":5,"type":"SCALAR","min":[0.0],"max":[1.25]},{"bufferView":262,"componentType":5126,"count":5,"type":"VEC4"},{"bufferView":263,"componentType":5126,"count":5,"type":"SCALAR","min":[0.0],"max":[1.25]},{"bufferView":264,"componentType":5126,"count":5,"type":"VEC4"},{"bufferView":265,"componentType":5126,"count":5,"type":"SCALAR","min":[0.0],"max":[1.25]},{"bufferView":266,"componentType":5126,"count":5,"type":"VEC4"},{"bufferView":267,"componentType":5126,"count":5,"type":"SCALAR","min":[0.0],"max":[1.25]},{"bufferView":268,"componentType":5126,"count":5,"type":"VEC4"},{"bufferView":269,"componentType":5126,"count":5,"type":"SCALAR","min":[0.0],"max":[1.25]},{"bufferView":270,"componentType":5126,"count":5,"type":"VEC4"},{"bufferView":271,"componentType":5126,"count":5,"type":"SCALAR","min":[0.0],"max":[1.25]},{"bufferView":272,"componentType":5126,"count":5,"type":"VEC4"},{"bufferView":273,"componentType":5126,"count":5,"type":"SCALAR","min":[0.0],"max":[1.25]},{"bufferView":274,"componentType":5126,"count":5,"type":"VEC4"},{"bufferView":275,"componentType":5126,"count":5,"type":"SCALAR","min":[0.0],"max":[1.25]},{"bufferView":276,"componentType":5126,"count":5,"type":"VEC4"},{"bufferView":277,"componentType":5126,"count":5,"type":"SCALAR","min":[0.0],"max":[1.25]},{"bufferView":278,"componentType":5126,"count":5,"type":"VEC4"},{"bufferView":279,"componentType":5126,"count":5,"type":"SCALAR","min":[0.0],"max":[1.25]},{"bufferView":280,"componentType":5126,"count":5,"type":"VEC4"},{"bufferView":281,"componentType":5126,"count":5,"type":"SCALAR","min":[0.0],"max":[1.25]},{"bufferView":282,"componentType":5126,"count":5,"type":"VEC4"},{"bufferView":283,"componentType":5126,"count":5,"type":"SCALAR","min":[0.0],"max":[1.25]},{"bufferView":284,"componentType":5126,"count":5,"type":"VEC4"},{"bufferView":285,"componentType":5126,"count":5,"type":"SCALAR","min":[0.0],"max":[1.25]},{"bufferView":286,"componentType":5126,"count":5,"type":"VEC4"},{"bufferView":287,"componentType":5126,"count":5,"type":"SCALAR","min":[0.0],"max":[1.25]},{"bufferView":288,"componentType":5126,"count":5,"type":"VEC4"},{"bufferView":289,"componentType":5126,"count":5,"type":"SCALAR","min":[0.0],"max":[1.25]},{"bufferView":290,"componentType":5126,"count":5,"type":"VEC4"},{"bufferView":291,"componentType":5126,"count":5,"type":"SCALAR","min":[0.0],"max":[1.25]},{"bufferView":292,"componentType":5126,"count":5,"type":"VEC4"},{"bufferView":293,"componentType":5126,"count":5,"type":"SCALAR","min":[0.0],"max":[1.25]},{"bufferView":294,"componentType":5126,"count":5,"type":"VEC4"},{"bufferView":295,"componentType":5126,"count":5,"type":"SCALAR","min":[0.0],"max":[0.25]},{"bufferView":296,"componentType":5126,"count":5,"type":"VEC4"},{"bufferView":297,"componentType":5126,"count":5,"type":"SCALAR","min":[0.0],"max":[0.25]},{"bufferView":298,"componentType":5126,"count":5,"type":"VEC4"},{"bufferView":299,"componentType":5126,"count":5,"type":"SCALAR","min":[0.0],"max":[0.25]},{"bufferView":300,"componentType":5126,"count":5,"type":"VEC4"},{"bufferView":301,"componentType":5126,"count":5,"type":"SCALAR","min":[0.0],"max":[0.25]},{"bufferView":302,"componentType":5126,"count":5,"type":"VEC4"},{"bufferView":303,"componentType":5126,"count":5,"type":"SCALAR","min":[0.0],"max":[0.25]},{"bufferView":304,"componentType":5126,"count":5,"type":"VEC4"},{"bufferView":305,"componentType":5126,"count":5,"type":"SCALAR","min":[0.0],"max":[0.25]},{"bufferView":306,"componentType":5126,"count":5,"type":"VEC4"},{"bufferView":307,"componentType":5126,"count":5,"type":"SCALAR","min":[0.0],"max":[0.25]},{"bufferView":308,"componentType":5126,"count":5,"type":"VEC4"},{"bufferView":309,"componentType":5126,"count":5,"type":"SCALAR","min":[0.0],"max":[0.25]},{"bufferView":310,"componentType":5126,"count":5,"type":"VEC4"},{"bufferView":311,"componentType":5126,"count":5,"type":"SCALAR","min":[0.0],"max":[0.25]},{"bufferView":312,"componentType":5126,"count":5,"type":"VEC4"},{"bufferView":313,"componentType":5126,"count":5,"type":"SCALAR","min":[0.0],"max":[0.25]},{"bufferView":314,"componentType":5126,"count":5,"type":"VEC4"},{"bufferView":315,"componentType":5126,"count":5,"type":"SCALAR","min":[0.0],"max":[0.25]},{"bufferView":316,"componentType":5126,"count":5,"type":"VEC4"},{"bufferView":317,"componentType":5126,"count":5,"type":"SCALAR","min":[0.0],"max":[0.25]},{"bufferView":318,"componentType":5126,"count":5,"type":"VEC4"},{"bufferView":319,"componentType":5126,"count":5,"type":"SCALAR","min":[0.0],"max":[0.25]},{"bufferView":320,"componentType":5126,"count":5,"type":"VEC4"},{"bufferView":321,"componentType":5126,"count":5,"type":"SCALAR","min":[0.0],"max":[0.25]},{"bufferView":322,"componentType":5126,"count":5,"type":"VEC4"},{"bufferView":323,"componentType":5126,"count":5,"type":"SCALAR","min":[0.0],"max":[0.25]},{"bufferView":324,"componentType":5126,"count":5,"type":"VEC4"},{"bufferView":325,"componentType":5126,"count":5,"type":"SCALAR","min":[0.0],"max":[0.25]},{"bufferView":326,"componentType":5126,"count":5,"type":"VEC4"},{"bufferView":327,"componentType":5126,"count":5,"type":"SCALAR","min":[0.0],"max":[0.25]},{"bufferView":328,"componentType":5126,"count":5,"type":"VEC4"},{"bufferView":329,"componentType":5126,"count":5,"type":"SCALAR","min":[0.0],"max":[0.25]},{"bufferView":330,"componentType":5126,"count":5,"type":"VEC4"},{"bufferView":331,"componentType":5126,"count":5,"type":"SCALAR","min":[0.0],"max":[0.25]},{"bufferView":332,"componentType":5126,"count":5,"type":"VEC4"},{"bufferView":333,"componentType":5126,"count":5,"type":"SCALAR","min":[0.0],"max":[0.25]},{"bufferView":334,"componentType":5126,"count":5,"type":"VEC4"},{"bufferView":335,"componentType":5126,"count":5,"type":"SCALAR","min":[0.0],"max":[0.25]},{"bufferView":336,"componentType":5126,"count":5,"type":"VEC4"},{"bufferView":337,"componentType":5126,"count":5,"type":"SCALAR","min":[0.0],"max":[0.25]},{"bufferView":338,"componentType":5126,"count":5,"type":"VEC4"},{"bufferView":339,"componentType":5126,"count":5,"type":"SCALAR","min":[0.0],"max":[0.25]},{"bufferView":340,"componentType":5126,"count":5,"type":"VEC4"},{"bufferView":341,"componentType":5126,"count":5,"type":"SCALAR","min":[0.0],"max":[0.25]},{"bufferView":342,"componentType":5126,"count":5,"type":"VEC4"},{"bufferView":343,"componentType":5126,"count":5,"type":"SCALAR","min":[0.0],"max":[0.35]},{"bufferView":344,"componentType":5126,"count":5,"type":"VEC4"},{"bufferView":345,"componentType":5126,"count":5,"type":"SCALAR","min":[0.0],"max":[0.35]},{"bufferView":346,"componentType":5126,"count":5,"type":"VEC4"},{"bufferView":347,"componentType":5126,"count":5,"type":"SCALAR","min":[0.0],"max":[0.35]},{"bufferView":348,"componentType":5126,"count":5,"type":"VEC4"},{"bufferView":349,"componentType":5126,"count":5,"type":"SCALAR","min":[0.0],"max":[0.35]},{"bufferView":350,"componentType":5126,"count":5,"type":"VEC4"},{"bufferView":351,"componentType":5126,"count":5,"type":"SCALAR","min":[0.0],"max":[0.35]},{"bufferView":352,"componentType":5126,"count":5,"type":"VEC4"},{"bufferView":353,"componentType":5126,"count":5,"type":"SCALAR","min":[0.0],"max":[0.35]},{"bufferView":354,"componentType":5126,"count":5,"type":"VEC4"},{"bufferView":355,"componentType":5126,"count":5,"type":"SCALAR","min":[0.0],"max":[0.35]},{"bufferView":356,"componentType":5126,"count":5,"type":"VEC4"},{"bufferView":357,"componentType":5126,"count":5,"type":"SCALAR","min":[0.0],"max":[0.35]},{"bufferView":358,"componentType":5126,"count":5,"type":"VEC4"},{"bufferView":359,"componentType":5126,"count":5,"type":"SCALAR","min":[0.0],"max":[0.35]},{"bufferView":360,"componentType":5126,"count":5,"type":"VEC4"},{"bufferView":361,"componentType":5126,"count":5,"type":"SCALAR","min":[0.0],"max":[0.35]},{"bufferView":362,"componentType":5126,"count":5,"type":"VEC4"},{"bufferView":363,"componentType":5126,"count":5,"type":"SCALAR","min":[0.0],"max":[0.35]},{"bufferView":364,"componentType":5126,"count":5,"type":"VEC4"},{"bufferView":365,"componentType":5126,"count":5,"type":"SCALAR","min":[0.0],"max":[0.35]},{"bufferView":366,"componentType":5126,"count":5,"type":"VEC4"},{"bufferView":367,"componentType":5126,"count":5,"type":"SCALAR","min":[0.0],"max":[0.35]},{"bufferView":368,"componentType":5126,"count":5,"type":"VEC4"},{"bufferView":369,"componentType":5126,"count":5,"type":"SCALAR","min":[0.0],"max":[0.35]},{"bufferView":370,"componentType":5126,"count":5,"type":"VEC4"},{"bufferView":371,"componentType":5126,"count":5,"type":"SCALAR","min":[0.0],"max":[0.35]},{"bufferView":372,"componentType":5126,"count":5,"type":"VEC4"},{"bufferView":373,"componentType":5126,"count":5,"type":"SCALAR","min":[0.0],"max":[0.35]},{"bufferView":374,"componentType":5126,"count":5,"type":"VEC4"},{"bufferView":375,"componentType":5126,"count":5,"type":"SCALAR","min":[0.0],"max":[0.35]},{"bufferView":376,"componentType":5126,"count":5,"type":"VEC4"},{"bufferView":377,"componentType":5126,"count":5,"type":"SCALAR","min":[0.0],"max":[0.35]},{"bufferView":378,"componentType":5126,"count":5,"type":"VEC4"},{"bufferView":379,"componentType":5126,"count":5,"type":"SCALAR","min":[0.0],"max":[0.35]},{"bufferView":380,"componentType":5126,"count":5,"type":"VEC4"},{"bufferView":381,"componentType":5126,"count":5,"type":"SCALAR","min":[0.0],"max":[0.35]},{"bufferView":382,"componentType":5126,"count":5,"type":"VEC4"},{"bufferView":383,"componentType":5126,"count":5,"type":"SCALAR","min":[0.0],"max":[0.35]},{"bufferView":384,"componentType":5126,"count":5,"type":"VEC4"},{"bufferView":385,"componentType":5126,"count":5,"type":"SCALAR","min":[0.0],"max":[0.35]},{"bufferView":386,"componentType":5126,"count":5,"type":"VEC4"},{"bufferView":387,"componentType":5126,"count":5,"type":"SCALAR","min":[0.0],"max":[0.35]},{"bufferView":388,"componentType":5126,"count":5,"type":"VEC4"},{"bufferView":389,"componentType":5126,"count":5,"type":"SCALAR","min":[0.0],"max":[0.35]},{"bufferView":390,"componentType":5126,"count":5,"type":"VEC4"},{"bufferView":391,"componentType":5126,"count":5,"type":"SCALAR","min":[0.0],"max":[0.4]},{"bufferView":392,"componentType":5126,"count":5,"type":"VEC4"},{"bufferView":393,"componentType":5126,"count":5,"type":"SCALAR","min":[0.0],"max":[0.4]},{"bufferView":394,"componentType":5126,"count":5,"type":"VEC4"},{"bufferView":395,"componentType":5126,"count":5,"type":"SCALAR","min":[0.0],"max":[0.4]},{"bufferView":396,"componentType":5126,"count":5,"type":"VEC4"},{"bufferView":397,"componentType":5126,"count":5,"type":"SCALAR","min":[0.0],"max":[0.4]},{"bufferView":398,"componentType":5126,"count":5,"type":"VEC4"},{"bufferView":399,"componentType":5126,"count":5,"type":"SCALAR","min":[0.0],"max":[0.4]},{"bufferView":400,"componentType":5126,"count":5,"type":"VEC4"},{"bufferView":401,"componentType":5126,"count":5,"type":"SCALAR","min":[0.0],"max":[0.4]},{"bufferView":402,"componentType":5126,"count":5,"type":"VEC4"},{"bufferView":403,"componentType":5126,"count":5,"type":"SCALAR","min":[0.0],"max":[0.4]},{"bufferView":404,"componentType":5126,"count":5,"type":"VEC4"},{"bufferView":405,"componentType":5126,"count":5,"type":"SCALAR","min":[0.0],"max":[0.4]},{"bufferView":406,"componentType":5126,"count":5,"type":"VEC4"},{"bufferView":407,"componentType":5126,"count":5,"type":"SCALAR","min":[0.0],"max":[0.4]},{"bufferView":408,"componentType":5126,"count":5,"type":"VEC4"},{"bufferView":409,"componentType":5126,"count":5,"type":"SCALAR","min":[0.0],"max":[0.4]},{"bufferView":410,"componentType":5126,"count":5,"type":"VEC4"},{"bufferView":411,"componentType":5126,"count":5,"type":"SCALAR","min":[0.0],"max":[0.4]},{"bufferView":412,"componentType":5126,"count":5,"type":"VEC4"},{"bufferView":413,"componentType":5126,"count":5,"type":"SCALAR","min":[0.0],"max":[0.4]},{"bufferView":414,"componentType":5126,"count":5,"type":"VEC4"},{"bufferView":415,"componentType":5126,"count":5,"type":"SCALAR","min":[0.0],"max":[0.4]},{"bufferView":416,"componentType":5126,"count":5,"type":"VEC4"},{"bufferView":417,"componentType":5126,"count":5,"type":"SCALAR","min":[0.0],"max":[0.4]},{"bufferView":418,"componentType":5126,"count":5,"type":"VEC4"},{"bufferView":419,"componentType":5126,"count":5,"type":"SCALAR","min":[0.0],"max":[0.4]},{"bufferView":420,"componentType":5126,"count":5,"type":"VEC4"},{"bufferView":421,"componentType":5126,"count":5,"type":"SCALAR","min":[0.0],"max":[0.4]},{"bufferView":422,"componentType":5126,"count":5,"type":"VEC4"},{"bufferView":423,"componentType":5126,"count":5,"type":"SCALAR","min":[0.0],"max":[0.4]},{"bufferView":424,"componentType":5126,"count":5,"type":"VEC4"},{"bufferView":425,"componentType":5126,"count":5,"type":"SCALAR","min":[0.0],"max":[0.4]},{"bufferView":426,"componentType":5126,"count":5,"type":"VEC4"},{"bufferView":427,"componentType":5126,"count":5,"type":"SCALAR","min":[0.0],"max":[0.4]},{"bufferView":428,"componentType":5126,"count":5,"type":"VEC4"},{"bufferView":429,"componentType":5126,"count":5,"type":"SCALAR","min":[0.0],"max":[0.4]},{"bufferView":430,"componentType":5126,"count":5,"type":"VEC4"},{"bufferView":431,"componentType":5126,"count":5,"type":"SCALAR","min":[0.0],"max":[0.4]},{"bufferView":432,"componentType":5126,"count":5,"type":"VEC4"},{"bufferView":433,"componentType":5126,"count":5,"type":"SCALAR","min":[0.0],"max":[0.4]},{"bufferView":434,"componentType":5126,"count":5,"type":"VEC4"},{"bufferView":435,"componentType":5126,"count":5,"type":"SCALAR","min":[0.0],"max":[0.4]},{"bufferView":436,"componentType":5126,"count":5,"type":"VEC4"},{"bufferView":437,"componentType":5126,"count":5,"type":"SCALAR","min":[0.0],"max":[0.4]},{"bufferView":438,"componentType":5126,"count":5,"type":"VEC4"},{"bufferView":439,"componentType":5126,"count":5,"type":"SCALAR","min":[0.0],"max":[0.8]},{"bufferView":440,"componentType":5126,"count":5,"type":"VEC4"},{"bufferView":441,"componentType":5126,"count":5,"type":"SCALAR","min":[0.0],"max":[0.8]},{"bufferView":442,"componentType":5126,"count":5,"type":"VEC4"},{"bufferView":443,"componentType":5126,"count":5,"type":"SCALAR","min":[0.0],"max":[0.8]},{"bufferView":444,"componentType":5126,"count":5,"type":"VEC4"},{"bufferView":445,"componentType":5126,"count":5,"type":"SCALAR","min":[0.0],"max":[0.8]},{"bufferView":446,"componentType":5126,"count":5,"type":"VEC4"},{"bufferView":447,"componentType":5126,"count":5,"type":"SCALAR","min":[0.0],"max":[0.8]},{"bufferView":448,"componentType":5126,"count":5,"type":"VEC4"},{"bufferView":449,"componentType":5126,"count":5,"type":"SCALAR","min":[0.0],"max":[0.8]},{"bufferView":450,"componentType":5126,"count":5,"type":"VEC4"},{"bufferView":451,"componentType":5126,"count":5,"type":"SCALAR","min":[0.0],"max":[0.8]},{"bufferView":452,"componentType":5126,"count":5,"type":"VEC4"},{"bufferView":453,"componentType":5126,"count":5,"type":"SCALAR","min":[0.0],"max":[0.8]},{"bufferView":454,"componentType":5126,"count":5,"type":"VEC4"},{"bufferView":455,"componentType":5126,"count":5,"type":"SCALAR","min":[0.0],"max":[0.8]},{"bufferView":456,"componentType":5126,"count":5,"type":"VEC4"},{"bufferView":457,"componentType":5126,"count":5,"type":"SCALAR","min":[0.0],"max":[0.8]},{"bufferView":458,"componentType":5126,"count":5,"type":"VEC4"},{"bufferView":459,"componentType":5126,"count":5,"type":"SCALAR","min":[0.0],"max":[0.8]},{"bufferView":460,"componentType":5126,"count":5,"type":"VEC4"},{"bufferView":461,"componentType":5126,"count":5,"type":"SCALAR","min":[0.0],"max":[0.8]},{"bufferView":462,"componentType":5126,"count":5,"type":"VEC4"},{"bufferView":463,"componentType":5126,"count":5,"type":"SCALAR","min":[0.0],"max":[0.8]},{"bufferView":464,"componentType":5126,"count":5,"type":"VEC4"},{"bufferView":465,"componentType":5126,"count":5,"type":"SCALAR","min":[0.0],"max":[0.8]},{"bufferView":466,"componentType":5126,"count":5,"type":"VEC4"},{"bufferView":467,"componentType":5126,"count":5,"type":"SCALAR","min":[0.0],"max":[0.8]},{"bufferView":468,"componentType":5126,"count":5,"type":"VEC4"},{"bufferView":469,"componentType":5126,"count":5,"type":"SCALAR","min":[0.0],"max":[0.8]},{"bufferView":470,"componentType":5126,"count":5,"type":"VEC4"},{"bufferView":471,"componentType":5126,"count":5,"type":"SCALAR","min":[0.0],"max":[0.8]},{"bufferView":472,"componentType":5126,"count":5,"type":"VEC4"},{"bufferView":473,"componentType":5126,"count":5,"type":"SCALAR","min":[0.0],"max":[0.8]},{"bufferView":474,"componentType":5126,"count":5,"type":"VEC4"},{"bufferView":475,"componentType":5126,"count":5,"type":"SCALAR","min":[0.0],"max":[0.8]},{"bufferView":476,"componentType":5126,"count":5,"type":"VEC4"},{"bufferView":477,"componentType":5126,"count":5,"type":"SCALAR","min":[0.0],"max":[0.8]},{"bufferView":478,"componentType":5126,"count":5,"type":"VEC4"},{"bufferView":479,"componentType":5126,"count":5,"type":"SCALAR","min":[0.0],"max":[0.8]},{"bufferView":480,"componentType":5126,"count":5,"type":"VEC4"},{"bufferView":481,"componentType":5126,"count":5,"type":"SCALAR","min":[0.0],"max":[0.8]},{"bufferView":482,"componentType":5126,"count":5,"type":"VEC4"},{"bufferView":483,"componentType":5126,"count":5,"type":"SCALAR","min":[0.0],"max":[0.8]},{"bufferView":484,"componentType":5126,"count":5,"type":"VEC4"},{"bufferView":485,"componentType":5126,"count":5,"type":"SCALAR","min":[0.0],"max":[0.8]},{"bufferView":486,"componentType":5126,"count":5,"type":"VEC4"},{"bufferView":487,"componentType":5126,"count":5,"type":"SCALAR","min":[0.0],"max":[1.2]},{"bufferView":488,"componentType":5126,"count":5,"type":"VEC4"},{"bufferView":489,"componentType":5126,"count":5,"type":"SCALAR","min":[0.0],"max":[1.2]},{"bufferView":490,"componentType":5126,"count":5,"type":"VEC4"},{"bufferView":491,"componentType":5126,"count":5,"type":"SCALAR","min":[0.0],"max":[1.2]},{"bufferView":492,"componentType":5126,"count":5,"type":"VEC4"},{"bufferView":493,"componentType":5126,"count":5,"type":"SCALAR","min":[0.0],"max":[1.2]},{"bufferView":494,"componentType":5126,"count":5,"type":"VEC4"},{"bufferView":495,"componentType":5126,"count":5,"type":"SCALAR","min":[0.0],"max":[1.2]},{"bufferView":496,"componentType":5126,"count":5,"type":"VEC4"},{"bufferView":497,"componentType":5126,"count":5,"type":"SCALAR","min":[0.0],"max":[1.2]},{"bufferView":498,"componentType":5126,"count":5,"type":"VEC4"},{"bufferView":499,"componentType":5126,"count":5,"type":"SCALAR","min":[0.0],"max":[1.2]},{"bufferView":500,"componentType":5126,"count":5,"type":"VEC4"},{"bufferView":501,"componentType":5126,"count":5,"type":"SCALAR","min":[0.0],"max":[1.2]},{"bufferView":502,"componentType":5126,"count":5,"type":"VEC4"},{"bufferView":503,"componentType":5126,"count":5,"type":"SCALAR","min":[0.0],"max":[1.2]},{"bufferView":504,"componentType":5126,"count":5,"type":"VEC4"},{"bufferView":505,"componentType":5126,"count":5,"type":"SCALAR","min":[0.0],"max":[1.2]},{"bufferView":506,"componentType":5126,"count":5,"type":"VEC4"},{"bufferView":507,"componentType":5126,"count":5,"type":"SCALAR","min":[0.0],"max":[1.2]},{"bufferView":508,"componentType":5126,"count":5,"type":"VEC4"},{"bufferView":509,"componentType":5126,"count":5,"type":"SCALAR","min":[0.0],"max":[1.2]},{"bufferView":510,"componentType":5126,"count":5,"type":"VEC4"},{"bufferView":511,"componentType":5126,"count":5,"type":"SCALAR","min":[0.0],"max":[1.2]},{"bufferView":512,"componentType":5126,"count":5,"type":"VEC4"},{"bufferView":513,"componentType":5126,"count":5,"type":"SCALAR","min":[0.0],"max":[1.2]},{"bufferView":514,"componentType":5126,"count":5,"type":"VEC4"},{"bufferView":515,"componentType":5126,"count":5,"type":"SCALAR","min":[0.0],"max":[1.2]},{"bufferView":516,"componentType":5126,"count":5,"type":"VEC4"},{"bufferView":517,"componentType":5126,"count":5,"type":"SCALAR","min":[0.0],"max":[1.2]},{"bufferView":518,"componentType":5126,"count":5,"type":"VEC4"},{"bufferView":519,"componentType":5126,"count":5,"type":"SCALAR","min":[0.0],"max":[1.2]},{"bufferView":520,"componentType":5126,"count":5,"type":"VEC4"},{"bufferView":521,"componentType":5126,"count":5,"type":"SCALAR","min":[0.0],"max":[1.2]},{"bufferView":522,"componentType":5126,"count":5,"type":"VEC4"},{"bufferView":523,"componentType":5126,"count":5,"type":"SCALAR","min":[0.0],"max":[1.2]},{"bufferView":524,"componentType":5126,"count":5,"type":"VEC4"},{"bufferView":525,"componentType":5126,"count":5,"type":"SCALAR","min":[0.0],"max":[1.2]},{"bufferView":526,"componentType":5126,"count":5,"type":"VEC4"},{"bufferView":527,"componentType":5126,"count":5,"type":"SCALAR","min":[0.0],"max":[1.2]},{"bufferView":528,"componentType":5126,"count":5,"type":"VEC4"},{"bufferView":529,"componentType":5126,"count":5,"type":"SCALAR","min":[0.0],"max":[1.2]},{"bufferView":530,"componentType":5126,"count":5,"type":"VEC4"},{"bufferView":531,"componentType":5126,"count":5,"type":"SCALAR","min":[0.0],"max":[1.2]},{"bufferView":532,"componentType":5126,"count":5,"type":"VEC4"},{"bufferView":533,"componentType":5126,"count":5,"type":"SCALAR","min":[0.0],"max":[1.2]},{"bufferView":534,"componentType":5126,"count":5,"type":"VEC4"}],"animations":[{"name":"idle","samplers":[{"input":7,"output":8,"interpolation":"LINEAR"},{"input":9,"output":10,"interpolation":"LINEAR"},{"input":11,"output":12,"interpolation":"LINEAR"},{"input":13,"output":14,"interpolation":"LINEAR"},{"input":15,"output":16,"interpolation":"LINEAR"},{"input":17,"output":18,"interpolation":"LINEAR"},{"input":19,"output":20,"interpolation":"LINEAR"},{"input":21,"output":22,"interpolation":"LINEAR"},{"input":23,"output":24,"interpolation":"LINEAR"},{"input":25,"output":26,"interpolation":"LINEAR"},{"input":27,"output":28,"interpolation":"LINEAR"},{"input":29,"output":30,"interpolation":"LINEAR"},{"input":31,"output":32,"interpolation":"LINEAR"},{"input":33,"output":34,"interpolation":"LINEAR"},{"input":35,"output":36,"interpolation":"LINEAR"},{"input":37,"output":38,"interpolation":"LINEAR"},{"input":39,"output":40,"interpolation":"LINEAR"},{"input":41,"output":42,"interpolation":"LINEAR"},{"input":43,"output":44,"interpolation":"LINEAR"},{"input":45,"output":46,"interpolation":"LINEAR"},{"input":47,"output":48,"interpolation":"LINEAR"},{"input":49,"output":50,"interpolation":"LINEAR"},{"input":51,"output":52,"interpolation":"LINEAR"},{"input":53,"output":54,"interpolation":"LINEAR"}],"channels":[{"sampler":0,"target":{"node":0,"path":"rotation"}},{"sampler":1,"target":{"node":1,"path":"rotation"}},{"sampler":2,"target":{"node":2,"path":"rotation"}},{"sampler":3,"target":{"node":3,"path":"rotation"}},{"sampler":4,"target":{"node":4,"path":"rotation"}},{"sampler":5,"target":{"node":5,"path":"rotation"}},{"sampler":6,"target":{"node":6,"path":"rotation"}},{"sampler":7,"target":{"node":7,"path":"rotation"}},{"sampler":8,"target":{"node":8,"path":"rotation"}},{"sampler":9,"target":{"node":9,"path":"rotation"}},{"sampler":10,"target":{"node":10,"path":"rotation"}},{"sampler":11,"target":{"node":11,"path":"rotation"}},{"sampler":12,"target":{"node":12,"path":"rotation"}},{"sampler":13,"target":{"node":13,"path":"rotation"}},{"sampler":14,"target":{"node":14,"path":"rotation"}},{"sampler":15,"target":{"node":15,"path":"rotation"}},{"sampler":16,"target":{"node":16,"path":"rotation"}},{"sampler":17,"target":{"node":17,"path":"rotation"}},{"sampler":18,"target":{"node":18,"path":"rotation"}},{"sampler":19,"target":{"node":19,"path":"rotation"}},{"sampler":20,"target":{"node":20,"path":"rotation"}},{"sampler":21,"target":{"node":21,"path":"rotation"}},{"sampler":22,"target":{"node":22,"path":"rotation"}},{"sampler":23,"target":{"node":23,"path":"rotation"}}]},{"name":"walk","samplers":[{"input":55,"output":56,"interpolation":"LINEAR"},{"input":57,"output":58,"interpolation":"LINEAR"},{"input":59,"output":60,"interpolation":"LINEAR"},{"input":61,"output":62,"interpolation":"LINEAR"},{"input":63,"output":64,"interpolation":"LINEAR"},{"input":65,"output":66,"interpolation":"LINEAR"},{"input":67,"output":68,"interpolation":"LINEAR"},{"input":69,"output":70,"interpolation":"LINEAR"},{"input":71,"output":72,"interpolation":"LINEAR"},{"input":73,"output":74,"interpolation":"LINEAR"},{"input":75,"output":76,"interpolation":"LINEAR"},{"input":77,"output":78,"interpolation":"LINEAR"},{"input":79,"output":80,"interpolation":"LINEAR"},{"input":81,"output":82,"interpolation":"LINEAR"},{"input":83,"output":84,"interpolation":"LINEAR"},{"input":85,"output":86,"interpolation":"LINEAR"},{"input":87,"output":88,"interpolation":"LINEAR"},{"input":89,"output":90,"interpolation":"LINEAR"},{"input":91,"output":92,"interpolation":"LINEAR"},{"input":93,"output":94,"interpolation":"LINEAR"},{"input":95,"output":96,"interpolation":"LINEAR"},{"input":97,"output":98,"interpolation":"LINEAR"},{"input":99,"output":100,"interpolation":"LINEAR"},{"input":101,"output":102,"interpolation":"LINEAR"}],"channels":[{"sampler":0,"target":{"node":0,"path":"rotation"}},{"sampler":1,"target":{"node":1,"path":"rotation"}},{"sampler":2,"target":{"node":2,"path":"rotation"}},{"sampler":3,"target":{"node":3,"path":"rotation"}},{"sampler":4,"target":{"node":4,"path":"rotation"}},{"sampler":5,"target":{"node":5,"path":"rotation"}},{"sampler":6,"target":{"node":6,"path":"rotation"}},{"sampler":7,"target":{"node":7,"path":"rotation"}},{"sampler":8,"target":{"node":8,"path":"rotation"}},{"sampler":9,"target":{"node":9,"path":"rotation"}},{"sampler":10,"target":{"node":10,"path":"rotation"}},{"sampler":11,"target":{"node":11,"path":"rotation"}},{"sampler":12,"target":{"node":12,"path":"rotation"}},{"sampler":13,"target":{"node":13,"path":"rotation"}},{"sampler":14,"target":{"node":14,"path":"rotation"}},{"sampler":15,"target":{"node":15,"path":"rotation"}},{"sampler":16,"target":{"node":16,"path":"rotation"}},{"sampler":17,"target":{"node":17,"path":"rotation"}},{"sampler":18,"target":{"node":18,"path":"rotation"}},{"sampler":19,"target":{"node":19,"path":"rotation"}},{"sampler":20,"target":{"node":20,"path":"rotation"}},{"sampler":21,"target":{"node":21,"path":"rotation"}},{"sampler":22,"target":{"node":22,"path":"rotation"}},{"sampler":23,"target":{"node":23,"path":"rotation"}}]},{"name":"run","samplers":[{"input":103,"output":104,"interpolation":"LINEAR"},{"input":105,"output":106,"interpolation":"LINEAR"},{"input":107,"output":108,"interpolation":"LINEAR"},{"input":109,"output":110,"interpolation":"LINEAR"},{"input":111,"output":112,"interpolation":"LINEAR"},{"input":113,"output":114,"interpolation":"LINEAR"},{"input":115,"output":116,"interpolation":"LINEAR"},{"input":117,"output":118,"interpolation":"LINEAR"},{"input":119,"output":120,"interpolation":"LINEAR"},{"input":121,"output":122,"interpolation":"LINEAR"},{"input":123,"output":124,"interpolation":"LINEAR"},{"input":125,"output":126,"interpolation":"LINEAR"},{"input":127,"output":128,"interpolation":"LINEAR"},{"input":129,"output":130,"interpolation":"LINEAR"},{"input":131,"output":132,"interpolation":"LINEAR"},{"input":133,"output":134,"interpolation":"LINEAR"},{"input":135,"output":136,"interpolation":"LINEAR"},{"input":137,"output":138,"interpolation":"LINEAR"},{"input":139,"output":140,"interpolation":"LINEAR"},{"input":141,"output":142,"interpolation":"LINEAR"},{"input":143,"output":144,"interpolation":"LINEAR"},{"input":145,"output":146,"interpolation":"LINEAR"},{"input":147,"output":148,"interpolation":"LINEAR"},{"input":149,"output":150,"interpolation":"LINEAR"}],"channels":[{"sampler":0,"target":{"node":0,"path":"rotation"}},{"sampler":1,"target":{"node":1,"path":"rotation"}},{"sampler":2,"target":{"node":2,"path":"rotation"}},{"sampler":3,"target":{"node":3,"path":"rotation"}},{"sampler":4,"target":{"node":4,"path":"rotation"}},{"sampler":5,"target":{"node":5,"path":"rotation"}},{"sampler":6,"target":{"node":6,"path":"rotation"}},{"sampler":7,"target":{"node":7,"path":"rotation"}},{"sampler":8,"target":{"node":8,"path":"rotation"}},{"sampler":9,"target":{"node":9,"path":"rotation"}},{"sampler":10,"target":{"node":10,"path":"rotation"}},{"sampler":11,"target":{"node":11,"path":"rotation"}},{"sampler":12,"target":{"node":12,"path":"rotation"}},{"sampler":13,"target":{"node":13,"path":"rotation"}},{"sampler":14,"target":{"node":14,"path":"rotation"}},{"sampler":15,"target":{"node":15,"path":"rotation"}},{"sampler":16,"target":{"node":16,"path":"rotation"}},{"sampler":17,"target":{"node":17,"path":"rotation"}},{"sampler":18,"target":{"node":18,"path":"rotation"}},{"sampler":19,"target":{"node":19,"path":"rotation"}},{"sampler":20,"target":{"node":20,"path":"rotation"}},{"sampler":21,"target":{"node":21,"path":"rotation"}},{"sampler":22,"target":{"node":22,"path":"rotation"}},{"sampler":23,"target":{"node":23,"path":"rotation"}}]},{"name":"attack_a","samplers":[{"input":151,"output":152,"interpolation":"LINEAR"},{"input":153,"output":154,"interpolation":"LINEAR"},{"input":155,"output":156,"interpolation":"LINEAR"},{"input":157,"output":158,"interpolation":"LINEAR"},{"input":159,"output":160,"interpolation":"LINEAR"},{"input":161,"output":162,"interpolation":"LINEAR"},{"input":163,"output":164,"interpolation":"LINEAR"},{"input":165,"output":166,"interpolation":"LINEAR"},{"input":167,"output":168,"interpolation":"LINEAR"},{"input":169,"output":170,"interpolation":"LINEAR"},{"input":171,"output":172,"interpolation":"LINEAR"},{"input":173,"output":174,"interpolation":"LINEAR"},{"input":175,"output":176,"interpolation":"LINEAR"},{"input":177,"output":178,"interpolation":"LINEAR"},{"input":179,"output":180,"interpolation":"LINEAR"},{"input":181,"output":182,"interpolation":"LINEAR"},{"input":183,"output":184,"interpolation":"LINEAR"},{"input":185,"output":186,"interpolation":"LINEAR"},{"input":187,"output":188,"interpolation":"LINEAR"},{"input":189,"output":190,"interpolation":"LINEAR"},{"input":191,"output":192,"interpolation":"LINEAR"},{"input":193,"output":194,"interpolation":"LINEAR"},{"input":195,"output":196,"interpolation":"LINEAR"},{"input":197,"output":198,"interpolation":"LINEAR"}],"channels":[{"sampler":0,"target":{"node":0,"path":"rotation"}},{"sampler":1,"target":{"node":1,"path":"rotation"}},{"sampler":2,"target":{"node":2,"path":"rotation"}},{"sampler":3,"target":{"node":3,"path":"rotation"}},{"sampler":4,"target":{"node":4,"path":"rotation"}},{"sampler":5,"target":{"node":5,"path":"rotation"}},{"sampler":6,"target":{"node":6,"path":"rotation"}},{"sampler":7,"target":{"node":7,"path":"rotation"}},{"sampler":8,"target":{"node":8,"path":"rotation"}},{"sampler":9,"target":{"node":9,"path":"rotation"}},{"sampler":10,"target":{"node":10,"path":"rotation"}},{"sampler":11,"target":{"node":11,"path":"rotation"}},{"sampler":12,"target":{"node":12,"path":"rotation"}},{"sampler":13,"target":{"node":13,"path":"rotation"}},{"sampler":14,"target":{"node":14,"path":"rotation"}},{"sampler":15,"target":{"node":15,"path":"rotation"}},{"sampler":16,"target":{"node":16,"path":"rotation"}},{"sampler":17,"target":{"node":17,"path":"rotation"}},{"sampler":18,"target":{"node":18,"path":"rotation"}},{"sampler":19,"target":{"node":19,"path":"rotation"}},{"sampler":20,"target":{"node":20,"path":"rotation"}},{"sampler":21,"target":{"node":21,"path":"rotation"}},{"sampler":22,"target":{"node":22,"path":"rotation"}},{"sampler":23,"target":{"node":23,"path":"rotation"}}]},{"name":"attack_b","samplers":[{"input":199,"output":200,"interpolation":"LINEAR"},{"input":201,"output":202,"interpolation":"LINEAR"},{"input":203,"output":204,"interpolation":"LINEAR"},{"input":205,"output":206,"interpolation":"LINEAR"},{"input":207,"output":208,"interpolation":"LINEAR"},{"input":209,"output":210,"interpolation":"LINEAR"},{"input":211,"output":212,"interpolation":"LINEAR"},{"input":213,"output":214,"interpolation":"LINEAR"},{"input":215,"output":216,"interpolation":"LINEAR"},{"input":217,"output":218,"interpolation":"LINEAR"},{"input":219,"output":220,"interpolation":"LINEAR"},{"input":221,"output":222,"interpolation":"LINEAR"},{"input":223,"output":224,"interpolation":"LINEAR"},{"input":225,"output":226,"interpolation":"LINEAR"},{"input":227,"output":228,"interpolation":"LINEAR"},{"input":229,"output":230,"interpolation":"LINEAR"},{"input":231,"output":232,"interpolation":"LINEAR"},{"input":233,"output":234,"interpolation":"LINEAR"},{"input":235,"output":236,"interpolation":"LINEAR"},{"input":237,"output":238,"interpolation":"LINEAR"},{"input":239,"output":240,"interpolation":"LINEAR"},{"input":241,"output":242,"interpolation":"LINEAR"},{"input":243,"output":244,"interpolation":"LINEAR"},{"input":245,"output":246,"interpolation":"LINEAR"}],"channels":[{"sampler":0,"target":{"node":0,"path":"rotation"}},{"sampler":1,"target":{"node":1,"path":"rotation"}},{"sampler":2,"target":{"node":2,"path":"rotation"}},{"sampler":3,"target":{"node":3,"path":"rotation"}},{"sampler":4,"target":{"node":4,"path":"rotation"}},{"sampler":5,"target":{"node":5,"path":"rotation"}},{"sampler":6,"target":{"node":6,"path":"rotation"}},{"sampler":7,"target":{"node":7,"path":"rotation"}},{"sampler":8,"target":{"node":8,"path":"rotation"}},{"sampler":9,"target":{"node":9,"path":"rotation"}},{"sampler":10,"target":{"node":10,"path":"rotation"}},{"sampler":11,"target":{"node":11,"path":"rotation"}},{"sampler":12,"target":{"node":12,"path":"rotation"}},{"sampler":13,"target":{"node":13,"path":"rotation"}},{"sampler":14,"target":{"node":14,"path":"rotation"}},{"sampler":15,"target":{"node":15,"path":"rotation"}},{"sampler":16,"target":{"node":16,"path":"rotation"}},{"sampler":17,"target":{"node":17,"path":"rotation"}},{"sampler":18,"target":{"node":18,"path":"rotation"}},{"sampler":19,"target":{"node":19,"path":"rotation"}},{"sampler":20,"target":{"node":20,"path":"rotation"}},{"sampler":21,"target":{"node":21,"path":"rotation"}},{"sampler":22,"target":{"node":22,"path":"rotation"}},{"sampler":23,"target":{"node":23,"path":"rotation"}}]},{"name":"shoot","samplers":[{"input":247,"output":248,"interpolation":"LINEAR"},{"input":249,"output":250,"interpolation":"LINEAR"},{"input":251,"output":252,"interpolation":"LINEAR"},{"input":253,"output":254,"interpolation":"LINEAR"},{"input":255,"output":256,"interpolation":"LINEAR"},{"input":257,"output":258,"interpolation":"LINEAR"},{"input":259,"output":260,"interpolation":"LINEAR"},{"input":261,"output":262,"interpolation":"LINEAR"},{"input":263,"output":264,"interpolation":"LINEAR"},{"input":265,"output":266,"interpolation":"LINEAR"},{"input":267,"output":268,"interpolation":"LINEAR"},{"input":269,"output":270,"interpolation":"LINEAR"},{"input":271,"output":272,"interpolation":"LINEAR"},{"input":273,"output":274,"interpolation":"LINEAR"},{"input":275,"output":276,"interpolation":"LINEAR"},{"input":277,"output":278,"interpolation":"LINEAR"},{"input":279,"output":280,"interpolation":"LINEAR"},{"input":281,"output":282,"interpolation":"LINEAR"},{"input":283,"output":284,"interpolation":"LINEAR"},{"input":285,"output":286,"interpolation":"LINEAR"},{"input":287,"output":288,"interpolation":"LINEAR"},{"input":289,"output":290,"interpolation":"LINEAR"},{"input":291,"output":292,"interpolation":"LINEAR"},{"input":293,"output":294,"interpolation":"LINEAR"}],"channels":[{"sampler":0,"target":{"node":0,"path":"rotation"}},{"sampler":1,"target":{"node":1,"path":"rotation"}},{"sampler":2,"target":{"node":2,"path":"rotation"}},{"sampler":3,"target":{"node":3,"path":"rotation"}},{"sampler":4,"target":{"node":4,"path":"rotation"}},{"sampler":5,"target":{"node":5,"path":"rotation"}},{"sampler":6,"target":{"node":6,"path":"rotation"}},{"sampler":7,"target":{"node":7,"path":"rotation"}},{"sampler":8,"target":{"node":8,"path":"rotation"}},{"sampler":9,"target":{"node":9,"path":"rotation"}},{"sampler":10,"target":{"node":10,"path":"rotation"}},{"sampler":11,"target":{"node":11,"path":"rotation"}},{"sampler":12,"target":{"node":12,"path":"rotation"}},{"sampler":13,"target":{"node":13,"path":"rotation"}},{"sampler":14,"target":{"node":14,"path":"rotation"}},{"sampler":15,"target":{"node":15,"path":"rotation"}},{"sampler":16,"target":{"node":16,"path":"rotation"}},{"sampler":17,"target":{"node":17,"path":"rotation"}},{"sampler":18,"target":{"node":18,"path":"rotation"}},{"sampler":19,"target":{"node":19,"path":"rotation"}},{"sampler":20,"target":{"node":20,"path":"rotation"}},{"sampler":21,"target":{"node":21,"path":"rotation"}},{"sampler":22,"target":{"node":22,"path":"rotation"}},{"sampler":23,"target":{"node":23,"path":"rotation"}}]},{"name":"hit","samplers":[{"input":295,"output":296,"interpolation":"LINEAR"},{"input":297,"output":298,"interpolation":"LINEAR"},{"input":299,"output":300,"interpolation":"LINEAR"},{"input":301,"output":302,"interpolation":"LINEAR"},{"input":303,"output":304,"interpolation":"LINEAR"},{"input":305,"output":306,"interpolation":"LINEAR"},{"input":307,"output":308,"interpolation":"LINEAR"},{"input":309,"output":310,"interpolation":"LINEAR"},{"input":311,"output":312,"interpolation":"LINEAR"},{"input":313,"output":314,"interpolation":"LINEAR"},{"input":315,"output":316,"interpolation":"LINEAR"},{"input":317,"output":318,"interpolation":"LINEAR"},{"input":319,"output":320,"interpolation":"LINEAR"},{"input":321,"output":322,"interpolation":"LINEAR"},{"input":323,"output":324,"interpolation":"LINEAR"},{"input":325,"output":326,"interpolation":"LINEAR"},{"input":327,"output":328,"interpolation":"LINEAR"},{"input":329,"output":330,"interpolation":"LINEAR"},{"input":331,"output":332,"interpolation":"LINEAR"},{"input":333,"output":334,"interpolation":"LINEAR"},{"input":335,"output":336,"interpolation":"LINEAR"},{"input":337,"output":338,"interpolation":"LINEAR"},{"input":339,"output":340,"interpolation":"LINEAR"},{"input":341,"output":342,"interpolation":"LINEAR"}],"channels":[{"sampler":0,"target":{"node":0,"path":"rotation"}},{"sampler":1,"target":{"node":1,"path":"rotation"}},{"sampler":2,"target":{"node":2,"path":"rotation"}},{"sampler":3,"target":{"node":3,"path":"rotation"}},{"sampler":4,"target":{"node":4,"path":"rotation"}},{"sampler":5,"target":{"node":5,"path":"rotation"}},{"sampler":6,"target":{"node":6,"path":"rotation"}},{"sampler":7,"target":{"node":7,"path":"rotation"}},{"sampler":8,"target":{"node":8,"path":"rotation"}},{"sampler":9,"target":{"node":9,"path":"rotation"}},{"sampler":10,"target":{"node":10,"path":"rotation"}},{"sampler":11,"target":{"node":11,"path":"rotation"}},{"sampler":12,"target":{"node":12,"path":"rotation"}},{"sampler":13,"target":{"node":13,"path":"rotation"}},{"sampler":14,"target":{"node":14,"path":"rotation"}},{"sampler":15,"target":{"node":15,"path":"rotation"}},{"sampler":16,"target":{"node":16,"path":"rotation"}},{"sampler":17,"target":{"node":17,"path":"rotation"}},{"sampler":18,"target":{"node":18,"path":"rotation"}},{"sampler":19,"target":{"node":19,"path":"rotation"}},{"sampler":20,"target":{"node":20,"path":"rotation"}},{"sampler":21,"target":{"node":21,"path":"rotation"}},{"sampler":22,"target":{"node":22,"path":"rotation"}},{"sampler":23,"target":{"node":23,"path":"rotation"}}]},{"name":"block","samplers":[{"input":343,"output":344,"interpolation":"LINEAR"},{"input":345,"output":346,"interpolation":"LINEAR"},{"input":347,"output":348,"interpolation":"LINEAR"},{"input":349,"output":350,"interpolation":"LINEAR"},{"input":351,"output":352,"interpolation":"LINEAR"},{"input":353,"output":354,"interpolation":"LINEAR"},{"input":355,"output":356,"interpolation":"LINEAR"},{"input":357,"output":358,"interpolation":"LINEAR"},{"input":359,"output":360,"interpolation":"LINEAR"},{"input":361,"output":362,"interpolation":"LINEAR"},{"input":363,"output":364,"interpolation":"LINEAR"},{"input":365,"output":366,"interpolation":"LINEAR"},{"input":367,"output":368,"interpolation":"LINEAR"},{"input":369,"output":370,"interpolation":"LINEAR"},{"input":371,"output":372,"interpolation":"LINEAR"},{"input":373,"output":374,"interpolation":"LINEAR"},{"input":375,"output":376,"interpolation":"LINEAR"},{"input":377,"output":378,"interpolation":"LINEAR"},{"input":379,"output":380,"interpolation":"LINEAR"},{"input":381,"output":382,"interpolation":"LINEAR"},{"input":383,"output":384,"interpolation":"LINEAR"},{"input":385,"output":386,"interpolation":"LINEAR"},{"input":387,"output":388,"interpolation":"LINEAR"},{"input":389,"output":390,"interpolation":"LINEAR"}],"channels":[{"sampler":0,"target":{"node":0,"path":"rotation"}},{"sampler":1,"target":{"node":1,"path":"rotation"}},{"sampler":2,"target":{"node":2,"path":"rotation"}},{"sampler":3,"target":{"node":3,"path":"rotation"}},{"sampler":4,"target":{"node":4,"path":"rotation"}},{"sampler":5,"target":{"node":5,"path":"rotation"}},{"sampler":6,"target":{"node":6,"path":"rotation"}},{"sampler":7,"target":{"node":7,"path":"rotation"}},{"sampler":8,"target":{"node":8,"path":"rotation"}},{"sampler":9,"target":{"node":9,"path":"rotation"}},{"sampler":10,"target":{"node":10,"path":"rotation"}},{"sampler":11,"target":{"node":11,"path":"rotation"}},{"sampler":12,"target":{"node":12,"path":"rotation"}},{"sampler":13,"target":{"node":13,"path":"rotation"}},{"sampler":14,"target":{"node":14,"path":"rotation"}},{"sampler":15,"target":{"node":15,"path":"rotation"}},{"sampler":16,"target":{"node":16,"path":"rotation"}},{"sampler":17,"target":{"node":17,"path":"rotation"}},{"sampler":18,"target":{"node":18,"path":"rotation"}},{"sampler":19,"target":{"node":19,"path":"rotation"}},{"sampler":20,"target":{"node":20,"path":"rotation"}},{"sampler":21,"target":{"node":21,"path":"rotation"}},{"sampler":22,"target":{"node":22,"path":"rotation"}},{"sampler":23,"target":{"node":23,"path":"rotation"}}]},{"name":"knockback","samplers":[{"input":391,"output":392,"interpolation":"LINEAR"},{"input":393,"output":394,"interpolation":"LINEAR"},{"input":395,"output":396,"interpolation":"LINEAR"},{"input":397,"output":398,"interpolation":"LINEAR"},{"input":399,"output":400,"interpolation":"LINEAR"},{"input":401,"output":402,"interpolation":"LINEAR"},{"input":403,"output":404,"interpolation":"LINEAR"},{"input":405,"output":406,"interpolation":"LINEAR"},{"input":407,"output":408,"interpolation":"LINEAR"},{"input":409,"output":410,"interpolation":"LINEAR"},{"input":411,"output":412,"interpolation":"LINEAR"},{"input":413,"output":414,"interpolation":"LINEAR"},{"input":415,"output":416,"interpolation":"LINEAR"},{"input":417,"output":418,"interpolation":"LINEAR"},{"input":419,"output":420,"interpolation":"LINEAR"},{"input":421,"output":422,"interpolation":"LINEAR"},{"input":423,"output":424,"interpolation":"LINEAR"},{"input":425,"output":426,"interpolation":"LINEAR"},{"input":427,"output":428,"interpolation":"LINEAR"},{"input":429,"output":430,"interpolation":"LINEAR"},{"input":431,"output":432,"interpolation":"LINEAR"},{"input":433,"output":434,"interpolation":"LINEAR"},{"input":435,"output":436,"interpolation":"LINEAR"},{"input":437,"output":438,"interpolation":"LINEAR"}],"channels":[{"sampler":0,"target":{"node":0,"path":"rotation"}},{"sampler":1,"target":{"node":1,"path":"rotation"}},{"sampler":2,"target":{"node":2,"path":"rotation"}},{"sampler":3,"target":{"node":3,"path":"rotation"}},{"sampler":4,"target":{"node":4,"path":"rotation"}},{"sampler":5,"target":{"node":5,"path":"rotation"}},{"sampler":6,"target":{"node":6,"path":"rotation"}},{"sampler":7,"target":{"node":7,"path":"rotation"}},{"sampler":8,"target":{"node":8,"path":"rotation"}},{"sampler":9,"target":{"node":9,"path":"rotation"}},{"sampler":10,"target":{"node":10,"path":"rotation"}},{"sampler":11,"target":{"node":11,"path":"rotation"}},{"sampler":12,"target":{"node":12,"path":"rotation"}},{"sampler":13,"target":{"node":13,"path":"rotation"}},{"sampler":14,"target":{"node":14,"path":"rotation"}},{"sampler":15,"target":{"node":15,"path":"rotation"}},{"sampler":16,"target":{"node":16,"path":"rotation"}},{"sampler":17,"target":{"node":17,"path":"rotation"}},{"sampler":18,"target":{"node":18,"path":"rotation"}},{"sampler":19,"target":{"node":19,"path":"rotation"}},{"sampler":20,"target":{"node":20,"path":"rotation"}},{"sampler":21,"target":{"node":21,"path":"rotation"}},{"sampler":22,"target":{"node":22,"path":"rotation"}},{"sampler":23,"target":{"node":23,"path":"rotation"}}]},{"name":"defeat","samplers":[{"input":439,"output":440,"interpolation":"LINEAR"},{"input":441,"output":442,"interpolation":"LINEAR"},{"input":443,"output":444,"interpolation":"LINEAR"},{"input":445,"output":446,"interpolation":"LINEAR"},{"input":447,"output":448,"interpolation":"LINEAR"},{"input":449,"output":450,"interpolation":"LINEAR"},{"input":451,"output":452,"interpolation":"LINEAR"},{"input":453,"output":454,"interpolation":"LINEAR"},{"input":455,"output":456,"interpolation":"LINEAR"},{"input":457,"output":458,"interpolation":"LINEAR"},{"input":459,"output":460,"interpolation":"LINEAR"},{"input":461,"output":462,"interpolation":"LINEAR"},{"input":463,"output":464,"interpolation":"LINEAR"},{"input":465,"output":466,"interpolation":"LINEAR"},{"input":467,"output":468,"interpolation":"LINEAR"},{"input":469,"output":470,"interpolation":"LINEAR"},{"input":471,"output":472,"interpolation":"LINEAR"},{"input":473,"output":474,"interpolation":"LINEAR"},{"input":475,"output":476,"interpolation":"LINEAR"},{"input":477,"output":478,"interpolation":"LINEAR"},{"input":479,"output":480,"interpolation":"LINEAR"},{"input":481,"output":482,"interpolation":"LINEAR"},{"input":483,"output":484,"interpolation":"LINEAR"},{"input":485,"output":486,"interpolation":"LINEAR"}],"channels":[{"sampler":0,"target":{"node":0,"path":"rotation"}},{"sampler":1,"target":{"node":1,"path":"rotation"}},{"sampler":2,"target":{"node":2,"path":"rotation"}},{"sampler":3,"target":{"node":3,"path":"rotation"}},{"sampler":4,"target":{"node":4,"path":"rotation"}},{"sampler":5,"target":{"node":5,"path":"rotation"}},{"sampler":6,"target":{"node":6,"path":"rotation"}},{"sampler":7,"target":{"node":7,"path":"rotation"}},{"sampler":8,"target":{"node":8,"path":"rotation"}},{"sampler":9,"target":{"node":9,"path":"rotation"}},{"sampler":10,"target":{"node":10,"path":"rotation"}},{"sampler":11,"target":{"node":11,"path":"rotation"}},{"sampler":12,"target":{"node":12,"path":"rotation"}},{"sampler":13,"target":{"node":13,"path":"rotation"}},{"sampler":14,"target":{"node":14,"path":"rotation"}},{"sampler":15,"target":{"node":15,"path":"rotation"}},{"sampler":16,"target":{"node":16,"path":"rotation"}},{"sampler":17,"target":{"node":17,"path":"rotation"}},{"sampler":18,"target":{"node":18,"path":"rotation"}},{"sampler":19,"target":{"node":19,"path":"rotation"}},{"sampler":20,"target":{"node":20,"path":"rotation"}},{"sampler":21,"target":{"node":21,"path":"rotation"}},{"sampler":22,"target":{"node":22,"path":"rotation"}},{"sampler":23,"target":{"node":23,"path":"rotation"}}]},{"name":"cheer","samplers":[{"input":487,"output":488,"interpolation":"LINEAR"},{"input":489,"output":490,"interpolation":"LINEAR"},{"input":491,"output":492,"interpolation":"LINEAR"},{"input":493,"output":494,"interpolation":"LINEAR"},{"input":495,"output":496,"interpolation":"LINEAR"},{"input":497,"output":498,"interpolation":"LINEAR"},{"input":499,"output":500,"interpolation":"LINEAR"},{"input":501,"output":502,"interpolation":"LINEAR"},{"input":503,"output":504,"interpolation":"LINEAR"},{"input":505,"output":506,"interpolation":"LINEAR"},{"input":507,"output":508,"interpolation":"LINEAR"},{"input":509,"output":510,"interpolation":"LINEAR"},{"input":511,"output":512,"interpolation":"LINEAR"},{"input":513,"output":514,"interpolation":"LINEAR"},{"input":515,"output":516,"interpolation":"LINEAR"},{"input":517,"output":518,"interpolation":"LINEAR"},{"input":519,"output":520,"interpolation":"LINEAR"},{"input":521,"output":522,"interpolation":"LINEAR"},{"input":523,"output":524,"interpolation":"LINEAR"},{"input":525,"output":526,"interpolation":"LINEAR"},{"input":527,"output":528,"interpolation":"LINEAR"},{"input":529,"output":530,"interpolation":"LINEAR"},{"input":531,"output":532,"interpolation":"LINEAR"},{"input":533,"output":534,"interpolation":"LINEAR"}],"channels":[{"sampler":0,"target":{"node":0,"path":"rotation"}},{"sampler":1,"target":{"node":1,"path":"rotation"}},{"sampler":2,"target":{"node":2,"path":"rotation"}},{"sampler":3,"target":{"node":3,"path":"rotation"}},{"sampler":4,"target":{"node":4,"path":"rotation"}},{"sampler":5,"target":{"node":5,"path":"rotation"}},{"sampler":6,"target":{"node":6,"path":"rotation"}},{"sampler":7,"target":{"node":7,"path":"rotation"}},{"sampler":8,"target":{"node":8,"path":"rotation"}},{"sampler":9,"target":{"node":9,"path":"rotation"}},{"sampler":10,"target":{"node":10,"path":"rotation"}},{"sampler":11,"target":{"node":11,"path":"rotation"}},{"sampler":12,"target":{"node":12,"path":"rotation"}},{"sampler":13,"target":{"node":13,"path":"rotation"}},{"sampler":14,"target":{"node":14,"path":"rotation"}},{"sampler":15,"target":{"node":15,"path":"rotation"}},{"sampler":16,"target":{"node":16,"path":"rotation"}},{"sampler":17,"target":{"node":17,"path":"rotation"}},{"sampler":18,"target":{"node":18,"path":"rotation"}},{"sampler":19,"target":{"node":19,"path":"rotation"}},{"sampler":20,"target":{"node":20,"path":"rotation"}},{"sampler":21,"target":{"node":21,"path":"rotation"}},{"sampler":22,"target":{"node":22,"path":"rotation"}},{"sampler":23,"target":{"node":23,"path":"rotation"}}]}]}