{"asset":{"version":"2.0","generator":"Castlehold original medieval mesh authoring v4 / Fieldcraft","extras":{"buffer_sha256":"f6ee6c84f27f7483e8e7ee06f4fc673af525519634148ed27011afa6df74c0ca"}},"scene":0,"scenes":[{"nodes":[0,24]}],"nodes":[{"name":"root","translation":[0,0,0],"children":[1]},{"name":"hips","translation":[0,1.0,0],"children":[2,10,13,23]},{"name":"chest","translation":[0,0.37,0.045],"children":[3,4,7,16]},{"name":"head","translation":[0,0.43,-0.09],"children":[17,22]},{"name":"upper_arm_L","translation":[-0.43,0.2,0],"children":[5]},{"name":"forearm_L","translation":[0,-0.3,0],"children":[6]},{"name":"hand_L","translation":[0,-0.24,0],"children":[18]},{"name":"upper_arm_R","translation":[0.43,0.2,0],"children":[8]},{"name":"forearm_R","translation":[0,-0.3,0],"children":[9]},{"name":"hand_R","translation":[0,-0.24,0],"children":[19]},{"name":"thigh_L","translation":[-0.16,-0.06,0],"children":[11]},{"name":"shin_L","translation":[0,-0.39,0],"children":[12]},{"name":"foot_L","translation":[0,-0.37,0],"children":[20]},{"name":"thigh_R","translation":[0.16,-0.06,0],"children":[14]},{"name":"shin_R","translation":[0,-0.39,0],"children":[15]},{"name":"foot_R","translation":[0,-0.37,0],"children":[21]},{"name":"neck","translation":[0,0.3,0]},{"name":"jaw","translation":[0,-0.14,-0.06]},{"name":"thumb_L","translation":[0.06,0,-0.02]},{"name":"thumb_R","translation":[-0.06,0,-0.02]},{"name":"toe_L","translation":[0,-0.01,-0.13]},{"name":"toe_R","translation":[0,-0.01,-0.13]},{"name":"plume","translation":[0,0.25,0.06]},{"name":"tabard","translation":[0,-0.14,-0.19]},{"name":"Orc_Guard","mesh":0,"skin":0}],"skins":[{"inverseBindMatrices":6,"joints":[0,1,2,3,4,5,6,7,8,9,10,11,12,13,14,15,16,17,18,19,20,21,22,23],"skeleton":0}],"meshes":[{"primitives":[{"attributes":{"POSITION":0,"NORMAL":1,"COLOR_0":2,"TEXCOORD_0":5,"JOINTS_0":3,"WEIGHTS_0":4},"material":0}]}],"materials":[{"name":"Fieldcraft cloth, linked mail, forged steel and skin","pbrMetallicRoughness":{"baseColorFactor":[1,1,1,1],"baseColorTexture":{"index":0},"metallicFactor":1,"roughnessFactor":1,"metallicRoughnessTexture":{"index":2}},"normalTexture":{"index":1,"scale":0.42},"doubleSided":true}],"images":[{"uri":"fieldcraft_albedo.png"},{"uri":"fieldcraft_normal.png"},{"uri":"fieldcraft_orm.png"}],"textures":[{"source":0,"sampler":0},{"source":1,"sampler":0},{"source":2,"sampler":0}],"samplers":[{"magFilter":9729,"minFilter":9987,"wrapS":33071,"wrapT":33071}],"buffers":[{"uri":"orc_guard.bin","byteLength":1272096}],"bufferViews":[{"buffer":0,"byteOffset":0,"byteLength":207360},{"buffer":0,"byteOffset":207360,"byteLength":207360},{"buffer":0,"byteOffset":414720,"byteLength":276480},{"buffer":0,"byteOffset":691200,"byteLength":138240},{"buffer":0,"byteOffset":829440,"byteLength":276480},{"buffer":0,"byteOffset":1105920,"byteLength":138240},{"buffer":0,"byteOffset":1244160,"byteLength":1536},{"buffer":0,"byteOffset":1245696,"byteLength":20},{"buffer":0,"byteOffset":1245716,"byteLength":80},{"buffer":0,"byteOffset":1245796,"byteLength":20},{"buffer":0,"byteOffset":1245816,"byteLength":80},{"buffer":0,"byteOffset":1245896,"byteLength":20},{"buffer":0,"byteOffset":1245916,"byteLength":80},{"buffer":0,"byteOffset":1245996,"byteLength":20},{"buffer":0,"byteOffset":1246016,"byteLength":80},{"buffer":0,"byteOffset":1246096,"byteLength":20},{"buffer":0,"byteOffset":1246116,"byteLength":80},{"buffer":0,"byteOffset":1246196,"byteLength":20},{"buffer":0,"byteOffset":1246216,"byteLength":80},{"buffer":0,"byteOffset":1246296,"byteLength":20},{"buffer":0,"byteOffset":1246316,"byteLength":80},{"buffer":0,"byteOffset":1246396,"byteLength":20},{"buffer":0,"byteOffset":1246416,"byteLength":80},{"buffer":0,"byteOffset":1246496,"byteLength":20},{"buffer":0,"byteOffset":1246516,"byteLength":80},{"buffer":0,"byteOffset":1246596,"byteLength":20},{"buffer":0,"byteOffset":1246616,"byteLength":80},{"buffer":0,"byteOffset":1246696,"byteLength":20},{"buffer":0,"byteOffset":1246716,"byteLength":80},{"buffer":0,"byteOffset":1246796,"byteLength":20},{"buffer":0,"byteOffset":1246816,"byteLength":80},{"buffer":0,"byteOffset":1246896,"byteLength":20},{"buffer":0,"byteOffset":1246916,"byteLength":80},{"buffer":0,"byteOffset":1246996,"byteLength":20},{"buffer":0,"byteOffset":1247016,"byteLength":80},{"buffer":0,"byteOffset":1247096,"byteLength":20},{"buffer":0,"byteOffset":1247116,"byteLength":80},{"buffer":0,"byteOffset":1247196,"byteLength":20},{"buffer":0,"byteOffset":1247216,"byteLength":80},{"buffer":0,"byteOffset":1247296,"byteLength":20},{"buffer":0,"byteOffset":1247316,"byteLength":80},{"buffer":0,"byteOffset":1247396,"byteLength":20},{"buffer":0,"byteOffset":1247416,"byteLength":80},{"buffer":0,"byteOffset":1247496,"byteLength":20},{"buffer":0,"byteOffset":1247516,"byteLength":80},{"buffer":0,"byteOffset":1247596,"byteLength":20},{"buffer":0,"byteOffset":1247616,"byteLength":80},{"buffer":0,"byteOffset":1247696,"byteLength":20},{"buffer":0,"byteOffset":1247716,"byteLength":80},{"buffer":0,"byteOffset":1247796,"byteLength":20},{"buffer":0,"byteOffset":1247816,"byteLength":80},{"buffer":0,"byteOffset":1247896,"byteLength":20},{"buffer":0,"byteOffset":1247916,"byteLength":80},{"buffer":0,"byteOffset":1247996,"byteLength":20},{"buffer":0,"byteOffset":1248016,"byteLength":80},{"buffer":0,"byteOffset":1248096,"byteLength":20},{"buffer":0,"byteOffset":1248116,"byteLength":80},{"buffer":0,"byteOffset":1248196,"byteLength":20},{"buffer":0,"byteOffset":1248216,"byteLength":80},{"buffer":0,"byteOffset":1248296,"byteLength":20},{"buffer":0,"byteOffset":1248316,"byteLength":80},{"buffer":0,"byteOffset":1248396,"byteLength":20},{"buffer":0,"byteOffset":1248416,"byteLength":80},{"buffer":0,"byteOffset":1248496,"byteLength":20},{"buffer":0,"byteOffset":1248516,"byteLength":80},{"buffer":0,"byteOffset":1248596,"byteLength":20},{"buffer":0,"byteOffset":1248616,"byteLength":80},{"buffer":0,"byteOffset":1248696,"byteLength":20},{"buffer":0,"byteOffset":1248716,"byteLength":80},{"buffer":0,"byteOffset":1248796,"byteLength":20},{"buffer":0,"byteOffset":1248816,"byteLength":80},{"buffer":0,"byteOffset":1248896,"byteLength":20},{"buffer":0,"byteOffset":1248916,"byteLength":80},{"buffer":0,"byteOffset":1248996,"byteLength":20},{"buffer":0,"byteOffset":1249016,"byteLength":80},{"buffer":0,"byteOffset":1249096,"byteLength":20},{"buffer":0,"byteOffset":1249116,"byteLength":80},{"buffer":0,"byteOffset":1249196,"byteLength":20},{"buffer":0,"byteOffset":1249216,"byteLength":80},{"buffer":0,"byteOffset":1249296,"byteLength":20},{"buffer":0,"byteOffset":1249316,"byteLength":80},{"buffer":0,"byteOffset":1249396,"byteLength":20},{"buffer":0,"byteOffset":1249416,"byteLength":80},{"buffer":0,"byteOffset":1249496,"byteLength":20},{"buffer":0,"byteOffset":1249516,"byteLength":80},{"buffer":0,"byteOffset":1249596,"byteLength":20},{"buffer":0,"byteOffset":1249616,"byteLength":80},{"buffer":0,"byteOffset":1249696,"byteLength":20},{"buffer":0,"byteOffset":1249716,"byteLength":80},{"buffer":0,"byteOffset":1249796,"byteLength":20},{"buffer":0,"byteOffset":1249816,"byteLength":80},{"buffer":0,"byteOffset":1249896,"byteLength":20},{"buffer":0,"byteOffset":1249916,"byteLength":80},{"buffer":0,"byteOffset":1249996,"byteLength":20},{"buffer":0,"byteOffset":1250016,"byteLength":80},{"buffer":0,"byteOffset":1250096,"byteLength":20},{"buffer":0,"byteOffset":1250116,"byteLength":80},{"buffer":0,"byteOffset":1250196,"byteLength":20},{"buffer":0,"byteOffset":1250216,"byteLength":80},{"buffer":0,"byteOffset":1250296,"byteLength":20},{"buffer":0,"byteOffset":1250316,"byteLength":80},{"buffer":0,"byteOffset":1250396,"byteLength":20},{"buffer":0,"byteOffset":1250416,"byteLength":80},{"buffer":0,"byteOffset":1250496,"byteLength":20},{"buffer":0,"byteOffset":1250516,"byteLength":80},{"buffer":0,"byteOffset":1250596,"byteLength":20},{"buffer":0,"byteOffset":1250616,"byteLength":80},{"buffer":0,"byteOffset":1250696,"byteLength":20},{"buffer":0,"byteOffset":1250716,"byteLength":80},{"buffer":0,"byteOffset":1250796,"byteLength":20},{"buffer":0,"byteOffset":1250816,"byteLength":80},{"buffer":0,"byteOffset":1250896,"byteLength":20},{"buffer":0,"byteOffset":1250916,"byteLength":80},{"buffer":0,"byteOffset":1250996,"byteLength":20},{"buffer":0,"byteOffset":1251016,"byteLength":80},{"buffer":0,"byteOffset":1251096,"byteLength":20},{"buffer":0,"byteOffset":1251116,"byteLength":80},{"buffer":0,"byteOffset":1251196,"byteLength":20},{"buffer":0,"byteOffset":1251216,"byteLength":80},{"buffer":0,"byteOffset":1251296,"byteLength":20},{"buffer":0,"byteOffset":1251316,"byteLength":80},{"buffer":0,"byteOffset":1251396,"byteLength":20},{"buffer":0,"byteOffset":1251416,"byteLength":80},{"buffer":0,"byteOffset":1251496,"byteLength":20},{"buffer":0,"byteOffset":1251516,"byteLength":80},{"buffer":0,"byteOffset":1251596,"byteLength":20},{"buffer":0,"byteOffset":1251616,"byteLength":80},{"buffer":0,"byteOffset":1251696,"byteLength":20},{"buffer":0,"byteOffset":1251716,"byteLength":80},{"buffer":0,"byteOffset":1251796,"byteLength":20},{"buffer":0,"byteOffset":1251816,"byteLength":80},{"buffer":0,"byteOffset":1251896,"byteLength":20},{"buffer":0,"byteOffset":1251916,"byteLength":80},{"buffer":0,"byteOffset":1251996,"byteLength":20},{"buffer":0,"byteOffset":1252016,"byteLength":80},{"buffer":0,"byteOffset":1252096,"byteLength":20},{"buffer":0,"byteOffset":1252116,"byteLength":80},{"buffer":0,"byteOffset":1252196,"byteLength":20},{"buffer":0,"byteOffset":1252216,"byteLength":80},{"buffer":0,"byteOffset":1252296,"byteLength":20},{"buffer":0,"byteOffset":1252316,"byteLength":80},{"buffer":0,"byteOffset":1252396,"byteLength":20},{"buffer":0,"byteOffset":1252416,"byteLength":80},{"buffer":0,"byteOffset":1252496,"byteLength":20},{"buffer":0,"byteOffset":1252516,"byteLength":80},{"buffer":0,"byteOffset":1252596,"byteLength":20},{"buffer":0,"byteOffset":1252616,"byteLength":80},{"buffer":0,"byteOffset":1252696,"byteLength":20},{"buffer":0,"byteOffset":1252716,"byteLength":80},{"buffer":0,"byteOffset":1252796,"byteLength":20},{"buffer":0,"byteOffset":1252816,"byteLength":80},{"buffer":0,"byteOffset":1252896,"byteLength":20},{"buffer":0,"byteOffset":1252916,"byteLength":80},{"buffer":0,"byteOffset":1252996,"byteLength":20},{"buffer":0,"byteOffset":1253016,"byteLength":80},{"buffer":0,"byteOffset":1253096,"byteLength":20},{"buffer":0,"byteOffset":1253116,"byteLength":80},{"buffer":0,"byteOffset":1253196,"byteLength":20},{"buffer":0,"byteOffset":1253216,"byteLength":80},{"buffer":0,"byteOffset":1253296,"byteLength":20},{"buffer":0,"byteOffset":1253316,"byteLength":80},{"buffer":0,"byteOffset":1253396,"byteLength":20},{"buffer":0,"byteOffset":1253416,"byteLength":80},{"buffer":0,"byteOffset":1253496,"byteLength":20},{"buffer":0,"byteOffset":1253516,"byteLength":80},{"buffer":0,"byteOffset":1253596,"byteLength":20},{"buffer":0,"byteOffset":1253616,"byteLength":80},{"buffer":0,"byteOffset":1253696,"byteLength":20},{"buffer":0,"byteOffset":1253716,"byteLength":80},{"buffer":0,"byteOffset":1253796,"byteLength":20},{"buffer":0,"byteOffset":1253816,"byteLength":80},{"buffer":0,"byteOffset":1253896,"byteLength":20},{"buffer":0,"byteOffset":1253916,"byteLength":80},{"buffer":0,"byteOffset":1253996,"byteLength":20},{"buffer":0,"byteOffset":1254016,"byteLength":80},{"buffer":0,"byteOffset":1254096,"byteLength":20},{"buffer":0,"byteOffset":1254116,"byteLength":80},{"buffer":0,"byteOffset":1254196,"byteLength":20},{"buffer":0,"byteOffset":1254216,"byteLength":80},{"buffer":0,"byteOffset":1254296,"byteLength":20},{"buffer":0,"byteOffset":1254316,"byteLength":80},{"buffer":0,"byteOffset":1254396,"byteLength":20},{"buffer":0,"byteOffset":1254416,"byteLength":80},{"buffer":0,"byteOffset":1254496,"byteLength":20},{"buffer":0,"byteOffset":1254516,"byteLength":80},{"buffer":0,"byteOffset":1254596,"byteLength":20},{"buffer":0,"byteOffset":1254616,"byteLength":80},{"buffer":0,"byteOffset":1254696,"byteLength":20},{"buffer":0,"byteOffset":1254716,"byteLength":80},{"buffer":0,"byteOffset":1254796,"byteLength":20},{"buffer":0,"byteOffset":1254816,"byteLength":80},{"buffer":0,"byteOffset":1254896,"byteLength":20},{"buffer":0,"byteOffset":1254916,"byteLength":80},{"buffer":0,"byteOffset":1254996,"byteLength":20},{"buffer":0,"byteOffset":1255016,"byteLength":80},{"buffer":0,"byteOffset":1255096,"byteLength":20},{"buffer":0,"byteOffset":1255116,"byteLength":80},{"buffer":0,"byteOffset":1255196,"byteLength":20},{"buffer":0,"byteOffset":1255216,"byteLength":80},{"buffer":0,"byteOffset":1255296,"byteLength":20},{"buffer":0,"byteOffset":1255316,"byteLength":80},{"buffer":0,"byteOffset":1255396,"byteLength":20},{"buffer":0,"byteOffset":1255416,"byteLength":80},{"buffer":0,"byteOffset":1255496,"byteLength":20},{"buffer":0,"byteOffset":1255516,"byteLength":80},{"buffer":0,"byteOffset":1255596,"byteLength":20},{"buffer":0,"byteOffset":1255616,"byteLength":80},{"buffer":0,"byteOffset":1255696,"byteLength":20},{"buffer":0,"byteOffset":1255716,"byteLength":80},{"buffer":0,"byteOffset":1255796,"byteLength":20},{"buffer":0,"byteOffset":1255816,"byteLength":80},{"buffer":0,"byteOffset":1255896,"byteLength":20},{"buffer":0,"byteOffset":1255916,"byteLength":80},{"buffer":0,"byteOffset":1255996,"byteLength":20},{"buffer":0,"byteOffset":1256016,"byteLength":80},{"buffer":0,"byteOffset":1256096,"byteLength":20},{"buffer":0,"byteOffset":1256116,"byteLength":80},{"buffer":0,"byteOffset":1256196,"byteLength":20},{"buffer":0,"byteOffset":1256216,"byteLength":80},{"buffer":0,"byteOffset":1256296,"byteLength":20},{"buffer":0,"byteOffset":1256316,"byteLength":80},{"buffer":0,"byteOffset":1256396,"byteLength":20},{"buffer":0,"byteOffset":1256416,"byteLength":80},{"buffer":0,"byteOffset":1256496,"byteLength":20},{"buffer":0,"byteOffset":1256516,"byteLength":80},{"buffer":0,"byteOffset":1256596,"byteLength":20},{"buffer":0,"byteOffset":1256616,"byteLength":80},{"buffer":0,"byteOffset":1256696,"byteLength":20},{"buffer":0,"byteOffset":1256716,"byteLength":80},{"buffer":0,"byteOffset":1256796,"byteLength":20},{"buffer":0,"byteOffset":1256816,"byteLength":80},{"buffer":0,"byteOffset":1256896,"byteLength":20},{"buffer":0,"byteOffset":1256916,"byteLength":80},{"buffer":0,"byteOffset":1256996,"byteLength":20},{"buffer":0,"byteOffset":1257016,"byteLength":80},{"buffer":0,"byteOffset":1257096,"byteLength":20},{"buffer":0,"byteOffset":1257116,"byteLength":80},{"buffer":0,"byteOffset":1257196,"byteLength":20},{"buffer":0,"byteOffset":1257216,"byteLength":80},{"buffer":0,"byteOffset":1257296,"byteLength":20},{"buffer":0,"byteOffset":1257316,"byteLength":80},{"buffer":0,"byteOffset":1257396,"byteLength":20},{"buffer":0,"byteOffset":1257416,"byteLength":80},{"buffer":0,"byteOffset":1257496,"byteLength":20},{"buffer":0,"byteOffset":1257516,"byteLength":80},{"buffer":0,"byteOffset":1257596,"byteLength":20},{"buffer":0,"byteOffset":1257616,"byteLength":80},{"buffer":0,"byteOffset":1257696,"byteLength":20},{"buffer":0,"byteOffset":1257716,"byteLength":80},{"buffer":0,"byteOffset":1257796,"byteLength":20},{"buffer":0,"byteOffset":1257816,"byteLength":80},{"buffer":0,"byteOffset":1257896,"byteLength":20},{"buffer":0,"byteOffset":1257916,"byteLength":80},{"buffer":0,"byteOffset":1257996,"byteLength":20},{"buffer":0,"byteOffset":1258016,"byteLength":80},{"buffer":0,"byteOffset":1258096,"byteLength":20},{"buffer":0,"byteOffset":1258116,"byteLength":80},{"buffer":0,"byteOffset":1258196,"byteLength":20},{"buffer":0,"byteOffset":1258216,"byteLength":80},{"buffer":0,"byteOffset":1258296,"byteLength":20},{"buffer":0,"byteOffset":1258316,"byteLength":80},{"buffer":0,"byteOffset":1258396,"byteLength":20},{"buffer":0,"byteOffset":1258416,"byteLength":80},{"buffer":0,"byteOffset":1258496,"byteLength":20},{"buffer":0,"byteOffset":1258516,"byteLength":80},{"buffer":0,"byteOffset":1258596,"byteLength":20},{"buffer":0,"byteOffset":1258616,"byteLength":80},{"buffer":0,"byteOffset":1258696,"byteLength":20},{"buffer":0,"byteOffset":1258716,"byteLength":80},{"buffer":0,"byteOffset":1258796,"byteLength":20},{"buffer":0,"byteOffset":1258816,"byteLength":80},{"buffer":0,"byteOffset":1258896,"byteLength":20},{"buffer":0,"byteOffset":1258916,"byteLength":80},{"buffer":0,"byteOffset":1258996,"byteLength":20},{"buffer":0,"byteOffset":1259016,"byteLength":80},{"buffer":0,"byteOffset":1259096,"byteLength":20},{"buffer":0,"byteOffset":1259116,"byteLength":80},{"buffer":0,"byteOffset":1259196,"byteLength":20},{"buffer":0,"byteOffset":1259216,"byteLength":80},{"buffer":0,"byteOffset":1259296,"byteLength":20},{"buffer":0,"byteOffset":1259316,"byteLength":80},{"buffer":0,"byteOffset":1259396,"byteLength":20},{"buffer":0,"byteOffset":1259416,"byteLength":80},{"buffer":0,"byteOffset":1259496,"byteLength":20},{"buffer":0,"byteOffset":1259516,"byteLength":80},{"buffer":0,"byteOffset":1259596,"byteLength":20},{"buffer":0,"byteOffset":1259616,"byteLength":80},{"buffer":0,"byteOffset":1259696,"byteLength":20},{"buffer":0,"byteOffset":1259716,"byteLength":80},{"buffer":0,"byteOffset":1259796,"byteLength":20},{"buffer":0,"byteOffset":1259816,"byteLength":80},{"buffer":0,"byteOffset":1259896,"byteLength":20},{"buffer":0,"byteOffset":1259916,"byteLength":80},{"buffer":0,"byteOffset":1259996,"byteLength":20},{"buffer":0,"byteOffset":1260016,"byteLength":80},{"buffer":0,"byteOffset":1260096,"byteLength":20},{"buffer":0,"byteOffset":1260116,"byteLength":80},{"buffer":0,"byteOffset":1260196,"byteLength":20},{"buffer":0,"byteOffset":1260216,"byteLength":80},{"buffer":0,"byteOffset":1260296,"byteLength":20},{"buffer":0,"byteOffset":1260316,"byteLength":80},{"buffer":0,"byteOffset":1260396,"byteLength":20},{"buffer":0,"byteOffset":1260416,"byteLength":80},{"buffer":0,"byteOffset":1260496,"byteLength":20},{"buffer":0,"byteOffset":1260516,"byteLength":80},{"buffer":0,"byteOffset":1260596,"byteLength":20},{"buffer":0,"byteOffset":1260616,"byteLength":80},{"buffer":0,"byteOffset":1260696,"byteLength":20},{"buffer":0,"byteOffset":1260716,"byteLength":80},{"buffer":0,"byteOffset":1260796,"byteLength":20},{"buffer":0,"byteOffset":1260816,"byteLength":80},{"buffer":0,"byteOffset":1260896,"byteLength":20},{"buffer":0,"byteOffset":1260916,"byteLength":80},{"buffer":0,"byteOffset":1260996,"byteLength":20},{"buffer":0,"byteOffset":1261016,"byteLength":80},{"buffer":0,"byteOffset":1261096,"byteLength":20},{"buffer":0,"byteOffset":1261116,"byteLength":80},{"buffer":0,"byteOffset":1261196,"byteLength":20},{"buffer":0,"byteOffset":1261216,"byteLength":80},{"buffer":0,"byteOffset":1261296,"byteLength":20},{"buffer":0,"byteOffset":1261316,"byteLength":80},{"buffer":0,"byteOffset":1261396,"byteLength":20},{"buffer":0,"byteOffset":1261416,"byteLength":80},{"buffer":0,"byteOffset":1261496,"byteLength":20},{"buffer":0,"byteOffset":1261516,"byteLength":80},{"buffer":0,"byteOffset":1261596,"byteLength":20},{"buffer":0,"byteOffset":1261616,"byteLength":80},{"buffer":0,"byteOffset":1261696,"byteLength":20},{"buffer":0,"byteOffset":1261716,"byteLength":80},{"buffer":0,"byteOffset":1261796,"byteLength":20},{"buffer":0,"byteOffset":1261816,"byteLength":80},{"buffer":0,"byteOffset":1261896,"byteLength":20},{"buffer":0,"byteOffset":1261916,"byteLength":80},{"buffer":0,"byteOffset":1261996,"byteLength":20},{"buffer":0,"byteOffset":1262016,"byteLength":80},{"buffer":0,"byteOffset":1262096,"byteLength":20},{"buffer":0,"byteOffset":1262116,"byteLength":80},{"buffer":0,"byteOffset":1262196,"byteLength":20},{"buffer":0,"byteOffset":1262216,"byteLength":80},{"buffer":0,"byteOffset":1262296,"byteLength":20},{"buffer":0,"byteOffset":1262316,"byteLength":80},{"buffer":0,"byteOffset":1262396,"byteLength":20},{"buffer":0,"byteOffset":1262416,"byteLength":80},{"buffer":0,"byteOffset":1262496,"byteLength":20},{"buffer":0,"byteOffset":1262516,"byteLength":80},{"buffer":0,"byteOffset":1262596,"byteLength":20},{"buffer":0,"byteOffset":1262616,"byteLength":80},{"buffer":0,"byteOffset":1262696,"byteLength":20},{"buffer":0,"byteOffset":1262716,"byteLength":80},{"buffer":0,"byteOffset":1262796,"byteLength":20},{"buffer":0,"byteOffset":1262816,"byteLength":80},{"buffer":0,"byteOffset":1262896,"byteLength":20},{"buffer":0,"byteOffset":1262916,"byteLength":80},{"buffer":0,"byteOffset":1262996,"byteLength":20},{"buffer":0,"byteOffset":1263016,"byteLength":80},{"buffer":0,"byteOffset":1263096,"byteLength":20},{"buffer":0,"byteOffset":1263116,"byteLength":80},{"buffer":0,"byteOffset":1263196,"byteLength":20},{"buffer":0,"byteOffset":1263216,"byteLength":80},{"buffer":0,"byteOffset":1263296,"byteLength":20},{"buffer":0,"byteOffset":1263316,"byteLength":80},{"buffer":0,"byteOffset":1263396,"byteLength":20},{"buffer":0,"byteOffset":1263416,"byteLength":80},{"buffer":0,"byteOffset":1263496,"byteLength":20},{"buffer":0,"byteOffset":1263516,"byteLength":80},{"buffer":0,"byteOffset":1263596,"byteLength":20},{"buffer":0,"byteOffset":1263616,"byteLength":80},{"buffer":0,"byteOffset":1263696,"byteLength":20},{"buffer":0,"byteOffset":1263716,"byteLength":80},{"buffer":0,"byteOffset":1263796,"byteLength":20},{"buffer":0,"byteOffset":1263816,"byteLength":80},{"buffer":0,"byteOffset":1263896,"byteLength":20},{"buffer":0,"byteOffset":1263916,"byteLength":80},{"buffer":0,"byteOffset":1263996,"byteLength":20},{"buffer":0,"byteOffset":1264016,"byteLength":80},{"buffer":0,"byteOffset":1264096,"byteLength":20},{"buffer":0,"byteOffset":1264116,"byteLength":80},{"buffer":0,"byteOffset":1264196,"byteLength":20},{"buffer":0,"byteOffset":1264216,"byteLength":80},{"buffer":0,"byteOffset":1264296,"byteLength":20},{"buffer":0,"byteOffset":1264316,"byteLength":80},{"buffer":0,"byteOffset":1264396,"byteLength":20},{"buffer":0,"byteOffset":1264416,"byteLength":80},{"buffer":0,"byteOffset":1264496,"byteLength":20},{"buffer":0,"byteOffset":1264516,"byteLength":80},{"buffer":0,"byteOffset":1264596,"byteLength":20},{"buffer":0,"byteOffset":1264616,"byteLength":80},{"buffer":0,"byteOffset":1264696,"byteLength":20},{"buffer":0,"byteOffset":1264716,"byteLength":80},{"buffer":0,"byteOffset":1264796,"byteLength":20},{"buffer":0,"byteOffset":1264816,"byteLength":80},{"buffer":0,"byteOffset":1264896,"byteLength":20},{"buffer":0,"byteOffset":1264916,"byteLength":80},{"buffer":0,"byteOffset":1264996,"byteLength":20},{"buffer":0,"byteOffset":1265016,"byteLength":80},{"buffer":0,"byteOffset":1265096,"byteLength":20},{"buffer":0,"byteOffset":1265116,"byteLength":80},{"buffer":0,"byteOffset":1265196,"byteLength":20},{"buffer":0,"byteOffset":1265216,"byteLength":80},{"buffer":0,"byteOffset":1265296,"byteLength":20},{"buffer":0,"byteOffset":1265316,"byteLength":80},{"buffer":0,"byteOffset":1265396,"byteLength":20},{"buffer":0,"byteOffset":1265416,"byteLength":80},{"buffer":0,"byteOffset":1265496,"byteLength":20},{"buffer":0,"byteOffset":1265516,"byteLength":80},{"buffer":0,"byteOffset":1265596,"byteLength":20},{"buffer":0,"byteOffset":1265616,"byteLength":80},{"buffer":0,"byteOffset":1265696,"byteLength":20},{"buffer":0,"byteOffset":1265716,"byteLength":80},{"buffer":0,"byteOffset":1265796,"byteLength":20},{"buffer":0,"byteOffset":1265816,"byteLength":80},{"buffer":0,"byteOffset":1265896,"byteLength":20},{"buffer":0,"byteOffset":1265916,"byteLength":80},{"buffer":0,"byteOffset":1265996,"byteLength":20},{"buffer":0,"byteOffset":1266016,"byteLength":80},{"buffer":0,"byteOffset":1266096,"byteLength":20},{"buffer":0,"byteOffset":1266116,"byteLength":80},{"buffer":0,"byteOffset":1266196,"byteLength":20},{"buffer":0,"byteOffset":1266216,"byteLength":80},{"buffer":0,"byteOffset":1266296,"byteLength":20},{"buffer":0,"byteOffset":1266316,"byteLength":80},{"buffer":0,"byteOffset":1266396,"byteLength":20},{"buffer":0,"byteOffset":1266416,"byteLength":80},{"buffer":0,"byteOffset":1266496,"byteLength":20},{"buffer":0,"byteOffset":1266516,"byteLength":80},{"buffer":0,"byteOffset":1266596,"byteLength":20},{"buffer":0,"byteOffset":1266616,"byteLength":80},{"buffer":0,"byteOffset":1266696,"byteLength":20},{"buffer":0,"byteOffset":1266716,"byteLength":80},{"buffer":0,"byteOffset":1266796,"byteLength":20},{"buffer":0,"byteOffset":1266816,"byteLength":80},{"buffer":0,"byteOffset":1266896,"byteLength":20},{"buffer":0,"byteOffset":1266916,"byteLength":80},{"buffer":0,"byteOffset":1266996,"byteLength":20},{"buffer":0,"byteOffset":1267016,"byteLength":80},{"buffer":0,"byteOffset":1267096,"byteLength":20},{"buffer":0,"byteOffset":1267116,"byteLength":80},{"buffer":0,"byteOffset":1267196,"byteLength":20},{"buffer":0,"byteOffset":1267216,"byteLength":80},{"buffer":0,"byteOffset":1267296,"byteLength":20},{"buffer":0,"byteOffset":1267316,"byteLength":80},{"buffer":0,"byteOffset":1267396,"byteLength":20},{"buffer":0,"byteOffset":1267416,"byteLength":80},{"buffer":0,"byteOffset":1267496,"byteLength":20},{"buffer":0,"byteOffset":1267516,"byteLength":80},{"buffer":0,"byteOffset":1267596,"byteLength":20},{"buffer":0,"byteOffset":1267616,"byteLength":80},{"buffer":0,"byteOffset":1267696,"byteLength":20},{"buffer":0,"byteOffset":1267716,"byteLength":80},{"buffer":0,"byteOffset":1267796,"byteLength":20},{"buffer":0,"byteOffset":1267816,"byteLength":80},{"buffer":0,"byteOffset":1267896,"byteLength":20},{"buffer":0,"byteOffset":1267916,"byteLength":80},{"buffer":0,"byteOffset":1267996,"byteLength":20},{"buffer":0,"byteOffset":1268016,"byteLength":80},{"buffer":0,"byteOffset":1268096,"byteLength":20},{"buffer":0,"byteOffset":1268116,"byteLength":80},{"buffer":0,"byteOffset":1268196,"byteLength":20},{"buffer":0,"byteOffset":1268216,"byteLength":80},{"buffer":0,"byteOffset":1268296,"byteLength":20},{"buffer":0,"byteOffset":1268316,"byteLength":80},{"buffer":0,"byteOffset":1268396,"byteLength":20},{"buffer":0,"byteOffset":1268416,"byteLength":80},{"buffer":0,"byteOffset":1268496,"byteLength":20},{"buffer":0,"byteOffset":1268516,"byteLength":80},{"buffer":0,"byteOffset":1268596,"byteLength":20},{"buffer":0,"byteOffset":1268616,"byteLength":80},{"buffer":0,"byteOffset":1268696,"byteLength":20},{"buffer":0,"byteOffset":1268716,"byteLength":80},{"buffer":0,"byteOffset":1268796,"byteLength":20},{"buffer":0,"byteOffset":1268816,"byteLength":80},{"buffer":0,"byteOffset":1268896,"byteLength":20},{"buffer":0,"byteOffset":1268916,"byteLength":80},{"buffer":0,"byteOffset":1268996,"byteLength":20},{"buffer":0,"byteOffset":1269016,"byteLength":80},{"buffer":0,"byteOffset":1269096,"byteLength":20},{"buffer":0,"byteOffset":1269116,"byteLength":80},{"buffer":0,"byteOffset":1269196,"byteLength":20},{"buffer":0,"byteOffset":1269216,"byteLength":80},{"buffer":0,"byteOffset":1269296,"byteLength":20},{"buffer":0,"byteOffset":1269316,"byteLength":80},{"buffer":0,"byteOffset":1269396,"byteLength":20},{"buffer":0,"byteOffset":1269416,"byteLength":80},{"buffer":0,"byteOffset":1269496,"byteLength":20},{"buffer":0,"byteOffset":1269516,"byteLength":80},{"buffer":0,"byteOffset":1269596,"byteLength":20},{"buffer":0,"byteOffset":1269616,"byteLength":80},{"buffer":0,"byteOffset":1269696,"byteLength":20},{"buffer":0,"byteOffset":1269716,"byteLength":80},{"buffer":0,"byteOffset":1269796,"byteLength":20},{"buffer":0,"byteOffset":1269816,"byteLength":80},{"buffer":0,"byteOffset":1269896,"byteLength":20},{"buffer":0,"byteOffset":1269916,"byteLength":80},{"buffer":0,"byteOffset":1269996,"byteLength":20},{"buffer":0,"byteOffset":1270016,"byteLength":80},{"buffer":0,"byteOffset":1270096,"byteLength":20},{"buffer":0,"byteOffset":1270116,"byteLength":80},{"buffer":0,"byteOffset":1270196,"byteLength":20},{"buffer":0,"byteOffset":1270216,"byteLength":80},{"buffer":0,"byteOffset":1270296,"byteLength":20},{"buffer":0,"byteOffset":1270316,"byteLength":80},{"buffer":0,"byteOffset":1270396,"byteLength":20},{"buffer":0,"byteOffset":1270416,"byteLength":80},{"buffer":0,"byteOffset":1270496,"byteLength":20},{"buffer":0,"byteOffset":1270516,"byteLength":80},{"buffer":0,"byteOffset":1270596,"byteLength":20},{"buffer":0,"byteOffset":1270616,"byteLength":80},{"buffer":0,"byteOffset":1270696,"byteLength":20},{"buffer":0,"byteOffset":1270716,"byteLength":80},{"buffer":0,"byteOffset":1270796,"byteLength":20},{"buffer":0,"byteOffset":1270816,"byteLength":80},{"buffer":0,"byteOffset":1270896,"byteLength":20},{"buffer":0,"byteOffset":1270916,"byteLength":80},{"buffer":0,"byteOffset":1270996,"byteLength":20},{"buffer":0,"byteOffset":1271016,"byteLength":80},{"buffer":0,"byteOffset":1271096,"byteLength":20},{"buffer":0,"byteOffset":1271116,"byteLength":80},{"buffer":0,"byteOffset":1271196,"byteLength":20},{"buffer":0,"byteOffset":1271216,"byteLength":80},{"buffer":0,"byteOffset":1271296,"byteLength":20},{"buffer":0,"byteOffset":1271316,"byteLength":80},{"buffer":0,"byteOffset":1271396,"byteLength":20},{"buffer":0,"byteOffset":1271416,"byteLength":80},{"buffer":0,"byteOffset":1271496,"byteLength":20},{"buffer":0,"byteOffset":1271516,"byteLength":80},{"buffer":0,"byteOffset":1271596,"byteLength":20},{"buffer":0,"byteOffset":1271616,"byteLength":80},{"buffer":0,"byteOffset":1271696,"byteLength":20},{"buffer":0,"byteOffset":1271716,"byteLength":80},{"buffer":0,"byteOffset":1271796,"byteLength":20},{"buffer":0,"byteOffset":1271816,"byteLength":80},{"buffer":0,"byteOffset":1271896,"byteLength":20},{"buffer":0,"byteOffset":1271916,"byteLength":80},{"buffer":0,"byteOffset":1271996,"byteLength":20},{"buffer":0,"byteOffset":1272016,"byteLength":80}],"accessors":[{"bufferView":0,"componentType":5126,"count":17280,"type":"VEC3","min":[-0.88,0.08999999999999993,-0.38447604358790993],"max":[0.96,2.33,0.32848125716727417]},{"bufferView":1,"componentType":5126,"count":17280,"type":"VEC3","min":[-1.0,-1.0,-1.0],"max":[1.0,1.0,1.0]},{"bufferView":2,"componentType":5126,"count":17280,"type":"VEC4"},{"bufferView":3,"componentType":5123,"count":17280,"type":"VEC4"},{"bufferView":4,"componentType":5126,"count":17280,"type":"VEC4"},{"bufferView":5,"componentType":5126,"count":17280,"type":"VEC2"},{"bufferView":6,"componentType":5126,"count":24,"type":"MAT4"},{"bufferView":7,"componentType":5126,"count":5,"type":"SCALAR","min":[0.0],"max":[2.4]},{"bufferView":8,"componentType":5126,"count":5,"type":"VEC4"},{"bufferView":9,"componentType":5126,"count":5,"type":"SCALAR","min":[0.0],"max":[2.4]},{"bufferView":10,"componentType":5126,"count":5,"type":"VEC4"},{"bufferView":11,"componentType":5126,"count":5,"type":"SCALAR","min":[0.0],"max":[2.4]},{"bufferView":12,"componentType":5126,"count":5,"type":"VEC4"},{"bufferView":13,"componentType":5126,"count":5,"type":"SCALAR","min":[0.0],"max":[2.4]},{"bufferView":14,"componentType":5126,"count":5,"type":"VEC4"},{"bufferView":15,"componentType":5126,"count":5,"type":"SCALAR","min":[0.0],"max":[2.4]},{"bufferView":16,"componentType":5126,"count":5,"type":"VEC4"},{"bufferView":17,"componentType":5126,"count":5,"type":"SCALAR","min":[0.0],"max":[2.4]},{"bufferView":18,"componentType":5126,"count":5,"type":"VEC4"},{"bufferView":19,"componentType":5126,"count":5,"type":"SCALAR","min":[0.0],"max":[2.4]},{"bufferView":20,"componentType":5126,"count":5,"type":"VEC4"},{"bufferView":21,"componentType":5126,"count":5,"type":"SCALAR","min":[0.0],"max":[2.4]},{"bufferView":22,"componentType":5126,"count":5,"type":"VEC4"},{"bufferView":23,"componentType":5126,"count":5,"type":"SCALAR","min":[0.0],"max":[2.4]},{"bufferView":24,"componentType":5126,"count":5,"type":"VEC4"},{"bufferView":25,"componentType":5126,"count":5,"type":"SCALAR","min":[0.0],"max":[2.4]},{"bufferView":26,"componentType":5126,"count":5,"type":"VEC4"},{"bufferView":27,"componentType":5126,"count":5,"type":"SCALAR","min":[0.0],"max":[2.4]},{"bufferView":28,"componentType":5126,"count":5,"type":"VEC4"},{"bufferView":29,"componentType":5126,"count":5,"type":"SCALAR","min":[0.0],"max":[2.4]},{"bufferView":30,"componentType":5126,"count":5,"type":"VEC4"},{"bufferView":31,"componentType":5126,"count":5,"type":"SCALAR","min":[0.0],"max":[2.4]},{"bufferView":32,"componentType":5126,"count":5,"type":"VEC4"},{"bufferView":33,"componentType":5126,"count":5,"type":"SCALAR","min":[0.0],"max":[2.4]},{"bufferView":34,"componentType":5126,"count":5,"type":"VEC4"},{"bufferView":35,"componentType":5126,"count":5,"type":"SCALAR","min":[0.0],"max":[2.4]},{"bufferView":36,"componentType":5126,"count":5,"type":"VEC4"},{"bufferView":37,"componentType":5126,"count":5,"type":"SCALAR","min":[0.0],"max":[2.4]},{"bufferView":38,"componentType":5126,"count":5,"type":"VEC4"},{"bufferView":39,"componentType":5126,"count":5,"type":"SCALAR","min":[0.0],"max":[2.4]},{"bufferView":40,"componentType":5126,"count":5,"type":"VEC4"},{"bufferView":41,"componentType":5126,"count":5,"type":"SCALAR","min":[0.0],"max":[2.4]},{"bufferView":42,"componentType":5126,"count":5,"type":"VEC4"},{"bufferView":43,"componentType":5126,"count":5,"type":"SCALAR","min":[0.0],"max":[2.4]},{"bufferView":44,"componentType":5126,"count":5,"type":"VEC4"},{"bufferView":45,"componentType":5126,"count":5,"type":"SCALAR","min":[0.0],"max":[2.4]},{"bufferView":46,"componentType":5126,"count":5,"type":"VEC4"},{"bufferView":47,"componentType":5126,"count":5,"type":"SCALAR","min":[0.0],"max":[2.4]},{"bufferView":48,"componentType":5126,"count":5,"type":"VEC4"},{"bufferView":49,"componentType":5126,"count":5,"type":"SCALAR","min":[0.0],"max":[2.4]},{"bufferView":50,"componentType":5126,"count":5,"type":"VEC4"},{"bufferView":51,"componentType":5126,"count":5,"type":"SCALAR","min":[0.0],"max":[2.4]},{"bufferView":52,"componentType":5126,"count":5,"type":"VEC4"},{"bufferView":53,"componentType":5126,"count":5,"type":"SCALAR","min":[0.0],"max":[2.4]},{"bufferView":54,"componentType":5126,"count":5,"type":"VEC4"},{"bufferView":55,"componentType":5126,"count":5,"type":"SCALAR","min":[0.0],"max":[0.85]},{"bufferView":56,"componentType":5126,"count":5,"type":"VEC4"},{"bufferView":57,"componentType":5126,"count":5,"type":"SCALAR","min":[0.0],"max":[0.85]},{"bufferView":58,"componentType":5126,"count":5,"type":"VEC4"},{"bufferView":59,"componentType":5126,"count":5,"type":"SCALAR","min":[0.0],"max":[0.85]},{"bufferView":60,"componentType":5126,"count":5,"type":"VEC4"},{"bufferView":61,"componentType":5126,"count":5,"type":"SCALAR","min":[0.0],"max":[0.85]},{"bufferView":62,"componentType":5126,"count":5,"type":"VEC4"},{"bufferView":63,"componentType":5126,"count":5,"type":"SCALAR","min":[0.0],"max":[0.85]},{"bufferView":64,"componentType":5126,"count":5,"type":"VEC4"},{"bufferView":65,"componentType":5126,"count":5,"type":"SCALAR","min":[0.0],"max":[0.85]},{"bufferView":66,"componentType":5126,"count":5,"type":"VEC4"},{"bufferView":67,"componentType":5126,"count":5,"type":"SCALAR","min":[0.0],"max":[0.85]},{"bufferView":68,"componentType":5126,"count":5,"type":"VEC4"},{"bufferView":69,"componentType":5126,"count":5,"type":"SCALAR","min":[0.0],"max":[0.85]},{"bufferView":70,"componentType":5126,"count":5,"type":"VEC4"},{"bufferView":71,"componentType":5126,"count":5,"type":"SCALAR","min":[0.0],"max":[0.85]},{"bufferView":72,"componentType":5126,"count":5,"type":"VEC4"},{"bufferView":73,"componentType":5126,"count":5,"type":"SCALAR","min":[0.0],"max":[0.85]},{"bufferView":74,"componentType":5126,"count":5,"type":"VEC4"},{"bufferView":75,"componentType":5126,"count":5,"type":"SCALAR","min":[0.0],"max":[0.85]},{"bufferView":76,"componentType":5126,"count":5,"type":"VEC4"},{"bufferView":77,"componentType":5126,"count":5,"type":"SCALAR","min":[0.0],"max":[0.85]},{"bufferView":78,"componentType":5126,"count":5,"type":"VEC4"},{"bufferView":79,"componentType":5126,"count":5,"type":"SCALAR","min":[0.0],"max":[0.85]},{"bufferView":80,"componentType":5126,"count":5,"type":"VEC4"},{"bufferView":81,"componentType":5126,"count":5,"type":"SCALAR","min":[0.0],"max":[0.85]},{"bufferView":82,"componentType":5126,"count":5,"type":"VEC4"},{"bufferView":83,"componentType":5126,"count":5,"type":"SCALAR","min":[0.0],"max":[0.85]},{"bufferView":84,"componentType":5126,"count":5,"type":"VEC4"},{"bufferView":85,"componentType":5126,"count":5,"type":"SCALAR","min":[0.0],"max":[0.85]},{"bufferView":86,"componentType":5126,"count":5,"type":"VEC4"},{"bufferView":87,"componentType":5126,"count":5,"type":"SCALAR","min":[0.0],"max":[0.85]},{"bufferView":88,"componentType":5126,"count":5,"type":"VEC4"},{"bufferView":89,"componentType":5126,"count":5,"type":"SCALAR","min":[0.0],"max":[0.85]},{"bufferView":90,"componentType":5126,"count":5,"type":"VEC4"},{"bufferView":91,"componentType":5126,"count":5,"type":"SCALAR","min":[0.0],"max":[0.85]},{"bufferView":92,"componentType":5126,"count":5,"type":"VEC4"},{"bufferView":93,"componentType":5126,"count":5,"type":"SCALAR","min":[0.0],"max":[0.85]},{"bufferView":94,"componentType":5126,"count":5,"type":"VEC4"},{"bufferView":95,"componentType":5126,"count":5,"type":"SCALAR","min":[0.0],"max":[0.85]},{"bufferView":96,"componentType":5126,"count":5,"type":"VEC4"},{"bufferView":97,"componentType":5126,"count":5,"type":"SCALAR","min":[0.0],"max":[0.85]},{"bufferView":98,"componentType":5126,"count":5,"type":"VEC4"},{"bufferView":99,"componentType":5126,"count":5,"type":"SCALAR","min":[0.0],"max":[0.85]},{"bufferView":100,"componentType":5126,"count":5,"type":"VEC4"},{"bufferView":101,"componentType":5126,"count":5,"type":"SCALAR","min":[0.0],"max":[0.85]},{"bufferView":102,"componentType":5126,"count":5,"type":"VEC4"},{"bufferView":103,"componentType":5126,"count":5,"type":"SCALAR","min":[0.0],"max":[0.6]},{"bufferView":104,"componentType":5126,"count":5,"type":"VEC4"},{"bufferView":105,"componentType":5126,"count":5,"type":"SCALAR","min":[0.0],"max":[0.6]},{"bufferView":106,"componentType":5126,"count":5,"type":"VEC4"},{"bufferView":107,"componentType":5126,"count":5,"type":"SCALAR","min":[0.0],"max":[0.6]},{"bufferView":108,"componentType":5126,"count":5,"type":"VEC4"},{"bufferView":109,"componentType":5126,"count":5,"type":"SCALAR","min":[0.0],"max":[0.6]},{"bufferView":110,"componentType":5126,"count":5,"type":"VEC4"},{"bufferView":111,"componentType":5126,"count":5,"type":"SCALAR","min":[0.0],"max":[0.6]},{"bufferView":112,"componentType":5126,"count":5,"type":"VEC4"},{"bufferView":113,"componentType":5126,"count":5,"type":"SCALAR","min":[0.0],"max":[0.6]},{"bufferView":114,"componentType":5126,"count":5,"type":"VEC4"},{"bufferView":115,"componentType":5126,"count":5,"type":"SCALAR","min":[0.0],"max":[0.6]},{"bufferView":116,"componentType":5126,"count":5,"type":"VEC4"},{"bufferView":117,"componentType":5126,"count":5,"type":"SCALAR","min":[0.0],"max":[0.6]},{"bufferView":118,"componentType":5126,"count":5,"type":"VEC4"},{"bufferView":119,"componentType":5126,"count":5,"type":"SCALAR","min":[0.0],"max":[0.6]},{"bufferView":120,"componentType":5126,"count":5,"type":"VEC4"},{"bufferView":121,"componentType":5126,"count":5,"type":"SCALAR","min":[0.0],"max":[0.6]},{"bufferView":122,"componentType":5126,"count":5,"type":"VEC4"},{"bufferView":123,"componentType":5126,"count":5,"type":"SCALAR","min":[0.0],"max":[0.6]},{"bufferView":124,"componentType":5126,"count":5,"type":"VEC4"},{"bufferView":125,"componentType":5126,"count":5,"type":"SCALAR","min":[0.0],"max":[0.6]},{"bufferView":126,"componentType":5126,"count":5,"type":"VEC4"},{"bufferView":127,"componentType":5126,"count":5,"type":"SCALAR","min":[0.0],"max":[0.6]},{"bufferView":128,"componentType":5126,"count":5,"type":"VEC4"},{"bufferView":129,"componentType":5126,"count":5,"type":"SCALAR","min":[0.0],"max":[0.6]},{"bufferView":130,"componentType":5126,"count":5,"type":"VEC4"},{"bufferView":131,"componentType":5126,"count":5,"type":"SCALAR","min":[0.0],"max":[0.6]},{"bufferView":132,"componentType":5126,"count":5,"type":"VEC4"},{"bufferView":133,"componentType":5126,"count":5,"type":"SCALAR","min":[0.0],"max":[0.6]},{"bufferView":134,"componentType":5126,"count":5,"type":"VEC4"},{"bufferView":135,"componentType":5126,"count":5,"type":"SCALAR","min":[0.0],"max":[0.6]},{"bufferView":136,"componentType":5126,"count":5,"type":"VEC4"},{"bufferView":137,"componentType":5126,"count":5,"type":"SCALAR","min":[0.0],"max":[0.6]},{"bufferView":138,"componentType":5126,"count":5,"type":"VEC4"},{"bufferView":139,"componentType":5126,"count":5,"type":"SCALAR","min":[0.0],"max":[0.6]},{"bufferView":140,"componentType":5126,"count":5,"type":"VEC4"},{"bufferView":141,"componentType":5126,"count":5,"type":"SCALAR","min":[0.0],"max":[0.6]},{"bufferView":142,"componentType":5126,"count":5,"type":"VEC4"},{"bufferView":143,"componentType":5126,"count":5,"type":"SCALAR","min":[0.0],"max":[0.6]},{"bufferView":144,"componentType":5126,"count":5,"type":"VEC4"},{"bufferView":145,"componentType":5126,"count":5,"type":"SCALAR","min":[0.0],"max":[0.6]},{"bufferView":146,"componentType":5126,"count":5,"type":"VEC4"},{"bufferView":147,"componentType":5126,"count":5,"type":"SCALAR","min":[0.0],"max":[0.6]},{"bufferView":148,"componentType":5126,"count":5,"type":"VEC4"},{"bufferView":149,"componentType":5126,"count":5,"type":"SCALAR","min":[0.0],"max":[0.6]},{"bufferView":150,"componentType":5126,"count":5,"type":"VEC4"},{"bufferView":151,"componentType":5126,"count":5,"type":"SCALAR","min":[0.0],"max":[0.95]},{"bufferView":152,"componentType":5126,"count":5,"type":"VEC4"},{"bufferView":153,"componentType":5126,"count":5,"type":"SCALAR","min":[0.0],"max":[0.95]},{"bufferView":154,"componentType":5126,"count":5,"type":"VEC4"},{"bufferView":155,"componentType":5126,"count":5,"type":"SCALAR","min":[0.0],"max":[0.95]},{"bufferView":156,"componentType":5126,"count":5,"type":"VEC4"},{"bufferView":157,"componentType":5126,"count":5,"type":"SCALAR","min":[0.0],"max":[0.95]},{"bufferView":158,"componentType":5126,"count":5,"type":"VEC4"},{"bufferView":159,"componentType":5126,"count":5,"type":"SCALAR","min":[0.0],"max":[0.95]},{"bufferView":160,"componentType":5126,"count":5,"type":"VEC4"},{"bufferView":161,"componentType":5126,"count":5,"type":"SCALAR","min":[0.0],"max":[0.95]},{"bufferView":162,"componentType":5126,"count":5,"type":"VEC4"},{"bufferView":163,"componentType":5126,"count":5,"type":"SCALAR","min":[0.0],"max":[0.95]},{"bufferView":164,"componentType":5126,"count":5,"type":"VEC4"},{"bufferView":165,"componentType":5126,"count":5,"type":"SCALAR","min":[0.0],"max":[0.95]},{"bufferView":166,"componentType":5126,"count":5,"type":"VEC4"},{"bufferView":167,"componentType":5126,"count":5,"type":"SCALAR","min":[0.0],"max":[0.95]},{"bufferView":168,"componentType":5126,"count":5,"type":"VEC4"},{"bufferView":169,"componentType":5126,"count":5,"type":"SCALAR","min":[0.0],"max":[0.95]},{"bufferView":170,"componentType":5126,"count":5,"type":"VEC4"},{"bufferView":171,"componentType":5126,"count":5,"type":"SCALAR","min":[0.0],"max":[0.95]},{"bufferView":172,"componentType":5126,"count":5,"type":"VEC4"},{"bufferView":173,"componentType":5126,"count":5,"type":"SCALAR","min":[0.0],"max":[0.95]},{"bufferView":174,"componentType":5126,"count":5,"type":"VEC4"},{"bufferView":175,"componentType":5126,"count":5,"type":"SCALAR","min":[0.0],"max":[0.95]},{"bufferView":176,"componentType":5126,"count":5,"type":"VEC4"},{"bufferView":177,"componentType":5126,"count":5,"type":"SCALAR","min":[0.0],"max":[0.95]},{"bufferView":178,"componentType":5126,"count":5,"type":"VEC4"},{"bufferView":179,"componentType":5126,"count":5,"type":"SCALAR","min":[0.0],"max":[0.95]},{"bufferView":180,"componentType":5126,"count":5,"type":"VEC4"},{"bufferView":181,"componentType":5126,"count":5,"type":"SCALAR","min":[0.0],"max":[0.95]},{"bufferView":182,"componentType":5126,"count":5,"type":"VEC4"},{"bufferView":183,"componentType":5126,"count":5,"type":"SCALAR","min":[0.0],"max":[0.95]},{"bufferView":184,"componentType":5126,"count":5,"type":"VEC4"},{"bufferView":185,"componentType":5126,"count":5,"type":"SCALAR","min":[0.0],"max":[0.95]},{"bufferView":186,"componentType":5126,"count":5,"type":"VEC4"},{"bufferView":187,"componentType":5126,"count":5,"type":"SCALAR","min":[0.0],"max":[0.95]},{"bufferView":188,"componentType":5126,"count":5,"type":"VEC4"},{"bufferView":189,"componentType":5126,"count":5,"type":"SCALAR","min":[0.0],"max":[0.95]},{"bufferView":190,"componentType":5126,"count":5,"type":"VEC4"},{"bufferView":191,"componentType":5126,"count":5,"type":"SCALAR","min":[0.0],"max":[0.95]},{"bufferView":192,"componentType":5126,"count":5,"type":"VEC4"},{"bufferView":193,"componentType":5126,"count":5,"type":"SCALAR","min":[0.0],"max":[0.95]},{"bufferView":194,"componentType":5126,"count":5,"type":"VEC4"},{"bufferView":195,"componentType":5126,"count":5,"type":"SCALAR","min":[0.0],"max":[0.95]},{"bufferView":196,"componentType":5126,"count":5,"type":"VEC4"},{"bufferView":197,"componentType":5126,"count":5,"type":"SCALAR","min":[0.0],"max":[0.95]},{"bufferView":198,"componentType":5126,"count":5,"type":"VEC4"},{"bufferView":199,"componentType":5126,"count":5,"type":"SCALAR","min":[0.0],"max":[0.95]},{"bufferView":200,"componentType":5126,"count":5,"type":"VEC4"},{"bufferView":201,"componentType":5126,"count":5,"type":"SCALAR","min":[0.0],"max":[0.95]},{"bufferView":202,"componentType":5126,"count":5,"type":"VEC4"},{"bufferView":203,"componentType":5126,"count":5,"type":"SCALAR","min":[0.0],"max":[0.95]},{"bufferView":204,"componentType":5126,"count":5,"type":"VEC4"},{"bufferView":205,"componentType":5126,"count":5,"type":"SCALAR","min":[0.0],"max":[0.95]},{"bufferView":206,"componentType":5126,"count":5,"type":"VEC4"},{"bufferView":207,"componentType":5126,"count":5,"type":"SCALAR","min":[0.0],"max":[0.95]},{"bufferView":208,"componentType":5126,"count":5,"type":"VEC4"},{"bufferView":209,"componentType":5126,"count":5,"type":"SCALAR","min":[0.0],"max":[0.95]},{"bufferView":210,"componentType":5126,"count":5,"type":"VEC4"},{"bufferView":211,"componentType":5126,"count":5,"type":"SCALAR","min":[0.0],"max":[0.95]},{"bufferView":212,"componentType":5126,"count":5,"type":"VEC4"},{"bufferView":213,"componentType":5126,"count":5,"type":"SCALAR","min":[0.0],"max":[0.95]},{"bufferView":214,"componentType":5126,"count":5,"type":"VEC4"},{"bufferView":215,"componentType":5126,"count":5,"type":"SCALAR","min":[0.0],"max":[0.95]},{"bufferView":216,"componentType":5126,"count":5,"type":"VEC4"},{"bufferView":217,"componentType":5126,"count":5,"type":"SCALAR","min":[0.0],"max":[0.95]},{"bufferView":218,"componentType":5126,"count":5,"type":"VEC4"},{"bufferView":219,"componentType":5126,"count":5,"type":"SCALAR","min":[0.0],"max":[0.95]},{"bufferView":220,"componentType":5126,"count":5,"type":"VEC4"},{"bufferView":221,"componentType":5126,"count":5,"type":"SCALAR","min":[0.0],"max":[0.95]},{"bufferView":222,"componentType":5126,"count":5,"type":"VEC4"},{"bufferView":223,"componentType":5126,"count":5,"type":"SCALAR","min":[0.0],"max":[0.95]},{"bufferView":224,"componentType":5126,"count":5,"type":"VEC4"},{"bufferView":225,"componentType":5126,"count":5,"type":"SCALAR","min":[0.0],"max":[0.95]},{"bufferView":226,"componentType":5126,"count":5,"type":"VEC4"},{"bufferView":227,"componentType":5126,"count":5,"type":"SCALAR","min":[0.0],"max":[0.95]},{"bufferView":228,"componentType":5126,"count":5,"type":"VEC4"},{"bufferView":229,"componentType":5126,"count":5,"type":"SCALAR","min":[0.0],"max":[0.95]},{"bufferView":230,"componentType":5126,"count":5,"type":"VEC4"},{"bufferView":231,"componentType":5126,"count":5,"type":"SCALAR","min":[0.0],"max":[0.95]},{"bufferView":232,"componentType":5126,"count":5,"type":"VEC4"},{"bufferView":233,"componentType":5126,"count":5,"type":"SCALAR","min":[0.0],"max":[0.95]},{"bufferView":234,"componentType":5126,"count":5,"type":"VEC4"},{"bufferView":235,"componentType":5126,"count":5,"type":"SCALAR","min":[0.0],"max":[0.95]},{"bufferView":236,"componentType":5126,"count":5,"type":"VEC4"},{"bufferView":237,"componentType":5126,"count":5,"type":"SCALAR","min":[0.0],"max":[0.95]},{"bufferView":238,"componentType":5126,"count":5,"type":"VEC4"},{"bufferView":239,"componentType":5126,"count":5,"type":"SCALAR","min":[0.0],"max":[0.95]},{"bufferView":240,"componentType":5126,"count":5,"type":"VEC4"},{"bufferView":241,"componentType":5126,"count":5,"type":"SCALAR","min":[0.0],"max":[0.95]},{"bufferView":242,"componentType":5126,"count":5,"type":"VEC4"},{"bufferView":243,"componentType":5126,"count":5,"type":"SCALAR","min":[0.0],"max":[0.95]},{"bufferView":244,"componentType":5126,"count":5,"type":"VEC4"},{"bufferView":245,"componentType":5126,"count":5,"type":"SCALAR","min":[0.0],"max":[0.95]},{"bufferView":246,"componentType":5126,"count":5,"type":"VEC4"},{"bufferView":247,"componentType":5126,"count":5,"type":"SCALAR","min":[0.0],"max":[1.25]},{"bufferView":248,"componentType":5126,"count":5,"type":"VEC4"},{"bufferView":249,"componentType":5126,"count":5,"type":"SCALAR","min":[0.0],"max":[1.25]},{"bufferView":250,"componentType":5126,"count":5,"type":"VEC4"},{"bufferView":251,"componentType":5126,"count":5,"type":"SCALAR","min":[0.0],"max":[1.25]},{"bufferView":252,"componentType":5126,"count":5,"type":"VEC4"},{"bufferView":253,"componentType":5126,"count":5,"type":"SCALAR","min":[0.0],"max":[1.25]},{"bufferView":254,"componentType":5126,"count":5,"type":"VEC4"},{"bufferView":255,"componentType":5126,"count":5,"type":"SCALAR","min":[0.0],"max":[1.25]},{"bufferView":256,"componentType":5126,"count":5,"type":"VEC4"},{"bufferView":257,"componentType":5126,"count":5,"type":"SCALAR","min":[0.0],"max":[1.25]},{"bufferView":258,"componentType":5126,"count":5,"type":"VEC4"},{"bufferView":259,"componentType":5126,"count":5,"type":"SCALAR","min":[0.0],"max":[1.25]},{"bufferView":260,"componentType":5126,"count":5,"type":"VEC4"},{"bufferView":261,"componentType":5126,"count":5,"type":"SCALAR","min":[0.0],"max":[1.25]},{"bufferView":262,"componentType":5126,"count":5,"type":"VEC4"},{"bufferView":263,"componentType":5126,"count":5,"type":"SCALAR","min":[0.0],"max":[1.25]},{"bufferView":264,"componentType":5126,"count":5,"type":"VEC4"},{"bufferView":265,"componentType":5126,"count":5,"type":"SCALAR","min":[0.0],"max":[1.25]},{"bufferView":266,"componentType":5126,"count":5,"type":"VEC4"},{"bufferView":267,"componentType":5126,"count":5,"type":"SCALAR","min":[0.0],"max":[1.25]},{"bufferView":268,"componentType":5126,"count":5,"type":"VEC4"},{"bufferView":269,"componentType":5126,"count":5,"type":"SCALAR","min":[0.0],"max":[1.25]},{"bufferView":270,"componentType":5126,"count":5,"type":"VEC4"},{"bufferView":271,"componentType":5126,"count":5,"type":"SCALAR","min":[0.0],"max":[1.25]},{"bufferView":272,"componentType":5126,"count":5,"type":"VEC4"},{"bufferView":273,"componentType":5126,"count":5,"type":"SCALAR","min":[0.0],"max":[1.25]},{"bufferView":274,"componentType":5126,"count":5,"type":"VEC4"},{"bufferView":275,"componentType":5126,"count":5,"type":"SCALAR","min":[0.0],"max":[1.25]},{"bufferView":276,"componentType":5126,"count":5,"type":"VEC4"},{"bufferView":277,"componentType":5126,"count":5,"type":"SCALAR","min":[0.0],"max":[1.25]},{"bufferView":278,"componentType":5126,"count":5,"type":"VEC4"},{"bufferView":279,"componentType":5126,"count":5,"type":"SCALAR","min":[0.0],"max":[1.25]},{"bufferView":280,"componentType":5126,"count":5,"type":"VEC4"},{"bufferView":281,"componentType":5126,"count":5,"type":"SCALAR","min":[0.0],"max":[1.25]},{"bufferView":282,"componentType":5126,"count":5,"type":"VEC4"},{"bufferView":283,"componentType":5126,"count":5,"type":"SCALAR","min":[0.0],"max":[1.25]},{"bufferView":284,"componentType":5126,"count":5,"type":"VEC4"},{"bufferView":285,"componentType":5126,"count":5,"type":"SCALAR","min":[0.0],"max":[1.25]},{"bufferView":286,"componentType":5126,"count":5,"type":"VEC4"},{"bufferView":287,"componentType":5126,"count":5,"type":"SCALAR","min":[0.0],"max":[1.25]},{"bufferView":288,"componentType":5126,"count":5,"type":"VEC4"},{"bufferView":289,"componentType":5126,"count":5,"type":"SCALAR","min":[0.0],"max":[1.25]},{"bufferView":290,"componentType":5126,"count":5,"type":"VEC4"},{"bufferView":291,"componentType":5126,"count":5,"type":"SCALAR","min":[0.0],"max":[1.25]},{"bufferView":292,"componentType":5126,"count":5,"type":"VEC4"},{"bufferView":293,"componentType":5126,"count":5,"type":"SCALAR","min":[0.0],"max":[1.25]},{"bufferView":294,"componentType":5126,"count":5,"type":"VEC4"},{"bufferView":295,"componentType":5126,"count":5,"type":"SCALAR","min":[0.0],"max":[0.25]},{"bufferView":296,"componentType":5126,"count":5,"type":"VEC4"},{"bufferView":297,"componentType":5126,"count":5,"type":"SCALAR","min":[0.0],"max":[0.25]},{"bufferView":298,"componentType":5126,"count":5,"type":"VEC4"},{"bufferView":299,"componentType":5126,"count":5,"type":"SCALAR","min":[0.0],"max":[0.25]},{"bufferView":300,"componentType":5126,"count":5,"type":"VEC4"},{"bufferView":301,"componentType":5126,"count":5,"type":"SCALAR","min":[0.0],"max":[0.25]},{"bufferView":302,"componentType":5126,"count":5,"type":"VEC4"},{"bufferView":303,"componentType":5126,"count":5,"type":"SCALAR","min":[0.0],"max":[0.25]},{"bufferView":304,"componentType":5126,"count":5,"type":"VEC4"},{"bufferView":305,"componentType":5126,"count":5,"type":"SCALAR","min":[0.0],"max":[0.25]},{"bufferView":306,"componentType":5126,"count":5,"type":"VEC4"},{"bufferView":307,"componentType":5126,"count":5,"type":"SCALAR","min":[0.0],"max":[0.25]},{"bufferView":308,"componentType":5126,"count":5,"type":"VEC4"},{"bufferView":309,"componentType":5126,"count":5,"type":"SCALAR","min":[0.0],"max":[0.25]},{"bufferView":310,"componentType":5126,"count":5,"type":"VEC4"},{"bufferView":311,"componentType":5126,"count":5,"type":"SCALAR","min":[0.0],"max":[0.25]},{"bufferView":312,"componentType":5126,"count":5,"type":"VEC4"},{"bufferView":313,"componentType":5126,"count":5,"type":"SCALAR","min":[0.0],"max":[0.25]},{"bufferView":314,"componentType":5126,"count":5,"type":"VEC4"},{"bufferView":315,"componentType":5126,"count":5,"type":"SCALAR","min":[0.0],"max":[0.25]},{"bufferView":316,"componentType":5126,"count":5,"type":"VEC4"},{"bufferView":317,"componentType":5126,"count":5,"type":"SCALAR","min":[0.0],"max":[0.25]},{"bufferView":318,"componentType":5126,"count":5,"type":"VEC4"},{"bufferView":319,"componentType":5126,"count":5,"type":"SCALAR","min":[0.0],"max":[0.25]},{"bufferView":320,"componentType":5126,"count":5,"type":"VEC4"},{"bufferView":321,"componentType":5126,"count":5,"type":"SCALAR","min":[0.0],"max":[0.25]},{"bufferView":322,"componentType":5126,"count":5,"type":"VEC4"},{"bufferView":323,"componentType":5126,"count":5,"type":"SCALAR","min":[0.0],"max":[0.25]},{"bufferView":324,"componentType":5126,"count":5,"type":"VEC4"},{"bufferView":325,"componentType":5126,"count":5,"type":"SCALAR","min":[0.0],"max":[0.25]},{"bufferView":326,"componentType":5126,"count":5,"type":"VEC4"},{"bufferView":327,"componentType":5126,"count":5,"type":"SCALAR","min":[0.0],"max":[0.25]},{"bufferView":328,"componentType":5126,"count":5,"type":"VEC4"},{"bufferView":329,"componentType":5126,"count":5,"type":"SCALAR","min":[0.0],"max":[0.25]},{"bufferView":330,"componentType":5126,"count":5,"type":"VEC4"},{"bufferView":331,"componentType":5126,"count":5,"type":"SCALAR","min":[0.0],"max":[0.25]},{"bufferView":332,"componentType":5126,"count":5,"type":"VEC4"},{"bufferView":333,"componentType":5126,"count":5,"type":"SCALAR","min":[0.0],"max":[0.25]},{"bufferView":334,"componentType":5126,"count":5,"type":"VEC4"},{"bufferView":335,"componentType":5126,"count":5,"type":"SCALAR","min":[0.0],"max":[0.25]},{"bufferView":336,"componentType":5126,"count":5,"type":"VEC4"},{"bufferView":337,"componentType":5126,"count":5,"type":"SCALAR","min":[0.0],"max":[0.25]},{"bufferView":338,"componentType":5126,"count":5,"type":"VEC4"},{"bufferView":339,"componentType":5126,"count":5,"type":"SCALAR","min":[0.0],"max":[0.25]},{"bufferView":340,"componentType":5126,"count":5,"type":"VEC4"},{"bufferView":341,"componentType":5126,"count":5,"type":"SCALAR","min":[0.0],"max":[0.25]},{"bufferView":342,"componentType":5126,"count":5,"type":"VEC4"},{"bufferView":343,"componentType":5126,"count":5,"type":"SCALAR","min":[0.0],"max":[0.35]},{"bufferView":344,"componentType":5126,"count":5,"type":"VEC4"},{"bufferView":345,"componentType":5126,"count":5,"type":"SCALAR","min":[0.0],"max":[0.35]},{"bufferView":346,"componentType":5126,"count":5,"type":"VEC4"},{"bufferView":347,"componentType":5126,"count":5,"type":"SCALAR","min":[0.0],"max":[0.35]},{"bufferView":348,"componentType":5126,"count":5,"type":"VEC4"},{"bufferView":349,"componentType":5126,"count":5,"type":"SCALAR","min":[0.0],"max":[0.35]},{"bufferView":350,"componentType":5126,"count":5,"type":"VEC4"},{"bufferView":351,"componentType":5126,"count":5,"type":"SCALAR","min":[0.0],"max":[0.35]},{"bufferView":352,"componentType":5126,"count":5,"type":"VEC4"},{"bufferView":353,"componentType":5126,"count":5,"type":"SCALAR","min":[0.0],"max":[0.35]},{"bufferView":354,"componentType":5126,"count":5,"type":"VEC4"},{"bufferView":355,"componentType":5126,"count":5,"type":"SCALAR","min":[0.0],"max":[0.35]},{"bufferView":356,"componentType":5126,"count":5,"type":"VEC4"},{"bufferView":357,"componentType":5126,"count":5,"type":"SCALAR","min":[0.0],"max":[0.35]},{"bufferView":358,"componentType":5126,"count":5,"type":"VEC4"},{"bufferView":359,"componentType":5126,"count":5,"type":"SCALAR","min":[0.0],"max":[0.35]},{"bufferView":360,"componentType":5126,"count":5,"type":"VEC4"},{"bufferView":361,"componentType":5126,"count":5,"type":"SCALAR","min":[0.0],"max":[0.35]},{"bufferView":362,"componentType":5126,"count":5,"type":"VEC4"},{"bufferView":363,"componentType":5126,"count":5,"type":"SCALAR","min":[0.0],"max":[0.35]},{"bufferView":364,"componentType":5126,"count":5,"type":"VEC4"},{"bufferView":365,"componentType":5126,"count":5,"type":"SCALAR","min":[0.0],"max":[0.35]},{"bufferView":366,"componentType":5126,"count":5,"type":"VEC4"},{"bufferView":367,"componentType":5126,"count":5,"type":"SCALAR","min":[0.0],"max":[0.35]},{"bufferView":368,"componentType":5126,"count":5,"type":"VEC4"},{"bufferView":369,"componentType":5126,"count":5,"type":"SCALAR","min":[0.0],"max":[0.35]},{"bufferView":370,"componentType":5126,"count":5,"type":"VEC4"},{"bufferView":371,"componentType":5126,"count":5,"type":"SCALAR","min":[0.0],"max":[0.35]},{"bufferView":372,"componentType":5126,"count":5,"type":"VEC4"},{"bufferView":373,"componentType":5126,"count":5,"type":"SCALAR","min":[0.0],"max":[0.35]},{"bufferView":374,"componentType":5126,"count":5,"type":"VEC4"},{"bufferView":375,"componentType":5126,"count":5,"type":"SCALAR","min":[0.0],"max":[0.35]},{"bufferView":376,"componentType":5126,"count":5,"type":"VEC4"},{"bufferView":377,"componentType":5126,"count":5,"type":"SCALAR","min":[0.0],"max":[0.35]},{"bufferView":378,"componentType":5126,"count":5,"type":"VEC4"},{"bufferView":379,"componentType":5126,"count":5,"type":"SCALAR","min":[0.0],"max":[0.35]},{"bufferView":380,"componentType":5126,"count":5,"type":"VEC4"},{"bufferView":381,"componentType":5126,"count":5,"type":"SCALAR","min":[0.0],"max":[0.35]},{"bufferView":382,"componentType":5126,"count":5,"type":"VEC4"},{"bufferView":383,"componentType":5126,"count":5,"type":"SCALAR","min":[0.0],"max":[0.35]},{"bufferView":384,"componentType":5126,"count":5,"type":"VEC4"},{"bufferView":385,"componentType":5126,"count":5,"type":"SCALAR","min":[0.0],"max":[0.35]},{"bufferView":386,"componentType":5126,"count":5,"type":"VEC4"},{"bufferView":387,"componentType":5126,"count":5,"type":"SCALAR","min":[0.0],"max":[0.35]},{"bufferView":388,"componentType":5126,"count":5,"type":"VEC4"},{"bufferView":389,"componentType":5126,"count":5,"type":"SCALAR","min":[0.0],"max":[0.35]},{"bufferView":390,"componentType":5126,"count":5,"type":"VEC4"},{"bufferView":391,"componentType":5126,"count":5,"type":"SCALAR","min":[0.0],"max":[0.4]},{"bufferView":392,"componentType":5126,"count":5,"type":"VEC4"},{"bufferView":393,"componentType":5126,"count":5,"type":"SCALAR","min":[0.0],"max":[0.4]},{"bufferView":394,"componentType":5126,"count":5,"type":"VEC4"},{"bufferView":395,"componentType":5126,"count":5,"type":"SCALAR","min":[0.0],"max":[0.4]},{"bufferView":396,"componentType":5126,"count":5,"type":"VEC4"},{"bufferView":397,"componentType":5126,"count":5,"type":"SCALAR","min":[0.0],"max":[0.4]},{"bufferView":398,"componentType":5126,"count":5,"type":"VEC4"},{"bufferView":399,"componentType":5126,"count":5,"type":"SCALAR","min":[0.0],"max":[0.4]},{"bufferView":400,"componentType":5126,"count":5,"type":"VEC4"},{"bufferView":401,"componentType":5126,"count":5,"type":"SCALAR","min":[0.0],"max":[0.4]},{"bufferView":402,"componentType":5126,"count":5,"type":"VEC4"},{"bufferView":403,"componentType":5126,"count":5,"type":"SCALAR","min":[0.0],"max":[0.4]},{"bufferView":404,"componentType":5126,"count":5,"type":"VEC4"},{"bufferView":405,"componentType":5126,"count":5,"type":"SCALAR","min":[0.0],"max":[0.4]},{"bufferView":406,"componentType":5126,"count":5,"type":"VEC4"},{"bufferView":407,"componentType":5126,"count":5,"type":"SCALAR","min":[0.0],"max":[0.4]},{"bufferView":408,"componentType":5126,"count":5,"type":"VEC4"},{"bufferView":409,"componentType":5126,"count":5,"type":"SCALAR","min":[0.0],"max":[0.4]},{"bufferView":410,"componentType":5126,"count":5,"type":"VEC4"},{"bufferView":411,"componentType":5126,"count":5,"type":"SCALAR","min":[0.0],"max":[0.4]},{"bufferView":412,"componentType":5126,"count":5,"type":"VEC4"},{"bufferView":413,"componentType":5126,"count":5,"type":"SCALAR","min":[0.0],"max":[0.4]},{"bufferView":414,"componentType":5126,"count":5,"type":"VEC4"},{"bufferView":415,"componentType":5126,"count":5,"type":"SCALAR","min":[0.0],"max":[0.4]},{"bufferView":416,"componentType":5126,"count":5,"type":"VEC4"},{"bufferView":417,"componentType":5126,"count":5,"type":"SCALAR","min":[0.0],"max":[0.4]},{"bufferView":418,"componentType":5126,"count":5,"type":"VEC4"},{"bufferView":419,"componentType":5126,"count":5,"type":"SCALAR","min":[0.0],"max":[0.4]},{"bufferView":420,"componentType":5126,"count":5,"type":"VEC4"},{"bufferView":421,"componentType":5126,"count":5,"type":"SCALAR","min":[0.0],"max":[0.4]},{"bufferView":422,"componentType":5126,"count":5,"type":"VEC4"},{"bufferView":423,"componentType":5126,"count":5,"type":"SCALAR","min":[0.0],"max":[0.4]},{"bufferView":424,"componentType":5126,"count":5,"type":"VEC4"},{"bufferView":425,"componentType":5126,"count":5,"type":"SCALAR","min":[0.0],"max":[0.4]},{"bufferView":426,"componentType":5126,"count":5,"type":"VEC4"},{"bufferView":427,"componentType":5126,"count":5,"type":"SCALAR","min":[0.0],"max":[0.4]},{"bufferView":428,"componentType":5126,"count":5,"type":"VEC4"},{"bufferView":429,"componentType":5126,"count":5,"type":"SCALAR","min":[0.0],"max":[0.4]},{"bufferView":430,"componentType":5126,"count":5,"type":"VEC4"},{"bufferView":431,"componentType":5126,"count":5,"type":"SCALAR","min":[0.0],"max":[0.4]},{"bufferView":432,"componentType":5126,"count":5,"type":"VEC4"},{"bufferView":433,"componentType":5126,"count":5,"type":"SCALAR","min":[0.0],"max":[0.4]},{"bufferView":434,"componentType":5126,"count":5,"type":"VEC4"},{"bufferView":435,"componentType":5126,"count":5,"type":"SCALAR","min":[0.0],"max":[0.4]},{"bufferView":436,"componentType":5126,"count":5,"type":"VEC4"},{"bufferView":437,"componentType":5126,"count":5,"type":"SCALAR","min":[0.0],"max":[0.4]},{"bufferView":438,"componentType":5126,"count":5,"type":"VEC4"},{"bufferView":439,"componentType":5126,"count":5,"type":"SCALAR","min":[0.0],"max":[0.8]},{"bufferView":440,"componentType":5126,"count":5,"type":"VEC4"},{"bufferView":441,"componentType":5126,"count":5,"type":"SCALAR","min":[0.0],"max":[0.8]},{"bufferView":442,"componentType":5126,"count":5,"type":"VEC4"},{"bufferView":443,"componentType":5126,"count":5,"type":"SCALAR","min":[0.0],"max":[0.8]},{"bufferView":444,"componentType":5126,"count":5,"type":"VEC4"},{"bufferView":445,"componentType":5126,"count":5,"type":"SCALAR","min":[0.0],"max":[0.8]},{"bufferView":446,"componentType":5126,"count":5,"type":"VEC4"},{"bufferView":447,"componentType":5126,"count":5,"type":"SCALAR","min":[0.0],"max":[0.8]},{"bufferView":448,"componentType":5126,"count":5,"type":"VEC4"},{"bufferView":449,"componentType":5126,"count":5,"type":"SCALAR","min":[0.0],"max":[0.8]},{"bufferView":450,"componentType":5126,"count":5,"type":"VEC4"},{"bufferView":451,"componentType":5126,"count":5,"type":"SCALAR","min":[0.0],"max":[0.8]},{"bufferView":452,"componentType":5126,"count":5,"type":"VEC4"},{"bufferView":453,"componentType":5126,"count":5,"type":"SCALAR","min":[0.0],"max":[0.8]},{"bufferView":454,"componentType":5126,"count":5,"type":"VEC4"},{"bufferView":455,"componentType":5126,"count":5,"type":"SCALAR","min":[0.0],"max":[0.8]},{"bufferView":456,"componentType":5126,"count":5,"type":"VEC4"},{"bufferView":457,"componentType":5126,"count":5,"type":"SCALAR","min":[0.0],"max":[0.8]},{"bufferView":458,"componentType":5126,"count":5,"type":"VEC4"},{"bufferView":459,"componentType":5126,"count":5,"type":"SCALAR","min":[0.0],"max":[0.8]},{"bufferView":460,"componentType":5126,"count":5,"type":"VEC4"},{"bufferView":461,"componentType":5126,"count":5,"type":"SCALAR","min":[0.0],"max":[0.8]},{"bufferView":462,"componentType":5126,"count":5,"type":"VEC4"},{"bufferView":463,"componentType":5126,"count":5,"type":"SCALAR","min":[0.0],"max":[0.8]},{"bufferView":464,"componentType":5126,"count":5,"type":"VEC4"},{"bufferView":465,"componentType":5126,"count":5,"type":"SCALAR","min":[0.0],"max":[0.8]},{"bufferView":466,"componentType":5126,"count":5,"type":"VEC4"},{"bufferView":467,"componentType":5126,"count":5,"type":"SCALAR","min":[0.0],"max":[0.8]},{"bufferView":468,"componentType":5126,"count":5,"type":"VEC4"},{"bufferView":469,"componentType":5126,"count":5,"type":"SCALAR","min":[0.0],"max":[0.8]},{"bufferView":470,"componentType":5126,"count":5,"type":"VEC4"},{"bufferView":471,"componentType":5126,"count":5,"type":"SCALAR","min":[0.0],"max":[0.8]},{"bufferView":472,"componentType":5126,"count":5,"type":"VEC4"},{"bufferView":473,"componentType":5126,"count":5,"type":"SCALAR","min":[0.0],"max":[0.8]},{"bufferView":474,"componentType":5126,"count":5,"type":"VEC4"},{"bufferView":475,"componentType":5126,"count":5,"type":"SCALAR","min":[0.0],"max":[0.8]},{"bufferView":476,"componentType":5126,"count":5,"type":"VEC4"},{"bufferView":477,"componentType":5126,"count":5,"type":"SCALAR","min":[0.0],"max":[0.8]},{"bufferView":478,"componentType":5126,"count":5,"type":"VEC4"},{"bufferView":479,"componentType":5126,"count":5,"type":"SCALAR","min":[0.0],"max":[0.8]},{"bufferView":480,"componentType":5126,"count":5,"type":"VEC4"},{"bufferView":481,"componentType":5126,"count":5,"type":"SCALAR","min":[0.0],"max":[0.8]},{"bufferView":482,"componentType":5126,"count":5,"type":"VEC4"},{"bufferView":483,"componentType":5126,"count":5,"type":"SCALAR","min":[0.0],"max":[0.8]},{"bufferView":484,"componentType":5126,"count":5,"type":"VEC4"},{"bufferView":485,"componentType":5126,"count":5,"type":"SCALAR","min":[0.0],"max":[0.8]},{"bufferView":486,"componentType":5126,"count":5,"type":"VEC4"},{"bufferView":487,"componentType":5126,"count":5,"type":"SCALAR","min":[0.0],"max":[1.2]},{"bufferView":488,"componentType":5126,"count":5,"type":"VEC4"},{"bufferView":489,"componentType":5126,"count":5,"type":"SCALAR","min":[0.0],"max":[1.2]},{"bufferView":490,"componentType":5126,"count":5,"type":"VEC4"},{"bufferView":491,"componentType":5126,"count":5,"type":"SCALAR","min":[0.0],"max":[1.2]},{"bufferView":492,"componentType":5126,"count":5,"type":"VEC4"},{"bufferView":493,"componentType":5126,"count":5,"type":"SCALAR","min":[0.0],"max":[1.2]},{"bufferView":494,"componentType":5126,"count":5,"type":"VEC4"},{"bufferView":495,"componentType":5126,"count":5,"type":"SCALAR","min":[0.0],"max":[1.2]},{"bufferView":496,"componentType":5126,"count":5,"type":"VEC4"},{"bufferView":497,"componentType":5126,"count":5,"type":"SCALAR","min":[0.0],"max":[1.2]},{"bufferView":498,"componentType":5126,"count":5,"type":"VEC4"},{"bufferView":499,"componentType":5126,"count":5,"type":"SCALAR","min":[0.0],"max":[1.2]},{"bufferView":500,"componentType":5126,"count":5,"type":"VEC4"},{"bufferView":501,"componentType":5126,"count":5,"type":"SCALAR","min":[0.0],"max":[1.2]},{"bufferView":502,"componentType":5126,"count":5,"type":"VEC4"},{"bufferView":503,"componentType":5126,"count":5,"type":"SCALAR","min":[0.0],"max":[1.2]},{"bufferView":504,"componentType":5126,"count":5,"type":"VEC4"},{"bufferView":505,"componentType":5126,"count":5,"type":"SCALAR","min":[0.0],"max":[1.2]},{"bufferView":506,"componentType":5126,"count":5,"type":"VEC4"},{"bufferView":507,"componentType":5126,"count":5,"type":"SCALAR","min":[0.0],"max":[1.2]},{"bufferView":508,"componentType":5126,"count":5,"type":"VEC4"},{"bufferView":509,"componentType":5126,"count":5,"type":"SCALAR","min":[0.0],"max":[1.2]},{"bufferView":510,"componentType":5126,"count":5,"type":"VEC4"},{"bufferView":511,"componentType":5126,"count":5,"type":"SCALAR","min":[0.0],"max":[1.2]},{"bufferView":512,"componentType":5126,"count":5,"type":"VEC4"},{"bufferView":513,"componentType":5126,"count":5,"type":"SCALAR","min":[0.0],"max":[1.2]},{"bufferView":514,"componentType":5126,"count":5,"type":"VEC4"},{"bufferView":515,"componentType":5126,"count":5,"type":"SCALAR","min":[0.0],"max":[1.2]},{"bufferView":516,"componentType":5126,"count":5,"type":"VEC4"},{"bufferView":517,"componentType":5126,"count":5,"type":"SCALAR","min":[0.0],"max":[1.2]},{"bufferView":518,"componentType":5126,"count":5,"type":"VEC4"},{"bufferView":519,"componentType":5126,"count":5,"type":"SCALAR","min":[0.0],"max":[1.2]},{"bufferView":520,"componentType":5126,"count":5,"type":"VEC4"},{"bufferView":521,"componentType":5126,"count":5,"type":"SCALAR","min":[0.0],"max":[1.2]},{"bufferView":522,"componentType":5126,"count":5,"type":"VEC4"},{"bufferView":523,"componentType":5126,"count":5,"type":"SCALAR","min":[0.0],"max":[1.2]},{"bufferView":524,"componentType":5126,"count":5,"type":"VEC4"},{"bufferView":525,"componentType":5126,"count":5,"type":"SCALAR","min":[0.0],"max":[1.2]},{"bufferView":526,"componentType":5126,"count":5,"type":"VEC4"},{"bufferView":527,"componentType":5126,"count":5,"type":"SCALAR","min":[0.0],"max":[1.2]},{"bufferView":528,"componentType":5126,"count":5,"type":"VEC4"},{"bufferView":529,"componentType":5126,"count":5,"type":"SCALAR","min":[0.0],"max":[1.2]},{"bufferView":530,"componentType":5126,"count":5,"type":"VEC4"},{"bufferView":531,"componentType":5126,"count":5,"type":"SCALAR","min":[0.0],"max":[1.2]},{"bufferView":532,"componentType":5126,"count":5,"type":"VEC4"},{"bufferView":533,"componentType":5126,"count":5,"type":"SCALAR","min":[0.0],"max":[1.2]},{"bufferView":534,"componentType":5126,"count":5,"type":"VEC4"}],"animations":[{"name":"idle","samplers":[{"input":7,"output":8,"interpolation":"LINEAR"},{"input":9,"output":10,"interpolation":"LINEAR"},{"input":11,"output":12,"interpolation":"LINEAR"},{"input":13,"output":14,"interpolation":"LINEAR"},{"input":15,"output":16,"interpolation":"LINEAR"},{"input":17,"output":18,"interpolation":"LINEAR"},{"input":19,"output":20,"interpolation":"LINEAR"},{"input":21,"output":22,"interpolation":"LINEAR"},{"input":23,"output":24,"interpolation":"LINEAR"},{"input":25,"output":26,"interpolation":"LINEAR"},{"input":27,"output":28,"interpolation":"LINEAR"},{"input":29,"output":30,"interpolation":"LINEAR"},{"input":31,"output":32,"interpolation":"LINEAR"},{"input":33,"output":34,"interpolation":"LINEAR"},{"input":35,"output":36,"interpolation":"LINEAR"},{"input":37,"output":38,"interpolation":"LINEAR"},{"input":39,"output":40,"interpolation":"LINEAR"},{"input":41,"output":42,"interpolation":"LINEAR"},{"input":43,"output":44,"interpolation":"LINEAR"},{"input":45,"output":46,"interpolation":"LINEAR"},{"input":47,"output":48,"interpolation":"LINEAR"},{"input":49,"output":50,"interpolation":"LINEAR"},{"input":51,"output":52,"interpolation":"LINEAR"},{"input":53,"output":54,"interpolation":"LINEAR"}],"channels":[{"sampler":0,"target":{"node":0,"path":"rotation"}},{"sampler":1,"target":{"node":1,"path":"rotation"}},{"sampler":2,"target":{"node":2,"path":"rotation"}},{"sampler":3,"target":{"node":3,"path":"rotation"}},{"sampler":4,"target":{"node":4,"path":"rotation"}},{"sampler":5,"target":{"node":5,"path":"rotation"}},{"sampler":6,"target":{"node":6,"path":"rotation"}},{"sampler":7,"target":{"node":7,"path":"rotation"}},{"sampler":8,"target":{"node":8,"path":"rotation"}},{"sampler":9,"target":{"node":9,"path":"rotation"}},{"sampler":10,"target":{"node":10,"path":"rotation"}},{"sampler":11,"target":{"node":11,"path":"rotation"}},{"sampler":12,"target":{"node":12,"path":"rotation"}},{"sampler":13,"target":{"node":13,"path":"rotation"}},{"sampler":14,"target":{"node":14,"path":"rotation"}},{"sampler":15,"target":{"node":15,"path":"rotation"}},{"sampler":16,"target":{"node":16,"path":"rotation"}},{"sampler":17,"target":{"node":17,"path":"rotation"}},{"sampler":18,"target":{"node":18,"path":"rotation"}},{"sampler":19,"target":{"node":19,"path":"rotation"}},{"sampler":20,"target":{"node":20,"path":"rotation"}},{"sampler":21,"target":{"node":21,"path":"rotation"}},{"sampler":22,"target":{"node":22,"path":"rotation"}},{"sampler":23,"target":{"node":23,"path":"rotation"}}]},{"name":"walk","samplers":[{"input":55,"output":56,"interpolation":"LINEAR"},{"input":57,"output":58,"interpolation":"LINEAR"},{"input":59,"output":60,"interpolation":"LINEAR"},{"input":61,"output":62,"interpolation":"LINEAR"},{"input":63,"output":64,"interpolation":"LINEAR"},{"input":65,"output":66,"interpolation":"LINEAR"},{"input":67,"output":68,"interpolation":"LINEAR"},{"input":69,"output":70,"interpolation":"LINEAR"},{"input":71,"output":72,"interpolation":"LINEAR"},{"input":73,"output":74,"interpolation":"LINEAR"},{"input":75,"output":76,"interpolation":"LINEAR"},{"input":77,"output":78,"interpolation":"LINEAR"},{"input":79,"output":80,"interpolation":"LINEAR"},{"input":81,"output":82,"interpolation":"LINEAR"},{"input":83,"output":84,"interpolation":"LINEAR"},{"input":85,"output":86,"interpolation":"LINEAR"},{"input":87,"output":88,"interpolation":"LINEAR"},{"input":89,"output":90,"interpolation":"LINEAR"},{"input":91,"output":92,"interpolation":"LINEAR"},{"input":93,"output":94,"interpolation":"LINEAR"},{"input":95,"output":96,"interpolation":"LINEAR"},{"input":97,"output":98,"interpolation":"LINEAR"},{"input":99,"output":100,"interpolation":"LINEAR"},{"input":101,"output":102,"interpolation":"LINEAR"}],"channels":[{"sampler":0,"target":{"node":0,"path":"rotation"}},{"sampler":1,"target":{"node":1,"path":"rotation"}},{"sampler":2,"target":{"node":2,"path":"rotation"}},{"sampler":3,"target":{"node":3,"path":"rotation"}},{"sampler":4,"target":{"node":4,"path":"rotation"}},{"sampler":5,"target":{"node":5,"path":"rotation"}},{"sampler":6,"target":{"node":6,"path":"rotation"}},{"sampler":7,"target":{"node":7,"path":"rotation"}},{"sampler":8,"target":{"node":8,"path":"rotation"}},{"sampler":9,"target":{"node":9,"path":"rotation"}},{"sampler":10,"target":{"node":10,"path":"rotation"}},{"sampler":11,"target":{"node":11,"path":"rotation"}},{"sampler":12,"target":{"node":12,"path":"rotation"}},{"sampler":13,"target":{"node":13,"path":"rotation"}},{"sampler":14,"target":{"node":14,"path":"rotation"}},{"sampler":15,"target":{"node":15,"path":"rotation"}},{"sampler":16,"target":{"node":16,"path":"rotation"}},{"sampler":17,"target":{"node":17,"path":"rotation"}},{"sampler":18,"target":{"node":18,"path":"rotation"}},{"sampler":19,"target":{"node":19,"path":"rotation"}},{"sampler":20,"target":{"node":20,"path":"rotation"}},{"sampler":21,"target":{"node":21,"path":"rotation"}},{"sampler":22,"target":{"node":22,"path":"rotation"}},{"sampler":23,"target":{"node":23,"path":"rotation"}}]},{"name":"run","samplers":[{"input":103,"output":104,"interpolation":"LINEAR"},{"input":105,"output":106,"interpolation":"LINEAR"},{"input":107,"output":108,"interpolation":"LINEAR"},{"input":109,"output":110,"interpolation":"LINEAR"},{"input":111,"output":112,"interpolation":"LINEAR"},{"input":113,"output":114,"interpolation":"LINEAR"},{"input":115,"output":116,"interpolation":"LINEAR"},{"input":117,"output":118,"interpolation":"LINEAR"},{"input":119,"output":120,"interpolation":"LINEAR"},{"input":121,"output":122,"interpolation":"LINEAR"},{"input":123,"output":124,"interpolation":"LINEAR"},{"input":125,"output":126,"interpolation":"LINEAR"},{"input":127,"output":128,"interpolation":"LINEAR"},{"input":129,"output":130,"interpolation":"LINEAR"},{"input":131,"output":132,"interpolation":"LINEAR"},{"input":133,"output":134,"interpolation":"LINEAR"},{"input":135,"output":136,"interpolation":"LINEAR"},{"input":137,"output":138,"interpolation":"LINEAR"},{"input":139,"output":140,"interpolation":"LINEAR"},{"input":141,"output":142,"interpolation":"LINEAR"},{"input":143,"output":144,"interpolation":"LINEAR"},{"input":145,"output":146,"interpolation":"LINEAR"},{"input":147,"output":148,"interpolation":"LINEAR"},{"input":149,"output":150,"interpolation":"LINEAR"}],"channels":[{"sampler":0,"target":{"node":0,"path":"rotation"}},{"sampler":1,"target":{"node":1,"path":"rotation"}},{"sampler":2,"target":{"node":2,"path":"rotation"}},{"sampler":3,"target":{"node":3,"path":"rotation"}},{"sampler":4,"target":{"node":4,"path":"rotation"}},{"sampler":5,"target":{"node":5,"path":"rotation"}},{"sampler":6,"target":{"node":6,"path":"rotation"}},{"sampler":7,"target":{"node":7,"path":"rotation"}},{"sampler":8,"target":{"node":8,"path":"rotation"}},{"sampler":9,"target":{"node":9,"path":"rotation"}},{"sampler":10,"target":{"node":10,"path":"rotation"}},{"sampler":11,"target":{"node":11,"path":"rotation"}},{"sampler":12,"target":{"node":12,"path":"rotation"}},{"sampler":13,"target":{"node":13,"path":"rotation"}},{"sampler":14,"target":{"node":14,"path":"rotation"}},{"sampler":15,"target":{"node":15,"path":"rotation"}},{"sampler":16,"target":{"node":16,"path":"rotation"}},{"sampler":17,"target":{"node":17,"path":"rotation"}},{"sampler":18,"target":{"node":18,"path":"rotation"}},{"sampler":19,"target":{"node":19,"path":"rotation"}},{"sampler":20,"target":{"node":20,"path":"rotation"}},{"sampler":21,"target":{"node":21,"path":"rotation"}},{"sampler":22,"target":{"node":22,"path":"rotation"}},{"sampler":23,"target":{"node":23,"path":"rotation"}}]},{"name":"attack_a","samplers":[{"input":151,"output":152,"interpolation":"LINEAR"},{"input":153,"output":154,"interpolation":"LINEAR"},{"input":155,"output":156,"interpolation":"LINEAR"},{"input":157,"output":158,"interpolation":"LINEAR"},{"input":159,"output":160,"interpolation":"LINEAR"},{"input":161,"output":162,"interpolation":"LINEAR"},{"input":163,"output":164,"interpolation":"LINEAR"},{"input":165,"output":166,"interpolation":"LINEAR"},{"input":167,"output":168,"interpolation":"LINEAR"},{"input":169,"output":170,"interpolation":"LINEAR"},{"input":171,"output":172,"interpolation":"LINEAR"},{"input":173,"output":174,"interpolation":"LINEAR"},{"input":175,"output":176,"interpolation":"LINEAR"},{"input":177,"output":178,"interpolation":"LINEAR"},{"input":179,"output":180,"interpolation":"LINEAR"},{"input":181,"output":182,"interpolation":"LINEAR"},{"input":183,"output":184,"interpolation":"LINEAR"},{"input":185,"output":186,"interpolation":"LINEAR"},{"input":187,"output":188,"interpolation":"LINEAR"},{"input":189,"output":190,"interpolation":"LINEAR"},{"input":191,"output":192,"interpolation":"LINEAR"},{"input":193,"output":194,"interpolation":"LINEAR"},{"input":195,"output":196,"interpolation":"LINEAR"},{"input":197,"output":198,"interpolation":"LINEAR"}],"channels":[{"sampler":0,"target":{"node":0,"path":"rotation"}},{"sampler":1,"target":{"node":1,"path":"rotation"}},{"sampler":2,"target":{"node":2,"path":"rotation"}},{"sampler":3,"target":{"node":3,"path":"rotation"}},{"sampler":4,"target":{"node":4,"path":"rotation"}},{"sampler":5,"target":{"node":5,"path":"rotation"}},{"sampler":6,"target":{"node":6,"path":"rotation"}},{"sampler":7,"target":{"node":7,"path":"rotation"}},{"sampler":8,"target":{"node":8,"path":"rotation"}},{"sampler":9,"target":{"node":9,"path":"rotation"}},{"sampler":10,"target":{"node":10,"path":"rotation"}},{"sampler":11,"target":{"node":11,"path":"rotation"}},{"sampler":12,"target":{"node":12,"path":"rotation"}},{"sampler":13,"target":{"node":13,"path":"rotation"}},{"sampler":14,"target":{"node":14,"path":"rotation"}},{"sampler":15,"target":{"node":15,"path":"rotation"}},{"sampler":16,"target":{"node":16,"path":"rotation"}},{"sampler":17,"target":{"node":17,"path":"rotation"}},{"sampler":18,"target":{"node":18,"path":"rotation"}},{"sampler":19,"target":{"node":19,"path":"rotation"}},{"sampler":20,"target":{"node":20,"path":"rotation"}},{"sampler":21,"target":{"node":21,"path":"rotation"}},{"sampler":22,"target":{"node":22,"path":"rotation"}},{"sampler":23,"target":{"node":23,"path":"rotation"}}]},{"name":"attack_b","samplers":[{"input":199,"output":200,"interpolation":"LINEAR"},{"input":201,"output":202,"interpolation":"LINEAR"},{"input":203,"output":204,"interpolation":"LINEAR"},{"input":205,"output":206,"interpolation":"LINEAR"},{"input":207,"output":208,"interpolation":"LINEAR"},{"input":209,"output":210,"interpolation":"LINEAR"},{"input":211,"output":212,"interpolation":"LINEAR"},{"input":213,"output":214,"interpolation":"LINEAR"},{"input":215,"output":216,"interpolation":"LINEAR"},{"input":217,"output":218,"interpolation":"LINEAR"},{"input":219,"output":220,"interpolation":"LINEAR"},{"input":221,"output":222,"interpolation":"LINEAR"},{"input":223,"output":224,"interpolation":"LINEAR"},{"input":225,"output":226,"interpolation":"LINEAR"},{"input":227,"output":228,"interpolation":"LINEAR"},{"input":229,"output":230,"interpolation":"LINEAR"},{"input":231,"output":232,"interpolation":"LINEAR"},{"input":233,"output":234,"interpolation":"LINEAR"},{"input":235,"output":236,"interpolation":"LINEAR"},{"input":237,"output":238,"interpolation":"LINEAR"},{"input":239,"output":240,"interpolation":"LINEAR"},{"input":241,"output":242,"interpolation":"LINEAR"},{"input":243,"output":244,"interpolation":"LINEAR"},{"input":245,"output":246,"interpolation":"LINEAR"}],"channels":[{"sampler":0,"target":{"node":0,"path":"rotation"}},{"sampler":1,"target":{"node":1,"path":"rotation"}},{"sampler":2,"target":{"node":2,"path":"rotation"}},{"sampler":3,"target":{"node":3,"path":"rotation"}},{"sampler":4,"target":{"node":4,"path":"rotation"}},{"sampler":5,"target":{"node":5,"path":"rotation"}},{"sampler":6,"target":{"node":6,"path":"rotation"}},{"sampler":7,"target":{"node":7,"path":"rotation"}},{"sampler":8,"target":{"node":8,"path":"rotation"}},{"sampler":9,"target":{"node":9,"path":"rotation"}},{"sampler":10,"target":{"node":10,"path":"rotation"}},{"sampler":11,"target":{"node":11,"path":"rotation"}},{"sampler":12,"target":{"node":12,"path":"rotation"}},{"sampler":13,"target":{"node":13,"path":"rotation"}},{"sampler":14,"target":{"node":14,"path":"rotation"}},{"sampler":15,"target":{"node":15,"path":"rotation"}},{"sampler":16,"target":{"node":16,"path":"rotation"}},{"sampler":17,"target":{"node":17,"path":"rotation"}},{"sampler":18,"target":{"node":18,"path":"rotation"}},{"sampler":19,"target":{"node":19,"path":"rotation"}},{"sampler":20,"target":{"node":20,"path":"rotation"}},{"sampler":21,"target":{"node":21,"path":"rotation"}},{"sampler":22,"target":{"node":22,"path":"rotation"}},{"sampler":23,"target":{"node":23,"path":"rotation"}}]},{"name":"shoot","samplers":[{"input":247,"output":248,"interpolation":"LINEAR"},{"input":249,"output":250,"interpolation":"LINEAR"},{"input":251,"output":252,"interpolation":"LINEAR"},{"input":253,"output":254,"interpolation":"LINEAR"},{"input":255,"output":256,"interpolation":"LINEAR"},{"input":257,"output":258,"interpolation":"LINEAR"},{"input":259,"output":260,"interpolation":"LINEAR"},{"input":261,"output":262,"interpolation":"LINEAR"},{"input":263,"output":264,"interpolation":"LINEAR"},{"input":265,"output":266,"interpolation":"LINEAR"},{"input":267,"output":268,"interpolation":"LINEAR"},{"input":269,"output":270,"interpolation":"LINEAR"},{"input":271,"output":272,"interpolation":"LINEAR"},{"input":273,"output":274,"interpolation":"LINEAR"},{"input":275,"output":276,"interpolation":"LINEAR"},{"input":277,"output":278,"interpolation":"LINEAR"},{"input":279,"output":280,"interpolation":"LINEAR"},{"input":281,"output":282,"interpolation":"LINEAR"},{"input":283,"output":284,"interpolation":"LINEAR"},{"input":285,"output":286,"interpolation":"LINEAR"},{"input":287,"output":288,"interpolation":"LINEAR"},{"input":289,"output":290,"interpolation":"LINEAR"},{"input":291,"output":292,"interpolation":"LINEAR"},{"input":293,"output":294,"interpolation":"LINEAR"}],"channels":[{"sampler":0,"target":{"node":0,"path":"rotation"}},{"sampler":1,"target":{"node":1,"path":"rotation"}},{"sampler":2,"target":{"node":2,"path":"rotation"}},{"sampler":3,"target":{"node":3,"path":"rotation"}},{"sampler":4,"target":{"node":4,"path":"rotation"}},{"sampler":5,"target":{"node":5,"path":"rotation"}},{"sampler":6,"target":{"node":6,"path":"rotation"}},{"sampler":7,"target":{"node":7,"path":"rotation"}},{"sampler":8,"target":{"node":8,"path":"rotation"}},{"sampler":9,"target":{"node":9,"path":"rotation"}},{"sampler":10,"target":{"node":10,"path":"rotation"}},{"sampler":11,"target":{"node":11,"path":"rotation"}},{"sampler":12,"target":{"node":12,"path":"rotation"}},{"sampler":13,"target":{"node":13,"path":"rotation"}},{"sampler":14,"target":{"node":14,"path":"rotation"}},{"sampler":15,"target":{"node":15,"path":"rotation"}},{"sampler":16,"target":{"node":16,"path":"rotation"}},{"sampler":17,"target":{"node":17,"path":"rotation"}},{"sampler":18,"target":{"node":18,"path":"rotation"}},{"sampler":19,"target":{"node":19,"path":"rotation"}},{"sampler":20,"target":{"node":20,"path":"rotation"}},{"sampler":21,"target":{"node":21,"path":"rotation"}},{"sampler":22,"target":{"node":22,"path":"rotation"}},{"sampler":23,"target":{"node":23,"path":"rotation"}}]},{"name":"hit","samplers":[{"input":295,"output":296,"interpolation":"LINEAR"},{"input":297,"output":298,"interpolation":"LINEAR"},{"input":299,"output":300,"interpolation":"LINEAR"},{"input":301,"output":302,"interpolation":"LINEAR"},{"input":303,"output":304,"interpolation":"LINEAR"},{"input":305,"output":306,"interpolation":"LINEAR"},{"input":307,"output":308,"interpolation":"LINEAR"},{"input":309,"output":310,"interpolation":"LINEAR"},{"input":311,"output":312,"interpolation":"LINEAR"},{"input":313,"output":314,"interpolation":"LINEAR"},{"input":315,"output":316,"interpolation":"LINEAR"},{"input":317,"output":318,"interpolation":"LINEAR"},{"input":319,"output":320,"interpolation":"LINEAR"},{"input":321,"output":322,"interpolation":"LINEAR"},{"input":323,"output":324,"interpolation":"LINEAR"},{"input":325,"output":326,"interpolation":"LINEAR"},{"input":327,"output":328,"interpolation":"LINEAR"},{"input":329,"output":330,"interpolation":"LINEAR"},{"input":331,"output":332,"interpolation":"LINEAR"},{"input":333,"output":334,"interpolation":"LINEAR"},{"input":335,"output":336,"interpolation":"LINEAR"},{"input":337,"output":338,"interpolation":"LINEAR"},{"input":339,"output":340,"interpolation":"LINEAR"},{"input":341,"output":342,"interpolation":"LINEAR"}],"channels":[{"sampler":0,"target":{"node":0,"path":"rotation"}},{"sampler":1,"target":{"node":1,"path":"rotation"}},{"sampler":2,"target":{"node":2,"path":"rotation"}},{"sampler":3,"target":{"node":3,"path":"rotation"}},{"sampler":4,"target":{"node":4,"path":"rotation"}},{"sampler":5,"target":{"node":5,"path":"rotation"}},{"sampler":6,"target":{"node":6,"path":"rotation"}},{"sampler":7,"target":{"node":7,"path":"rotation"}},{"sampler":8,"target":{"node":8,"path":"rotation"}},{"sampler":9,"target":{"node":9,"path":"rotation"}},{"sampler":10,"target":{"node":10,"path":"rotation"}},{"sampler":11,"target":{"node":11,"path":"rotation"}},{"sampler":12,"target":{"node":12,"path":"rotation"}},{"sampler":13,"target":{"node":13,"path":"rotation"}},{"sampler":14,"target":{"node":14,"path":"rotation"}},{"sampler":15,"target":{"node":15,"path":"rotation"}},{"sampler":16,"target":{"node":16,"path":"rotation"}},{"sampler":17,"target":{"node":17,"path":"rotation"}},{"sampler":18,"target":{"node":18,"path":"rotation"}},{"sampler":19,"target":{"node":19,"path":"rotation"}},{"sampler":20,"target":{"node":20,"path":"rotation"}},{"sampler":21,"target":{"node":21,"path":"rotation"}},{"sampler":22,"target":{"node":22,"path":"rotation"}},{"sampler":23,"target":{"node":23,"path":"rotation"}}]},{"name":"block","samplers":[{"input":343,"output":344,"interpolation":"LINEAR"},{"input":345,"output":346,"interpolation":"LINEAR"},{"input":347,"output":348,"interpolation":"LINEAR"},{"input":349,"output":350,"interpolation":"LINEAR"},{"input":351,"output":352,"interpolation":"LINEAR"},{"input":353,"output":354,"interpolation":"LINEAR"},{"input":355,"output":356,"interpolation":"LINEAR"},{"input":357,"output":358,"interpolation":"LINEAR"},{"input":359,"output":360,"interpolation":"LINEAR"},{"input":361,"output":362,"interpolation":"LINEAR"},{"input":363,"output":364,"interpolation":"LINEAR"},{"input":365,"output":366,"interpolation":"LINEAR"},{"input":367,"output":368,"interpolation":"LINEAR"},{"input":369,"output":370,"interpolation":"LINEAR"},{"input":371,"output":372,"interpolation":"LINEAR"},{"input":373,"output":374,"interpolation":"LINEAR"},{"input":375,"output":376,"interpolation":"LINEAR"},{"input":377,"output":378,"interpolation":"LINEAR"},{"input":379,"output":380,"interpolation":"LINEAR"},{"input":381,"output":382,"interpolation":"LINEAR"},{"input":383,"output":384,"interpolation":"LINEAR"},{"input":385,"output":386,"interpolation":"LINEAR"},{"input":387,"output":388,"interpolation":"LINEAR"},{"input":389,"output":390,"interpolation":"LINEAR"}],"channels":[{"sampler":0,"target":{"node":0,"path":"rotation"}},{"sampler":1,"target":{"node":1,"path":"rotation"}},{"sampler":2,"target":{"node":2,"path":"rotation"}},{"sampler":3,"target":{"node":3,"path":"rotation"}},{"sampler":4,"target":{"node":4,"path":"rotation"}},{"sampler":5,"target":{"node":5,"path":"rotation"}},{"sampler":6,"target":{"node":6,"path":"rotation"}},{"sampler":7,"target":{"node":7,"path":"rotation"}},{"sampler":8,"target":{"node":8,"path":"rotation"}},{"sampler":9,"target":{"node":9,"path":"rotation"}},{"sampler":10,"target":{"node":10,"path":"rotation"}},{"sampler":11,"target":{"node":11,"path":"rotation"}},{"sampler":12,"target":{"node":12,"path":"rotation"}},{"sampler":13,"target":{"node":13,"path":"rotation"}},{"sampler":14,"target":{"node":14,"path":"rotation"}},{"sampler":15,"target":{"node":15,"path":"rotation"}},{"sampler":16,"target":{"node":16,"path":"rotation"}},{"sampler":17,"target":{"node":17,"path":"rotation"}},{"sampler":18,"target":{"node":18,"path":"rotation"}},{"sampler":19,"target":{"node":19,"path":"rotation"}},{"sampler":20,"target":{"node":20,"path":"rotation"}},{"sampler":21,"target":{"node":21,"path":"rotation"}},{"sampler":22,"target":{"node":22,"path":"rotation"}},{"sampler":23,"target":{"node":23,"path":"rotation"}}]},{"name":"knockback","samplers":[{"input":391,"output":392,"interpolation":"LINEAR"},{"input":393,"output":394,"interpolation":"LINEAR"},{"input":395,"output":396,"interpolation":"LINEAR"},{"input":397,"output":398,"interpolation":"LINEAR"},{"input":399,"output":400,"interpolation":"LINEAR"},{"input":401,"output":402,"interpolation":"LINEAR"},{"input":403,"output":404,"interpolation":"LINEAR"},{"input":405,"output":406,"interpolation":"LINEAR"},{"input":407,"output":408,"interpolation":"LINEAR"},{"input":409,"output":410,"interpolation":"LINEAR"},{"input":411,"output":412,"interpolation":"LINEAR"},{"input":413,"output":414,"interpolation":"LINEAR"},{"input":415,"output":416,"interpolation":"LINEAR"},{"input":417,"output":418,"interpolation":"LINEAR"},{"input":419,"output":420,"interpolation":"LINEAR"},{"input":421,"output":422,"interpolation":"LINEAR"},{"input":423,"output":424,"interpolation":"LINEAR"},{"input":425,"output":426,"interpolation":"LINEAR"},{"input":427,"output":428,"interpolation":"LINEAR"},{"input":429,"output":430,"interpolation":"LINEAR"},{"input":431,"output":432,"interpolation":"LINEAR"},{"input":433,"output":434,"interpolation":"LINEAR"},{"input":435,"output":436,"interpolation":"LINEAR"},{"input":437,"output":438,"interpolation":"LINEAR"}],"channels":[{"sampler":0,"target":{"node":0,"path":"rotation"}},{"sampler":1,"target":{"node":1,"path":"rotation"}},{"sampler":2,"target":{"node":2,"path":"rotation"}},{"sampler":3,"target":{"node":3,"path":"rotation"}},{"sampler":4,"target":{"node":4,"path":"rotation"}},{"sampler":5,"target":{"node":5,"path":"rotation"}},{"sampler":6,"target":{"node":6,"path":"rotation"}},{"sampler":7,"target":{"node":7,"path":"rotation"}},{"sampler":8,"target":{"node":8,"path":"rotation"}},{"sampler":9,"target":{"node":9,"path":"rotation"}},{"sampler":10,"target":{"node":10,"path":"rotation"}},{"sampler":11,"target":{"node":11,"path":"rotation"}},{"sampler":12,"target":{"node":12,"path":"rotation"}},{"sampler":13,"target":{"node":13,"path":"rotation"}},{"sampler":14,"target":{"node":14,"path":"rotation"}},{"sampler":15,"target":{"node":15,"path":"rotation"}},{"sampler":16,"target":{"node":16,"path":"rotation"}},{"sampler":17,"target":{"node":17,"path":"rotation"}},{"sampler":18,"target":{"node":18,"path":"rotation"}},{"sampler":19,"target":{"node":19,"path":"rotation"}},{"sampler":20,"target":{"node":20,"path":"rotation"}},{"sampler":21,"target":{"node":21,"path":"rotation"}},{"sampler":22,"target":{"node":22,"path":"rotation"}},{"sampler":23,"target":{"node":23,"path":"rotation"}}]},{"name":"defeat","samplers":[{"input":439,"output":440,"interpolation":"LINEAR"},{"input":441,"output":442,"interpolation":"LINEAR"},{"input":443,"output":444,"interpolation":"LINEAR"},{"input":445,"output":446,"interpolation":"LINEAR"},{"input":447,"output":448,"interpolation":"LINEAR"},{"input":449,"output":450,"interpolation":"LINEAR"},{"input":451,"output":452,"interpolation":"LINEAR"},{"input":453,"output":454,"interpolation":"LINEAR"},{"input":455,"output":456,"interpolation":"LINEAR"},{"input":457,"output":458,"interpolation":"LINEAR"},{"input":459,"output":460,"interpolation":"LINEAR"},{"input":461,"output":462,"interpolation":"LINEAR"},{"input":463,"output":464,"interpolation":"LINEAR"},{"input":465,"output":466,"interpolation":"LINEAR"},{"input":467,"output":468,"interpolation":"LINEAR"},{"input":469,"output":470,"interpolation":"LINEAR"},{"input":471,"output":472,"interpolation":"LINEAR"},{"input":473,"output":474,"interpolation":"LINEAR"},{"input":475,"output":476,"interpolation":"LINEAR"},{"input":477,"output":478,"interpolation":"LINEAR"},{"input":479,"output":480,"interpolation":"LINEAR"},{"input":481,"output":482,"interpolation":"LINEAR"},{"input":483,"output":484,"interpolation":"LINEAR"},{"input":485,"output":486,"interpolation":"LINEAR"}],"channels":[{"sampler":0,"target":{"node":0,"path":"rotation"}},{"sampler":1,"target":{"node":1,"path":"rotation"}},{"sampler":2,"target":{"node":2,"path":"rotation"}},{"sampler":3,"target":{"node":3,"path":"rotation"}},{"sampler":4,"target":{"node":4,"path":"rotation"}},{"sampler":5,"target":{"node":5,"path":"rotation"}},{"sampler":6,"target":{"node":6,"path":"rotation"}},{"sampler":7,"target":{"node":7,"path":"rotation"}},{"sampler":8,"target":{"node":8,"path":"rotation"}},{"sampler":9,"target":{"node":9,"path":"rotation"}},{"sampler":10,"target":{"node":10,"path":"rotation"}},{"sampler":11,"target":{"node":11,"path":"rotation"}},{"sampler":12,"target":{"node":12,"path":"rotation"}},{"sampler":13,"target":{"node":13,"path":"rotation"}},{"sampler":14,"target":{"node":14,"path":"rotation"}},{"sampler":15,"target":{"node":15,"path":"rotation"}},{"sampler":16,"target":{"node":16,"path":"rotation"}},{"sampler":17,"target":{"node":17,"path":"rotation"}},{"sampler":18,"target":{"node":18,"path":"rotation"}},{"sampler":19,"target":{"node":19,"path":"rotation"}},{"sampler":20,"target":{"node":20,"path":"rotation"}},{"sampler":21,"target":{"node":21,"path":"rotation"}},{"sampler":22,"target":{"node":22,"path":"rotation"}},{"sampler":23,"target":{"node":23,"path":"rotation"}}]},{"name":"cheer","samplers":[{"input":487,"output":488,"interpolation":"LINEAR"},{"input":489,"output":490,"interpolation":"LINEAR"},{"input":491,"output":492,"interpolation":"LINEAR"},{"input":493,"output":494,"interpolation":"LINEAR"},{"input":495,"output":496,"interpolation":"LINEAR"},{"input":497,"output":498,"interpolation":"LINEAR"},{"input":499,"output":500,"interpolation":"LINEAR"},{"input":501,"output":502,"interpolation":"LINEAR"},{"input":503,"output":504,"interpolation":"LINEAR"},{"input":505,"output":506,"interpolation":"LINEAR"},{"input":507,"output":508,"interpolation":"LINEAR"},{"input":509,"output":510,"interpolation":"LINEAR"},{"input":511,"output":512,"interpolation":"LINEAR"},{"input":513,"output":514,"interpolation":"LINEAR"},{"input":515,"output":516,"interpolation":"LINEAR"},{"input":517,"output":518,"interpolation":"LINEAR"},{"input":519,"output":520,"interpolation":"LINEAR"},{"input":521,"output":522,"interpolation":"LINEAR"},{"input":523,"output":524,"interpolation":"LINEAR"},{"input":525,"output":526,"interpolation":"LINEAR"},{"input":527,"output":528,"interpolation":"LINEAR"},{"input":529,"output":530,"interpolation":"LINEAR"},{"input":531,"output":532,"interpolation":"LINEAR"},{"input":533,"output":534,"interpolation":"LINEAR"}],"channels":[{"sampler":0,"target":{"node":0,"path":"rotation"}},{"sampler":1,"target":{"node":1,"path":"rotation"}},{"sampler":2,"target":{"node":2,"path":"rotation"}},{"sampler":3,"target":{"node":3,"path":"rotation"}},{"sampler":4,"target":{"node":4,"path":"rotation"}},{"sampler":5,"target":{"node":5,"path":"rotation"}},{"sampler":6,"target":{"node":6,"path":"rotation"}},{"sampler":7,"target":{"node":7,"path":"rotation"}},{"sampler":8,"target":{"node":8,"path":"rotation"}},{"sampler":9,"target":{"node":9,"path":"rotation"}},{"sampler":10,"target":{"node":10,"path":"rotation"}},{"sampler":11,"target":{"node":11,"path":"rotation"}},{"sampler":12,"target":{"node":12,"path":"rotation"}},{"sampler":13,"target":{"node":13,"path":"rotation"}},{"sampler":14,"target":{"node":14,"path":"rotation"}},{"sampler":15,"target":{"node":15,"path":"rotation"}},{"sampler":16,"target":{"node":16,"path":"rotation"}},{"sampler":17,"target":{"node":17,"path":"rotation"}},{"sampler":18,"target":{"node":18,"path":"rotation"}},{"sampler":19,"target":{"node":19,"path":"rotation"}},{"sampler":20,"target":{"node":20,"path":"rotation"}},{"sampler":21,"target":{"node":21,"path":"rotation"}},{"sampler":22,"target":{"node":22,"path":"rotation"}},{"sampler":23,"target":{"node":23,"path":"rotation"}}]}]}