o abandoned_wheel
v 0.790000 0.620000 -0.110000
v 0.790000 0.900000 -0.110000
v 0.650000 0.900000 -0.110000
v 0.650000 0.620000 -0.110000
v 0.790000 0.620000 0.110000
v 0.790000 0.900000 0.110000
v 0.650000 0.900000 0.110000
v 0.650000 0.620000 0.110000
v 0.754160 1.033756 -0.110000
v 0.614160 1.276244 -0.110000
v 0.492917 1.206244 -0.110000
v 0.632917 0.963756 -0.110000
v 0.754160 1.033756 0.110000
v 0.614160 1.276244 0.110000
v 0.492917 1.206244 0.110000
v 0.632917 0.963756 0.110000
v 0.516244 1.374160 -0.110000
v 0.273756 1.514160 -0.110000
v 0.203756 1.392917 -0.110000
v 0.446244 1.252917 -0.110000
v 0.516244 1.374160 0.110000
v 0.273756 1.514160 0.110000
v 0.203756 1.392917 0.110000
v 0.446244 1.252917 0.110000
v 0.140000 1.550000 -0.110000
v -0.140000 1.550000 -0.110000
v -0.140000 1.410000 -0.110000
v 0.140000 1.410000 -0.110000
v 0.140000 1.550000 0.110000
v -0.140000 1.550000 0.110000
v -0.140000 1.410000 0.110000
v 0.140000 1.410000 0.110000
v -0.273756 1.514160 -0.110000
v -0.516244 1.374160 -0.110000
v -0.446244 1.252917 -0.110000
v -0.203756 1.392917 -0.110000
v -0.273756 1.514160 0.110000
v -0.516244 1.374160 0.110000
v -0.446244 1.252917 0.110000
v -0.203756 1.392917 0.110000
v -0.614160 1.276244 -0.110000
v -0.754160 1.033756 -0.110000
v -0.632917 0.963756 -0.110000
v -0.492917 1.206244 -0.110000
v -0.614160 1.276244 0.110000
v -0.754160 1.033756 0.110000
v -0.632917 0.963756 0.110000
v -0.492917 1.206244 0.110000
v -0.790000 0.900000 -0.110000
v -0.790000 0.620000 -0.110000
v -0.650000 0.620000 -0.110000
v -0.650000 0.900000 -0.110000
v -0.790000 0.900000 0.110000
v -0.790000 0.620000 0.110000
v -0.650000 0.620000 0.110000
v -0.650000 0.900000 0.110000
v -0.754160 0.486244 -0.110000
v -0.614160 0.243756 -0.110000
v -0.492917 0.313756 -0.110000
v -0.632917 0.556244 -0.110000
v -0.754160 0.486244 0.110000
v -0.614160 0.243756 0.110000
v -0.492917 0.313756 0.110000
v -0.632917 0.556244 0.110000
v -0.516244 0.145840 -0.110000
v -0.273756 0.005840 -0.110000
v -0.203756 0.127083 -0.110000
v -0.446244 0.267083 -0.110000
v -0.516244 0.145840 0.110000
v -0.273756 0.005840 0.110000
v -0.203756 0.127083 0.110000
v -0.446244 0.267083 0.110000
v -0.140000 -0.030000 -0.110000
v 0.140000 -0.030000 -0.110000
v 0.140000 0.110000 -0.110000
v -0.140000 0.110000 -0.110000
v -0.140000 -0.030000 0.110000
v 0.140000 -0.030000 0.110000
v 0.140000 0.110000 0.110000
v -0.140000 0.110000 0.110000
v 0.273756 0.005840 -0.110000
v 0.516244 0.145840 -0.110000
v 0.446244 0.267083 -0.110000
v 0.203756 0.127083 -0.110000
v 0.273756 0.005840 0.110000
v 0.516244 0.145840 0.110000
v 0.446244 0.267083 0.110000
v 0.203756 0.127083 0.110000
v 0.614160 0.243756 -0.110000
v 0.754160 0.486244 -0.110000
v 0.632917 0.556244 -0.110000
v 0.492917 0.313756 -0.110000
v 0.614160 0.243756 0.110000
v 0.754160 0.486244 0.110000
v 0.632917 0.556244 0.110000
v 0.492917 0.313756 0.110000
v 0.160000 0.760000 -0.150000
v 0.160000 0.760000 0.150000
v 0.129443 0.665954 -0.150000
v 0.129443 0.665954 0.150000
v 0.049443 0.607831 -0.150000
v 0.049443 0.607831 0.150000
v -0.049443 0.607831 -0.150000
v -0.049443 0.607831 0.150000
v -0.129443 0.665954 -0.150000
v -0.129443 0.665954 0.150000
v -0.160000 0.760000 -0.150000
v -0.160000 0.760000 0.150000
v -0.129443 0.854046 -0.150000
v -0.129443 0.854046 0.150000
v -0.049443 0.912169 -0.150000
v -0.049443 0.912169 0.150000
v 0.049443 0.912169 -0.150000
v 0.049443 0.912169 0.150000
v 0.129443 0.854046 -0.150000
v 0.129443 0.854046 0.150000
v 0.007200 0.727500 -0.040000
v 0.511200 0.727500 -0.040000
v 0.511200 0.792500 -0.040000
v 0.007200 0.792500 -0.040000
v 0.007200 0.727500 0.040000
v 0.511200 0.727500 0.040000
v 0.511200 0.792500 0.040000
v 0.007200 0.792500 0.040000
v 0.028072 0.742110 -0.040000
v 0.384454 1.098492 -0.040000
v 0.338492 1.144454 -0.040000
v -0.017890 0.788072 -0.040000
v 0.028072 0.742110 0.040000
v 0.384454 1.098492 0.040000
v 0.338492 1.144454 0.040000
v -0.017890 0.788072 0.040000
v 0.032500 0.767200 -0.040000
v 0.032500 1.271200 -0.040000
v -0.032500 1.271200 -0.040000
v -0.032500 0.767200 -0.040000
v 0.032500 0.767200 0.040000
v 0.032500 1.271200 0.040000
v -0.032500 1.271200 0.040000
v -0.032500 0.767200 0.040000
v 0.017890 0.788072 -0.040000
v -0.338492 1.144454 -0.040000
v -0.384454 1.098492 -0.040000
v -0.028072 0.742110 -0.040000
v 0.017890 0.788072 0.040000
v -0.338492 1.144454 0.040000
v -0.384454 1.098492 0.040000
v -0.028072 0.742110 0.040000
v -0.007200 0.792500 -0.040000
v -0.511200 0.792500 -0.040000
v -0.511200 0.727500 -0.040000
v -0.007200 0.727500 -0.040000
v -0.007200 0.792500 0.040000
v -0.511200 0.792500 0.040000
v -0.511200 0.727500 0.040000
v -0.007200 0.727500 0.040000
v -0.028072 0.777890 -0.040000
v -0.384454 0.421508 -0.040000
v -0.338492 0.375546 -0.040000
v 0.017890 0.731928 -0.040000
v -0.028072 0.777890 0.040000
v -0.384454 0.421508 0.040000
v -0.338492 0.375546 0.040000
v 0.017890 0.731928 0.040000
v -0.032500 0.752800 -0.040000
v -0.032500 0.248800 -0.040000
v 0.032500 0.248800 -0.040000
v 0.032500 0.752800 -0.040000
v -0.032500 0.752800 0.040000
v -0.032500 0.248800 0.040000
v 0.032500 0.248800 0.040000
v 0.032500 0.752800 0.040000
v -0.017890 0.731928 -0.040000
v 0.338492 0.375546 -0.040000
v 0.384454 0.421508 -0.040000
v 0.028072 0.777890 -0.040000
v -0.017890 0.731928 0.040000
v 0.338492 0.375546 0.040000
v 0.384454 0.421508 0.040000
v 0.028072 0.777890 0.040000
v 0.420750 0.412596 0.005000
v 1.892065 -0.074982 0.005000
v 1.939250 0.067404 0.005000
v 0.467935 0.554982 0.005000
v 0.420750 0.412596 0.155000
v 1.892065 -0.074982 0.155000
v 1.939250 0.067404 0.155000
v 0.467935 0.554982 0.155000
f 1 2 3 4
f 5 8 7 6
f 1 5 6 2
f 2 6 7 3
f 3 7 8 4
f 5 1 4 8
f 9 10 11 12
f 13 16 15 14
f 9 13 14 10
f 10 14 15 11
f 11 15 16 12
f 13 9 12 16
f 17 18 19 20
f 21 24 23 22
f 17 21 22 18
f 18 22 23 19
f 19 23 24 20
f 21 17 20 24
f 25 26 27 28
f 29 32 31 30
f 25 29 30 26
f 26 30 31 27
f 27 31 32 28
f 29 25 28 32
f 33 34 35 36
f 37 40 39 38
f 33 37 38 34
f 34 38 39 35
f 35 39 40 36
f 37 33 36 40
f 41 42 43 44
f 45 48 47 46
f 41 45 46 42
f 42 46 47 43
f 43 47 48 44
f 45 41 44 48
f 49 50 51 52
f 53 56 55 54
f 49 53 54 50
f 50 54 55 51
f 51 55 56 52
f 53 49 52 56
f 57 58 59 60
f 61 64 63 62
f 57 61 62 58
f 58 62 63 59
f 59 63 64 60
f 61 57 60 64
f 65 66 67 68
f 69 72 71 70
f 65 69 70 66
f 66 70 71 67
f 67 71 72 68
f 69 65 68 72
f 73 74 75 76
f 77 80 79 78
f 73 77 78 74
f 74 78 79 75
f 75 79 80 76
f 77 73 76 80
f 81 82 83 84
f 85 88 87 86
f 81 85 86 82
f 82 86 87 83
f 83 87 88 84
f 85 81 84 88
f 89 90 91 92
f 93 96 95 94
f 89 93 94 90
f 90 94 95 91
f 91 95 96 92
f 93 89 92 96
f 115 113 111 109 107 105 103 101 99 97
f 98 100 102 104 106 108 110 112 114 116
f 97 99 100 98
f 99 101 102 100
f 101 103 104 102
f 103 105 106 104
f 105 107 108 106
f 107 109 110 108
f 109 111 112 110
f 111 113 114 112
f 113 115 116 114
f 115 97 98 116
f 117 118 119 120
f 121 124 123 122
f 117 121 122 118
f 118 122 123 119
f 119 123 124 120
f 121 117 120 124
f 125 126 127 128
f 129 132 131 130
f 125 129 130 126
f 126 130 131 127
f 127 131 132 128
f 129 125 128 132
f 133 134 135 136
f 137 140 139 138
f 133 137 138 134
f 134 138 139 135
f 135 139 140 136
f 137 133 136 140
f 141 142 143 144
f 145 148 147 146
f 141 145 146 142
f 142 146 147 143
f 143 147 148 144
f 145 141 144 148
f 149 150 151 152
f 153 156 155 154
f 149 153 154 150
f 150 154 155 151
f 151 155 156 152
f 153 149 152 156
f 157 158 159 160
f 161 164 163 162
f 157 161 162 158
f 158 162 163 159
f 159 163 164 160
f 161 157 160 164
f 165 166 167 168
f 169 172 171 170
f 165 169 170 166
f 166 170 171 167
f 167 171 172 168
f 169 165 168 172
f 173 174 175 176
f 177 180 179 178
f 173 177 178 174
f 174 178 179 175
f 175 179 180 176
f 177 173 176 180
f 181 182 183 184
f 185 188 187 186
f 181 185 186 182
f 182 186 187 183
f 183 187 188 184
f 185 181 184 188
