o camp_bundle
v 0.175000 0.510000 0.050000
v -1.075000 0.510000 0.050000
v 0.175000 0.464164 0.191068
v -1.075000 0.464164 0.191068
v 0.175000 0.344164 0.278254
v -1.075000 0.344164 0.278254
v 0.175000 0.195836 0.278254
v -1.075000 0.195836 0.278254
v 0.175000 0.075836 0.191068
v -1.075000 0.075836 0.191068
v 0.175000 0.030000 0.050000
v -1.075000 0.030000 0.050000
v 0.175000 0.075836 -0.091068
v -1.075000 0.075836 -0.091068
v 0.175000 0.195836 -0.178254
v -1.075000 0.195836 -0.178254
v 0.175000 0.344164 -0.178254
v -1.075000 0.344164 -0.178254
v 0.175000 0.464164 -0.091068
v -1.075000 0.464164 -0.091068
v 0.696085 0.511339 -0.050000
v -0.346364 0.385641 -0.050000
v 0.701967 0.462561 0.084985
v -0.340483 0.336864 0.084985
v 0.716859 0.339053 0.156810
v -0.325590 0.213355 0.156810
v 0.733794 0.198604 0.131865
v -0.308655 0.072906 0.131865
v 0.744848 0.106933 0.021824
v -0.297601 -0.018765 0.021824
v 0.744848 0.106933 -0.121824
v -0.297601 -0.018765 -0.121824
v 0.733794 0.198604 -0.231865
v -0.308655 0.072906 -0.231865
v 0.716859 0.339053 -0.256810
v -0.325590 0.213355 -0.256810
v 0.701967 0.462561 -0.184985
v -0.340483 0.336864 -0.184985
v 0.211953 0.083066 0.095200
v 0.732979 0.020242 0.095200
v 0.845233 0.470038 0.070000
v 0.209835 0.546654 0.070000
v 0.211953 0.083066 0.464800
v 0.732979 0.020242 0.464800
v 0.845233 0.470038 0.490000
v 0.209835 0.546654 0.490000
v -0.437366 0.384268 0.212000
v 0.211751 0.436308 0.212000
v 0.311400 0.624875 0.160000
v -0.565785 0.554550 0.160000
v -0.437366 0.384268 0.628000
v 0.211751 0.436308 0.628000
v 0.311400 0.624875 0.680000
v -0.565785 0.554550 0.680000
f 19 17 15 13 11 9 7 5 3 1
f 2 4 6 8 10 12 14 16 18 20
f 1 3 4 2
f 3 5 6 4
f 5 7 8 6
f 7 9 10 8
f 9 11 12 10
f 11 13 14 12
f 13 15 16 14
f 15 17 18 16
f 17 19 20 18
f 19 1 2 20
f 37 35 33 31 29 27 25 23 21
f 22 24 26 28 30 32 34 36 38
f 21 23 24 22
f 23 25 26 24
f 25 27 28 26
f 27 29 30 28
f 29 31 32 30
f 31 33 34 32
f 33 35 36 34
f 35 37 38 36
f 37 21 22 38
f 39 40 41 42
f 43 46 45 44
f 39 43 44 40
f 40 44 45 41
f 41 45 46 42
f 43 39 42 46
f 47 48 49 50
f 51 54 53 52
f 47 51 52 48
f 48 52 53 49
f 49 53 54 50
f 51 47 50 54
