o fallen_banner
v 1.740624 -0.029088 0.000000
v -1.725315 0.458018 0.000000
v 1.738382 -0.045041 0.038891
v -1.727557 0.442065 0.038891
v 1.732969 -0.083553 0.055000
v -1.732969 0.403553 0.055000
v 1.727557 -0.122065 0.038891
v -1.738382 0.365041 0.038891
v 1.725315 -0.138018 0.000000
v -1.740624 0.349088 0.000000
v 1.727557 -0.122065 -0.038891
v -1.738382 0.365041 -0.038891
v 1.732969 -0.083553 -0.055000
v -1.732969 0.403553 -0.055000
v 1.738382 -0.045041 -0.038891
v -1.727557 0.442065 -0.038891
v -0.567384 -0.017188 -0.160000
v 1.074373 0.147537 -0.160000
v 1.067384 0.217188 -0.160000
v -0.574373 0.052463 -0.160000
v -0.567384 -0.017188 0.560000
v 1.074373 0.147537 0.560000
v 1.067384 0.217188 0.560000
v -0.574373 0.052463 0.560000
v 0.059273 0.084241 0.130000
v 1.176530 0.005905 0.130000
v 1.180727 0.065759 0.130000
v 0.063470 0.144095 0.130000
v 0.059273 0.084241 0.750000
v 1.176530 0.005905 0.750000
v 1.180727 0.065759 0.750000
v 0.063470 0.144095 0.750000
v -0.699223 -0.024418 -0.480000
v 0.068175 0.115225 -0.480000
v 0.059223 0.164418 -0.480000
v -0.708175 0.024775 -0.480000
v -0.699223 -0.024418 0.000000
v 0.068175 0.115225 0.000000
v 0.059223 0.164418 0.000000
v -0.708175 0.024775 0.000000
f 15 13 11 9 7 5 3 1
f 2 4 6 8 10 12 14 16
f 1 3 4 2
f 3 5 6 4
f 5 7 8 6
f 7 9 10 8
f 9 11 12 10
f 11 13 14 12
f 13 15 16 14
f 15 1 2 16
f 17 18 19 20
f 21 24 23 22
f 17 21 22 18
f 18 22 23 19
f 19 23 24 20
f 21 17 20 24
f 25 26 27 28
f 29 32 31 30
f 25 29 30 26
f 26 30 31 27
f 27 31 32 28
f 29 25 28 32
f 33 34 35 36
f 37 40 39 38
f 33 37 38 34
f 34 38 39 35
f 35 39 40 36
f 37 33 36 40
