o rubble_field
v -1.080000 0.068068 -0.441833
v -0.620000 0.068068 -0.441833
v -0.620000 -0.003544 -0.048295
v -1.080000 -0.003544 -0.048295
v -1.080000 0.343544 -0.391705
v -0.620000 0.281562 -0.402983
v -0.620000 0.209950 -0.009446
v -1.080000 0.271932 0.001833
v -0.670000 0.019934 0.229019
v -0.090000 0.019934 0.229019
v -0.090000 0.061864 0.646921
v -0.670000 0.061864 0.646921
v -0.670000 0.378136 0.193079
v -0.090000 0.297540 0.201166
v -0.090000 0.339470 0.619067
v -0.670000 0.420066 0.610981
v -0.110000 0.051286 -0.634340
v 0.310000 0.051286 -0.634340
v 0.310000 0.010584 -0.296785
v -0.110000 0.010584 -0.296785
v -0.110000 0.309416 -0.603215
v 0.310000 0.251337 -0.610218
v 0.310000 0.210635 -0.272663
v -0.110000 0.268714 -0.265660
v 0.150000 0.012853 -0.053350
v 0.810000 0.012853 -0.053350
v 0.810000 0.092512 0.440264
v 0.150000 0.092512 0.440264
v 0.150000 0.427488 -0.120264
v 0.810000 0.334195 -0.105208
v 0.810000 0.413854 0.388406
v 0.150000 0.507147 0.373350
v 0.740000 0.078603 -0.493079
v 1.100000 0.078603 -0.493079
v 1.100000 -0.011724 -0.123970
v 0.740000 -0.011724 -0.123970
v 0.740000 0.311724 -0.436030
v 1.100000 0.259272 -0.448866
v 1.100000 0.168945 -0.079757
v 0.740000 0.221397 -0.066921
v -0.310000 0.056730 -0.152197
v 0.210000 0.056730 -0.152197
v 0.210000 0.084314 0.306976
v -0.310000 0.084314 0.306976
v -0.310000 0.635686 -0.186976
v 0.210000 0.505421 -0.179150
v 0.210000 0.533005 0.280022
v -0.310000 0.663270 0.272197
f 1 2 3 4
f 5 8 7 6
f 1 5 6 2
f 2 6 7 3
f 3 7 8 4
f 4 8 5 1
f 9 10 11 12
f 13 16 15 14
f 9 13 14 10
f 10 14 15 11
f 11 15 16 12
f 12 16 13 9
f 17 18 19 20
f 21 24 23 22
f 17 21 22 18
f 18 22 23 19
f 19 23 24 20
f 20 24 21 17
f 25 26 27 28
f 29 32 31 30
f 25 29 30 26
f 26 30 31 27
f 27 31 32 28
f 28 32 29 25
f 33 34 35 36
f 37 40 39 38
f 33 37 38 34
f 34 38 39 35
f 35 39 40 36
f 36 40 37 33
f 41 42 43 44
f 45 48 47 46
f 41 45 46 42
f 42 46 47 43
f 43 47 48 44
f 44 48 45 41
