o ruined_watchpost
v -0.729851 -0.002395 -0.630000
v -0.570362 0.010391 -0.630000
v -0.770149 2.502395 -0.630000
v -0.929638 2.489609 -0.630000
v -0.729851 -0.002395 -0.470000
v -0.570362 0.010391 -0.470000
v -0.770149 2.502395 -0.470000
v -0.929638 2.489609 -0.470000
v 0.577182 0.006687 -0.580000
v 0.736894 -0.002908 -0.580000
v 0.862818 2.093313 -0.580000
v 0.703106 2.102908 -0.580000
v 0.577182 0.006687 -0.420000
v 0.736894 -0.002908 -0.420000
v 0.862818 2.093313 -0.420000
v 0.703106 2.102908 -0.420000
v -0.627541 -0.002208 0.460000
v -0.469584 0.023283 0.460000
v -0.732459 1.652208 0.460000
v -0.890416 1.626717 0.460000
v -0.627541 -0.002208 0.620000
v -0.469584 0.023283 0.620000
v -0.732459 1.652208 0.620000
v -0.890416 1.626717 0.620000
v 0.504593 0.013782 0.470000
v 0.663794 -0.002192 0.470000
v 0.895407 2.306218 0.470000
v 0.736206 2.322192 0.470000
v 0.504593 0.013782 0.630000
v 0.663794 -0.002192 0.630000
v 0.895407 2.306218 0.630000
v 0.736206 2.322192 0.630000
v -0.900411 1.610889 -0.778030
v 0.893832 1.467042 -0.778030
v 0.906602 1.626331 -0.770033
v -0.887641 1.770178 -0.770033
v -0.906602 1.533669 0.770033
v 0.887641 1.389822 0.770033
v 0.900411 1.549111 0.778030
v -0.893832 1.692958 0.778030
v -0.919344 1.911936 -0.662126
v 0.265329 2.103118 -0.662126
v 0.243185 2.240335 -0.678885
v -0.941488 2.049154 -0.678885
v -0.943185 2.059665 0.578885
v 0.241488 2.250846 0.578885
v 0.219344 2.388064 0.562126
v -0.965329 2.196882 0.562126
v 0.188873 2.060871 -0.378367
v 0.907663 1.884971 -0.378367
v 0.936045 2.000949 -0.366387
v 0.217254 2.176849 -0.366387
v 0.163955 1.959051 0.666387
v 0.882746 1.783151 0.666387
v 0.911127 1.899129 0.678367
v 0.192337 2.075029 0.678367
v -0.525179 0.909226 -0.730000
v -0.425407 0.902482 -0.730000
v -0.374821 1.650774 -0.730000
v -0.474593 1.657518 -0.730000
v -0.525179 0.909226 -0.630000
v -0.425407 0.902482 -0.630000
v -0.374821 1.650774 -0.630000
v -0.474593 1.657518 -0.630000
v -0.050000 0.905000 -0.730000
v 0.050000 0.905000 -0.730000
v 0.050000 1.655000 -0.730000
v -0.050000 1.655000 -0.730000
v -0.050000 0.905000 -0.630000
v 0.050000 0.905000 -0.630000
v 0.050000 1.655000 -0.630000
v -0.050000 1.655000 -0.630000
v 0.425407 0.902482 -0.730000
v 0.525179 0.909226 -0.730000
v 0.474593 1.657518 -0.730000
v 0.374821 1.650774 -0.730000
v 0.425407 0.902482 -0.630000
v 0.525179 0.909226 -0.630000
v 0.474593 1.657518 -0.630000
v 0.374821 1.650774 -0.630000
f 1 2 3 4
f 5 8 7 6
f 1 5 6 2
f 2 6 7 3
f 3 7 8 4
f 5 1 4 8
f 9 10 11 12
f 13 16 15 14
f 9 13 14 10
f 10 14 15 11
f 11 15 16 12
f 13 9 12 16
f 17 18 19 20
f 21 24 23 22
f 17 21 22 18
f 18 22 23 19
f 19 23 24 20
f 21 17 20 24
f 25 26 27 28
f 29 32 31 30
f 25 29 30 26
f 26 30 31 27
f 27 31 32 28
f 29 25 28 32
f 33 34 35 36
f 37 40 39 38
f 33 37 38 34
f 34 38 39 35
f 35 39 40 36
f 37 33 36 40
f 41 42 43 44
f 45 48 47 46
f 41 45 46 42
f 42 46 47 43
f 43 47 48 44
f 45 41 44 48
f 49 50 51 52
f 53 56 55 54
f 49 53 54 50
f 50 54 55 51
f 51 55 56 52
f 53 49 52 56
f 57 58 59 60
f 61 64 63 62
f 57 61 62 58
f 58 62 63 59
f 59 63 64 60
f 61 57 60 64
f 65 66 67 68
f 69 72 71 70
f 65 69 70 66
f 66 70 71 67
f 67 71 72 68
f 69 65 68 72
f 73 74 75 76
f 77 80 79 78
f 73 77 78 74
f 74 78 79 75
f 75 79 80 76
f 77 73 76 80
