o stump_cluster
v -0.008764 0.010969 0.020000
v -0.031560 0.770627 0.020000
v -0.092950 0.008443 0.251404
v -0.115746 0.768101 0.251404
v -0.306116 0.002046 0.374531
v -0.328913 0.761704 0.374531
v -0.548521 -0.005228 0.331769
v -0.571317 0.754430 0.331769
v -0.706739 -0.009976 0.143127
v -0.729535 0.749682 0.143127
v -0.706739 -0.009976 -0.103127
v -0.729535 0.749682 -0.103127
v -0.548521 -0.005228 -0.291769
v -0.571317 0.754430 -0.291769
v -0.306116 0.002046 -0.334531
v -0.328913 0.761704 -0.334531
v -0.092950 0.008443 -0.211404
v -0.115746 0.768101 -0.211404
v 0.678455 -0.018348 0.180000
v 0.720010 0.499989 0.180000
v 0.608385 -0.012730 0.349706
v 0.649941 0.505606 0.349706
v 0.439222 0.000832 0.420000
v 0.480778 0.519168 0.420000
v 0.270059 0.014394 0.349706
v 0.311615 0.532730 0.349706
v 0.199990 0.020011 0.180000
v 0.241545 0.538348 0.180000
v 0.270059 0.014394 0.010294
v 0.311615 0.532730 0.010294
v 0.439222 0.000832 -0.060000
v 0.480778 0.519168 -0.060000
v 0.608385 -0.012730 0.010294
v 0.649941 0.505606 0.010294
v 0.442122 -0.045063 -0.420000
v -0.621174 0.393000 -0.420000
v 0.430649 -0.072913 -0.357453
v -0.632648 0.365150 -0.357453
v 0.404867 -0.135491 -0.342006
v -0.658430 0.302572 -0.342006
v 0.384192 -0.185675 -0.385289
v -0.679105 0.252388 -0.385289
v 0.384192 -0.185675 -0.454711
v -0.679105 0.252388 -0.454711
v 0.404867 -0.135491 -0.497994
v -0.658430 0.302572 -0.497994
v 0.430649 -0.072913 -0.482547
v -0.632648 0.365150 -0.482547
v -0.231527 -0.193261 0.460000
v 0.597513 0.249787 0.460000
v -0.243949 -0.170017 0.514728
v 0.585091 0.273032 0.514728
v -0.271862 -0.117787 0.528245
v 0.557179 0.325262 0.528245
v -0.294246 -0.075901 0.490372
v 0.534795 0.367147 0.490372
v -0.294246 -0.075901 0.429628
v 0.534795 0.367147 0.429628
v -0.271862 -0.117787 0.391755
v 0.557179 0.325262 0.391755
v -0.243949 -0.170017 0.405272
v 0.585091 0.273032 0.405272
v -0.875239 -0.237803 0.350000
v -0.334544 0.378677 0.350000
v -0.892223 -0.222908 0.396910
v -0.351528 0.393573 0.396910
v -0.930385 -0.189437 0.408496
v -0.389690 0.427044 0.408496
v -0.960989 -0.162595 0.376033
v -0.420293 0.453885 0.376033
v -0.960989 -0.162595 0.323967
v -0.420293 0.453885 0.323967
v -0.930385 -0.189437 0.291504
v -0.389690 0.427044 0.291504
v -0.892223 -0.222908 0.303090
v -0.351528 0.393573 0.303090
f 17 15 13 11 9 7 5 3 1
f 2 4 6 8 10 12 14 16 18
f 1 3 4 2
f 3 5 6 4
f 5 7 8 6
f 7 9 10 8
f 9 11 12 10
f 11 13 14 12
f 13 15 16 14
f 15 17 18 16
f 17 1 2 18
f 33 31 29 27 25 23 21 19
f 20 22 24 26 28 30 32 34
f 19 21 22 20
f 21 23 24 22
f 23 25 26 24
f 25 27 28 26
f 27 29 30 28
f 29 31 32 30
f 31 33 34 32
f 33 19 20 34
f 47 45 43 41 39 37 35
f 36 38 40 42 44 46 48
f 35 37 38 36
f 37 39 40 38
f 39 41 42 40
f 41 43 44 42
f 43 45 46 44
f 45 47 48 46
f 47 35 36 48
f 61 59 57 55 53 51 49
f 50 52 54 56 58 60 62
f 49 51 52 50
f 51 53 54 52
f 53 55 56 54
f 55 57 58 56
f 57 59 60 58
f 59 61 62 60
f 61 49 50 62
f 75 73 71 69 67 65 63
f 64 66 68 70 72 74 76
f 63 65 66 64
f 65 67 68 66
f 67 69 70 68
f 69 71 72 70
f 71 73 74 72
f 73 75 76 74
f 75 63 64 76
