o supply_crates
v -1.023775 0.010000 -0.282278
v -0.125395 0.010000 -0.336246
v -0.125395 0.730000 -0.336246
v -1.023775 0.730000 -0.282278
v -0.974605 0.010000 0.536246
v -0.076225 0.010000 0.482278
v -0.076225 0.730000 0.482278
v -0.974605 0.730000 0.536246
v -0.965354 0.377600 -0.303712
v -0.138844 0.377600 -0.353362
v -0.138844 0.477600 -0.353362
v -0.965354 0.477600 -0.303712
v -0.961156 0.377600 -0.233838
v -0.134646 0.377600 -0.283488
v -0.134646 0.477600 -0.283488
v -0.961156 0.477600 -0.233838
v -1.039064 0.046000 -0.266237
v -0.969190 0.046000 -0.270435
v -0.969190 0.694000 -0.270435
v -1.039064 0.694000 -0.266237
v -0.994810 0.046000 0.470435
v -0.924936 0.046000 0.466237
v -0.924936 0.694000 0.466237
v -0.994810 0.694000 0.470435
v 0.074170 0.010000 -0.558849
v 0.821771 0.010000 -0.498913
v 0.821771 0.610000 -0.498913
v 0.074170 0.610000 -0.558849
v 0.018229 0.010000 0.138913
v 0.765830 0.010000 0.198849
v 0.765830 0.610000 0.198849
v 0.018229 0.610000 0.138913
v 0.078900 0.308000 -0.578459
v 0.766694 0.308000 -0.523317
v 0.766694 0.408000 -0.523317
v 0.078900 0.408000 -0.578459
v 0.073306 0.308000 -0.508683
v 0.761100 0.308000 -0.453541
v 0.761100 0.408000 -0.453541
v 0.073306 0.408000 -0.508683
v 0.050285 0.040000 -0.496790
v 0.120061 0.040000 -0.491196
v 0.120061 0.580000 -0.491196
v 0.050285 0.580000 -0.496790
v -0.000061 0.040000 0.131196
v 0.069715 0.040000 0.136790
v 0.069715 0.580000 0.136790
v -0.000061 0.580000 0.131196
v -0.163684 0.525000 -0.140732
v 0.451857 0.525000 -0.214953
v 0.451857 1.075000 -0.214953
v -0.163684 1.075000 -0.140732
v -0.091857 0.525000 0.454953
v 0.523684 0.525000 0.380732
v 0.523684 1.075000 0.380732
v -0.091857 1.075000 0.454953
v -0.107339 0.794000 -0.168606
v 0.458959 0.794000 -0.236890
v 0.458959 0.894000 -0.236890
v -0.107339 0.894000 -0.168606
v -0.098959 0.794000 -0.099110
v 0.467339 0.794000 -0.167394
v 0.467339 0.894000 -0.167394
v -0.098959 0.894000 -0.099110
v -0.184671 0.552500 -0.143868
v -0.115174 0.552500 -0.152248
v -0.115174 1.047500 -0.152248
v -0.184671 1.047500 -0.143868
v -0.120026 0.552500 0.392248
v -0.050529 0.552500 0.383868
v -0.050529 1.047500 0.383868
v -0.120026 1.047500 0.392248
f 1 2 3 4
f 5 8 7 6
f 1 5 6 2
f 2 6 7 3
f 3 7 8 4
f 5 1 4 8
f 9 10 11 12
f 13 16 15 14
f 9 13 14 10
f 10 14 15 11
f 11 15 16 12
f 13 9 12 16
f 17 18 19 20
f 21 24 23 22
f 17 21 22 18
f 18 22 23 19
f 19 23 24 20
f 21 17 20 24
f 25 26 27 28
f 29 32 31 30
f 25 29 30 26
f 26 30 31 27
f 27 31 32 28
f 29 25 28 32
f 33 34 35 36
f 37 40 39 38
f 33 37 38 34
f 34 38 39 35
f 35 39 40 36
f 37 33 36 40
f 41 42 43 44
f 45 48 47 46
f 41 45 46 42
f 42 46 47 43
f 43 47 48 44
f 45 41 44 48
f 49 50 51 52
f 53 56 55 54
f 49 53 54 50
f 50 54 55 51
f 51 55 56 52
f 53 49 52 56
f 57 58 59 60
f 61 64 63 62
f 57 61 62 58
f 58 62 63 59
f 59 63 64 60
f 61 57 60 64
f 65 66 67 68
f 69 72 71 70
f 65 69 70 66
f 66 70 71 67
f 67 71 72 68
f 69 65 68 72
