o weapon_rack
v -0.738305 -0.002650 -0.080000
v -0.598557 0.005745 -0.080000
v -0.701695 1.722650 -0.080000
v -0.841443 1.714255 -0.080000
v -0.738305 -0.002650 0.080000
v -0.598557 0.005745 0.080000
v -0.701695 1.722650 0.080000
v -0.841443 1.714255 0.080000
v 0.598557 0.005745 -0.080000
v 0.738305 -0.002650 -0.080000
v 0.841443 1.714255 -0.080000
v 0.701695 1.722650 -0.080000
v 0.598557 0.005745 0.080000
v 0.738305 -0.002650 0.080000
v 0.841443 1.714255 0.080000
v 0.701695 1.722650 0.080000
v -0.770000 1.160000 -0.070000
v 0.770000 1.160000 -0.070000
v 0.770000 1.280000 -0.070000
v -0.770000 1.280000 -0.070000
v -0.770000 1.160000 0.070000
v 0.770000 1.160000 0.070000
v 0.770000 1.280000 0.070000
v -0.770000 1.280000 0.070000
v -0.770000 0.380000 -0.070000
v 0.770000 0.380000 -0.070000
v 0.770000 0.500000 -0.070000
v -0.770000 0.500000 -0.070000
v -0.770000 0.380000 0.070000
v 0.770000 0.380000 0.070000
v 0.770000 0.500000 0.070000
v -0.770000 0.500000 0.070000
v -0.559433 0.150177 0.100000
v -0.410791 2.004229 0.100000
v -0.576877 0.151576 0.130311
v -0.428235 2.005627 0.130311
v -0.611765 0.154373 0.130311
v -0.463123 2.008424 0.130311
v -0.629209 0.155771 0.100000
v -0.480567 2.009823 0.100000
v -0.611765 0.154373 0.069689
v -0.463123 2.008424 0.069689
v -0.576877 0.151576 0.069689
v -0.428235 2.005627 0.069689
v -0.640000 1.830000 0.065000
v -0.400000 1.830000 0.065000
v -0.400000 1.830000 0.135000
v -0.640000 1.830000 0.135000
v -0.640000 2.130000 0.065000
v -0.400000 2.062500 0.065000
v -0.400000 2.062500 0.135000
v -0.640000 2.130000 0.135000
v -0.070791 0.155771 0.100000
v -0.219433 2.009823 0.100000
v -0.088235 0.154373 0.130311
v -0.236877 2.008424 0.130311
v -0.123123 0.151576 0.130311
v -0.271765 2.005627 0.130311
v -0.140567 0.150177 0.100000
v -0.289209 2.004229 0.100000
v -0.123123 0.151576 0.069689
v -0.271765 2.005627 0.069689
v -0.088235 0.154373 0.069689
v -0.236877 2.008424 0.069689
v -0.300000 1.830000 0.065000
v -0.060000 1.830000 0.065000
v -0.060000 1.830000 0.135000
v -0.300000 1.830000 0.135000
v -0.300000 2.130000 0.065000
v -0.060000 2.062500 0.065000
v -0.060000 2.062500 0.135000
v -0.300000 2.130000 0.135000
v 0.140567 0.150177 0.100000
v 0.289209 2.004229 0.100000
v 0.123123 0.151576 0.130311
v 0.271765 2.005627 0.130311
v 0.088235 0.154373 0.130311
v 0.236877 2.008424 0.130311
v 0.070791 0.155771 0.100000
v 0.219433 2.009823 0.100000
v 0.088235 0.154373 0.069689
v 0.236877 2.008424 0.069689
v 0.123123 0.151576 0.069689
v 0.271765 2.005627 0.069689
v 0.060000 1.830000 0.065000
v 0.300000 1.830000 0.065000
v 0.300000 1.830000 0.135000
v 0.060000 1.830000 0.135000
v 0.060000 2.130000 0.065000
v 0.300000 2.062500 0.065000
v 0.300000 2.062500 0.135000
v 0.060000 2.130000 0.135000
v 0.629209 0.155771 0.100000
v 0.480567 2.009823 0.100000
v 0.611765 0.154373 0.130311
v 0.463123 2.008424 0.130311
v 0.576877 0.151576 0.130311
v 0.428235 2.005627 0.130311
v 0.559433 0.150177 0.100000
v 0.410791 2.004229 0.100000
v 0.576877 0.151576 0.069689
v 0.428235 2.005627 0.069689
v 0.611765 0.154373 0.069689
v 0.463123 2.008424 0.069689
v 0.400000 1.830000 0.065000
v 0.640000 1.830000 0.065000
v 0.640000 1.830000 0.135000
v 0.400000 1.830000 0.135000
v 0.400000 2.130000 0.065000
v 0.640000 2.062500 0.065000
v 0.640000 2.062500 0.135000
v 0.400000 2.130000 0.135000
f 1 2 3 4
f 5 8 7 6
f 1 5 6 2
f 2 6 7 3
f 3 7 8 4
f 5 1 4 8
f 9 10 11 12
f 13 16 15 14
f 9 13 14 10
f 10 14 15 11
f 11 15 16 12
f 13 9 12 16
f 17 18 19 20
f 21 24 23 22
f 17 21 22 18
f 18 22 23 19
f 19 23 24 20
f 21 17 20 24
f 25 26 27 28
f 29 32 31 30
f 25 29 30 26
f 26 30 31 27
f 27 31 32 28
f 29 25 28 32
f 43 41 39 37 35 33
f 34 36 38 40 42 44
f 33 35 36 34
f 35 37 38 36
f 37 39 40 38
f 39 41 42 40
f 41 43 44 42
f 43 33 34 44
f 45 46 47 48
f 49 52 51 50
f 45 49 50 46
f 46 50 51 47
f 47 51 52 48
f 48 52 49 45
f 63 61 59 57 55 53
f 54 56 58 60 62 64
f 53 55 56 54
f 55 57 58 56
f 57 59 60 58
f 59 61 62 60
f 61 63 64 62
f 63 53 54 64
f 65 66 67 68
f 69 72 71 70
f 65 69 70 66
f 66 70 71 67
f 67 71 72 68
f 68 72 69 65
f 83 81 79 77 75 73
f 74 76 78 80 82 84
f 73 75 76 74
f 75 77 78 76
f 77 79 80 78
f 79 81 82 80
f 81 83 84 82
f 83 73 74 84
f 85 86 87 88
f 89 92 91 90
f 85 89 90 86
f 86 90 91 87
f 87 91 92 88
f 88 92 89 85
f 103 101 99 97 95 93
f 94 96 98 100 102 104
f 93 95 96 94
f 95 97 98 96
f 97 99 100 98
f 99 101 102 100
f 101 103 104 102
f 103 93 94 104
f 105 106 107 108
f 109 112 111 110
f 105 109 110 106
f 106 110 111 107
f 107 111 112 108
f 108 112 109 105
