o banner_cluster
s off
v -0.467981 0.001281 -0.250000
v -0.368301 0.009273 -0.250000
v -0.632019 3.298719 -0.250000
v -0.731699 3.290727 -0.250000
v -0.467981 0.001281 -0.150000
v -0.368301 0.009273 -0.150000
v -0.632019 3.298719 -0.150000
v -0.731699 3.290727 -0.150000
v -0.367139 2.162914 -0.200000
v -0.307331 2.167709 -0.200000
v -0.372861 2.985086 -0.200000
v -0.432669 2.980291 -0.200000
v -0.367139 2.162914 0.500000
v -0.307331 2.167709 0.500000
v -0.372861 2.985086 0.500000
v -0.432669 2.980291 0.500000
v -0.149896 0.004998 0.050000
v -0.050021 0.000001 0.050000
v 0.149896 3.995002 0.050000
v 0.050021 3.999999 0.050000
v -0.149896 0.004998 0.150000
v -0.050021 0.000001 0.150000
v 0.149896 3.995002 0.150000
v 0.050021 3.999999 0.150000
v 0.129546 2.712012 0.100000
v 0.189471 2.709013 0.100000
v 0.230454 3.527988 0.100000
v 0.170529 3.530987 0.100000
v 0.129546 2.712012 0.800000
v 0.189471 2.709013 0.800000
v 0.230454 3.527988 0.800000
v 0.170529 3.530987 0.800000
v 0.734970 0.003577 -0.150000
v 0.834365 0.014555 -0.150000
v 0.505030 2.996423 -0.150000
v 0.405635 2.985445 -0.150000
v 0.734970 0.003577 -0.050000
v 0.834365 0.014555 -0.050000
v 0.505030 2.996423 -0.050000
v 0.405635 2.985445 -0.050000
v 0.815190 1.929185 -0.100000
v 0.874828 1.935771 -0.100000
v 0.784810 2.750815 -0.100000
v 0.725172 2.744229 -0.100000
v 0.815190 1.929185 0.600000
v 0.874828 1.935771 0.600000
v 0.784810 2.750815 0.600000
v 0.725172 2.744229 0.600000
f 4 3 2 1
f 6 7 8 5
f 2 6 5 1
f 3 7 6 2
f 4 8 7 3
f 8 4 1 5
f 12 11 10 9
f 14 15 16 13
f 10 14 13 9
f 11 15 14 10
f 12 16 15 11
f 16 12 9 13
f 20 19 18 17
f 22 23 24 21
f 18 22 21 17
f 19 23 22 18
f 20 24 23 19
f 24 20 17 21
f 28 27 26 25
f 30 31 32 29
f 26 30 29 25
f 27 31 30 26
f 28 32 31 27
f 32 28 25 29
f 36 35 34 33
f 38 39 40 37
f 34 38 37 33
f 35 39 38 34
f 36 40 39 35
f 40 36 33 37
f 44 43 42 41
f 46 47 48 45
f 42 46 45 41
f 43 47 46 42
f 44 48 47 43
f 48 44 41 45
