o chapel_ruin
s off
v -1.300000 0.000000 -1.900000
v 1.300000 0.000000 -1.900000
v 1.300000 2.800000 -1.900000
v -1.300000 2.800000 -1.900000
v -1.300000 0.000000 1.900000
v 1.300000 0.000000 1.900000
v 1.300000 2.800000 1.900000
v -1.300000 2.800000 1.900000
v -1.450000 2.725000 -2.050000
v 1.450000 2.725000 -2.050000
v 1.450000 3.075000 -2.050000
v -1.450000 3.075000 -2.050000
v -1.450000 2.725000 2.050000
v 1.450000 2.725000 2.050000
v 1.450000 3.075000 2.050000
v -1.450000 3.075000 2.050000
v -1.639360 0.018384 -0.170000
v -1.360256 -0.003992 -0.170000
v -1.000640 4.481616 -0.170000
v -1.279744 4.503992 -0.170000
v -1.639360 0.018384 0.170000
v -1.360256 -0.003992 0.170000
v -1.000640 4.481616 0.170000
v -1.279744 4.503992 0.170000
v 1.360256 -0.003992 -0.170000
v 1.639360 0.018384 -0.170000
v 1.279744 4.503992 -0.170000
v 1.000640 4.481616 -0.170000
v 1.360256 -0.003992 0.170000
v 1.639360 0.018384 0.170000
v 1.279744 4.503992 0.170000
v 1.000640 4.481616 0.170000
v -0.250000 3.200000 -1.825000
v 0.250000 3.200000 -1.825000
v 0.250000 5.300000 -1.825000
v -0.250000 5.300000 -1.825000
v -0.250000 3.200000 -1.275000
v 0.250000 3.200000 -1.275000
v 0.250000 5.300000 -1.275000
v -0.250000 5.300000 -1.275000
v 0.140000 5.250000 -1.550000
v 0.087289 5.250000 -1.440544
v -0.031153 5.250000 -1.413510
v -0.126136 5.250000 -1.489256
v -0.126136 5.250000 -1.610744
v -0.031153 5.250000 -1.686490
v 0.087289 5.250000 -1.659456
v 0.041989 6.299160 -1.550000
f 4 3 2 1
f 6 7 8 5
f 2 6 5 1
f 3 7 6 2
f 4 8 7 3
f 8 4 1 5
f 12 11 10 9
f 14 15 16 13
f 10 14 13 9
f 11 15 14 10
f 12 16 15 11
f 16 12 9 13
f 20 19 18 17
f 22 23 24 21
f 18 22 21 17
f 19 23 22 18
f 20 24 23 19
f 24 20 17 21
f 28 27 26 25
f 30 31 32 29
f 26 30 29 25
f 27 31 30 26
f 28 32 31 27
f 32 28 25 29
f 36 35 34 33
f 38 39 40 37
f 34 38 37 33
f 35 39 38 34
f 36 40 39 35
f 40 36 33 37
f 48 42 41
f 48 43 42
f 48 44 43
f 48 45 44
f 48 46 45
f 48 47 46
f 48 41 47
f 41 42 43 44 45 46 47
