o charred_tree_cluster
s off
v -0.741151 0.000000 -0.180846
v -0.800719 3.400000 -0.188029
v -0.815934 0.000000 -0.063864
v -0.847459 3.400000 -0.114915
v -0.954021 0.000000 -0.049395
v -0.933763 3.400000 -0.105872
v -1.051429 0.000000 -0.148335
v -0.994643 3.400000 -0.167709
v -1.034808 0.000000 -0.286179
v -0.984255 3.400000 -0.253862
v -0.916674 0.000000 -0.359129
v -0.910421 3.400000 -0.299456
v -0.785984 0.000000 -0.312251
v -0.828740 3.400000 -0.270157
v -0.245054 1.899394 -0.250000
v -0.168596 1.991882 -0.250000
v -1.054946 2.724606 -0.250000
v -1.131404 2.632118 -0.250000
v -0.245054 1.899394 -0.150000
v -0.168596 1.991882 -0.150000
v -1.054946 2.724606 -0.150000
v -1.131404 2.632118 -0.150000
v -1.466256 1.476270 -0.250000
v -1.393773 1.407378 -0.250000
v -0.773744 2.059730 -0.250000
v -0.846227 2.128622 -0.250000
v -1.466256 1.476270 -0.150000
v -1.393773 1.407378 -0.150000
v -0.773744 2.059730 -0.150000
v -0.846227 2.128622 -0.150000
v 0.158849 0.000000 0.369154
v 0.099281 4.200000 0.361971
v 0.084066 0.000000 0.486136
v 0.052541 4.200000 0.435085
v -0.054021 0.000000 0.500605
v -0.033763 4.200000 0.444128
v -0.151429 0.000000 0.401665
v -0.094643 4.200000 0.382291
v -0.134808 0.000000 0.263821
v -0.084255 4.200000 0.296138
v -0.016674 0.000000 0.190871
v -0.010421 4.200000 0.250544
v 0.114016 0.000000 0.237749
v 0.071260 4.200000 0.279843
v 0.574535 2.377563 0.300000
v 0.666316 2.454869 0.300000
v -0.074535 3.334437 0.300000
v -0.166316 3.257131 0.300000
v 0.574535 2.377563 0.400000
v 0.666316 2.454869 0.400000
v -0.074535 3.334437 0.400000
v -0.166316 3.257131 0.400000
v -0.612891 1.958973 0.300000
v -0.553912 1.878217 0.300000
v 0.172891 2.409027 0.300000
v 0.113912 2.489783 0.300000
v -0.612891 1.958973 0.400000
v -0.553912 1.878217 0.400000
v 0.172891 2.409027 0.400000
v 0.113912 2.489783 0.400000
v 1.108849 0.000000 -0.080846
v 1.049281 2.900000 -0.088029
v 1.034066 0.000000 0.036136
v 1.002541 2.900000 -0.014915
v 0.895979 0.000000 0.050605
v 0.916237 2.900000 -0.005872
v 0.798571 0.000000 -0.048335
v 0.855357 2.900000 -0.067709
v 0.815192 0.000000 -0.186179
v 0.865745 2.900000 -0.153862
v 0.933326 0.000000 -0.259129
v 0.939579 2.900000 -0.199456
v 1.064016 0.000000 -0.212251
v 1.021260 2.900000 -0.170157
v 1.628959 1.584418 -0.150000
v 1.699733 1.681325 -0.150000
v 0.771041 2.359582 -0.150000
v 0.700267 2.262675 -0.150000
v 1.628959 1.584418 -0.050000
v 1.699733 1.681325 -0.050000
v 0.771041 2.359582 -0.050000
v 0.700267 2.262675 -0.050000
v 0.401860 1.196032 -0.150000
v 0.478344 1.131610 -0.150000
v 1.058140 1.819968 -0.150000
v 0.981656 1.884390 -0.150000
v 0.401860 1.196032 -0.050000
v 0.478344 1.131610 -0.050000
v 1.058140 1.819968 -0.050000
v 0.981656 1.884390 -0.050000
f 1 3 5 7 9 11 13
f 14 12 10 8 6 4 2
f 2 4 3 1
f 4 6 5 3
f 6 8 7 5
f 8 10 9 7
f 10 12 11 9
f 12 14 13 11
f 14 2 1 13
f 18 17 16 15
f 20 21 22 19
f 16 20 19 15
f 17 21 20 16
f 18 22 21 17
f 22 18 15 19
f 26 25 24 23
f 28 29 30 27
f 24 28 27 23
f 25 29 28 24
f 26 30 29 25
f 30 26 23 27
f 31 33 35 37 39 41 43
f 44 42 40 38 36 34 32
f 32 34 33 31
f 34 36 35 33
f 36 38 37 35
f 38 40 39 37
f 40 42 41 39
f 42 44 43 41
f 44 32 31 43
f 48 47 46 45
f 50 51 52 49
f 46 50 49 45
f 47 51 50 46
f 48 52 51 47
f 52 48 45 49
f 56 55 54 53
f 58 59 60 57
f 54 58 57 53
f 55 59 58 54
f 56 60 59 55
f 60 56 53 57
f 61 63 65 67 69 71 73
f 74 72 70 68 66 64 62
f 62 64 63 61
f 64 66 65 63
f 66 68 67 65
f 68 70 69 67
f 70 72 71 69
f 72 74 73 71
f 74 62 61 73
f 78 77 76 75
f 80 81 82 79
f 76 80 79 75
f 77 81 80 76
f 78 82 81 77
f 82 78 75 79
f 86 85 84 83
f 88 89 90 87
f 84 88 87 83
f 85 89 88 84
f 86 90 89 85
f 90 86 83 87
