o distant_hamlet
s off
v -2.300000 0.000000 -0.950000
v -0.900000 0.000000 -0.950000
v -0.900000 1.300000 -0.950000
v -2.300000 1.300000 -0.950000
v -2.300000 0.000000 0.150000
v -0.900000 0.000000 0.150000
v -0.900000 1.300000 0.150000
v -2.300000 1.300000 0.150000
v -1.025829 1.300000 0.047853
v -1.557574 1.900000 -0.366907
v -2.174171 1.300000 0.047853
v -1.642426 1.900000 -0.366907
v -2.174171 1.300000 -0.847853
v -1.642426 1.900000 -0.433093
v -1.025829 1.300000 -0.847853
v -1.557574 1.900000 -0.433093
v -0.850000 0.000000 -0.725000
v 0.850000 0.000000 -0.725000
v 0.850000 1.500000 -0.725000
v -0.850000 1.500000 -0.725000
v -0.850000 0.000000 0.525000
v 0.850000 0.000000 0.525000
v 0.850000 1.500000 0.525000
v -0.850000 1.500000 0.525000
v 0.697207 1.500000 0.443822
v 0.042426 2.100000 -0.066907
v -0.697207 1.500000 0.443822
v -0.042426 2.100000 -0.066907
v -0.697207 1.500000 -0.643822
v -0.042426 2.100000 -0.133093
v 0.697207 1.500000 -0.643822
v 0.042426 2.100000 -0.133093
v 1.075000 0.000000 -0.200000
v 2.325000 0.000000 -0.200000
v 2.325000 1.150000 -0.200000
v 1.075000 1.150000 -0.200000
v 1.075000 0.000000 0.800000
v 2.325000 0.000000 0.800000
v 2.325000 1.150000 0.800000
v 1.075000 1.150000 0.800000
v 2.212652 1.150000 0.699869
v 1.742426 1.750000 0.333093
v 1.187348 1.150000 0.699869
v 1.657574 1.750000 0.333093
v 1.187348 1.150000 -0.099869
v 1.657574 1.750000 0.266907
v 2.212652 1.150000 -0.099869
v 1.742426 1.750000 0.266907
v 0.250000 0.000000 -1.850000
v 1.350000 0.000000 -1.850000
v 1.350000 1.000000 -1.850000
v 0.250000 1.000000 -1.850000
v 0.250000 0.000000 -0.950000
v 1.350000 0.000000 -0.950000
v 1.350000 1.000000 -0.950000
v 0.250000 1.000000 -0.950000
v 1.251134 1.000000 -1.048115
v 0.842426 1.600000 -1.366907
v 0.348866 1.000000 -1.048115
v 0.757574 1.600000 -1.366907
v 0.348866 1.000000 -1.751885
v 0.757574 1.600000 -1.433093
v 1.251134 1.000000 -1.751885
v 0.842426 1.600000 -1.433093
f 4 3 2 1
f 6 7 8 5
f 2 6 5 1
f 3 7 6 2
f 4 8 7 3
f 8 4 1 5
f 9 11 13 15
f 16 14 12 10
f 10 12 11 9
f 12 14 13 11
f 14 16 15 13
f 16 10 9 15
f 20 19 18 17
f 22 23 24 21
f 18 22 21 17
f 19 23 22 18
f 20 24 23 19
f 24 20 17 21
f 25 27 29 31
f 32 30 28 26
f 26 28 27 25
f 28 30 29 27
f 30 32 31 29
f 32 26 25 31
f 36 35 34 33
f 38 39 40 37
f 34 38 37 33
f 35 39 38 34
f 36 40 39 35
f 40 36 33 37
f 41 43 45 47
f 48 46 44 42
f 42 44 43 41
f 44 46 45 43
f 46 48 47 45
f 48 42 41 47
f 52 51 50 49
f 54 55 56 53
f 50 54 53 49
f 51 55 54 50
f 52 56 55 51
f 56 52 49 53
f 57 59 61 63
f 64 62 60 58
f 58 60 59 57
f 60 62 61 59
f 62 64 63 61
f 64 58 57 63
