o ridge_ruin
s off
v -1.811525 0.016551 -0.575000
v -1.332389 -0.012232 -0.575000
v -1.188475 2.383449 -0.575000
v -1.667611 2.412232 -0.575000
v -1.811525 0.016551 -0.025000
v -1.332389 -0.012232 -0.025000
v -1.188475 2.383449 -0.025000
v -1.667611 2.412232 -0.025000
v -1.089469 0.008472 -0.075000
v -0.609714 -0.006885 -0.075000
v -0.510531 3.091528 -0.075000
v -0.990286 3.106885 -0.075000
v -1.089469 0.008472 0.475000
v -0.609714 -0.006885 0.475000
v -0.510531 3.091528 0.475000
v -0.990286 3.106885 0.475000
v -0.240000 0.000000 -0.275000
v 0.240000 0.000000 -0.275000
v 0.240000 2.700000 -0.275000
v -0.240000 2.700000 -0.275000
v -0.240000 0.000000 0.275000
v 0.240000 0.000000 0.275000
v 0.240000 2.700000 0.275000
v -0.240000 2.700000 0.275000
v 0.669627 -0.007147 -0.525000
v 1.149350 0.009170 -0.525000
v 1.030373 3.507147 -0.525000
v 0.550650 3.490830 -0.525000
v 0.669627 -0.007147 0.025000
v 1.149350 0.009170 0.025000
v 1.030373 3.507147 0.025000
v 0.550650 3.490830 0.025000
v 1.375519 -0.012853 -0.125000
v 1.854597 0.016888 -0.125000
v 1.724481 2.112853 -0.125000
v 1.245403 2.083112 -0.125000
v 1.375519 -0.012853 0.425000
v 1.854597 0.016888 0.425000
v 1.724481 2.112853 0.425000
v 1.245403 2.083112 0.425000
v -1.900000 0.325000 -0.500000
v 1.900000 0.325000 -0.500000
v 1.900000 0.775000 -0.500000
v -1.900000 0.775000 -0.500000
v -1.900000 0.325000 0.600000
v 1.900000 0.325000 0.600000
v 1.900000 0.775000 0.600000
v -1.900000 0.775000 0.600000
f 4 3 2 1
f 6 7 8 5
f 2 6 5 1
f 3 7 6 2
f 4 8 7 3
f 8 4 1 5
f 12 11 10 9
f 14 15 16 13
f 10 14 13 9
f 11 15 14 10
f 12 16 15 11
f 16 12 9 13
f 20 19 18 17
f 22 23 24 21
f 18 22 21 17
f 19 23 22 18
f 20 24 23 19
f 24 20 17 21
f 28 27 26 25
f 30 31 32 29
f 26 30 29 25
f 27 31 30 26
f 28 32 31 27
f 32 28 25 29
f 36 35 34 33
f 38 39 40 37
f 34 38 37 33
f 35 39 38 34
f 36 40 39 35
f 40 36 33 37
f 44 43 42 41
f 46 47 48 45
f 42 46 45 41
f 43 47 46 42
f 44 48 47 43
f 48 44 41 45
