o rock_outcrop
s off
v -0.424000 0.000000 0.000000
v -0.568000 0.800000 0.000000
v -0.640870 0.000000 0.375279
v -0.730652 0.800000 0.281459
v -1.128172 0.000000 0.467965
v -1.096129 0.800000 0.350974
v -1.518958 0.000000 0.208264
v -1.389219 0.800000 0.156198
v -1.518958 0.000000 -0.208264
v -1.389219 0.800000 -0.156198
v -1.128172 0.000000 -0.467965
v -1.096129 0.800000 -0.350974
v -0.640870 0.000000 -0.375279
v -0.730652 0.800000 -0.281459
v 0.468643 0.000000 0.257504
v 0.301482 1.100000 0.243128
v 0.164440 0.000000 0.683938
v 0.073330 1.100000 0.562954
v -0.414193 0.000000 0.745957
v -0.360645 1.100000 0.609468
v -0.831535 0.000000 0.396859
v -0.673651 1.100000 0.347644
v -0.773318 0.000000 -0.100478
v -0.629988 1.100000 -0.025358
v -0.283381 0.000000 -0.371549
v -0.262536 1.100000 -0.228662
v 0.269344 0.000000 -0.212232
v 0.152008 1.100000 -0.109174
v 1.317475 0.000000 -0.014175
v 1.188106 0.750000 -0.035631
v 1.040628 0.000000 0.284530
v 0.980471 0.750000 0.188397
v 0.582584 0.000000 0.293676
v 0.636938 0.750000 0.195257
v 0.288258 0.000000 0.006376
v 0.416193 0.750000 -0.020218
v 0.379284 0.000000 -0.361027
v 0.484463 0.750000 -0.295770
v 0.787118 0.000000 -0.531871
v 0.790339 0.750000 -0.423904
v 1.204653 0.000000 -0.377508
v 1.103489 0.750000 -0.308131
v 1.743921 0.000000 0.363480
v 1.657941 0.550000 0.335110
v 1.531254 0.000000 0.607568
v 1.498441 0.550000 0.518176
v 1.219750 0.000000 0.582400
v 1.264813 0.550000 0.499300
v 1.043978 0.000000 0.306928
v 1.132984 0.550000 0.292696
v 1.136297 0.000000 -0.011412
v 1.202223 0.550000 0.053941
v 1.427190 0.000000 -0.132903
v 1.420393 0.550000 -0.037177
v 1.697608 0.000000 0.033939
v 1.623206 0.550000 0.087954
f 1 3 5 7 9 11 13
f 14 12 10 8 6 4 2
f 2 4 3 1
f 4 6 5 3
f 6 8 7 5
f 8 10 9 7
f 10 12 11 9
f 12 14 13 11
f 14 2 1 13
f 15 17 19 21 23 25 27
f 28 26 24 22 20 18 16
f 16 18 17 15
f 18 20 19 17
f 20 22 21 19
f 22 24 23 21
f 24 26 25 23
f 26 28 27 25
f 28 16 15 27
f 29 31 33 35 37 39 41
f 42 40 38 36 34 32 30
f 30 32 31 29
f 32 34 33 31
f 34 36 35 33
f 36 38 37 35
f 38 40 39 37
f 40 42 41 39
f 42 30 29 41
f 43 45 47 49 51 53 55
f 56 54 52 50 48 46 44
f 44 46 45 43
f 46 48 47 45
f 48 50 49 47
f 50 52 51 49
f 52 54 53 51
f 54 56 55 53
f 56 44 43 55
