o siege_tower_wreck
s off
v -0.554432 0.005570 -0.610000
v -0.336288 0.034089 -0.610000
v -0.945568 4.694430 -0.610000
v -1.163712 4.665911 -0.610000
v -0.554432 0.005570 -0.390000
v -0.336288 0.034089 -0.390000
v -0.945568 4.694430 -0.390000
v -1.163712 4.665911 -0.390000
v 0.406194 0.018184 -0.560000
v 0.625304 -0.001590 -0.560000
v 0.993806 4.081816 -0.560000
v 0.774696 4.101590 -0.560000
v 0.406194 0.018184 -0.340000
v 0.625304 -0.001590 -0.340000
v 0.993806 4.081816 -0.340000
v 0.774696 4.101590 -0.340000
v -0.390069 0.012033 0.440000
v -0.174455 0.055740 0.440000
v -0.849931 3.387967 0.440000
v -1.065545 3.344260 0.440000
v -0.390069 0.012033 0.660000
v -0.174455 0.055740 0.660000
v -0.849931 3.387967 0.660000
v -1.065545 3.344260 0.660000
v 0.160905 0.045625 0.390000
v 0.378095 0.010575 0.390000
v 1.079095 4.354375 0.390000
v 0.861905 4.389425 0.390000
v 0.160905 0.045625 0.610000
v 0.378095 0.010575 0.610000
v 1.079095 4.354375 0.610000
v 0.861905 4.389425 0.610000
v -0.878822 1.062630 -0.675000
v 0.868029 0.957693 -0.675000
v 0.878822 1.137370 -0.675000
v -0.868029 1.242307 -0.675000
v -0.878822 1.062630 0.675000
v 0.868029 0.957693 0.675000
v 0.878822 1.137370 0.675000
v -0.868029 1.242307 0.675000
v -0.875000 2.210000 -0.675000
v 0.875000 2.210000 -0.675000
v 0.875000 2.390000 -0.675000
v -0.875000 2.390000 -0.675000
v -0.875000 2.210000 0.675000
v 0.875000 2.210000 0.675000
v 0.875000 2.390000 0.675000
v -0.875000 2.390000 0.675000
v -0.868029 3.357693 -0.675000
v 0.878822 3.462630 -0.675000
v 0.868029 3.642307 -0.675000
v -0.878822 3.537370 -0.675000
v -0.868029 3.357693 0.675000
v 0.878822 3.462630 0.675000
v 0.868029 3.642307 0.675000
v -0.878822 3.537370 0.675000
v 0.082464 1.361176 -0.040000
v 1.698847 -0.056501 -0.040000
v 1.817536 0.078824 -0.040000
v 0.201153 1.496501 -0.040000
v 0.082464 1.361176 0.140000
v 1.698847 -0.056501 0.140000
v 1.817536 0.078824 0.140000
v 0.201153 1.496501 0.140000
f 4 3 2 1
f 6 7 8 5
f 2 6 5 1
f 3 7 6 2
f 4 8 7 3
f 8 4 1 5
f 12 11 10 9
f 14 15 16 13
f 10 14 13 9
f 11 15 14 10
f 12 16 15 11
f 16 12 9 13
f 20 19 18 17
f 22 23 24 21
f 18 22 21 17
f 19 23 22 18
f 20 24 23 19
f 24 20 17 21
f 28 27 26 25
f 30 31 32 29
f 26 30 29 25
f 27 31 30 26
f 28 32 31 27
f 32 28 25 29
f 36 35 34 33
f 38 39 40 37
f 34 38 37 33
f 35 39 38 34
f 36 40 39 35
f 40 36 33 37
f 44 43 42 41
f 46 47 48 45
f 42 46 45 41
f 43 47 46 42
f 44 48 47 43
f 48 44 41 45
f 52 51 50 49
f 54 55 56 53
f 50 54 53 49
f 51 55 54 50
f 52 56 55 51
f 56 52 49 53
f 60 59 58 57
f 62 63 64 61
f 58 62 61 57
f 59 63 62 58
f 60 64 63 59
f 64 60 57 61
