o wagon_barricade
s off
v -1.582896 0.222616 -0.550000
v 1.606870 0.478343 -0.550000
v 1.582896 0.777384 -0.550000
v -1.606870 0.521657 -0.550000
v -1.582896 0.222616 0.550000
v 1.606870 0.478343 0.550000
v 1.582896 0.777384 0.550000
v -1.606870 0.521657 0.550000
v -1.165482 0.343063 -0.500000
v -0.966921 0.367005 -0.500000
v -1.134518 1.756937 -0.500000
v -1.333079 1.732995 -0.500000
v -1.165482 0.343063 0.500000
v -0.966921 0.367005 0.500000
v -1.134518 1.756937 0.500000
v -1.333079 1.732995 0.500000
v 0.998725 0.356315 -0.350000
v 1.197915 0.338339 -0.350000
v 1.301275 1.483685 -0.350000
v 1.102085 1.501661 -0.350000
v 0.998725 0.356315 0.550000
v 1.197915 0.338339 0.550000
v 1.301275 1.483685 0.550000
v 1.102085 1.501661 0.550000
v -0.772398 0.400000 -0.612080
v -0.772398 0.600000 -0.612080
v -0.860345 0.400000 -0.379699
v -0.860345 0.600000 -0.379699
v -1.052699 0.400000 -0.222425
v -1.052699 0.600000 -0.222425
v -1.297920 0.400000 -0.182398
v -1.297920 0.600000 -0.182398
v -1.530301 0.400000 -0.270345
v -1.530301 0.600000 -0.270345
v -1.687575 0.400000 -0.462699
v -1.687575 0.600000 -0.462699
v -1.727602 0.400000 -0.707920
v -1.727602 0.600000 -0.707920
v -1.639655 0.400000 -0.940301
v -1.639655 0.600000 -0.940301
v -1.447301 0.400000 -1.097575
v -1.447301 0.600000 -1.097575
v -1.202080 0.400000 -1.137602
v -1.202080 0.600000 -1.137602
v -0.969699 0.400000 -1.049655
v -0.969699 0.600000 -1.049655
v -0.812425 0.400000 -0.857301
v -0.812425 0.600000 -0.857301
v 1.727602 0.400000 -0.612080
v 1.727602 0.600000 -0.612080
v 1.639655 0.400000 -0.379699
v 1.639655 0.600000 -0.379699
v 1.447301 0.400000 -0.222425
v 1.447301 0.600000 -0.222425
v 1.202080 0.400000 -0.182398
v 1.202080 0.600000 -0.182398
v 0.969699 0.400000 -0.270345
v 0.969699 0.600000 -0.270345
v 0.812425 0.400000 -0.462699
v 0.812425 0.600000 -0.462699
v 0.772398 0.400000 -0.707920
v 0.772398 0.600000 -0.707920
v 0.860345 0.400000 -0.940301
v 0.860345 0.600000 -0.940301
v 1.052699 0.400000 -1.097575
v 1.052699 0.600000 -1.097575
v 1.297920 0.400000 -1.137602
v 1.297920 0.600000 -1.137602
v 1.530301 0.400000 -1.049655
v 1.530301 0.600000 -1.049655
v 1.687575 0.400000 -0.857301
v 1.687575 0.600000 -0.857301
v -1.520000 0.350000 0.620000
v -1.560000 0.350000 0.689282
v -1.640000 0.350000 0.689282
v -1.680000 0.350000 0.620000
v -1.640000 0.350000 0.550718
v -1.560000 0.350000 0.550718
v -1.600000 1.185888 1.255446
v -0.620000 0.350000 0.620000
v -0.660000 0.350000 0.689282
v -0.740000 0.350000 0.689282
v -0.780000 0.350000 0.620000
v -0.740000 0.350000 0.550718
v -0.660000 0.350000 0.550718
v -0.700000 1.185888 1.255446
v 0.380000 0.350000 0.620000
v 0.340000 0.350000 0.689282
v 0.260000 0.350000 0.689282
v 0.220000 0.350000 0.620000
v 0.260000 0.350000 0.550718
v 0.340000 0.350000 0.550718
v 0.300000 1.185888 1.255446
v 1.280000 0.350000 0.620000
v 1.240000 0.350000 0.689282
v 1.160000 0.350000 0.689282
v 1.120000 0.350000 0.620000
v 1.160000 0.350000 0.550718
v 1.240000 0.350000 0.550718
v 1.200000 1.185888 1.255446
f 4 3 2 1
f 6 7 8 5
f 2 6 5 1
f 3 7 6 2
f 4 8 7 3
f 8 4 1 5
f 12 11 10 9
f 14 15 16 13
f 10 14 13 9
f 11 15 14 10
f 12 16 15 11
f 16 12 9 13
f 20 19 18 17
f 22 23 24 21
f 18 22 21 17
f 19 23 22 18
f 20 24 23 19
f 24 20 17 21
f 25 27 29 31 33 35 37 39 41 43 45 47
f 48 46 44 42 40 38 36 34 32 30 28 26
f 26 28 27 25
f 28 30 29 27
f 30 32 31 29
f 32 34 33 31
f 34 36 35 33
f 36 38 37 35
f 38 40 39 37
f 40 42 41 39
f 42 44 43 41
f 44 46 45 43
f 46 48 47 45
f 48 26 25 47
f 49 51 53 55 57 59 61 63 65 67 69 71
f 72 70 68 66 64 62 60 58 56 54 52 50
f 50 52 51 49
f 52 54 53 51
f 54 56 55 53
f 56 58 57 55
f 58 60 59 57
f 60 62 61 59
f 62 64 63 61
f 64 66 65 63
f 66 68 67 65
f 68 70 69 67
f 70 72 71 69
f 72 50 49 71
f 79 74 73
f 79 75 74
f 79 76 75
f 79 77 76
f 79 78 77
f 79 73 78
f 73 74 75 76 77 78
f 86 81 80
f 86 82 81
f 86 83 82
f 86 84 83
f 86 85 84
f 86 80 85
f 80 81 82 83 84 85
f 93 88 87
f 93 89 88
f 93 90 89
f 93 91 90
f 93 92 91
f 93 87 92
f 87 88 89 90 91 92
f 100 95 94
f 100 96 95
f 100 97 96
f 100 98 97
f 100 99 98
f 100 94 99
f 94 95 96 97 98 99
