o human_bowman_quiverguard
s off
v -0.140400 -0.410000 -0.072000
v 0.140400 -0.410000 -0.072000
v 0.180000 0.410000 -0.080000
v -0.180000 0.410000 -0.080000
v -0.140400 -0.410000 0.072000
v 0.140400 -0.410000 0.072000
v 0.180000 0.410000 0.080000
v -0.180000 0.410000 0.080000
v -0.210000 0.350000 -0.100000
v 0.210000 0.350000 -0.100000
v 0.210000 0.450000 -0.100000
v -0.210000 0.450000 -0.100000
v -0.210000 0.350000 0.100000
v 0.210000 0.350000 0.100000
v 0.210000 0.450000 0.100000
v -0.210000 0.450000 0.100000
f 4 3 2 1
f 6 7 8 5
f 2 6 5 1
f 3 7 6 2
f 4 8 7 3
f 8 4 1 5
f 12 11 10 9
f 14 15 16 13
f 10 14 13 9
f 11 15 14 10
f 12 16 15 11
f 16 12 9 13
