o human_swordsman_shoulderguard
s off
v -0.265200 -0.190000 -0.176000
v 0.265200 -0.190000 -0.176000
v 0.340000 0.190000 -0.200000
v -0.340000 0.190000 -0.200000
v -0.265200 -0.190000 0.176000
v 0.265200 -0.190000 0.176000
v 0.340000 0.190000 0.200000
v -0.340000 0.190000 0.200000
v -0.165000 0.171000 -0.180000
v -0.185708 0.171000 -0.136999
v -0.232239 0.171000 -0.126379
v -0.269553 0.171000 -0.156136
v -0.269553 0.171000 -0.203864
v -0.232239 0.171000 -0.233621
v -0.185708 0.171000 -0.223001
v -0.220000 0.465740 -0.304614
f 4 3 2 1
f 6 7 8 5
f 2 6 5 1
f 3 7 6 2
f 4 8 7 3
f 8 4 1 5
f 16 10 9
f 16 11 10
f 16 12 11
f 16 13 12
f 16 14 13
f 16 15 14
f 16 9 15
f 9 10 11 12 13 14 15
