o human_lancer_lanceguard
s off
v 0.160000 -0.060000 0.000000
v 0.120000 0.060000 0.000000
v 0.138564 -0.060000 0.056000
v 0.103923 0.060000 0.042000
v 0.080000 -0.060000 0.096995
v 0.060000 0.060000 0.072746
v 0.000000 -0.060000 0.112000
v 0.000000 0.060000 0.084000
v -0.080000 -0.060000 0.096995
v -0.060000 0.060000 0.072746
v -0.138564 -0.060000 0.056000
v -0.103923 0.060000 0.042000
v -0.160000 -0.060000 0.000000
v -0.120000 0.060000 0.000000
v -0.138564 -0.060000 -0.056000
v -0.103923 0.060000 -0.042000
v -0.080000 -0.060000 -0.096995
v -0.060000 0.060000 -0.072746
v -0.000000 -0.060000 -0.112000
v -0.000000 0.060000 -0.084000
v 0.080000 -0.060000 -0.096995
v 0.060000 0.060000 -0.072746
v 0.138564 -0.060000 -0.056000
v 0.103923 0.060000 -0.042000
v 0.165000 0.000000 0.000000
v 0.147500 0.000000 0.030311
v 0.112500 0.000000 0.030311
v 0.095000 0.000000 0.000000
v 0.112500 0.000000 -0.030311
v 0.147500 0.000000 -0.030311
v 0.265230 0.118797 0.000000
v 0.035000 0.000000 0.130000
v 0.017500 0.000000 0.160311
v -0.017500 0.000000 0.160311
v -0.035000 0.000000 0.130000
v -0.017500 0.000000 0.099689
v 0.017500 0.000000 0.099689
v 0.000000 0.118797 0.265230
v -0.095000 0.000000 0.000000
v -0.112500 0.000000 0.030311
v -0.147500 0.000000 0.030311
v -0.165000 0.000000 0.000000
v -0.147500 0.000000 -0.030311
v -0.112500 0.000000 -0.030311
v -0.265230 0.118797 0.000000
v 0.035000 0.000000 -0.130000
v 0.017500 0.000000 -0.099689
v -0.017500 0.000000 -0.099689
v -0.035000 0.000000 -0.130000
v -0.017500 0.000000 -0.160311
v 0.017500 0.000000 -0.160311
v -0.000000 0.118797 -0.265230
f 1 3 5 7 9 11 13 15 17 19 21 23
f 24 22 20 18 16 14 12 10 8 6 4 2
f 2 4 3 1
f 4 6 5 3
f 6 8 7 5
f 8 10 9 7
f 10 12 11 9
f 12 14 13 11
f 14 16 15 13
f 16 18 17 15
f 18 20 19 17
f 20 22 21 19
f 22 24 23 21
f 24 2 1 23
f 31 26 25
f 31 27 26
f 31 28 27
f 31 29 28
f 31 30 29
f 31 25 30
f 25 26 27 28 29 30
f 38 33 32
f 38 34 33
f 38 35 34
f 38 36 35
f 38 37 36
f 38 32 37
f 32 33 34 35 36 37
f 45 40 39
f 45 41 40
f 45 42 41
f 45 43 42
f 45 44 43
f 45 39 44
f 39 40 41 42 43 44
f 52 47 46
f 52 48 47
f 52 49 48
f 52 50 49
f 52 51 50
f 52 46 51
f 46 47 48 49 50 51
