o ogre_breaker_crown
s off
v 0.341225 -0.190000 0.077882
v 0.324164 0.190000 0.073988
v 0.273641 -0.190000 0.218221
v 0.259959 0.190000 0.207310
v 0.151859 -0.190000 0.315339
v 0.144266 0.190000 0.299572
v 0.000000 -0.190000 0.350000
v 0.000000 0.190000 0.332500
v -0.151859 -0.190000 0.315339
v -0.144266 0.190000 0.299572
v -0.273641 -0.190000 0.218221
v -0.259959 0.190000 0.207310
v -0.341225 -0.190000 0.077882
v -0.324164 0.190000 0.073988
v -0.341225 -0.190000 -0.077882
v -0.324164 0.190000 -0.073988
v -0.273641 -0.190000 -0.218221
v -0.259959 0.190000 -0.207310
v -0.151859 -0.190000 -0.315339
v -0.144266 0.190000 -0.299572
v -0.000000 -0.190000 -0.350000
v -0.000000 0.190000 -0.332500
v 0.151859 -0.190000 -0.315339
v 0.144266 0.190000 -0.299572
v 0.273641 -0.190000 -0.218221
v 0.259959 0.190000 -0.207310
v 0.341225 -0.190000 -0.077882
v 0.324164 0.190000 -0.073988
v -0.035750 -0.270000 -0.353000
v 0.035750 -0.270000 -0.353000
v 0.055000 0.070000 -0.353000
v -0.055000 0.070000 -0.353000
v -0.035750 -0.270000 -0.263000
v 0.035750 -0.270000 -0.263000
v 0.055000 0.070000 -0.263000
v -0.055000 0.070000 -0.263000
v -0.217000 0.100000 0.000000
v -0.243356 0.100000 0.054728
v -0.302576 0.100000 0.068245
v -0.350068 0.100000 0.030372
v -0.350068 0.100000 -0.030372
v -0.302576 0.100000 -0.068245
v -0.243356 0.100000 -0.054728
v -0.565897 0.490662 0.000000
v 0.357000 0.100000 0.000000
v 0.330644 0.100000 0.054728
v 0.271424 0.100000 0.068245
v 0.223932 0.100000 0.030372
v 0.223932 0.100000 -0.030372
v 0.271424 0.100000 -0.068245
v 0.330644 0.100000 -0.054728
v 0.565897 0.490662 0.000000
f 1 3 5 7 9 11 13 15 17 19 21 23 25 27
f 28 26 24 22 20 18 16 14 12 10 8 6 4 2
f 2 4 3 1
f 4 6 5 3
f 6 8 7 5
f 8 10 9 7
f 10 12 11 9
f 12 14 13 11
f 14 16 15 13
f 16 18 17 15
f 18 20 19 17
f 20 22 21 19
f 22 24 23 21
f 24 26 25 23
f 26 28 27 25
f 28 2 1 27
f 32 31 30 29
f 34 35 36 33
f 30 34 33 29
f 31 35 34 30
f 32 36 35 31
f 36 32 29 33
f 44 38 37
f 44 39 38
f 44 40 39
f 44 41 40
f 44 42 41
f 44 43 42
f 44 37 43
f 37 38 39 40 41 42 43
f 52 46 45
f 52 47 46
f 52 48 47
f 52 49 48
f 52 50 49
f 52 51 50
f 52 45 51
f 45 46 47 48 49 50 51
