o ogre_captain_crown
s off
v 0.389971 -0.215000 0.089008
v 0.370473 0.215000 0.084558
v 0.312733 -0.215000 0.249396
v 0.297096 0.215000 0.236926
v 0.173553 -0.215000 0.360388
v 0.164876 0.215000 0.342368
v 0.000000 -0.215000 0.400000
v 0.000000 0.215000 0.380000
v -0.173553 -0.215000 0.360388
v -0.164876 0.215000 0.342368
v -0.312733 -0.215000 0.249396
v -0.297096 0.215000 0.236926
v -0.389971 -0.215000 0.089008
v -0.370473 0.215000 0.084558
v -0.389971 -0.215000 -0.089008
v -0.370473 0.215000 -0.084558
v -0.312733 -0.215000 -0.249396
v -0.297096 0.215000 -0.236926
v -0.173553 -0.215000 -0.360388
v -0.164876 0.215000 -0.342368
v -0.000000 -0.215000 -0.400000
v -0.000000 0.215000 -0.380000
v 0.173553 -0.215000 -0.360388
v 0.164876 0.215000 -0.342368
v 0.312733 -0.215000 -0.249396
v 0.297096 0.215000 -0.236926
v 0.389971 -0.215000 -0.089008
v 0.370473 0.215000 -0.084558
v -0.035750 -0.270000 -0.397000
v 0.035750 -0.270000 -0.397000
v 0.055000 0.070000 -0.397000
v -0.055000 0.070000 -0.397000
v -0.035750 -0.270000 -0.307000
v 0.035750 -0.270000 -0.307000
v 0.055000 0.070000 -0.307000
v -0.055000 0.070000 -0.307000
v -0.036025 0.100192 -0.230000
v 0.033973 0.099814 -0.230000
v 0.036025 0.479808 -0.230000
v -0.033973 0.480186 -0.230000
v -0.036025 0.100192 -0.130000
v 0.033973 0.099814 -0.130000
v 0.036025 0.479808 -0.130000
v -0.033973 0.480186 -0.130000
v -0.035342 0.100063 -0.110000
v 0.034658 0.099937 -0.110000
v 0.035342 0.479937 -0.110000
v -0.034658 0.480063 -0.110000
v -0.035342 0.100063 -0.010000
v 0.034658 0.099937 -0.010000
v 0.035342 0.479937 -0.010000
v -0.034658 0.480063 -0.010000
v -0.034658 0.099937 0.010000
v 0.035342 0.100063 0.010000
v 0.034658 0.480063 0.010000
v -0.035342 0.479937 0.010000
v -0.034658 0.099937 0.110000
v 0.035342 0.100063 0.110000
v 0.034658 0.480063 0.110000
v -0.035342 0.479937 0.110000
v -0.033973 0.099814 0.130000
v 0.036025 0.100192 0.130000
v 0.033973 0.480186 0.130000
v -0.036025 0.479808 0.130000
v -0.033973 0.099814 0.230000
v 0.036025 0.100192 0.230000
v 0.033973 0.480186 0.230000
v -0.036025 0.479808 0.230000
v -0.258000 0.100000 0.000000
v -0.284356 0.100000 0.054728
v -0.343576 0.100000 0.068245
v -0.391068 0.100000 0.030372
v -0.391068 0.100000 -0.030372
v -0.343576 0.100000 -0.068245
v -0.284356 0.100000 -0.054728
v -0.606897 0.490662 0.000000
v 0.398000 0.100000 0.000000
v 0.371644 0.100000 0.054728
v 0.312424 0.100000 0.068245
v 0.264932 0.100000 0.030372
v 0.264932 0.100000 -0.030372
v 0.312424 0.100000 -0.068245
v 0.371644 0.100000 -0.054728
v 0.606897 0.490662 0.000000
f 1 3 5 7 9 11 13 15 17 19 21 23 25 27
f 28 26 24 22 20 18 16 14 12 10 8 6 4 2
f 2 4 3 1
f 4 6 5 3
f 6 8 7 5
f 8 10 9 7
f 10 12 11 9
f 12 14 13 11
f 14 16 15 13
f 16 18 17 15
f 18 20 19 17
f 20 22 21 19
f 22 24 23 21
f 24 26 25 23
f 26 28 27 25
f 28 2 1 27
f 32 31 30 29
f 34 35 36 33
f 30 34 33 29
f 31 35 34 30
f 32 36 35 31
f 36 32 29 33
f 40 39 38 37
f 42 43 44 41
f 38 42 41 37
f 39 43 42 38
f 40 44 43 39
f 44 40 37 41
f 48 47 46 45
f 50 51 52 49
f 46 50 49 45
f 47 51 50 46
f 48 52 51 47
f 52 48 45 49
f 56 55 54 53
f 58 59 60 57
f 54 58 57 53
f 55 59 58 54
f 56 60 59 55
f 60 56 53 57
f 64 63 62 61
f 66 67 68 65
f 62 66 65 61
f 63 67 66 62
f 64 68 67 63
f 68 64 61 65
f 76 70 69
f 76 71 70
f 76 72 71
f 76 73 72
f 76 74 73
f 76 75 74
f 76 69 75
f 69 70 71 72 73 74 75
f 84 78 77
f 84 79 78
f 84 80 79
f 84 81 80
f 84 82 81
f 84 83 82
f 84 77 83
f 77 78 79 80 81 82 83
