o ogre_captain_pauldron
s off
v -0.366600 -0.270000 -0.255200
v 0.366600 -0.270000 -0.255200
v 0.470000 0.270000 -0.290000
v -0.470000 0.270000 -0.290000
v -0.366600 -0.270000 0.255200
v 0.366600 -0.270000 0.255200
v 0.470000 0.270000 0.290000
v -0.470000 0.270000 0.290000
v -0.165000 0.243000 -0.261000
v -0.185708 0.243000 -0.217999
v -0.232239 0.243000 -0.207379
v -0.269553 0.243000 -0.237136
v -0.269553 0.243000 -0.284864
v -0.232239 0.243000 -0.314621
v -0.185708 0.243000 -0.304001
v -0.220000 0.537740 -0.385614
v 0.275000 0.243000 -0.261000
v 0.254292 0.243000 -0.217999
v 0.207761 0.243000 -0.207379
v 0.170447 0.243000 -0.237136
v 0.170447 0.243000 -0.284864
v 0.207761 0.243000 -0.314621
v 0.254292 0.243000 -0.304001
v 0.220000 0.583793 -0.405085
v -0.165000 0.243000 -0.261000
v -0.185708 0.243000 -0.217999
v -0.232239 0.243000 -0.207379
v -0.269553 0.243000 -0.237136
v -0.269553 0.243000 -0.284864
v -0.232239 0.243000 -0.314621
v -0.185708 0.243000 -0.304001
v -0.220000 0.629846 -0.424556
v 0.275000 0.243000 -0.261000
v 0.254292 0.243000 -0.217999
v 0.207761 0.243000 -0.207379
v 0.170447 0.243000 -0.237136
v 0.170447 0.243000 -0.284864
v 0.207761 0.243000 -0.314621
v 0.254292 0.243000 -0.304001
v 0.220000 0.675899 -0.444027
f 4 3 2 1
f 6 7 8 5
f 2 6 5 1
f 3 7 6 2
f 4 8 7 3
f 8 4 1 5
f 16 10 9
f 16 11 10
f 16 12 11
f 16 13 12
f 16 14 13
f 16 15 14
f 16 9 15
f 9 10 11 12 13 14 15
f 24 18 17
f 24 19 18
f 24 20 19
f 24 21 20
f 24 22 21
f 24 23 22
f 24 17 23
f 17 18 19 20 21 22 23
f 32 26 25
f 32 27 26
f 32 28 27
f 32 29 28
f 32 30 29
f 32 31 30
f 32 25 31
f 25 26 27 28 29 30 31
f 40 34 33
f 40 35 34
f 40 36 35
f 40 37 36
f 40 38 37
f 40 39 38
f 40 33 39
f 33 34 35 36 37 38 39
