o warg_faceplate
s off
v -0.252000 -0.170000 -0.163800
v 0.252000 -0.170000 -0.163800
v 0.350000 0.170000 -0.210000
v -0.350000 0.170000 -0.210000
v -0.252000 -0.170000 0.163800
v 0.252000 -0.170000 0.163800
v 0.350000 0.170000 0.210000
v -0.350000 0.170000 0.210000
v -0.225000 0.100000 -0.200000
v -0.241943 0.100000 -0.164818
v -0.280013 0.100000 -0.156128
v -0.310544 0.100000 -0.180475
v -0.310544 0.100000 -0.219525
v -0.280013 0.100000 -0.243872
v -0.241943 0.100000 -0.235182
v -0.270000 0.334210 -0.353447
v 0.315000 0.100000 -0.200000
v 0.298057 0.100000 -0.164818
v 0.259987 0.100000 -0.156128
v 0.229456 0.100000 -0.180475
v 0.229456 0.100000 -0.219525
v 0.259987 0.100000 -0.243872
v 0.298057 0.100000 -0.235182
v 0.270000 0.334210 -0.353447
f 4 3 2 1
f 6 7 8 5
f 2 6 5 1
f 3 7 6 2
f 4 8 7 3
f 8 4 1 5
f 16 10 9
f 16 11 10
f 16 12 11
f 16 13 12
f 16 14 13
f 16 15 14
f 16 9 15
f 9 10 11 12 13 14 15
f 24 18 17
f 24 19 18
f 24 20 19
f 24 21 20
f 24 22 21
f 24 23 22
f 24 17 23
f 17 18 19 20 21 22 23
