o human_keep_hero_bronze
s off
v -4.026250 0.625600 -4.072200
v -3.283750 0.625600 -4.072200
v -3.380000 6.099600 -4.041000
v -3.930000 6.099600 -4.041000
v -4.026250 0.625600 -3.489800
v -3.283750 0.625600 -3.489800
v -3.380000 6.099600 -3.521000
v -3.930000 6.099600 -3.521000
v 3.283750 0.625600 -4.072200
v 4.026250 0.625600 -4.072200
v 3.930000 6.099600 -4.041000
v 3.380000 6.099600 -4.041000
v 3.283750 0.625600 -3.489800
v 4.026250 0.625600 -3.489800
v 3.930000 6.099600 -3.521000
v 3.380000 6.099600 -3.521000
v -4.026250 0.625600 -1.584700
v -3.283750 0.625600 -1.584700
v -3.380000 6.099600 -1.553500
v -3.930000 6.099600 -1.553500
v -4.026250 0.625600 -1.002300
v -3.283750 0.625600 -1.002300
v -3.380000 6.099600 -1.033500
v -3.930000 6.099600 -1.033500
v 3.283750 0.625600 -1.584700
v 4.026250 0.625600 -1.584700
v 3.930000 6.099600 -1.553500
v 3.380000 6.099600 -1.553500
v 3.283750 0.625600 -1.002300
v 4.026250 0.625600 -1.002300
v 3.930000 6.099600 -1.033500
v 3.380000 6.099600 -1.033500
v -4.026250 0.625600 1.002300
v -3.283750 0.625600 1.002300
v -3.380000 6.099600 1.033500
v -3.930000 6.099600 1.033500
v -4.026250 0.625600 1.584700
v -3.283750 0.625600 1.584700
v -3.380000 6.099600 1.553500
v -3.930000 6.099600 1.553500
v 3.283750 0.625600 1.002300
v 4.026250 0.625600 1.002300
v 3.930000 6.099600 1.033500
v 3.380000 6.099600 1.033500
v 3.283750 0.625600 1.584700
v 4.026250 0.625600 1.584700
v 3.930000 6.099600 1.553500
v 3.380000 6.099600 1.553500
v -4.026250 0.625600 3.489800
v -3.283750 0.625600 3.489800
v -3.380000 6.099600 3.521000
v -3.930000 6.099600 3.521000
v -4.026250 0.625600 4.072200
v -3.283750 0.625600 4.072200
v -3.380000 6.099600 4.041000
v -3.930000 6.099600 4.041000
v 3.283750 0.625600 3.489800
v 4.026250 0.625600 3.489800
v 3.930000 6.099600 3.521000
v 3.380000 6.099600 3.521000
v 3.283750 0.625600 4.072200
v 4.026250 0.625600 4.072200
v 3.930000 6.099600 4.041000
v 3.380000 6.099600 4.041000
v -3.965000 4.429800 -3.653000
v -3.685000 4.429800 -3.653000
v -3.685000 5.579800 -3.653000
v -3.965000 5.579800 -3.653000
v -3.965000 4.429800 -3.113000
v -3.685000 4.429800 -3.113000
v -3.685000 5.579800 -3.113000
v -3.965000 5.579800 -3.113000
v 3.685000 4.429800 -3.653000
v 3.965000 4.429800 -3.653000
v 3.965000 5.579800 -3.653000
v 3.685000 5.579800 -3.653000
v 3.685000 4.429800 -3.113000
v 3.965000 4.429800 -3.113000
v 3.965000 5.579800 -3.113000
v 3.685000 5.579800 -3.113000
v -3.965000 4.429800 -0.270000
v -3.685000 4.429800 -0.270000
v -3.685000 5.579800 -0.270000
v -3.965000 5.579800 -0.270000
v -3.965000 4.429800 0.270000
v -3.685000 4.429800 0.270000
v -3.685000 5.579800 0.270000
v -3.965000 5.579800 0.270000
v 3.685000 4.429800 -0.270000
v 3.965000 4.429800 -0.270000
v 3.965000 5.579800 -0.270000
v 3.685000 5.579800 -0.270000
v 3.685000 4.429800 0.270000
v 3.965000 4.429800 0.270000
v 3.965000 5.579800 0.270000
v 3.685000 5.579800 0.270000
v -3.965000 4.429800 3.113000
v -3.685000 4.429800 3.113000
v -3.685000 5.579800 3.113000
v -3.965000 5.579800 3.113000
v -3.965000 4.429800 3.653000
v -3.685000 4.429800 3.653000
v -3.685000 5.579800 3.653000
v -3.965000 5.579800 3.653000
v 3.685000 4.429800 3.113000
v 3.965000 4.429800 3.113000
v 3.965000 5.579800 3.113000
v 3.685000 5.579800 3.113000
v 3.685000 4.429800 3.653000
v 3.965000 4.429800 3.653000
v 3.965000 5.579800 3.653000
v 3.685000 5.579800 3.653000
v -3.269000 8.200000 -4.071000
v -2.569000 8.200000 -4.071000
v -2.569000 9.280000 -4.071000
v -3.269000 9.280000 -4.071000
v -3.269000 8.200000 -3.491000
v -2.569000 8.200000 -3.491000
v -2.569000 9.280000 -3.491000
v -3.269000 9.280000 -3.491000
v -3.269000 8.200000 -2.180500
v -2.569000 8.200000 -2.180500
v -2.569000 9.280000 -2.180500
v -3.269000 9.280000 -2.180500
v -3.269000 8.200000 -1.600500
v -2.569000 8.200000 -1.600500
v -2.569000 9.280000 -1.600500
v -3.269000 9.280000 -1.600500
v -3.269000 8.200000 -0.290000
v -2.569000 8.200000 -0.290000
v -2.569000 9.280000 -0.290000
v -3.269000 9.280000 -0.290000
v -3.269000 8.200000 0.290000
v -2.569000 8.200000 0.290000
v -2.569000 9.280000 0.290000
v -3.269000 9.280000 0.290000
v -3.269000 8.200000 1.600500
v -2.569000 8.200000 1.600500
v -2.569000 9.280000 1.600500
v -3.269000 9.280000 1.600500
v -3.269000 8.200000 2.180500
v -2.569000 8.200000 2.180500
v -2.569000 9.280000 2.180500
v -3.269000 9.280000 2.180500
v -3.269000 8.200000 3.491000
v -2.569000 8.200000 3.491000
v -2.569000 9.280000 3.491000
v -3.269000 9.280000 3.491000
v -3.269000 8.200000 4.071000
v -2.569000 8.200000 4.071000
v -2.569000 9.280000 4.071000
v -3.269000 9.280000 4.071000
v 2.569000 8.200000 -4.071000
v 3.269000 8.200000 -4.071000
v 3.269000 9.280000 -4.071000
v 2.569000 9.280000 -4.071000
v 2.569000 8.200000 -3.491000
v 3.269000 8.200000 -3.491000
v 3.269000 9.280000 -3.491000
v 2.569000 9.280000 -3.491000
v 2.569000 8.200000 -2.180500
v 3.269000 8.200000 -2.180500
v 3.269000 9.280000 -2.180500
v 2.569000 9.280000 -2.180500
v 2.569000 8.200000 -1.600500
v 3.269000 8.200000 -1.600500
v 3.269000 9.280000 -1.600500
v 2.569000 9.280000 -1.600500
v 2.569000 8.200000 -0.290000
v 3.269000 8.200000 -0.290000
v 3.269000 9.280000 -0.290000
v 2.569000 9.280000 -0.290000
v 2.569000 8.200000 0.290000
v 3.269000 8.200000 0.290000
v 3.269000 9.280000 0.290000
v 2.569000 9.280000 0.290000
v 2.569000 8.200000 1.600500
v 3.269000 8.200000 1.600500
v 3.269000 9.280000 1.600500
v 2.569000 9.280000 1.600500
v 2.569000 8.200000 2.180500
v 3.269000 8.200000 2.180500
v 3.269000 9.280000 2.180500
v 2.569000 9.280000 2.180500
v 2.569000 8.200000 3.491000
v 3.269000 8.200000 3.491000
v 3.269000 9.280000 3.491000
v 2.569000 9.280000 3.491000
v 2.569000 8.200000 4.071000
v 3.269000 8.200000 4.071000
v 3.269000 9.280000 4.071000
v 2.569000 9.280000 4.071000
v -0.310000 8.400000 -0.310000
v 0.310000 8.400000 -0.310000
v 0.310000 10.400000 -0.310000
v -0.310000 10.400000 -0.310000
v -0.310000 8.400000 0.310000
v 0.310000 8.400000 0.310000
v 0.310000 10.400000 0.310000
v -0.310000 10.400000 0.310000
f 4 3 2 1
f 6 7 8 5
f 2 6 5 1
f 3 7 6 2
f 4 8 7 3
f 8 4 1 5
f 12 11 10 9
f 14 15 16 13
f 10 14 13 9
f 11 15 14 10
f 12 16 15 11
f 16 12 9 13
f 20 19 18 17
f 22 23 24 21
f 18 22 21 17
f 19 23 22 18
f 20 24 23 19
f 24 20 17 21
f 28 27 26 25
f 30 31 32 29
f 26 30 29 25
f 27 31 30 26
f 28 32 31 27
f 32 28 25 29
f 36 35 34 33
f 38 39 40 37
f 34 38 37 33
f 35 39 38 34
f 36 40 39 35
f 40 36 33 37
f 44 43 42 41
f 46 47 48 45
f 42 46 45 41
f 43 47 46 42
f 44 48 47 43
f 48 44 41 45
f 52 51 50 49
f 54 55 56 53
f 50 54 53 49
f 51 55 54 50
f 52 56 55 51
f 56 52 49 53
f 60 59 58 57
f 62 63 64 61
f 58 62 61 57
f 59 63 62 58
f 60 64 63 59
f 64 60 57 61
f 68 67 66 65
f 70 71 72 69
f 66 70 69 65
f 67 71 70 66
f 68 72 71 67
f 72 68 65 69
f 76 75 74 73
f 78 79 80 77
f 74 78 77 73
f 75 79 78 74
f 76 80 79 75
f 80 76 73 77
f 84 83 82 81
f 86 87 88 85
f 82 86 85 81
f 83 87 86 82
f 84 88 87 83
f 88 84 81 85
f 92 91 90 89
f 94 95 96 93
f 90 94 93 89
f 91 95 94 90
f 92 96 95 91
f 96 92 89 93
f 100 99 98 97
f 102 103 104 101
f 98 102 101 97
f 99 103 102 98
f 100 104 103 99
f 104 100 97 101
f 108 107 106 105
f 110 111 112 109
f 106 110 109 105
f 107 111 110 106
f 108 112 111 107
f 112 108 105 109
f 116 115 114 113
f 118 119 120 117
f 114 118 117 113
f 115 119 118 114
f 116 120 119 115
f 120 116 113 117
f 124 123 122 121
f 126 127 128 125
f 122 126 125 121
f 123 127 126 122
f 124 128 127 123
f 128 124 121 125
f 132 131 130 129
f 134 135 136 133
f 130 134 133 129
f 131 135 134 130
f 132 136 135 131
f 136 132 129 133
f 140 139 138 137
f 142 143 144 141
f 138 142 141 137
f 139 143 142 138
f 140 144 143 139
f 144 140 137 141
f 148 147 146 145
f 150 151 152 149
f 146 150 149 145
f 147 151 150 146
f 148 152 151 147
f 152 148 145 149
f 156 155 154 153
f 158 159 160 157
f 154 158 157 153
f 155 159 158 154
f 156 160 159 155
f 160 156 153 157
f 164 163 162 161
f 166 167 168 165
f 162 166 165 161
f 163 167 166 162
f 164 168 167 163
f 168 164 161 165
f 172 171 170 169
f 174 175 176 173
f 170 174 173 169
f 171 175 174 170
f 172 176 175 171
f 176 172 169 173
f 180 179 178 177
f 182 183 184 181
f 178 182 181 177
f 179 183 182 178
f 180 184 183 179
f 184 180 177 181
f 188 187 186 185
f 190 191 192 189
f 186 190 189 185
f 187 191 190 186
f 188 192 191 187
f 192 188 185 189
f 196 195 194 193
f 198 199 200 197
f 194 198 197 193
f 195 199 198 194
f 196 200 199 195
f 200 196 193 197
