o human_keep_hero_stone
s off
v -3.801250 0.536000 -3.863200
v -3.058750 0.536000 -3.863200
v -3.155000 5.226000 -3.832000
v -3.705000 5.226000 -3.832000
v -3.801250 0.536000 -3.280800
v -3.058750 0.536000 -3.280800
v -3.155000 5.226000 -3.312000
v -3.705000 5.226000 -3.312000
v 3.058750 0.536000 -3.863200
v 3.801250 0.536000 -3.863200
v 3.705000 5.226000 -3.832000
v 3.155000 5.226000 -3.832000
v 3.058750 0.536000 -3.280800
v 3.801250 0.536000 -3.280800
v 3.705000 5.226000 -3.312000
v 3.155000 5.226000 -3.312000
v -3.801250 0.536000 -1.513200
v -3.058750 0.536000 -1.513200
v -3.155000 5.226000 -1.482000
v -3.705000 5.226000 -1.482000
v -3.801250 0.536000 -0.930800
v -3.058750 0.536000 -0.930800
v -3.155000 5.226000 -0.962000
v -3.705000 5.226000 -0.962000
v 3.058750 0.536000 -1.513200
v 3.801250 0.536000 -1.513200
v 3.705000 5.226000 -1.482000
v 3.155000 5.226000 -1.482000
v 3.058750 0.536000 -0.930800
v 3.801250 0.536000 -0.930800
v 3.705000 5.226000 -0.962000
v 3.155000 5.226000 -0.962000
v -3.801250 0.536000 0.930800
v -3.058750 0.536000 0.930800
v -3.155000 5.226000 0.962000
v -3.705000 5.226000 0.962000
v -3.801250 0.536000 1.513200
v -3.058750 0.536000 1.513200
v -3.155000 5.226000 1.482000
v -3.705000 5.226000 1.482000
v 3.058750 0.536000 0.930800
v 3.801250 0.536000 0.930800
v 3.705000 5.226000 0.962000
v 3.155000 5.226000 0.962000
v 3.058750 0.536000 1.513200
v 3.801250 0.536000 1.513200
v 3.705000 5.226000 1.482000
v 3.155000 5.226000 1.482000
v -3.801250 0.536000 3.280800
v -3.058750 0.536000 3.280800
v -3.155000 5.226000 3.312000
v -3.705000 5.226000 3.312000
v -3.801250 0.536000 3.863200
v -3.058750 0.536000 3.863200
v -3.155000 5.226000 3.832000
v -3.705000 5.226000 3.832000
v 3.058750 0.536000 3.280800
v 3.801250 0.536000 3.280800
v 3.705000 5.226000 3.312000
v 3.155000 5.226000 3.312000
v 3.058750 0.536000 3.863200
v 3.801250 0.536000 3.863200
v 3.705000 5.226000 3.832000
v 3.155000 5.226000 3.832000
v -3.740000 3.713000 -3.466000
v -3.460000 3.713000 -3.466000
v -3.460000 4.863000 -3.466000
v -3.740000 4.863000 -3.466000
v -3.740000 3.713000 -2.926000
v -3.460000 3.713000 -2.926000
v -3.460000 4.863000 -2.926000
v -3.740000 4.863000 -2.926000
v 3.460000 3.713000 -3.466000
v 3.740000 3.713000 -3.466000
v 3.740000 4.863000 -3.466000
v 3.460000 4.863000 -3.466000
v 3.460000 3.713000 -2.926000
v 3.740000 3.713000 -2.926000
v 3.740000 4.863000 -2.926000
v 3.460000 4.863000 -2.926000
v -3.740000 3.713000 -0.270000
v -3.460000 3.713000 -0.270000
v -3.460000 4.863000 -0.270000
v -3.740000 4.863000 -0.270000
v -3.740000 3.713000 0.270000
v -3.460000 3.713000 0.270000
v -3.460000 4.863000 0.270000
v -3.740000 4.863000 0.270000
v 3.460000 3.713000 -0.270000
v 3.740000 3.713000 -0.270000
v 3.740000 4.863000 -0.270000
v 3.460000 4.863000 -0.270000
v 3.460000 3.713000 0.270000
v 3.740000 3.713000 0.270000
v 3.740000 4.863000 0.270000
v 3.460000 4.863000 0.270000
v -3.740000 3.713000 2.926000
v -3.460000 3.713000 2.926000
v -3.460000 4.863000 2.926000
v -3.740000 4.863000 2.926000
v -3.740000 3.713000 3.466000
v -3.460000 3.713000 3.466000
v -3.460000 4.863000 3.466000
v -3.740000 4.863000 3.466000
v 3.460000 3.713000 2.926000
v 3.740000 3.713000 2.926000
v 3.740000 4.863000 2.926000
v 3.460000 4.863000 2.926000
v 3.460000 3.713000 3.466000
v 3.740000 3.713000 3.466000
v 3.740000 4.863000 3.466000
v 3.460000 4.863000 3.466000
v -3.600000 7.030000 -4.035000
v 3.600000 7.030000 -4.035000
v 3.600000 7.810000 -4.035000
v -3.600000 7.810000 -4.035000
v -3.600000 7.030000 -3.485000
v 3.600000 7.030000 -3.485000
v 3.600000 7.810000 -3.485000
v -3.600000 7.810000 -3.485000
v -3.600000 7.030000 -2.155000
v 3.600000 7.030000 -2.155000
v 3.600000 7.810000 -2.155000
v -3.600000 7.810000 -2.155000
v -3.600000 7.030000 -1.605000
v 3.600000 7.030000 -1.605000
v 3.600000 7.810000 -1.605000
v -3.600000 7.810000 -1.605000
v -3.600000 7.030000 -0.275000
v 3.600000 7.030000 -0.275000
v 3.600000 7.810000 -0.275000
v -3.600000 7.810000 -0.275000
v -3.600000 7.030000 0.275000
v 3.600000 7.030000 0.275000
v 3.600000 7.810000 0.275000
v -3.600000 7.810000 0.275000
v -3.600000 7.030000 1.605000
v 3.600000 7.030000 1.605000
v 3.600000 7.810000 1.605000
v -3.600000 7.810000 1.605000
v -3.600000 7.030000 2.155000
v 3.600000 7.030000 2.155000
v 3.600000 7.810000 2.155000
v -3.600000 7.810000 2.155000
v -3.600000 7.030000 3.485000
v 3.600000 7.030000 3.485000
v 3.600000 7.810000 3.485000
v -3.600000 7.810000 3.485000
v -3.600000 7.030000 4.035000
v 3.600000 7.030000 4.035000
v 3.600000 7.810000 4.035000
v -3.600000 7.810000 4.035000
v -0.200000 7.425000 -3.196000
v 0.200000 7.425000 -3.196000
v 0.200000 8.675000 -3.196000
v -0.200000 8.675000 -3.196000
v -0.200000 7.425000 3.196000
v 0.200000 7.425000 3.196000
v 0.200000 8.675000 3.196000
v -0.200000 8.675000 3.196000
f 4 3 2 1
f 6 7 8 5
f 2 6 5 1
f 3 7 6 2
f 4 8 7 3
f 8 4 1 5
f 12 11 10 9
f 14 15 16 13
f 10 14 13 9
f 11 15 14 10
f 12 16 15 11
f 16 12 9 13
f 20 19 18 17
f 22 23 24 21
f 18 22 21 17
f 19 23 22 18
f 20 24 23 19
f 24 20 17 21
f 28 27 26 25
f 30 31 32 29
f 26 30 29 25
f 27 31 30 26
f 28 32 31 27
f 32 28 25 29
f 36 35 34 33
f 38 39 40 37
f 34 38 37 33
f 35 39 38 34
f 36 40 39 35
f 40 36 33 37
f 44 43 42 41
f 46 47 48 45
f 42 46 45 41
f 43 47 46 42
f 44 48 47 43
f 48 44 41 45
f 52 51 50 49
f 54 55 56 53
f 50 54 53 49
f 51 55 54 50
f 52 56 55 51
f 56 52 49 53
f 60 59 58 57
f 62 63 64 61
f 58 62 61 57
f 59 63 62 58
f 60 64 63 59
f 64 60 57 61
f 68 67 66 65
f 70 71 72 69
f 66 70 69 65
f 67 71 70 66
f 68 72 71 67
f 72 68 65 69
f 76 75 74 73
f 78 79 80 77
f 74 78 77 73
f 75 79 78 74
f 76 80 79 75
f 80 76 73 77
f 84 83 82 81
f 86 87 88 85
f 82 86 85 81
f 83 87 86 82
f 84 88 87 83
f 88 84 81 85
f 92 91 90 89
f 94 95 96 93
f 90 94 93 89
f 91 95 94 90
f 92 96 95 91
f 96 92 89 93
f 100 99 98 97
f 102 103 104 101
f 98 102 101 97
f 99 103 102 98
f 100 104 103 99
f 104 100 97 101
f 108 107 106 105
f 110 111 112 109
f 106 110 109 105
f 107 111 110 106
f 108 112 111 107
f 112 108 105 109
f 116 115 114 113
f 118 119 120 117
f 114 118 117 113
f 115 119 118 114
f 116 120 119 115
f 120 116 113 117
f 124 123 122 121
f 126 127 128 125
f 122 126 125 121
f 123 127 126 122
f 124 128 127 123
f 128 124 121 125
f 132 131 130 129
f 134 135 136 133
f 130 134 133 129
f 131 135 134 130
f 132 136 135 131
f 136 132 129 133
f 140 139 138 137
f 142 143 144 141
f 138 142 141 137
f 139 143 142 138
f 140 144 143 139
f 144 140 137 141
f 148 147 146 145
f 150 151 152 149
f 146 150 149 145
f 147 151 150 146
f 148 152 151 147
f 152 148 145 149
f 156 155 154 153
f 158 159 160 157
f 154 158 157 153
f 155 159 158 154
f 156 160 159 155
f 160 156 153 157
