o human_keep_hero_iron
s off
v -4.251250 0.715200 -4.281200
v -3.508750 0.715200 -4.281200
v -3.605000 6.973200 -4.250000
v -4.155000 6.973200 -4.250000
v -4.251250 0.715200 -3.698800
v -3.508750 0.715200 -3.698800
v -3.605000 6.973200 -3.730000
v -4.155000 6.973200 -3.730000
v 3.508750 0.715200 -4.281200
v 4.251250 0.715200 -4.281200
v 4.155000 6.973200 -4.250000
v 3.605000 6.973200 -4.250000
v 3.508750 0.715200 -3.698800
v 4.251250 0.715200 -3.698800
v 4.155000 6.973200 -3.730000
v 3.605000 6.973200 -3.730000
v -4.251250 0.715200 -1.656200
v -3.508750 0.715200 -1.656200
v -3.605000 6.973200 -1.625000
v -4.155000 6.973200 -1.625000
v -4.251250 0.715200 -1.073800
v -3.508750 0.715200 -1.073800
v -3.605000 6.973200 -1.105000
v -4.155000 6.973200 -1.105000
v 3.508750 0.715200 -1.656200
v 4.251250 0.715200 -1.656200
v 4.155000 6.973200 -1.625000
v 3.605000 6.973200 -1.625000
v 3.508750 0.715200 -1.073800
v 4.251250 0.715200 -1.073800
v 4.155000 6.973200 -1.105000
v 3.605000 6.973200 -1.105000
v -4.251250 0.715200 1.073800
v -3.508750 0.715200 1.073800
v -3.605000 6.973200 1.105000
v -4.155000 6.973200 1.105000
v -4.251250 0.715200 1.656200
v -3.508750 0.715200 1.656200
v -3.605000 6.973200 1.625000
v -4.155000 6.973200 1.625000
v 3.508750 0.715200 1.073800
v 4.251250 0.715200 1.073800
v 4.155000 6.973200 1.105000
v 3.605000 6.973200 1.105000
v 3.508750 0.715200 1.656200
v 4.251250 0.715200 1.656200
v 4.155000 6.973200 1.625000
v 3.605000 6.973200 1.625000
v -4.251250 0.715200 3.698800
v -3.508750 0.715200 3.698800
v -3.605000 6.973200 3.730000
v -4.155000 6.973200 3.730000
v -4.251250 0.715200 4.281200
v -3.508750 0.715200 4.281200
v -3.605000 6.973200 4.250000
v -4.155000 6.973200 4.250000
v 3.508750 0.715200 3.698800
v 4.251250 0.715200 3.698800
v 4.155000 6.973200 3.730000
v 3.605000 6.973200 3.730000
v 3.508750 0.715200 4.281200
v 4.251250 0.715200 4.281200
v 4.155000 6.973200 4.250000
v 3.605000 6.973200 4.250000
v -4.190000 5.146600 -3.840000
v -3.910000 5.146600 -3.840000
v -3.910000 6.296600 -3.840000
v -4.190000 6.296600 -3.840000
v -4.190000 5.146600 -3.300000
v -3.910000 5.146600 -3.300000
v -3.910000 6.296600 -3.300000
v -4.190000 6.296600 -3.300000
v 3.910000 5.146600 -3.840000
v 4.190000 5.146600 -3.840000
v 4.190000 6.296600 -3.840000
v 3.910000 6.296600 -3.840000
v 3.910000 5.146600 -3.300000
v 4.190000 5.146600 -3.300000
v 4.190000 6.296600 -3.300000
v 3.910000 6.296600 -3.300000
v -4.190000 5.146600 -0.270000
v -3.910000 5.146600 -0.270000
v -3.910000 6.296600 -0.270000
v -4.190000 6.296600 -0.270000
v -4.190000 5.146600 0.270000
v -3.910000 5.146600 0.270000
v -3.910000 6.296600 0.270000
v -4.190000 6.296600 0.270000
v 3.910000 5.146600 -0.270000
v 4.190000 5.146600 -0.270000
v 4.190000 6.296600 -0.270000
v 3.910000 6.296600 -0.270000
v 3.910000 5.146600 0.270000
v 4.190000 5.146600 0.270000
v 4.190000 6.296600 0.270000
v 3.910000 6.296600 0.270000
v -4.190000 5.146600 3.300000
v -3.910000 5.146600 3.300000
v -3.910000 6.296600 3.300000
v -4.190000 6.296600 3.300000
v -4.190000 5.146600 3.840000
v -3.910000 5.146600 3.840000
v -3.910000 6.296600 3.840000
v -4.190000 6.296600 3.840000
v 3.910000 5.146600 3.300000
v 4.190000 5.146600 3.300000
v 4.190000 6.296600 3.300000
v 3.910000 6.296600 3.300000
v 3.910000 5.146600 3.840000
v 4.190000 5.146600 3.840000
v 4.190000 6.296600 3.840000
v 3.910000 6.296600 3.840000
v -3.562000 9.295000 -4.490000
v -2.802000 9.295000 -4.490000
v -2.802000 10.545000 -4.490000
v -3.562000 10.545000 -4.490000
v -3.562000 9.295000 -3.910000
v -2.802000 9.295000 -3.910000
v -2.802000 10.545000 -3.910000
v -3.562000 10.545000 -3.910000
v -3.562000 9.295000 -3.125000
v -2.802000 9.295000 -3.125000
v -2.802000 10.545000 -3.125000
v -3.562000 10.545000 -3.125000
v -3.562000 9.295000 -2.545000
v -2.802000 9.295000 -2.545000
v -2.802000 10.545000 -2.545000
v -3.562000 10.545000 -2.545000
v -3.562000 9.295000 -1.655000
v -2.802000 9.295000 -1.655000
v -2.802000 10.545000 -1.655000
v -3.562000 10.545000 -1.655000
v -3.562000 9.295000 -1.075000
v -2.802000 9.295000 -1.075000
v -2.802000 10.545000 -1.075000
v -3.562000 10.545000 -1.075000
v -3.562000 9.295000 -0.290000
v -2.802000 9.295000 -0.290000
v -2.802000 10.545000 -0.290000
v -3.562000 10.545000 -0.290000
v -3.562000 9.295000 0.290000
v -2.802000 9.295000 0.290000
v -2.802000 10.545000 0.290000
v -3.562000 10.545000 0.290000
v -3.562000 9.295000 1.075000
v -2.802000 9.295000 1.075000
v -2.802000 10.545000 1.075000
v -3.562000 10.545000 1.075000
v -3.562000 9.295000 1.655000
v -2.802000 9.295000 1.655000
v -2.802000 10.545000 1.655000
v -3.562000 10.545000 1.655000
v -3.562000 9.295000 2.545000
v -2.802000 9.295000 2.545000
v -2.802000 10.545000 2.545000
v -3.562000 10.545000 2.545000
v -3.562000 9.295000 3.125000
v -2.802000 9.295000 3.125000
v -2.802000 10.545000 3.125000
v -3.562000 10.545000 3.125000
v -3.562000 9.295000 3.910000
v -2.802000 9.295000 3.910000
v -2.802000 10.545000 3.910000
v -3.562000 10.545000 3.910000
v -3.562000 9.295000 4.490000
v -2.802000 9.295000 4.490000
v -2.802000 10.545000 4.490000
v -3.562000 10.545000 4.490000
v 2.802000 9.295000 -4.490000
v 3.562000 9.295000 -4.490000
v 3.562000 10.545000 -4.490000
v 2.802000 10.545000 -4.490000
v 2.802000 9.295000 -3.910000
v 3.562000 9.295000 -3.910000
v 3.562000 10.545000 -3.910000
v 2.802000 10.545000 -3.910000
v 2.802000 9.295000 -3.125000
v 3.562000 9.295000 -3.125000
v 3.562000 10.545000 -3.125000
v 2.802000 10.545000 -3.125000
v 2.802000 9.295000 -2.545000
v 3.562000 9.295000 -2.545000
v 3.562000 10.545000 -2.545000
v 2.802000 10.545000 -2.545000
v 2.802000 9.295000 -1.655000
v 3.562000 9.295000 -1.655000
v 3.562000 10.545000 -1.655000
v 2.802000 10.545000 -1.655000
v 2.802000 9.295000 -1.075000
v 3.562000 9.295000 -1.075000
v 3.562000 10.545000 -1.075000
v 2.802000 10.545000 -1.075000
v 2.802000 9.295000 -0.290000
v 3.562000 9.295000 -0.290000
v 3.562000 10.545000 -0.290000
v 2.802000 10.545000 -0.290000
v 2.802000 9.295000 0.290000
v 3.562000 9.295000 0.290000
v 3.562000 10.545000 0.290000
v 2.802000 10.545000 0.290000
v 2.802000 9.295000 1.075000
v 3.562000 9.295000 1.075000
v 3.562000 10.545000 1.075000
v 2.802000 10.545000 1.075000
v 2.802000 9.295000 1.655000
v 3.562000 9.295000 1.655000
v 3.562000 10.545000 1.655000
v 2.802000 10.545000 1.655000
v 2.802000 9.295000 2.545000
v 3.562000 9.295000 2.545000
v 3.562000 10.545000 2.545000
v 2.802000 10.545000 2.545000
v 2.802000 9.295000 3.125000
v 3.562000 9.295000 3.125000
v 3.562000 10.545000 3.125000
v 2.802000 10.545000 3.125000
v 2.802000 9.295000 3.910000
v 3.562000 9.295000 3.910000
v 3.562000 10.545000 3.910000
v 2.802000 10.545000 3.910000
v 2.802000 9.295000 4.490000
v 3.562000 9.295000 4.490000
v 3.562000 10.545000 4.490000
v 2.802000 10.545000 4.490000
v -1.850260 9.785000 -3.353688
v -1.964387 12.335000 -3.390770
v -2.104550 9.785000 -3.003688
v -2.175085 12.335000 -3.100770
v -2.516000 9.785000 -2.870000
v -2.516000 12.335000 -2.990000
v -2.927450 9.785000 -3.003688
v -2.856915 12.335000 -3.100770
v -3.181740 9.785000 -3.353688
v -3.067613 12.335000 -3.390770
v -3.181740 9.785000 -3.786312
v -3.067613 12.335000 -3.749230
v -2.927450 9.785000 -4.136312
v -2.856915 12.335000 -4.039230
v -2.516000 9.785000 -4.270000
v -2.516000 12.335000 -4.150000
v -2.104550 9.785000 -4.136312
v -2.175085 12.335000 -4.039230
v -1.850260 9.785000 -3.786312
v -1.964387 12.335000 -3.749230
v -2.396000 12.330000 -3.570000
v -2.441181 12.330000 -3.476180
v -2.542703 12.330000 -3.453009
v -2.624116 12.330000 -3.517934
v -2.624116 12.330000 -3.622066
v -2.542703 12.330000 -3.686991
v -2.441181 12.330000 -3.663820
v -2.478822 12.948884 -3.570000
v -1.850260 9.785000 3.786312
v -1.964387 12.335000 3.749230
v -2.104550 9.785000 4.136312
v -2.175085 12.335000 4.039230
v -2.516000 9.785000 4.270000
v -2.516000 12.335000 4.150000
v -2.927450 9.785000 4.136312
v -2.856915 12.335000 4.039230
v -3.181740 9.785000 3.786312
v -3.067613 12.335000 3.749230
v -3.181740 9.785000 3.353688
v -3.067613 12.335000 3.390770
v -2.927450 9.785000 3.003688
v -2.856915 12.335000 3.100770
v -2.516000 9.785000 2.870000
v -2.516000 12.335000 2.990000
v -2.104550 9.785000 3.003688
v -2.175085 12.335000 3.100770
v -1.850260 9.785000 3.353688
v -1.964387 12.335000 3.390770
v -2.396000 12.330000 3.570000
v -2.441181 12.330000 3.663820
v -2.542703 12.330000 3.686991
v -2.624116 12.330000 3.622066
v -2.624116 12.330000 3.517934
v -2.542703 12.330000 3.453009
v -2.441181 12.330000 3.476180
v -2.478822 12.948884 3.570000
v 3.181740 9.785000 -3.353688
v 3.067613 12.335000 -3.390770
v 2.927450 9.785000 -3.003688
v 2.856915 12.335000 -3.100770
v 2.516000 9.785000 -2.870000
v 2.516000 12.335000 -2.990000
v 2.104550 9.785000 -3.003688
v 2.175085 12.335000 -3.100770
v 1.850260 9.785000 -3.353688
v 1.964387 12.335000 -3.390770
v 1.850260 9.785000 -3.786312
v 1.964387 12.335000 -3.749230
v 2.104550 9.785000 -4.136312
v 2.175085 12.335000 -4.039230
v 2.516000 9.785000 -4.270000
v 2.516000 12.335000 -4.150000
v 2.927450 9.785000 -4.136312
v 2.856915 12.335000 -4.039230
v 3.181740 9.785000 -3.786312
v 3.067613 12.335000 -3.749230
v 2.636000 12.330000 -3.570000
v 2.590819 12.330000 -3.476180
v 2.489297 12.330000 -3.453009
v 2.407884 12.330000 -3.517934
v 2.407884 12.330000 -3.622066
v 2.489297 12.330000 -3.686991
v 2.590819 12.330000 -3.663820
v 2.553178 12.948884 -3.570000
v 3.181740 9.785000 3.786312
v 3.067613 12.335000 3.749230
v 2.927450 9.785000 4.136312
v 2.856915 12.335000 4.039230
v 2.516000 9.785000 4.270000
v 2.516000 12.335000 4.150000
v 2.104550 9.785000 4.136312
v 2.175085 12.335000 4.039230
v 1.850260 9.785000 3.786312
v 1.964387 12.335000 3.749230
v 1.850260 9.785000 3.353688
v 1.964387 12.335000 3.390770
v 2.104550 9.785000 3.003688
v 2.175085 12.335000 3.100770
v 2.516000 9.785000 2.870000
v 2.516000 12.335000 2.990000
v 2.927450 9.785000 3.003688
v 2.856915 12.335000 3.100770
v 3.181740 9.785000 3.353688
v 3.067613 12.335000 3.390770
v 2.636000 12.330000 3.570000
v 2.590819 12.330000 3.663820
v 2.489297 12.330000 3.686991
v 2.407884 12.330000 3.622066
v 2.407884 12.330000 3.517934
v 2.489297 12.330000 3.453009
v 2.590819 12.330000 3.476180
v 2.553178 12.948884 3.570000
v -0.175000 9.495000 -3.675000
v 0.175000 9.495000 -3.675000
v 0.175000 11.345000 -3.675000
v -0.175000 11.345000 -3.675000
v -0.175000 9.495000 3.675000
v 0.175000 9.495000 3.675000
v 0.175000 11.345000 3.675000
v -0.175000 11.345000 3.675000
f 4 3 2 1
f 6 7 8 5
f 2 6 5 1
f 3 7 6 2
f 4 8 7 3
f 8 4 1 5
f 12 11 10 9
f 14 15 16 13
f 10 14 13 9
f 11 15 14 10
f 12 16 15 11
f 16 12 9 13
f 20 19 18 17
f 22 23 24 21
f 18 22 21 17
f 19 23 22 18
f 20 24 23 19
f 24 20 17 21
f 28 27 26 25
f 30 31 32 29
f 26 30 29 25
f 27 31 30 26
f 28 32 31 27
f 32 28 25 29
f 36 35 34 33
f 38 39 40 37
f 34 38 37 33
f 35 39 38 34
f 36 40 39 35
f 40 36 33 37
f 44 43 42 41
f 46 47 48 45
f 42 46 45 41
f 43 47 46 42
f 44 48 47 43
f 48 44 41 45
f 52 51 50 49
f 54 55 56 53
f 50 54 53 49
f 51 55 54 50
f 52 56 55 51
f 56 52 49 53
f 60 59 58 57
f 62 63 64 61
f 58 62 61 57
f 59 63 62 58
f 60 64 63 59
f 64 60 57 61
f 68 67 66 65
f 70 71 72 69
f 66 70 69 65
f 67 71 70 66
f 68 72 71 67
f 72 68 65 69
f 76 75 74 73
f 78 79 80 77
f 74 78 77 73
f 75 79 78 74
f 76 80 79 75
f 80 76 73 77
f 84 83 82 81
f 86 87 88 85
f 82 86 85 81
f 83 87 86 82
f 84 88 87 83
f 88 84 81 85
f 92 91 90 89
f 94 95 96 93
f 90 94 93 89
f 91 95 94 90
f 92 96 95 91
f 96 92 89 93
f 100 99 98 97
f 102 103 104 101
f 98 102 101 97
f 99 103 102 98
f 100 104 103 99
f 104 100 97 101
f 108 107 106 105
f 110 111 112 109
f 106 110 109 105
f 107 111 110 106
f 108 112 111 107
f 112 108 105 109
f 116 115 114 113
f 118 119 120 117
f 114 118 117 113
f 115 119 118 114
f 116 120 119 115
f 120 116 113 117
f 124 123 122 121
f 126 127 128 125
f 122 126 125 121
f 123 127 126 122
f 124 128 127 123
f 128 124 121 125
f 132 131 130 129
f 134 135 136 133
f 130 134 133 129
f 131 135 134 130
f 132 136 135 131
f 136 132 129 133
f 140 139 138 137
f 142 143 144 141
f 138 142 141 137
f 139 143 142 138
f 140 144 143 139
f 144 140 137 141
f 148 147 146 145
f 150 151 152 149
f 146 150 149 145
f 147 151 150 146
f 148 152 151 147
f 152 148 145 149
f 156 155 154 153
f 158 159 160 157
f 154 158 157 153
f 155 159 158 154
f 156 160 159 155
f 160 156 153 157
f 164 163 162 161
f 166 167 168 165
f 162 166 165 161
f 163 167 166 162
f 164 168 167 163
f 168 164 161 165
f 172 171 170 169
f 174 175 176 173
f 170 174 173 169
f 171 175 174 170
f 172 176 175 171
f 176 172 169 173
f 180 179 178 177
f 182 183 184 181
f 178 182 181 177
f 179 183 182 178
f 180 184 183 179
f 184 180 177 181
f 188 187 186 185
f 190 191 192 189
f 186 190 189 185
f 187 191 190 186
f 188 192 191 187
f 192 188 185 189
f 196 195 194 193
f 198 199 200 197
f 194 198 197 193
f 195 199 198 194
f 196 200 199 195
f 200 196 193 197
f 204 203 202 201
f 206 207 208 205
f 202 206 205 201
f 203 207 206 202
f 204 208 207 203
f 208 204 201 205
f 212 211 210 209
f 214 215 216 213
f 210 214 213 209
f 211 215 214 210
f 212 216 215 211
f 216 212 209 213
f 220 219 218 217
f 222 223 224 221
f 218 222 221 217
f 219 223 222 218
f 220 224 223 219
f 224 220 217 221
f 225 227 229 231 233 235 237 239 241 243
f 244 242 240 238 236 234 232 230 228 226
f 226 228 227 225
f 228 230 229 227
f 230 232 231 229
f 232 234 233 231
f 234 236 235 233
f 236 238 237 235
f 238 240 239 237
f 240 242 241 239
f 242 244 243 241
f 244 226 225 243
f 252 246 245
f 252 247 246
f 252 248 247
f 252 249 248
f 252 250 249
f 252 251 250
f 252 245 251
f 245 246 247 248 249 250 251
f 253 255 257 259 261 263 265 267 269 271
f 272 270 268 266 264 262 260 258 256 254
f 254 256 255 253
f 256 258 257 255
f 258 260 259 257
f 260 262 261 259
f 262 264 263 261
f 264 266 265 263
f 266 268 267 265
f 268 270 269 267
f 270 272 271 269
f 272 254 253 271
f 280 274 273
f 280 275 274
f 280 276 275
f 280 277 276
f 280 278 277
f 280 279 278
f 280 273 279
f 273 274 275 276 277 278 279
f 281 283 285 287 289 291 293 295 297 299
f 300 298 296 294 292 290 288 286 284 282
f 282 284 283 281
f 284 286 285 283
f 286 288 287 285
f 288 290 289 287
f 290 292 291 289
f 292 294 293 291
f 294 296 295 293
f 296 298 297 295
f 298 300 299 297
f 300 282 281 299
f 308 302 301
f 308 303 302
f 308 304 303
f 308 305 304
f 308 306 305
f 308 307 306
f 308 301 307
f 301 302 303 304 305 306 307
f 309 311 313 315 317 319 321 323 325 327
f 328 326 324 322 320 318 316 314 312 310
f 310 312 311 309
f 312 314 313 311
f 314 316 315 313
f 316 318 317 315
f 318 320 319 317
f 320 322 321 319
f 322 324 323 321
f 324 326 325 323
f 326 328 327 325
f 328 310 309 327
f 336 330 329
f 336 331 330
f 336 332 331
f 336 333 332
f 336 334 333
f 336 335 334
f 336 329 335
f 329 330 331 332 333 334 335
f 340 339 338 337
f 342 343 344 341
f 338 342 341 337
f 339 343 342 338
f 340 344 343 339
f 344 340 337 341
