o human_gate_hero_iron
s off
v -1.181000 0.870000 -3.900000
v -0.859000 0.870000 -3.900000
v -0.880000 7.370000 -3.900000
v -1.160000 7.370000 -3.900000
v -1.181000 0.870000 -3.200000
v -0.859000 0.870000 -3.200000
v -0.880000 7.370000 -3.200000
v -1.160000 7.370000 -3.200000
v -1.455000 6.690000 -4.650000
v -0.905000 6.690000 -4.650000
v -0.905000 7.090000 -4.650000
v -1.455000 7.090000 -4.650000
v -1.455000 6.690000 -2.450000
v -0.905000 6.690000 -2.450000
v -0.905000 7.090000 -2.450000
v -1.455000 7.090000 -2.450000
v -1.510000 6.910000 -4.480000
v -1.070000 6.910000 -4.480000
v -1.070000 7.730000 -4.480000
v -1.510000 7.730000 -4.480000
v -1.510000 6.910000 -4.060000
v -1.070000 6.910000 -4.060000
v -1.070000 7.730000 -4.060000
v -1.510000 7.730000 -4.060000
v -1.510000 6.910000 -4.120000
v -1.070000 6.910000 -4.120000
v -1.070000 7.730000 -4.120000
v -1.510000 7.730000 -4.120000
v -1.510000 6.910000 -3.700000
v -1.070000 6.910000 -3.700000
v -1.070000 7.730000 -3.700000
v -1.510000 7.730000 -3.700000
v -1.510000 6.910000 -3.760000
v -1.070000 6.910000 -3.760000
v -1.070000 7.730000 -3.760000
v -1.510000 7.730000 -3.760000
v -1.510000 6.910000 -3.340000
v -1.070000 6.910000 -3.340000
v -1.070000 7.730000 -3.340000
v -1.510000 7.730000 -3.340000
v -1.510000 6.910000 -3.400000
v -1.070000 6.910000 -3.400000
v -1.070000 7.730000 -3.400000
v -1.510000 7.730000 -3.400000
v -1.510000 6.910000 -2.980000
v -1.070000 6.910000 -2.980000
v -1.070000 7.730000 -2.980000
v -1.510000 7.730000 -2.980000
v -1.510000 6.910000 -3.040000
v -1.070000 6.910000 -3.040000
v -1.070000 7.730000 -3.040000
v -1.510000 7.730000 -3.040000
v -1.510000 6.910000 -2.620000
v -1.070000 6.910000 -2.620000
v -1.070000 7.730000 -2.620000
v -1.510000 7.730000 -2.620000
v -1.181000 0.870000 3.200000
v -0.859000 0.870000 3.200000
v -0.880000 7.370000 3.200000
v -1.160000 7.370000 3.200000
v -1.181000 0.870000 3.900000
v -0.859000 0.870000 3.900000
v -0.880000 7.370000 3.900000
v -1.160000 7.370000 3.900000
v -1.455000 6.690000 2.450000
v -0.905000 6.690000 2.450000
v -0.905000 7.090000 2.450000
v -1.455000 7.090000 2.450000
v -1.455000 6.690000 4.650000
v -0.905000 6.690000 4.650000
v -0.905000 7.090000 4.650000
v -1.455000 7.090000 4.650000
v -1.510000 6.910000 2.620000
v -1.070000 6.910000 2.620000
v -1.070000 7.730000 2.620000
v -1.510000 7.730000 2.620000
v -1.510000 6.910000 3.040000
v -1.070000 6.910000 3.040000
v -1.070000 7.730000 3.040000
v -1.510000 7.730000 3.040000
v -1.510000 6.910000 2.980000
v -1.070000 6.910000 2.980000
v -1.070000 7.730000 2.980000
v -1.510000 7.730000 2.980000
v -1.510000 6.910000 3.400000
v -1.070000 6.910000 3.400000
v -1.070000 7.730000 3.400000
v -1.510000 7.730000 3.400000
v -1.510000 6.910000 3.340000
v -1.070000 6.910000 3.340000
v -1.070000 7.730000 3.340000
v -1.510000 7.730000 3.340000
v -1.510000 6.910000 3.760000
v -1.070000 6.910000 3.760000
v -1.070000 7.730000 3.760000
v -1.510000 7.730000 3.760000
v -1.510000 6.910000 3.700000
v -1.070000 6.910000 3.700000
v -1.070000 7.730000 3.700000
v -1.510000 7.730000 3.700000
v -1.510000 6.910000 4.120000
v -1.070000 6.910000 4.120000
v -1.070000 7.730000 4.120000
v -1.510000 7.730000 4.120000
v -1.510000 6.910000 4.060000
v -1.070000 6.910000 4.060000
v -1.070000 7.730000 4.060000
v -1.510000 7.730000 4.060000
v -1.510000 6.910000 4.480000
v -1.070000 6.910000 4.480000
v -1.070000 7.730000 4.480000
v -1.510000 7.730000 4.480000
v -1.410000 2.340000 3.030000
v -0.990000 2.340000 3.030000
v -0.990000 2.340000 2.670000
v -1.410000 2.340000 2.670000
v -1.410000 2.860000 3.030000
v -0.990000 2.860000 3.030000
v -0.990000 2.860000 2.670000
v -1.410000 2.860000 2.670000
v -1.410000 2.940650 2.896176
v -0.990000 2.940650 2.896176
v -0.990000 3.020757 2.545202
v -1.410000 3.020757 2.545202
v -1.410000 3.447612 3.011887
v -0.990000 3.447612 3.011887
v -0.990000 3.527720 2.660913
v -1.410000 3.527720 2.660913
v -1.410000 3.524218 2.617126
v -0.990000 3.524218 2.617126
v -0.990000 3.680416 2.292777
v -1.410000 3.680416 2.292777
v -1.410000 3.992721 2.842745
v -0.990000 3.992721 2.842745
v -0.990000 4.148920 2.518397
v -1.410000 4.148920 2.518397
v -1.410000 4.061442 2.206842
v -0.990000 4.061442 2.206842
v -0.990000 4.285898 1.925383
v -1.410000 4.285898 1.925383
v -1.410000 4.467994 2.531057
v -0.990000 4.467994 2.531057
v -0.990000 4.692450 2.249597
v -1.410000 4.692450 2.249597
v -1.410000 4.525383 1.685898
v -0.990000 4.525383 1.685898
v -0.990000 4.806842 1.461442
v -1.410000 4.806842 1.461442
v -1.410000 4.849597 2.092450
v -0.990000 4.849597 2.092450
v -0.990000 5.131057 1.867994
v -1.410000 5.131057 1.867994
v -1.410000 4.892777 1.080416
v -0.990000 4.892777 1.080416
v -0.990000 5.217126 0.924218
v -1.410000 5.217126 0.924218
v -1.410000 5.118397 1.548920
v -0.990000 5.118397 1.548920
v -0.990000 5.442745 1.392721
v -1.410000 5.442745 1.392721
v -1.410000 5.145202 0.420757
v -0.990000 5.145202 0.420757
v -0.990000 5.496176 0.340650
v -1.410000 5.496176 0.340650
v -1.410000 5.260913 0.927720
v -0.990000 5.260913 0.927720
v -0.990000 5.611887 0.847612
v -1.410000 5.611887 0.847612
v -1.410000 5.270000 -0.260000
v -0.990000 5.270000 -0.260000
v -0.990000 5.630000 -0.260000
v -1.410000 5.630000 -0.260000
v -1.410000 5.270000 0.260000
v -0.990000 5.270000 0.260000
v -0.990000 5.630000 0.260000
v -1.410000 5.630000 0.260000
v -1.410000 5.260913 -0.927720
v -0.990000 5.260913 -0.927720
v -0.990000 5.611887 -0.847612
v -1.410000 5.611887 -0.847612
v -1.410000 5.145202 -0.420757
v -0.990000 5.145202 -0.420757
v -0.990000 5.496176 -0.340650
v -1.410000 5.496176 -0.340650
v -1.410000 5.118397 -1.548920
v -0.990000 5.118397 -1.548920
v -0.990000 5.442745 -1.392721
v -1.410000 5.442745 -1.392721
v -1.410000 4.892777 -1.080416
v -0.990000 4.892777 -1.080416
v -0.990000 5.217126 -0.924218
v -1.410000 5.217126 -0.924218
v -1.410000 4.849597 -2.092450
v -0.990000 4.849597 -2.092450
v -0.990000 5.131057 -1.867994
v -1.410000 5.131057 -1.867994
v -1.410000 4.525383 -1.685898
v -0.990000 4.525383 -1.685898
v -0.990000 4.806842 -1.461442
v -1.410000 4.806842 -1.461442
v -1.410000 4.467994 -2.531057
v -0.990000 4.467994 -2.531057
v -0.990000 4.692450 -2.249597
v -1.410000 4.692450 -2.249597
v -1.410000 4.061442 -2.206842
v -0.990000 4.061442 -2.206842
v -0.990000 4.285898 -1.925383
v -1.410000 4.285898 -1.925383
v -1.410000 3.992721 -2.842745
v -0.990000 3.992721 -2.842745
v -0.990000 4.148920 -2.518397
v -1.410000 4.148920 -2.518397
v -1.410000 3.524218 -2.617126
v -0.990000 3.524218 -2.617126
v -0.990000 3.680416 -2.292777
v -1.410000 3.680416 -2.292777
v -1.410000 3.447612 -3.011887
v -0.990000 3.447612 -3.011887
v -0.990000 3.527720 -2.660913
v -1.410000 3.527720 -2.660913
v -1.410000 2.940650 -2.896176
v -0.990000 2.940650 -2.896176
v -0.990000 3.020757 -2.545202
v -1.410000 3.020757 -2.545202
v -1.410000 2.860000 -3.030000
v -0.990000 2.860000 -3.030000
v -0.990000 2.860000 -2.670000
v -1.410000 2.860000 -2.670000
v -1.410000 2.340000 -3.030000
v -0.990000 2.340000 -3.030000
v -0.990000 2.340000 -2.670000
v -1.410000 2.340000 -2.670000
v -1.510000 6.820000 -2.575000
v -0.990000 6.820000 -2.575000
v -0.990000 7.160000 -2.575000
v -1.510000 7.160000 -2.575000
v -1.510000 6.820000 2.575000
v -0.990000 6.820000 2.575000
v -0.990000 7.160000 2.575000
v -1.510000 7.160000 2.575000
v -1.651033 6.217965 -2.280000
v -1.231789 6.243150 -2.280000
v -1.268967 6.862035 -2.280000
v -1.688211 6.836850 -2.280000
v -1.651033 6.217965 -2.020000
v -1.231789 6.243150 -2.020000
v -1.268967 6.862035 -2.020000
v -1.688211 6.836850 -2.020000
v -1.651033 6.217965 -1.180000
v -1.231789 6.243150 -1.180000
v -1.268967 6.862035 -1.180000
v -1.688211 6.836850 -1.180000
v -1.651033 6.217965 -0.920000
v -1.231789 6.243150 -0.920000
v -1.268967 6.862035 -0.920000
v -1.688211 6.836850 -0.920000
v -1.688211 6.243150 -0.130000
v -1.268967 6.217965 -0.130000
v -1.231789 6.836850 -0.130000
v -1.651033 6.862035 -0.130000
v -1.688211 6.243150 0.130000
v -1.268967 6.217965 0.130000
v -1.231789 6.836850 0.130000
v -1.651033 6.862035 0.130000
v -1.688211 6.243150 0.920000
v -1.268967 6.217965 0.920000
v -1.231789 6.836850 0.920000
v -1.651033 6.862035 0.920000
v -1.688211 6.243150 1.180000
v -1.268967 6.217965 1.180000
v -1.231789 6.836850 1.180000
v -1.651033 6.862035 1.180000
v -1.688211 6.243150 2.020000
v -1.268967 6.217965 2.020000
v -1.231789 6.836850 2.020000
v -1.651033 6.862035 2.020000
v -1.688211 6.243150 2.280000
v -1.268967 6.217965 2.280000
v -1.231789 6.836850 2.280000
v -1.651033 6.862035 2.280000
v -1.660000 3.400000 -2.915000
v -1.460000 3.400000 -2.915000
v -1.460000 5.700000 -2.915000
v -1.660000 5.700000 -2.915000
v -1.660000 3.400000 -2.585000
v -1.460000 3.400000 -2.585000
v -1.460000 5.700000 -2.585000
v -1.660000 5.700000 -2.585000
v -1.660000 3.400000 -2.015000
v -1.460000 3.400000 -2.015000
v -1.460000 5.700000 -2.015000
v -1.660000 5.700000 -2.015000
v -1.660000 3.400000 -1.685000
v -1.460000 3.400000 -1.685000
v -1.460000 5.700000 -1.685000
v -1.660000 5.700000 -1.685000
v -1.660000 3.400000 -1.085000
v -1.460000 3.400000 -1.085000
v -1.460000 5.700000 -1.085000
v -1.660000 5.700000 -1.085000
v -1.660000 3.400000 -0.755000
v -1.460000 3.400000 -0.755000
v -1.460000 5.700000 -0.755000
v -1.660000 5.700000 -0.755000
v -1.660000 3.400000 -0.165000
v -1.460000 3.400000 -0.165000
v -1.460000 5.700000 -0.165000
v -1.660000 5.700000 -0.165000
v -1.660000 3.400000 0.165000
v -1.460000 3.400000 0.165000
v -1.460000 5.700000 0.165000
v -1.660000 5.700000 0.165000
v -1.660000 3.400000 0.755000
v -1.460000 3.400000 0.755000
v -1.460000 5.700000 0.755000
v -1.660000 5.700000 0.755000
v -1.660000 3.400000 1.085000
v -1.460000 3.400000 1.085000
v -1.460000 5.700000 1.085000
v -1.660000 5.700000 1.085000
v -1.660000 3.400000 1.685000
v -1.460000 3.400000 1.685000
v -1.460000 5.700000 1.685000
v -1.660000 5.700000 1.685000
v -1.660000 3.400000 2.015000
v -1.460000 3.400000 2.015000
v -1.460000 5.700000 2.015000
v -1.660000 5.700000 2.015000
v -1.660000 3.400000 2.585000
v -1.460000 3.400000 2.585000
v -1.460000 5.700000 2.585000
v -1.660000 5.700000 2.585000
v -1.660000 3.400000 2.915000
v -1.460000 3.400000 2.915000
v -1.460000 5.700000 2.915000
v -1.660000 5.700000 2.915000
v -0.530345 6.375000 -3.658409
v -0.644472 8.325000 -3.695492
v -0.755573 6.375000 -3.348409
v -0.826107 8.325000 -3.445492
v -1.120000 6.375000 -3.230000
v -1.120000 8.325000 -3.350000
v -1.484427 6.375000 -3.348409
v -1.413893 8.325000 -3.445492
v -1.709655 6.375000 -3.658409
v -1.595528 8.325000 -3.695492
v -1.709655 6.375000 -4.041591
v -1.595528 8.325000 -4.004508
v -1.484427 6.375000 -4.351591
v -1.413893 8.325000 -4.254508
v -1.120000 6.375000 -4.470000
v -1.120000 8.325000 -4.350000
v -0.755573 6.375000 -4.351591
v -0.826107 8.325000 -4.254508
v -0.530345 6.375000 -4.041591
v -0.644472 8.325000 -4.004508
v -0.530345 6.375000 4.041591
v -0.644472 8.325000 4.004508
v -0.755573 6.375000 4.351591
v -0.826107 8.325000 4.254508
v -1.120000 6.375000 4.470000
v -1.120000 8.325000 4.350000
v -1.484427 6.375000 4.351591
v -1.413893 8.325000 4.254508
v -1.709655 6.375000 4.041591
v -1.595528 8.325000 4.004508
v -1.709655 6.375000 3.658409
v -1.595528 8.325000 3.695492
v -1.484427 6.375000 3.348409
v -1.413893 8.325000 3.445492
v -1.120000 6.375000 3.230000
v -1.120000 8.325000 3.350000
v -0.755573 6.375000 3.348409
v -0.826107 8.325000 3.445492
v -0.530345 6.375000 3.658409
v -0.644472 8.325000 3.695492
f 4 3 2 1
f 6 7 8 5
f 2 6 5 1
f 3 7 6 2
f 4 8 7 3
f 8 4 1 5
f 12 11 10 9
f 14 15 16 13
f 10 14 13 9
f 11 15 14 10
f 12 16 15 11
f 16 12 9 13
f 20 19 18 17
f 22 23 24 21
f 18 22 21 17
f 19 23 22 18
f 20 24 23 19
f 24 20 17 21
f 28 27 26 25
f 30 31 32 29
f 26 30 29 25
f 27 31 30 26
f 28 32 31 27
f 32 28 25 29
f 36 35 34 33
f 38 39 40 37
f 34 38 37 33
f 35 39 38 34
f 36 40 39 35
f 40 36 33 37
f 44 43 42 41
f 46 47 48 45
f 42 46 45 41
f 43 47 46 42
f 44 48 47 43
f 48 44 41 45
f 52 51 50 49
f 54 55 56 53
f 50 54 53 49
f 51 55 54 50
f 52 56 55 51
f 56 52 49 53
f 60 59 58 57
f 62 63 64 61
f 58 62 61 57
f 59 63 62 58
f 60 64 63 59
f 64 60 57 61
f 68 67 66 65
f 70 71 72 69
f 66 70 69 65
f 67 71 70 66
f 68 72 71 67
f 72 68 65 69
f 76 75 74 73
f 78 79 80 77
f 74 78 77 73
f 75 79 78 74
f 76 80 79 75
f 80 76 73 77
f 84 83 82 81
f 86 87 88 85
f 82 86 85 81
f 83 87 86 82
f 84 88 87 83
f 88 84 81 85
f 92 91 90 89
f 94 95 96 93
f 90 94 93 89
f 91 95 94 90
f 92 96 95 91
f 96 92 89 93
f 100 99 98 97
f 102 103 104 101
f 98 102 101 97
f 99 103 102 98
f 100 104 103 99
f 104 100 97 101
f 108 107 106 105
f 110 111 112 109
f 106 110 109 105
f 107 111 110 106
f 108 112 111 107
f 112 108 105 109
f 116 115 114 113
f 118 119 120 117
f 114 118 117 113
f 115 119 118 114
f 116 120 119 115
f 120 116 113 117
f 124 123 122 121
f 126 127 128 125
f 122 126 125 121
f 123 127 126 122
f 124 128 127 123
f 128 124 121 125
f 132 131 130 129
f 134 135 136 133
f 130 134 133 129
f 131 135 134 130
f 132 136 135 131
f 136 132 129 133
f 140 139 138 137
f 142 143 144 141
f 138 142 141 137
f 139 143 142 138
f 140 144 143 139
f 144 140 137 141
f 148 147 146 145
f 150 151 152 149
f 146 150 149 145
f 147 151 150 146
f 148 152 151 147
f 152 148 145 149
f 156 155 154 153
f 158 159 160 157
f 154 158 157 153
f 155 159 158 154
f 156 160 159 155
f 160 156 153 157
f 164 163 162 161
f 166 167 168 165
f 162 166 165 161
f 163 167 166 162
f 164 168 167 163
f 168 164 161 165
f 172 171 170 169
f 174 175 176 173
f 170 174 173 169
f 171 175 174 170
f 172 176 175 171
f 176 172 169 173
f 180 179 178 177
f 182 183 184 181
f 178 182 181 177
f 179 183 182 178
f 180 184 183 179
f 184 180 177 181
f 188 187 186 185
f 190 191 192 189
f 186 190 189 185
f 187 191 190 186
f 188 192 191 187
f 192 188 185 189
f 196 195 194 193
f 198 199 200 197
f 194 198 197 193
f 195 199 198 194
f 196 200 199 195
f 200 196 193 197
f 204 203 202 201
f 206 207 208 205
f 202 206 205 201
f 203 207 206 202
f 204 208 207 203
f 208 204 201 205
f 212 211 210 209
f 214 215 216 213
f 210 214 213 209
f 211 215 214 210
f 212 216 215 211
f 216 212 209 213
f 220 219 218 217
f 222 223 224 221
f 218 222 221 217
f 219 223 222 218
f 220 224 223 219
f 224 220 217 221
f 228 227 226 225
f 230 231 232 229
f 226 230 229 225
f 227 231 230 226
f 228 232 231 227
f 232 228 225 229
f 236 235 234 233
f 238 239 240 237
f 234 238 237 233
f 235 239 238 234
f 236 240 239 235
f 240 236 233 237
f 244 243 242 241
f 246 247 248 245
f 242 246 245 241
f 243 247 246 242
f 244 248 247 243
f 248 244 241 245
f 252 251 250 249
f 254 255 256 253
f 250 254 253 249
f 251 255 254 250
f 252 256 255 251
f 256 252 249 253
f 260 259 258 257
f 262 263 264 261
f 258 262 261 257
f 259 263 262 258
f 260 264 263 259
f 264 260 257 261
f 268 267 266 265
f 270 271 272 269
f 266 270 269 265
f 267 271 270 266
f 268 272 271 267
f 272 268 265 269
f 276 275 274 273
f 278 279 280 277
f 274 278 277 273
f 275 279 278 274
f 276 280 279 275
f 280 276 273 277
f 284 283 282 281
f 286 287 288 285
f 282 286 285 281
f 283 287 286 282
f 284 288 287 283
f 288 284 281 285
f 292 291 290 289
f 294 295 296 293
f 290 294 293 289
f 291 295 294 290
f 292 296 295 291
f 296 292 289 293
f 300 299 298 297
f 302 303 304 301
f 298 302 301 297
f 299 303 302 298
f 300 304 303 299
f 304 300 297 301
f 308 307 306 305
f 310 311 312 309
f 306 310 309 305
f 307 311 310 306
f 308 312 311 307
f 312 308 305 309
f 316 315 314 313
f 318 319 320 317
f 314 318 317 313
f 315 319 318 314
f 316 320 319 315
f 320 316 313 317
f 324 323 322 321
f 326 327 328 325
f 322 326 325 321
f 323 327 326 322
f 324 328 327 323
f 328 324 321 325
f 332 331 330 329
f 334 335 336 333
f 330 334 333 329
f 331 335 334 330
f 332 336 335 331
f 336 332 329 333
f 337 339 341 343 345 347 349 351 353 355
f 356 354 352 350 348 346 344 342 340 338
f 338 340 339 337
f 340 342 341 339
f 342 344 343 341
f 344 346 345 343
f 346 348 347 345
f 348 350 349 347
f 350 352 351 349
f 352 354 353 351
f 354 356 355 353
f 356 338 337 355
f 357 359 361 363 365 367 369 371 373 375
f 376 374 372 370 368 366 364 362 360 358
f 358 360 359 357
f 360 362 361 359
f 362 364 363 361
f 364 366 365 363
f 366 368 367 365
f 368 370 369 367
f 370 372 371 369
f 372 374 373 371
f 374 376 375 373
f 376 358 357 375
