o ogre_keep_hero_iron
s off
v -3.764719 0.320705 -4.579000
v -2.781881 0.469246 -4.579000
v -3.964630 7.311328 -4.484000
v -4.656770 7.206721 -4.484000
v -3.764719 0.320705 -3.629000
v -2.781881 0.469246 -3.629000
v -3.964630 7.311328 -3.724000
v -4.656770 7.206721 -3.724000
v -3.632000 7.298000 -4.104000
v -3.692242 7.298000 -3.978907
v -3.827603 7.298000 -3.948012
v -3.936155 7.298000 -4.034579
v -3.936155 7.298000 -4.173421
v -3.827603 7.298000 -4.259988
v -3.692242 7.298000 -4.229093
v -4.062981 8.405325 -4.104000
v -4.825037 0.431538 2.873000
v -3.837044 0.322419 2.873000
v -3.221075 7.238599 2.968000
v -3.916844 7.315444 2.968000
v -4.825037 0.431538 3.823000
v -3.837044 0.322419 3.823000
v -3.221075 7.238599 3.728000
v -3.916844 7.315444 3.728000
v -3.790000 7.298000 3.348000
v -3.850242 7.298000 3.473093
v -3.985603 7.298000 3.503988
v -4.094155 7.298000 3.417421
v -4.094155 7.298000 3.278579
v -3.985603 7.298000 3.192012
v -3.850242 7.298000 3.222907
v -4.220981 8.405325 3.348000
v 2.871961 0.422958 -3.715000
v 3.860995 0.323723 -3.715000
v 4.407773 7.245718 -3.620000
v 3.711270 7.315601 -3.620000
v 2.871961 0.422958 -2.765000
v 3.860995 0.323723 -2.765000
v 4.407773 7.245718 -2.860000
v 3.711270 7.315601 -2.860000
v 3.873000 7.298000 -3.240000
v 3.812758 7.298000 -3.114907
v 3.677397 7.298000 -3.084012
v 3.568845 7.298000 -3.170579
v 3.568845 7.298000 -3.309421
v 3.677397 7.298000 -3.395988
v 3.812758 7.298000 -3.365093
v 3.983981 8.405325 -3.240000
v 3.863217 0.320607 3.953000
v 4.847492 0.459313 3.953000
v 3.733221 7.312880 4.048000
v 3.040070 7.215200 4.048000
v 3.863217 0.320607 4.903000
v 4.847492 0.459313 4.903000
v 3.733221 7.312880 4.808000
v 3.040070 7.215200 4.808000
v 4.031000 7.298000 4.428000
v 3.970758 7.298000 4.553093
v 3.835397 7.298000 4.583988
v 3.726845 7.298000 4.497421
v 3.726845 7.298000 4.358579
v 3.835397 7.298000 4.272012
v 3.970758 7.298000 4.302907
v 4.141981 8.405325 4.428000
v -4.180965 9.243562 -4.728000
v 4.167365 9.076574 -4.728000
v 4.180965 9.756438 -4.728000
v -4.167365 9.923426 -4.728000
v -4.180965 9.243562 -4.128000
v 4.167365 9.076574 -4.128000
v 4.180965 9.756438 -4.128000
v -4.167365 9.923426 -4.128000
v -4.175000 9.340000 -2.892000
v 4.175000 9.340000 -2.892000
v 4.175000 10.020000 -2.892000
v -4.175000 10.020000 -2.892000
v -4.175000 9.340000 -2.292000
v 4.175000 9.340000 -2.292000
v 4.175000 10.020000 -2.292000
v -4.175000 10.020000 -2.292000
v -4.167365 9.076574 -1.164000
v 4.180965 9.243562 -1.164000
v 4.167365 9.923426 -1.164000
v -4.180965 9.756438 -1.164000
v -4.167365 9.076574 -0.564000
v 4.180965 9.243562 -0.564000
v 4.167365 9.923426 -0.564000
v -4.180965 9.756438 -0.564000
v -4.180965 9.423562 0.888000
v 4.167365 9.256574 0.888000
v 4.180965 9.936438 0.888000
v -4.167365 10.103426 0.888000
v -4.180965 9.423562 1.488000
v 4.167365 9.256574 1.488000
v 4.180965 9.936438 1.488000
v -4.167365 10.103426 1.488000
v -4.175000 9.160000 2.832000
v 4.175000 9.160000 2.832000
v 4.175000 9.840000 2.832000
v -4.175000 9.840000 2.832000
v -4.175000 9.160000 3.432000
v 4.175000 9.160000 3.432000
v 4.175000 9.840000 3.432000
v -4.175000 9.840000 3.432000
v -4.167365 9.256574 4.344000
v 4.180965 9.423562 4.344000
v 4.167365 10.103426 4.344000
v -4.180965 9.936438 4.344000
v -4.167365 9.256574 4.944000
v 4.180965 9.423562 4.944000
v 4.167365 10.103426 4.944000
v -4.180965 9.936438 4.944000
v -2.584000 9.870000 -4.320000
v -2.681893 9.870000 -4.116724
v -2.901855 9.870000 -4.066519
v -3.078252 9.870000 -4.207190
v -3.078252 9.870000 -4.432810
v -2.901855 9.870000 -4.573481
v -2.681893 9.870000 -4.523276
v -2.360378 11.551847 -4.320000
v -0.688000 9.870000 -4.320000
v -0.785893 9.870000 -4.116724
v -1.005855 9.870000 -4.066519
v -1.182252 9.870000 -4.207190
v -1.182252 9.870000 -4.432810
v -1.005855 9.870000 -4.573481
v -0.785893 9.870000 -4.523276
v -0.464378 11.551847 -4.320000
v 1.366000 9.870000 4.752000
v 1.268107 9.870000 4.955276
v 1.048145 9.870000 5.005481
v 0.871748 9.870000 4.864810
v 0.871748 9.870000 4.639190
v 1.048145 9.870000 4.498519
v 1.268107 9.870000 4.548724
v 0.622378 11.551847 4.752000
v 3.341000 9.870000 4.752000
v 3.243107 9.870000 4.955276
v 3.023145 9.870000 5.005481
v 2.846748 9.870000 4.864810
v 2.846748 9.870000 4.639190
v 3.023145 9.870000 4.498519
v 3.243107 9.870000 4.548724
v 2.597378 11.551847 4.752000
v -0.256771 9.263863 -3.780000
v 0.342749 9.287857 -3.780000
v 0.256771 11.436137 -3.780000
v -0.342749 11.412143 -3.780000
v -0.256771 9.263863 3.780000
v 0.342749 9.287857 3.780000
v 0.256771 11.436137 3.780000
v -0.342749 11.412143 3.780000
v 1.038210 10.050000 0.128666
v 0.711915 12.450000 0.088228
v 0.694455 10.050000 0.645790
v 0.476198 12.450000 0.442827
v 0.025757 10.050000 0.860741
v 0.017662 12.450000 0.590222
v -0.654993 10.050000 0.672942
v -0.449138 12.450000 0.461446
v -1.029264 10.050000 0.170266
v -0.705781 12.450000 0.116754
v -0.921932 10.050000 -0.412079
v -0.632182 12.450000 -0.282569
v -0.383217 10.050000 -0.801608
v -0.262777 12.450000 -0.549674
v 0.334809 10.050000 -0.816056
v 0.229584 12.450000 -0.559581
v 0.896175 10.050000 -0.448662
v 0.614520 12.450000 -0.307654
v 0.950000 12.350000 0.000000
v 0.885000 12.350000 0.112583
v 0.755000 12.350000 0.112583
v 0.690000 12.350000 0.000000
v 0.755000 12.350000 -0.112583
v 0.885000 12.350000 -0.112583
v 1.113588 13.007424 0.000000
v 0.709828 12.350000 0.579828
v 0.644828 12.350000 0.692411
v 0.514828 12.350000 0.692411
v 0.449828 12.350000 0.579828
v 0.514828 12.350000 0.467244
v 0.644828 12.350000 0.467244
v 0.787425 13.007424 0.787425
v 0.130000 12.350000 0.820000
v 0.065000 12.350000 0.932583
v -0.065000 12.350000 0.932583
v -0.130000 12.350000 0.820000
v -0.065000 12.350000 0.707417
v 0.065000 12.350000 0.707417
v 0.000000 13.007424 1.113588
v -0.449828 12.350000 0.579828
v -0.514828 12.350000 0.692411
v -0.644828 12.350000 0.692411
v -0.709828 12.350000 0.579828
v -0.644828 12.350000 0.467244
v -0.514828 12.350000 0.467244
v -0.787425 13.007424 0.787425
v -0.690000 12.350000 0.000000
v -0.755000 12.350000 0.112583
v -0.885000 12.350000 0.112583
v -0.950000 12.350000 0.000000
v -0.885000 12.350000 -0.112583
v -0.755000 12.350000 -0.112583
v -1.113588 13.007424 0.000000
v -0.449828 12.350000 -0.579828
v -0.514828 12.350000 -0.467244
v -0.644828 12.350000 -0.467244
v -0.709828 12.350000 -0.579828
v -0.644828 12.350000 -0.692411
v -0.514828 12.350000 -0.692411
v -0.787425 13.007424 -0.787425
v 0.130000 12.350000 -0.820000
v 0.065000 12.350000 -0.707417
v -0.065000 12.350000 -0.707417
v -0.130000 12.350000 -0.820000
v -0.065000 12.350000 -0.932583
v 0.065000 12.350000 -0.932583
v -0.000000 13.007424 -1.113588
v 0.709828 12.350000 -0.579828
v 0.644828 12.350000 -0.467244
v 0.514828 12.350000 -0.467244
v 0.449828 12.350000 -0.579828
v 0.514828 12.350000 -0.692411
v 0.644828 12.350000 -0.692411
v 0.787425 13.007424 -0.787425
f 4 3 2 1
f 6 7 8 5
f 2 6 5 1
f 3 7 6 2
f 4 8 7 3
f 8 4 1 5
f 16 10 9
f 16 11 10
f 16 12 11
f 16 13 12
f 16 14 13
f 16 15 14
f 16 9 15
f 9 10 11 12 13 14 15
f 20 19 18 17
f 22 23 24 21
f 18 22 21 17
f 19 23 22 18
f 20 24 23 19
f 24 20 17 21
f 32 26 25
f 32 27 26
f 32 28 27
f 32 29 28
f 32 30 29
f 32 31 30
f 32 25 31
f 25 26 27 28 29 30 31
f 36 35 34 33
f 38 39 40 37
f 34 38 37 33
f 35 39 38 34
f 36 40 39 35
f 40 36 33 37
f 48 42 41
f 48 43 42
f 48 44 43
f 48 45 44
f 48 46 45
f 48 47 46
f 48 41 47
f 41 42 43 44 45 46 47
f 52 51 50 49
f 54 55 56 53
f 50 54 53 49
f 51 55 54 50
f 52 56 55 51
f 56 52 49 53
f 64 58 57
f 64 59 58
f 64 60 59
f 64 61 60
f 64 62 61
f 64 63 62
f 64 57 63
f 57 58 59 60 61 62 63
f 68 67 66 65
f 70 71 72 69
f 66 70 69 65
f 67 71 70 66
f 68 72 71 67
f 72 68 65 69
f 76 75 74 73
f 78 79 80 77
f 74 78 77 73
f 75 79 78 74
f 76 80 79 75
f 80 76 73 77
f 84 83 82 81
f 86 87 88 85
f 82 86 85 81
f 83 87 86 82
f 84 88 87 83
f 88 84 81 85
f 92 91 90 89
f 94 95 96 93
f 90 94 93 89
f 91 95 94 90
f 92 96 95 91
f 96 92 89 93
f 100 99 98 97
f 102 103 104 101
f 98 102 101 97
f 99 103 102 98
f 100 104 103 99
f 104 100 97 101
f 108 107 106 105
f 110 111 112 109
f 106 110 109 105
f 107 111 110 106
f 108 112 111 107
f 112 108 105 109
f 120 114 113
f 120 115 114
f 120 116 115
f 120 117 116
f 120 118 117
f 120 119 118
f 120 113 119
f 113 114 115 116 117 118 119
f 128 122 121
f 128 123 122
f 128 124 123
f 128 125 124
f 128 126 125
f 128 127 126
f 128 121 127
f 121 122 123 124 125 126 127
f 136 130 129
f 136 131 130
f 136 132 131
f 136 133 132
f 136 134 133
f 136 135 134
f 136 129 135
f 129 130 131 132 133 134 135
f 144 138 137
f 144 139 138
f 144 140 139
f 144 141 140
f 144 142 141
f 144 143 142
f 144 137 143
f 137 138 139 140 141 142 143
f 148 147 146 145
f 150 151 152 149
f 146 150 149 145
f 147 151 150 146
f 148 152 151 147
f 152 148 145 149
f 153 155 157 159 161 163 165 167 169
f 170 168 166 164 162 160 158 156 154
f 154 156 155 153
f 156 158 157 155
f 158 160 159 157
f 160 162 161 159
f 162 164 163 161
f 164 166 165 163
f 166 168 167 165
f 168 170 169 167
f 170 154 153 169
f 177 172 171
f 177 173 172
f 177 174 173
f 177 175 174
f 177 176 175
f 177 171 176
f 171 172 173 174 175 176
f 184 179 178
f 184 180 179
f 184 181 180
f 184 182 181
f 184 183 182
f 184 178 183
f 178 179 180 181 182 183
f 191 186 185
f 191 187 186
f 191 188 187
f 191 189 188
f 191 190 189
f 191 185 190
f 185 186 187 188 189 190
f 198 193 192
f 198 194 193
f 198 195 194
f 198 196 195
f 198 197 196
f 198 192 197
f 192 193 194 195 196 197
f 205 200 199
f 205 201 200
f 205 202 201
f 205 203 202
f 205 204 203
f 205 199 204
f 199 200 201 202 203 204
f 212 207 206
f 212 208 207
f 212 209 208
f 212 210 209
f 212 211 210
f 212 206 211
f 206 207 208 209 210 211
f 219 214 213
f 219 215 214
f 219 216 215
f 219 217 216
f 219 218 217
f 219 213 218
f 213 214 215 216 217 218
f 226 221 220
f 226 222 221
f 226 223 222
f 226 224 223
f 226 225 224
f 226 220 225
f 220 221 222 223 224 225
