o ogre_gate_hero_stone
s off
v 1.063539 -0.025995 -4.232000
v 1.865512 0.054471 -4.232000
v 1.203926 5.716710 -4.160000
v 0.587023 5.654814 -4.160000
v 1.063539 -0.025995 -3.368000
v 1.865512 0.054471 -3.368000
v 1.203926 5.716710 -3.440000
v 0.587023 5.654814 -3.440000
v 1.360000 5.650000 -3.800000
v 1.292228 5.650000 -3.659270
v 1.139946 5.650000 -3.624513
v 1.017826 5.650000 -3.721901
v 1.017826 5.650000 -3.878099
v 1.139946 5.650000 -3.975487
v 1.292228 5.650000 -3.940730
v 1.350078 6.584652 -3.800000
v 0.396722 0.089138 3.018000
v 1.193672 -0.031309 3.018000
v 1.871322 5.074760 3.090000
v 1.258284 5.167411 3.090000
v 0.396722 0.089138 3.882000
v 1.193672 -0.031309 3.882000
v 1.871322 5.074760 3.810000
v 1.258284 5.167411 3.810000
v 1.360000 5.100000 3.450000
v 1.292228 5.100000 3.590730
v 1.139946 5.100000 3.625487
v 1.017826 5.100000 3.528099
v 1.017826 5.100000 3.371901
v 1.139946 5.100000 3.274513
v 1.292228 5.100000 3.309270
v 1.009922 6.034652 3.450000
v 0.971593 4.762602 -3.875000
v 1.691152 4.787796 -3.875000
v 1.668407 5.437398 -3.875000
v 0.948848 5.412204 -3.875000
v 0.971593 4.762602 3.375000
v 1.691152 4.787796 3.375000
v 1.668407 5.437398 3.375000
v 0.948848 5.412204 3.375000
v 1.503195 3.262649 -2.960000
v 1.841497 3.296593 -2.960000
v 1.656805 5.137351 -2.960000
v 1.318503 5.103407 -2.960000
v 1.503195 3.262649 -2.640000
v 1.841497 3.296593 -2.640000
v 1.656805 5.137351 -2.640000
v 1.318503 5.103407 -2.640000
v 1.503195 3.262649 -1.560000
v 1.841497 3.296593 -1.560000
v 1.656805 5.137351 -1.560000
v 1.318503 5.103407 -1.560000
v 1.503195 3.262649 -1.240000
v 1.841497 3.296593 -1.240000
v 1.656805 5.137351 -1.240000
v 1.318503 5.103407 -1.240000
v 1.318503 3.296593 -0.160000
v 1.656805 3.262649 -0.160000
v 1.841497 5.103407 -0.160000
v 1.503195 5.137351 -0.160000
v 1.318503 3.296593 0.160000
v 1.656805 3.262649 0.160000
v 1.841497 5.103407 0.160000
v 1.503195 5.137351 0.160000
v 1.318503 3.296593 1.390000
v 1.656805 3.262649 1.390000
v 1.841497 5.103407 1.390000
v 1.503195 5.137351 1.390000
v 1.318503 3.296593 1.710000
v 1.656805 3.262649 1.710000
v 1.841497 5.103407 1.710000
v 1.503195 5.137351 1.710000
v 1.318503 3.296593 2.690000
v 1.656805 3.262649 2.690000
v 1.841497 5.103407 2.690000
v 1.503195 5.137351 2.690000
v 1.318503 3.296593 3.010000
v 1.656805 3.262649 3.010000
v 1.841497 5.103407 3.010000
v 1.503195 5.137351 3.010000
f 4 3 2 1
f 6 7 8 5
f 2 6 5 1
f 3 7 6 2
f 4 8 7 3
f 8 4 1 5
f 16 10 9
f 16 11 10
f 16 12 11
f 16 13 12
f 16 14 13
f 16 15 14
f 16 9 15
f 9 10 11 12 13 14 15
f 20 19 18 17
f 22 23 24 21
f 18 22 21 17
f 19 23 22 18
f 20 24 23 19
f 24 20 17 21
f 32 26 25
f 32 27 26
f 32 28 27
f 32 29 28
f 32 30 29
f 32 31 30
f 32 25 31
f 25 26 27 28 29 30 31
f 36 35 34 33
f 38 39 40 37
f 34 38 37 33
f 35 39 38 34
f 36 40 39 35
f 40 36 33 37
f 44 43 42 41
f 46 47 48 45
f 42 46 45 41
f 43 47 46 42
f 44 48 47 43
f 48 44 41 45
f 52 51 50 49
f 54 55 56 53
f 50 54 53 49
f 51 55 54 50
f 52 56 55 51
f 56 52 49 53
f 60 59 58 57
f 62 63 64 61
f 58 62 61 57
f 59 63 62 58
f 60 64 63 59
f 64 60 57 61
f 68 67 66 65
f 70 71 72 69
f 66 70 69 65
f 67 71 70 66
f 68 72 71 67
f 72 68 65 69
f 76 75 74 73
f 78 79 80 77
f 74 78 77 73
f 75 79 78 74
f 76 80 79 75
f 80 76 73 77
