o ogre_gate_hero_iron
s off
v 1.133422 -0.022498 -4.232000
v 1.935395 0.057968 -4.232000
v 1.134043 7.113213 -4.160000
v 0.517140 7.051316 -4.160000
v 1.133422 -0.022498 -3.368000
v 1.935395 0.057968 -3.368000
v 1.134043 7.113213 -3.440000
v 0.517140 7.051316 -3.440000
v 1.360000 7.050000 -3.800000
v 1.292228 7.050000 -3.659270
v 1.139946 7.050000 -3.624513
v 1.017826 7.050000 -3.721901
v 1.017826 7.050000 -3.878099
v 1.139946 7.050000 -3.975487
v 1.292228 7.050000 -3.940730
v 1.403787 8.279805 -3.800000
v 0.262228 0.099244 3.018000
v 1.059177 -0.021203 3.018000
v 2.005817 6.864654 3.090000
v 1.392778 6.957305 3.090000
v 0.262228 0.099244 3.882000
v 1.059177 -0.021203 3.882000
v 2.005817 6.864654 3.810000
v 1.392778 6.957305 3.810000
v 1.360000 6.900000 3.450000
v 1.292228 6.900000 3.590730
v 1.139946 6.900000 3.625487
v 1.017826 6.900000 3.528099
v 1.017826 6.900000 3.371901
v 1.139946 6.900000 3.274513
v 1.292228 6.900000 3.309270
v 0.956213 8.129805 3.450000
v 0.971593 6.262602 -3.875000
v 1.691152 6.287796 -3.875000
v 1.668407 6.937398 -3.875000
v 0.948848 6.912204 -3.875000
v 0.971593 6.262602 3.375000
v 1.691152 6.287796 3.375000
v 1.668407 6.937398 3.375000
v 0.948848 6.912204 3.375000
v 1.521165 4.323549 -2.960000
v 1.859467 4.357492 -2.960000
v 1.638835 6.556451 -2.960000
v 1.300533 6.522508 -2.960000
v 1.521165 4.323549 -2.640000
v 1.859467 4.357492 -2.640000
v 1.638835 6.556451 -2.640000
v 1.300533 6.522508 -2.640000
v 1.680000 6.290000 -2.800000
v 1.630000 6.290000 -2.713397
v 1.530000 6.290000 -2.713397
v 1.480000 6.290000 -2.800000
v 1.530000 6.290000 -2.886603
v 1.630000 6.290000 -2.886603
v 1.847460 7.022711 -2.800000
v 1.521165 4.323549 -1.560000
v 1.859467 4.357492 -1.560000
v 1.638835 6.556451 -1.560000
v 1.300533 6.522508 -1.560000
v 1.521165 4.323549 -1.240000
v 1.859467 4.357492 -1.240000
v 1.638835 6.556451 -1.240000
v 1.300533 6.522508 -1.240000
v 1.680000 6.290000 -1.400000
v 1.630000 6.290000 -1.313397
v 1.530000 6.290000 -1.313397
v 1.480000 6.290000 -1.400000
v 1.530000 6.290000 -1.486603
v 1.630000 6.290000 -1.486603
v 1.847460 7.022711 -1.400000
v 1.300533 4.357492 -0.160000
v 1.638835 4.323549 -0.160000
v 1.859467 6.522508 -0.160000
v 1.521165 6.556451 -0.160000
v 1.300533 4.357492 0.160000
v 1.638835 4.323549 0.160000
v 1.859467 6.522508 0.160000
v 1.521165 6.556451 0.160000
v 1.680000 6.290000 0.000000
v 1.630000 6.290000 0.086603
v 1.530000 6.290000 0.086603
v 1.480000 6.290000 0.000000
v 1.530000 6.290000 -0.086603
v 1.630000 6.290000 -0.086603
v 1.312540 7.022711 0.000000
v 1.300533 4.357492 1.390000
v 1.638835 4.323549 1.390000
v 1.859467 6.522508 1.390000
v 1.521165 6.556451 1.390000
v 1.300533 4.357492 1.710000
v 1.638835 4.323549 1.710000
v 1.859467 6.522508 1.710000
v 1.521165 6.556451 1.710000
v 1.680000 6.290000 1.550000
v 1.630000 6.290000 1.636603
v 1.530000 6.290000 1.636603
v 1.480000 6.290000 1.550000
v 1.530000 6.290000 1.463397
v 1.630000 6.290000 1.463397
v 1.312540 7.022711 1.550000
v 1.300533 4.357492 2.690000
v 1.638835 4.323549 2.690000
v 1.859467 6.522508 2.690000
v 1.521165 6.556451 2.690000
v 1.300533 4.357492 3.010000
v 1.638835 4.323549 3.010000
v 1.859467 6.522508 3.010000
v 1.521165 6.556451 3.010000
v 1.680000 6.290000 2.850000
v 1.630000 6.290000 2.936603
v 1.530000 6.290000 2.936603
v 1.480000 6.290000 2.850000
v 1.530000 6.290000 2.763397
v 1.630000 6.290000 2.763397
v 1.312540 7.022711 2.850000
v 1.828756 6.025000 -3.168038
v 1.671063 8.275000 -3.195107
v 1.564078 6.025000 -2.704764
v 1.460677 8.275000 -2.826864
v 1.063536 6.025000 -2.520008
v 1.062810 8.275000 -2.680006
v 0.561339 6.025000 -2.700219
v 0.663629 8.275000 -2.823251
v 0.292472 6.025000 -3.161074
v 0.449913 8.275000 -3.189572
v 0.382739 6.025000 -3.686934
v 0.521665 8.275000 -3.607563
v 0.789905 6.025000 -4.031743
v 0.845309 8.275000 -3.881642
v 1.323451 6.025000 -4.034162
v 1.269409 8.275000 -3.883565
v 1.733725 6.025000 -3.693058
v 1.595525 8.275000 -3.612431
v 1.210000 8.280000 -3.300000
v 1.153523 8.280000 -3.182725
v 1.026622 8.280000 -3.153761
v 0.924855 8.280000 -3.234917
v 0.924855 8.280000 -3.365083
v 1.026622 8.280000 -3.446239
v 1.153523 8.280000 -3.417275
v 1.144858 9.125754 -3.300000
v 1.828756 6.025000 3.281962
v 1.671063 8.275000 3.254893
v 1.564078 6.025000 3.745236
v 1.460677 8.275000 3.623136
v 1.063536 6.025000 3.929992
v 1.062810 8.275000 3.769994
v 0.561339 6.025000 3.749781
v 0.663629 8.275000 3.626749
v 0.292472 6.025000 3.288926
v 0.449913 8.275000 3.260428
v 0.382739 6.025000 2.763066
v 0.521665 8.275000 2.842437
v 0.789905 6.025000 2.418257
v 0.845309 8.275000 2.568358
v 1.323451 6.025000 2.415838
v 1.269409 8.275000 2.566435
v 1.733725 6.025000 2.756942
v 1.595525 8.275000 2.837569
v 1.210000 8.280000 3.150000
v 1.153523 8.280000 3.267275
v 1.026622 8.280000 3.296239
v 0.924855 8.280000 3.215083
v 0.924855 8.280000 3.084917
v 1.026622 8.280000 3.003761
v 1.153523 8.280000 3.032725
v 1.144858 9.125754 3.150000
f 4 3 2 1
f 6 7 8 5
f 2 6 5 1
f 3 7 6 2
f 4 8 7 3
f 8 4 1 5
f 16 10 9
f 16 11 10
f 16 12 11
f 16 13 12
f 16 14 13
f 16 15 14
f 16 9 15
f 9 10 11 12 13 14 15
f 20 19 18 17
f 22 23 24 21
f 18 22 21 17
f 19 23 22 18
f 20 24 23 19
f 24 20 17 21
f 32 26 25
f 32 27 26
f 32 28 27
f 32 29 28
f 32 30 29
f 32 31 30
f 32 25 31
f 25 26 27 28 29 30 31
f 36 35 34 33
f 38 39 40 37
f 34 38 37 33
f 35 39 38 34
f 36 40 39 35
f 40 36 33 37
f 44 43 42 41
f 46 47 48 45
f 42 46 45 41
f 43 47 46 42
f 44 48 47 43
f 48 44 41 45
f 55 50 49
f 55 51 50
f 55 52 51
f 55 53 52
f 55 54 53
f 55 49 54
f 49 50 51 52 53 54
f 59 58 57 56
f 61 62 63 60
f 57 61 60 56
f 58 62 61 57
f 59 63 62 58
f 63 59 56 60
f 70 65 64
f 70 66 65
f 70 67 66
f 70 68 67
f 70 69 68
f 70 64 69
f 64 65 66 67 68 69
f 74 73 72 71
f 76 77 78 75
f 72 76 75 71
f 73 77 76 72
f 74 78 77 73
f 78 74 71 75
f 85 80 79
f 85 81 80
f 85 82 81
f 85 83 82
f 85 84 83
f 85 79 84
f 79 80 81 82 83 84
f 89 88 87 86
f 91 92 93 90
f 87 91 90 86
f 88 92 91 87
f 89 93 92 88
f 93 89 86 90
f 100 95 94
f 100 96 95
f 100 97 96
f 100 98 97
f 100 99 98
f 100 94 99
f 94 95 96 97 98 99
f 104 103 102 101
f 106 107 108 105
f 102 106 105 101
f 103 107 106 102
f 104 108 107 103
f 108 104 101 105
f 115 110 109
f 115 111 110
f 115 112 111
f 115 113 112
f 115 114 113
f 115 109 114
f 109 110 111 112 113 114
f 116 118 120 122 124 126 128 130 132
f 133 131 129 127 125 123 121 119 117
f 117 119 118 116
f 119 121 120 118
f 121 123 122 120
f 123 125 124 122
f 125 127 126 124
f 127 129 128 126
f 129 131 130 128
f 131 133 132 130
f 133 117 116 132
f 141 135 134
f 141 136 135
f 141 137 136
f 141 138 137
f 141 139 138
f 141 140 139
f 141 134 140
f 134 135 136 137 138 139 140
f 142 144 146 148 150 152 154 156 158
f 159 157 155 153 151 149 147 145 143
f 143 145 144 142
f 145 147 146 144
f 147 149 148 146
f 149 151 150 148
f 151 153 152 150
f 153 155 154 152
f 155 157 156 154
f 157 159 158 156
f 159 143 142 158
f 167 161 160
f 167 162 161
f 167 163 162
f 167 164 163
f 167 165 164
f 167 166 165
f 167 160 166
f 160 161 162 163 164 165 166
