o ogre_keep_hero_stone
s off
v -3.382422 0.209757 -4.123000
v -2.399583 0.358298 -4.123000
v -3.290928 5.272276 -4.028000
v -3.983067 5.167669 -4.028000
v -3.382422 0.209757 -3.173000
v -2.399583 0.358298 -3.173000
v -3.290928 5.272276 -3.268000
v -3.983067 5.167669 -3.268000
v -3.104000 5.248000 -3.648000
v -3.164242 5.248000 -3.522907
v -3.299603 5.248000 -3.492012
v -3.408155 5.248000 -3.578579
v -3.408155 5.248000 -3.717421
v -3.299603 5.248000 -3.803988
v -3.164242 5.248000 -3.773093
v -3.458916 6.044497 -3.648000
v -4.168003 0.325645 2.501000
v -3.180010 0.216526 2.501000
v -2.778109 5.194492 2.596000
v -3.473878 5.271337 2.596000
v -4.168003 0.325645 3.451000
v -3.180010 0.216526 3.451000
v -2.778109 5.194492 3.356000
v -3.473878 5.271337 3.356000
v -3.240000 5.248000 2.976000
v -3.300242 5.248000 3.101093
v -3.435603 5.248000 3.131988
v -3.544155 5.248000 3.045421
v -3.544155 5.248000 2.906579
v -3.435603 5.248000 2.820012
v -3.300242 5.248000 2.850907
v -3.594916 6.044497 2.976000
v 2.452299 0.318087 -3.355000
v 3.441333 0.218852 -3.355000
v 3.793436 5.200589 -3.260000
v 3.096933 5.270472 -3.260000
v 2.452299 0.318087 -2.405000
v 3.441333 0.218852 -2.405000
v 3.793436 5.200589 -2.500000
v 3.096933 5.270472 -2.500000
v 3.356000 5.248000 -2.880000
v 3.295758 5.248000 -2.754907
v 3.160397 5.248000 -2.724012
v 3.051845 5.248000 -2.810579
v 3.051845 5.248000 -2.949421
v 3.160397 5.248000 -3.035988
v 3.295758 5.248000 -3.005093
v 3.390916 6.044497 -2.880000
v 3.188162 0.211068 3.461000
v 4.172437 0.349774 3.461000
v 3.330276 5.272419 3.556000
v 2.637125 5.174739 3.556000
v 3.188162 0.211068 4.411000
v 4.172437 0.349774 4.411000
v 3.330276 5.272419 4.316000
v 2.637125 5.174739 4.316000
v 3.492000 5.248000 3.936000
v 3.431758 5.248000 4.061093
v 3.296397 5.248000 4.091988
v 3.187845 5.248000 4.005421
v 3.187845 5.248000 3.866579
v 3.296397 5.248000 3.780012
v 3.431758 5.248000 3.810907
v 3.526916 6.044497 3.936000
v -3.631075 6.732563 -4.236000
v 3.617475 6.587573 -4.236000
v 3.631075 7.267437 -4.236000
v -3.617475 7.412427 -4.236000
v -3.631075 6.732563 -3.636000
v 3.617475 6.587573 -3.636000
v 3.631075 7.267437 -3.636000
v -3.617475 7.412427 -3.636000
v -3.625000 6.840000 -2.604000
v 3.625000 6.840000 -2.604000
v 3.625000 7.520000 -2.604000
v -3.625000 7.520000 -2.604000
v -3.625000 6.840000 -2.004000
v 3.625000 6.840000 -2.004000
v 3.625000 7.520000 -2.004000
v -3.625000 7.520000 -2.004000
v -3.617475 6.587573 -1.068000
v 3.631075 6.732563 -1.068000
v 3.617475 7.412427 -1.068000
v -3.631075 7.267437 -1.068000
v -3.617475 6.587573 -0.468000
v 3.631075 6.732563 -0.468000
v 3.617475 7.412427 -0.468000
v -3.631075 7.267437 -0.468000
v -3.631075 6.912563 0.756000
v 3.617475 6.767573 0.756000
v 3.631075 7.447437 0.756000
v -3.617475 7.592427 0.756000
v -3.631075 6.912563 1.356000
v 3.617475 6.767573 1.356000
v 3.631075 7.447437 1.356000
v -3.617475 7.592427 1.356000
v -3.625000 6.660000 2.484000
v 3.625000 6.660000 2.484000
v 3.625000 7.340000 2.484000
v -3.625000 7.340000 2.484000
v -3.625000 6.660000 3.084000
v 3.625000 6.660000 3.084000
v 3.625000 7.340000 3.084000
v -3.625000 7.340000 3.084000
v -3.617475 6.767573 3.828000
v 3.631075 6.912563 3.828000
v 3.617475 7.592427 3.828000
v -3.631075 7.447437 3.828000
v -3.617475 6.767573 4.428000
v 3.631075 6.912563 4.428000
v 3.617475 7.592427 4.428000
v -3.631075 7.447437 4.428000
v -2.248000 7.370000 -3.840000
v -2.323302 7.370000 -3.683634
v -2.492504 7.370000 -3.645014
v -2.628194 7.370000 -3.753223
v -2.628194 7.370000 -3.926777
v -2.492504 7.370000 -4.034986
v -2.323302 7.370000 -3.996366
v -2.157827 8.379108 -3.840000
v -0.616000 7.370000 -3.840000
v -0.691302 7.370000 -3.683634
v -0.860504 7.370000 -3.645014
v -0.996194 7.370000 -3.753223
v -0.996194 7.370000 -3.926777
v -0.860504 7.370000 -4.034986
v -0.691302 7.370000 -3.996366
v -0.525827 8.379108 -3.840000
v 1.152000 7.370000 4.224000
v 1.076698 7.370000 4.380366
v 0.907496 7.370000 4.418986
v 0.771806 7.370000 4.310777
v 0.771806 7.370000 4.137223
v 0.907496 7.370000 4.029014
v 1.076698 7.370000 4.067634
v 0.661827 8.379108 4.224000
v 2.852000 7.370000 4.224000
v 2.776698 7.370000 4.380366
v 2.607496 7.370000 4.418986
v 2.471806 7.370000 4.310777
v 2.471806 7.370000 4.137223
v 2.607496 7.370000 4.029014
v 2.776698 7.370000 4.067634
v 2.361827 8.379108 4.224000
f 4 3 2 1
f 6 7 8 5
f 2 6 5 1
f 3 7 6 2
f 4 8 7 3
f 8 4 1 5
f 16 10 9
f 16 11 10
f 16 12 11
f 16 13 12
f 16 14 13
f 16 15 14
f 16 9 15
f 9 10 11 12 13 14 15
f 20 19 18 17
f 22 23 24 21
f 18 22 21 17
f 19 23 22 18
f 20 24 23 19
f 24 20 17 21
f 32 26 25
f 32 27 26
f 32 28 27
f 32 29 28
f 32 30 29
f 32 31 30
f 32 25 31
f 25 26 27 28 29 30 31
f 36 35 34 33
f 38 39 40 37
f 34 38 37 33
f 35 39 38 34
f 36 40 39 35
f 40 36 33 37
f 48 42 41
f 48 43 42
f 48 44 43
f 48 45 44
f 48 46 45
f 48 47 46
f 48 41 47
f 41 42 43 44 45 46 47
f 52 51 50 49
f 54 55 56 53
f 50 54 53 49
f 51 55 54 50
f 52 56 55 51
f 56 52 49 53
f 64 58 57
f 64 59 58
f 64 60 59
f 64 61 60
f 64 62 61
f 64 63 62
f 64 57 63
f 57 58 59 60 61 62 63
f 68 67 66 65
f 70 71 72 69
f 66 70 69 65
f 67 71 70 66
f 68 72 71 67
f 72 68 65 69
f 76 75 74 73
f 78 79 80 77
f 74 78 77 73
f 75 79 78 74
f 76 80 79 75
f 80 76 73 77
f 84 83 82 81
f 86 87 88 85
f 82 86 85 81
f 83 87 86 82
f 84 88 87 83
f 88 84 81 85
f 92 91 90 89
f 94 95 96 93
f 90 94 93 89
f 91 95 94 90
f 92 96 95 91
f 96 92 89 93
f 100 99 98 97
f 102 103 104 101
f 98 102 101 97
f 99 103 102 98
f 100 104 103 99
f 104 100 97 101
f 108 107 106 105
f 110 111 112 109
f 106 110 109 105
f 107 111 110 106
f 108 112 111 107
f 112 108 105 109
f 120 114 113
f 120 115 114
f 120 116 115
f 120 117 116
f 120 118 117
f 120 119 118
f 120 113 119
f 113 114 115 116 117 118 119
f 128 122 121
f 128 123 122
f 128 124 123
f 128 125 124
f 128 126 125
f 128 127 126
f 128 121 127
f 121 122 123 124 125 126 127
f 136 130 129
f 136 131 130
f 136 132 131
f 136 133 132
f 136 134 133
f 136 135 134
f 136 129 135
f 129 130 131 132 133 134 135
f 144 138 137
f 144 139 138
f 144 140 139
f 144 141 140
f 144 142 141
f 144 143 142
f 144 137 143
f 137 138 139 140 141 142 143
