o ogre_gate_hero_bronze
s off
v 1.098480 -0.024246 -4.232000
v 1.900454 0.056220 -4.232000
v 1.168984 6.414962 -4.160000
v 0.552082 6.353065 -4.160000
v 1.098480 -0.024246 -3.368000
v 1.900454 0.056220 -3.368000
v 1.168984 6.414962 -3.440000
v 0.552082 6.353065 -3.440000
v 1.360000 6.350000 -3.800000
v 1.292228 6.350000 -3.659270
v 1.139946 6.350000 -3.624513
v 1.017826 6.350000 -3.721901
v 1.017826 6.350000 -3.878099
v 1.139946 6.350000 -3.975487
v 1.292228 6.350000 -3.940730
v 1.376933 7.432228 -3.800000
v 0.329475 0.094191 3.018000
v 1.126424 -0.026256 3.018000
v 1.938569 5.969707 3.090000
v 1.325531 6.062358 3.090000
v 0.329475 0.094191 3.882000
v 1.126424 -0.026256 3.882000
v 1.938569 5.969707 3.810000
v 1.325531 6.062358 3.810000
v 1.360000 6.000000 3.450000
v 1.292228 6.000000 3.590730
v 1.139946 6.000000 3.625487
v 1.017826 6.000000 3.528099
v 1.017826 6.000000 3.371901
v 1.139946 6.000000 3.274513
v 1.292228 6.000000 3.309270
v 0.983067 7.082228 3.450000
v 0.971593 5.512602 -3.875000
v 1.691152 5.537796 -3.875000
v 1.668407 6.187398 -3.875000
v 0.948848 6.162204 -3.875000
v 0.971593 5.512602 3.375000
v 1.691152 5.537796 3.375000
v 1.668407 6.187398 3.375000
v 0.948848 6.162204 3.375000
v 1.512180 3.793099 -2.960000
v 1.850482 3.827042 -2.960000
v 1.647820 5.846901 -2.960000
v 1.309518 5.812958 -2.960000
v 1.512180 3.793099 -2.640000
v 1.850482 3.827042 -2.640000
v 1.647820 5.846901 -2.640000
v 1.309518 5.812958 -2.640000
v 1.680000 5.670000 -2.800000
v 1.630000 5.670000 -2.713397
v 1.530000 5.670000 -2.713397
v 1.480000 5.670000 -2.800000
v 1.530000 5.670000 -2.886603
v 1.630000 5.670000 -2.886603
v 1.796026 6.261805 -2.800000
v 1.512180 3.793099 -1.560000
v 1.850482 3.827042 -1.560000
v 1.647820 5.846901 -1.560000
v 1.309518 5.812958 -1.560000
v 1.512180 3.793099 -1.240000
v 1.850482 3.827042 -1.240000
v 1.647820 5.846901 -1.240000
v 1.309518 5.812958 -1.240000
v 1.680000 5.670000 -1.400000
v 1.630000 5.670000 -1.313397
v 1.530000 5.670000 -1.313397
v 1.480000 5.670000 -1.400000
v 1.530000 5.670000 -1.486603
v 1.630000 5.670000 -1.486603
v 1.796026 6.261805 -1.400000
v 1.309518 3.827042 -0.160000
v 1.647820 3.793099 -0.160000
v 1.850482 5.812958 -0.160000
v 1.512180 5.846901 -0.160000
v 1.309518 3.827042 0.160000
v 1.647820 3.793099 0.160000
v 1.850482 5.812958 0.160000
v 1.512180 5.846901 0.160000
v 1.680000 5.670000 0.000000
v 1.630000 5.670000 0.086603
v 1.530000 5.670000 0.086603
v 1.480000 5.670000 0.000000
v 1.530000 5.670000 -0.086603
v 1.630000 5.670000 -0.086603
v 1.363974 6.261805 0.000000
v 1.309518 3.827042 1.390000
v 1.647820 3.793099 1.390000
v 1.850482 5.812958 1.390000
v 1.512180 5.846901 1.390000
v 1.309518 3.827042 1.710000
v 1.647820 3.793099 1.710000
v 1.850482 5.812958 1.710000
v 1.512180 5.846901 1.710000
v 1.680000 5.670000 1.550000
v 1.630000 5.670000 1.636603
v 1.530000 5.670000 1.636603
v 1.480000 5.670000 1.550000
v 1.530000 5.670000 1.463397
v 1.630000 5.670000 1.463397
v 1.363974 6.261805 1.550000
v 1.309518 3.827042 2.690000
v 1.647820 3.793099 2.690000
v 1.850482 5.812958 2.690000
v 1.512180 5.846901 2.690000
v 1.309518 3.827042 3.010000
v 1.647820 3.793099 3.010000
v 1.850482 5.812958 3.010000
v 1.512180 5.846901 3.010000
v 1.680000 5.670000 2.850000
v 1.630000 5.670000 2.936603
v 1.530000 5.670000 2.936603
v 1.480000 5.670000 2.850000
v 1.530000 5.670000 2.763397
v 1.630000 5.670000 2.763397
v 1.363974 6.261805 2.850000
f 4 3 2 1
f 6 7 8 5
f 2 6 5 1
f 3 7 6 2
f 4 8 7 3
f 8 4 1 5
f 16 10 9
f 16 11 10
f 16 12 11
f 16 13 12
f 16 14 13
f 16 15 14
f 16 9 15
f 9 10 11 12 13 14 15
f 20 19 18 17
f 22 23 24 21
f 18 22 21 17
f 19 23 22 18
f 20 24 23 19
f 24 20 17 21
f 32 26 25
f 32 27 26
f 32 28 27
f 32 29 28
f 32 30 29
f 32 31 30
f 32 25 31
f 25 26 27 28 29 30 31
f 36 35 34 33
f 38 39 40 37
f 34 38 37 33
f 35 39 38 34
f 36 40 39 35
f 40 36 33 37
f 44 43 42 41
f 46 47 48 45
f 42 46 45 41
f 43 47 46 42
f 44 48 47 43
f 48 44 41 45
f 55 50 49
f 55 51 50
f 55 52 51
f 55 53 52
f 55 54 53
f 55 49 54
f 49 50 51 52 53 54
f 59 58 57 56
f 61 62 63 60
f 57 61 60 56
f 58 62 61 57
f 59 63 62 58
f 63 59 56 60
f 70 65 64
f 70 66 65
f 70 67 66
f 70 68 67
f 70 69 68
f 70 64 69
f 64 65 66 67 68 69
f 74 73 72 71
f 76 77 78 75
f 72 76 75 71
f 73 77 76 72
f 74 78 77 73
f 78 74 71 75
f 85 80 79
f 85 81 80
f 85 82 81
f 85 83 82
f 85 84 83
f 85 79 84
f 79 80 81 82 83 84
f 89 88 87 86
f 91 92 93 90
f 87 91 90 86
f 88 92 91 87
f 89 93 92 88
f 93 89 86 90
f 100 95 94
f 100 96 95
f 100 97 96
f 100 98 97
f 100 99 98
f 100 94 99
f 94 95 96 97 98 99
f 104 103 102 101
f 106 107 108 105
f 102 106 105 101
f 103 107 106 102
f 104 108 107 103
f 108 104 101 105
f 115 110 109
f 115 111 110
f 115 112 111
f 115 113 112
f 115 114 113
f 115 109 114
f 109 110 111 112 113 114
