o ogre_keep_hero_bronze
s off
v -3.573571 0.265231 -4.351000
v -2.590732 0.413772 -4.351000
v -3.627779 6.291802 -4.256000
v -4.319919 6.187195 -4.256000
v -3.573571 0.265231 -3.401000
v -2.590732 0.413772 -3.401000
v -3.627779 6.291802 -3.496000
v -4.319919 6.187195 -3.496000
v -3.368000 6.273000 -3.876000
v -3.428242 6.273000 -3.750907
v -3.563603 6.273000 -3.720012
v -3.672155 6.273000 -3.806579
v -3.672155 6.273000 -3.945421
v -3.563603 6.273000 -4.031988
v -3.428242 6.273000 -4.001093
v -3.760949 7.224911 -3.876000
v -4.496520 0.378592 2.687000
v -3.508527 0.269472 2.687000
v -2.999592 6.216546 2.782000
v -3.695361 6.293390 2.782000
v -4.496520 0.378592 3.637000
v -3.508527 0.269472 3.637000
v -2.999592 6.216546 3.542000
v -3.695361 6.293390 3.542000
v -3.515000 6.273000 3.162000
v -3.575242 6.273000 3.287093
v -3.710603 6.273000 3.317988
v -3.819155 6.273000 3.231421
v -3.819155 6.273000 3.092579
v -3.710603 6.273000 3.006012
v -3.575242 6.273000 3.036907
v -3.907949 7.224911 3.162000
v 2.662130 0.370522 -3.535000
v 3.651164 0.271288 -3.535000
v 4.100604 6.223153 -3.440000
v 3.404102 6.293037 -3.440000
v 2.662130 0.370522 -2.585000
v 3.651164 0.271288 -2.585000
v 4.100604 6.223153 -2.680000
v 3.404102 6.293037 -2.680000
v 3.614500 6.273000 -3.060000
v 3.554258 6.273000 -2.934907
v 3.418897 6.273000 -2.904012
v 3.310345 6.273000 -2.990579
v 3.310345 6.273000 -3.129421
v 3.418897 6.273000 -3.215988
v 3.554258 6.273000 -3.185093
v 3.687449 7.224911 -3.060000
v 3.525690 0.265838 3.707000
v 4.509964 0.404544 3.707000
v 3.531749 6.292650 3.802000
v 2.838598 6.194969 3.802000
v 3.525690 0.265838 4.657000
v 4.509964 0.404544 4.657000
v 3.531749 6.292650 4.562000
v 2.838598 6.194969 4.562000
v 3.761500 6.273000 4.182000
v 3.701258 6.273000 4.307093
v 3.565897 6.273000 4.337988
v 3.457345 6.273000 4.251421
v 3.457345 6.273000 4.112579
v 3.565897 6.273000 4.026012
v 3.701258 6.273000 4.056907
v 3.834449 7.224911 4.182000
v -3.906020 7.988063 -4.482000
v 3.892420 7.832073 -4.482000
v 3.906020 8.511937 -4.482000
v -3.892420 8.667927 -4.482000
v -3.906020 7.988063 -3.882000
v 3.892420 7.832073 -3.882000
v 3.906020 8.511937 -3.882000
v -3.892420 8.667927 -3.882000
v -3.900000 8.090000 -2.748000
v 3.900000 8.090000 -2.748000
v 3.900000 8.770000 -2.748000
v -3.900000 8.770000 -2.748000
v -3.900000 8.090000 -2.148000
v 3.900000 8.090000 -2.148000
v 3.900000 8.770000 -2.148000
v -3.900000 8.770000 -2.148000
v -3.892420 7.832073 -1.116000
v 3.906020 7.988063 -1.116000
v 3.892420 8.667927 -1.116000
v -3.906020 8.511937 -1.116000
v -3.892420 7.832073 -0.516000
v 3.906020 7.988063 -0.516000
v 3.892420 8.667927 -0.516000
v -3.906020 8.511937 -0.516000
v -3.906020 8.168063 0.822000
v 3.892420 8.012073 0.822000
v 3.906020 8.691937 0.822000
v -3.892420 8.847927 0.822000
v -3.906020 8.168063 1.422000
v 3.892420 8.012073 1.422000
v 3.906020 8.691937 1.422000
v -3.892420 8.847927 1.422000
v -3.900000 7.910000 2.658000
v 3.900000 7.910000 2.658000
v 3.900000 8.590000 2.658000
v -3.900000 8.590000 2.658000
v -3.900000 7.910000 3.258000
v 3.900000 7.910000 3.258000
v 3.900000 8.590000 3.258000
v -3.900000 8.590000 3.258000
v -3.892420 8.012073 4.086000
v 3.906020 8.168063 4.086000
v 3.892420 8.847927 4.086000
v -3.906020 8.691937 4.086000
v -3.892420 8.012073 4.686000
v 3.906020 8.168063 4.686000
v 3.892420 8.847927 4.686000
v -3.906020 8.691937 4.686000
v -2.416000 8.620000 -4.080000
v -2.502597 8.620000 -3.900179
v -2.697180 8.620000 -3.855767
v -2.853223 8.620000 -3.980207
v -2.853223 8.620000 -4.179793
v -2.697180 8.620000 -4.304233
v -2.502597 8.620000 -4.259821
v -2.259102 9.965478 -4.080000
v -0.652000 8.620000 -4.080000
v -0.738597 8.620000 -3.900179
v -0.933180 8.620000 -3.855767
v -1.089223 8.620000 -3.980207
v -1.089223 8.620000 -4.179793
v -0.933180 8.620000 -4.304233
v -0.738597 8.620000 -4.259821
v -0.495102 9.965478 -4.080000
v 1.259000 8.620000 4.488000
v 1.172403 8.620000 4.667821
v 0.977820 8.620000 4.712233
v 0.821777 8.620000 4.587793
v 0.821777 8.620000 4.388207
v 0.977820 8.620000 4.263767
v 1.172403 8.620000 4.308179
v 0.642102 9.965478 4.488000
v 3.096500 8.620000 4.488000
v 3.009903 8.620000 4.667821
v 2.815320 8.620000 4.712233
v 2.659277 8.620000 4.587793
v 2.659277 8.620000 4.388207
v 2.815320 8.620000 4.263767
v 3.009903 8.620000 4.308179
v 2.479602 9.965478 4.488000
v -0.256771 8.013863 -3.570000
v 0.342749 8.037857 -3.570000
v 0.256771 10.186137 -3.570000
v -0.342749 10.162143 -3.570000
v -0.256771 8.013863 3.570000
v 0.342749 8.037857 3.570000
v 0.256771 10.186137 3.570000
v -0.342749 10.162143 3.570000
f 4 3 2 1
f 6 7 8 5
f 2 6 5 1
f 3 7 6 2
f 4 8 7 3
f 8 4 1 5
f 16 10 9
f 16 11 10
f 16 12 11
f 16 13 12
f 16 14 13
f 16 15 14
f 16 9 15
f 9 10 11 12 13 14 15
f 20 19 18 17
f 22 23 24 21
f 18 22 21 17
f 19 23 22 18
f 20 24 23 19
f 24 20 17 21
f 32 26 25
f 32 27 26
f 32 28 27
f 32 29 28
f 32 30 29
f 32 31 30
f 32 25 31
f 25 26 27 28 29 30 31
f 36 35 34 33
f 38 39 40 37
f 34 38 37 33
f 35 39 38 34
f 36 40 39 35
f 40 36 33 37
f 48 42 41
f 48 43 42
f 48 44 43
f 48 45 44
f 48 46 45
f 48 47 46
f 48 41 47
f 41 42 43 44 45 46 47
f 52 51 50 49
f 54 55 56 53
f 50 54 53 49
f 51 55 54 50
f 52 56 55 51
f 56 52 49 53
f 64 58 57
f 64 59 58
f 64 60 59
f 64 61 60
f 64 62 61
f 64 63 62
f 64 57 63
f 57 58 59 60 61 62 63
f 68 67 66 65
f 70 71 72 69
f 66 70 69 65
f 67 71 70 66
f 68 72 71 67
f 72 68 65 69
f 76 75 74 73
f 78 79 80 77
f 74 78 77 73
f 75 79 78 74
f 76 80 79 75
f 80 76 73 77
f 84 83 82 81
f 86 87 88 85
f 82 86 85 81
f 83 87 86 82
f 84 88 87 83
f 88 84 81 85
f 92 91 90 89
f 94 95 96 93
f 90 94 93 89
f 91 95 94 90
f 92 96 95 91
f 96 92 89 93
f 100 99 98 97
f 102 103 104 101
f 98 102 101 97
f 99 103 102 98
f 100 104 103 99
f 104 100 97 101
f 108 107 106 105
f 110 111 112 109
f 106 110 109 105
f 107 111 110 106
f 108 112 111 107
f 112 108 105 109
f 120 114 113
f 120 115 114
f 120 116 115
f 120 117 116
f 120 118 117
f 120 119 118
f 120 113 119
f 113 114 115 116 117 118 119
f 128 122 121
f 128 123 122
f 128 124 123
f 128 125 124
f 128 126 125
f 128 127 126
f 128 121 127
f 121 122 123 124 125 126 127
f 136 130 129
f 136 131 130
f 136 132 131
f 136 133 132
f 136 134 133
f 136 135 134
f 136 129 135
f 129 130 131 132 133 134 135
f 144 138 137
f 144 139 138
f 144 140 139
f 144 141 140
f 144 142 141
f 144 143 142
f 144 137 143
f 137 138 139 140 141 142 143
f 148 147 146 145
f 150 151 152 149
f 146 150 149 145
f 147 151 150 146
f 148 152 151 147
f 152 148 145 149
