o boulder_cluster
s off
v 0.193710 -0.050000 0.079558
v 0.078520 0.650000 0.065321
v -0.027916 -0.050000 0.358859
v -0.103447 0.650000 0.294642
v -0.447039 -0.050000 0.470245
v -0.447569 0.650000 0.386096
v -0.867548 -0.050000 0.361599
v -0.792829 0.650000 0.296892
v -1.092682 -0.050000 0.083756
v -0.977676 0.650000 0.068768
v -1.017097 -0.050000 -0.233277
v -0.915617 0.650000 -0.191532
v -0.676162 -0.050000 -0.441157
v -0.635691 0.650000 -0.362213
v -0.229402 -0.050000 -0.442615
v -0.268878 0.650000 -0.363410
v 0.114137 -0.050000 -0.236969
v 0.013186 0.650000 -0.194564
v 0.841560 -0.070000 0.240753
v 0.753597 0.470000 0.229882
v 0.637920 -0.070000 0.473221
v 0.586398 0.470000 0.420750
v 0.265620 -0.070000 0.533923
v 0.280720 0.470000 0.470590
v -0.057251 -0.070000 0.387303
v 0.015625 0.470000 0.350206
v -0.141560 -0.070000 0.119247
v -0.053597 0.470000 0.130118
v 0.062080 -0.070000 -0.113221
v 0.113602 0.470000 -0.060750
v 0.434380 -0.070000 -0.173923
v 0.419280 0.470000 -0.110590
v 0.757251 -0.070000 -0.027303
v 0.684375 0.470000 0.009794
v 0.554522 -0.035000 -0.303712
v 0.487502 0.395000 -0.311995
v 0.363247 -0.035000 -0.110314
v 0.330456 0.395000 -0.153205
v 0.033984 -0.035000 -0.097405
v 0.060113 0.395000 -0.142606
v -0.185327 -0.035000 -0.274705
v -0.119953 0.395000 -0.288179
v -0.129539 -0.035000 -0.508704
v -0.074148 0.395000 -0.480304
v 0.159338 -0.035000 -0.623195
v 0.163036 0.395000 -0.574308
v 0.463774 -0.035000 -0.531965
v 0.412994 0.395000 -0.499403
f 2 4 3 1
f 4 6 5 3
f 6 8 7 5
f 8 10 9 7
f 10 12 11 9
f 12 14 13 11
f 14 16 15 13
f 16 18 17 15
f 18 2 1 17
f 1 3 5 7 9 11 13 15 17
f 18 16 14 12 10 8 6 4 2
f 20 22 21 19
f 22 24 23 21
f 24 26 25 23
f 26 28 27 25
f 28 30 29 27
f 30 32 31 29
f 32 34 33 31
f 34 20 19 33
f 19 21 23 25 27 29 31 33
f 34 32 30 28 26 24 22 20
f 36 38 37 35
f 38 40 39 37
f 40 42 41 39
f 42 44 43 41
f 44 46 45 43
f 46 48 47 45
f 48 36 35 47
f 35 37 39 41 43 45 47
f 48 46 44 42 40 38 36
