o broken_cart_wood
s off
v -1.200000 0.340000 -0.675000
v 1.200000 0.340000 -0.675000
v 1.200000 0.560000 -0.675000
v -1.200000 0.560000 -0.675000
v -1.200000 0.340000 0.675000
v 1.200000 0.340000 0.675000
v 1.200000 0.560000 0.675000
v -1.200000 0.560000 0.675000
v -0.382035 0.180000 -0.473190
v -0.382035 0.380000 -0.473190
v -0.474721 0.180000 -0.280725
v -0.474721 0.380000 -0.280725
v -0.641736 0.180000 -0.147535
v -0.641736 0.380000 -0.147535
v -0.850000 0.180000 -0.100000
v -0.850000 0.380000 -0.100000
v -1.058264 0.180000 -0.147535
v -1.058264 0.380000 -0.147535
v -1.225279 0.180000 -0.280725
v -1.225279 0.380000 -0.280725
v -1.317965 0.180000 -0.473190
v -1.317965 0.380000 -0.473190
v -1.317965 0.180000 -0.686810
v -1.317965 0.380000 -0.686810
v -1.225279 0.180000 -0.879275
v -1.225279 0.380000 -0.879275
v -1.058264 0.180000 -1.012465
v -1.058264 0.380000 -1.012465
v -0.850000 0.180000 -1.060000
v -0.850000 0.380000 -1.060000
v -0.641736 0.180000 -1.012465
v -0.641736 0.380000 -1.012465
v -0.474721 0.180000 -0.879275
v -0.474721 0.380000 -0.879275
v -0.382035 0.180000 -0.686810
v -0.382035 0.380000 -0.686810
v 1.317965 0.180000 0.686810
v 1.317965 0.380000 0.686810
v 1.225279 0.180000 0.879275
v 1.225279 0.380000 0.879275
v 1.058264 0.180000 1.012465
v 1.058264 0.380000 1.012465
v 0.850000 0.180000 1.060000
v 0.850000 0.380000 1.060000
v 0.641736 0.180000 1.012465
v 0.641736 0.380000 1.012465
v 0.474721 0.180000 0.879275
v 0.474721 0.380000 0.879275
v 0.382035 0.180000 0.686810
v 0.382035 0.380000 0.686810
v 0.382035 0.180000 0.473190
v 0.382035 0.380000 0.473190
v 0.474721 0.180000 0.280725
v 0.474721 0.380000 0.280725
v 0.641736 0.180000 0.147535
v 0.641736 0.380000 0.147535
v 0.850000 0.180000 0.100000
v 0.850000 0.380000 0.100000
v 1.058264 0.180000 0.147535
v 1.058264 0.380000 0.147535
v 1.225279 0.180000 0.280725
v 1.225279 0.380000 0.280725
v 1.317965 0.180000 0.473190
v 1.317965 0.380000 0.473190
v -1.046979 0.424918 -0.540000
v -0.887491 0.437704 -0.540000
v -0.953021 1.255082 -0.540000
v -1.112509 1.242296 -0.540000
v -1.046979 0.424918 0.540000
v -0.887491 0.437704 0.540000
v -0.953021 1.255082 0.540000
v -1.112509 1.242296 0.540000
v 0.813393 0.450609 -0.540000
v 0.952386 0.433849 -0.540000
v 1.026607 1.049391 -0.540000
v 0.887614 1.066151 -0.540000
v 0.813393 0.450609 0.380000
v 0.952386 0.433849 0.380000
v 1.026607 1.049391 0.380000
v 0.887614 1.066151 0.380000
v 0.905363 0.442678 0.060000
v 2.164949 0.121053 0.060000
v 2.194637 0.237322 0.060000
v 0.935051 0.558947 0.060000
v 0.905363 0.442678 0.180000
v 2.164949 0.121053 0.180000
v 2.194637 0.237322 0.180000
v 0.935051 0.558947 0.180000
f 4 3 2 1
f 7 8 5 6
f 8 4 1 5
f 3 7 6 2
f 8 7 3 4
f 1 2 6 5
f 10 12 11 9
f 12 14 13 11
f 14 16 15 13
f 16 18 17 15
f 18 20 19 17
f 20 22 21 19
f 22 24 23 21
f 24 26 25 23
f 26 28 27 25
f 28 30 29 27
f 30 32 31 29
f 32 34 33 31
f 34 36 35 33
f 36 10 9 35
f 9 11 13 15 17 19 21 23 25 27 29 31 33 35
f 36 34 32 30 28 26 24 22 20 18 16 14 12 10
f 38 40 39 37
f 40 42 41 39
f 42 44 43 41
f 44 46 45 43
f 46 48 47 45
f 48 50 49 47
f 50 52 51 49
f 52 54 53 51
f 54 56 55 53
f 56 58 57 55
f 58 60 59 57
f 60 62 61 59
f 62 64 63 61
f 64 38 37 63
f 37 39 41 43 45 47 49 51 53 55 57 59 61 63
f 64 62 60 58 56 54 52 50 48 46 44 42 40 38
f 68 67 66 65
f 71 72 69 70
f 72 68 65 69
f 67 71 70 66
f 72 71 67 68
f 65 66 70 69
f 76 75 74 73
f 79 80 77 78
f 80 76 73 77
f 75 79 78 74
f 80 79 75 76
f 73 74 78 77
f 84 83 82 81
f 87 88 85 86
f 88 84 81 85
f 83 87 86 82
f 88 87 83 84
f 81 82 86 85
