o ruined_palisade
s off
v -1.431229 0.009490 -0.150000
v -1.161715 -0.006701 -0.150000
v -1.068771 1.540510 -0.150000
v -1.338285 1.556701 -0.150000
v -1.431229 0.009490 0.150000
v -1.161715 -0.006701 0.150000
v -1.068771 1.540510 0.150000
v -1.338285 1.556701 0.150000
v -1.120000 1.520000 0.000000
v -1.168946 1.520000 0.101638
v -1.278928 1.520000 0.126741
v -1.367126 1.520000 0.056405
v -1.367126 1.520000 -0.056405
v -1.278928 1.520000 -0.126741
v -1.168946 1.520000 -0.101638
v -1.213239 1.978529 0.000000
v -0.955000 0.000000 -0.150000
v -0.685000 0.000000 -0.150000
v -0.685000 1.820000 -0.150000
v -0.955000 1.820000 -0.150000
v -0.955000 0.000000 0.150000
v -0.685000 0.000000 0.150000
v -0.685000 1.820000 0.150000
v -0.955000 1.820000 0.150000
v -0.690000 1.790000 0.000000
v -0.738946 1.790000 0.101638
v -0.848928 1.790000 0.126741
v -0.937126 1.790000 0.056405
v -0.937126 1.790000 -0.056405
v -0.848928 1.790000 -0.126741
v -0.738946 1.790000 -0.101638
v -0.783239 2.248529 0.000000
v -0.452095 -0.006215 -0.150000
v -0.182581 0.009976 -0.150000
v -0.307905 2.096215 -0.150000
v -0.577419 2.080024 -0.150000
v -0.452095 -0.006215 0.150000
v -0.182581 0.009976 0.150000
v -0.307905 2.096215 0.150000
v -0.577419 2.080024 0.150000
v -0.250000 2.060000 0.000000
v -0.298946 2.060000 0.101638
v -0.408928 2.060000 0.126741
v -0.497126 2.060000 0.056405
v -0.497126 2.060000 -0.056405
v -0.408928 2.060000 -0.126741
v -0.298946 2.060000 -0.101638
v -0.343239 2.518529 0.000000
v -0.101229 0.009490 -0.150000
v 0.168285 -0.006701 -0.150000
v 0.261229 1.540510 -0.150000
v -0.008285 1.556701 -0.150000
v -0.101229 0.009490 0.150000
v 0.168285 -0.006701 0.150000
v 0.261229 1.540510 0.150000
v -0.008285 1.556701 0.150000
v 0.210000 1.520000 0.000000
v 0.161054 1.520000 0.101638
v 0.051072 1.520000 0.126741
v -0.037126 1.520000 0.056405
v -0.037126 1.520000 -0.056405
v 0.051072 1.520000 -0.126741
v 0.161054 1.520000 -0.101638
v 0.116761 1.978529 0.000000
v 0.415000 0.000000 -0.150000
v 0.685000 0.000000 -0.150000
v 0.685000 1.820000 -0.150000
v 0.415000 1.820000 -0.150000
v 0.415000 0.000000 0.150000
v 0.685000 0.000000 0.150000
v 0.685000 1.820000 0.150000
v 0.415000 1.820000 0.150000
v 0.680000 1.790000 0.000000
v 0.631054 1.790000 0.101638
v 0.521072 1.790000 0.126741
v 0.432874 1.790000 0.056405
v 0.432874 1.790000 -0.056405
v 0.521072 1.790000 -0.126741
v 0.631054 1.790000 -0.101638
v 0.586761 2.248529 0.000000
v 0.957905 -0.006215 -0.150000
v 1.227419 0.009976 -0.150000
v 1.102095 2.096215 -0.150000
v 0.832581 2.080024 -0.150000
v 0.957905 -0.006215 0.150000
v 1.227419 0.009976 0.150000
v 1.102095 2.096215 0.150000
v 0.832581 2.080024 0.150000
v 1.160000 2.060000 0.000000
v 1.111054 2.060000 0.101638
v 1.001072 2.060000 0.126741
v 0.912874 2.060000 0.056405
v 0.912874 2.060000 -0.056405
v 1.001072 2.060000 -0.126741
v 1.111054 2.060000 -0.101638
v 1.066761 2.518529 0.000000
v 1.238771 0.009490 -0.150000
v 1.508285 -0.006701 -0.150000
v 1.601229 1.540510 -0.150000
v 1.331715 1.556701 -0.150000
v 1.238771 0.009490 0.150000
v 1.508285 -0.006701 0.150000
v 1.601229 1.540510 0.150000
v 1.331715 1.556701 0.150000
v 1.550000 1.520000 0.000000
v 1.501054 1.520000 0.101638
v 1.391072 1.520000 0.126741
v 1.302874 1.520000 0.056405
v 1.302874 1.520000 -0.056405
v 1.391072 1.520000 -0.126741
v 1.501054 1.520000 -0.101638
v 1.456761 1.978529 0.000000
v -1.445201 0.530088 -0.030000
v 1.552399 0.650056 -0.030000
v 1.545201 0.829912 -0.030000
v -1.452399 0.709944 -0.030000
v -1.445201 0.530088 0.150000
v 1.552399 0.650056 0.150000
v 1.545201 0.829912 0.150000
v -1.452399 0.709944 0.150000
f 4 3 2 1
f 7 8 5 6
f 8 4 1 5
f 3 7 6 2
f 8 7 3 4
f 1 2 6 5
f 16 10 9
f 16 11 10
f 16 12 11
f 16 13 12
f 16 14 13
f 16 15 14
f 16 9 15
f 9 10 11 12 13 14 15
f 20 19 18 17
f 23 24 21 22
f 24 20 17 21
f 19 23 22 18
f 24 23 19 20
f 17 18 22 21
f 32 26 25
f 32 27 26
f 32 28 27
f 32 29 28
f 32 30 29
f 32 31 30
f 32 25 31
f 25 26 27 28 29 30 31
f 36 35 34 33
f 39 40 37 38
f 40 36 33 37
f 35 39 38 34
f 40 39 35 36
f 33 34 38 37
f 48 42 41
f 48 43 42
f 48 44 43
f 48 45 44
f 48 46 45
f 48 47 46
f 48 41 47
f 41 42 43 44 45 46 47
f 52 51 50 49
f 55 56 53 54
f 56 52 49 53
f 51 55 54 50
f 56 55 51 52
f 49 50 54 53
f 64 58 57
f 64 59 58
f 64 60 59
f 64 61 60
f 64 62 61
f 64 63 62
f 64 57 63
f 57 58 59 60 61 62 63
f 68 67 66 65
f 71 72 69 70
f 72 68 65 69
f 67 71 70 66
f 72 71 67 68
f 65 66 70 69
f 80 74 73
f 80 75 74
f 80 76 75
f 80 77 76
f 80 78 77
f 80 79 78
f 80 73 79
f 73 74 75 76 77 78 79
f 84 83 82 81
f 87 88 85 86
f 88 84 81 85
f 83 87 86 82
f 88 87 83 84
f 81 82 86 85
f 96 90 89
f 96 91 90
f 96 92 91
f 96 93 92
f 96 94 93
f 96 95 94
f 96 89 95
f 89 90 91 92 93 94 95
f 100 99 98 97
f 103 104 101 102
f 104 100 97 101
f 99 103 102 98
f 104 103 99 100
f 97 98 102 101
f 112 106 105
f 112 107 106
f 112 108 107
f 112 109 108
f 112 110 109
f 112 111 110
f 112 105 111
f 105 106 107 108 109 110 111
f 116 115 114 113
f 119 120 117 118
f 120 116 113 117
f 115 119 118 114
f 120 119 115 116
f 113 114 118 117
