o shield_stack
s off
v 0.052698 0.290000 0.080065
v 0.013467 0.390000 0.071637
v -0.004042 0.290000 0.228006
v -0.037300 0.390000 0.204005
v -0.108883 0.290000 0.341235
v -0.131106 0.390000 0.305316
v -0.245866 0.290000 0.402514
v -0.253669 0.390000 0.360144
v -0.394134 0.290000 0.402514
v -0.386331 0.390000 0.360144
v -0.531117 0.290000 0.341235
v -0.508894 0.390000 0.305316
v -0.635958 0.290000 0.228006
v -0.602700 0.390000 0.204005
v -0.692698 0.290000 0.080065
v -0.653467 0.390000 0.071637
v -0.692698 0.290000 -0.080065
v -0.653467 0.390000 -0.071637
v -0.635958 0.290000 -0.228006
v -0.602700 0.390000 -0.204005
v -0.531117 0.290000 -0.341235
v -0.508894 0.390000 -0.305316
v -0.394134 0.290000 -0.402514
v -0.386331 0.390000 -0.360144
v -0.245866 0.290000 -0.402514
v -0.253669 0.390000 -0.360144
v -0.108883 0.290000 -0.341235
v -0.131106 0.390000 -0.305316
v -0.004042 0.290000 -0.228006
v -0.037300 0.390000 -0.204005
v 0.052698 0.290000 -0.080065
v 0.013467 0.390000 -0.071637
v -0.357883 0.280294 -0.110000
v -0.260294 0.302117 -0.110000
v -0.282117 0.399706 -0.110000
v -0.379706 0.377883 -0.110000
v -0.357883 0.280294 -0.030000
v -0.260294 0.302117 -0.030000
v -0.282117 0.399706 -0.030000
v -0.379706 0.377883 -0.030000
v 0.652698 0.250000 0.200065
v 0.613467 0.350000 0.191637
v 0.595958 0.250000 0.348006
v 0.562700 0.350000 0.324005
v 0.491117 0.250000 0.461235
v 0.468894 0.350000 0.425316
v 0.354134 0.250000 0.522514
v 0.346331 0.350000 0.480144
v 0.205866 0.250000 0.522514
v 0.213669 0.350000 0.480144
v 0.068883 0.250000 0.461235
v 0.091106 0.350000 0.425316
v -0.035958 0.250000 0.348006
v -0.002700 0.350000 0.324005
v -0.092698 0.250000 0.200065
v -0.053467 0.350000 0.191637
v -0.092698 0.250000 0.039935
v -0.053467 0.350000 0.048363
v -0.035958 0.250000 -0.108006
v -0.002700 0.350000 -0.084005
v 0.068883 0.250000 -0.221235
v 0.091106 0.350000 -0.185316
v 0.205866 0.250000 -0.282514
v 0.213669 0.350000 -0.240144
v 0.354134 0.250000 -0.282514
v 0.346331 0.350000 -0.240144
v 0.491117 0.250000 -0.221235
v 0.468894 0.350000 -0.185316
v 0.595958 0.250000 -0.108006
v 0.562700 0.350000 -0.084005
v 0.652698 0.250000 0.039935
v 0.613467 0.350000 0.048363
v 0.221856 0.259759 0.010000
v 0.320241 0.241856 0.010000
v 0.338144 0.340241 0.010000
v 0.239759 0.358144 0.010000
v 0.221856 0.259759 0.090000
v 0.320241 0.241856 0.090000
v 0.338144 0.340241 0.090000
v 0.239759 0.358144 0.090000
v 0.392698 0.170000 -0.219935
v 0.353467 0.270000 -0.228363
v 0.335958 0.170000 -0.071994
v 0.302700 0.270000 -0.095995
v 0.231117 0.170000 0.041235
v 0.208894 0.270000 0.005316
v 0.094134 0.170000 0.102514
v 0.086331 0.270000 0.060144
v -0.054134 0.170000 0.102514
v -0.046331 0.270000 0.060144
v -0.191117 0.170000 0.041235
v -0.168894 0.270000 0.005316
v -0.295958 0.170000 -0.071994
v -0.262700 0.270000 -0.095995
v -0.352698 0.170000 -0.219935
v -0.313467 0.270000 -0.228363
v -0.352698 0.170000 -0.380065
v -0.313467 0.270000 -0.371637
v -0.295958 0.170000 -0.528006
v -0.262700 0.270000 -0.504005
v -0.191117 0.170000 -0.641235
v -0.168894 0.270000 -0.605316
v -0.054134 0.170000 -0.702514
v -0.046331 0.270000 -0.660144
v 0.094134 0.170000 -0.702514
v 0.086331 0.270000 -0.660144
v 0.231117 0.170000 -0.641235
v 0.208894 0.270000 -0.605316
v 0.335958 0.170000 -0.528006
v 0.302700 0.270000 -0.504005
v 0.392698 0.170000 -0.380065
v 0.353467 0.270000 -0.371637
v 0.008358 0.150254 -0.410000
v 0.089746 0.208358 -0.410000
v 0.031642 0.289746 -0.410000
v -0.049746 0.231642 -0.410000
v 0.008358 0.150254 -0.330000
v 0.089746 0.208358 -0.330000
v 0.031642 0.289746 -0.330000
v -0.049746 0.231642 -0.330000
f 2 4 3 1
f 4 6 5 3
f 6 8 7 5
f 8 10 9 7
f 10 12 11 9
f 12 14 13 11
f 14 16 15 13
f 16 18 17 15
f 18 20 19 17
f 20 22 21 19
f 22 24 23 21
f 24 26 25 23
f 26 28 27 25
f 28 30 29 27
f 30 32 31 29
f 32 2 1 31
f 1 3 5 7 9 11 13 15 17 19 21 23 25 27 29 31
f 32 30 28 26 24 22 20 18 16 14 12 10 8 6 4 2
f 36 35 34 33
f 39 40 37 38
f 40 36 33 37
f 35 39 38 34
f 40 39 35 36
f 33 34 38 37
f 42 44 43 41
f 44 46 45 43
f 46 48 47 45
f 48 50 49 47
f 50 52 51 49
f 52 54 53 51
f 54 56 55 53
f 56 58 57 55
f 58 60 59 57
f 60 62 61 59
f 62 64 63 61
f 64 66 65 63
f 66 68 67 65
f 68 70 69 67
f 70 72 71 69
f 72 42 41 71
f 41 43 45 47 49 51 53 55 57 59 61 63 65 67 69 71
f 72 70 68 66 64 62 60 58 56 54 52 50 48 46 44 42
f 76 75 74 73
f 79 80 77 78
f 80 76 73 77
f 75 79 78 74
f 80 79 75 76
f 73 74 78 77
f 82 84 83 81
f 84 86 85 83
f 86 88 87 85
f 88 90 89 87
f 90 92 91 89
f 92 94 93 91
f 94 96 95 93
f 96 98 97 95
f 98 100 99 97
f 100 102 101 99
f 102 104 103 101
f 104 106 105 103
f 106 108 107 105
f 108 110 109 107
f 110 112 111 109
f 112 82 81 111
f 81 83 85 87 89 91 93 95 97 99 101 103 105 107 109 111
f 112 110 108 106 104 102 100 98 96 94 92 90 88 86 84 82
f 116 115 114 113
f 119 120 117 118
f 120 116 113 117
f 115 119 118 114
f 120 119 115 116
f 113 114 118 117
