o spike_barricade
s off
v -1.401920 0.258020 -0.820000
v 1.397520 0.202024 -0.820000
v 1.401920 0.421980 -0.820000
v -1.397520 0.477976 -0.820000
v -1.401920 0.258020 -0.620000
v 1.397520 0.202024 -0.620000
v 1.401920 0.421980 -0.620000
v -1.397520 0.477976 -0.620000
v -0.940000 0.420000 -0.720000
v -0.981416 0.420000 -0.633999
v -1.074477 0.420000 -0.612758
v -1.149107 0.420000 -0.672273
v -1.149107 0.420000 -0.767727
v -1.074477 0.420000 -0.827242
v -0.981416 0.420000 -0.806001
v -1.770476 1.678338 -0.720000
v -0.240000 0.420000 -0.720000
v -0.281416 0.420000 -0.633999
v -0.374477 0.420000 -0.612758
v -0.449107 0.420000 -0.672273
v -0.449107 0.420000 -0.767727
v -0.374477 0.420000 -0.827242
v -0.281416 0.420000 -0.806001
v -1.070476 1.678338 -0.720000
v 0.460000 0.420000 -0.720000
v 0.418584 0.420000 -0.633999
v 0.325523 0.420000 -0.612758
v 0.250893 0.420000 -0.672273
v 0.250893 0.420000 -0.767727
v 0.325523 0.420000 -0.827242
v 0.418584 0.420000 -0.806001
v 1.070476 1.678338 -0.720000
v 1.160000 0.420000 -0.720000
v 1.118584 0.420000 -0.633999
v 1.025523 0.420000 -0.612758
v 0.950893 0.420000 -0.672273
v 0.950893 0.420000 -0.767727
v 1.025523 0.420000 -0.827242
v 1.118584 0.420000 -0.806001
v 1.770476 1.678338 -0.720000
v -1.397520 0.202024 -0.100000
v 1.401920 0.258020 -0.100000
v 1.397520 0.477976 -0.100000
v -1.401920 0.421980 -0.100000
v -1.397520 0.202024 0.100000
v 1.401920 0.258020 0.100000
v 1.397520 0.477976 0.100000
v -1.401920 0.421980 0.100000
v -0.940000 0.420000 0.000000
v -0.981416 0.420000 0.086001
v -1.074477 0.420000 0.107242
v -1.149107 0.420000 0.047727
v -1.149107 0.420000 -0.047727
v -1.074477 0.420000 -0.107242
v -0.981416 0.420000 -0.086001
v -1.770476 1.678338 0.000000
v -0.240000 0.420000 0.000000
v -0.281416 0.420000 0.086001
v -0.374477 0.420000 0.107242
v -0.449107 0.420000 0.047727
v -0.449107 0.420000 -0.047727
v -0.374477 0.420000 -0.107242
v -0.281416 0.420000 -0.086001
v -1.070476 1.678338 0.000000
v 0.460000 0.420000 0.000000
v 0.418584 0.420000 0.086001
v 0.325523 0.420000 0.107242
v 0.250893 0.420000 0.047727
v 0.250893 0.420000 -0.047727
v 0.325523 0.420000 -0.107242
v 0.418584 0.420000 -0.086001
v 1.070476 1.678338 0.000000
v 1.160000 0.420000 0.000000
v 1.118584 0.420000 0.086001
v 1.025523 0.420000 0.107242
v 0.950893 0.420000 0.047727
v 0.950893 0.420000 -0.047727
v 1.025523 0.420000 -0.107242
v 1.118584 0.420000 -0.086001
v 1.770476 1.678338 0.000000
v -1.397520 0.202024 0.620000
v 1.401920 0.258020 0.620000
v 1.397520 0.477976 0.620000
v -1.401920 0.421980 0.620000
v -1.397520 0.202024 0.820000
v 1.401920 0.258020 0.820000
v 1.397520 0.477976 0.820000
v -1.401920 0.421980 0.820000
v -0.940000 0.420000 0.720000
v -0.981416 0.420000 0.806001
v -1.074477 0.420000 0.827242
v -1.149107 0.420000 0.767727
v -1.149107 0.420000 0.672273
v -1.074477 0.420000 0.612758
v -0.981416 0.420000 0.633999
v -1.770476 1.678338 0.720000
v -0.240000 0.420000 0.720000
v -0.281416 0.420000 0.806001
v -0.374477 0.420000 0.827242
v -0.449107 0.420000 0.767727
v -0.449107 0.420000 0.672273
v -0.374477 0.420000 0.612758
v -0.281416 0.420000 0.633999
v -1.070476 1.678338 0.720000
v 0.460000 0.420000 0.720000
v 0.418584 0.420000 0.806001
v 0.325523 0.420000 0.827242
v 0.250893 0.420000 0.767727
v 0.250893 0.420000 0.672273
v 0.325523 0.420000 0.612758
v 0.418584 0.420000 0.633999
v 1.070476 1.678338 0.720000
v 1.160000 0.420000 0.720000
v 1.118584 0.420000 0.806001
v 1.025523 0.420000 0.827242
v 0.950893 0.420000 0.767727
v 0.950893 0.420000 0.672273
v 1.025523 0.420000 0.612758
v 1.118584 0.420000 0.633999
v 1.770476 1.678338 0.720000
v -1.305194 0.014729 -0.900000
v -1.126489 -0.006819 -0.900000
v -0.994806 1.085271 -0.900000
v -1.173511 1.106819 -0.900000
v -1.305194 0.014729 0.900000
v -1.126489 -0.006819 0.900000
v -0.994806 1.085271 0.900000
v -1.173511 1.106819 0.900000
v 1.126489 -0.006819 -0.900000
v 1.305194 0.014729 -0.900000
v 1.173511 1.106819 -0.900000
v 0.994806 1.085271 -0.900000
v 1.126489 -0.006819 0.900000
v 1.305194 0.014729 0.900000
v 1.173511 1.106819 0.900000
v 0.994806 1.085271 0.900000
f 4 3 2 1
f 7 8 5 6
f 8 4 1 5
f 3 7 6 2
f 8 7 3 4
f 1 2 6 5
f 16 10 9
f 16 11 10
f 16 12 11
f 16 13 12
f 16 14 13
f 16 15 14
f 16 9 15
f 9 10 11 12 13 14 15
f 24 18 17
f 24 19 18
f 24 20 19
f 24 21 20
f 24 22 21
f 24 23 22
f 24 17 23
f 17 18 19 20 21 22 23
f 32 26 25
f 32 27 26
f 32 28 27
f 32 29 28
f 32 30 29
f 32 31 30
f 32 25 31
f 25 26 27 28 29 30 31
f 40 34 33
f 40 35 34
f 40 36 35
f 40 37 36
f 40 38 37
f 40 39 38
f 40 33 39
f 33 34 35 36 37 38 39
f 44 43 42 41
f 47 48 45 46
f 48 44 41 45
f 43 47 46 42
f 48 47 43 44
f 41 42 46 45
f 56 50 49
f 56 51 50
f 56 52 51
f 56 53 52
f 56 54 53
f 56 55 54
f 56 49 55
f 49 50 51 52 53 54 55
f 64 58 57
f 64 59 58
f 64 60 59
f 64 61 60
f 64 62 61
f 64 63 62
f 64 57 63
f 57 58 59 60 61 62 63
f 72 66 65
f 72 67 66
f 72 68 67
f 72 69 68
f 72 70 69
f 72 71 70
f 72 65 71
f 65 66 67 68 69 70 71
f 80 74 73
f 80 75 74
f 80 76 75
f 80 77 76
f 80 78 77
f 80 79 78
f 80 73 79
f 73 74 75 76 77 78 79
f 84 83 82 81
f 87 88 85 86
f 88 84 81 85
f 83 87 86 82
f 88 87 83 84
f 81 82 86 85
f 96 90 89
f 96 91 90
f 96 92 91
f 96 93 92
f 96 94 93
f 96 95 94
f 96 89 95
f 89 90 91 92 93 94 95
f 104 98 97
f 104 99 98
f 104 100 99
f 104 101 100
f 104 102 101
f 104 103 102
f 104 97 103
f 97 98 99 100 101 102 103
f 112 106 105
f 112 107 106
f 112 108 107
f 112 109 108
f 112 110 109
f 112 111 110
f 112 105 111
f 105 106 107 108 109 110 111
f 120 114 113
f 120 115 114
f 120 116 115
f 120 117 116
f 120 118 117
f 120 119 118
f 120 113 119
f 113 114 115 116 117 118 119
f 124 123 122 121
f 127 128 125 126
f 128 124 121 125
f 123 127 126 122
f 128 127 123 124
f 121 122 126 125
f 132 131 130 129
f 135 136 133 134
f 136 132 129 133
f 131 135 134 130
f 136 135 131 132
f 129 130 134 133
