o weapon_pile_iron
s off
v -0.127171 -0.580267 -0.240000
v -0.055136 -0.545470 -0.240000
v -0.772829 0.940267 -0.240000
v -0.844864 0.905470 -0.240000
v -0.127171 -0.580267 -0.160000
v -0.055136 -0.545470 -0.160000
v -0.772829 0.940267 -0.160000
v -0.844864 0.905470 -0.160000
v -0.603686 0.796541 -0.250000
v -0.117445 1.031423 -0.250000
v -0.152242 1.103459 -0.250000
v -0.638484 0.868577 -0.250000
v -0.603686 0.796541 -0.150000
v -0.117445 1.031423 -0.150000
v -0.152242 1.103459 -0.150000
v -0.638484 0.868577 -0.150000
v -0.120466 -0.581267 -0.040000
v -0.045316 -0.608698 -0.040000
v 0.520466 0.941267 -0.040000
v 0.445316 0.968698 -0.040000
v -0.120466 -0.581267 0.040000
v -0.045316 -0.608698 0.040000
v 0.520466 0.941267 0.040000
v 0.445316 0.968698 0.040000
v 0.007803 1.005007 -0.050000
v 0.515065 0.819843 -0.050000
v 0.542496 0.894993 -0.050000
v 0.035235 1.080157 -0.050000
v 0.007803 1.005007 0.050000
v 0.515065 0.819843 0.050000
v 0.542496 0.894993 0.050000
v 0.035235 1.080157 0.050000
v 1.013920 -0.466615 0.210000
v 1.074065 -0.413864 0.210000
v -0.013920 0.826615 0.210000
v -0.074065 0.773864 0.210000
v 1.013920 -0.466615 0.290000
v 1.074065 -0.413864 0.290000
v -0.013920 0.826615 0.290000
v -0.074065 0.773864 0.290000
v 0.383532 0.741894 0.200000
v 0.789507 1.097962 0.200000
v 0.736757 1.158106 0.200000
v 0.330782 0.802038 0.200000
v 0.383532 0.741894 0.300000
v 0.789507 1.097962 0.300000
v 0.736757 1.158106 0.300000
v 0.330782 0.802038 0.300000
v -0.741620 -0.396378 0.310000
v -0.683084 -0.450909 0.310000
v 0.441620 0.756378 0.310000
v 0.383084 0.810909 0.310000
v -0.741620 -0.396378 0.390000
v -0.683084 -0.450909 0.390000
v 0.441620 0.756378 0.390000
v 0.383084 0.810909 0.390000
v -0.316286 1.104775 0.300000
v 0.078826 0.736690 0.300000
v 0.133357 0.795225 0.300000
v -0.261755 1.163310 0.300000
v -0.316286 1.104775 0.400000
v 0.078826 0.736690 0.400000
v 0.133357 0.795225 0.400000
v -0.261755 1.163310 0.400000
v 0.078773 0.110000 0.331207
v 0.078773 0.230000 0.331207
v 0.007714 0.110000 0.459517
v 0.007714 0.230000 0.459517
v -0.120331 0.110000 0.548310
v -0.120331 0.230000 0.548310
v -0.280000 0.110000 0.580000
v -0.280000 0.230000 0.580000
v -0.439669 0.110000 0.548310
v -0.439669 0.230000 0.548310
v -0.567714 0.110000 0.459517
v -0.567714 0.230000 0.459517
v -0.638773 0.110000 0.331207
v -0.638773 0.230000 0.331207
v -0.638773 0.110000 0.188793
v -0.638773 0.230000 0.188793
v -0.567714 0.110000 0.060483
v -0.567714 0.230000 0.060483
v -0.439669 0.110000 -0.028310
v -0.439669 0.230000 -0.028310
v -0.280000 0.110000 -0.060000
v -0.280000 0.230000 -0.060000
v -0.120331 0.110000 -0.028310
v -0.120331 0.230000 -0.028310
v 0.007714 0.110000 0.060483
v 0.007714 0.230000 0.060483
v 0.078773 0.110000 0.188793
v 0.078773 0.230000 0.188793
f 4 3 2 1
f 7 8 5 6
f 8 4 1 5
f 3 7 6 2
f 8 7 3 4
f 1 2 6 5
f 12 11 10 9
f 15 16 13 14
f 16 12 9 13
f 11 15 14 10
f 16 15 11 12
f 9 10 14 13
f 20 19 18 17
f 23 24 21 22
f 24 20 17 21
f 19 23 22 18
f 24 23 19 20
f 17 18 22 21
f 28 27 26 25
f 31 32 29 30
f 32 28 25 29
f 27 31 30 26
f 32 31 27 28
f 25 26 30 29
f 36 35 34 33
f 39 40 37 38
f 40 36 33 37
f 35 39 38 34
f 40 39 35 36
f 33 34 38 37
f 44 43 42 41
f 47 48 45 46
f 48 44 41 45
f 43 47 46 42
f 48 47 43 44
f 41 42 46 45
f 52 51 50 49
f 55 56 53 54
f 56 52 49 53
f 51 55 54 50
f 56 55 51 52
f 49 50 54 53
f 60 59 58 57
f 63 64 61 62
f 64 60 57 61
f 59 63 62 58
f 64 63 59 60
f 57 58 62 61
f 66 68 67 65
f 68 70 69 67
f 70 72 71 69
f 72 74 73 71
f 74 76 75 73
f 76 78 77 75
f 78 80 79 77
f 80 82 81 79
f 82 84 83 81
f 84 86 85 83
f 86 88 87 85
f 88 90 89 87
f 90 92 91 89
f 92 66 65 91
f 65 67 69 71 73 75 77 79 81 83 85 87 89 91
f 92 90 88 86 84 82 80 78 76 74 72 70 68 66
