o human_keep_iron
s off
v -3.500000 0.000000 -5.100000
v 3.500000 0.000000 -5.100000
v 3.500000 8.400000 -5.100000
v -3.500000 8.400000 -5.100000
v -3.500000 0.000000 5.100000
v 3.500000 0.000000 5.100000
v 3.500000 8.400000 5.100000
v -3.500000 8.400000 5.100000
v -3.825000 0.000000 -5.425000
v 3.825000 0.000000 -5.425000
v 3.825000 1.000000 -5.425000
v -3.825000 1.000000 -5.425000
v -3.825000 0.000000 5.425000
v 3.825000 0.000000 5.425000
v 3.825000 1.000000 5.425000
v -3.825000 1.000000 5.425000
v -3.689200 0.252000 -5.089200
v -2.810800 0.252000 -5.089200
v -2.890000 6.804000 -5.010000
v -3.610000 6.804000 -5.010000
v -3.689200 0.252000 -4.210800
v -2.810800 0.252000 -4.210800
v -2.890000 6.804000 -4.290000
v -3.610000 6.804000 -4.290000
v -3.689200 0.252000 4.210800
v -2.810800 0.252000 4.210800
v -2.890000 6.804000 4.290000
v -3.610000 6.804000 4.290000
v -3.689200 0.252000 5.089200
v -2.810800 0.252000 5.089200
v -2.890000 6.804000 5.010000
v -3.610000 6.804000 5.010000
v 2.810800 0.252000 -5.089200
v 3.689200 0.252000 -5.089200
v 3.610000 6.804000 -5.010000
v 2.890000 6.804000 -5.010000
v 2.810800 0.252000 -4.210800
v 3.689200 0.252000 -4.210800
v 3.610000 6.804000 -4.290000
v 2.890000 6.804000 -4.290000
v 2.810800 0.252000 4.210800
v 3.689200 0.252000 4.210800
v 3.610000 6.804000 4.290000
v 2.890000 6.804000 4.290000
v 2.810800 0.252000 5.089200
v 3.689200 0.252000 5.089200
v 3.610000 6.804000 5.010000
v 2.890000 6.804000 5.010000
v -3.610000 1.510000 -5.210000
v 3.610000 1.510000 -5.210000
v 3.610000 1.690000 -5.210000
v -3.610000 1.690000 -5.210000
v -3.610000 1.510000 5.210000
v 3.610000 1.510000 5.210000
v 3.610000 1.690000 5.210000
v -3.610000 1.690000 5.210000
v -3.610000 3.858000 -5.210000
v 3.610000 3.858000 -5.210000
v 3.610000 4.038000 -5.210000
v -3.610000 4.038000 -5.210000
v -3.610000 3.858000 5.210000
v 3.610000 3.858000 5.210000
v 3.610000 4.038000 5.210000
v -3.610000 4.038000 5.210000
v -3.610000 5.958000 -5.210000
v 3.610000 5.958000 -5.210000
v 3.610000 6.138000 -5.210000
v -3.610000 6.138000 -5.210000
v -3.610000 5.958000 5.210000
v 3.610000 5.958000 5.210000
v 3.610000 6.138000 5.210000
v -3.610000 6.138000 5.210000
v -3.640000 4.244000 -2.976000
v -3.500000 4.244000 -2.976000
v -3.500000 5.164000 -2.976000
v -3.640000 5.164000 -2.976000
v -3.640000 4.244000 -2.736000
v -3.500000 4.244000 -2.736000
v -3.500000 5.164000 -2.736000
v -3.640000 5.164000 -2.736000
v 3.500000 4.244000 -2.976000
v 3.640000 4.244000 -2.976000
v 3.640000 5.164000 -2.976000
v 3.500000 5.164000 -2.976000
v 3.500000 4.244000 -2.736000
v 3.640000 4.244000 -2.736000
v 3.640000 5.164000 -2.736000
v 3.500000 5.164000 -2.736000
v -3.640000 4.244000 -0.120000
v -3.500000 4.244000 -0.120000
v -3.500000 5.164000 -0.120000
v -3.640000 5.164000 -0.120000
v -3.640000 4.244000 0.120000
v -3.500000 4.244000 0.120000
v -3.500000 5.164000 0.120000
v -3.640000 5.164000 0.120000
v 3.500000 4.244000 -0.120000
v 3.640000 4.244000 -0.120000
v 3.640000 5.164000 -0.120000
v 3.500000 5.164000 -0.120000
v 3.500000 4.244000 0.120000
v 3.640000 4.244000 0.120000
v 3.640000 5.164000 0.120000
v 3.500000 5.164000 0.120000
v -3.640000 4.244000 2.736000
v -3.500000 4.244000 2.736000
v -3.500000 5.164000 2.736000
v -3.640000 5.164000 2.736000
v -3.640000 4.244000 2.976000
v -3.500000 4.244000 2.976000
v -3.500000 5.164000 2.976000
v -3.640000 5.164000 2.976000
v 3.500000 4.244000 2.736000
v 3.640000 4.244000 2.736000
v 3.640000 5.164000 2.736000
v 3.500000 5.164000 2.736000
v 3.500000 4.244000 2.976000
v 3.640000 4.244000 2.976000
v 3.640000 5.164000 2.976000
v 3.500000 5.164000 2.976000
v -3.775000 8.295000 -5.375000
v 3.775000 8.295000 -5.375000
v 3.775000 8.745000 -5.375000
v -3.775000 8.745000 -5.375000
v -3.775000 8.295000 5.375000
v 3.775000 8.295000 5.375000
v 3.775000 8.745000 5.375000
v -3.775000 8.745000 5.375000
v -3.440000 8.610000 -4.676000
v -2.720000 8.610000 -4.676000
v -2.720000 9.630000 -4.676000
v -3.440000 9.630000 -4.676000
v -3.440000 8.610000 -4.096000
v -2.720000 8.610000 -4.096000
v -2.720000 9.630000 -4.096000
v -3.440000 9.630000 -4.096000
v 2.720000 8.610000 -4.676000
v 3.440000 8.610000 -4.676000
v 3.440000 9.630000 -4.676000
v 2.720000 9.630000 -4.676000
v 2.720000 8.610000 -4.096000
v 3.440000 8.610000 -4.096000
v 3.440000 9.630000 -4.096000
v 2.720000 9.630000 -4.096000
v -3.440000 8.610000 -3.798800
v -2.720000 8.610000 -3.798800
v -2.720000 9.630000 -3.798800
v -3.440000 9.630000 -3.798800
v -3.440000 8.610000 -3.218800
v -2.720000 8.610000 -3.218800
v -2.720000 9.630000 -3.218800
v -3.440000 9.630000 -3.218800
v 2.720000 8.610000 -3.798800
v 3.440000 8.610000 -3.798800
v 3.440000 9.630000 -3.798800
v 2.720000 9.630000 -3.798800
v 2.720000 8.610000 -3.218800
v 3.440000 8.610000 -3.218800
v 3.440000 9.630000 -3.218800
v 2.720000 9.630000 -3.218800
v -3.440000 8.610000 -2.921600
v -2.720000 8.610000 -2.921600
v -2.720000 9.630000 -2.921600
v -3.440000 9.630000 -2.921600
v -3.440000 8.610000 -2.341600
v -2.720000 8.610000 -2.341600
v -2.720000 9.630000 -2.341600
v -3.440000 9.630000 -2.341600
v 2.720000 8.610000 -2.921600
v 3.440000 8.610000 -2.921600
v 3.440000 9.630000 -2.921600
v 2.720000 9.630000 -2.921600
v 2.720000 8.610000 -2.341600
v 3.440000 8.610000 -2.341600
v 3.440000 9.630000 -2.341600
v 2.720000 9.630000 -2.341600
v -3.440000 8.610000 -2.044400
v -2.720000 8.610000 -2.044400
v -2.720000 9.630000 -2.044400
v -3.440000 9.630000 -2.044400
v -3.440000 8.610000 -1.464400
v -2.720000 8.610000 -1.464400
v -2.720000 9.630000 -1.464400
v -3.440000 9.630000 -1.464400
v 2.720000 8.610000 -2.044400
v 3.440000 8.610000 -2.044400
v 3.440000 9.630000 -2.044400
v 2.720000 9.630000 -2.044400
v 2.720000 8.610000 -1.464400
v 3.440000 8.610000 -1.464400
v 3.440000 9.630000 -1.464400
v 2.720000 9.630000 -1.464400
v -3.440000 8.610000 -1.167200
v -2.720000 8.610000 -1.167200
v -2.720000 9.630000 -1.167200
v -3.440000 9.630000 -1.167200
v -3.440000 8.610000 -0.587200
v -2.720000 8.610000 -0.587200
v -2.720000 9.630000 -0.587200
v -3.440000 9.630000 -0.587200
v 2.720000 8.610000 -1.167200
v 3.440000 8.610000 -1.167200
v 3.440000 9.630000 -1.167200
v 2.720000 9.630000 -1.167200
v 2.720000 8.610000 -0.587200
v 3.440000 8.610000 -0.587200
v 3.440000 9.630000 -0.587200
v 2.720000 9.630000 -0.587200
v -3.440000 8.610000 -0.290000
v -2.720000 8.610000 -0.290000
v -2.720000 9.630000 -0.290000
v -3.440000 9.630000 -0.290000
v -3.440000 8.610000 0.290000
v -2.720000 8.610000 0.290000
v -2.720000 9.630000 0.290000
v -3.440000 9.630000 0.290000
v 2.720000 8.610000 -0.290000
v 3.440000 8.610000 -0.290000
v 3.440000 9.630000 -0.290000
v 2.720000 9.630000 -0.290000
v 2.720000 8.610000 0.290000
v 3.440000 8.610000 0.290000
v 3.440000 9.630000 0.290000
v 2.720000 9.630000 0.290000
v -3.440000 8.610000 0.587200
v -2.720000 8.610000 0.587200
v -2.720000 9.630000 0.587200
v -3.440000 9.630000 0.587200
v -3.440000 8.610000 1.167200
v -2.720000 8.610000 1.167200
v -2.720000 9.630000 1.167200
v -3.440000 9.630000 1.167200
v 2.720000 8.610000 0.587200
v 3.440000 8.610000 0.587200
v 3.440000 9.630000 0.587200
v 2.720000 9.630000 0.587200
v 2.720000 8.610000 1.167200
v 3.440000 8.610000 1.167200
v 3.440000 9.630000 1.167200
v 2.720000 9.630000 1.167200
v -3.440000 8.610000 1.464400
v -2.720000 8.610000 1.464400
v -2.720000 9.630000 1.464400
v -3.440000 9.630000 1.464400
v -3.440000 8.610000 2.044400
v -2.720000 8.610000 2.044400
v -2.720000 9.630000 2.044400
v -3.440000 9.630000 2.044400
v 2.720000 8.610000 1.464400
v 3.440000 8.610000 1.464400
v 3.440000 9.630000 1.464400
v 2.720000 9.630000 1.464400
v 2.720000 8.610000 2.044400
v 3.440000 8.610000 2.044400
v 3.440000 9.630000 2.044400
v 2.720000 9.630000 2.044400
v -3.440000 8.610000 2.341600
v -2.720000 8.610000 2.341600
v -2.720000 9.630000 2.341600
v -3.440000 9.630000 2.341600
v -3.440000 8.610000 2.921600
v -2.720000 8.610000 2.921600
v -2.720000 9.630000 2.921600
v -3.440000 9.630000 2.921600
v 2.720000 8.610000 2.341600
v 3.440000 8.610000 2.341600
v 3.440000 9.630000 2.341600
v 2.720000 9.630000 2.341600
v 2.720000 8.610000 2.921600
v 3.440000 8.610000 2.921600
v 3.440000 9.630000 2.921600
v 2.720000 9.630000 2.921600
v -3.440000 8.610000 3.218800
v -2.720000 8.610000 3.218800
v -2.720000 9.630000 3.218800
v -3.440000 9.630000 3.218800
v -3.440000 8.610000 3.798800
v -2.720000 8.610000 3.798800
v -2.720000 9.630000 3.798800
v -3.440000 9.630000 3.798800
v 2.720000 8.610000 3.218800
v 3.440000 8.610000 3.218800
v 3.440000 9.630000 3.218800
v 2.720000 9.630000 3.218800
v 2.720000 8.610000 3.798800
v 3.440000 8.610000 3.798800
v 3.440000 9.630000 3.798800
v 2.720000 9.630000 3.798800
v -3.440000 8.610000 4.096000
v -2.720000 8.610000 4.096000
v -2.720000 9.630000 4.096000
v -3.440000 9.630000 4.096000
v -3.440000 8.610000 4.676000
v -2.720000 8.610000 4.676000
v -2.720000 9.630000 4.676000
v -3.440000 9.630000 4.676000
v 2.720000 8.610000 4.096000
v 3.440000 8.610000 4.096000
v 3.440000 9.630000 4.096000
v 2.720000 9.630000 4.096000
v 2.720000 8.610000 4.676000
v 3.440000 8.610000 4.676000
v 3.440000 9.630000 4.676000
v 2.720000 9.630000 4.676000
v -1.765239 8.720000 -3.347508
v -1.841324 11.620000 -3.372229
v -2.026795 8.720000 -2.987508
v -2.073817 11.620000 -3.052229
v -2.450000 8.720000 -2.850000
v -2.450000 11.620000 -2.930000
v -2.873205 8.720000 -2.987508
v -2.826183 11.620000 -3.052229
v -3.134761 8.720000 -3.347508
v -3.058676 11.620000 -3.372229
v -3.134761 8.720000 -3.792492
v -3.058676 11.620000 -3.767771
v -2.873205 8.720000 -4.152492
v -2.826183 11.620000 -4.087771
v -2.450000 8.720000 -4.290000
v -2.450000 11.620000 -4.210000
v -2.026795 8.720000 -4.152492
v -2.073817 11.620000 -4.087771
v -1.765239 8.720000 -3.792492
v -1.841324 11.620000 -3.767771
v -2.290000 11.620000 -3.570000
v -2.336863 11.620000 -3.456863
v -2.450000 11.620000 -3.410000
v -2.563137 11.620000 -3.456863
v -2.610000 11.620000 -3.570000
v -2.563137 11.620000 -3.683137
v -2.450000 11.620000 -3.730000
v -2.336863 11.620000 -3.683137
v -2.370085 12.616802 -3.570000
v -1.765239 8.720000 3.792492
v -1.841324 11.620000 3.767771
v -2.026795 8.720000 4.152492
v -2.073817 11.620000 4.087771
v -2.450000 8.720000 4.290000
v -2.450000 11.620000 4.210000
v -2.873205 8.720000 4.152492
v -2.826183 11.620000 4.087771
v -3.134761 8.720000 3.792492
v -3.058676 11.620000 3.767771
v -3.134761 8.720000 3.347508
v -3.058676 11.620000 3.372229
v -2.873205 8.720000 2.987508
v -2.826183 11.620000 3.052229
v -2.450000 8.720000 2.850000
v -2.450000 11.620000 2.930000
v -2.026795 8.720000 2.987508
v -2.073817 11.620000 3.052229
v -1.765239 8.720000 3.347508
v -1.841324 11.620000 3.372229
v -2.290000 11.620000 3.570000
v -2.336863 11.620000 3.683137
v -2.450000 11.620000 3.730000
v -2.563137 11.620000 3.683137
v -2.610000 11.620000 3.570000
v -2.563137 11.620000 3.456863
v -2.450000 11.620000 3.410000
v -2.336863 11.620000 3.456863
v -2.370085 12.616802 3.570000
v 3.134761 8.720000 -3.347508
v 3.058676 11.620000 -3.372229
v 2.873205 8.720000 -2.987508
v 2.826183 11.620000 -3.052229
v 2.450000 8.720000 -2.850000
v 2.450000 11.620000 -2.930000
v 2.026795 8.720000 -2.987508
v 2.073817 11.620000 -3.052229
v 1.765239 8.720000 -3.347508
v 1.841324 11.620000 -3.372229
v 1.765239 8.720000 -3.792492
v 1.841324 11.620000 -3.767771
v 2.026795 8.720000 -4.152492
v 2.073817 11.620000 -4.087771
v 2.450000 8.720000 -4.290000
v 2.450000 11.620000 -4.210000
v 2.873205 8.720000 -4.152492
v 2.826183 11.620000 -4.087771
v 3.134761 8.720000 -3.792492
v 3.058676 11.620000 -3.767771
v 2.610000 11.620000 -3.570000
v 2.563137 11.620000 -3.456863
v 2.450000 11.620000 -3.410000
v 2.336863 11.620000 -3.456863
v 2.290000 11.620000 -3.570000
v 2.336863 11.620000 -3.683137
v 2.450000 11.620000 -3.730000
v 2.563137 11.620000 -3.683137
v 2.529915 12.616802 -3.570000
v 3.134761 8.720000 3.792492
v 3.058676 11.620000 3.767771
v 2.873205 8.720000 4.152492
v 2.826183 11.620000 4.087771
v 2.450000 8.720000 4.290000
v 2.450000 11.620000 4.210000
v 2.026795 8.720000 4.152492
v 2.073817 11.620000 4.087771
v 1.765239 8.720000 3.792492
v 1.841324 11.620000 3.767771
v 1.765239 8.720000 3.347508
v 1.841324 11.620000 3.372229
v 2.026795 8.720000 2.987508
v 2.073817 11.620000 3.052229
v 2.450000 8.720000 2.850000
v 2.450000 11.620000 2.930000
v 2.873205 8.720000 2.987508
v 2.826183 11.620000 3.052229
v 3.134761 8.720000 3.347508
v 3.058676 11.620000 3.372229
v 2.610000 11.620000 3.570000
v 2.563137 11.620000 3.683137
v 2.450000 11.620000 3.730000
v 2.336863 11.620000 3.683137
v 2.290000 11.620000 3.570000
v 2.336863 11.620000 3.456863
v 2.450000 11.620000 3.410000
v 2.563137 11.620000 3.456863
v 2.529915 12.616802 3.570000
f 4 3 2 1
f 7 8 5 6
f 8 4 1 5
f 3 7 6 2
f 8 7 3 4
f 1 2 6 5
f 12 11 10 9
f 15 16 13 14
f 16 12 9 13
f 11 15 14 10
f 16 15 11 12
f 9 10 14 13
f 20 19 18 17
f 23 24 21 22
f 24 20 17 21
f 19 23 22 18
f 24 23 19 20
f 17 18 22 21
f 28 27 26 25
f 31 32 29 30
f 32 28 25 29
f 27 31 30 26
f 32 31 27 28
f 25 26 30 29
f 36 35 34 33
f 39 40 37 38
f 40 36 33 37
f 35 39 38 34
f 40 39 35 36
f 33 34 38 37
f 44 43 42 41
f 47 48 45 46
f 48 44 41 45
f 43 47 46 42
f 48 47 43 44
f 41 42 46 45
f 52 51 50 49
f 55 56 53 54
f 56 52 49 53
f 51 55 54 50
f 56 55 51 52
f 49 50 54 53
f 60 59 58 57
f 63 64 61 62
f 64 60 57 61
f 59 63 62 58
f 64 63 59 60
f 57 58 62 61
f 68 67 66 65
f 71 72 69 70
f 72 68 65 69
f 67 71 70 66
f 72 71 67 68
f 65 66 70 69
f 76 75 74 73
f 79 80 77 78
f 80 76 73 77
f 75 79 78 74
f 80 79 75 76
f 73 74 78 77
f 84 83 82 81
f 87 88 85 86
f 88 84 81 85
f 83 87 86 82
f 88 87 83 84
f 81 82 86 85
f 92 91 90 89
f 95 96 93 94
f 96 92 89 93
f 91 95 94 90
f 96 95 91 92
f 89 90 94 93
f 100 99 98 97
f 103 104 101 102
f 104 100 97 101
f 99 103 102 98
f 104 103 99 100
f 97 98 102 101
f 108 107 106 105
f 111 112 109 110
f 112 108 105 109
f 107 111 110 106
f 112 111 107 108
f 105 106 110 109
f 116 115 114 113
f 119 120 117 118
f 120 116 113 117
f 115 119 118 114
f 120 119 115 116
f 113 114 118 117
f 124 123 122 121
f 127 128 125 126
f 128 124 121 125
f 123 127 126 122
f 128 127 123 124
f 121 122 126 125
f 132 131 130 129
f 135 136 133 134
f 136 132 129 133
f 131 135 134 130
f 136 135 131 132
f 129 130 134 133
f 140 139 138 137
f 143 144 141 142
f 144 140 137 141
f 139 143 142 138
f 144 143 139 140
f 137 138 142 141
f 148 147 146 145
f 151 152 149 150
f 152 148 145 149
f 147 151 150 146
f 152 151 147 148
f 145 146 150 149
f 156 155 154 153
f 159 160 157 158
f 160 156 153 157
f 155 159 158 154
f 160 159 155 156
f 153 154 158 157
f 164 163 162 161
f 167 168 165 166
f 168 164 161 165
f 163 167 166 162
f 168 167 163 164
f 161 162 166 165
f 172 171 170 169
f 175 176 173 174
f 176 172 169 173
f 171 175 174 170
f 176 175 171 172
f 169 170 174 173
f 180 179 178 177
f 183 184 181 182
f 184 180 177 181
f 179 183 182 178
f 184 183 179 180
f 177 178 182 181
f 188 187 186 185
f 191 192 189 190
f 192 188 185 189
f 187 191 190 186
f 192 191 187 188
f 185 186 190 189
f 196 195 194 193
f 199 200 197 198
f 200 196 193 197
f 195 199 198 194
f 200 199 195 196
f 193 194 198 197
f 204 203 202 201
f 207 208 205 206
f 208 204 201 205
f 203 207 206 202
f 208 207 203 204
f 201 202 206 205
f 212 211 210 209
f 215 216 213 214
f 216 212 209 213
f 211 215 214 210
f 216 215 211 212
f 209 210 214 213
f 220 219 218 217
f 223 224 221 222
f 224 220 217 221
f 219 223 222 218
f 224 223 219 220
f 217 218 222 221
f 228 227 226 225
f 231 232 229 230
f 232 228 225 229
f 227 231 230 226
f 232 231 227 228
f 225 226 230 229
f 236 235 234 233
f 239 240 237 238
f 240 236 233 237
f 235 239 238 234
f 240 239 235 236
f 233 234 238 237
f 244 243 242 241
f 247 248 245 246
f 248 244 241 245
f 243 247 246 242
f 248 247 243 244
f 241 242 246 245
f 252 251 250 249
f 255 256 253 254
f 256 252 249 253
f 251 255 254 250
f 256 255 251 252
f 249 250 254 253
f 260 259 258 257
f 263 264 261 262
f 264 260 257 261
f 259 263 262 258
f 264 263 259 260
f 257 258 262 261
f 268 267 266 265
f 271 272 269 270
f 272 268 265 269
f 267 271 270 266
f 272 271 267 268
f 265 266 270 269
f 276 275 274 273
f 279 280 277 278
f 280 276 273 277
f 275 279 278 274
f 280 279 275 276
f 273 274 278 277
f 284 283 282 281
f 287 288 285 286
f 288 284 281 285
f 283 287 286 282
f 288 287 283 284
f 281 282 286 285
f 292 291 290 289
f 295 296 293 294
f 296 292 289 293
f 291 295 294 290
f 296 295 291 292
f 289 290 294 293
f 300 299 298 297
f 303 304 301 302
f 304 300 297 301
f 299 303 302 298
f 304 303 299 300
f 297 298 302 301
f 306 308 307 305
f 308 310 309 307
f 310 312 311 309
f 312 314 313 311
f 314 316 315 313
f 316 318 317 315
f 318 320 319 317
f 320 322 321 319
f 322 324 323 321
f 324 306 305 323
f 305 307 309 311 313 315 317 319 321 323
f 324 322 320 318 316 314 312 310 308 306
f 333 326 325
f 333 327 326
f 333 328 327
f 333 329 328
f 333 330 329
f 333 331 330
f 333 332 331
f 333 325 332
f 325 326 327 328 329 330 331 332
f 335 337 336 334
f 337 339 338 336
f 339 341 340 338
f 341 343 342 340
f 343 345 344 342
f 345 347 346 344
f 347 349 348 346
f 349 351 350 348
f 351 353 352 350
f 353 335 334 352
f 334 336 338 340 342 344 346 348 350 352
f 353 351 349 347 345 343 341 339 337 335
f 362 355 354
f 362 356 355
f 362 357 356
f 362 358 357
f 362 359 358
f 362 360 359
f 362 361 360
f 362 354 361
f 354 355 356 357 358 359 360 361
f 364 366 365 363
f 366 368 367 365
f 368 370 369 367
f 370 372 371 369
f 372 374 373 371
f 374 376 375 373
f 376 378 377 375
f 378 380 379 377
f 380 382 381 379
f 382 364 363 381
f 363 365 367 369 371 373 375 377 379 381
f 382 380 378 376 374 372 370 368 366 364
f 391 384 383
f 391 385 384
f 391 386 385
f 391 387 386
f 391 388 387
f 391 389 388
f 391 390 389
f 391 383 390
f 383 384 385 386 387 388 389 390
f 393 395 394 392
f 395 397 396 394
f 397 399 398 396
f 399 401 400 398
f 401 403 402 400
f 403 405 404 402
f 405 407 406 404
f 407 409 408 406
f 409 411 410 408
f 411 393 392 410
f 392 394 396 398 400 402 404 406 408 410
f 411 409 407 405 403 401 399 397 395 393
f 420 413 412
f 420 414 413
f 420 415 414
f 420 416 415
f 420 417 416
f 420 418 417
f 420 419 418
f 420 412 419
f 412 413 414 415 416 417 418 419
