o human_wall_iron
s off
v -0.60667 0.08392 -4.28000
v 0.61327 0.09612 -4.28000
v 0.60667 0.75608 -4.28000
v -0.61327 0.74388 -4.28000
v -0.60667 0.08392 -3.40000
v 0.61327 0.09612 -3.40000
v 0.60667 0.75608 -3.40000
v -0.61327 0.74388 -3.40000
v -0.61327 0.09612 -3.32000
v 0.60667 0.08392 -3.32000
v 0.61327 0.74388 -3.32000
v -0.60667 0.75608 -3.32000
v -0.61327 0.09612 -2.44000
v 0.60667 0.08392 -2.44000
v 0.61327 0.74388 -2.44000
v -0.60667 0.75608 -2.44000
v -0.61000 0.09000 -2.36000
v 0.61000 0.09000 -2.36000
v 0.61000 0.75000 -2.36000
v -0.61000 0.75000 -2.36000
v -0.61000 0.09000 -1.48000
v 0.61000 0.09000 -1.48000
v 0.61000 0.75000 -1.48000
v -0.61000 0.75000 -1.48000
v -0.60667 0.08392 -1.40000
v 0.61327 0.09612 -1.40000
v 0.60667 0.75608 -1.40000
v -0.61327 0.74388 -1.40000
v -0.60667 0.08392 -0.52000
v 0.61327 0.09612 -0.52000
v 0.60667 0.75608 -0.52000
v -0.61327 0.74388 -0.52000
v -0.61327 0.09612 -0.44000
v 0.60667 0.08392 -0.44000
v 0.61327 0.74388 -0.44000
v -0.60667 0.75608 -0.44000
v -0.61327 0.09612 0.44000
v 0.60667 0.08392 0.44000
v 0.61327 0.74388 0.44000
v -0.60667 0.75608 0.44000
v -0.61000 0.09000 0.52000
v 0.61000 0.09000 0.52000
v 0.61000 0.75000 0.52000
v -0.61000 0.75000 0.52000
v -0.61000 0.09000 1.40000
v 0.61000 0.09000 1.40000
v 0.61000 0.75000 1.40000
v -0.61000 0.75000 1.40000
v -0.60667 0.08392 1.48000
v 0.61327 0.09612 1.48000
v 0.60667 0.75608 1.48000
v -0.61327 0.74388 1.48000
v -0.60667 0.08392 2.36000
v 0.61327 0.09612 2.36000
v 0.60667 0.75608 2.36000
v -0.61327 0.74388 2.36000
v -0.61327 0.09612 2.44000
v 0.60667 0.08392 2.44000
v 0.61327 0.74388 2.44000
v -0.60667 0.75608 2.44000
v -0.61327 0.09612 3.32000
v 0.60667 0.08392 3.32000
v 0.61327 0.74388 3.32000
v -0.60667 0.75608 3.32000
v -0.61000 0.09000 3.40000
v 0.61000 0.09000 3.40000
v 0.61000 0.75000 3.40000
v -0.61000 0.75000 3.40000
v -0.61000 0.09000 4.28000
v 0.61000 0.09000 4.28000
v 0.61000 0.75000 4.28000
v -0.61000 0.75000 4.28000
v -0.60667 0.80392 -4.76000
v 0.61327 0.81612 -4.76000
v 0.60667 1.47608 -4.76000
v -0.61327 1.46388 -4.76000
v -0.60667 0.80392 -3.88000
v 0.61327 0.81612 -3.88000
v 0.60667 1.47608 -3.88000
v -0.61327 1.46388 -3.88000
v -0.61327 0.81612 -3.80000
v 0.60667 0.80392 -3.80000
v 0.61327 1.46388 -3.80000
v -0.60667 1.47608 -3.80000
v -0.61327 0.81612 -2.92000
v 0.60667 0.80392 -2.92000
v 0.61327 1.46388 -2.92000
v -0.60667 1.47608 -2.92000
v -0.61000 0.81000 -2.84000
v 0.61000 0.81000 -2.84000
v 0.61000 1.47000 -2.84000
v -0.61000 1.47000 -2.84000
v -0.61000 0.81000 -1.96000
v 0.61000 0.81000 -1.96000
v 0.61000 1.47000 -1.96000
v -0.61000 1.47000 -1.96000
v -0.60667 0.80392 -1.88000
v 0.61327 0.81612 -1.88000
v 0.60667 1.47608 -1.88000
v -0.61327 1.46388 -1.88000
v -0.60667 0.80392 -1.00000
v 0.61327 0.81612 -1.00000
v 0.60667 1.47608 -1.00000
v -0.61327 1.46388 -1.00000
v -0.61327 0.81612 -0.92000
v 0.60667 0.80392 -0.92000
v 0.61327 1.46388 -0.92000
v -0.60667 1.47608 -0.92000
v -0.61327 0.81612 -0.04000
v 0.60667 0.80392 -0.04000
v 0.61327 1.46388 -0.04000
v -0.60667 1.47608 -0.04000
v -0.61000 0.81000 0.04000
v 0.61000 0.81000 0.04000
v 0.61000 1.47000 0.04000
v -0.61000 1.47000 0.04000
v -0.61000 0.81000 0.92000
v 0.61000 0.81000 0.92000
v 0.61000 1.47000 0.92000
v -0.61000 1.47000 0.92000
v -0.60667 0.80392 1.00000
v 0.61327 0.81612 1.00000
v 0.60667 1.47608 1.00000
v -0.61327 1.46388 1.00000
v -0.60667 0.80392 1.88000
v 0.61327 0.81612 1.88000
v 0.60667 1.47608 1.88000
v -0.61327 1.46388 1.88000
v -0.61327 0.81612 1.96000
v 0.60667 0.80392 1.96000
v 0.61327 1.46388 1.96000
v -0.60667 1.47608 1.96000
v -0.61327 0.81612 2.84000
v 0.60667 0.80392 2.84000
v 0.61327 1.46388 2.84000
v -0.60667 1.47608 2.84000
v -0.61000 0.81000 2.92000
v 0.61000 0.81000 2.92000
v 0.61000 1.47000 2.92000
v -0.61000 1.47000 2.92000
v -0.61000 0.81000 3.80000
v 0.61000 0.81000 3.80000
v 0.61000 1.47000 3.80000
v -0.61000 1.47000 3.80000
v -0.60667 0.80392 3.88000
v 0.61327 0.81612 3.88000
v 0.60667 1.47608 3.88000
v -0.61327 1.46388 3.88000
v -0.60667 0.80392 4.76000
v 0.61327 0.81612 4.76000
v 0.60667 1.47608 4.76000
v -0.61327 1.46388 4.76000
v -0.61000 1.53000 -4.28000
v 0.61000 1.53000 -4.28000
v 0.61000 2.19000 -4.28000
v -0.61000 2.19000 -4.28000
v -0.61000 1.53000 -3.40000
v 0.61000 1.53000 -3.40000
v 0.61000 2.19000 -3.40000
v -0.61000 2.19000 -3.40000
v -0.60667 1.52392 -3.32000
v 0.61327 1.53612 -3.32000
v 0.60667 2.19608 -3.32000
v -0.61327 2.18388 -3.32000
v -0.60667 1.52392 -2.44000
v 0.61327 1.53612 -2.44000
v 0.60667 2.19608 -2.44000
v -0.61327 2.18388 -2.44000
v -0.61327 1.53612 -2.36000
v 0.60667 1.52392 -2.36000
v 0.61327 2.18388 -2.36000
v -0.60667 2.19608 -2.36000
v -0.61327 1.53612 -1.48000
v 0.60667 1.52392 -1.48000
v 0.61327 2.18388 -1.48000
v -0.60667 2.19608 -1.48000
v -0.61000 1.53000 -1.40000
v 0.61000 1.53000 -1.40000
v 0.61000 2.19000 -1.40000
v -0.61000 2.19000 -1.40000
v -0.61000 1.53000 -0.52000
v 0.61000 1.53000 -0.52000
v 0.61000 2.19000 -0.52000
v -0.61000 2.19000 -0.52000
v -0.60667 1.52392 -0.44000
v 0.61327 1.53612 -0.44000
v 0.60667 2.19608 -0.44000
v -0.61327 2.18388 -0.44000
v -0.60667 1.52392 0.44000
v 0.61327 1.53612 0.44000
v 0.60667 2.19608 0.44000
v -0.61327 2.18388 0.44000
v -0.61327 1.53612 0.52000
v 0.60667 1.52392 0.52000
v 0.61327 2.18388 0.52000
v -0.60667 2.19608 0.52000
v -0.61327 1.53612 1.40000
v 0.60667 1.52392 1.40000
v 0.61327 2.18388 1.40000
v -0.60667 2.19608 1.40000
v -0.61000 1.53000 1.48000
v 0.61000 1.53000 1.48000
v 0.61000 2.19000 1.48000
v -0.61000 2.19000 1.48000
v -0.61000 1.53000 2.36000
v 0.61000 1.53000 2.36000
v 0.61000 2.19000 2.36000
v -0.61000 2.19000 2.36000
v -0.60667 1.52392 2.44000
v 0.61327 1.53612 2.44000
v 0.60667 2.19608 2.44000
v -0.61327 2.18388 2.44000
v -0.60667 1.52392 3.32000
v 0.61327 1.53612 3.32000
v 0.60667 2.19608 3.32000
v -0.61327 2.18388 3.32000
v -0.61327 1.53612 3.40000
v 0.60667 1.52392 3.40000
v 0.61327 2.18388 3.40000
v -0.60667 2.19608 3.40000
v -0.61327 1.53612 4.28000
v 0.60667 1.52392 4.28000
v 0.61327 2.18388 4.28000
v -0.60667 2.19608 4.28000
v -0.61000 2.25000 -4.76000
v 0.61000 2.25000 -4.76000
v 0.61000 2.91000 -4.76000
v -0.61000 2.91000 -4.76000
v -0.61000 2.25000 -3.88000
v 0.61000 2.25000 -3.88000
v 0.61000 2.91000 -3.88000
v -0.61000 2.91000 -3.88000
v -0.60667 2.24392 -3.80000
v 0.61327 2.25612 -3.80000
v 0.60667 2.91608 -3.80000
v -0.61327 2.90388 -3.80000
v -0.60667 2.24392 -2.92000
v 0.61327 2.25612 -2.92000
v 0.60667 2.91608 -2.92000
v -0.61327 2.90388 -2.92000
v -0.61327 2.25612 -2.84000
v 0.60667 2.24392 -2.84000
v 0.61327 2.90388 -2.84000
v -0.60667 2.91608 -2.84000
v -0.61327 2.25612 -1.96000
v 0.60667 2.24392 -1.96000
v 0.61327 2.90388 -1.96000
v -0.60667 2.91608 -1.96000
v -0.61000 2.25000 -1.88000
v 0.61000 2.25000 -1.88000
v 0.61000 2.91000 -1.88000
v -0.61000 2.91000 -1.88000
v -0.61000 2.25000 -1.00000
v 0.61000 2.25000 -1.00000
v 0.61000 2.91000 -1.00000
v -0.61000 2.91000 -1.00000
v -0.60667 2.24392 -0.92000
v 0.61327 2.25612 -0.92000
v 0.60667 2.91608 -0.92000
v -0.61327 2.90388 -0.92000
v -0.60667 2.24392 -0.04000
v 0.61327 2.25612 -0.04000
v 0.60667 2.91608 -0.04000
v -0.61327 2.90388 -0.04000
v -0.61327 2.25612 0.04000
v 0.60667 2.24392 0.04000
v 0.61327 2.90388 0.04000
v -0.60667 2.91608 0.04000
v -0.61327 2.25612 0.92000
v 0.60667 2.24392 0.92000
v 0.61327 2.90388 0.92000
v -0.60667 2.91608 0.92000
v -0.61000 2.25000 1.00000
v 0.61000 2.25000 1.00000
v 0.61000 2.91000 1.00000
v -0.61000 2.91000 1.00000
v -0.61000 2.25000 1.88000
v 0.61000 2.25000 1.88000
v 0.61000 2.91000 1.88000
v -0.61000 2.91000 1.88000
v -0.60667 2.24392 1.96000
v 0.61327 2.25612 1.96000
v 0.60667 2.91608 1.96000
v -0.61327 2.90388 1.96000
v -0.60667 2.24392 2.84000
v 0.61327 2.25612 2.84000
v 0.60667 2.91608 2.84000
v -0.61327 2.90388 2.84000
v -0.61327 2.25612 2.92000
v 0.60667 2.24392 2.92000
v 0.61327 2.90388 2.92000
v -0.60667 2.91608 2.92000
v -0.61327 2.25612 3.80000
v 0.60667 2.24392 3.80000
v 0.61327 2.90388 3.80000
v -0.60667 2.91608 3.80000
v -0.61000 2.25000 3.88000
v 0.61000 2.25000 3.88000
v 0.61000 2.91000 3.88000
v -0.61000 2.91000 3.88000
v -0.61000 2.25000 4.76000
v 0.61000 2.25000 4.76000
v 0.61000 2.91000 4.76000
v -0.61000 2.91000 4.76000
v -0.61327 2.97612 -4.28000
v 0.60667 2.96392 -4.28000
v 0.61327 3.62388 -4.28000
v -0.60667 3.63608 -4.28000
v -0.61327 2.97612 -3.40000
v 0.60667 2.96392 -3.40000
v 0.61327 3.62388 -3.40000
v -0.60667 3.63608 -3.40000
v -0.61000 2.97000 -3.32000
v 0.61000 2.97000 -3.32000
v 0.61000 3.63000 -3.32000
v -0.61000 3.63000 -3.32000
v -0.61000 2.97000 -2.44000
v 0.61000 2.97000 -2.44000
v 0.61000 3.63000 -2.44000
v -0.61000 3.63000 -2.44000
v -0.60667 2.96392 -2.36000
v 0.61327 2.97612 -2.36000
v 0.60667 3.63608 -2.36000
v -0.61327 3.62388 -2.36000
v -0.60667 2.96392 -1.48000
v 0.61327 2.97612 -1.48000
v 0.60667 3.63608 -1.48000
v -0.61327 3.62388 -1.48000
v -0.61327 2.97612 -1.40000
v 0.60667 2.96392 -1.40000
v 0.61327 3.62388 -1.40000
v -0.60667 3.63608 -1.40000
v -0.61327 2.97612 -0.52000
v 0.60667 2.96392 -0.52000
v 0.61327 3.62388 -0.52000
v -0.60667 3.63608 -0.52000
v -0.61000 2.97000 -0.44000
v 0.61000 2.97000 -0.44000
v 0.61000 3.63000 -0.44000
v -0.61000 3.63000 -0.44000
v -0.61000 2.97000 0.44000
v 0.61000 2.97000 0.44000
v 0.61000 3.63000 0.44000
v -0.61000 3.63000 0.44000
v -0.60667 2.96392 0.52000
v 0.61327 2.97612 0.52000
v 0.60667 3.63608 0.52000
v -0.61327 3.62388 0.52000
v -0.60667 2.96392 1.40000
v 0.61327 2.97612 1.40000
v 0.60667 3.63608 1.40000
v -0.61327 3.62388 1.40000
v -0.61327 2.97612 1.48000
v 0.60667 2.96392 1.48000
v 0.61327 3.62388 1.48000
v -0.60667 3.63608 1.48000
v -0.61327 2.97612 2.36000
v 0.60667 2.96392 2.36000
v 0.61327 3.62388 2.36000
v -0.60667 3.63608 2.36000
v -0.61000 2.97000 2.44000
v 0.61000 2.97000 2.44000
v 0.61000 3.63000 2.44000
v -0.61000 3.63000 2.44000
v -0.61000 2.97000 3.32000
v 0.61000 2.97000 3.32000
v 0.61000 3.63000 3.32000
v -0.61000 3.63000 3.32000
v -0.60667 2.96392 3.40000
v 0.61327 2.97612 3.40000
v 0.60667 3.63608 3.40000
v -0.61327 3.62388 3.40000
v -0.60667 2.96392 4.28000
v 0.61327 2.97612 4.28000
v 0.60667 3.63608 4.28000
v -0.61327 3.62388 4.28000
v -0.61327 3.69612 -4.76000
v 0.60667 3.68392 -4.76000
v 0.61327 4.34388 -4.76000
v -0.60667 4.35608 -4.76000
v -0.61327 3.69612 -3.88000
v 0.60667 3.68392 -3.88000
v 0.61327 4.34388 -3.88000
v -0.60667 4.35608 -3.88000
v -0.61000 3.69000 -3.80000
v 0.61000 3.69000 -3.80000
v 0.61000 4.35000 -3.80000
v -0.61000 4.35000 -3.80000
v -0.61000 3.69000 -2.92000
v 0.61000 3.69000 -2.92000
v 0.61000 4.35000 -2.92000
v -0.61000 4.35000 -2.92000
v -0.60667 3.68392 -2.84000
v 0.61327 3.69612 -2.84000
v 0.60667 4.35608 -2.84000
v -0.61327 4.34388 -2.84000
v -0.60667 3.68392 -1.96000
v 0.61327 3.69612 -1.96000
v 0.60667 4.35608 -1.96000
v -0.61327 4.34388 -1.96000
v -0.61327 3.69612 -1.88000
v 0.60667 3.68392 -1.88000
v 0.61327 4.34388 -1.88000
v -0.60667 4.35608 -1.88000
v -0.61327 3.69612 -1.00000
v 0.60667 3.68392 -1.00000
v 0.61327 4.34388 -1.00000
v -0.60667 4.35608 -1.00000
v -0.61000 3.69000 -0.92000
v 0.61000 3.69000 -0.92000
v 0.61000 4.35000 -0.92000
v -0.61000 4.35000 -0.92000
v -0.61000 3.69000 -0.04000
v 0.61000 3.69000 -0.04000
v 0.61000 4.35000 -0.04000
v -0.61000 4.35000 -0.04000
v -0.60667 3.68392 0.04000
v 0.61327 3.69612 0.04000
v 0.60667 4.35608 0.04000
v -0.61327 4.34388 0.04000
v -0.60667 3.68392 0.92000
v 0.61327 3.69612 0.92000
v 0.60667 4.35608 0.92000
v -0.61327 4.34388 0.92000
v -0.61327 3.69612 1.00000
v 0.60667 3.68392 1.00000
v 0.61327 4.34388 1.00000
v -0.60667 4.35608 1.00000
v -0.61327 3.69612 1.88000
v 0.60667 3.68392 1.88000
v 0.61327 4.34388 1.88000
v -0.60667 4.35608 1.88000
v -0.61000 3.69000 1.96000
v 0.61000 3.69000 1.96000
v 0.61000 4.35000 1.96000
v -0.61000 4.35000 1.96000
v -0.61000 3.69000 2.84000
v 0.61000 3.69000 2.84000
v 0.61000 4.35000 2.84000
v -0.61000 4.35000 2.84000
v -0.60667 3.68392 2.92000
v 0.61327 3.69612 2.92000
v 0.60667 4.35608 2.92000
v -0.61327 4.34388 2.92000
v -0.60667 3.68392 3.80000
v 0.61327 3.69612 3.80000
v 0.60667 4.35608 3.80000
v -0.61327 4.34388 3.80000
v -0.61327 3.69612 3.88000
v 0.60667 3.68392 3.88000
v 0.61327 4.34388 3.88000
v -0.60667 4.35608 3.88000
v -0.61327 3.69612 4.76000
v 0.60667 3.68392 4.76000
v 0.61327 4.34388 4.76000
v -0.60667 4.35608 4.76000
v -0.67000 4.49000 -4.95000
v 0.67000 4.49000 -4.95000
v 0.67000 4.71000 -4.95000
v -0.67000 4.71000 -4.95000
v -0.67000 4.49000 4.95000
v 0.67000 4.49000 4.95000
v 0.67000 4.71000 4.95000
v -0.67000 4.71000 4.95000
v -0.93000 4.62000 -4.62000
v 0.69000 4.62000 -4.62000
v 0.69000 4.98000 -4.62000
v -0.93000 4.98000 -4.62000
v -0.93000 4.62000 -4.28000
v 0.69000 4.62000 -4.28000
v 0.69000 4.98000 -4.28000
v -0.93000 4.98000 -4.28000
v -0.93000 4.62000 -3.72000
v 0.69000 4.62000 -3.72000
v 0.69000 4.98000 -3.72000
v -0.93000 4.98000 -3.72000
v -0.93000 4.62000 -3.38000
v 0.69000 4.62000 -3.38000
v 0.69000 4.98000 -3.38000
v -0.93000 4.98000 -3.38000
v -0.93000 4.62000 -2.82000
v 0.69000 4.62000 -2.82000
v 0.69000 4.98000 -2.82000
v -0.93000 4.98000 -2.82000
v -0.93000 4.62000 -2.48000
v 0.69000 4.62000 -2.48000
v 0.69000 4.98000 -2.48000
v -0.93000 4.98000 -2.48000
v -0.93000 4.62000 -1.92000
v 0.69000 4.62000 -1.92000
v 0.69000 4.98000 -1.92000
v -0.93000 4.98000 -1.92000
v -0.93000 4.62000 -1.58000
v 0.69000 4.62000 -1.58000
v 0.69000 4.98000 -1.58000
v -0.93000 4.98000 -1.58000
v -0.93000 4.62000 -1.02000
v 0.69000 4.62000 -1.02000
v 0.69000 4.98000 -1.02000
v -0.93000 4.98000 -1.02000
v -0.93000 4.62000 -0.68000
v 0.69000 4.62000 -0.68000
v 0.69000 4.98000 -0.68000
v -0.93000 4.98000 -0.68000
v -0.93000 4.62000 0.68000
v 0.69000 4.62000 0.68000
v 0.69000 4.98000 0.68000
v -0.93000 4.98000 0.68000
v -0.93000 4.62000 1.02000
v 0.69000 4.62000 1.02000
v 0.69000 4.98000 1.02000
v -0.93000 4.98000 1.02000
v -0.93000 4.62000 1.58000
v 0.69000 4.62000 1.58000
v 0.69000 4.98000 1.58000
v -0.93000 4.98000 1.58000
v -0.93000 4.62000 1.92000
v 0.69000 4.62000 1.92000
v 0.69000 4.98000 1.92000
v -0.93000 4.98000 1.92000
v -0.93000 4.62000 2.48000
v 0.69000 4.62000 2.48000
v 0.69000 4.98000 2.48000
v -0.93000 4.98000 2.48000
v -0.93000 4.62000 2.82000
v 0.69000 4.62000 2.82000
v 0.69000 4.98000 2.82000
v -0.93000 4.98000 2.82000
v -0.93000 4.62000 3.38000
v 0.69000 4.62000 3.38000
v 0.69000 4.98000 3.38000
v -0.93000 4.98000 3.38000
v -0.93000 4.62000 3.72000
v 0.69000 4.62000 3.72000
v 0.69000 4.98000 3.72000
v -0.93000 4.98000 3.72000
v -0.93000 4.62000 4.28000
v 0.69000 4.62000 4.28000
v 0.69000 4.98000 4.28000
v -0.93000 4.98000 4.28000
v -0.93000 4.62000 4.62000
v 0.69000 4.62000 4.62000
v 0.69000 4.98000 4.62000
v -0.93000 4.98000 4.62000
v -0.71000 4.79000 -4.58000
v 0.71000 4.79000 -4.58000
v 0.71000 5.91000 -4.58000
v -0.71000 5.91000 -4.58000
v -0.71000 4.79000 -3.92000
v 0.71000 4.79000 -3.92000
v 0.71000 5.91000 -3.92000
v -0.71000 5.91000 -3.92000
v -0.71000 4.79000 -3.33000
v 0.71000 4.79000 -3.33000
v 0.71000 5.91000 -3.33000
v -0.71000 5.91000 -3.33000
v -0.71000 4.79000 -2.67000
v 0.71000 4.79000 -2.67000
v 0.71000 5.91000 -2.67000
v -0.71000 5.91000 -2.67000
v -0.71000 4.79000 -2.08000
v 0.71000 4.79000 -2.08000
v 0.71000 5.91000 -2.08000
v -0.71000 5.91000 -2.08000
v -0.71000 4.79000 -1.42000
v 0.71000 4.79000 -1.42000
v 0.71000 5.91000 -1.42000
v -0.71000 5.91000 -1.42000
v -0.71000 4.79000 -0.83000
v 0.71000 4.79000 -0.83000
v 0.71000 5.91000 -0.83000
v -0.71000 5.91000 -0.83000
v -0.71000 4.79000 -0.17000
v 0.71000 4.79000 -0.17000
v 0.71000 5.91000 -0.17000
v -0.71000 5.91000 -0.17000
v -0.71000 4.79000 0.17000
v 0.71000 4.79000 0.17000
v 0.71000 5.91000 0.17000
v -0.71000 5.91000 0.17000
v -0.71000 4.79000 0.83000
v 0.71000 4.79000 0.83000
v 0.71000 5.91000 0.83000
v -0.71000 5.91000 0.83000
v -0.71000 4.79000 1.42000
v 0.71000 4.79000 1.42000
v 0.71000 5.91000 1.42000
v -0.71000 5.91000 1.42000
v -0.71000 4.79000 2.08000
v 0.71000 4.79000 2.08000
v 0.71000 5.91000 2.08000
v -0.71000 5.91000 2.08000
v -0.71000 4.79000 2.67000
v 0.71000 4.79000 2.67000
v 0.71000 5.91000 2.67000
v -0.71000 5.91000 2.67000
v -0.71000 4.79000 3.33000
v 0.71000 4.79000 3.33000
v 0.71000 5.91000 3.33000
v -0.71000 5.91000 3.33000
v -0.71000 4.79000 3.92000
v 0.71000 4.79000 3.92000
v 0.71000 5.91000 3.92000
v -0.71000 5.91000 3.92000
v -0.71000 4.79000 4.58000
v 0.71000 4.79000 4.58000
v 0.71000 5.91000 4.58000
v -0.71000 5.91000 4.58000
v -0.37000 0.05000 -3.98000
v 0.01000 0.05000 -3.98000
v 0.01000 3.85000 -3.98000
v -0.37000 3.85000 -3.98000
v -0.37000 0.05000 -3.32000
v 0.01000 0.05000 -3.32000
v 0.01000 3.85000 -3.32000
v -0.37000 3.85000 -3.32000
v -0.56000 0.00000 -4.14000
v 0.08000 0.00000 -4.14000
v 0.08000 1.10000 -4.14000
v -0.56000 1.10000 -4.14000
v -0.56000 0.00000 -3.16000
v 0.08000 0.00000 -3.16000
v 0.08000 1.10000 -3.16000
v -0.56000 1.10000 -3.16000
v -0.37000 0.05000 -0.33000
v 0.01000 0.05000 -0.33000
v 0.01000 3.85000 -0.33000
v -0.37000 3.85000 -0.33000
v -0.37000 0.05000 0.33000
v 0.01000 0.05000 0.33000
v 0.01000 3.85000 0.33000
v -0.37000 3.85000 0.33000
v -0.56000 0.00000 -0.49000
v 0.08000 0.00000 -0.49000
v 0.08000 1.10000 -0.49000
v -0.56000 1.10000 -0.49000
v -0.56000 0.00000 0.49000
v 0.08000 0.00000 0.49000
v 0.08000 1.10000 0.49000
v -0.56000 1.10000 0.49000
v -0.37000 0.05000 3.32000
v 0.01000 0.05000 3.32000
v 0.01000 3.85000 3.32000
v -0.37000 3.85000 3.32000
v -0.37000 0.05000 3.98000
v 0.01000 0.05000 3.98000
v 0.01000 3.85000 3.98000
v -0.37000 3.85000 3.98000
v -0.56000 0.00000 3.16000
v 0.08000 0.00000 3.16000
v 0.08000 1.10000 3.16000
v -0.56000 1.10000 3.16000
v -0.56000 0.00000 4.14000
v 0.08000 0.00000 4.14000
v 0.08000 1.10000 4.14000
v -0.56000 1.10000 4.14000
f 4 3 2 1
f 7 8 5 6
f 8 4 1 5
f 3 7 6 2
f 8 7 3 4
f 1 2 6 5
f 12 11 10 9
f 15 16 13 14
f 16 12 9 13
f 11 15 14 10
f 16 15 11 12
f 9 10 14 13
f 20 19 18 17
f 23 24 21 22
f 24 20 17 21
f 19 23 22 18
f 24 23 19 20
f 17 18 22 21
f 28 27 26 25
f 31 32 29 30
f 32 28 25 29
f 27 31 30 26
f 32 31 27 28
f 25 26 30 29
f 36 35 34 33
f 39 40 37 38
f 40 36 33 37
f 35 39 38 34
f 40 39 35 36
f 33 34 38 37
f 44 43 42 41
f 47 48 45 46
f 48 44 41 45
f 43 47 46 42
f 48 47 43 44
f 41 42 46 45
f 52 51 50 49
f 55 56 53 54
f 56 52 49 53
f 51 55 54 50
f 56 55 51 52
f 49 50 54 53
f 60 59 58 57
f 63 64 61 62
f 64 60 57 61
f 59 63 62 58
f 64 63 59 60
f 57 58 62 61
f 68 67 66 65
f 71 72 69 70
f 72 68 65 69
f 67 71 70 66
f 72 71 67 68
f 65 66 70 69
f 76 75 74 73
f 79 80 77 78
f 80 76 73 77
f 75 79 78 74
f 80 79 75 76
f 73 74 78 77
f 84 83 82 81
f 87 88 85 86
f 88 84 81 85
f 83 87 86 82
f 88 87 83 84
f 81 82 86 85
f 92 91 90 89
f 95 96 93 94
f 96 92 89 93
f 91 95 94 90
f 96 95 91 92
f 89 90 94 93
f 100 99 98 97
f 103 104 101 102
f 104 100 97 101
f 99 103 102 98
f 104 103 99 100
f 97 98 102 101
f 108 107 106 105
f 111 112 109 110
f 112 108 105 109
f 107 111 110 106
f 112 111 107 108
f 105 106 110 109
f 116 115 114 113
f 119 120 117 118
f 120 116 113 117
f 115 119 118 114
f 120 119 115 116
f 113 114 118 117
f 124 123 122 121
f 127 128 125 126
f 128 124 121 125
f 123 127 126 122
f 128 127 123 124
f 121 122 126 125
f 132 131 130 129
f 135 136 133 134
f 136 132 129 133
f 131 135 134 130
f 136 135 131 132
f 129 130 134 133
f 140 139 138 137
f 143 144 141 142
f 144 140 137 141
f 139 143 142 138
f 144 143 139 140
f 137 138 142 141
f 148 147 146 145
f 151 152 149 150
f 152 148 145 149
f 147 151 150 146
f 152 151 147 148
f 145 146 150 149
f 156 155 154 153
f 159 160 157 158
f 160 156 153 157
f 155 159 158 154
f 160 159 155 156
f 153 154 158 157
f 164 163 162 161
f 167 168 165 166
f 168 164 161 165
f 163 167 166 162
f 168 167 163 164
f 161 162 166 165
f 172 171 170 169
f 175 176 173 174
f 176 172 169 173
f 171 175 174 170
f 176 175 171 172
f 169 170 174 173
f 180 179 178 177
f 183 184 181 182
f 184 180 177 181
f 179 183 182 178
f 184 183 179 180
f 177 178 182 181
f 188 187 186 185
f 191 192 189 190
f 192 188 185 189
f 187 191 190 186
f 192 191 187 188
f 185 186 190 189
f 196 195 194 193
f 199 200 197 198
f 200 196 193 197
f 195 199 198 194
f 200 199 195 196
f 193 194 198 197
f 204 203 202 201
f 207 208 205 206
f 208 204 201 205
f 203 207 206 202
f 208 207 203 204
f 201 202 206 205
f 212 211 210 209
f 215 216 213 214
f 216 212 209 213
f 211 215 214 210
f 216 215 211 212
f 209 210 214 213
f 220 219 218 217
f 223 224 221 222
f 224 220 217 221
f 219 223 222 218
f 224 223 219 220
f 217 218 222 221
f 228 227 226 225
f 231 232 229 230
f 232 228 225 229
f 227 231 230 226
f 232 231 227 228
f 225 226 230 229
f 236 235 234 233
f 239 240 237 238
f 240 236 233 237
f 235 239 238 234
f 240 239 235 236
f 233 234 238 237
f 244 243 242 241
f 247 248 245 246
f 248 244 241 245
f 243 247 246 242
f 248 247 243 244
f 241 242 246 245
f 252 251 250 249
f 255 256 253 254
f 256 252 249 253
f 251 255 254 250
f 256 255 251 252
f 249 250 254 253
f 260 259 258 257
f 263 264 261 262
f 264 260 257 261
f 259 263 262 258
f 264 263 259 260
f 257 258 262 261
f 268 267 266 265
f 271 272 269 270
f 272 268 265 269
f 267 271 270 266
f 272 271 267 268
f 265 266 270 269
f 276 275 274 273
f 279 280 277 278
f 280 276 273 277
f 275 279 278 274
f 280 279 275 276
f 273 274 278 277
f 284 283 282 281
f 287 288 285 286
f 288 284 281 285
f 283 287 286 282
f 288 287 283 284
f 281 282 286 285
f 292 291 290 289
f 295 296 293 294
f 296 292 289 293
f 291 295 294 290
f 296 295 291 292
f 289 290 294 293
f 300 299 298 297
f 303 304 301 302
f 304 300 297 301
f 299 303 302 298
f 304 303 299 300
f 297 298 302 301
f 308 307 306 305
f 311 312 309 310
f 312 308 305 309
f 307 311 310 306
f 312 311 307 308
f 305 306 310 309
f 316 315 314 313
f 319 320 317 318
f 320 316 313 317
f 315 319 318 314
f 320 319 315 316
f 313 314 318 317
f 324 323 322 321
f 327 328 325 326
f 328 324 321 325
f 323 327 326 322
f 328 327 323 324
f 321 322 326 325
f 332 331 330 329
f 335 336 333 334
f 336 332 329 333
f 331 335 334 330
f 336 335 331 332
f 329 330 334 333
f 340 339 338 337
f 343 344 341 342
f 344 340 337 341
f 339 343 342 338
f 344 343 339 340
f 337 338 342 341
f 348 347 346 345
f 351 352 349 350
f 352 348 345 349
f 347 351 350 346
f 352 351 347 348
f 345 346 350 349
f 356 355 354 353
f 359 360 357 358
f 360 356 353 357
f 355 359 358 354
f 360 359 355 356
f 353 354 358 357
f 364 363 362 361
f 367 368 365 366
f 368 364 361 365
f 363 367 366 362
f 368 367 363 364
f 361 362 366 365
f 372 371 370 369
f 375 376 373 374
f 376 372 369 373
f 371 375 374 370
f 376 375 371 372
f 369 370 374 373
f 380 379 378 377
f 383 384 381 382
f 384 380 377 381
f 379 383 382 378
f 384 383 379 380
f 377 378 382 381
f 388 387 386 385
f 391 392 389 390
f 392 388 385 389
f 387 391 390 386
f 392 391 387 388
f 385 386 390 389
f 396 395 394 393
f 399 400 397 398
f 400 396 393 397
f 395 399 398 394
f 400 399 395 396
f 393 394 398 397
f 404 403 402 401
f 407 408 405 406
f 408 404 401 405
f 403 407 406 402
f 408 407 403 404
f 401 402 406 405
f 412 411 410 409
f 415 416 413 414
f 416 412 409 413
f 411 415 414 410
f 416 415 411 412
f 409 410 414 413
f 420 419 418 417
f 423 424 421 422
f 424 420 417 421
f 419 423 422 418
f 424 423 419 420
f 417 418 422 421
f 428 427 426 425
f 431 432 429 430
f 432 428 425 429
f 427 431 430 426
f 432 431 427 428
f 425 426 430 429
f 436 435 434 433
f 439 440 437 438
f 440 436 433 437
f 435 439 438 434
f 440 439 435 436
f 433 434 438 437
f 444 443 442 441
f 447 448 445 446
f 448 444 441 445
f 443 447 446 442
f 448 447 443 444
f 441 442 446 445
f 452 451 450 449
f 455 456 453 454
f 456 452 449 453
f 451 455 454 450
f 456 455 451 452
f 449 450 454 453
f 460 459 458 457
f 463 464 461 462
f 464 460 457 461
f 459 463 462 458
f 464 463 459 460
f 457 458 462 461
f 468 467 466 465
f 471 472 469 470
f 472 468 465 469
f 467 471 470 466
f 472 471 467 468
f 465 466 470 469
f 476 475 474 473
f 479 480 477 478
f 480 476 473 477
f 475 479 478 474
f 480 479 475 476
f 473 474 478 477
f 484 483 482 481
f 487 488 485 486
f 488 484 481 485
f 483 487 486 482
f 488 487 483 484
f 481 482 486 485
f 492 491 490 489
f 495 496 493 494
f 496 492 489 493
f 491 495 494 490
f 496 495 491 492
f 489 490 494 493
f 500 499 498 497
f 503 504 501 502
f 504 500 497 501
f 499 503 502 498
f 504 503 499 500
f 497 498 502 501
f 508 507 506 505
f 511 512 509 510
f 512 508 505 509
f 507 511 510 506
f 512 511 507 508
f 505 506 510 509
f 516 515 514 513
f 519 520 517 518
f 520 516 513 517
f 515 519 518 514
f 520 519 515 516
f 513 514 518 517
f 524 523 522 521
f 527 528 525 526
f 528 524 521 525
f 523 527 526 522
f 528 527 523 524
f 521 522 526 525
f 532 531 530 529
f 535 536 533 534
f 536 532 529 533
f 531 535 534 530
f 536 535 531 532
f 529 530 534 533
f 540 539 538 537
f 543 544 541 542
f 544 540 537 541
f 539 543 542 538
f 544 543 539 540
f 537 538 542 541
f 548 547 546 545
f 551 552 549 550
f 552 548 545 549
f 547 551 550 546
f 552 551 547 548
f 545 546 550 549
f 556 555 554 553
f 559 560 557 558
f 560 556 553 557
f 555 559 558 554
f 560 559 555 556
f 553 554 558 557
f 564 563 562 561
f 567 568 565 566
f 568 564 561 565
f 563 567 566 562
f 568 567 563 564
f 561 562 566 565
f 572 571 570 569
f 575 576 573 574
f 576 572 569 573
f 571 575 574 570
f 576 575 571 572
f 569 570 574 573
f 580 579 578 577
f 583 584 581 582
f 584 580 577 581
f 579 583 582 578
f 584 583 579 580
f 577 578 582 581
f 588 587 586 585
f 591 592 589 590
f 592 588 585 589
f 587 591 590 586
f 592 591 587 588
f 585 586 590 589
f 596 595 594 593
f 599 600 597 598
f 600 596 593 597
f 595 599 598 594
f 600 599 595 596
f 593 594 598 597
f 604 603 602 601
f 607 608 605 606
f 608 604 601 605
f 603 607 606 602
f 608 607 603 604
f 601 602 606 605
f 612 611 610 609
f 615 616 613 614
f 616 612 609 613
f 611 615 614 610
f 616 615 611 612
f 609 610 614 613
f 620 619 618 617
f 623 624 621 622
f 624 620 617 621
f 619 623 622 618
f 624 623 619 620
f 617 618 622 621
f 628 627 626 625
f 631 632 629 630
f 632 628 625 629
f 627 631 630 626
f 632 631 627 628
f 625 626 630 629
f 636 635 634 633
f 639 640 637 638
f 640 636 633 637
f 635 639 638 634
f 640 639 635 636
f 633 634 638 637
f 644 643 642 641
f 647 648 645 646
f 648 644 641 645
f 643 647 646 642
f 648 647 643 644
f 641 642 646 645
f 652 651 650 649
f 655 656 653 654
f 656 652 649 653
f 651 655 654 650
f 656 655 651 652
f 649 650 654 653
