o human_tower_iron
s off
v 2.35933 0.00000 0.53850
v 2.06685 6.50000 0.47174
v 1.89203 0.00000 1.50885
v 1.65748 6.50000 1.32180
v 1.05000 0.00000 2.18034
v 0.91983 6.50000 1.91005
v 0.00000 0.00000 2.42000
v 0.00000 6.50000 2.12000
v -1.05000 0.00000 2.18034
v -0.91983 6.50000 1.91005
v -1.89203 0.00000 1.50885
v -1.65748 6.50000 1.32180
v -2.35933 0.00000 0.53850
v -2.06685 6.50000 0.47174
v -2.35933 0.00000 -0.53850
v -2.06685 6.50000 -0.47174
v -1.89203 0.00000 -1.50885
v -1.65748 6.50000 -1.32180
v -1.05000 0.00000 -2.18034
v -0.91983 6.50000 -1.91005
v -0.00000 0.00000 -2.42000
v -0.00000 6.50000 -2.12000
v 1.05000 0.00000 -2.18034
v 0.91983 6.50000 -1.91005
v 1.89203 0.00000 -1.50885
v 1.65748 6.50000 -1.32180
v 2.35933 0.00000 -0.53850
v 2.06685 6.50000 -0.47174
v 2.63231 0.00000 0.60081
v 2.43732 0.84000 0.55630
v 2.11095 0.00000 1.68342
v 1.95458 0.84000 1.55872
v 1.17149 0.00000 2.43262
v 1.08471 0.84000 2.25242
v 0.00000 0.00000 2.70000
v 0.00000 0.84000 2.50000
v -1.17149 0.00000 2.43262
v -1.08471 0.84000 2.25242
v -2.11095 0.00000 1.68342
v -1.95458 0.84000 1.55872
v -2.63231 0.00000 0.60081
v -2.43732 0.84000 0.55630
v -2.63231 0.00000 -0.60081
v -2.43732 0.84000 -0.55630
v -2.11095 0.00000 -1.68342
v -1.95458 0.84000 -1.55872
v -1.17149 0.00000 -2.43262
v -1.08471 0.84000 -2.25242
v -0.00000 0.00000 -2.70000
v -0.00000 0.84000 -2.50000
v 1.17149 0.00000 -2.43262
v 1.08471 0.84000 -2.25242
v 2.11095 0.00000 -1.68342
v 1.95458 0.84000 -1.55872
v 2.63231 0.00000 -0.60081
v 2.43732 0.84000 -0.55630
v 2.41782 6.37000 0.55185
v 2.41782 6.83000 0.55185
v 1.93894 6.37000 1.54625
v 1.93894 6.83000 1.54625
v 1.07603 6.37000 2.23440
v 1.07603 6.83000 2.23440
v 0.00000 6.37000 2.48000
v 0.00000 6.83000 2.48000
v -1.07603 6.37000 2.23440
v -1.07603 6.83000 2.23440
v -1.93894 6.37000 1.54625
v -1.93894 6.83000 1.54625
v -2.41782 6.37000 0.55185
v -2.41782 6.83000 0.55185
v -2.41782 6.37000 -0.55185
v -2.41782 6.83000 -0.55185
v -1.93894 6.37000 -1.54625
v -1.93894 6.83000 -1.54625
v -1.07603 6.37000 -2.23440
v -1.07603 6.83000 -2.23440
v -0.00000 6.37000 -2.48000
v -0.00000 6.83000 -2.48000
v 1.07603 6.37000 -2.23440
v 1.07603 6.83000 -2.23440
v 1.93894 6.37000 -1.54625
v 1.93894 6.83000 -1.54625
v 2.41782 6.37000 -0.55185
v 2.41782 6.83000 -0.55185
v 1.76000 6.62000 -0.30000
v 2.48000 6.62000 -0.30000
v 2.48000 7.66000 -0.30000
v 1.76000 7.66000 -0.30000
v 1.76000 6.62000 0.30000
v 2.48000 6.62000 0.30000
v 2.48000 7.66000 0.30000
v 1.76000 7.66000 0.30000
v 1.33189 6.62000 1.18898
v 1.78080 6.62000 1.75190
v 1.78080 7.66000 1.75190
v 1.33189 7.66000 1.18898
v 0.86279 6.62000 1.56307
v 1.31171 6.62000 2.12599
v 1.31171 7.66000 2.12599
v 0.86279 7.66000 1.56307
v -0.09916 6.62000 1.78263
v -0.25937 6.62000 2.48458
v -0.25937 7.66000 2.48458
v -0.09916 7.66000 1.78263
v -0.68412 6.62000 1.64912
v -0.84433 6.62000 2.35106
v -0.84433 7.66000 2.35106
v -0.68412 7.66000 1.64912
v -1.45554 6.62000 1.03393
v -2.10424 6.62000 1.34632
v -2.10424 7.66000 1.34632
v -1.45554 7.66000 1.03393
v -1.71587 6.62000 0.49334
v -2.36457 6.62000 0.80574
v -2.36457 7.66000 0.80574
v -1.71587 7.66000 0.49334
v -1.71587 6.62000 -0.49334
v -2.36457 6.62000 -0.80574
v -2.36457 7.66000 -0.80574
v -1.71587 7.66000 -0.49334
v -1.45554 6.62000 -1.03393
v -2.10424 6.62000 -1.34632
v -2.10424 7.66000 -1.34632
v -1.45554 7.66000 -1.03393
v -0.68412 6.62000 -1.64912
v -0.84433 6.62000 -2.35106
v -0.84433 7.66000 -2.35106
v -0.68412 7.66000 -1.64912
v -0.09916 6.62000 -1.78263
v -0.25937 6.62000 -2.48458
v -0.25937 7.66000 -2.48458
v -0.09916 7.66000 -1.78263
v 0.86279 6.62000 -1.56307
v 1.31171 6.62000 -2.12599
v 1.31171 7.66000 -2.12599
v 0.86279 7.66000 -1.56307
v 1.33189 6.62000 -1.18898
v 1.78080 6.62000 -1.75190
v 1.78080 7.66000 -1.75190
v 1.33189 7.66000 -1.18898
v 1.79000 0.10000 -0.56000
v 2.57000 0.10000 -0.56000
v 2.57000 3.00000 -0.56000
v 1.79000 3.00000 -0.56000
v 1.79000 0.10000 0.56000
v 2.57000 0.10000 0.56000
v 2.57000 3.00000 0.56000
v 1.79000 3.00000 0.56000
v 0.56000 0.10000 1.79000
v 0.56000 0.10000 2.57000
v 0.56000 3.00000 2.57000
v 0.56000 3.00000 1.79000
v -0.56000 0.10000 1.79000
v -0.56000 0.10000 2.57000
v -0.56000 3.00000 2.57000
v -0.56000 3.00000 1.79000
v -1.79000 0.10000 0.56000
v -2.57000 0.10000 0.56000
v -2.57000 3.00000 0.56000
v -1.79000 3.00000 0.56000
v -1.79000 0.10000 -0.56000
v -2.57000 0.10000 -0.56000
v -2.57000 3.00000 -0.56000
v -1.79000 3.00000 -0.56000
v -0.56000 0.10000 -1.79000
v -0.56000 0.10000 -2.57000
v -0.56000 3.00000 -2.57000
v -0.56000 3.00000 -1.79000
v 0.56000 0.10000 -1.79000
v 0.56000 0.10000 -2.57000
v 0.56000 3.00000 -2.57000
v 0.56000 3.00000 -1.79000
v 2.02000 3.21000 -0.17000
v 2.24000 3.21000 -0.17000
v 2.24000 4.29000 -0.17000
v 2.02000 4.29000 -0.17000
v 2.02000 3.21000 0.17000
v 2.24000 3.21000 0.17000
v 2.24000 4.29000 0.17000
v 2.02000 4.29000 0.17000
v 0.17000 3.21000 2.02000
v 0.17000 3.21000 2.24000
v 0.17000 4.29000 2.24000
v 0.17000 4.29000 2.02000
v -0.17000 3.21000 2.02000
v -0.17000 3.21000 2.24000
v -0.17000 4.29000 2.24000
v -0.17000 4.29000 2.02000
v -2.02000 3.21000 0.17000
v -2.24000 3.21000 0.17000
v -2.24000 4.29000 0.17000
v -2.02000 4.29000 0.17000
v -2.02000 3.21000 -0.17000
v -2.24000 3.21000 -0.17000
v -2.24000 4.29000 -0.17000
v -2.02000 4.29000 -0.17000
v -0.17000 3.21000 -2.02000
v -0.17000 3.21000 -2.24000
v -0.17000 4.29000 -2.24000
v -0.17000 4.29000 -2.02000
v 0.17000 3.21000 -2.02000
v 0.17000 3.21000 -2.24000
v 0.17000 4.29000 -2.24000
v 0.17000 4.29000 -2.02000
f 2 4 3 1
f 4 6 5 3
f 6 8 7 5
f 8 10 9 7
f 10 12 11 9
f 12 14 13 11
f 14 16 15 13
f 16 18 17 15
f 18 20 19 17
f 20 22 21 19
f 22 24 23 21
f 24 26 25 23
f 26 28 27 25
f 28 2 1 27
f 1 3 5 7 9 11 13 15 17 19 21 23 25 27
f 28 26 24 22 20 18 16 14 12 10 8 6 4 2
f 30 32 31 29
f 32 34 33 31
f 34 36 35 33
f 36 38 37 35
f 38 40 39 37
f 40 42 41 39
f 42 44 43 41
f 44 46 45 43
f 46 48 47 45
f 48 50 49 47
f 50 52 51 49
f 52 54 53 51
f 54 56 55 53
f 56 30 29 55
f 29 31 33 35 37 39 41 43 45 47 49 51 53 55
f 56 54 52 50 48 46 44 42 40 38 36 34 32 30
f 58 60 59 57
f 60 62 61 59
f 62 64 63 61
f 64 66 65 63
f 66 68 67 65
f 68 70 69 67
f 70 72 71 69
f 72 74 73 71
f 74 76 75 73
f 76 78 77 75
f 78 80 79 77
f 80 82 81 79
f 82 84 83 81
f 84 58 57 83
f 57 59 61 63 65 67 69 71 73 75 77 79 81 83
f 84 82 80 78 76 74 72 70 68 66 64 62 60 58
f 88 87 86 85
f 91 92 89 90
f 92 88 85 89
f 87 91 90 86
f 92 91 87 88
f 85 86 90 89
f 96 95 94 93
f 99 100 97 98
f 100 96 93 97
f 95 99 98 94
f 100 99 95 96
f 93 94 98 97
f 104 103 102 101
f 107 108 105 106
f 108 104 101 105
f 103 107 106 102
f 108 107 103 104
f 101 102 106 105
f 112 111 110 109
f 115 116 113 114
f 116 112 109 113
f 111 115 114 110
f 116 115 111 112
f 109 110 114 113
f 120 119 118 117
f 123 124 121 122
f 124 120 117 121
f 119 123 122 118
f 124 123 119 120
f 117 118 122 121
f 128 127 126 125
f 131 132 129 130
f 132 128 125 129
f 127 131 130 126
f 132 131 127 128
f 125 126 130 129
f 136 135 134 133
f 139 140 137 138
f 140 136 133 137
f 135 139 138 134
f 140 139 135 136
f 133 134 138 137
f 144 143 142 141
f 147 148 145 146
f 148 144 141 145
f 143 147 146 142
f 148 147 143 144
f 141 142 146 145
f 152 151 150 149
f 155 156 153 154
f 156 152 149 153
f 151 155 154 150
f 156 155 151 152
f 149 150 154 153
f 160 159 158 157
f 163 164 161 162
f 164 160 157 161
f 159 163 162 158
f 164 163 159 160
f 157 158 162 161
f 168 167 166 165
f 171 172 169 170
f 172 168 165 169
f 167 171 170 166
f 172 171 167 168
f 165 166 170 169
f 176 175 174 173
f 179 180 177 178
f 180 176 173 177
f 175 179 178 174
f 180 179 175 176
f 173 174 178 177
f 184 183 182 181
f 187 188 185 186
f 188 184 181 185
f 183 187 186 182
f 188 187 183 184
f 181 182 186 185
f 192 191 190 189
f 195 196 193 194
f 196 192 189 193
f 191 195 194 190
f 196 195 191 192
f 189 190 194 193
f 200 199 198 197
f 203 204 201 202
f 204 200 197 201
f 199 203 202 198
f 204 203 199 200
f 197 198 202 201
