o human_gatehouse
s off
v -0.87500 0.00000 -4.27500
v 0.87500 0.00000 -4.27500
v 0.87500 4.70000 -4.27500
v -0.87500 4.70000 -4.27500
v -0.87500 0.00000 -2.82500
v 0.87500 0.00000 -2.82500
v 0.87500 4.70000 -2.82500
v -0.87500 4.70000 -2.82500
v -0.88000 0.00000 -4.42500
v 1.12000 0.00000 -4.42500
v 1.12000 0.90000 -4.42500
v -0.88000 0.90000 -4.42500
v -0.88000 0.00000 -2.67500
v 1.12000 0.00000 -2.67500
v 1.12000 0.90000 -2.67500
v -0.88000 0.90000 -2.67500
v -0.87500 0.00000 2.82500
v 0.87500 0.00000 2.82500
v 0.87500 4.70000 2.82500
v -0.87500 4.70000 2.82500
v -0.87500 0.00000 4.27500
v 0.87500 0.00000 4.27500
v 0.87500 4.70000 4.27500
v -0.87500 4.70000 4.27500
v -0.88000 0.00000 2.67500
v 1.12000 0.00000 2.67500
v 1.12000 0.90000 2.67500
v -0.88000 0.90000 2.67500
v -0.88000 0.00000 4.42500
v 1.12000 0.00000 4.42500
v 1.12000 0.90000 4.42500
v -0.88000 0.90000 4.42500
v -1.02000 2.26000 3.46000
v 0.90000 2.26000 3.46000
v 0.90000 2.26000 2.84000
v -1.02000 2.26000 2.84000
v -1.02000 3.14000 3.46000
v 0.90000 3.14000 3.46000
v 0.90000 3.14000 2.84000
v -1.02000 3.14000 2.84000
v -1.02000 3.38031 3.02824
v 0.90000 3.38031 3.02824
v 0.90000 3.61758 2.45544
v -1.02000 3.61758 2.45544
v -1.02000 4.19333 3.36500
v 0.90000 4.19333 3.36500
v 0.90000 4.43059 2.79220
v -1.02000 4.43059 2.79220
v -1.02000 4.39706 2.13546
v 0.90000 4.39706 2.13546
v 0.90000 4.83546 1.69706
v -1.02000 4.83546 1.69706
v -1.02000 5.01931 2.75772
v 0.90000 5.01931 2.75772
v 0.90000 5.45772 2.31931
v -1.02000 5.45772 2.31931
v -1.02000 5.15544 0.91758
v 0.90000 5.15544 0.91758
v 0.90000 5.72824 0.68031
v -1.02000 5.72824 0.68031
v -1.02000 5.49220 1.73059
v 0.90000 5.49220 1.73059
v 0.90000 6.06500 1.49333
v -1.02000 6.06500 1.49333
v -1.02000 5.54000 -0.44000
v 0.90000 5.54000 -0.44000
v 0.90000 6.16000 -0.44000
v -1.02000 6.16000 -0.44000
v -1.02000 5.54000 0.44000
v 0.90000 5.54000 0.44000
v 0.90000 6.16000 0.44000
v -1.02000 6.16000 0.44000
v -1.02000 5.49220 -1.73059
v 0.90000 5.49220 -1.73059
v 0.90000 6.06500 -1.49333
v -1.02000 6.06500 -1.49333
v -1.02000 5.15544 -0.91758
v 0.90000 5.15544 -0.91758
v 0.90000 5.72824 -0.68031
v -1.02000 5.72824 -0.68031
v -1.02000 5.01931 -2.75772
v 0.90000 5.01931 -2.75772
v 0.90000 5.45772 -2.31931
v -1.02000 5.45772 -2.31931
v -1.02000 4.39706 -2.13546
v 0.90000 4.39706 -2.13546
v 0.90000 4.83546 -1.69706
v -1.02000 4.83546 -1.69706
v -1.02000 4.19333 -3.36500
v 0.90000 4.19333 -3.36500
v 0.90000 4.43059 -2.79220
v -1.02000 4.43059 -2.79220
v -1.02000 3.38031 -3.02824
v 0.90000 3.38031 -3.02824
v 0.90000 3.61758 -2.45544
v -1.02000 3.61758 -2.45544
v -1.02000 3.14000 -3.46000
v 0.90000 3.14000 -3.46000
v 0.90000 3.14000 -2.84000
v -1.02000 3.14000 -2.84000
v -1.02000 2.26000 -3.46000
v 0.90000 2.26000 -3.46000
v 0.90000 2.26000 -2.84000
v -1.02000 2.26000 -2.84000
v -0.95000 5.75000 -4.00000
v 0.95000 5.75000 -4.00000
v 0.95000 6.35000 -4.00000
v -0.95000 6.35000 -4.00000
v -0.95000 5.75000 4.00000
v 0.95000 5.75000 4.00000
v 0.95000 6.35000 4.00000
v -0.95000 6.35000 4.00000
v -0.96000 6.19000 -3.64000
v 0.96000 6.19000 -3.64000
v 0.96000 7.05000 -3.64000
v -0.96000 7.05000 -3.64000
v -0.96000 6.19000 -3.06000
v 0.96000 6.19000 -3.06000
v 0.96000 7.05000 -3.06000
v -0.96000 7.05000 -3.06000
v -0.96000 6.19000 -2.54000
v 0.96000 6.19000 -2.54000
v 0.96000 7.05000 -2.54000
v -0.96000 7.05000 -2.54000
v -0.96000 6.19000 -1.96000
v 0.96000 6.19000 -1.96000
v 0.96000 7.05000 -1.96000
v -0.96000 7.05000 -1.96000
v -0.96000 6.19000 -1.44000
v 0.96000 6.19000 -1.44000
v 0.96000 7.05000 -1.44000
v -0.96000 7.05000 -1.44000
v -0.96000 6.19000 -0.86000
v 0.96000 6.19000 -0.86000
v 0.96000 7.05000 -0.86000
v -0.96000 7.05000 -0.86000
v -0.96000 6.19000 -0.29000
v 0.96000 6.19000 -0.29000
v 0.96000 7.05000 -0.29000
v -0.96000 7.05000 -0.29000
v -0.96000 6.19000 0.29000
v 0.96000 6.19000 0.29000
v 0.96000 7.05000 0.29000
v -0.96000 7.05000 0.29000
v -0.96000 6.19000 0.86000
v 0.96000 6.19000 0.86000
v 0.96000 7.05000 0.86000
v -0.96000 7.05000 0.86000
v -0.96000 6.19000 1.44000
v 0.96000 6.19000 1.44000
v 0.96000 7.05000 1.44000
v -0.96000 7.05000 1.44000
v -0.96000 6.19000 1.96000
v 0.96000 6.19000 1.96000
v 0.96000 7.05000 1.96000
v -0.96000 7.05000 1.96000
v -0.96000 6.19000 2.54000
v 0.96000 6.19000 2.54000
v 0.96000 7.05000 2.54000
v -0.96000 7.05000 2.54000
v -0.96000 6.19000 3.06000
v 0.96000 6.19000 3.06000
v 0.96000 7.05000 3.06000
v -0.96000 7.05000 3.06000
v -0.96000 6.19000 3.64000
v 0.96000 6.19000 3.64000
v 0.96000 7.05000 3.64000
v -0.96000 7.05000 3.64000
f 4 3 2 1
f 7 8 5 6
f 8 4 1 5
f 3 7 6 2
f 8 7 3 4
f 1 2 6 5
f 12 11 10 9
f 15 16 13 14
f 16 12 9 13
f 11 15 14 10
f 16 15 11 12
f 9 10 14 13
f 20 19 18 17
f 23 24 21 22
f 24 20 17 21
f 19 23 22 18
f 24 23 19 20
f 17 18 22 21
f 28 27 26 25
f 31 32 29 30
f 32 28 25 29
f 27 31 30 26
f 32 31 27 28
f 25 26 30 29
f 36 35 34 33
f 39 40 37 38
f 40 36 33 37
f 35 39 38 34
f 40 39 35 36
f 33 34 38 37
f 44 43 42 41
f 47 48 45 46
f 48 44 41 45
f 43 47 46 42
f 48 47 43 44
f 41 42 46 45
f 52 51 50 49
f 55 56 53 54
f 56 52 49 53
f 51 55 54 50
f 56 55 51 52
f 49 50 54 53
f 60 59 58 57
f 63 64 61 62
f 64 60 57 61
f 59 63 62 58
f 64 63 59 60
f 57 58 62 61
f 68 67 66 65
f 71 72 69 70
f 72 68 65 69
f 67 71 70 66
f 72 71 67 68
f 65 66 70 69
f 76 75 74 73
f 79 80 77 78
f 80 76 73 77
f 75 79 78 74
f 80 79 75 76
f 73 74 78 77
f 84 83 82 81
f 87 88 85 86
f 88 84 81 85
f 83 87 86 82
f 88 87 83 84
f 81 82 86 85
f 92 91 90 89
f 95 96 93 94
f 96 92 89 93
f 91 95 94 90
f 96 95 91 92
f 89 90 94 93
f 100 99 98 97
f 103 104 101 102
f 104 100 97 101
f 99 103 102 98
f 104 103 99 100
f 97 98 102 101
f 108 107 106 105
f 111 112 109 110
f 112 108 105 109
f 107 111 110 106
f 112 111 107 108
f 105 106 110 109
f 116 115 114 113
f 119 120 117 118
f 120 116 113 117
f 115 119 118 114
f 120 119 115 116
f 113 114 118 117
f 124 123 122 121
f 127 128 125 126
f 128 124 121 125
f 123 127 126 122
f 128 127 123 124
f 121 122 126 125
f 132 131 130 129
f 135 136 133 134
f 136 132 129 133
f 131 135 134 130
f 136 135 131 132
f 129 130 134 133
f 140 139 138 137
f 143 144 141 142
f 144 140 137 141
f 139 143 142 138
f 144 143 139 140
f 137 138 142 141
f 148 147 146 145
f 151 152 149 150
f 152 148 145 149
f 147 151 150 146
f 152 151 147 148
f 145 146 150 149
f 156 155 154 153
f 159 160 157 158
f 160 156 153 157
f 155 159 158 154
f 160 159 155 156
f 153 154 158 157
f 164 163 162 161
f 167 168 165 166
f 168 164 161 165
f 163 167 166 162
f 168 167 163 164
f 161 162 166 165
