o human_keep
s off
v -2.70000 0.00000 -4.35000
v 2.70000 0.00000 -4.35000
v 2.70000 7.00000 -4.35000
v -2.70000 7.00000 -4.35000
v -2.70000 0.00000 4.35000
v 2.70000 0.00000 4.35000
v 2.70000 7.00000 4.35000
v -2.70000 7.00000 4.35000
v -2.90000 0.00000 -4.50000
v -2.20000 0.00000 -4.50000
v -2.20000 4.60000 -4.50000
v -2.90000 4.60000 -4.50000
v -2.90000 0.00000 -3.80000
v -2.20000 0.00000 -3.80000
v -2.20000 4.60000 -3.80000
v -2.90000 4.60000 -3.80000
v 2.20000 0.00000 -4.50000
v 2.90000 0.00000 -4.50000
v 2.90000 4.60000 -4.50000
v 2.20000 4.60000 -4.50000
v 2.20000 0.00000 -3.80000
v 2.90000 0.00000 -3.80000
v 2.90000 4.60000 -3.80000
v 2.20000 4.60000 -3.80000
v -2.90000 0.00000 3.80000
v -2.20000 0.00000 3.80000
v -2.20000 4.60000 3.80000
v -2.90000 4.60000 3.80000
v -2.90000 0.00000 4.50000
v -2.20000 0.00000 4.50000
v -2.20000 4.60000 4.50000
v -2.90000 4.60000 4.50000
v 2.20000 0.00000 3.80000
v 2.90000 0.00000 3.80000
v 2.90000 4.60000 3.80000
v 2.20000 4.60000 3.80000
v 2.20000 0.00000 4.50000
v 2.90000 0.00000 4.50000
v 2.90000 4.60000 4.50000
v 2.20000 4.60000 4.50000
v -2.81000 1.16000 -4.46000
v 2.81000 1.16000 -4.46000
v 2.81000 1.34000 -4.46000
v -2.81000 1.34000 -4.46000
v -2.81000 1.16000 4.46000
v 2.81000 1.16000 4.46000
v 2.81000 1.34000 4.46000
v -2.81000 1.34000 4.46000
v -2.81000 3.11000 -4.46000
v 2.81000 3.11000 -4.46000
v 2.81000 3.29000 -4.46000
v -2.81000 3.29000 -4.46000
v -2.81000 3.11000 4.46000
v 2.81000 3.11000 4.46000
v 2.81000 3.29000 4.46000
v -2.81000 3.29000 4.46000
v -2.81000 5.06000 -4.46000
v 2.81000 5.06000 -4.46000
v 2.81000 5.24000 -4.46000
v -2.81000 5.24000 -4.46000
v -2.81000 5.06000 4.46000
v 2.81000 5.06000 4.46000
v 2.81000 5.24000 4.46000
v -2.81000 5.24000 4.46000
v 2.47000 7.00000 -4.11000
v 3.09000 7.00000 -4.11000
v 3.09000 7.90000 -4.11000
v 2.47000 7.90000 -4.11000
v 2.47000 7.00000 -3.49000
v 3.09000 7.00000 -3.49000
v 3.09000 7.90000 -3.49000
v 2.47000 7.90000 -3.49000
v 2.47000 7.00000 -2.21000
v 3.09000 7.00000 -2.21000
v 3.09000 7.90000 -2.21000
v 2.47000 7.90000 -2.21000
v 2.47000 7.00000 -1.59000
v 3.09000 7.00000 -1.59000
v 3.09000 7.90000 -1.59000
v 2.47000 7.90000 -1.59000
v 2.47000 7.00000 -0.31000
v 3.09000 7.00000 -0.31000
v 3.09000 7.90000 -0.31000
v 2.47000 7.90000 -0.31000
v 2.47000 7.00000 0.31000
v 3.09000 7.00000 0.31000
v 3.09000 7.90000 0.31000
v 2.47000 7.90000 0.31000
v 2.47000 7.00000 1.59000
v 3.09000 7.00000 1.59000
v 3.09000 7.90000 1.59000
v 2.47000 7.90000 1.59000
v 2.47000 7.00000 2.21000
v 3.09000 7.00000 2.21000
v 3.09000 7.90000 2.21000
v 2.47000 7.90000 2.21000
v 2.47000 7.00000 3.49000
v 3.09000 7.00000 3.49000
v 3.09000 7.90000 3.49000
v 2.47000 7.90000 3.49000
v 2.47000 7.00000 4.11000
v 3.09000 7.00000 4.11000
v 3.09000 7.90000 4.11000
v 2.47000 7.90000 4.11000
f 4 3 2 1
f 7 8 5 6
f 8 4 1 5
f 3 7 6 2
f 8 7 3 4
f 1 2 6 5
f 12 11 10 9
f 15 16 13 14
f 16 12 9 13
f 11 15 14 10
f 16 15 11 12
f 9 10 14 13
f 20 19 18 17
f 23 24 21 22
f 24 20 17 21
f 19 23 22 18
f 24 23 19 20
f 17 18 22 21
f 28 27 26 25
f 31 32 29 30
f 32 28 25 29
f 27 31 30 26
f 32 31 27 28
f 25 26 30 29
f 36 35 34 33
f 39 40 37 38
f 40 36 33 37
f 35 39 38 34
f 40 39 35 36
f 33 34 38 37
f 44 43 42 41
f 47 48 45 46
f 48 44 41 45
f 43 47 46 42
f 48 47 43 44
f 41 42 46 45
f 52 51 50 49
f 55 56 53 54
f 56 52 49 53
f 51 55 54 50
f 56 55 51 52
f 49 50 54 53
f 60 59 58 57
f 63 64 61 62
f 64 60 57 61
f 59 63 62 58
f 64 63 59 60
f 57 58 62 61
f 68 67 66 65
f 71 72 69 70
f 72 68 65 69
f 67 71 70 66
f 72 71 67 68
f 65 66 70 69
f 76 75 74 73
f 79 80 77 78
f 80 76 73 77
f 75 79 78 74
f 80 79 75 76
f 73 74 78 77
f 84 83 82 81
f 87 88 85 86
f 88 84 81 85
f 83 87 86 82
f 88 87 83 84
f 81 82 86 85
f 92 91 90 89
f 95 96 93 94
f 96 92 89 93
f 91 95 94 90
f 96 95 91 92
f 89 90 94 93
f 100 99 98 97
f 103 104 101 102
f 104 100 97 101
f 99 103 102 98
f 104 103 99 100
f 97 98 102 101
