o human_gatehouse_iron
s off
v -0.950000 0.000000 -4.475000
v 0.950000 0.000000 -4.475000
v 0.950000 6.600000 -4.475000
v -0.950000 6.600000 -4.475000
v -0.950000 0.000000 -2.625000
v 0.950000 0.000000 -2.625000
v 0.950000 6.600000 -2.625000
v -0.950000 6.600000 -2.625000
v -1.125000 0.000000 -4.650000
v 1.125000 0.000000 -4.650000
v 1.125000 0.960000 -4.650000
v -1.125000 0.960000 -4.650000
v -1.125000 0.000000 -2.450000
v 1.125000 0.000000 -2.450000
v 1.125000 0.960000 -2.450000
v -1.125000 0.960000 -2.450000
v -1.040000 1.220000 -3.660000
v -0.920000 1.220000 -3.660000
v -0.920000 1.980000 -3.660000
v -1.040000 1.980000 -3.660000
v -1.040000 1.220000 -3.440000
v -0.920000 1.220000 -3.440000
v -0.920000 1.980000 -3.440000
v -1.040000 1.980000 -3.440000
v -1.040000 3.320000 -3.660000
v -0.920000 3.320000 -3.660000
v -0.920000 4.080000 -3.660000
v -1.040000 4.080000 -3.660000
v -1.040000 3.320000 -3.440000
v -0.920000 3.320000 -3.440000
v -0.920000 4.080000 -3.440000
v -1.040000 4.080000 -3.440000
v -0.950000 0.000000 2.625000
v 0.950000 0.000000 2.625000
v 0.950000 6.600000 2.625000
v -0.950000 6.600000 2.625000
v -0.950000 0.000000 4.475000
v 0.950000 0.000000 4.475000
v 0.950000 6.600000 4.475000
v -0.950000 6.600000 4.475000
v -1.125000 0.000000 2.450000
v 1.125000 0.000000 2.450000
v 1.125000 0.960000 2.450000
v -1.125000 0.960000 2.450000
v -1.125000 0.000000 4.650000
v 1.125000 0.000000 4.650000
v 1.125000 0.960000 4.650000
v -1.125000 0.960000 4.650000
v -1.040000 1.220000 3.440000
v -0.920000 1.220000 3.440000
v -0.920000 1.980000 3.440000
v -1.040000 1.980000 3.440000
v -1.040000 1.220000 3.660000
v -0.920000 1.220000 3.660000
v -0.920000 1.980000 3.660000
v -1.040000 1.980000 3.660000
v -1.040000 3.320000 3.440000
v -0.920000 3.320000 3.440000
v -0.920000 4.080000 3.440000
v -1.040000 4.080000 3.440000
v -1.040000 3.320000 3.660000
v -0.920000 3.320000 3.660000
v -0.920000 4.080000 3.660000
v -1.040000 4.080000 3.660000
v -0.990000 2.735000 3.490000
v 0.990000 2.735000 3.490000
v 0.990000 2.735000 2.910000
v -0.990000 2.735000 2.910000
v -0.990000 3.285000 3.490000
v 0.990000 3.285000 3.490000
v 0.990000 3.285000 2.910000
v -0.990000 3.285000 2.910000
v -0.990000 3.389431 3.341305
v 0.990000 3.389431 3.341305
v 0.990000 3.518493 2.775847
v -0.990000 3.518493 2.775847
v -0.990000 3.925641 3.463692
v 0.990000 3.925641 3.463692
v 0.990000 4.054703 2.898233
v -0.990000 4.054703 2.898233
v -0.990000 4.024835 3.025063
v 0.990000 4.024835 3.025063
v 0.990000 4.276488 2.502501
v -0.990000 4.276488 2.502501
v -0.990000 4.520368 3.263699
v 0.990000 4.520368 3.263699
v 0.990000 4.772021 2.741137
v -0.990000 4.772021 2.741137
v -0.990000 4.609352 2.557132
v 0.990000 4.609352 2.557132
v 0.990000 4.970976 2.103670
v -0.990000 4.970976 2.103670
v -0.990000 5.039359 2.900052
v 0.990000 5.039359 2.900052
v 0.990000 5.400983 2.446589
v -0.990000 5.400983 2.446589
v -0.990000 5.113670 1.960976
v 0.990000 5.113670 1.960976
v 0.990000 5.567132 1.599352
v -0.990000 5.567132 1.599352
v -0.990000 5.456589 2.390983
v 0.990000 5.456589 2.390983
v 0.990000 5.910052 2.029359
v -0.990000 5.910052 2.029359
v -0.990000 5.512501 1.266488
v 0.990000 5.512501 1.266488
v 0.990000 6.035063 1.014835
v -0.990000 6.035063 1.014835
v -0.990000 5.751137 1.762021
v 0.990000 5.751137 1.762021
v 0.990000 6.273699 1.510368
v -0.990000 6.273699 1.510368
v -0.990000 5.785847 0.508493
v 0.990000 5.785847 0.508493
v 0.990000 6.351305 0.379431
v -0.990000 6.351305 0.379431
v -0.990000 5.908233 1.044703
v 0.990000 5.908233 1.044703
v 0.990000 6.473692 0.915641
v -0.990000 6.473692 0.915641
v -0.990000 5.920000 -0.275000
v 0.990000 5.920000 -0.275000
v 0.990000 6.500000 -0.275000
v -0.990000 6.500000 -0.275000
v -0.990000 5.920000 0.275000
v 0.990000 5.920000 0.275000
v 0.990000 6.500000 0.275000
v -0.990000 6.500000 0.275000
v -0.990000 5.908233 -1.044703
v 0.990000 5.908233 -1.044703
v 0.990000 6.473692 -0.915641
v -0.990000 6.473692 -0.915641
v -0.990000 5.785847 -0.508493
v 0.990000 5.785847 -0.508493
v 0.990000 6.351305 -0.379431
v -0.990000 6.351305 -0.379431
v -0.990000 5.751137 -1.762021
v 0.990000 5.751137 -1.762021
v 0.990000 6.273699 -1.510368
v -0.990000 6.273699 -1.510368
v -0.990000 5.512501 -1.266488
v 0.990000 5.512501 -1.266488
v 0.990000 6.035063 -1.014835
v -0.990000 6.035063 -1.014835
v -0.990000 5.456589 -2.390983
v 0.990000 5.456589 -2.390983
v 0.990000 5.910052 -2.029359
v -0.990000 5.910052 -2.029359
v -0.990000 5.113670 -1.960976
v 0.990000 5.113670 -1.960976
v 0.990000 5.567132 -1.599352
v -0.990000 5.567132 -1.599352
v -0.990000 5.039359 -2.900052
v 0.990000 5.039359 -2.900052
v 0.990000 5.400983 -2.446589
v -0.990000 5.400983 -2.446589
v -0.990000 4.609352 -2.557132
v 0.990000 4.609352 -2.557132
v 0.990000 4.970976 -2.103670
v -0.990000 4.970976 -2.103670
v -0.990000 4.520368 -3.263699
v 0.990000 4.520368 -3.263699
v 0.990000 4.772021 -2.741137
v -0.990000 4.772021 -2.741137
v -0.990000 4.024835 -3.025063
v 0.990000 4.024835 -3.025063
v 0.990000 4.276488 -2.502501
v -0.990000 4.276488 -2.502501
v -0.990000 3.925641 -3.463692
v 0.990000 3.925641 -3.463692
v 0.990000 4.054703 -2.898233
v -0.990000 4.054703 -2.898233
v -0.990000 3.389431 -3.341305
v 0.990000 3.389431 -3.341305
v 0.990000 3.518493 -2.775847
v -0.990000 3.518493 -2.775847
v -0.990000 3.285000 -3.490000
v 0.990000 3.285000 -3.490000
v 0.990000 3.285000 -2.910000
v -0.990000 3.285000 -2.910000
v -0.990000 2.735000 -3.490000
v 0.990000 2.735000 -3.490000
v 0.990000 2.735000 -2.910000
v -0.990000 2.735000 -2.910000
v -1.025000 6.545000 -4.275000
v 1.025000 6.545000 -4.275000
v 1.025000 7.095000 -4.275000
v -1.025000 7.095000 -4.275000
v -1.025000 6.545000 4.275000
v 1.025000 6.545000 4.275000
v 1.025000 7.095000 4.275000
v -1.025000 7.095000 4.275000
v -1.030000 6.830000 -3.820000
v 1.030000 6.830000 -3.820000
v 1.030000 7.850000 -3.820000
v -1.030000 7.850000 -3.820000
v -1.030000 6.830000 -3.280000
v 1.030000 6.830000 -3.280000
v 1.030000 7.850000 -3.280000
v -1.030000 7.850000 -3.280000
v -1.030000 6.830000 -3.110000
v 1.030000 6.830000 -3.110000
v 1.030000 7.850000 -3.110000
v -1.030000 7.850000 -3.110000
v -1.030000 6.830000 -2.570000
v 1.030000 6.830000 -2.570000
v 1.030000 7.850000 -2.570000
v -1.030000 7.850000 -2.570000
v -1.030000 6.830000 -2.400000
v 1.030000 6.830000 -2.400000
v 1.030000 7.850000 -2.400000
v -1.030000 7.850000 -2.400000
v -1.030000 6.830000 -1.860000
v 1.030000 6.830000 -1.860000
v 1.030000 7.850000 -1.860000
v -1.030000 7.850000 -1.860000
v -1.030000 6.830000 -1.690000
v 1.030000 6.830000 -1.690000
v 1.030000 7.850000 -1.690000
v -1.030000 7.850000 -1.690000
v -1.030000 6.830000 -1.150000
v 1.030000 6.830000 -1.150000
v 1.030000 7.850000 -1.150000
v -1.030000 7.850000 -1.150000
v -1.030000 6.830000 -0.980000
v 1.030000 6.830000 -0.980000
v 1.030000 7.850000 -0.980000
v -1.030000 7.850000 -0.980000
v -1.030000 6.830000 -0.440000
v 1.030000 6.830000 -0.440000
v 1.030000 7.850000 -0.440000
v -1.030000 7.850000 -0.440000
v -1.030000 6.830000 -0.270000
v 1.030000 6.830000 -0.270000
v 1.030000 7.850000 -0.270000
v -1.030000 7.850000 -0.270000
v -1.030000 6.830000 0.270000
v 1.030000 6.830000 0.270000
v 1.030000 7.850000 0.270000
v -1.030000 7.850000 0.270000
v -1.030000 6.830000 0.440000
v 1.030000 6.830000 0.440000
v 1.030000 7.850000 0.440000
v -1.030000 7.850000 0.440000
v -1.030000 6.830000 0.980000
v 1.030000 6.830000 0.980000
v 1.030000 7.850000 0.980000
v -1.030000 7.850000 0.980000
v -1.030000 6.830000 1.150000
v 1.030000 6.830000 1.150000
v 1.030000 7.850000 1.150000
v -1.030000 7.850000 1.150000
v -1.030000 6.830000 1.690000
v 1.030000 6.830000 1.690000
v 1.030000 7.850000 1.690000
v -1.030000 7.850000 1.690000
v -1.030000 6.830000 1.860000
v 1.030000 6.830000 1.860000
v 1.030000 7.850000 1.860000
v -1.030000 7.850000 1.860000
v -1.030000 6.830000 2.400000
v 1.030000 6.830000 2.400000
v 1.030000 7.850000 2.400000
v -1.030000 7.850000 2.400000
v -1.030000 6.830000 2.570000
v 1.030000 6.830000 2.570000
v 1.030000 7.850000 2.570000
v -1.030000 7.850000 2.570000
v -1.030000 6.830000 3.110000
v 1.030000 6.830000 3.110000
v 1.030000 7.850000 3.110000
v -1.030000 7.850000 3.110000
v -1.030000 6.830000 3.280000
v 1.030000 6.830000 3.280000
v 1.030000 7.850000 3.280000
v -1.030000 7.850000 3.280000
v -1.030000 6.830000 3.820000
v 1.030000 6.830000 3.820000
v 1.030000 7.850000 3.820000
v -1.030000 7.850000 3.820000
v -0.600000 6.202659 -3.166302
v -0.060000 6.202659 -3.166302
v -0.060000 6.621316 -3.132738
v -0.600000 6.621316 -3.132738
v -0.600000 6.178684 -2.867262
v -0.060000 6.178684 -2.867262
v -0.060000 6.597341 -2.833698
v -0.600000 6.597341 -2.833698
v -0.600000 6.202659 -2.166302
v -0.060000 6.202659 -2.166302
v -0.060000 6.621316 -2.132738
v -0.600000 6.621316 -2.132738
v -0.600000 6.178684 -1.867262
v -0.060000 6.178684 -1.867262
v -0.060000 6.597341 -1.833698
v -0.600000 6.597341 -1.833698
v -0.600000 6.202659 -1.166302
v -0.060000 6.202659 -1.166302
v -0.060000 6.621316 -1.132738
v -0.600000 6.621316 -1.132738
v -0.600000 6.178684 -0.867262
v -0.060000 6.178684 -0.867262
v -0.060000 6.597341 -0.833698
v -0.600000 6.597341 -0.833698
v -0.600000 6.202659 -0.166302
v -0.060000 6.202659 -0.166302
v -0.060000 6.621316 -0.132738
v -0.600000 6.621316 -0.132738
v -0.600000 6.178684 0.132738
v -0.060000 6.178684 0.132738
v -0.060000 6.597341 0.166302
v -0.600000 6.597341 0.166302
v -0.600000 6.202659 0.833698
v -0.060000 6.202659 0.833698
v -0.060000 6.621316 0.867262
v -0.600000 6.621316 0.867262
v -0.600000 6.178684 1.132738
v -0.060000 6.178684 1.132738
v -0.060000 6.597341 1.166302
v -0.600000 6.597341 1.166302
v -0.600000 6.202659 1.833698
v -0.060000 6.202659 1.833698
v -0.060000 6.621316 1.867262
v -0.600000 6.621316 1.867262
v -0.600000 6.178684 2.132738
v -0.060000 6.178684 2.132738
v -0.060000 6.597341 2.166302
v -0.600000 6.597341 2.166302
v -0.600000 6.202659 2.833698
v -0.060000 6.202659 2.833698
v -0.060000 6.621316 2.867262
v -0.600000 6.621316 2.867262
v -0.600000 6.178684 3.132738
v -0.060000 6.178684 3.132738
v -0.060000 6.597341 3.166302
v -0.600000 6.597341 3.166302
v 1.139792 1.900000 -4.044594
v 0.985244 6.900000 -4.086005
v 0.834386 1.900000 -3.515614
v 0.721249 6.900000 -3.628751
v 0.305406 1.900000 -3.210208
v 0.263995 6.900000 -3.364756
v -0.305406 1.900000 -3.210208
v -0.263995 6.900000 -3.364756
v -0.834386 1.900000 -3.515614
v -0.721249 6.900000 -3.628751
v -1.139792 1.900000 -4.044594
v -0.985244 6.900000 -4.086005
v -1.139792 1.900000 -4.655406
v -0.985244 6.900000 -4.613995
v -0.834386 1.900000 -5.184386
v -0.721249 6.900000 -5.071249
v -0.305406 1.900000 -5.489792
v -0.263995 6.900000 -5.335244
v 0.305406 1.900000 -5.489792
v 0.263995 6.900000 -5.335244
v 0.834386 1.900000 -5.184386
v 0.721249 6.900000 -5.071249
v 1.139792 1.900000 -4.655406
v 0.985244 6.900000 -4.613995
v 0.650000 6.740000 -4.570000
v 1.190000 6.740000 -4.570000
v 1.190000 7.460000 -4.570000
v 0.650000 7.460000 -4.570000
v 0.650000 6.740000 -4.130000
v 1.190000 6.740000 -4.130000
v 1.190000 7.460000 -4.130000
v 0.650000 7.460000 -4.130000
v 0.515526 6.740000 -3.897083
v 0.785526 6.740000 -3.429430
v 0.785526 7.460000 -3.429430
v 0.515526 7.460000 -3.897083
v 0.134474 6.740000 -3.677083
v 0.404474 6.740000 -3.209430
v 0.404474 7.460000 -3.209430
v 0.134474 7.460000 -3.677083
v -0.134474 6.740000 -3.677083
v -0.404474 6.740000 -3.209430
v -0.404474 7.460000 -3.209430
v -0.134474 7.460000 -3.677083
v -0.515526 6.740000 -3.897083
v -0.785526 6.740000 -3.429430
v -0.785526 7.460000 -3.429430
v -0.515526 7.460000 -3.897083
v -0.650000 6.740000 -4.130000
v -1.190000 6.740000 -4.130000
v -1.190000 7.460000 -4.130000
v -0.650000 7.460000 -4.130000
v -0.650000 6.740000 -4.570000
v -1.190000 6.740000 -4.570000
v -1.190000 7.460000 -4.570000
v -0.650000 7.460000 -4.570000
v -0.515526 6.740000 -4.802917
v -0.785526 6.740000 -5.270570
v -0.785526 7.460000 -5.270570
v -0.515526 7.460000 -4.802917
v -0.134474 6.740000 -5.022917
v -0.404474 6.740000 -5.490570
v -0.404474 7.460000 -5.490570
v -0.134474 7.460000 -5.022917
v 0.134474 6.740000 -5.022917
v 0.404474 6.740000 -5.490570
v 0.404474 7.460000 -5.490570
v 0.134474 7.460000 -5.022917
v 0.515526 6.740000 -4.802917
v 0.785526 6.740000 -5.270570
v 0.785526 7.460000 -5.270570
v 0.515526 7.460000 -4.802917
v 1.139792 1.900000 4.655406
v 0.985244 6.900000 4.613995
v 0.834386 1.900000 5.184386
v 0.721249 6.900000 5.071249
v 0.305406 1.900000 5.489792
v 0.263995 6.900000 5.335244
v -0.305406 1.900000 5.489792
v -0.263995 6.900000 5.335244
v -0.834386 1.900000 5.184386
v -0.721249 6.900000 5.071249
v -1.139792 1.900000 4.655406
v -0.985244 6.900000 4.613995
v -1.139792 1.900000 4.044594
v -0.985244 6.900000 4.086005
v -0.834386 1.900000 3.515614
v -0.721249 6.900000 3.628751
v -0.305406 1.900000 3.210208
v -0.263995 6.900000 3.364756
v 0.305406 1.900000 3.210208
v 0.263995 6.900000 3.364756
v 0.834386 1.900000 3.515614
v 0.721249 6.900000 3.628751
v 1.139792 1.900000 4.044594
v 0.985244 6.900000 4.086005
v 0.650000 6.740000 4.130000
v 1.190000 6.740000 4.130000
v 1.190000 7.460000 4.130000
v 0.650000 7.460000 4.130000
v 0.650000 6.740000 4.570000
v 1.190000 6.740000 4.570000
v 1.190000 7.460000 4.570000
v 0.650000 7.460000 4.570000
v 0.515526 6.740000 4.802917
v 0.785526 6.740000 5.270570
v 0.785526 7.460000 5.270570
v 0.515526 7.460000 4.802917
v 0.134474 6.740000 5.022917
v 0.404474 6.740000 5.490570
v 0.404474 7.460000 5.490570
v 0.134474 7.460000 5.022917
v -0.134474 6.740000 5.022917
v -0.404474 6.740000 5.490570
v -0.404474 7.460000 5.490570
v -0.134474 7.460000 5.022917
v -0.515526 6.740000 4.802917
v -0.785526 6.740000 5.270570
v -0.785526 7.460000 5.270570
v -0.515526 7.460000 4.802917
v -0.650000 6.740000 4.570000
v -1.190000 6.740000 4.570000
v -1.190000 7.460000 4.570000
v -0.650000 7.460000 4.570000
v -0.650000 6.740000 4.130000
v -1.190000 6.740000 4.130000
v -1.190000 7.460000 4.130000
v -0.650000 7.460000 4.130000
v -0.515526 6.740000 3.897083
v -0.785526 6.740000 3.429430
v -0.785526 7.460000 3.429430
v -0.515526 7.460000 3.897083
v -0.134474 6.740000 3.677083
v -0.404474 6.740000 3.209430
v -0.404474 7.460000 3.209430
v -0.134474 7.460000 3.677083
v 0.134474 6.740000 3.677083
v 0.404474 6.740000 3.209430
v 0.404474 7.460000 3.209430
v 0.134474 7.460000 3.677083
v 0.515526 6.740000 3.897083
v 0.785526 6.740000 3.429430
v 0.785526 7.460000 3.429430
v 0.515526 7.460000 3.897083
f 4 3 2 1
f 7 8 5 6
f 8 4 1 5
f 3 7 6 2
f 8 7 3 4
f 1 2 6 5
f 12 11 10 9
f 15 16 13 14
f 16 12 9 13
f 11 15 14 10
f 16 15 11 12
f 9 10 14 13
f 20 19 18 17
f 23 24 21 22
f 24 20 17 21
f 19 23 22 18
f 24 23 19 20
f 17 18 22 21
f 28 27 26 25
f 31 32 29 30
f 32 28 25 29
f 27 31 30 26
f 32 31 27 28
f 25 26 30 29
f 36 35 34 33
f 39 40 37 38
f 40 36 33 37
f 35 39 38 34
f 40 39 35 36
f 33 34 38 37
f 44 43 42 41
f 47 48 45 46
f 48 44 41 45
f 43 47 46 42
f 48 47 43 44
f 41 42 46 45
f 52 51 50 49
f 55 56 53 54
f 56 52 49 53
f 51 55 54 50
f 56 55 51 52
f 49 50 54 53
f 60 59 58 57
f 63 64 61 62
f 64 60 57 61
f 59 63 62 58
f 64 63 59 60
f 57 58 62 61
f 68 67 66 65
f 71 72 69 70
f 72 68 65 69
f 67 71 70 66
f 72 71 67 68
f 65 66 70 69
f 76 75 74 73
f 79 80 77 78
f 80 76 73 77
f 75 79 78 74
f 80 79 75 76
f 73 74 78 77
f 84 83 82 81
f 87 88 85 86
f 88 84 81 85
f 83 87 86 82
f 88 87 83 84
f 81 82 86 85
f 92 91 90 89
f 95 96 93 94
f 96 92 89 93
f 91 95 94 90
f 96 95 91 92
f 89 90 94 93
f 100 99 98 97
f 103 104 101 102
f 104 100 97 101
f 99 103 102 98
f 104 103 99 100
f 97 98 102 101
f 108 107 106 105
f 111 112 109 110
f 112 108 105 109
f 107 111 110 106
f 112 111 107 108
f 105 106 110 109
f 116 115 114 113
f 119 120 117 118
f 120 116 113 117
f 115 119 118 114
f 120 119 115 116
f 113 114 118 117
f 124 123 122 121
f 127 128 125 126
f 128 124 121 125
f 123 127 126 122
f 128 127 123 124
f 121 122 126 125
f 132 131 130 129
f 135 136 133 134
f 136 132 129 133
f 131 135 134 130
f 136 135 131 132
f 129 130 134 133
f 140 139 138 137
f 143 144 141 142
f 144 140 137 141
f 139 143 142 138
f 144 143 139 140
f 137 138 142 141
f 148 147 146 145
f 151 152 149 150
f 152 148 145 149
f 147 151 150 146
f 152 151 147 148
f 145 146 150 149
f 156 155 154 153
f 159 160 157 158
f 160 156 153 157
f 155 159 158 154
f 160 159 155 156
f 153 154 158 157
f 164 163 162 161
f 167 168 165 166
f 168 164 161 165
f 163 167 166 162
f 168 167 163 164
f 161 162 166 165
f 172 171 170 169
f 175 176 173 174
f 176 172 169 173
f 171 175 174 170
f 176 175 171 172
f 169 170 174 173
f 180 179 178 177
f 183 184 181 182
f 184 180 177 181
f 179 183 182 178
f 184 183 179 180
f 177 178 182 181
f 188 187 186 185
f 191 192 189 190
f 192 188 185 189
f 187 191 190 186
f 192 191 187 188
f 185 186 190 189
f 196 195 194 193
f 199 200 197 198
f 200 196 193 197
f 195 199 198 194
f 200 199 195 196
f 193 194 198 197
f 204 203 202 201
f 207 208 205 206
f 208 204 201 205
f 203 207 206 202
f 208 207 203 204
f 201 202 206 205
f 212 211 210 209
f 215 216 213 214
f 216 212 209 213
f 211 215 214 210
f 216 215 211 212
f 209 210 214 213
f 220 219 218 217
f 223 224 221 222
f 224 220 217 221
f 219 223 222 218
f 224 223 219 220
f 217 218 222 221
f 228 227 226 225
f 231 232 229 230
f 232 228 225 229
f 227 231 230 226
f 232 231 227 228
f 225 226 230 229
f 236 235 234 233
f 239 240 237 238
f 240 236 233 237
f 235 239 238 234
f 240 239 235 236
f 233 234 238 237
f 244 243 242 241
f 247 248 245 246
f 248 244 241 245
f 243 247 246 242
f 248 247 243 244
f 241 242 246 245
f 252 251 250 249
f 255 256 253 254
f 256 252 249 253
f 251 255 254 250
f 256 255 251 252
f 249 250 254 253
f 260 259 258 257
f 263 264 261 262
f 264 260 257 261
f 259 263 262 258
f 264 263 259 260
f 257 258 262 261
f 268 267 266 265
f 271 272 269 270
f 272 268 265 269
f 267 271 270 266
f 272 271 267 268
f 265 266 270 269
f 276 275 274 273
f 279 280 277 278
f 280 276 273 277
f 275 279 278 274
f 280 279 275 276
f 273 274 278 277
f 284 283 282 281
f 287 288 285 286
f 288 284 281 285
f 283 287 286 282
f 288 287 283 284
f 281 282 286 285
f 292 291 290 289
f 295 296 293 294
f 296 292 289 293
f 291 295 294 290
f 296 295 291 292
f 289 290 294 293
f 300 299 298 297
f 303 304 301 302
f 304 300 297 301
f 299 303 302 298
f 304 303 299 300
f 297 298 302 301
f 308 307 306 305
f 311 312 309 310
f 312 308 305 309
f 307 311 310 306
f 312 311 307 308
f 305 306 310 309
f 316 315 314 313
f 319 320 317 318
f 320 316 313 317
f 315 319 318 314
f 320 319 315 316
f 313 314 318 317
f 324 323 322 321
f 327 328 325 326
f 328 324 321 325
f 323 327 326 322
f 328 327 323 324
f 321 322 326 325
f 332 331 330 329
f 335 336 333 334
f 336 332 329 333
f 331 335 334 330
f 336 335 331 332
f 329 330 334 333
f 338 340 339 337
f 340 342 341 339
f 342 344 343 341
f 344 346 345 343
f 346 348 347 345
f 348 350 349 347
f 350 352 351 349
f 352 354 353 351
f 354 356 355 353
f 356 358 357 355
f 358 360 359 357
f 360 338 337 359
f 337 339 341 343 345 347 349 351 353 355 357 359
f 360 358 356 354 352 350 348 346 344 342 340 338
f 364 363 362 361
f 367 368 365 366
f 368 364 361 365
f 363 367 366 362
f 368 367 363 364
f 361 362 366 365
f 372 371 370 369
f 375 376 373 374
f 376 372 369 373
f 371 375 374 370
f 376 375 371 372
f 369 370 374 373
f 380 379 378 377
f 383 384 381 382
f 384 380 377 381
f 379 383 382 378
f 384 383 379 380
f 377 378 382 381
f 388 387 386 385
f 391 392 389 390
f 392 388 385 389
f 387 391 390 386
f 392 391 387 388
f 385 386 390 389
f 396 395 394 393
f 399 400 397 398
f 400 396 393 397
f 395 399 398 394
f 400 399 395 396
f 393 394 398 397
f 404 403 402 401
f 407 408 405 406
f 408 404 401 405
f 403 407 406 402
f 408 407 403 404
f 401 402 406 405
f 410 412 411 409
f 412 414 413 411
f 414 416 415 413
f 416 418 417 415
f 418 420 419 417
f 420 422 421 419
f 422 424 423 421
f 424 426 425 423
f 426 428 427 425
f 428 430 429 427
f 430 432 431 429
f 432 410 409 431
f 409 411 413 415 417 419 421 423 425 427 429 431
f 432 430 428 426 424 422 420 418 416 414 412 410
f 436 435 434 433
f 439 440 437 438
f 440 436 433 437
f 435 439 438 434
f 440 439 435 436
f 433 434 438 437
f 444 443 442 441
f 447 448 445 446
f 448 444 441 445
f 443 447 446 442
f 448 447 443 444
f 441 442 446 445
f 452 451 450 449
f 455 456 453 454
f 456 452 449 453
f 451 455 454 450
f 456 455 451 452
f 449 450 454 453
f 460 459 458 457
f 463 464 461 462
f 464 460 457 461
f 459 463 462 458
f 464 463 459 460
f 457 458 462 461
f 468 467 466 465
f 471 472 469 470
f 472 468 465 469
f 467 471 470 466
f 472 471 467 468
f 465 466 470 469
f 476 475 474 473
f 479 480 477 478
f 480 476 473 477
f 475 479 478 474
f 480 479 475 476
f 473 474 478 477
