o human_wall_stone
s off
v -0.63138 0.03131 -4.81000
v 0.61842 0.00881 -4.81000
v 0.63138 0.72869 -4.81000
v -0.61842 0.75119 -4.81000
v -0.63138 0.03131 -3.99000
v 0.61842 0.00881 -3.99000
v 0.63138 0.72869 -3.99000
v -0.61842 0.75119 -3.99000
v -0.61842 0.00881 -3.93000
v 0.63138 0.03131 -3.93000
v 0.61842 0.75119 -3.93000
v -0.63138 0.72869 -3.93000
v -0.61842 0.00881 -3.11000
v 0.63138 0.03131 -3.11000
v 0.61842 0.75119 -3.11000
v -0.63138 0.72869 -3.11000
v -0.63138 0.03131 -3.05000
v 0.61842 0.00881 -3.05000
v 0.63138 0.72869 -3.05000
v -0.61842 0.75119 -3.05000
v -0.63138 0.03131 -2.23000
v 0.61842 0.00881 -2.23000
v 0.63138 0.72869 -2.23000
v -0.61842 0.75119 -2.23000
v -0.61842 0.00881 -2.17000
v 0.63138 0.03131 -2.17000
v 0.61842 0.75119 -2.17000
v -0.63138 0.72869 -2.17000
v -0.61842 0.00881 -1.35000
v 0.63138 0.03131 -1.35000
v 0.61842 0.75119 -1.35000
v -0.63138 0.72869 -1.35000
v -0.63138 0.03131 -1.29000
v 0.61842 0.00881 -1.29000
v 0.63138 0.72869 -1.29000
v -0.61842 0.75119 -1.29000
v -0.63138 0.03131 -0.47000
v 0.61842 0.00881 -0.47000
v 0.63138 0.72869 -0.47000
v -0.61842 0.75119 -0.47000
v -0.61842 0.00881 -0.41000
v 0.63138 0.03131 -0.41000
v 0.61842 0.75119 -0.41000
v -0.63138 0.72869 -0.41000
v -0.61842 0.00881 0.41000
v 0.63138 0.03131 0.41000
v 0.61842 0.75119 0.41000
v -0.63138 0.72869 0.41000
v -0.63138 0.03131 0.47000
v 0.61842 0.00881 0.47000
v 0.63138 0.72869 0.47000
v -0.61842 0.75119 0.47000
v -0.63138 0.03131 1.29000
v 0.61842 0.00881 1.29000
v 0.63138 0.72869 1.29000
v -0.61842 0.75119 1.29000
v -0.61842 0.00881 1.35000
v 0.63138 0.03131 1.35000
v 0.61842 0.75119 1.35000
v -0.63138 0.72869 1.35000
v -0.61842 0.00881 2.17000
v 0.63138 0.03131 2.17000
v 0.61842 0.75119 2.17000
v -0.63138 0.72869 2.17000
v -0.63138 0.03131 2.23000
v 0.61842 0.00881 2.23000
v 0.63138 0.72869 2.23000
v -0.61842 0.75119 2.23000
v -0.63138 0.03131 3.05000
v 0.61842 0.00881 3.05000
v 0.63138 0.72869 3.05000
v -0.61842 0.75119 3.05000
v -0.61842 0.00881 3.11000
v 0.63138 0.03131 3.11000
v 0.61842 0.75119 3.11000
v -0.63138 0.72869 3.11000
v -0.61842 0.00881 3.93000
v 0.63138 0.03131 3.93000
v 0.61842 0.75119 3.93000
v -0.63138 0.72869 3.93000
v -0.63138 0.03131 3.99000
v 0.61842 0.00881 3.99000
v 0.63138 0.72869 3.99000
v -0.61842 0.75119 3.99000
v -0.63138 0.03131 4.81000
v 0.61842 0.00881 4.81000
v 0.63138 0.72869 4.81000
v -0.61842 0.75119 4.81000
v -0.67500 0.91000 -4.75000
v 0.67500 0.91000 -4.75000
v 0.67500 1.13000 -4.75000
v -0.67500 1.13000 -4.75000
v -0.67500 0.91000 4.75000
v 0.67500 0.91000 4.75000
v 0.67500 1.13000 4.75000
v -0.67500 1.13000 4.75000
v -0.11683 0.89666 -4.72000
v 0.18307 0.90416 -4.72000
v 0.11683 3.55334 -4.72000
v -0.18307 3.54584 -4.72000
v -0.11683 0.89666 -4.48000
v 0.18307 0.90416 -4.48000
v 0.11683 3.55334 -4.48000
v -0.18307 3.54584 -4.48000
v 0.12000 4.75000 -4.60000
v 0.06000 4.75000 -4.49608
v -0.06000 4.75000 -4.49608
v -0.12000 4.75000 -4.60000
v -0.06000 4.75000 -4.70392
v 0.06000 4.75000 -4.70392
v 0.02749 5.29931 -4.60000
v -0.18057 0.90413 -4.26000
v 0.11933 0.89663 -4.26000
v 0.18057 3.34587 -4.26000
v -0.11933 3.35337 -4.26000
v -0.18057 0.90413 -4.02000
v 0.11933 0.89663 -4.02000
v 0.18057 3.34587 -4.02000
v -0.11933 3.35337 -4.02000
v -0.11808 0.89665 -3.80000
v 0.18182 0.90415 -3.80000
v 0.11808 3.45335 -3.80000
v -0.18182 3.44585 -3.80000
v -0.11808 0.89665 -3.56000
v 0.18182 0.90415 -3.56000
v 0.11808 3.45335 -3.56000
v -0.18182 3.44585 -3.56000
v 0.12000 4.65000 -3.68000
v 0.06000 4.65000 -3.57608
v -0.06000 4.65000 -3.57608
v -0.12000 4.65000 -3.68000
v -0.06000 4.65000 -3.78392
v 0.06000 4.65000 -3.78392
v 0.02749 5.19931 -3.68000
v -0.18307 0.90416 -3.34000
v 0.11683 0.89666 -3.34000
v 0.18307 3.54584 -3.34000
v -0.11683 3.55334 -3.34000
v -0.18307 0.90416 -3.10000
v 0.11683 0.89666 -3.10000
v 0.18307 3.54584 -3.10000
v -0.11683 3.55334 -3.10000
v -0.11933 0.89663 -2.88000
v 0.18057 0.90413 -2.88000
v 0.11933 3.35337 -2.88000
v -0.18057 3.34587 -2.88000
v -0.11933 0.89663 -2.64000
v 0.18057 0.90413 -2.64000
v 0.11933 3.35337 -2.64000
v -0.18057 3.34587 -2.64000
v 0.12000 4.55000 -2.76000
v 0.06000 4.55000 -2.65608
v -0.06000 4.55000 -2.65608
v -0.12000 4.55000 -2.76000
v -0.06000 4.55000 -2.86392
v 0.06000 4.55000 -2.86392
v 0.02749 5.09931 -2.76000
v -0.18182 0.90415 -2.42000
v 0.11808 0.89665 -2.42000
v 0.18182 3.44585 -2.42000
v -0.11808 3.45335 -2.42000
v -0.18182 0.90415 -2.18000
v 0.11808 0.89665 -2.18000
v 0.18182 3.44585 -2.18000
v -0.11808 3.45335 -2.18000
v -0.11683 0.89666 -1.96000
v 0.18307 0.90416 -1.96000
v 0.11683 3.55334 -1.96000
v -0.18307 3.54584 -1.96000
v -0.11683 0.89666 -1.72000
v 0.18307 0.90416 -1.72000
v 0.11683 3.55334 -1.72000
v -0.18307 3.54584 -1.72000
v 0.12000 4.75000 -1.84000
v 0.06000 4.75000 -1.73608
v -0.06000 4.75000 -1.73608
v -0.12000 4.75000 -1.84000
v -0.06000 4.75000 -1.94392
v 0.06000 4.75000 -1.94392
v 0.02749 5.29931 -1.84000
v -0.18057 0.90413 -1.50000
v 0.11933 0.89663 -1.50000
v 0.18057 3.34587 -1.50000
v -0.11933 3.35337 -1.50000
v -0.18057 0.90413 -1.26000
v 0.11933 0.89663 -1.26000
v 0.18057 3.34587 -1.26000
v -0.11933 3.35337 -1.26000
v -0.11808 0.89665 -1.04000
v 0.18182 0.90415 -1.04000
v 0.11808 3.45335 -1.04000
v -0.18182 3.44585 -1.04000
v -0.11808 0.89665 -0.80000
v 0.18182 0.90415 -0.80000
v 0.11808 3.45335 -0.80000
v -0.18182 3.44585 -0.80000
v 0.12000 4.65000 -0.92000
v 0.06000 4.65000 -0.81608
v -0.06000 4.65000 -0.81608
v -0.12000 4.65000 -0.92000
v -0.06000 4.65000 -1.02392
v 0.06000 4.65000 -1.02392
v 0.02749 5.19931 -0.92000
v -0.18307 0.90416 -0.58000
v 0.11683 0.89666 -0.58000
v 0.18307 3.54584 -0.58000
v -0.11683 3.55334 -0.58000
v -0.18307 0.90416 -0.34000
v 0.11683 0.89666 -0.34000
v 0.18307 3.54584 -0.34000
v -0.11683 3.55334 -0.34000
v -0.11933 0.89663 -0.12000
v 0.18057 0.90413 -0.12000
v 0.11933 3.35337 -0.12000
v -0.18057 3.34587 -0.12000
v -0.11933 0.89663 0.12000
v 0.18057 0.90413 0.12000
v 0.11933 3.35337 0.12000
v -0.18057 3.34587 0.12000
v 0.12000 4.55000 0.00000
v 0.06000 4.55000 0.10392
v -0.06000 4.55000 0.10392
v -0.12000 4.55000 0.00000
v -0.06000 4.55000 -0.10392
v 0.06000 4.55000 -0.10392
v 0.02749 5.09931 0.00000
v -0.18182 0.90415 0.34000
v 0.11808 0.89665 0.34000
v 0.18182 3.44585 0.34000
v -0.11808 3.45335 0.34000
v -0.18182 0.90415 0.58000
v 0.11808 0.89665 0.58000
v 0.18182 3.44585 0.58000
v -0.11808 3.45335 0.58000
v -0.11683 0.89666 0.80000
v 0.18307 0.90416 0.80000
v 0.11683 3.55334 0.80000
v -0.18307 3.54584 0.80000
v -0.11683 0.89666 1.04000
v 0.18307 0.90416 1.04000
v 0.11683 3.55334 1.04000
v -0.18307 3.54584 1.04000
v 0.12000 4.75000 0.92000
v 0.06000 4.75000 1.02392
v -0.06000 4.75000 1.02392
v -0.12000 4.75000 0.92000
v -0.06000 4.75000 0.81608
v 0.06000 4.75000 0.81608
v 0.02749 5.29931 0.92000
v -0.18057 0.90413 1.26000
v 0.11933 0.89663 1.26000
v 0.18057 3.34587 1.26000
v -0.11933 3.35337 1.26000
v -0.18057 0.90413 1.50000
v 0.11933 0.89663 1.50000
v 0.18057 3.34587 1.50000
v -0.11933 3.35337 1.50000
v -0.11808 0.89665 1.72000
v 0.18182 0.90415 1.72000
v 0.11808 3.45335 1.72000
v -0.18182 3.44585 1.72000
v -0.11808 0.89665 1.96000
v 0.18182 0.90415 1.96000
v 0.11808 3.45335 1.96000
v -0.18182 3.44585 1.96000
v 0.12000 4.65000 1.84000
v 0.06000 4.65000 1.94392
v -0.06000 4.65000 1.94392
v -0.12000 4.65000 1.84000
v -0.06000 4.65000 1.73608
v 0.06000 4.65000 1.73608
v 0.02749 5.19931 1.84000
v -0.18307 0.90416 2.18000
v 0.11683 0.89666 2.18000
v 0.18307 3.54584 2.18000
v -0.11683 3.55334 2.18000
v -0.18307 0.90416 2.42000
v 0.11683 0.89666 2.42000
v 0.18307 3.54584 2.42000
v -0.11683 3.55334 2.42000
v -0.11933 0.89663 2.64000
v 0.18057 0.90413 2.64000
v 0.11933 3.35337 2.64000
v -0.18057 3.34587 2.64000
v -0.11933 0.89663 2.88000
v 0.18057 0.90413 2.88000
v 0.11933 3.35337 2.88000
v -0.18057 3.34587 2.88000
v 0.12000 4.55000 2.76000
v 0.06000 4.55000 2.86392
v -0.06000 4.55000 2.86392
v -0.12000 4.55000 2.76000
v -0.06000 4.55000 2.65608
v 0.06000 4.55000 2.65608
v 0.02749 5.09931 2.76000
v -0.18182 0.90415 3.10000
v 0.11808 0.89665 3.10000
v 0.18182 3.44585 3.10000
v -0.11808 3.45335 3.10000
v -0.18182 0.90415 3.34000
v 0.11808 0.89665 3.34000
v 0.18182 3.44585 3.34000
v -0.11808 3.45335 3.34000
v -0.11683 0.89666 3.56000
v 0.18307 0.90416 3.56000
v 0.11683 3.55334 3.56000
v -0.18307 3.54584 3.56000
v -0.11683 0.89666 3.80000
v 0.18307 0.90416 3.80000
v 0.11683 3.55334 3.80000
v -0.18307 3.54584 3.80000
v 0.12000 4.75000 3.68000
v 0.06000 4.75000 3.78392
v -0.06000 4.75000 3.78392
v -0.12000 4.75000 3.68000
v -0.06000 4.75000 3.57608
v 0.06000 4.75000 3.57608
v 0.02749 5.29931 3.68000
v -0.18057 0.90413 4.02000
v 0.11933 0.89663 4.02000
v 0.18057 3.34587 4.02000
v -0.11933 3.35337 4.02000
v -0.18057 0.90413 4.26000
v 0.11933 0.89663 4.26000
v 0.18057 3.34587 4.26000
v -0.11933 3.35337 4.26000
v -0.11808 0.89665 4.48000
v 0.18182 0.90415 4.48000
v 0.11808 3.45335 4.48000
v -0.18182 3.44585 4.48000
v -0.11808 0.89665 4.72000
v 0.18182 0.90415 4.72000
v 0.11808 3.45335 4.72000
v -0.18182 3.44585 4.72000
v 0.12000 4.65000 4.60000
v 0.06000 4.65000 4.70392
v -0.06000 4.65000 4.70392
v -0.12000 4.65000 4.60000
v -0.06000 4.65000 4.49608
v 0.06000 4.65000 4.49608
v 0.02749 5.19931 4.60000
v -0.39000 2.32000 -4.60000
v 0.03000 2.32000 -4.60000
v 0.03000 2.58000 -4.60000
v -0.39000 2.58000 -4.60000
v -0.39000 2.32000 4.60000
v 0.03000 2.32000 4.60000
v 0.03000 2.58000 4.60000
v -0.39000 2.58000 4.60000
f 4 3 2 1
f 7 8 5 6
f 8 4 1 5
f 3 7 6 2
f 8 7 3 4
f 1 2 6 5
f 12 11 10 9
f 15 16 13 14
f 16 12 9 13
f 11 15 14 10
f 16 15 11 12
f 9 10 14 13
f 20 19 18 17
f 23 24 21 22
f 24 20 17 21
f 19 23 22 18
f 24 23 19 20
f 17 18 22 21
f 28 27 26 25
f 31 32 29 30
f 32 28 25 29
f 27 31 30 26
f 32 31 27 28
f 25 26 30 29
f 36 35 34 33
f 39 40 37 38
f 40 36 33 37
f 35 39 38 34
f 40 39 35 36
f 33 34 38 37
f 44 43 42 41
f 47 48 45 46
f 48 44 41 45
f 43 47 46 42
f 48 47 43 44
f 41 42 46 45
f 52 51 50 49
f 55 56 53 54
f 56 52 49 53
f 51 55 54 50
f 56 55 51 52
f 49 50 54 53
f 60 59 58 57
f 63 64 61 62
f 64 60 57 61
f 59 63 62 58
f 64 63 59 60
f 57 58 62 61
f 68 67 66 65
f 71 72 69 70
f 72 68 65 69
f 67 71 70 66
f 72 71 67 68
f 65 66 70 69
f 76 75 74 73
f 79 80 77 78
f 80 76 73 77
f 75 79 78 74
f 80 79 75 76
f 73 74 78 77
f 84 83 82 81
f 87 88 85 86
f 88 84 81 85
f 83 87 86 82
f 88 87 83 84
f 81 82 86 85
f 92 91 90 89
f 95 96 93 94
f 96 92 89 93
f 91 95 94 90
f 96 95 91 92
f 89 90 94 93
f 100 99 98 97
f 103 104 101 102
f 104 100 97 101
f 99 103 102 98
f 104 103 99 100
f 97 98 102 101
f 111 106 105
f 111 107 106
f 111 108 107
f 111 109 108
f 111 110 109
f 111 105 110
f 105 106 107 108 109 110
f 115 114 113 112
f 118 119 116 117
f 119 115 112 116
f 114 118 117 113
f 119 118 114 115
f 112 113 117 116
f 123 122 121 120
f 126 127 124 125
f 127 123 120 124
f 122 126 125 121
f 127 126 122 123
f 120 121 125 124
f 134 129 128
f 134 130 129
f 134 131 130
f 134 132 131
f 134 133 132
f 134 128 133
f 128 129 130 131 132 133
f 138 137 136 135
f 141 142 139 140
f 142 138 135 139
f 137 141 140 136
f 142 141 137 138
f 135 136 140 139
f 146 145 144 143
f 149 150 147 148
f 150 146 143 147
f 145 149 148 144
f 150 149 145 146
f 143 144 148 147
f 157 152 151
f 157 153 152
f 157 154 153
f 157 155 154
f 157 156 155
f 157 151 156
f 151 152 153 154 155 156
f 161 160 159 158
f 164 165 162 163
f 165 161 158 162
f 160 164 163 159
f 165 164 160 161
f 158 159 163 162
f 169 168 167 166
f 172 173 170 171
f 173 169 166 170
f 168 172 171 167
f 173 172 168 169
f 166 167 171 170
f 180 175 174
f 180 176 175
f 180 177 176
f 180 178 177
f 180 179 178
f 180 174 179
f 174 175 176 177 178 179
f 184 183 182 181
f 187 188 185 186
f 188 184 181 185
f 183 187 186 182
f 188 187 183 184
f 181 182 186 185
f 192 191 190 189
f 195 196 193 194
f 196 192 189 193
f 191 195 194 190
f 196 195 191 192
f 189 190 194 193
f 203 198 197
f 203 199 198
f 203 200 199
f 203 201 200
f 203 202 201
f 203 197 202
f 197 198 199 200 201 202
f 207 206 205 204
f 210 211 208 209
f 211 207 204 208
f 206 210 209 205
f 211 210 206 207
f 204 205 209 208
f 215 214 213 212
f 218 219 216 217
f 219 215 212 216
f 214 218 217 213
f 219 218 214 215
f 212 213 217 216
f 226 221 220
f 226 222 221
f 226 223 222
f 226 224 223
f 226 225 224
f 226 220 225
f 220 221 222 223 224 225
f 230 229 228 227
f 233 234 231 232
f 234 230 227 231
f 229 233 232 228
f 234 233 229 230
f 227 228 232 231
f 238 237 236 235
f 241 242 239 240
f 242 238 235 239
f 237 241 240 236
f 242 241 237 238
f 235 236 240 239
f 249 244 243
f 249 245 244
f 249 246 245
f 249 247 246
f 249 248 247
f 249 243 248
f 243 244 245 246 247 248
f 253 252 251 250
f 256 257 254 255
f 257 253 250 254
f 252 256 255 251
f 257 256 252 253
f 250 251 255 254
f 261 260 259 258
f 264 265 262 263
f 265 261 258 262
f 260 264 263 259
f 265 264 260 261
f 258 259 263 262
f 272 267 266
f 272 268 267
f 272 269 268
f 272 270 269
f 272 271 270
f 272 266 271
f 266 267 268 269 270 271
f 276 275 274 273
f 279 280 277 278
f 280 276 273 277
f 275 279 278 274
f 280 279 275 276
f 273 274 278 277
f 284 283 282 281
f 287 288 285 286
f 288 284 281 285
f 283 287 286 282
f 288 287 283 284
f 281 282 286 285
f 295 290 289
f 295 291 290
f 295 292 291
f 295 293 292
f 295 294 293
f 295 289 294
f 289 290 291 292 293 294
f 299 298 297 296
f 302 303 300 301
f 303 299 296 300
f 298 302 301 297
f 303 302 298 299
f 296 297 301 300
f 307 306 305 304
f 310 311 308 309
f 311 307 304 308
f 306 310 309 305
f 311 310 306 307
f 304 305 309 308
f 318 313 312
f 318 314 313
f 318 315 314
f 318 316 315
f 318 317 316
f 318 312 317
f 312 313 314 315 316 317
f 322 321 320 319
f 325 326 323 324
f 326 322 319 323
f 321 325 324 320
f 326 325 321 322
f 319 320 324 323
f 330 329 328 327
f 333 334 331 332
f 334 330 327 331
f 329 333 332 328
f 334 333 329 330
f 327 328 332 331
f 341 336 335
f 341 337 336
f 341 338 337
f 341 339 338
f 341 340 339
f 341 335 340
f 335 336 337 338 339 340
f 345 344 343 342
f 348 349 346 347
f 349 345 342 346
f 344 348 347 343
f 349 348 344 345
f 342 343 347 346
