o human_tower
s off
v 2.02844 0.00000 0.54352
v 1.85458 5.40000 0.49693
v 1.48492 0.00000 1.48492
v 1.35765 5.40000 1.35765
v 0.54352 0.00000 2.02844
v 0.49693 5.40000 1.85458
v -0.54352 0.00000 2.02844
v -0.49693 5.40000 1.85458
v -1.48492 0.00000 1.48492
v -1.35765 5.40000 1.35765
v -2.02844 0.00000 0.54352
v -1.85458 5.40000 0.49693
v -2.02844 0.00000 -0.54352
v -1.85458 5.40000 -0.49693
v -1.48492 0.00000 -1.48492
v -1.35765 5.40000 -1.35765
v -0.54352 0.00000 -2.02844
v -0.49693 5.40000 -1.85458
v 0.54352 0.00000 -2.02844
v 0.49693 5.40000 -1.85458
v 1.48492 0.00000 -1.48492
v 1.35765 5.40000 -1.35765
v 2.02844 0.00000 -0.54352
v 1.85458 5.40000 -0.49693
v 2.26993 0.00000 0.60822
v 2.12504 0.70000 0.56940
v 1.66170 0.00000 1.66170
v 1.55563 0.70000 1.55563
v 0.60822 0.00000 2.26993
v 0.56940 0.70000 2.12504
v -0.60822 0.00000 2.26993
v -0.56940 0.70000 2.12504
v -1.66170 0.00000 1.66170
v -1.55563 0.70000 1.55563
v -2.26993 0.00000 0.60822
v -2.12504 0.70000 0.56940
v -2.26993 0.00000 -0.60822
v -2.12504 0.70000 -0.56940
v -1.66170 0.00000 -1.66170
v -1.55563 0.70000 -1.55563
v -0.60822 0.00000 -2.26993
v -0.56940 0.70000 -2.12504
v 0.60822 0.00000 -2.26993
v 0.56940 0.70000 -2.12504
v 1.66170 0.00000 -1.66170
v 1.55563 0.70000 -1.55563
v 2.26993 0.00000 -0.60822
v 2.12504 0.70000 -0.56940
v 2.10572 5.37000 0.56423
v 2.10572 5.73000 0.56423
v 1.54149 5.37000 1.54149
v 1.54149 5.73000 1.54149
v 0.56423 5.37000 2.10572
v 0.56423 5.73000 2.10572
v -0.56423 5.37000 2.10572
v -0.56423 5.73000 2.10572
v -1.54149 5.37000 1.54149
v -1.54149 5.73000 1.54149
v -2.10572 5.37000 0.56423
v -2.10572 5.73000 0.56423
v -2.10572 5.37000 -0.56423
v -2.10572 5.73000 -0.56423
v -1.54149 5.37000 -1.54149
v -1.54149 5.73000 -1.54149
v -0.56423 5.37000 -2.10572
v -0.56423 5.73000 -2.10572
v 0.56423 5.37000 -2.10572
v 0.56423 5.73000 -2.10572
v 1.54149 5.37000 -1.54149
v 1.54149 5.73000 -1.54149
v 2.10572 5.37000 -0.56423
v 2.10572 5.73000 -0.56423
v 1.44500 5.63000 -0.31000
v 2.19500 5.63000 -0.31000
v 2.19500 6.41000 -0.31000
v 1.44500 6.41000 -0.31000
v 1.44500 5.63000 0.31000
v 2.19500 5.63000 0.31000
v 2.19500 6.41000 0.31000
v 1.44500 6.41000 0.31000
v 0.99097 5.63000 1.09641
v 1.36597 5.63000 1.74593
v 1.36597 6.41000 1.74593
v 0.99097 6.41000 1.09641
v 0.45403 5.63000 1.40641
v 0.82903 5.63000 2.05593
v 0.82903 6.41000 2.05593
v 0.45403 6.41000 1.40641
v -0.45403 5.63000 1.40641
v -0.82903 5.63000 2.05593
v -0.82903 6.41000 2.05593
v -0.45403 6.41000 1.40641
v -0.99097 5.63000 1.09641
v -1.36597 5.63000 1.74593
v -1.36597 6.41000 1.74593
v -0.99097 6.41000 1.09641
v -1.44500 5.63000 0.31000
v -2.19500 5.63000 0.31000
v -2.19500 6.41000 0.31000
v -1.44500 6.41000 0.31000
v -1.44500 5.63000 -0.31000
v -2.19500 5.63000 -0.31000
v -2.19500 6.41000 -0.31000
v -1.44500 6.41000 -0.31000
v -0.99097 5.63000 -1.09641
v -1.36597 5.63000 -1.74593
v -1.36597 6.41000 -1.74593
v -0.99097 6.41000 -1.09641
v -0.45403 5.63000 -1.40641
v -0.82903 5.63000 -2.05593
v -0.82903 6.41000 -2.05593
v -0.45403 6.41000 -1.40641
v 0.45403 5.63000 -1.40641
v 0.82903 5.63000 -2.05593
v 0.82903 6.41000 -2.05593
v 0.45403 6.41000 -1.40641
v 0.99097 5.63000 -1.09641
v 1.36597 5.63000 -1.74593
v 1.36597 6.41000 -1.74593
v 0.99097 6.41000 -1.09641
v 1.64000 0.05000 -0.50000
v 2.36000 0.05000 -0.50000
v 2.36000 2.05000 -0.50000
v 1.64000 2.05000 -0.50000
v 1.64000 0.05000 0.50000
v 2.36000 0.05000 0.50000
v 2.36000 2.05000 0.50000
v 1.64000 2.05000 0.50000
v 0.55906 0.08178 1.64000
v 0.55906 0.08178 2.36000
v 0.43914 2.07818 2.36000
v 0.43914 2.07818 1.64000
v -0.43914 0.02182 1.64000
v -0.43914 0.02182 2.36000
v -0.55906 2.01822 2.36000
v -0.55906 2.01822 1.64000
v -1.64000 0.05000 0.50000
v -2.36000 0.05000 0.50000
v -2.36000 2.05000 0.50000
v -1.64000 2.05000 0.50000
v -1.64000 0.05000 -0.50000
v -2.36000 0.05000 -0.50000
v -2.36000 2.05000 -0.50000
v -1.64000 2.05000 -0.50000
v -0.55906 0.08178 -1.64000
v -0.55906 0.08178 -2.36000
v -0.43914 2.07818 -2.36000
v -0.43914 2.07818 -1.64000
v 0.43914 0.02182 -1.64000
v 0.43914 0.02182 -2.36000
v 0.55906 2.01822 -2.36000
v 0.55906 2.01822 -1.64000
f 2 4 3 1
f 4 6 5 3
f 6 8 7 5
f 8 10 9 7
f 10 12 11 9
f 12 14 13 11
f 14 16 15 13
f 16 18 17 15
f 18 20 19 17
f 20 22 21 19
f 22 24 23 21
f 24 2 1 23
f 1 3 5 7 9 11 13 15 17 19 21 23
f 24 22 20 18 16 14 12 10 8 6 4 2
f 26 28 27 25
f 28 30 29 27
f 30 32 31 29
f 32 34 33 31
f 34 36 35 33
f 36 38 37 35
f 38 40 39 37
f 40 42 41 39
f 42 44 43 41
f 44 46 45 43
f 46 48 47 45
f 48 26 25 47
f 25 27 29 31 33 35 37 39 41 43 45 47
f 48 46 44 42 40 38 36 34 32 30 28 26
f 50 52 51 49
f 52 54 53 51
f 54 56 55 53
f 56 58 57 55
f 58 60 59 57
f 60 62 61 59
f 62 64 63 61
f 64 66 65 63
f 66 68 67 65
f 68 70 69 67
f 70 72 71 69
f 72 50 49 71
f 49 51 53 55 57 59 61 63 65 67 69 71
f 72 70 68 66 64 62 60 58 56 54 52 50
f 76 75 74 73
f 79 80 77 78
f 80 76 73 77
f 75 79 78 74
f 80 79 75 76
f 73 74 78 77
f 84 83 82 81
f 87 88 85 86
f 88 84 81 85
f 83 87 86 82
f 88 87 83 84
f 81 82 86 85
f 92 91 90 89
f 95 96 93 94
f 96 92 89 93
f 91 95 94 90
f 96 95 91 92
f 89 90 94 93
f 100 99 98 97
f 103 104 101 102
f 104 100 97 101
f 99 103 102 98
f 104 103 99 100
f 97 98 102 101
f 108 107 106 105
f 111 112 109 110
f 112 108 105 109
f 107 111 110 106
f 112 111 107 108
f 105 106 110 109
f 116 115 114 113
f 119 120 117 118
f 120 116 113 117
f 115 119 118 114
f 120 119 115 116
f 113 114 118 117
f 124 123 122 121
f 127 128 125 126
f 128 124 121 125
f 123 127 126 122
f 128 127 123 124
f 121 122 126 125
f 132 131 130 129
f 135 136 133 134
f 136 132 129 133
f 131 135 134 130
f 136 135 131 132
f 129 130 134 133
f 140 139 138 137
f 143 144 141 142
f 144 140 137 141
f 139 143 142 138
f 144 143 139 140
f 137 138 142 141
f 148 147 146 145
f 151 152 149 150
f 152 148 145 149
f 147 151 150 146
f 152 151 147 148
f 145 146 150 149
