o human_tower_stone
s off
v -1.90000 0.00000 -1.90000
v 1.90000 0.00000 -1.90000
v 1.90000 4.70000 -1.90000
v -1.90000 4.70000 -1.90000
v -1.90000 0.00000 1.90000
v 1.90000 0.00000 1.90000
v 1.90000 4.70000 1.90000
v -1.90000 4.70000 1.90000
v -2.12500 0.00000 -2.12500
v 2.12500 0.00000 -2.12500
v 2.12500 0.80000 -2.12500
v -2.12500 0.80000 -2.12500
v -2.12500 0.00000 2.12500
v 2.12500 0.00000 2.12500
v 2.12500 0.80000 2.12500
v -2.12500 0.80000 2.12500
v -2.20000 4.75000 -2.20000
v 2.20000 4.75000 -2.20000
v 2.20000 4.75000 2.20000
v -2.20000 4.75000 2.20000
v -2.20000 6.55000 0.00000
v 2.20000 6.55000 0.00000
v -1.82000 0.00000 -1.82000
v -1.48000 0.00000 -1.82000
v -1.48000 4.70000 -1.82000
v -1.82000 4.70000 -1.82000
v -1.82000 0.00000 -1.48000
v -1.48000 0.00000 -1.48000
v -1.48000 4.70000 -1.48000
v -1.82000 4.70000 -1.48000
v 1.48000 0.00000 -1.82000
v 1.82000 0.00000 -1.82000
v 1.82000 4.70000 -1.82000
v 1.48000 4.70000 -1.82000
v 1.48000 0.00000 -1.48000
v 1.82000 0.00000 -1.48000
v 1.82000 4.70000 -1.48000
v 1.48000 4.70000 -1.48000
v -1.82000 0.00000 1.48000
v -1.48000 0.00000 1.48000
v -1.48000 4.70000 1.48000
v -1.82000 4.70000 1.48000
v -1.82000 0.00000 1.82000
v -1.48000 0.00000 1.82000
v -1.48000 4.70000 1.82000
v -1.82000 4.70000 1.82000
v 1.48000 0.00000 1.48000
v 1.82000 0.00000 1.48000
v 1.82000 4.70000 1.48000
v 1.48000 4.70000 1.48000
v 1.48000 0.00000 1.82000
v 1.82000 0.00000 1.82000
v 1.82000 4.70000 1.82000
v 1.48000 4.70000 1.82000
v -2.01000 2.02500 -0.99000
v -1.83000 2.02500 -0.99000
v -1.83000 2.77500 -0.99000
v -2.01000 2.77500 -0.99000
v -2.01000 2.02500 -0.81000
v -1.83000 2.02500 -0.81000
v -1.83000 2.77500 -0.81000
v -2.01000 2.77500 -0.81000
v -2.01000 2.02500 -0.09000
v -1.83000 2.02500 -0.09000
v -1.83000 2.77500 -0.09000
v -2.01000 2.77500 -0.09000
v -2.01000 2.02500 0.09000
v -1.83000 2.02500 0.09000
v -1.83000 2.77500 0.09000
v -2.01000 2.77500 0.09000
v -2.01000 2.02500 0.81000
v -1.83000 2.02500 0.81000
v -1.83000 2.77500 0.81000
v -2.01000 2.77500 0.81000
v -2.01000 2.02500 0.99000
v -1.83000 2.02500 0.99000
v -1.83000 2.77500 0.99000
v -2.01000 2.77500 0.99000
f 4 3 2 1
f 7 8 5 6
f 8 4 1 5
f 3 7 6 2
f 8 7 3 4
f 1 2 6 5
f 12 11 10 9
f 15 16 13 14
f 16 12 9 13
f 11 15 14 10
f 16 15 11 12
f 9 10 14 13
f 21 22 18 17
f 19 22 21 20
f 20 21 17
f 22 19 18
f 18 19 20 17
f 26 25 24 23
f 29 30 27 28
f 30 26 23 27
f 25 29 28 24
f 30 29 25 26
f 23 24 28 27
f 34 33 32 31
f 37 38 35 36
f 38 34 31 35
f 33 37 36 32
f 38 37 33 34
f 31 32 36 35
f 42 41 40 39
f 45 46 43 44
f 46 42 39 43
f 41 45 44 40
f 46 45 41 42
f 39 40 44 43
f 50 49 48 47
f 53 54 51 52
f 54 50 47 51
f 49 53 52 48
f 54 53 49 50
f 47 48 52 51
f 58 57 56 55
f 61 62 59 60
f 62 58 55 59
f 57 61 60 56
f 62 61 57 58
f 55 56 60 59
f 66 65 64 63
f 69 70 67 68
f 70 66 63 67
f 65 69 68 64
f 70 69 65 66
f 63 64 68 67
f 74 73 72 71
f 77 78 75 76
f 78 74 71 75
f 73 77 76 72
f 78 77 73 74
f 71 72 76 75
