o human_tower_bronze
s off
v 2.11135 0.00000 0.68602
v 1.90211 5.50000 0.61803
v 1.30488 0.00000 1.79602
v 1.17557 5.50000 1.61803
v 0.00000 0.00000 2.22000
v 0.00000 5.50000 2.00000
v -1.30488 0.00000 1.79602
v -1.17557 5.50000 1.61803
v -2.11135 0.00000 0.68602
v -1.90211 5.50000 0.61803
v -2.11135 0.00000 -0.68602
v -1.90211 5.50000 -0.61803
v -1.30488 0.00000 -1.79602
v -1.17557 5.50000 -1.61803
v -0.00000 0.00000 -2.22000
v -0.00000 5.50000 -2.00000
v 1.30488 0.00000 -1.79602
v 1.17557 5.50000 -1.61803
v 2.11135 0.00000 -0.68602
v 1.90211 5.50000 -0.61803
v 2.35862 0.00000 0.76636
v 2.18743 0.76000 0.71074
v 1.45771 0.00000 2.00636
v 1.35191 0.76000 1.86074
v 0.00000 0.00000 2.48000
v 0.00000 0.76000 2.30000
v -1.45771 0.00000 2.00636
v -1.35191 0.76000 1.86074
v -2.35862 0.00000 0.76636
v -2.18743 0.76000 0.71074
v -2.35862 0.00000 -0.76636
v -2.18743 0.76000 -0.71074
v -1.45771 0.00000 -2.00636
v -1.35191 0.76000 -1.86074
v -0.00000 0.00000 -2.48000
v -0.00000 0.76000 -2.30000
v 1.45771 0.00000 -2.00636
v 1.35191 0.76000 -1.86074
v 2.35862 0.00000 -0.76636
v 2.18743 0.76000 -0.71074
v 2.23498 5.39000 0.72619
v 2.23498 5.77000 0.72619
v 1.38130 5.39000 1.90119
v 1.38130 5.77000 1.90119
v 0.00000 5.39000 2.35000
v 0.00000 5.77000 2.35000
v -1.38130 5.39000 1.90119
v -1.38130 5.77000 1.90119
v -2.23498 5.39000 0.72619
v -2.23498 5.77000 0.72619
v -2.23498 5.39000 -0.72619
v -2.23498 5.77000 -0.72619
v -1.38130 5.39000 -1.90119
v -1.38130 5.77000 -1.90119
v -0.00000 5.39000 -2.35000
v -0.00000 5.77000 -2.35000
v 1.38130 5.39000 -1.90119
v 1.38130 5.77000 -1.90119
v 2.23498 5.39000 -0.72619
v 2.23498 5.77000 -0.72619
v 1.60000 5.60000 -0.31000
v 2.36000 5.60000 -0.31000
v 2.36000 6.50000 -0.31000
v 1.60000 6.50000 -0.31000
v 1.60000 5.60000 0.31000
v 2.36000 5.60000 0.31000
v 2.36000 6.50000 0.31000
v 1.60000 6.50000 0.31000
v 0.78925 5.60000 1.42590
v 1.02411 5.60000 2.14870
v 1.02411 6.50000 2.14870
v 0.78925 6.50000 1.42590
v 0.19960 5.60000 1.61749
v 0.43445 5.60000 2.34029
v 0.43445 6.50000 2.34029
v 0.19960 6.50000 1.61749
v -1.11221 5.60000 1.19125
v -1.72707 5.60000 1.63797
v -1.72707 6.50000 1.63797
v -1.11221 6.50000 1.19125
v -1.47664 5.60000 0.68966
v -2.09149 5.60000 1.13638
v -2.09149 6.50000 1.13638
v -1.47664 6.50000 0.68966
v -1.47664 5.60000 -0.68966
v -2.09149 5.60000 -1.13638
v -2.09149 6.50000 -1.13638
v -1.47664 6.50000 -0.68966
v -1.11221 5.60000 -1.19125
v -1.72707 5.60000 -1.63797
v -1.72707 6.50000 -1.63797
v -1.11221 6.50000 -1.19125
v 0.19960 5.60000 -1.61749
v 0.43445 5.60000 -2.34029
v 0.43445 6.50000 -2.34029
v 0.19960 6.50000 -1.61749
v 0.78925 5.60000 -1.42590
v 1.02411 5.60000 -2.14870
v 1.02411 6.50000 -2.14870
v 0.78925 6.50000 -1.42590
v 1.66000 0.10000 -0.52500
v 2.38000 0.10000 -0.52500
v 2.38000 2.40000 -0.52500
v 1.66000 2.40000 -0.52500
v 1.66000 0.10000 0.52500
v 2.38000 0.10000 0.52500
v 2.38000 2.40000 0.52500
v 1.66000 2.40000 0.52500
v 0.52500 0.10000 1.66000
v 0.52500 0.10000 2.38000
v 0.52500 2.40000 2.38000
v 0.52500 2.40000 1.66000
v -0.52500 0.10000 1.66000
v -0.52500 0.10000 2.38000
v -0.52500 2.40000 2.38000
v -0.52500 2.40000 1.66000
v -1.66000 0.10000 0.52500
v -2.38000 0.10000 0.52500
v -2.38000 2.40000 0.52500
v -1.66000 2.40000 0.52500
v -1.66000 0.10000 -0.52500
v -2.38000 0.10000 -0.52500
v -2.38000 2.40000 -0.52500
v -1.66000 2.40000 -0.52500
v -0.52500 0.10000 -1.66000
v -0.52500 0.10000 -2.38000
v -0.52500 2.40000 -2.38000
v -0.52500 2.40000 -1.66000
v 0.52500 0.10000 -1.66000
v 0.52500 0.10000 -2.38000
v 0.52500 2.40000 -2.38000
v 0.52500 2.40000 -1.66000
f 2 4 3 1
f 4 6 5 3
f 6 8 7 5
f 8 10 9 7
f 10 12 11 9
f 12 14 13 11
f 14 16 15 13
f 16 18 17 15
f 18 20 19 17
f 20 2 1 19
f 1 3 5 7 9 11 13 15 17 19
f 20 18 16 14 12 10 8 6 4 2
f 22 24 23 21
f 24 26 25 23
f 26 28 27 25
f 28 30 29 27
f 30 32 31 29
f 32 34 33 31
f 34 36 35 33
f 36 38 37 35
f 38 40 39 37
f 40 22 21 39
f 21 23 25 27 29 31 33 35 37 39
f 40 38 36 34 32 30 28 26 24 22
f 42 44 43 41
f 44 46 45 43
f 46 48 47 45
f 48 50 49 47
f 50 52 51 49
f 52 54 53 51
f 54 56 55 53
f 56 58 57 55
f 58 60 59 57
f 60 42 41 59
f 41 43 45 47 49 51 53 55 57 59
f 60 58 56 54 52 50 48 46 44 42
f 64 63 62 61
f 67 68 65 66
f 68 64 61 65
f 63 67 66 62
f 68 67 63 64
f 61 62 66 65
f 72 71 70 69
f 75 76 73 74
f 76 72 69 73
f 71 75 74 70
f 76 75 71 72
f 69 70 74 73
f 80 79 78 77
f 83 84 81 82
f 84 80 77 81
f 79 83 82 78
f 84 83 79 80
f 77 78 82 81
f 88 87 86 85
f 91 92 89 90
f 92 88 85 89
f 87 91 90 86
f 92 91 87 88
f 85 86 90 89
f 96 95 94 93
f 99 100 97 98
f 100 96 93 97
f 95 99 98 94
f 100 99 95 96
f 93 94 98 97
f 104 103 102 101
f 107 108 105 106
f 108 104 101 105
f 103 107 106 102
f 108 107 103 104
f 101 102 106 105
f 112 111 110 109
f 115 116 113 114
f 116 112 109 113
f 111 115 114 110
f 116 115 111 112
f 109 110 114 113
f 120 119 118 117
f 123 124 121 122
f 124 120 117 121
f 119 123 122 118
f 124 123 119 120
f 117 118 122 121
f 128 127 126 125
f 131 132 129 130
f 132 128 125 129
f 127 131 130 126
f 132 131 127 128
f 125 126 130 129
