o ogre_gatehouse
s off
v -0.74035 -0.08834 -4.45000
v 1.29941 0.11632 -4.45000
v 0.74035 5.68834 -4.45000
v -1.29941 5.48368 -4.45000
v -0.74035 -0.08834 -2.65000
v 1.29941 0.11632 -2.65000
v 0.74035 5.68834 -2.65000
v -1.29941 5.48368 -2.65000
v 0.19000 5.45000 -3.44350
v 0.09042 5.45000 -3.20308
v -0.15000 5.45000 -3.10350
v -0.39042 5.45000 -3.20308
v -0.49000 5.45000 -3.44350
v -0.39042 5.45000 -3.68392
v -0.15000 5.45000 -3.78350
v 0.09042 5.45000 -3.68392
v -1.08460 7.66055 -3.44350
v -1.40569 0.17043 2.45000
v 0.62425 -0.11564 2.45000
v 1.40569 5.42957 2.45000
v -0.62425 5.71564 2.45000
v -1.40569 0.17043 4.25000
v 0.62425 -0.11564 4.25000
v 1.40569 5.42957 4.25000
v -0.62425 5.71564 4.25000
v 0.19000 5.45000 3.24950
v 0.09042 5.45000 3.48992
v -0.15000 5.45000 3.58950
v -0.39042 5.45000 3.48992
v -0.49000 5.45000 3.24950
v -0.39042 5.45000 3.00908
v -0.15000 5.45000 2.90950
v 0.09042 5.45000 3.00908
v 0.78460 7.66055 3.24950
v -1.05685 4.96269 -4.20000
v 1.09184 5.03792 -4.20000
v 1.05685 6.03731 -4.20000
v -1.09184 5.96208 -4.20000
v -1.05685 4.96269 4.00000
v 1.09184 5.03792 4.00000
v 1.05685 6.03731 4.00000
v -1.09184 5.96208 4.00000
v 0.71000 4.95000 -2.70000
v 0.64976 4.95000 -2.57491
v 0.51440 4.95000 -2.54401
v 0.40584 4.95000 -2.63058
v 0.40584 4.95000 -2.76942
v 0.51440 4.95000 -2.85599
v 0.64976 4.95000 -2.82509
v 1.05970 6.09136 -2.70000
v 0.71000 4.95000 -1.35000
v 0.64976 4.95000 -1.22491
v 0.51440 4.95000 -1.19401
v 0.40584 4.95000 -1.28058
v 0.40584 4.95000 -1.41942
v 0.51440 4.95000 -1.50599
v 0.64976 4.95000 -1.47509
v 1.05970 6.09136 -1.35000
v 0.71000 4.95000 0.00000
v 0.64976 4.95000 0.12509
v 0.51440 4.95000 0.15599
v 0.40584 4.95000 0.06942
v 0.40584 4.95000 -0.06942
v 0.51440 4.95000 -0.15599
v 0.64976 4.95000 -0.12509
v 1.05970 6.09136 0.00000
v 0.71000 4.95000 1.40000
v 0.64976 4.95000 1.52509
v 0.51440 4.95000 1.55599
v 0.40584 4.95000 1.46942
v 0.40584 4.95000 1.33058
v 0.51440 4.95000 1.24401
v 0.64976 4.95000 1.27491
v 1.05970 6.09136 1.40000
v 0.71000 4.95000 2.75000
v 0.64976 4.95000 2.87509
v 0.51440 4.95000 2.90599
v 0.40584 4.95000 2.81942
v 0.40584 4.95000 2.68058
v 0.51440 4.95000 2.59401
v 0.64976 4.95000 2.62491
v 1.05970 6.09136 2.75000
f 4 3 2 1
f 7 8 5 6
f 8 4 1 5
f 3 7 6 2
f 8 7 3 4
f 1 2 6 5
f 17 10 9
f 17 11 10
f 17 12 11
f 17 13 12
f 17 14 13
f 17 15 14
f 17 16 15
f 17 9 16
f 9 10 11 12 13 14 15 16
f 21 20 19 18
f 24 25 22 23
f 25 21 18 22
f 20 24 23 19
f 25 24 20 21
f 18 19 23 22
f 34 27 26
f 34 28 27
f 34 29 28
f 34 30 29
f 34 31 30
f 34 32 31
f 34 33 32
f 34 26 33
f 26 27 28 29 30 31 32 33
f 38 37 36 35
f 41 42 39 40
f 42 38 35 39
f 37 41 40 36
f 42 41 37 38
f 35 36 40 39
f 50 44 43
f 50 45 44
f 50 46 45
f 50 47 46
f 50 48 47
f 50 49 48
f 50 43 49
f 43 44 45 46 47 48 49
f 58 52 51
f 58 53 52
f 58 54 53
f 58 55 54
f 58 56 55
f 58 57 56
f 58 51 57
f 51 52 53 54 55 56 57
f 66 60 59
f 66 61 60
f 66 62 61
f 66 63 62
f 66 64 63
f 66 65 64
f 66 59 65
f 59 60 61 62 63 64 65
f 74 68 67
f 74 69 68
f 74 70 69
f 74 71 70
f 74 72 71
f 74 73 72
f 74 67 73
f 67 68 69 70 71 72 73
f 82 76 75
f 82 77 76
f 82 78 77
f 82 79 78
f 82 80 79
f 82 81 80
f 82 75 81
f 75 76 77 78 79 80 81
