o ogre_wall_bronze
s off
v -0.77051 0.01574 -4.90449
v 0.89696 0.10755 -4.90449
v 0.77337 2.35235 -4.99447
v -0.89410 2.26054 -4.99447
v -0.77337 0.06765 -3.60553
v 0.89410 0.15946 -3.60553
v 0.77051 2.40426 -3.69551
v -0.89696 2.31245 -3.69551
v -0.90713 0.10292 -3.86143
v 0.76035 0.01112 -3.86143
v 0.90713 2.67708 -3.86143
v -0.76035 2.76888 -3.86143
v -0.90713 0.10292 -2.28143
v 0.76035 0.01112 -2.28143
v 0.90713 2.67708 -2.28143
v -0.76035 2.76888 -2.28143
v -0.75030 0.00862 -2.55412
v 0.91717 0.10043 -2.55412
v 0.74744 3.18329 -2.43055
v -0.92003 3.09148 -2.43055
v -0.74744 -0.04329 -1.25516
v 0.92003 0.04852 -1.25516
v 0.75030 3.13138 -1.13159
v -0.91717 3.03957 -1.13159
v -0.93187 -0.52659 -1.33347
v 0.73560 -0.61839 -1.33347
v 0.92840 2.88350 -1.47384
v -0.73907 2.97530 -1.47384
v -0.92840 -0.46350 0.24526
v 0.73907 -0.55530 0.24526
v 0.93187 2.94659 0.10490
v -0.73560 3.03839 0.10490
v -0.77189 0.22080 -0.03571
v 0.89558 0.31260 -0.03571
v 0.77189 2.55920 -0.03571
v -0.89558 2.46740 -0.03571
v -0.77189 0.22080 1.26429
v 0.89558 0.31260 1.26429
v 0.77189 2.55920 1.26429
v -0.89558 2.46740 1.26429
v -0.90533 0.31553 1.00010
v 0.76214 0.22373 1.00010
v 0.90880 2.88756 1.10687
v -0.75867 2.97936 1.10687
v -0.90880 0.25244 2.57884
v 0.75867 0.16064 2.57884
v 0.90533 2.82447 2.68561
v -0.76214 2.91627 2.68561
v -0.74744 -0.40329 2.48373
v 0.92003 -0.31148 2.48373
v 0.75030 2.77138 2.36016
v -0.91717 2.67957 2.36016
v -0.75030 -0.35138 3.78269
v 0.91717 -0.25957 3.78269
v 0.74744 2.82329 3.65913
v -0.92003 2.73148 3.65913
v -0.93021 -0.31644 3.51000
v 0.73726 -0.40825 3.51000
v 0.93021 3.09644 3.51000
v -0.73726 3.18825 3.51000
v -0.93021 -0.31644 5.09000
v 0.73726 -0.40825 5.09000
v 0.93021 3.09644 5.09000
v -0.73726 3.18825 5.09000
v -0.90029 3.39284 -4.75000
v 0.91889 3.44744 -4.75000
v 0.90029 4.06716 -4.75000
v -0.91889 4.01256 -4.75000
v -0.90029 3.39284 4.75000
v 0.91889 3.44744 4.75000
v 0.90029 4.06716 4.75000
v -0.91889 4.01256 4.75000
v 0.11500 4.02000 -4.20000
v 0.04158 4.02000 -4.04754
v -0.12339 4.02000 -4.00989
v -0.25569 4.02000 -4.11539
v -0.25569 4.02000 -4.28461
v -0.12339 4.02000 -4.39011
v 0.04158 4.02000 -4.35246
v -0.26141 5.30728 -4.20000
v 0.11500 4.20000 -3.00000
v 0.04158 4.20000 -2.84754
v -0.12339 4.20000 -2.80989
v -0.25569 4.20000 -2.91539
v -0.25569 4.20000 -3.08461
v -0.12339 4.20000 -3.19011
v 0.04158 4.20000 -3.15246
v -0.26141 5.48728 -3.00000
v 0.11500 4.02000 -1.80000
v 0.04158 4.02000 -1.64754
v -0.12339 4.02000 -1.60989
v -0.25569 4.02000 -1.71539
v -0.25569 4.02000 -1.88461
v -0.12339 4.02000 -1.99011
v 0.04158 4.02000 -1.95246
v -0.26141 5.30728 -1.80000
v 0.11500 4.20000 -0.60000
v 0.04158 4.20000 -0.44754
v -0.12339 4.20000 -0.40989
v -0.25569 4.20000 -0.51539
v -0.25569 4.20000 -0.68461
v -0.12339 4.20000 -0.79011
v 0.04158 4.20000 -0.75246
v -0.26141 5.48728 -0.60000
v 0.11500 4.02000 0.60000
v 0.04158 4.02000 0.75246
v -0.12339 4.02000 0.79011
v -0.25569 4.02000 0.68461
v -0.25569 4.02000 0.51539
v -0.12339 4.02000 0.40989
v 0.04158 4.02000 0.44754
v 0.10141 5.30728 0.60000
v 0.11500 4.20000 1.80000
v 0.04158 4.20000 1.95246
v -0.12339 4.20000 1.99011
v -0.25569 4.20000 1.88461
v -0.25569 4.20000 1.71539
v -0.12339 4.20000 1.60989
v 0.04158 4.20000 1.64754
v 0.10141 5.48728 1.80000
v 0.11500 4.02000 3.00000
v 0.04158 4.02000 3.15246
v -0.12339 4.02000 3.19011
v -0.25569 4.02000 3.08461
v -0.25569 4.02000 2.91539
v -0.12339 4.02000 2.80989
v 0.04158 4.02000 2.84754
v 0.10141 5.30728 3.00000
v 0.11500 4.20000 4.20000
v 0.04158 4.20000 4.35246
v -0.12339 4.20000 4.39011
v -0.25569 4.20000 4.28461
v -0.25569 4.20000 4.11539
v -0.12339 4.20000 4.00989
v 0.04158 4.20000 4.04754
v 0.10141 5.48728 4.20000
v -0.48617 0.44272 -3.91000
v -0.08715 0.41475 -3.91000
v 0.12617 3.45728 -3.91000
v -0.27285 3.48525 -3.91000
v -0.48617 0.44272 -2.89000
v -0.08715 0.41475 -2.89000
v 0.12617 3.45728 -2.89000
v -0.27285 3.48525 -2.89000
v -0.48617 0.44272 -1.66000
v -0.08715 0.41475 -1.66000
v 0.12617 3.45728 -1.66000
v -0.27285 3.48525 -1.66000
v -0.48617 0.44272 -0.64000
v -0.08715 0.41475 -0.64000
v 0.12617 3.45728 -0.64000
v -0.27285 3.48525 -0.64000
v -0.27285 0.41475 0.89000
v 0.12617 0.44272 0.89000
v -0.08715 3.48525 0.89000
v -0.48617 3.45728 0.89000
v -0.27285 0.41475 1.91000
v 0.12617 0.44272 1.91000
v -0.08715 3.48525 1.91000
v -0.48617 3.45728 1.91000
v -0.27285 0.41475 3.04000
v 0.12617 0.44272 3.04000
v -0.08715 3.48525 3.04000
v -0.48617 3.45728 3.04000
v -0.27285 0.41475 4.06000
v 0.12617 0.44272 4.06000
v -0.08715 3.48525 4.06000
v -0.48617 3.45728 4.06000
f 4 3 2 1
f 7 8 5 6
f 8 4 1 5
f 3 7 6 2
f 8 7 3 4
f 1 2 6 5
f 12 11 10 9
f 15 16 13 14
f 16 12 9 13
f 11 15 14 10
f 16 15 11 12
f 9 10 14 13
f 20 19 18 17
f 23 24 21 22
f 24 20 17 21
f 19 23 22 18
f 24 23 19 20
f 17 18 22 21
f 28 27 26 25
f 31 32 29 30
f 32 28 25 29
f 27 31 30 26
f 32 31 27 28
f 25 26 30 29
f 36 35 34 33
f 39 40 37 38
f 40 36 33 37
f 35 39 38 34
f 40 39 35 36
f 33 34 38 37
f 44 43 42 41
f 47 48 45 46
f 48 44 41 45
f 43 47 46 42
f 48 47 43 44
f 41 42 46 45
f 52 51 50 49
f 55 56 53 54
f 56 52 49 53
f 51 55 54 50
f 56 55 51 52
f 49 50 54 53
f 60 59 58 57
f 63 64 61 62
f 64 60 57 61
f 59 63 62 58
f 64 63 59 60
f 57 58 62 61
f 68 67 66 65
f 71 72 69 70
f 72 68 65 69
f 67 71 70 66
f 72 71 67 68
f 65 66 70 69
f 80 74 73
f 80 75 74
f 80 76 75
f 80 77 76
f 80 78 77
f 80 79 78
f 80 73 79
f 73 74 75 76 77 78 79
f 88 82 81
f 88 83 82
f 88 84 83
f 88 85 84
f 88 86 85
f 88 87 86
f 88 81 87
f 81 82 83 84 85 86 87
f 96 90 89
f 96 91 90
f 96 92 91
f 96 93 92
f 96 94 93
f 96 95 94
f 96 89 95
f 89 90 91 92 93 94 95
f 104 98 97
f 104 99 98
f 104 100 99
f 104 101 100
f 104 102 101
f 104 103 102
f 104 97 103
f 97 98 99 100 101 102 103
f 112 106 105
f 112 107 106
f 112 108 107
f 112 109 108
f 112 110 109
f 112 111 110
f 112 105 111
f 105 106 107 108 109 110 111
f 120 114 113
f 120 115 114
f 120 116 115
f 120 117 116
f 120 118 117
f 120 119 118
f 120 113 119
f 113 114 115 116 117 118 119
f 128 122 121
f 128 123 122
f 128 124 123
f 128 125 124
f 128 126 125
f 128 127 126
f 128 121 127
f 121 122 123 124 125 126 127
f 136 130 129
f 136 131 130
f 136 132 131
f 136 133 132
f 136 134 133
f 136 135 134
f 136 129 135
f 129 130 131 132 133 134 135
f 140 139 138 137
f 143 144 141 142
f 144 140 137 141
f 139 143 142 138
f 144 143 139 140
f 137 138 142 141
f 148 147 146 145
f 151 152 149 150
f 152 148 145 149
f 147 151 150 146
f 152 151 147 148
f 145 146 150 149
f 156 155 154 153
f 159 160 157 158
f 160 156 153 157
f 155 159 158 154
f 160 159 155 156
f 153 154 158 157
f 164 163 162 161
f 167 168 165 166
f 168 164 161 165
f 163 167 166 162
f 168 167 163 164
f 161 162 166 165
