o ogre_gatehouse_stone
s off
v -1.063622 -0.122283 -4.800000
v 1.682589 0.153257 -4.800000
v 0.834771 6.299321 -4.700000
v -1.453738 6.069704 -4.700000
v -1.063622 -0.122283 -2.600000
v 1.682589 0.153257 -2.600000
v 0.834771 6.299321 -2.700000
v -1.453738 6.069704 -2.700000
v -1.486234 -0.134174 -4.925000
v 1.250027 0.140368 -4.925000
v 1.126234 1.374174 -4.925000
v -1.610027 1.099632 -4.925000
v -1.486234 -0.134174 -2.475000
v 1.250027 0.140368 -2.475000
v 1.126234 1.374174 -2.475000
v -1.610027 1.099632 -2.475000
v 1.060466 1.291516 -3.910000
v 1.279367 1.313480 -3.910000
v 1.179534 2.308484 -3.910000
v 0.960633 2.286520 -3.910000
v 1.060466 1.291516 -3.490000
v 1.279367 1.313480 -3.490000
v 1.179534 2.308484 -3.490000
v 0.960633 2.286520 -3.490000
v 1.060466 3.091516 -3.910000
v 1.279367 3.113480 -3.910000
v 1.179534 4.108484 -3.910000
v 0.960633 4.086520 -3.910000
v 1.060466 3.091516 -3.490000
v 1.279367 3.113480 -3.490000
v 1.179534 4.108484 -3.490000
v 0.960633 4.086520 -3.490000
v 0.180000 5.950000 -3.700000
v 0.091097 5.950000 -3.455741
v -0.134014 5.950000 -3.325773
v -0.390000 5.950000 -3.370910
v -0.557083 5.950000 -3.570032
v -0.557083 5.950000 -3.829968
v -0.390000 5.950000 -4.029090
v -0.134014 5.950000 -4.074227
v 0.091097 5.950000 -3.944259
v -1.198883 7.966118 -3.700000
v -1.799082 0.222900 2.350000
v 0.933914 -0.162239 2.350000
v 1.571332 6.009195 2.450000
v -0.706165 6.330144 2.450000
v -1.799082 0.222900 4.550000
v 0.933914 -0.162239 4.550000
v 1.571332 6.009195 4.450000
v -0.706165 6.330144 4.450000
v -1.628064 0.197938 2.225000
v 1.095030 -0.185806 2.225000
v 1.268064 1.042062 2.225000
v -1.455030 1.425806 2.225000
v -1.628064 0.197938 4.675000
v 1.095030 -0.185806 4.675000
v 1.268064 1.042062 4.675000
v -1.455030 1.425806 4.675000
v 0.941305 1.320242 3.240000
v 1.159152 1.289542 3.240000
v 1.298695 2.279758 3.240000
v 1.080848 2.310458 3.240000
v 0.941305 1.320242 3.660000
v 1.159152 1.289542 3.660000
v 1.298695 2.279758 3.660000
v 1.080848 2.310458 3.660000
v 0.941305 3.120242 3.240000
v 1.159152 3.089542 3.240000
v 1.298695 4.079758 3.240000
v 1.080848 4.110458 3.240000
v 0.941305 3.120242 3.660000
v 1.159152 3.089542 3.660000
v 1.298695 4.079758 3.660000
v 1.080848 4.110458 3.660000
v 0.180000 5.950000 3.450000
v 0.091097 5.950000 3.694259
v -0.134014 5.950000 3.824227
v -0.390000 5.950000 3.779090
v -0.557083 5.950000 3.579968
v -0.557083 5.950000 3.320032
v -0.390000 5.950000 3.120910
v -0.134014 5.950000 3.075773
v 0.091097 5.950000 3.205741
v 0.798883 7.966118 3.450000
v -1.253573 5.265745 -4.525000
v 1.294865 5.354977 -4.525000
v 1.253573 6.534255 -4.525000
v -1.294865 6.445023 -4.525000
v -1.253573 5.265745 4.325000
v 1.294865 5.354977 4.325000
v 1.253573 6.534255 4.325000
v -1.294865 6.445023 4.325000
v 0.900000 5.420000 -3.000000
v 0.850208 5.420000 -2.879792
v 0.730000 5.420000 -2.830000
v 0.609792 5.420000 -2.879792
v 0.560000 5.420000 -3.000000
v 0.609792 5.420000 -3.120208
v 0.730000 5.420000 -3.170000
v 0.850208 5.420000 -3.120208
v 1.255715 6.663432 -3.000000
v 0.900000 5.420000 -1.500000
v 0.850208 5.420000 -1.379792
v 0.730000 5.420000 -1.330000
v 0.609792 5.420000 -1.379792
v 0.560000 5.420000 -1.500000
v 0.609792 5.420000 -1.620208
v 0.730000 5.420000 -1.670000
v 0.850208 5.420000 -1.620208
v 1.255715 6.663432 -1.500000
v 0.900000 5.420000 0.000000
v 0.850208 5.420000 0.120208
v 0.730000 5.420000 0.170000
v 0.609792 5.420000 0.120208
v 0.560000 5.420000 0.000000
v 0.609792 5.420000 -0.120208
v 0.730000 5.420000 -0.170000
v 0.850208 5.420000 -0.120208
v 1.255715 6.663432 0.000000
v 0.900000 5.420000 1.500000
v 0.850208 5.420000 1.620208
v 0.730000 5.420000 1.670000
v 0.609792 5.420000 1.620208
v 0.560000 5.420000 1.500000
v 0.609792 5.420000 1.379792
v 0.730000 5.420000 1.330000
v 0.850208 5.420000 1.379792
v 1.255715 6.663432 1.500000
v 0.900000 5.420000 3.000000
v 0.850208 5.420000 3.120208
v 0.730000 5.420000 3.170000
v 0.609792 5.420000 3.120208
v 0.560000 5.420000 3.000000
v 0.609792 5.420000 2.879792
v 0.730000 5.420000 2.830000
v 0.850208 5.420000 2.879792
v 1.255715 6.663432 3.000000
f 4 3 2 1
f 7 8 5 6
f 8 4 1 5
f 3 7 6 2
f 8 7 3 4
f 1 2 6 5
f 12 11 10 9
f 15 16 13 14
f 16 12 9 13
f 11 15 14 10
f 16 15 11 12
f 9 10 14 13
f 20 19 18 17
f 23 24 21 22
f 24 20 17 21
f 19 23 22 18
f 24 23 19 20
f 17 18 22 21
f 28 27 26 25
f 31 32 29 30
f 32 28 25 29
f 27 31 30 26
f 32 31 27 28
f 25 26 30 29
f 42 34 33
f 42 35 34
f 42 36 35
f 42 37 36
f 42 38 37
f 42 39 38
f 42 40 39
f 42 41 40
f 42 33 41
f 33 34 35 36 37 38 39 40 41
f 46 45 44 43
f 49 50 47 48
f 50 46 43 47
f 45 49 48 44
f 50 49 45 46
f 43 44 48 47
f 54 53 52 51
f 57 58 55 56
f 58 54 51 55
f 53 57 56 52
f 58 57 53 54
f 51 52 56 55
f 62 61 60 59
f 65 66 63 64
f 66 62 59 63
f 61 65 64 60
f 66 65 61 62
f 59 60 64 63
f 70 69 68 67
f 73 74 71 72
f 74 70 67 71
f 69 73 72 68
f 74 73 69 70
f 67 68 72 71
f 84 76 75
f 84 77 76
f 84 78 77
f 84 79 78
f 84 80 79
f 84 81 80
f 84 82 81
f 84 83 82
f 84 75 83
f 75 76 77 78 79 80 81 82 83
f 88 87 86 85
f 91 92 89 90
f 92 88 85 89
f 87 91 90 86
f 92 91 87 88
f 85 86 90 89
f 101 94 93
f 101 95 94
f 101 96 95
f 101 97 96
f 101 98 97
f 101 99 98
f 101 100 99
f 101 93 100
f 93 94 95 96 97 98 99 100
f 110 103 102
f 110 104 103
f 110 105 104
f 110 106 105
f 110 107 106
f 110 108 107
f 110 109 108
f 110 102 109
f 102 103 104 105 106 107 108 109
f 119 112 111
f 119 113 112
f 119 114 113
f 119 115 114
f 119 116 115
f 119 117 116
f 119 118 117
f 119 111 118
f 111 112 113 114 115 116 117 118
f 128 121 120
f 128 122 121
f 128 123 122
f 128 124 123
f 128 125 124
f 128 126 125
f 128 127 126
f 128 120 127
f 120 121 122 123 124 125 126 127
f 137 130 129
f 137 131 130
f 137 132 131
f 137 133 132
f 137 134 133
f 137 135 134
f 137 136 135
f 137 129 136
f 129 130 131 132 133 134 135 136
