o ogre_tower_stone
s off
v 2.44832 0.00000 0.39511
v 1.75726 6.00000 0.28359
v 1.21760 0.00000 2.16052
v 0.87392 6.00000 1.55070
v -0.93001 0.00000 2.29902
v -0.66750 6.00000 1.65010
v -2.37729 0.00000 0.70631
v -1.70628 6.00000 0.50695
v -2.03443 0.00000 -1.41827
v -1.46020 6.00000 -1.01795
v -0.15960 0.00000 -2.47486
v -0.11455 6.00000 -1.77631
v 1.83541 0.00000 -1.66783
v 1.31735 6.00000 -1.19707
v 2.20382 5.44000 0.20660
v 2.56909 6.12000 0.26555
v 1.18648 5.44000 1.66592
v 1.36814 6.12000 1.98825
v -0.58876 5.44000 1.78040
v -0.72751 6.12000 2.12340
v -1.78510 5.44000 0.46384
v -2.13978 6.12000 0.56922
v -1.50169 5.44000 -1.29236
v -1.80521 6.12000 -1.50396
v 0.04807 5.44000 -2.16575
v 0.02426 6.12000 -2.53498
v 1.69718 5.44000 -1.49865
v 1.97101 6.12000 -1.74748
v 0.00748 0.89271 -1.67000
v 0.30906 1.04971 -1.67000
v -1.90748 5.30729 -1.67000
v -2.20906 5.15029 -1.67000
v 0.00748 0.89271 -1.33000
v 0.30906 1.04971 -1.33000
v -1.90748 5.30729 -1.33000
v -2.20906 5.15029 -1.33000
v -2.12606 1.00101 1.38000
v -1.81845 0.85619 1.38000
v 0.22606 5.19899 1.38000
v -0.08155 5.34381 1.38000
v -2.12606 1.00101 1.72000
v -1.81845 0.85619 1.72000
v 0.22606 5.19899 1.72000
v -0.08155 5.34381 1.72000
v -0.68758 0.70834 0.03000
v -0.35308 0.76921 0.03000
v -1.21242 5.49166 0.03000
v -1.54692 5.43079 0.03000
v -0.68758 0.70834 0.37000
v -0.35308 0.76921 0.37000
v -1.21242 5.49166 0.37000
v -1.54692 5.43079 0.37000
v 2.05573 6.12000 0.30270
v 1.98796 6.12000 0.44343
v 1.83568 6.12000 0.47819
v 1.71356 6.12000 0.38080
v 1.71356 6.12000 0.22461
v 1.83568 6.12000 0.12722
v 1.98796 6.12000 0.16197
v 2.05482 7.40728 0.33161
v 1.11284 6.12000 1.65524
v 1.04506 6.12000 1.79597
v 0.89278 6.12000 1.83073
v 0.77066 6.12000 1.73334
v 0.77066 6.12000 1.57714
v 0.89278 6.12000 1.47975
v 1.04506 6.12000 1.51451
v 1.02190 7.40728 1.81328
v -0.53250 6.12000 1.76135
v -0.60028 6.12000 1.90207
v -0.75256 6.12000 1.93683
v -0.87468 6.12000 1.83944
v -0.87468 6.12000 1.68325
v -0.75256 6.12000 1.58586
v -0.60028 6.12000 1.62062
v -0.78053 7.40728 1.92951
v -1.64131 6.12000 0.54112
v -1.70909 6.12000 0.68185
v -1.86137 6.12000 0.71661
v -1.98349 6.12000 0.61922
v -1.98349 6.12000 0.46302
v -1.86137 6.12000 0.36564
v -1.70909 6.12000 0.40039
v -1.99521 7.40728 0.59279
v -1.37864 6.12000 -1.08658
v -1.44641 6.12000 -0.94585
v -1.59869 6.12000 -0.91109
v -1.72081 6.12000 -1.00848
v -1.72081 6.12000 -1.16468
v -1.59869 6.12000 -1.26206
v -1.44641 6.12000 -1.22731
v -1.70745 7.40728 -1.19032
v 0.05773 6.12000 -1.89606
v -0.01005 6.12000 -1.75533
v -0.16233 6.12000 -1.72057
v -0.28445 6.12000 -1.81796
v -0.28445 6.12000 -1.97416
v -0.16233 6.12000 -2.07155
v -0.01005 6.12000 -2.03679
v -0.13395 7.40728 -2.07709
v 1.58616 6.12000 -1.27777
v 1.51839 6.12000 -1.13704
v 1.36611 6.12000 -1.10229
v 1.24399 6.12000 -1.19967
v 1.24399 6.12000 -1.35587
v 1.36611 6.12000 -1.45326
v 1.51839 6.12000 -1.41850
v 1.54042 7.40728 -1.39977
f 2 4 3 1
f 4 6 5 3
f 6 8 7 5
f 8 10 9 7
f 10 12 11 9
f 12 14 13 11
f 14 2 1 13
f 1 3 5 7 9 11 13
f 14 12 10 8 6 4 2
f 16 18 17 15
f 18 20 19 17
f 20 22 21 19
f 22 24 23 21
f 24 26 25 23
f 26 28 27 25
f 28 16 15 27
f 15 17 19 21 23 25 27
f 28 26 24 22 20 18 16
f 32 31 30 29
f 35 36 33 34
f 36 32 29 33
f 31 35 34 30
f 36 35 31 32
f 29 30 34 33
f 40 39 38 37
f 43 44 41 42
f 44 40 37 41
f 39 43 42 38
f 44 43 39 40
f 37 38 42 41
f 48 47 46 45
f 51 52 49 50
f 52 48 45 49
f 47 51 50 46
f 52 51 47 48
f 45 46 50 49
f 60 54 53
f 60 55 54
f 60 56 55
f 60 57 56
f 60 58 57
f 60 59 58
f 60 53 59
f 53 54 55 56 57 58 59
f 68 62 61
f 68 63 62
f 68 64 63
f 68 65 64
f 68 66 65
f 68 67 66
f 68 61 67
f 61 62 63 64 65 66 67
f 76 70 69
f 76 71 70
f 76 72 71
f 76 73 72
f 76 74 73
f 76 75 74
f 76 69 75
f 69 70 71 72 73 74 75
f 84 78 77
f 84 79 78
f 84 80 79
f 84 81 80
f 84 82 81
f 84 83 82
f 84 77 83
f 77 78 79 80 81 82 83
f 92 86 85
f 92 87 86
f 92 88 87
f 92 89 88
f 92 90 89
f 92 91 90
f 92 85 91
f 85 86 87 88 89 90 91
f 100 94 93
f 100 95 94
f 100 96 95
f 100 97 96
f 100 98 97
f 100 99 98
f 100 93 99
f 93 94 95 96 97 98 99
f 108 102 101
f 108 103 102
f 108 104 103
f 108 105 104
f 108 106 105
f 108 107 106
f 108 101 107
f 101 102 103 104 105 106 107
