o ogre_keep
s off
v 4.87003 0.00000 0.88620
v 4.03376 7.40000 0.73402
v 2.81699 0.00000 4.07026
v 2.33327 7.40000 3.37133
v -0.88620 0.00000 4.87003
v -0.73402 7.40000 4.03376
v -4.07026 0.00000 2.81699
v -3.37133 7.40000 2.33327
v -4.87003 0.00000 -0.88620
v -4.03376 7.40000 -0.73402
v -2.81699 0.00000 -4.07026
v -2.33327 7.40000 -3.37133
v 0.88620 0.00000 -4.87003
v 0.73402 7.40000 -4.03376
v 4.07026 0.00000 -2.81699
v 3.37133 7.40000 -2.33327
v 3.88134 6.15000 1.01088
v 3.29103 7.85000 0.90346
v 2.11863 6.15000 3.74467
v 1.77718 7.85000 3.25131
v -1.06088 6.15000 4.43134
v -0.95346 7.85000 3.84103
v -3.79467 6.15000 2.66863
v -3.30131 7.85000 2.32718
v -4.48134 6.15000 -0.51088
v -3.89103 7.85000 -0.40346
v -2.71863 6.15000 -3.24467
v -2.37718 7.85000 -2.75131
v 0.46088 6.15000 -3.93134
v 0.35346 7.85000 -3.34103
v 3.19467 6.15000 -2.16863
v 2.70131 7.85000 -1.82718
v 3.77000 8.00000 0.00000
v 3.68717 8.00000 0.17200
v 3.50105 8.00000 0.21448
v 3.35179 8.00000 0.09545
v 3.35179 8.00000 -0.09545
v 3.50105 8.00000 -0.21448
v 3.68717 8.00000 -0.17200
v 3.70973 9.59201 0.00000
v 2.69331 8.25000 2.54661
v 2.61048 8.25000 2.71862
v 2.42435 8.25000 2.76110
v 2.27510 8.25000 2.64207
v 2.27510 8.25000 2.45116
v 2.42435 8.25000 2.33213
v 2.61048 8.25000 2.37461
v 2.65301 10.04101 2.54661
v 0.11634 8.00000 3.54849
v 0.03351 8.00000 3.72049
v -0.15261 8.00000 3.76297
v -0.30187 8.00000 3.64394
v -0.30187 8.00000 3.45303
v -0.15261 8.00000 3.33400
v 0.03351 8.00000 3.37648
v 0.09601 9.99001 3.54849
v -2.39775 8.25000 2.39789
v -2.48058 8.25000 2.56990
v -2.66670 8.25000 2.61238
v -2.81596 8.25000 2.49335
v -2.81596 8.25000 2.30244
v -2.66670 8.25000 2.18341
v -2.48058 8.25000 2.22589
v -2.45801 9.84201 2.39789
v -3.32395 8.00000 -0.20723
v -3.40678 8.00000 -0.03523
v -3.59290 8.00000 0.00726
v -3.74216 8.00000 -0.11177
v -3.74216 8.00000 -0.30268
v -3.59290 8.00000 -0.42171
v -3.40678 8.00000 -0.37923
v -3.36425 9.79101 -0.20723
v -2.10043 8.25000 -2.68665
v -2.18327 8.25000 -2.51465
v -2.36939 8.25000 -2.47216
v -2.51865 8.25000 -2.59119
v -2.51865 8.25000 -2.78210
v -2.36939 8.25000 -2.90113
v -2.18327 8.25000 -2.85865
v -2.12077 10.24001 -2.68665
v 0.53062 8.00000 -3.53638
v 0.44779 8.00000 -3.36438
v 0.26167 8.00000 -3.32190
v 0.11241 8.00000 -3.44093
v 0.11241 8.00000 -3.63184
v 0.26167 8.00000 -3.75087
v 0.44779 8.00000 -3.70839
v 0.47035 9.59201 -3.53638
v 2.97326 8.25000 -2.24100
v 2.89043 8.25000 -2.06899
v 2.70430 8.25000 -2.02651
v 2.55505 8.25000 -2.14554
v 2.55505 8.25000 -2.33645
v 2.70430 8.25000 -2.45548
v 2.89043 8.25000 -2.41300
v 2.93296 10.04101 -2.24100
v 3.36959 0.82117 -3.75000
v 3.91860 0.78819 -3.75000
v 4.23041 5.97883 -3.75000
v 3.68140 6.01181 -3.75000
v 3.36959 0.82117 -2.65000
v 3.91860 0.78819 -2.65000
v 4.23041 5.97883 -2.65000
v 3.68140 6.01181 -2.65000
v 3.36959 0.82117 -1.65000
v 3.91860 0.78819 -1.65000
v 4.23041 5.97883 -1.65000
v 3.68140 6.01181 -1.65000
v 3.36959 0.82117 -0.55000
v 3.91860 0.78819 -0.55000
v 4.23041 5.97883 -0.55000
v 3.68140 6.01181 -0.55000
v 3.68140 0.78819 0.75000
v 4.23041 0.82117 0.75000
v 3.91860 6.01181 0.75000
v 3.36959 5.97883 0.75000
v 3.68140 0.78819 1.85000
v 4.23041 0.82117 1.85000
v 3.91860 6.01181 1.85000
v 3.36959 5.97883 1.85000
v 3.68140 0.78819 2.85000
v 4.23041 0.82117 2.85000
v 3.91860 6.01181 2.85000
v 3.36959 5.97883 2.85000
v 3.68140 0.78819 3.95000
v 4.23041 0.82117 3.95000
v 3.91860 6.01181 3.95000
v 3.36959 5.97883 3.95000
f 2 4 3 1
f 4 6 5 3
f 6 8 7 5
f 8 10 9 7
f 10 12 11 9
f 12 14 13 11
f 14 16 15 13
f 16 2 1 15
f 1 3 5 7 9 11 13 15
f 16 14 12 10 8 6 4 2
f 18 20 19 17
f 20 22 21 19
f 22 24 23 21
f 24 26 25 23
f 26 28 27 25
f 28 30 29 27
f 30 32 31 29
f 32 18 17 31
f 17 19 21 23 25 27 29 31
f 32 30 28 26 24 22 20 18
f 40 34 33
f 40 35 34
f 40 36 35
f 40 37 36
f 40 38 37
f 40 39 38
f 40 33 39
f 33 34 35 36 37 38 39
f 48 42 41
f 48 43 42
f 48 44 43
f 48 45 44
f 48 46 45
f 48 47 46
f 48 41 47
f 41 42 43 44 45 46 47
f 56 50 49
f 56 51 50
f 56 52 51
f 56 53 52
f 56 54 53
f 56 55 54
f 56 49 55
f 49 50 51 52 53 54 55
f 64 58 57
f 64 59 58
f 64 60 59
f 64 61 60
f 64 62 61
f 64 63 62
f 64 57 63
f 57 58 59 60 61 62 63
f 72 66 65
f 72 67 66
f 72 68 67
f 72 69 68
f 72 70 69
f 72 71 70
f 72 65 71
f 65 66 67 68 69 70 71
f 80 74 73
f 80 75 74
f 80 76 75
f 80 77 76
f 80 78 77
f 80 79 78
f 80 73 79
f 73 74 75 76 77 78 79
f 88 82 81
f 88 83 82
f 88 84 83
f 88 85 84
f 88 86 85
f 88 87 86
f 88 81 87
f 81 82 83 84 85 86 87
f 96 90 89
f 96 91 90
f 96 92 91
f 96 93 92
f 96 94 93
f 96 95 94
f 96 89 95
f 89 90 91 92 93 94 95
f 100 99 98 97
f 103 104 101 102
f 104 100 97 101
f 99 103 102 98
f 104 103 99 100
f 97 98 102 101
f 108 107 106 105
f 111 112 109 110
f 112 108 105 109
f 107 111 110 106
f 112 111 107 108
f 105 106 110 109
f 116 115 114 113
f 119 120 117 118
f 120 116 113 117
f 115 119 118 114
f 120 119 115 116
f 113 114 118 117
f 124 123 122 121
f 127 128 125 126
f 128 124 121 125
f 123 127 126 122
f 128 127 123 124
f 121 122 126 125
