o ogre_gatehouse_bronze
s off
v -1.092833 -0.127348 -4.800000
v 1.796659 0.162568 -4.800000
v 0.852042 7.153188 -4.700000
v -1.555868 6.911591 -4.700000
v -1.092833 -0.127348 -2.600000
v 1.796659 0.162568 -2.600000
v 0.852042 7.153188 -2.700000
v -1.555868 6.911591 -2.700000
v -1.486234 -0.134174 -4.925000
v 1.250027 0.140368 -4.925000
v 1.126234 1.374174 -4.925000
v -1.610027 1.099632 -4.925000
v -1.486234 -0.134174 -2.475000
v 1.250027 0.140368 -2.475000
v 1.126234 1.374174 -2.475000
v -1.610027 1.099632 -2.475000
v 1.060466 1.291516 -3.910000
v 1.279367 1.313480 -3.910000
v 1.179534 2.308484 -3.910000
v 0.960633 2.286520 -3.910000
v 1.060466 1.291516 -3.490000
v 1.279367 1.313480 -3.490000
v 1.179534 2.308484 -3.490000
v 0.960633 2.286520 -3.490000
v 1.060466 3.341516 -3.910000
v 1.279367 3.363480 -3.910000
v 1.179534 4.358484 -3.910000
v 0.960633 4.336520 -3.910000
v 1.060466 3.341516 -3.490000
v 1.279367 3.363480 -3.490000
v 1.179534 4.358484 -3.490000
v 0.960633 4.336520 -3.490000
v 0.220000 6.800000 -3.700000
v 0.121739 6.800000 -3.430029
v -0.127068 6.800000 -3.286381
v -0.410000 6.800000 -3.336269
v -0.594671 6.800000 -3.556352
v -0.594671 6.800000 -3.843648
v -0.410000 6.800000 -4.063731
v -0.127068 6.800000 -4.113619
v 0.121739 6.800000 -3.969971
v -1.332068 9.084934 -3.700000
v -1.929683 0.237105 2.350000
v 0.945904 -0.168128 2.350000
v 1.690051 6.846664 2.450000
v -0.706272 7.184359 2.450000
v -1.929683 0.237105 4.550000
v 0.945904 -0.168128 4.550000
v 1.690051 6.846664 4.450000
v -0.706272 7.184359 4.450000
v -1.628064 0.197938 2.225000
v 1.095030 -0.185806 2.225000
v 1.268064 1.042062 2.225000
v -1.455030 1.425806 2.225000
v -1.628064 0.197938 4.675000
v 1.095030 -0.185806 4.675000
v 1.268064 1.042062 4.675000
v -1.455030 1.425806 4.675000
v 0.941305 1.320242 3.240000
v 1.159152 1.289542 3.240000
v 1.298695 2.279758 3.240000
v 1.080848 2.310458 3.240000
v 0.941305 1.320242 3.660000
v 1.159152 1.289542 3.660000
v 1.298695 2.279758 3.660000
v 1.080848 2.310458 3.660000
v 0.941305 3.370242 3.240000
v 1.159152 3.339542 3.240000
v 1.298695 4.329758 3.240000
v 1.080848 4.360458 3.240000
v 0.941305 3.370242 3.660000
v 1.159152 3.339542 3.660000
v 1.298695 4.329758 3.660000
v 1.080848 4.360458 3.660000
v 0.220000 6.800000 3.450000
v 0.121739 6.800000 3.719971
v -0.127068 6.800000 3.863619
v -0.410000 6.800000 3.813731
v -0.594671 6.800000 3.593648
v -0.594671 6.800000 3.306352
v -0.410000 6.800000 3.086269
v -0.127068 6.800000 3.036381
v 0.121739 6.800000 3.180029
v 0.932068 9.084934 3.450000
v -1.253573 6.115745 -4.525000
v 1.294865 6.204977 -4.525000
v 1.253573 7.384255 -4.525000
v -1.294865 7.295023 -4.525000
v -1.253573 6.115745 4.325000
v 1.294865 6.204977 4.325000
v 1.253573 7.384255 4.325000
v -1.294865 7.295023 4.325000
v 0.920000 6.270000 -3.000000
v 0.864350 6.270000 -2.865650
v 0.730000 6.270000 -2.810000
v 0.595650 6.270000 -2.865650
v 0.540000 6.270000 -3.000000
v 0.595650 6.270000 -3.134350
v 0.730000 6.270000 -3.190000
v 0.864350 6.270000 -3.134350
v 1.325810 7.679223 -3.000000
v 0.920000 6.270000 -2.000000
v 0.864350 6.270000 -1.865650
v 0.730000 6.270000 -1.810000
v 0.595650 6.270000 -1.865650
v 0.540000 6.270000 -2.000000
v 0.595650 6.270000 -2.134350
v 0.730000 6.270000 -2.190000
v 0.864350 6.270000 -2.134350
v 1.325810 7.679223 -2.000000
v 0.920000 6.270000 -1.000000
v 0.864350 6.270000 -0.865650
v 0.730000 6.270000 -0.810000
v 0.595650 6.270000 -0.865650
v 0.540000 6.270000 -1.000000
v 0.595650 6.270000 -1.134350
v 0.730000 6.270000 -1.190000
v 0.864350 6.270000 -1.134350
v 1.325810 7.679223 -1.000000
v 0.920000 6.270000 0.000000
v 0.864350 6.270000 0.134350
v 0.730000 6.270000 0.190000
v 0.595650 6.270000 0.134350
v 0.540000 6.270000 0.000000
v 0.595650 6.270000 -0.134350
v 0.730000 6.270000 -0.190000
v 0.864350 6.270000 -0.134350
v 1.325810 7.679223 0.000000
v 0.920000 6.270000 1.000000
v 0.864350 6.270000 1.134350
v 0.730000 6.270000 1.190000
v 0.595650 6.270000 1.134350
v 0.540000 6.270000 1.000000
v 0.595650 6.270000 0.865650
v 0.730000 6.270000 0.810000
v 0.864350 6.270000 0.865650
v 1.325810 7.679223 1.000000
v 0.920000 6.270000 2.000000
v 0.864350 6.270000 2.134350
v 0.730000 6.270000 2.190000
v 0.595650 6.270000 2.134350
v 0.540000 6.270000 2.000000
v 0.595650 6.270000 1.865650
v 0.730000 6.270000 1.810000
v 0.864350 6.270000 1.865650
v 1.325810 7.679223 2.000000
v 0.920000 6.270000 3.000000
v 0.864350 6.270000 3.134350
v 0.730000 6.270000 3.190000
v 0.595650 6.270000 3.134350
v 0.540000 6.270000 3.000000
v 0.595650 6.270000 2.865650
v 0.730000 6.270000 2.810000
v 0.864350 6.270000 2.865650
v 1.325810 7.679223 3.000000
v -1.019413 1.467643 -4.270000
v -0.406917 1.430849 -4.270000
v -0.187303 5.867163 -4.270000
v -0.706367 5.898344 -4.270000
v -1.019413 1.467643 -3.530000
v -0.406917 1.430849 -3.530000
v -0.187303 5.867163 -3.530000
v -0.706367 5.898344 -3.530000
v -1.019413 1.467643 -2.620000
v -0.406917 1.430849 -2.620000
v -0.187303 5.867163 -2.620000
v -0.706367 5.898344 -2.620000
v -1.019413 1.467643 -1.880000
v -0.406917 1.430849 -1.880000
v -0.187303 5.867163 -1.880000
v -0.706367 5.898344 -1.880000
v -0.753083 1.430849 -0.370000
v -0.140587 1.467643 -0.370000
v -0.453633 5.898344 -0.370000
v -0.972697 5.867163 -0.370000
v -0.753083 1.430849 0.370000
v -0.140587 1.467643 0.370000
v -0.453633 5.898344 0.370000
v -0.972697 5.867163 0.370000
v -0.753083 1.430849 1.780000
v -0.140587 1.467643 1.780000
v -0.453633 5.898344 1.780000
v -0.972697 5.867163 1.780000
v -0.753083 1.430849 2.520000
v -0.140587 1.467643 2.520000
v -0.453633 5.898344 2.520000
v -0.972697 5.867163 2.520000
v -0.753083 1.430849 3.580000
v -0.140587 1.467643 3.580000
v -0.453633 5.898344 3.580000
v -0.972697 5.867163 3.580000
v -0.753083 1.430849 4.320000
v -0.140587 1.467643 4.320000
v -0.453633 5.898344 4.320000
v -0.972697 5.867163 4.320000
f 4 3 2 1
f 7 8 5 6
f 8 4 1 5
f 3 7 6 2
f 8 7 3 4
f 1 2 6 5
f 12 11 10 9
f 15 16 13 14
f 16 12 9 13
f 11 15 14 10
f 16 15 11 12
f 9 10 14 13
f 20 19 18 17
f 23 24 21 22
f 24 20 17 21
f 19 23 22 18
f 24 23 19 20
f 17 18 22 21
f 28 27 26 25
f 31 32 29 30
f 32 28 25 29
f 27 31 30 26
f 32 31 27 28
f 25 26 30 29
f 42 34 33
f 42 35 34
f 42 36 35
f 42 37 36
f 42 38 37
f 42 39 38
f 42 40 39
f 42 41 40
f 42 33 41
f 33 34 35 36 37 38 39 40 41
f 46 45 44 43
f 49 50 47 48
f 50 46 43 47
f 45 49 48 44
f 50 49 45 46
f 43 44 48 47
f 54 53 52 51
f 57 58 55 56
f 58 54 51 55
f 53 57 56 52
f 58 57 53 54
f 51 52 56 55
f 62 61 60 59
f 65 66 63 64
f 66 62 59 63
f 61 65 64 60
f 66 65 61 62
f 59 60 64 63
f 70 69 68 67
f 73 74 71 72
f 74 70 67 71
f 69 73 72 68
f 74 73 69 70
f 67 68 72 71
f 84 76 75
f 84 77 76
f 84 78 77
f 84 79 78
f 84 80 79
f 84 81 80
f 84 82 81
f 84 83 82
f 84 75 83
f 75 76 77 78 79 80 81 82 83
f 88 87 86 85
f 91 92 89 90
f 92 88 85 89
f 87 91 90 86
f 92 91 87 88
f 85 86 90 89
f 101 94 93
f 101 95 94
f 101 96 95
f 101 97 96
f 101 98 97
f 101 99 98
f 101 100 99
f 101 93 100
f 93 94 95 96 97 98 99 100
f 110 103 102
f 110 104 103
f 110 105 104
f 110 106 105
f 110 107 106
f 110 108 107
f 110 109 108
f 110 102 109
f 102 103 104 105 106 107 108 109
f 119 112 111
f 119 113 112
f 119 114 113
f 119 115 114
f 119 116 115
f 119 117 116
f 119 118 117
f 119 111 118
f 111 112 113 114 115 116 117 118
f 128 121 120
f 128 122 121
f 128 123 122
f 128 124 123
f 128 125 124
f 128 126 125
f 128 127 126
f 128 120 127
f 120 121 122 123 124 125 126 127
f 137 130 129
f 137 131 130
f 137 132 131
f 137 133 132
f 137 134 133
f 137 135 134
f 137 136 135
f 137 129 136
f 129 130 131 132 133 134 135 136
f 146 139 138
f 146 140 139
f 146 141 140
f 146 142 141
f 146 143 142
f 146 144 143
f 146 145 144
f 146 138 145
f 138 139 140 141 142 143 144 145
f 155 148 147
f 155 149 148
f 155 150 149
f 155 151 150
f 155 152 151
f 155 153 152
f 155 154 153
f 155 147 154
f 147 148 149 150 151 152 153 154
f 159 158 157 156
f 162 163 160 161
f 163 159 156 160
f 158 162 161 157
f 163 162 158 159
f 156 157 161 160
f 167 166 165 164
f 170 171 168 169
f 171 167 164 168
f 166 170 169 165
f 171 170 166 167
f 164 165 169 168
f 175 174 173 172
f 178 179 176 177
f 179 175 172 176
f 174 178 177 173
f 179 178 174 175
f 172 173 177 176
f 183 182 181 180
f 186 187 184 185
f 187 183 180 184
f 182 186 185 181
f 187 186 182 183
f 180 181 185 184
f 191 190 189 188
f 194 195 192 193
f 195 191 188 192
f 190 194 193 189
f 195 194 190 191
f 188 189 193 192
