o ogre_keep_stone
s off
v 4.722450 0.000000 0.859342
v 3.872409 8.300000 0.704660
v 3.065232 0.000000 3.693826
v 2.513490 8.300000 3.028938
v -0.026242 0.000000 4.799928
v -0.021518 8.300000 3.935941
v -3.105437 0.000000 3.660090
v -2.546458 8.300000 3.001274
v -4.731563 0.000000 0.807656
v -3.879882 8.300000 0.662278
v -4.143739 0.000000 -2.422690
v -3.397866 8.300000 -1.986606
v -1.617013 0.000000 -4.519432
v -1.325951 8.300000 -3.705935
v 1.666331 0.000000 -4.501482
v 1.366392 8.300000 -3.691215
v 4.169981 0.000000 -2.377238
v 3.419384 8.300000 -1.949335
v 3.888627 0.295526 -0.736000
v 5.036943 0.387587 -0.736000
v 4.433776 6.334405 -0.640000
v 3.536654 6.262482 -0.640000
v 3.888627 0.295526 0.736000
v 5.036943 0.387587 0.736000
v 4.433776 6.334405 0.640000
v 3.536654 6.262482 0.640000
v 1.336831 0.301879 3.398250
v 1.588673 0.286750 4.522283
v 1.825972 6.259268 4.420367
v 1.629220 6.271088 3.542216
v -0.096849 0.388003 3.720628
v 0.154993 0.372875 4.844661
v 0.579293 6.334159 4.700695
v 0.382542 6.345978 3.822544
v -2.987935 0.423127 1.753651
v -4.085794 0.312974 2.084826
v -4.589780 6.268412 1.956656
v -3.732078 6.354469 1.697926
v -3.408989 0.380881 0.343788
v -4.506847 0.270728 0.674963
v -4.955913 6.231676 0.730688
v -4.098211 6.317733 0.471958
v -2.087968 0.391132 -3.245247
v -2.440583 0.422953 -4.341493
v -1.773917 6.363075 -4.251095
v -1.498437 6.338215 -3.394653
v -0.692879 0.265234 -3.697641
v -1.045494 0.297055 -4.793887
v -0.560797 6.253599 -4.644481
v -0.285316 6.228738 -3.788039
v 2.398902 0.282177 -2.988269
v 3.253351 0.333505 -3.759233
v 2.865682 6.296990 -3.603577
v 2.198144 6.256890 -3.001261
v 3.382250 0.341248 -1.894505
v 4.236699 0.392577 -2.665469
v 3.720768 6.348357 -2.652477
v 3.053229 6.308256 -2.050161
v 4.144654 8.095000 0.790595
v 3.766858 8.945000 0.721847
v 2.620013 8.095000 3.398320
v 2.374795 8.945000 3.102814
v -0.224142 8.095000 4.415934
v -0.222043 8.945000 4.031940
v -3.057002 8.095000 3.367283
v -2.808567 8.945000 3.074476
v -4.553038 8.095000 0.743043
v -4.174513 8.945000 0.678431
v -4.012240 8.095000 -2.228875
v -3.680741 8.945000 -2.035060
v -1.687652 8.095000 -4.157878
v -1.558291 8.945000 -3.796323
v 1.333025 8.095000 -4.141363
v 1.199718 8.945000 -3.781245
v 3.636382 8.095000 -2.187059
v 3.302784 8.945000 -1.996880
v 4.047719 8.740000 0.306872
v 3.983282 8.740000 0.462436
v 3.827719 8.740000 0.526872
v 3.672155 8.740000 0.462436
v 3.607719 8.740000 0.306872
v 3.672155 8.740000 0.151309
v 3.827719 8.740000 0.086872
v 3.983282 8.740000 0.151309
v 4.057228 10.373856 0.325272
v 2.709614 8.740000 2.923597
v 2.645178 8.740000 3.079161
v 2.489614 8.740000 3.143597
v 2.334051 8.740000 3.079161
v 2.269614 8.740000 2.923597
v 2.334051 8.740000 2.768034
v 2.489614 8.740000 2.703597
v 2.645178 8.740000 2.768034
v 2.638891 10.373856 3.098896
v -0.086872 8.740000 3.827719
v -0.151309 8.740000 3.983282
v -0.306872 8.740000 4.047719
v -0.462436 8.740000 3.983282
v -0.526872 8.740000 3.827719
v -0.462436 8.740000 3.672155
v -0.306872 8.740000 3.607719
v -0.151309 8.740000 3.672155
v -0.325272 10.373856 4.057228
v -2.703597 8.740000 2.489614
v -2.768034 8.740000 2.645178
v -2.923597 8.740000 2.709614
v -3.079161 8.740000 2.645178
v -3.143597 8.740000 2.489614
v -3.079161 8.740000 2.334051
v -2.923597 8.740000 2.269614
v -2.768034 8.740000 2.334051
v -3.098896 10.373856 2.638891
v -3.607719 8.740000 -0.306872
v -3.672155 8.740000 -0.151309
v -3.827719 8.740000 -0.086872
v -3.983282 8.740000 -0.151309
v -4.047719 8.740000 -0.306872
v -3.983282 8.740000 -0.462436
v -3.827719 8.740000 -0.526872
v -3.672155 8.740000 -0.462436
v -4.057228 10.373856 -0.325272
v -2.269614 8.740000 -2.923597
v -2.334051 8.740000 -2.768034
v -2.489614 8.740000 -2.703597
v -2.645178 8.740000 -2.768034
v -2.709614 8.740000 -2.923597
v -2.645178 8.740000 -3.079161
v -2.489614 8.740000 -3.143597
v -2.334051 8.740000 -3.079161
v -2.638891 10.373856 -3.098896
v 0.526872 8.740000 -3.827719
v 0.462436 8.740000 -3.672155
v 0.306872 8.740000 -3.607719
v 0.151309 8.740000 -3.672155
v 0.086872 8.740000 -3.827719
v 0.151309 8.740000 -3.983282
v 0.306872 8.740000 -4.047719
v 0.462436 8.740000 -3.983282
v 0.325272 10.373856 -4.057228
v 3.143597 8.740000 -2.489614
v 3.079161 8.740000 -2.334051
v 2.923597 8.740000 -2.269614
v 2.768034 8.740000 -2.334051
v 2.703597 8.740000 -2.489614
v 2.768034 8.740000 -2.645178
v 2.923597 8.740000 -2.709614
v 3.079161 8.740000 -2.645178
v 3.098896 10.373856 -2.638891
v 3.273748 3.985784 -3.422634
v 3.712408 3.963833 -3.396250
v 3.771383 5.142358 -3.396250
v 3.332724 5.164309 -3.422634
v 3.236617 3.987642 -2.803750
v 3.675276 3.965691 -2.777366
v 3.734252 5.144216 -2.777366
v 3.295592 5.166167 -2.803750
v 3.273748 3.985784 -1.372634
v 3.712408 3.963833 -1.346250
v 3.771383 5.142358 -1.346250
v 3.332724 5.164309 -1.372634
v 3.236617 3.987642 -0.753750
v 3.675276 3.965691 -0.727366
v 3.734252 5.144216 -0.727366
v 3.295592 5.166167 -0.753750
v 3.332724 3.965691 0.777366
v 3.771383 3.987642 0.803750
v 3.712408 5.166167 0.803750
v 3.273748 5.144216 0.777366
v 3.295592 3.963833 1.396250
v 3.734252 3.985784 1.422634
v 3.675276 5.164309 1.422634
v 3.236617 5.142358 1.396250
v 3.332724 3.965691 2.877366
v 3.771383 3.987642 2.903750
v 3.712408 5.166167 2.903750
v 3.273748 5.144216 2.877366
v 3.295592 3.963833 3.496250
v 3.734252 3.985784 3.522634
v 3.675276 5.164309 3.522634
v 3.236617 5.142358 3.496250
f 2 4 3 1
f 4 6 5 3
f 6 8 7 5
f 8 10 9 7
f 10 12 11 9
f 12 14 13 11
f 14 16 15 13
f 16 18 17 15
f 18 2 1 17
f 1 3 5 7 9 11 13 15 17
f 18 16 14 12 10 8 6 4 2
f 22 21 20 19
f 25 26 23 24
f 26 22 19 23
f 21 25 24 20
f 26 25 21 22
f 19 20 24 23
f 30 29 28 27
f 33 34 31 32
f 34 30 27 31
f 29 33 32 28
f 34 33 29 30
f 27 28 32 31
f 38 37 36 35
f 41 42 39 40
f 42 38 35 39
f 37 41 40 36
f 42 41 37 38
f 35 36 40 39
f 46 45 44 43
f 49 50 47 48
f 50 46 43 47
f 45 49 48 44
f 50 49 45 46
f 43 44 48 47
f 54 53 52 51
f 57 58 55 56
f 58 54 51 55
f 53 57 56 52
f 58 57 53 54
f 51 52 56 55
f 60 62 61 59
f 62 64 63 61
f 64 66 65 63
f 66 68 67 65
f 68 70 69 67
f 70 72 71 69
f 72 74 73 71
f 74 76 75 73
f 76 60 59 75
f 59 61 63 65 67 69 71 73 75
f 76 74 72 70 68 66 64 62 60
f 85 78 77
f 85 79 78
f 85 80 79
f 85 81 80
f 85 82 81
f 85 83 82
f 85 84 83
f 85 77 84
f 77 78 79 80 81 82 83 84
f 94 87 86
f 94 88 87
f 94 89 88
f 94 90 89
f 94 91 90
f 94 92 91
f 94 93 92
f 94 86 93
f 86 87 88 89 90 91 92 93
f 103 96 95
f 103 97 96
f 103 98 97
f 103 99 98
f 103 100 99
f 103 101 100
f 103 102 101
f 103 95 102
f 95 96 97 98 99 100 101 102
f 112 105 104
f 112 106 105
f 112 107 106
f 112 108 107
f 112 109 108
f 112 110 109
f 112 111 110
f 112 104 111
f 104 105 106 107 108 109 110 111
f 121 114 113
f 121 115 114
f 121 116 115
f 121 117 116
f 121 118 117
f 121 119 118
f 121 120 119
f 121 113 120
f 113 114 115 116 117 118 119 120
f 130 123 122
f 130 124 123
f 130 125 124
f 130 126 125
f 130 127 126
f 130 128 127
f 130 129 128
f 130 122 129
f 122 123 124 125 126 127 128 129
f 139 132 131
f 139 133 132
f 139 134 133
f 139 135 134
f 139 136 135
f 139 137 136
f 139 138 137
f 139 131 138
f 131 132 133 134 135 136 137 138
f 148 141 140
f 148 142 141
f 148 143 142
f 148 144 143
f 148 145 144
f 148 146 145
f 148 147 146
f 148 140 147
f 140 141 142 143 144 145 146 147
f 152 151 150 149
f 155 156 153 154
f 156 152 149 153
f 151 155 154 150
f 156 155 151 152
f 149 150 154 153
f 160 159 158 157
f 163 164 161 162
f 164 160 157 161
f 159 163 162 158
f 164 163 159 160
f 157 158 162 161
f 168 167 166 165
f 171 172 169 170
f 172 168 165 169
f 167 171 170 166
f 172 171 167 168
f 165 166 170 169
f 176 175 174 173
f 179 180 177 178
f 180 176 173 177
f 175 179 178 174
f 180 179 175 176
f 173 174 178 177
