o ogre_gatehouse_iron
s off
v -1.122044 -0.132413 -4.800000
v 1.910728 0.171880 -4.800000
v 0.869313 8.007055 -4.700000
v -1.657997 7.753478 -4.700000
v -1.122044 -0.132413 -2.600000
v 1.910728 0.171880 -2.600000
v 0.869313 8.007055 -2.700000
v -1.657997 7.753478 -2.700000
v -1.486234 -0.134174 -4.925000
v 1.250027 0.140368 -4.925000
v 1.126234 1.374174 -4.925000
v -1.610027 1.099632 -4.925000
v -1.486234 -0.134174 -2.475000
v 1.250027 0.140368 -2.475000
v 1.126234 1.374174 -2.475000
v -1.610027 1.099632 -2.475000
v 1.060466 1.291516 -3.910000
v 1.279367 1.313480 -3.910000
v 1.179534 2.308484 -3.910000
v 0.960633 2.286520 -3.910000
v 1.060466 1.291516 -3.490000
v 1.279367 1.313480 -3.490000
v 1.179534 2.308484 -3.490000
v 0.960633 2.286520 -3.490000
v 1.060466 3.591516 -3.910000
v 1.279367 3.613480 -3.910000
v 1.179534 4.608484 -3.910000
v 0.960633 4.586520 -3.910000
v 1.060466 3.591516 -3.490000
v 1.279367 3.613480 -3.490000
v 1.179534 4.608484 -3.490000
v 0.960633 4.586520 -3.490000
v 0.260000 7.650000 -3.700000
v 0.152380 7.650000 -3.404318
v -0.120122 7.650000 -3.246988
v -0.430000 7.650000 -3.301628
v -0.632259 7.650000 -3.542671
v -0.632259 7.650000 -3.857329
v -0.430000 7.650000 -4.098372
v -0.120122 7.650000 -4.153012
v 0.152380 7.650000 -3.995682
v -1.465252 10.203750 -3.700000
v -2.060284 0.251311 2.350000
v 0.957894 -0.174017 2.350000
v 1.808770 7.684133 2.450000
v -0.706379 8.038573 2.450000
v -2.060284 0.251311 4.550000
v 0.957894 -0.174017 4.550000
v 1.808770 7.684133 4.450000
v -0.706379 8.038573 4.450000
v -1.628064 0.197938 2.225000
v 1.095030 -0.185806 2.225000
v 1.268064 1.042062 2.225000
v -1.455030 1.425806 2.225000
v -1.628064 0.197938 4.675000
v 1.095030 -0.185806 4.675000
v 1.268064 1.042062 4.675000
v -1.455030 1.425806 4.675000
v 0.941305 1.320242 3.240000
v 1.159152 1.289542 3.240000
v 1.298695 2.279758 3.240000
v 1.080848 2.310458 3.240000
v 0.941305 1.320242 3.660000
v 1.159152 1.289542 3.660000
v 1.298695 2.279758 3.660000
v 1.080848 2.310458 3.660000
v 0.941305 3.620242 3.240000
v 1.159152 3.589542 3.240000
v 1.298695 4.579758 3.240000
v 1.080848 4.610458 3.240000
v 0.941305 3.620242 3.660000
v 1.159152 3.589542 3.660000
v 1.298695 4.579758 3.660000
v 1.080848 4.610458 3.660000
v 0.260000 7.650000 3.450000
v 0.152380 7.650000 3.745682
v -0.120122 7.650000 3.903012
v -0.430000 7.650000 3.848372
v -0.632259 7.650000 3.607329
v -0.632259 7.650000 3.292671
v -0.430000 7.650000 3.051628
v -0.120122 7.650000 2.996988
v 0.152380 7.650000 3.154318
v 1.065252 10.203750 3.450000
v -1.253573 6.965745 -4.525000
v 1.294865 7.054977 -4.525000
v 1.253573 8.234255 -4.525000
v -1.294865 8.145023 -4.525000
v -1.253573 6.965745 4.325000
v 1.294865 7.054977 4.325000
v 1.253573 8.234255 4.325000
v -1.294865 8.145023 4.325000
v 0.940000 7.120000 -3.000000
v 0.878492 7.120000 -2.851508
v 0.730000 7.120000 -2.790000
v 0.581508 7.120000 -2.851508
v 0.520000 7.120000 -3.000000
v 0.581508 7.120000 -3.148492
v 0.730000 7.120000 -3.210000
v 0.878492 7.120000 -3.148492
v 1.395905 8.695014 -3.000000
v 0.940000 7.120000 -2.250000
v 0.878492 7.120000 -2.101508
v 0.730000 7.120000 -2.040000
v 0.581508 7.120000 -2.101508
v 0.520000 7.120000 -2.250000
v 0.581508 7.120000 -2.398492
v 0.730000 7.120000 -2.460000
v 0.878492 7.120000 -2.398492
v 1.395905 8.695014 -2.250000
v 0.940000 7.120000 -1.500000
v 0.878492 7.120000 -1.351508
v 0.730000 7.120000 -1.290000
v 0.581508 7.120000 -1.351508
v 0.520000 7.120000 -1.500000
v 0.581508 7.120000 -1.648492
v 0.730000 7.120000 -1.710000
v 0.878492 7.120000 -1.648492
v 1.395905 8.695014 -1.500000
v 0.940000 7.120000 -0.750000
v 0.878492 7.120000 -0.601508
v 0.730000 7.120000 -0.540000
v 0.581508 7.120000 -0.601508
v 0.520000 7.120000 -0.750000
v 0.581508 7.120000 -0.898492
v 0.730000 7.120000 -0.960000
v 0.878492 7.120000 -0.898492
v 1.395905 8.695014 -0.750000
v 0.940000 7.120000 0.000000
v 0.878492 7.120000 0.148492
v 0.730000 7.120000 0.210000
v 0.581508 7.120000 0.148492
v 0.520000 7.120000 0.000000
v 0.581508 7.120000 -0.148492
v 0.730000 7.120000 -0.210000
v 0.878492 7.120000 -0.148492
v 1.395905 8.695014 0.000000
v 0.940000 7.120000 0.750000
v 0.878492 7.120000 0.898492
v 0.730000 7.120000 0.960000
v 0.581508 7.120000 0.898492
v 0.520000 7.120000 0.750000
v 0.581508 7.120000 0.601508
v 0.730000 7.120000 0.540000
v 0.878492 7.120000 0.601508
v 1.395905 8.695014 0.750000
v 0.940000 7.120000 1.500000
v 0.878492 7.120000 1.648492
v 0.730000 7.120000 1.710000
v 0.581508 7.120000 1.648492
v 0.520000 7.120000 1.500000
v 0.581508 7.120000 1.351508
v 0.730000 7.120000 1.290000
v 0.878492 7.120000 1.351508
v 1.395905 8.695014 1.500000
v 0.940000 7.120000 2.250000
v 0.878492 7.120000 2.398492
v 0.730000 7.120000 2.460000
v 0.581508 7.120000 2.398492
v 0.520000 7.120000 2.250000
v 0.581508 7.120000 2.101508
v 0.730000 7.120000 2.040000
v 0.878492 7.120000 2.101508
v 1.395905 8.695014 2.250000
v 0.940000 7.120000 3.000000
v 0.878492 7.120000 3.148492
v 0.730000 7.120000 3.210000
v 0.581508 7.120000 3.148492
v 0.520000 7.120000 3.000000
v 0.581508 7.120000 2.851508
v 0.730000 7.120000 2.790000
v 0.878492 7.120000 2.851508
v 1.395905 8.695014 3.000000
v -1.035468 1.642375 -4.270000
v -0.422973 1.605581 -4.270000
v -0.171247 6.576431 -4.270000
v -0.690312 6.607613 -4.270000
v -1.035468 1.642375 -3.530000
v -0.422973 1.605581 -3.530000
v -0.171247 6.576431 -3.530000
v -0.690312 6.607613 -3.530000
v -1.035468 1.642375 -2.620000
v -0.422973 1.605581 -2.620000
v -0.171247 6.576431 -2.620000
v -0.690312 6.607613 -2.620000
v -1.035468 1.642375 -1.880000
v -0.422973 1.605581 -1.880000
v -0.171247 6.576431 -1.880000
v -0.690312 6.607613 -1.880000
v -0.737027 1.605581 -0.370000
v -0.124532 1.642375 -0.370000
v -0.469688 6.607613 -0.370000
v -0.988753 6.576431 -0.370000
v -0.737027 1.605581 0.370000
v -0.124532 1.642375 0.370000
v -0.469688 6.607613 0.370000
v -0.988753 6.576431 0.370000
v -0.737027 1.605581 1.780000
v -0.124532 1.642375 1.780000
v -0.469688 6.607613 1.780000
v -0.988753 6.576431 1.780000
v -0.737027 1.605581 2.520000
v -0.124532 1.642375 2.520000
v -0.469688 6.607613 2.520000
v -0.988753 6.576431 2.520000
v -0.737027 1.605581 3.580000
v -0.124532 1.642375 3.580000
v -0.469688 6.607613 3.580000
v -0.988753 6.576431 3.580000
v -0.737027 1.605581 4.320000
v -0.124532 1.642375 4.320000
v -0.469688 6.607613 4.320000
v -0.988753 6.576431 4.320000
v -0.643898 7.884228 -4.360000
v 0.304914 7.836747 -4.360000
v 0.343898 8.615772 -4.360000
v -0.604914 8.663253 -4.360000
v -0.643898 7.884228 -3.740000
v 0.304914 7.836747 -3.740000
v 0.343898 8.615772 -3.740000
v -0.604914 8.663253 -3.740000
v -0.060000 8.620000 -4.050000
v -0.120242 8.620000 -3.924907
v -0.255603 8.620000 -3.894012
v -0.364155 8.620000 -3.980579
v -0.364155 8.620000 -4.119421
v -0.255603 8.620000 -4.205988
v -0.120242 8.620000 -4.175093
v -0.055618 9.707648 -4.050000
v -0.643898 7.884228 -3.310000
v 0.304914 7.836747 -3.310000
v 0.343898 8.615772 -3.310000
v -0.604914 8.663253 -3.310000
v -0.643898 7.884228 -2.690000
v 0.304914 7.836747 -2.690000
v 0.343898 8.615772 -2.690000
v -0.604914 8.663253 -2.690000
v -0.060000 8.620000 -3.000000
v -0.120242 8.620000 -2.874907
v -0.255603 8.620000 -2.844012
v -0.364155 8.620000 -2.930579
v -0.364155 8.620000 -3.069421
v -0.255603 8.620000 -3.155988
v -0.120242 8.620000 -3.125093
v -0.055618 9.707648 -3.000000
v -0.643898 7.884228 -2.260000
v 0.304914 7.836747 -2.260000
v 0.343898 8.615772 -2.260000
v -0.604914 8.663253 -2.260000
v -0.643898 7.884228 -1.640000
v 0.304914 7.836747 -1.640000
v 0.343898 8.615772 -1.640000
v -0.604914 8.663253 -1.640000
v -0.060000 8.620000 -1.950000
v -0.120242 8.620000 -1.824907
v -0.255603 8.620000 -1.794012
v -0.364155 8.620000 -1.880579
v -0.364155 8.620000 -2.019421
v -0.255603 8.620000 -2.105988
v -0.120242 8.620000 -2.075093
v -0.055618 9.707648 -1.950000
v -0.643898 7.884228 -1.210000
v 0.304914 7.836747 -1.210000
v 0.343898 8.615772 -1.210000
v -0.604914 8.663253 -1.210000
v -0.643898 7.884228 -0.590000
v 0.304914 7.836747 -0.590000
v 0.343898 8.615772 -0.590000
v -0.604914 8.663253 -0.590000
v -0.060000 8.620000 -0.900000
v -0.120242 8.620000 -0.774907
v -0.255603 8.620000 -0.744012
v -0.364155 8.620000 -0.830579
v -0.364155 8.620000 -0.969421
v -0.255603 8.620000 -1.055988
v -0.120242 8.620000 -1.025093
v -0.055618 9.707648 -0.900000
v -0.604914 7.836747 -0.110000
v 0.343898 7.884228 -0.110000
v 0.304914 8.663253 -0.110000
v -0.643898 8.615772 -0.110000
v -0.604914 7.836747 0.510000
v 0.343898 7.884228 0.510000
v 0.304914 8.663253 0.510000
v -0.643898 8.615772 0.510000
v -0.060000 8.620000 0.200000
v -0.120242 8.620000 0.325093
v -0.255603 8.620000 0.355988
v -0.364155 8.620000 0.269421
v -0.364155 8.620000 0.130579
v -0.255603 8.620000 0.044012
v -0.120242 8.620000 0.074907
v -0.055618 9.707648 0.200000
v -0.604914 7.836747 0.990000
v 0.343898 7.884228 0.990000
v 0.304914 8.663253 0.990000
v -0.643898 8.615772 0.990000
v -0.604914 7.836747 1.610000
v 0.343898 7.884228 1.610000
v 0.304914 8.663253 1.610000
v -0.643898 8.615772 1.610000
v -0.060000 8.620000 1.300000
v -0.120242 8.620000 1.425093
v -0.255603 8.620000 1.455988
v -0.364155 8.620000 1.369421
v -0.364155 8.620000 1.230579
v -0.255603 8.620000 1.144012
v -0.120242 8.620000 1.174907
v -0.055618 9.707648 1.300000
v -0.604914 7.836747 2.090000
v 0.343898 7.884228 2.090000
v 0.304914 8.663253 2.090000
v -0.643898 8.615772 2.090000
v -0.604914 7.836747 2.710000
v 0.343898 7.884228 2.710000
v 0.304914 8.663253 2.710000
v -0.643898 8.615772 2.710000
v -0.060000 8.620000 2.400000
v -0.120242 8.620000 2.525093
v -0.255603 8.620000 2.555988
v -0.364155 8.620000 2.469421
v -0.364155 8.620000 2.330579
v -0.255603 8.620000 2.244012
v -0.120242 8.620000 2.274907
v -0.055618 9.707648 2.400000
v -0.604914 7.836747 3.190000
v 0.343898 7.884228 3.190000
v 0.304914 8.663253 3.190000
v -0.643898 8.615772 3.190000
v -0.604914 7.836747 3.810000
v 0.343898 7.884228 3.810000
v 0.304914 8.663253 3.810000
v -0.643898 8.615772 3.810000
v -0.060000 8.620000 3.500000
v -0.120242 8.620000 3.625093
v -0.255603 8.620000 3.655988
v -0.364155 8.620000 3.569421
v -0.364155 8.620000 3.430579
v -0.255603 8.620000 3.344012
v -0.120242 8.620000 3.374907
v -0.055618 9.707648 3.500000
f 4 3 2 1
f 7 8 5 6
f 8 4 1 5
f 3 7 6 2
f 8 7 3 4
f 1 2 6 5
f 12 11 10 9
f 15 16 13 14
f 16 12 9 13
f 11 15 14 10
f 16 15 11 12
f 9 10 14 13
f 20 19 18 17
f 23 24 21 22
f 24 20 17 21
f 19 23 22 18
f 24 23 19 20
f 17 18 22 21
f 28 27 26 25
f 31 32 29 30
f 32 28 25 29
f 27 31 30 26
f 32 31 27 28
f 25 26 30 29
f 42 34 33
f 42 35 34
f 42 36 35
f 42 37 36
f 42 38 37
f 42 39 38
f 42 40 39
f 42 41 40
f 42 33 41
f 33 34 35 36 37 38 39 40 41
f 46 45 44 43
f 49 50 47 48
f 50 46 43 47
f 45 49 48 44
f 50 49 45 46
f 43 44 48 47
f 54 53 52 51
f 57 58 55 56
f 58 54 51 55
f 53 57 56 52
f 58 57 53 54
f 51 52 56 55
f 62 61 60 59
f 65 66 63 64
f 66 62 59 63
f 61 65 64 60
f 66 65 61 62
f 59 60 64 63
f 70 69 68 67
f 73 74 71 72
f 74 70 67 71
f 69 73 72 68
f 74 73 69 70
f 67 68 72 71
f 84 76 75
f 84 77 76
f 84 78 77
f 84 79 78
f 84 80 79
f 84 81 80
f 84 82 81
f 84 83 82
f 84 75 83
f 75 76 77 78 79 80 81 82 83
f 88 87 86 85
f 91 92 89 90
f 92 88 85 89
f 87 91 90 86
f 92 91 87 88
f 85 86 90 89
f 101 94 93
f 101 95 94
f 101 96 95
f 101 97 96
f 101 98 97
f 101 99 98
f 101 100 99
f 101 93 100
f 93 94 95 96 97 98 99 100
f 110 103 102
f 110 104 103
f 110 105 104
f 110 106 105
f 110 107 106
f 110 108 107
f 110 109 108
f 110 102 109
f 102 103 104 105 106 107 108 109
f 119 112 111
f 119 113 112
f 119 114 113
f 119 115 114
f 119 116 115
f 119 117 116
f 119 118 117
f 119 111 118
f 111 112 113 114 115 116 117 118
f 128 121 120
f 128 122 121
f 128 123 122
f 128 124 123
f 128 125 124
f 128 126 125
f 128 127 126
f 128 120 127
f 120 121 122 123 124 125 126 127
f 137 130 129
f 137 131 130
f 137 132 131
f 137 133 132
f 137 134 133
f 137 135 134
f 137 136 135
f 137 129 136
f 129 130 131 132 133 134 135 136
f 146 139 138
f 146 140 139
f 146 141 140
f 146 142 141
f 146 143 142
f 146 144 143
f 146 145 144
f 146 138 145
f 138 139 140 141 142 143 144 145
f 155 148 147
f 155 149 148
f 155 150 149
f 155 151 150
f 155 152 151
f 155 153 152
f 155 154 153
f 155 147 154
f 147 148 149 150 151 152 153 154
f 164 157 156
f 164 158 157
f 164 159 158
f 164 160 159
f 164 161 160
f 164 162 161
f 164 163 162
f 164 156 163
f 156 157 158 159 160 161 162 163
f 173 166 165
f 173 167 166
f 173 168 167
f 173 169 168
f 173 170 169
f 173 171 170
f 173 172 171
f 173 165 172
f 165 166 167 168 169 170 171 172
f 177 176 175 174
f 180 181 178 179
f 181 177 174 178
f 176 180 179 175
f 181 180 176 177
f 174 175 179 178
f 185 184 183 182
f 188 189 186 187
f 189 185 182 186
f 184 188 187 183
f 189 188 184 185
f 182 183 187 186
f 193 192 191 190
f 196 197 194 195
f 197 193 190 194
f 192 196 195 191
f 197 196 192 193
f 190 191 195 194
f 201 200 199 198
f 204 205 202 203
f 205 201 198 202
f 200 204 203 199
f 205 204 200 201
f 198 199 203 202
f 209 208 207 206
f 212 213 210 211
f 213 209 206 210
f 208 212 211 207
f 213 212 208 209
f 206 207 211 210
f 217 216 215 214
f 220 221 218 219
f 221 217 214 218
f 216 220 219 215
f 221 220 216 217
f 214 215 219 218
f 229 223 222
f 229 224 223
f 229 225 224
f 229 226 225
f 229 227 226
f 229 228 227
f 229 222 228
f 222 223 224 225 226 227 228
f 233 232 231 230
f 236 237 234 235
f 237 233 230 234
f 232 236 235 231
f 237 236 232 233
f 230 231 235 234
f 245 239 238
f 245 240 239
f 245 241 240
f 245 242 241
f 245 243 242
f 245 244 243
f 245 238 244
f 238 239 240 241 242 243 244
f 249 248 247 246
f 252 253 250 251
f 253 249 246 250
f 248 252 251 247
f 253 252 248 249
f 246 247 251 250
f 261 255 254
f 261 256 255
f 261 257 256
f 261 258 257
f 261 259 258
f 261 260 259
f 261 254 260
f 254 255 256 257 258 259 260
f 265 264 263 262
f 268 269 266 267
f 269 265 262 266
f 264 268 267 263
f 269 268 264 265
f 262 263 267 266
f 277 271 270
f 277 272 271
f 277 273 272
f 277 274 273
f 277 275 274
f 277 276 275
f 277 270 276
f 270 271 272 273 274 275 276
f 281 280 279 278
f 284 285 282 283
f 285 281 278 282
f 280 284 283 279
f 285 284 280 281
f 278 279 283 282
f 293 287 286
f 293 288 287
f 293 289 288
f 293 290 289
f 293 291 290
f 293 292 291
f 293 286 292
f 286 287 288 289 290 291 292
f 297 296 295 294
f 300 301 298 299
f 301 297 294 298
f 296 300 299 295
f 301 300 296 297
f 294 295 299 298
f 309 303 302
f 309 304 303
f 309 305 304
f 309 306 305
f 309 307 306
f 309 308 307
f 309 302 308
f 302 303 304 305 306 307 308
f 313 312 311 310
f 316 317 314 315
f 317 313 310 314
f 312 316 315 311
f 317 316 312 313
f 310 311 315 314
f 325 319 318
f 325 320 319
f 325 321 320
f 325 322 321
f 325 323 322
f 325 324 323
f 325 318 324
f 318 319 320 321 322 323 324
f 329 328 327 326
f 332 333 330 331
f 333 329 326 330
f 328 332 331 327
f 333 332 328 329
f 326 327 331 330
f 341 335 334
f 341 336 335
f 341 337 336
f 341 338 337
f 341 339 338
f 341 340 339
f 341 334 340
f 334 335 336 337 338 339 340
