o ogre_wall_stone
s off
v -0.72022 0.03364 -4.91149
v 0.82744 0.11885 -4.91149
v 0.72308 2.01445 -4.98747
v -0.82458 1.92925 -4.98747
v -0.72308 0.08555 -3.61253
v 0.82458 0.17075 -3.61253
v 0.72022 2.06636 -3.68851
v -0.82744 1.98115 -3.68851
v -0.83760 0.11436 -3.65667
v 0.71006 0.02915 -3.65667
v 0.83760 2.34564 -3.65667
v -0.71006 2.43085 -3.65667
v -0.83760 0.11436 -2.07667
v 0.71006 0.02915 -2.07667
v 0.83760 2.34564 -2.07667
v -0.71006 2.43085 -2.07667
v -0.70001 0.02652 -2.13760
v 0.84765 0.11172 -2.13760
v 0.69715 2.84539 -2.02803
v -0.85051 2.76018 -2.02803
v -0.69715 -0.02539 -0.83864
v 0.85051 0.05982 -0.83864
v 0.70001 2.79348 -0.72907
v -0.84765 2.70828 -0.72907
v -0.86235 -0.51529 -0.72618
v 0.68530 -0.60050 -0.72618
v 0.85888 2.55220 -0.85255
v -0.68878 2.63741 -0.85255
v -0.85888 -0.45220 0.85255
v 0.68878 -0.53741 0.85255
v 0.86235 2.61529 0.72618
v -0.68530 2.70050 0.72618
v -0.72160 0.23883 0.78333
v 0.82605 0.32404 0.78333
v 0.72160 2.22117 0.78333
v -0.82605 2.13596 0.78333
v -0.72160 0.23883 2.08333
v 0.82605 0.32404 2.08333
v 0.72160 2.22117 2.08333
v -0.82605 2.13596 2.08333
v -0.83581 0.32683 2.03091
v 0.71185 0.24162 2.03091
v 0.83928 2.55626 2.12369
v -0.70837 2.64147 2.12369
v -0.83928 0.26374 3.60965
v 0.70837 0.17853 3.60965
v 0.83581 2.49317 3.70242
v -0.71185 2.57838 3.70242
v -0.69715 -0.38539 3.70531
v 0.85051 -0.30018 3.70531
v 0.70001 2.43348 3.59573
v -0.84765 2.34828 3.59573
v -0.70001 -0.33348 5.00427
v 0.84765 -0.24828 5.00427
v 0.69715 2.48539 4.89469
v -0.85051 2.40018 4.89469
v -0.84032 2.91464 -4.75000
v 0.85892 2.96564 -4.75000
v 0.84032 3.58536 -4.75000
v -0.85892 3.53436 -4.75000
v -0.84032 2.91464 4.75000
v 0.85892 2.96564 4.75000
v 0.84032 3.58536 4.75000
v -0.85892 3.53436 4.75000
v 0.09000 3.52000 -4.20000
v 0.02599 3.52000 -4.06709
v -0.11783 3.52000 -4.03426
v -0.23316 3.52000 -4.12624
v -0.23316 3.52000 -4.27376
v -0.11783 3.52000 -4.36574
v 0.02599 3.52000 -4.33291
v -0.22652 4.55973 -4.20000
v 0.09000 3.70000 -2.52000
v 0.02599 3.70000 -2.38709
v -0.11783 3.70000 -2.35426
v -0.23316 3.70000 -2.44624
v -0.23316 3.70000 -2.59376
v -0.11783 3.70000 -2.68574
v 0.02599 3.70000 -2.65291
v -0.22652 4.73973 -2.52000
v 0.09000 3.52000 -0.84000
v 0.02599 3.52000 -0.70709
v -0.11783 3.52000 -0.67426
v -0.23316 3.52000 -0.76624
v -0.23316 3.52000 -0.91376
v -0.11783 3.52000 -1.00574
v 0.02599 3.52000 -0.97291
v -0.22652 4.55973 -0.84000
v 0.09000 3.70000 0.84000
v 0.02599 3.70000 0.97291
v -0.11783 3.70000 1.00574
v -0.23316 3.70000 0.91376
v -0.23316 3.70000 0.76624
v -0.11783 3.70000 0.67426
v 0.02599 3.70000 0.70709
v 0.06652 4.73973 0.84000
v 0.09000 3.52000 2.52000
v 0.02599 3.52000 2.65291
v -0.11783 3.52000 2.68574
v -0.23316 3.52000 2.59376
v -0.23316 3.52000 2.44624
v -0.11783 3.52000 2.35426
v 0.02599 3.52000 2.38709
v 0.06652 4.55973 2.52000
v 0.09000 3.70000 4.20000
v 0.02599 3.70000 4.33291
v -0.11783 3.70000 4.36574
v -0.23316 3.70000 4.27376
v -0.23316 3.70000 4.12624
v -0.11783 3.70000 4.03426
v 0.02599 3.70000 4.06709
v 0.06652 4.73973 4.20000
f 4 3 2 1
f 7 8 5 6
f 8 4 1 5
f 3 7 6 2
f 8 7 3 4
f 1 2 6 5
f 12 11 10 9
f 15 16 13 14
f 16 12 9 13
f 11 15 14 10
f 16 15 11 12
f 9 10 14 13
f 20 19 18 17
f 23 24 21 22
f 24 20 17 21
f 19 23 22 18
f 24 23 19 20
f 17 18 22 21
f 28 27 26 25
f 31 32 29 30
f 32 28 25 29
f 27 31 30 26
f 32 31 27 28
f 25 26 30 29
f 36 35 34 33
f 39 40 37 38
f 40 36 33 37
f 35 39 38 34
f 40 39 35 36
f 33 34 38 37
f 44 43 42 41
f 47 48 45 46
f 48 44 41 45
f 43 47 46 42
f 48 47 43 44
f 41 42 46 45
f 52 51 50 49
f 55 56 53 54
f 56 52 49 53
f 51 55 54 50
f 56 55 51 52
f 49 50 54 53
f 60 59 58 57
f 63 64 61 62
f 64 60 57 61
f 59 63 62 58
f 64 63 59 60
f 57 58 62 61
f 72 66 65
f 72 67 66
f 72 68 67
f 72 69 68
f 72 70 69
f 72 71 70
f 72 65 71
f 65 66 67 68 69 70 71
f 80 74 73
f 80 75 74
f 80 76 75
f 80 77 76
f 80 78 77
f 80 79 78
f 80 73 79
f 73 74 75 76 77 78 79
f 88 82 81
f 88 83 82
f 88 84 83
f 88 85 84
f 88 86 85
f 88 87 86
f 88 81 87
f 81 82 83 84 85 86 87
f 96 90 89
f 96 91 90
f 96 92 91
f 96 93 92
f 96 94 93
f 96 95 94
f 96 89 95
f 89 90 91 92 93 94 95
f 104 98 97
f 104 99 98
f 104 100 99
f 104 101 100
f 104 102 101
f 104 103 102
f 104 97 103
f 97 98 99 100 101 102 103
f 112 106 105
f 112 107 106
f 112 108 107
f 112 109 108
f 112 110 109
f 112 111 110
f 112 105 111
f 105 106 107 108 109 110 111
