o ogre_tower
s off
v 2.41871 0.00000 0.39033
v 1.72765 5.60000 0.27881
v 1.20287 0.00000 2.13439
v 0.85919 5.60000 1.52456
v -0.91876 0.00000 2.27121
v -0.65625 5.60000 1.62229
v -2.34854 0.00000 0.69776
v -1.67753 5.60000 0.49840
v -2.00982 0.00000 -1.40111
v -1.43559 5.60000 -1.00079
v -0.15767 0.00000 -2.44492
v -0.11262 5.60000 -1.74637
v 1.81321 0.00000 -1.64765
v 1.29515 5.60000 -1.17690
v 2.15445 5.17500 0.19864
v 2.45062 5.72500 0.24643
v 1.16193 5.17500 1.62236
v 1.30922 5.72500 1.88371
v -0.57001 5.17500 1.73405
v -0.68251 5.72500 2.01215
v -1.73717 5.17500 0.44960
v -2.02475 5.72500 0.53504
v -1.46067 5.17500 -1.26377
v -1.70677 5.72500 -1.43533
v 0.05129 5.17500 -2.11585
v 0.03198 5.72500 -2.41523
v 1.66017 5.17500 -1.46502
v 1.88220 5.72500 -1.66678
v 0.04708 0.93038 -1.66000
v 0.33092 1.07815 -1.66000
v -1.74708 5.06962 -1.66000
v -2.03092 4.92185 -1.66000
v 0.04708 0.93038 -1.34000
v 0.33092 1.07815 -1.34000
v -1.74708 5.06962 -1.34000
v -2.03092 4.92185 -1.34000
v -1.95312 1.03246 1.39000
v -1.66360 0.89616 1.39000
v 0.25312 4.96754 1.39000
v -0.03640 5.10384 1.39000
v -1.95312 1.03246 1.71000
v -1.66360 0.89616 1.71000
v 0.25312 4.96754 1.71000
v -0.03640 5.10384 1.71000
v -0.60460 0.75771 0.04000
v -0.28977 0.81500 0.04000
v -1.09540 5.24229 0.04000
v -1.41023 5.18500 0.04000
v -0.60460 0.75771 0.36000
v -0.28977 0.81500 0.36000
v -1.09540 5.24229 0.36000
v -1.41023 5.18500 0.36000
v 1.95701 5.72000 0.28677
v 1.88924 5.72000 0.42750
v 1.73696 5.72000 0.46226
v 1.61483 5.72000 0.36487
v 1.61483 5.72000 0.20867
v 1.73696 5.72000 0.11129
v 1.88924 5.72000 0.14604
v 1.93862 7.06029 0.28677
v 1.06374 5.72000 1.56812
v 0.99597 5.72000 1.70885
v 0.84369 5.72000 1.74361
v 0.72156 5.72000 1.64622
v 0.72156 5.72000 1.49002
v 0.84369 5.72000 1.39263
v 0.99597 5.72000 1.42739
v 1.04535 7.06029 1.56812
v -0.49500 5.72000 1.66864
v -0.56278 5.72000 1.80937
v -0.71506 5.72000 1.84413
v -0.83718 5.72000 1.74674
v -0.83718 5.72000 1.59054
v -0.71506 5.72000 1.49316
v -0.56278 5.72000 1.52791
v -0.51339 7.06029 1.66864
v -1.54546 5.72000 0.51264
v -1.61323 5.72000 0.65337
v -1.76551 5.72000 0.68813
v -1.88763 5.72000 0.59074
v -1.88763 5.72000 0.43454
v -1.76551 5.72000 0.33715
v -1.61323 5.72000 0.37191
v -1.56384 7.06029 0.51264
v -1.29660 5.72000 -1.02939
v -1.36438 5.72000 -0.88866
v -1.51666 5.72000 -0.85390
v -1.63878 5.72000 -0.95129
v -1.63878 5.72000 -1.10749
v -1.51666 5.72000 -1.20488
v -1.36438 5.72000 -1.17012
v -1.31499 7.06029 -1.02939
v 0.06416 5.72000 -1.79627
v -0.00361 5.72000 -1.65554
v -0.15589 5.72000 -1.62078
v -0.27801 5.72000 -1.71817
v -0.27801 5.72000 -1.87437
v -0.15589 5.72000 -1.97176
v -0.00361 5.72000 -1.93700
v 0.04577 7.06029 -1.79627
v 1.51216 5.72000 -1.21052
v 1.44438 5.72000 -1.06979
v 1.29210 5.72000 -1.03503
v 1.16998 5.72000 -1.13242
v 1.16998 5.72000 -1.28862
v 1.29210 5.72000 -1.38601
v 1.44438 5.72000 -1.35125
v 1.49377 7.06029 -1.21052
f 2 4 3 1
f 4 6 5 3
f 6 8 7 5
f 8 10 9 7
f 10 12 11 9
f 12 14 13 11
f 14 2 1 13
f 1 3 5 7 9 11 13
f 14 12 10 8 6 4 2
f 16 18 17 15
f 18 20 19 17
f 20 22 21 19
f 22 24 23 21
f 24 26 25 23
f 26 28 27 25
f 28 16 15 27
f 15 17 19 21 23 25 27
f 28 26 24 22 20 18 16
f 32 31 30 29
f 35 36 33 34
f 36 32 29 33
f 31 35 34 30
f 36 35 31 32
f 29 30 34 33
f 40 39 38 37
f 43 44 41 42
f 44 40 37 41
f 39 43 42 38
f 44 43 39 40
f 37 38 42 41
f 48 47 46 45
f 51 52 49 50
f 52 48 45 49
f 47 51 50 46
f 52 51 47 48
f 45 46 50 49
f 60 54 53
f 60 55 54
f 60 56 55
f 60 57 56
f 60 58 57
f 60 59 58
f 60 53 59
f 53 54 55 56 57 58 59
f 68 62 61
f 68 63 62
f 68 64 63
f 68 65 64
f 68 66 65
f 68 67 66
f 68 61 67
f 61 62 63 64 65 66 67
f 76 70 69
f 76 71 70
f 76 72 71
f 76 73 72
f 76 74 73
f 76 75 74
f 76 69 75
f 69 70 71 72 73 74 75
f 84 78 77
f 84 79 78
f 84 80 79
f 84 81 80
f 84 82 81
f 84 83 82
f 84 77 83
f 77 78 79 80 81 82 83
f 92 86 85
f 92 87 86
f 92 88 87
f 92 89 88
f 92 90 89
f 92 91 90
f 92 85 91
f 85 86 87 88 89 90 91
f 100 94 93
f 100 95 94
f 100 96 95
f 100 97 96
f 100 98 97
f 100 99 98
f 100 93 99
f 93 94 95 96 97 98 99
f 108 102 101
f 108 103 102
f 108 104 103
f 108 105 104
f 108 106 105
f 108 107 106
f 108 101 107
f 101 102 103 104 105 106 107
