o ogre_keep_iron
s off
v 5.273402 0.000000 0.959599
v 4.324190 10.400000 0.786871
v 3.702234 0.000000 3.875960
v 3.035832 10.400000 3.178287
v 0.716938 0.000000 5.311836
v 0.587890 10.400000 4.355705
v -2.542203 0.000000 4.718771
v -2.084607 10.400000 3.869392
v -4.830310 0.000000 2.323297
v -3.960854 10.400000 1.905103
v -5.273402 0.000000 -0.959599
v -4.324190 10.400000 -0.786871
v -3.702234 0.000000 -3.875960
v -3.035832 10.400000 -3.178287
v -0.716938 0.000000 -5.311836
v -0.587890 10.400000 -4.355705
v 2.542203 0.000000 -4.718771
v 2.084607 10.400000 -3.869392
v 4.830310 0.000000 -2.323297
v 3.960854 10.400000 -1.905103
v 4.441843 0.381944 -0.736000
v 5.590158 0.474005 -0.736000
v 4.866160 7.927987 -0.640000
v 3.969039 7.856064 -0.640000
v 4.441843 0.381944 0.736000
v 5.590158 0.474005 0.736000
v 4.866160 7.927987 0.640000
v 3.969039 7.856064 0.640000
v 1.399425 0.387239 3.879086
v 1.651266 0.372111 5.003120
v 1.979231 7.853908 4.901203
v 1.782480 7.865727 4.023052
v -0.034255 0.473364 4.201464
v 0.217586 0.458235 5.325498
v 0.732552 7.928798 5.181532
v 0.535801 7.940618 4.303381
v -3.384458 0.510904 1.895320
v -4.482317 0.400751 2.226495
v -5.137251 7.860635 2.098325
v -4.279549 7.946692 1.839595
v -3.805512 0.468658 0.485458
v -4.903371 0.358505 0.816632
v -5.503385 7.823899 0.872358
v -4.645683 7.909956 0.613627
v -2.307370 0.478191 -3.714197
v -2.659985 0.510013 -4.810442
v -1.857423 7.956016 -4.720045
v -1.581943 7.931155 -3.863603
v -0.912281 0.352293 -4.166591
v -1.264896 0.384115 -5.262836
v -0.644302 7.846539 -5.113431
v -0.368822 7.821679 -4.256989
v 2.810408 0.367537 -3.318071
v 3.664857 0.418866 -4.089035
v 3.186523 7.891630 -3.933378
v 2.518984 7.851529 -3.331062
v 3.793756 0.426609 -2.224306
v 4.648205 0.477937 -2.995271
v 4.041608 7.942996 -2.982279
v 3.374070 7.902896 -2.379963
v 4.651530 10.195000 0.882831
v 4.229658 11.045000 0.806063
v 3.206055 10.195000 3.565883
v 2.909877 11.045000 3.255806
v 0.459583 10.195000 4.886889
v 0.402228 11.045000 4.461942
v -2.538827 10.195000 4.341270
v -2.335451 11.045000 3.963768
v -4.643885 10.195000 2.137433
v -4.257460 11.045000 1.951569
v -5.051530 10.195000 -0.882831
v -4.629658 11.045000 -0.806063
v -3.606055 10.195000 -3.565883
v -3.309877 11.045000 -3.255806
v -0.859583 10.195000 -4.886889
v -0.802228 11.045000 -4.461942
v 2.138827 10.195000 -4.341270
v 1.935451 11.045000 -3.963768
v 4.243885 10.195000 -2.137433
v 3.857460 11.045000 -1.951569
v 4.534286 10.840000 0.342674
v 4.458133 10.840000 0.526522
v 4.274286 10.840000 0.602674
v 4.090438 10.840000 0.526522
v 4.014286 10.840000 0.342674
v 4.090438 10.840000 0.158826
v 4.274286 10.840000 0.082674
v 4.458133 10.840000 0.158826
v 4.567780 12.929356 0.366204
v 3.790303 10.840000 2.433907
v 3.714151 10.840000 2.617755
v 3.530303 10.840000 2.693907
v 3.346455 10.840000 2.617755
v 3.270303 10.840000 2.433907
v 3.346455 10.840000 2.250060
v 3.530303 10.840000 2.173907
v 3.714151 10.840000 2.250060
v 3.772712 12.929356 2.601032
v 2.100378 10.840000 3.872977
v 2.024226 10.840000 4.056825
v 1.840378 10.840000 4.132977
v 1.656531 10.840000 4.056825
v 1.580378 10.840000 3.872977
v 1.656531 10.840000 3.689129
v 1.840378 10.840000 3.612977
v 2.024226 10.840000 3.689129
v 1.966748 12.929356 4.138915
v -0.082674 10.840000 4.274286
v -0.158826 10.840000 4.458133
v -0.342674 10.840000 4.534286
v -0.526522 10.840000 4.458133
v -0.602674 10.840000 4.274286
v -0.526522 10.840000 4.090438
v -0.342674 10.840000 4.014286
v -0.158826 10.840000 4.090438
v -0.366204 12.929356 4.567780
v -2.173907 10.840000 3.530303
v -2.250060 10.840000 3.714151
v -2.433907 10.840000 3.790303
v -2.617755 10.840000 3.714151
v -2.693907 10.840000 3.530303
v -2.617755 10.840000 3.346455
v -2.433907 10.840000 3.270303
v -2.250060 10.840000 3.346455
v -2.601032 12.929356 3.772712
v -3.612977 10.840000 1.840378
v -3.689129 10.840000 2.024226
v -3.872977 10.840000 2.100378
v -4.056825 10.840000 2.024226
v -4.132977 10.840000 1.840378
v -4.056825 10.840000 1.656531
v -3.872977 10.840000 1.580378
v -3.689129 10.840000 1.656531
v -4.138915 12.929356 1.966748
v -4.014286 10.840000 -0.342674
v -4.090438 10.840000 -0.158826
v -4.274286 10.840000 -0.082674
v -4.458133 10.840000 -0.158826
v -4.534286 10.840000 -0.342674
v -4.458133 10.840000 -0.526522
v -4.274286 10.840000 -0.602674
v -4.090438 10.840000 -0.526522
v -4.567780 12.929356 -0.366204
v -3.270303 10.840000 -2.433907
v -3.346455 10.840000 -2.250060
v -3.530303 10.840000 -2.173907
v -3.714151 10.840000 -2.250060
v -3.790303 10.840000 -2.433907
v -3.714151 10.840000 -2.617755
v -3.530303 10.840000 -2.693907
v -3.346455 10.840000 -2.617755
v -3.772712 12.929356 -2.601032
v -1.580378 10.840000 -3.872977
v -1.656531 10.840000 -3.689129
v -1.840378 10.840000 -3.612977
v -2.024226 10.840000 -3.689129
v -2.100378 10.840000 -3.872977
v -2.024226 10.840000 -4.056825
v -1.840378 10.840000 -4.132977
v -1.656531 10.840000 -4.056825
v -1.966748 12.929356 -4.138915
v 0.602674 10.840000 -4.274286
v 0.526522 10.840000 -4.090438
v 0.342674 10.840000 -4.014286
v 0.158826 10.840000 -4.090438
v 0.082674 10.840000 -4.274286
v 0.158826 10.840000 -4.458133
v 0.342674 10.840000 -4.534286
v 0.526522 10.840000 -4.458133
v 0.366204 12.929356 -4.567780
v 2.693907 10.840000 -3.530303
v 2.617755 10.840000 -3.346455
v 2.433907 10.840000 -3.270303
v 2.250060 10.840000 -3.346455
v 2.173907 10.840000 -3.530303
v 2.250060 10.840000 -3.714151
v 2.433907 10.840000 -3.790303
v 2.617755 10.840000 -3.714151
v 2.601032 12.929356 -3.772712
v 4.132977 10.840000 -1.840378
v 4.056825 10.840000 -1.656531
v 3.872977 10.840000 -1.580378
v 3.689129 10.840000 -1.656531
v 3.612977 10.840000 -1.840378
v 3.689129 10.840000 -2.024226
v 3.872977 10.840000 -2.100378
v 4.056825 10.840000 -2.024226
v 4.138915 12.929356 -1.966748
v 3.682548 5.140784 -3.422634
v 4.121208 5.118833 -3.396250
v 4.180183 6.297358 -3.396250
v 3.741524 6.319309 -3.422634
v 3.645417 5.142642 -2.803750
v 4.084076 5.120691 -2.777366
v 4.143052 6.299216 -2.777366
v 3.704392 6.321167 -2.803750
v 3.682548 5.140784 -1.372634
v 4.121208 5.118833 -1.346250
v 4.180183 6.297358 -1.346250
v 3.741524 6.319309 -1.372634
v 3.645417 5.142642 -0.753750
v 4.084076 5.120691 -0.727366
v 4.143052 6.299216 -0.727366
v 3.704392 6.321167 -0.753750
v 3.741524 5.120691 0.777366
v 4.180183 5.142642 0.803750
v 4.121208 6.321167 0.803750
v 3.682548 6.299216 0.777366
v 3.704392 5.118833 1.396250
v 4.143052 5.140784 1.422634
v 4.084076 6.319309 1.422634
v 3.645417 6.297358 1.396250
v 3.741524 5.120691 2.877366
v 4.180183 5.142642 2.903750
v 4.121208 6.321167 2.903750
v 3.682548 6.299216 2.877366
v 3.704392 5.118833 3.496250
v 4.143052 5.140784 3.522634
v 4.084076 6.319309 3.522634
v 3.645417 6.297358 3.496250
v 0.363651 10.300000 -3.446073
v 0.027994 14.500000 -3.500241
v -0.150662 10.300000 -2.612265
v -0.349705 14.500000 -2.887914
v -1.103927 10.300000 -2.386349
v -1.049759 14.500000 -2.722006
v -1.937735 10.300000 -2.900662
v -1.662086 14.500000 -3.099705
v -2.163651 10.300000 -3.853927
v -1.827994 14.500000 -3.799759
v -1.649338 10.300000 -4.687735
v -1.450295 14.500000 -4.412086
v -0.696073 10.300000 -4.913651
v -0.750241 14.500000 -4.577994
v 0.137735 10.300000 -4.399338
v -0.137914 14.500000 -4.200295
v -0.660000 14.550000 -3.650000
v -0.730294 14.550000 -3.480294
v -0.900000 14.550000 -3.410000
v -1.069706 14.550000 -3.480294
v -1.140000 14.550000 -3.650000
v -1.069706 14.550000 -3.819706
v -0.900000 14.550000 -3.890000
v -0.730294 14.550000 -3.819706
v -0.611929 15.971097 -3.650000
v 0.363651 10.300000 3.853927
v 0.027994 14.500000 3.799759
v -0.150662 10.300000 4.687735
v -0.349705 14.500000 4.412086
v -1.103927 10.300000 4.913651
v -1.049759 14.500000 4.577994
v -1.937735 10.300000 4.399338
v -1.662086 14.500000 4.200295
v -2.163651 10.300000 3.446073
v -1.827994 14.500000 3.500241
v -1.649338 10.300000 2.612265
v -1.450295 14.500000 2.887914
v -0.696073 10.300000 2.386349
v -0.750241 14.500000 2.722006
v 0.137735 10.300000 2.900662
v -0.137914 14.500000 3.099705
v -0.660000 14.550000 3.650000
v -0.730294 14.550000 3.819706
v -0.900000 14.550000 3.890000
v -1.069706 14.550000 3.819706
v -1.140000 14.550000 3.650000
v -1.069706 14.550000 3.480294
v -0.900000 14.550000 3.410000
v -0.730294 14.550000 3.480294
v -0.611929 15.971097 3.650000
v -4.391921 11.132078 -5.600000
v 4.406320 11.308066 -5.600000
v 4.391921 12.027922 -5.600000
v -4.406320 11.851934 -5.600000
v -4.391921 11.132078 5.600000
v 4.406320 11.308066 5.600000
v 4.391921 12.027922 5.600000
v -4.406320 11.851934 5.600000
f 2 4 3 1
f 4 6 5 3
f 6 8 7 5
f 8 10 9 7
f 10 12 11 9
f 12 14 13 11
f 14 16 15 13
f 16 18 17 15
f 18 20 19 17
f 20 2 1 19
f 1 3 5 7 9 11 13 15 17 19
f 20 18 16 14 12 10 8 6 4 2
f 24 23 22 21
f 27 28 25 26
f 28 24 21 25
f 23 27 26 22
f 28 27 23 24
f 21 22 26 25
f 32 31 30 29
f 35 36 33 34
f 36 32 29 33
f 31 35 34 30
f 36 35 31 32
f 29 30 34 33
f 40 39 38 37
f 43 44 41 42
f 44 40 37 41
f 39 43 42 38
f 44 43 39 40
f 37 38 42 41
f 48 47 46 45
f 51 52 49 50
f 52 48 45 49
f 47 51 50 46
f 52 51 47 48
f 45 46 50 49
f 56 55 54 53
f 59 60 57 58
f 60 56 53 57
f 55 59 58 54
f 60 59 55 56
f 53 54 58 57
f 62 64 63 61
f 64 66 65 63
f 66 68 67 65
f 68 70 69 67
f 70 72 71 69
f 72 74 73 71
f 74 76 75 73
f 76 78 77 75
f 78 80 79 77
f 80 62 61 79
f 61 63 65 67 69 71 73 75 77 79
f 80 78 76 74 72 70 68 66 64 62
f 89 82 81
f 89 83 82
f 89 84 83
f 89 85 84
f 89 86 85
f 89 87 86
f 89 88 87
f 89 81 88
f 81 82 83 84 85 86 87 88
f 98 91 90
f 98 92 91
f 98 93 92
f 98 94 93
f 98 95 94
f 98 96 95
f 98 97 96
f 98 90 97
f 90 91 92 93 94 95 96 97
f 107 100 99
f 107 101 100
f 107 102 101
f 107 103 102
f 107 104 103
f 107 105 104
f 107 106 105
f 107 99 106
f 99 100 101 102 103 104 105 106
f 116 109 108
f 116 110 109
f 116 111 110
f 116 112 111
f 116 113 112
f 116 114 113
f 116 115 114
f 116 108 115
f 108 109 110 111 112 113 114 115
f 125 118 117
f 125 119 118
f 125 120 119
f 125 121 120
f 125 122 121
f 125 123 122
f 125 124 123
f 125 117 124
f 117 118 119 120 121 122 123 124
f 134 127 126
f 134 128 127
f 134 129 128
f 134 130 129
f 134 131 130
f 134 132 131
f 134 133 132
f 134 126 133
f 126 127 128 129 130 131 132 133
f 143 136 135
f 143 137 136
f 143 138 137
f 143 139 138
f 143 140 139
f 143 141 140
f 143 142 141
f 143 135 142
f 135 136 137 138 139 140 141 142
f 152 145 144
f 152 146 145
f 152 147 146
f 152 148 147
f 152 149 148
f 152 150 149
f 152 151 150
f 152 144 151
f 144 145 146 147 148 149 150 151
f 161 154 153
f 161 155 154
f 161 156 155
f 161 157 156
f 161 158 157
f 161 159 158
f 161 160 159
f 161 153 160
f 153 154 155 156 157 158 159 160
f 170 163 162
f 170 164 163
f 170 165 164
f 170 166 165
f 170 167 166
f 170 168 167
f 170 169 168
f 170 162 169
f 162 163 164 165 166 167 168 169
f 179 172 171
f 179 173 172
f 179 174 173
f 179 175 174
f 179 176 175
f 179 177 176
f 179 178 177
f 179 171 178
f 171 172 173 174 175 176 177 178
f 188 181 180
f 188 182 181
f 188 183 182
f 188 184 183
f 188 185 184
f 188 186 185
f 188 187 186
f 188 180 187
f 180 181 182 183 184 185 186 187
f 192 191 190 189
f 195 196 193 194
f 196 192 189 193
f 191 195 194 190
f 196 195 191 192
f 189 190 194 193
f 200 199 198 197
f 203 204 201 202
f 204 200 197 201
f 199 203 202 198
f 204 203 199 200
f 197 198 202 201
f 208 207 206 205
f 211 212 209 210
f 212 208 205 209
f 207 211 210 206
f 212 211 207 208
f 205 206 210 209
f 216 215 214 213
f 219 220 217 218
f 220 216 213 217
f 215 219 218 214
f 220 219 215 216
f 213 214 218 217
f 222 224 223 221
f 224 226 225 223
f 226 228 227 225
f 228 230 229 227
f 230 232 231 229
f 232 234 233 231
f 234 236 235 233
f 236 222 221 235
f 221 223 225 227 229 231 233 235
f 236 234 232 230 228 226 224 222
f 245 238 237
f 245 239 238
f 245 240 239
f 245 241 240
f 245 242 241
f 245 243 242
f 245 244 243
f 245 237 244
f 237 238 239 240 241 242 243 244
f 247 249 248 246
f 249 251 250 248
f 251 253 252 250
f 253 255 254 252
f 255 257 256 254
f 257 259 258 256
f 259 261 260 258
f 261 247 246 260
f 246 248 250 252 254 256 258 260
f 261 259 257 255 253 251 249 247
f 270 263 262
f 270 264 263
f 270 265 264
f 270 266 265
f 270 267 266
f 270 268 267
f 270 269 268
f 270 262 269
f 262 263 264 265 266 267 268 269
f 274 273 272 271
f 277 278 275 276
f 278 274 271 275
f 273 277 276 272
f 278 277 273 274
f 271 272 276 275
