o ogre_wall_iron
s off
v -0.82081 -0.00215 -4.89749
v 0.96648 0.09625 -4.89749
v 0.82367 2.69024 -5.00147
v -0.96362 2.59184 -5.00147
v -0.82367 0.04976 -3.59853
v 0.96362 0.14816 -3.59853
v 0.82081 2.74215 -3.70251
v -0.96648 2.64375 -3.70251
v -0.97665 0.09148 -4.01500
v 0.81064 -0.00692 -4.01500
v 0.97665 3.00852 -4.01500
v -0.81064 3.10692 -4.01500
v -0.97665 0.09148 -2.43500
v 0.81064 -0.00692 -2.43500
v 0.97665 3.00852 -2.43500
v -0.81064 3.10692 -2.43500
v -0.80060 -0.00927 -2.86826
v 0.98669 0.08913 -2.86826
v 0.79774 3.52118 -2.73070
v -0.98955 3.42278 -2.73070
v -0.79774 -0.06118 -1.56930
v 0.98955 0.03722 -1.56930
v 0.80060 3.46927 -1.43174
v -0.98669 3.37087 -1.43174
v -1.00139 -0.53788 -1.78719
v 0.78590 -0.63628 -1.78719
v 0.99792 3.21480 -1.94155
v -0.78937 3.31320 -1.94155
v -0.99792 -0.47480 -0.20845
v 0.78937 -0.57320 -0.20845
v 1.00139 3.27788 -0.36281
v -0.78590 3.37628 -0.36281
v -0.82218 0.20277 -0.65000
v 0.96511 0.30117 -0.65000
v 0.82218 2.89723 -0.65000
v -0.96511 2.79883 -0.65000
v -0.82218 0.20277 0.65000
v 0.96511 0.30117 0.65000
v 0.82218 2.89723 0.65000
v -0.96511 2.79883 0.65000
v -0.97485 0.30423 0.22525
v 0.81244 0.20583 0.22525
v 0.97833 3.21885 0.34602
v -0.80897 3.31725 0.34602
v -0.97833 0.24115 1.80398
v 0.80897 0.14275 1.80398
v 0.97485 3.15577 1.92475
v -0.81244 3.25417 1.92475
v -0.79774 -0.42118 1.56930
v 0.98955 -0.32278 1.56930
v 0.80060 3.10927 1.43174
v -0.98669 3.01087 1.43174
v -0.80060 -0.36927 2.86826
v 0.98669 -0.27087 2.86826
v 0.79774 3.16118 2.73070
v -0.98955 3.06278 2.73070
v -0.99974 -0.32788 2.43500
v 0.78755 -0.42628 2.43500
v 0.99974 3.42788 2.43500
v -0.78755 3.52628 2.43500
v -0.99974 -0.32788 4.01500
v 0.78755 -0.42628 4.01500
v 0.99974 3.42788 4.01500
v -0.78755 3.52628 4.01500
v -0.82367 0.40976 3.59853
v 0.96362 0.50816 3.59853
v 0.82081 3.10215 3.70251
v -0.96648 3.00375 3.70251
v -0.82081 0.35785 4.89749
v 0.96648 0.45625 4.89749
v 0.82367 3.05024 5.00147
v -0.96362 2.95184 5.00147
v -0.96026 3.87104 -4.75000
v 0.97886 3.92924 -4.75000
v 0.96026 4.54896 -4.75000
v -0.97886 4.49076 -4.75000
v -0.96026 3.87104 4.75000
v 0.97886 3.92924 4.75000
v 0.96026 4.54896 4.75000
v -0.97886 4.49076 4.75000
v 0.14000 4.52000 -4.20000
v 0.05717 4.52000 -4.02800
v -0.12895 4.52000 -3.98552
v -0.27821 4.52000 -4.10455
v -0.27821 4.52000 -4.29545
v -0.12895 4.52000 -4.41448
v 0.05717 4.52000 -4.37200
v -0.29629 6.05483 -4.20000
v 0.14000 4.70000 -3.26667
v 0.05717 4.70000 -3.09466
v -0.12895 4.70000 -3.05218
v -0.27821 4.70000 -3.17121
v -0.27821 4.70000 -3.36212
v -0.12895 4.70000 -3.48115
v 0.05717 4.70000 -3.43867
v -0.29629 6.23483 -3.26667
v 0.14000 4.52000 -2.33333
v 0.05717 4.52000 -2.16133
v -0.12895 4.52000 -2.11885
v -0.27821 4.52000 -2.23788
v -0.27821 4.52000 -2.42879
v -0.12895 4.52000 -2.54782
v 0.05717 4.52000 -2.50534
v -0.29629 6.05483 -2.33333
v 0.14000 4.70000 -1.40000
v 0.05717 4.70000 -1.22800
v -0.12895 4.70000 -1.18552
v -0.27821 4.70000 -1.30455
v -0.27821 4.70000 -1.49545
v -0.12895 4.70000 -1.61448
v 0.05717 4.70000 -1.57200
v -0.29629 6.23483 -1.40000
v 0.14000 4.52000 -0.46667
v 0.05717 4.52000 -0.29466
v -0.12895 4.52000 -0.25218
v -0.27821 4.52000 -0.37121
v -0.27821 4.52000 -0.56212
v -0.12895 4.52000 -0.68115
v 0.05717 4.52000 -0.63867
v -0.29629 6.05483 -0.46667
v 0.14000 4.70000 0.46667
v 0.05717 4.70000 0.63867
v -0.12895 4.70000 0.68115
v -0.27821 4.70000 0.56212
v -0.27821 4.70000 0.37121
v -0.12895 4.70000 0.25218
v 0.05717 4.70000 0.29466
v 0.13629 6.23483 0.46667
v 0.14000 4.52000 1.40000
v 0.05717 4.52000 1.57200
v -0.12895 4.52000 1.61448
v -0.27821 4.52000 1.49545
v -0.27821 4.52000 1.30455
v -0.12895 4.52000 1.18552
v 0.05717 4.52000 1.22800
v 0.13629 6.05483 1.40000
v 0.14000 4.70000 2.33333
v 0.05717 4.70000 2.50534
v -0.12895 4.70000 2.54782
v -0.27821 4.70000 2.42879
v -0.27821 4.70000 2.23788
v -0.12895 4.70000 2.11885
v 0.05717 4.70000 2.16133
v 0.13629 6.23483 2.33333
v 0.14000 4.52000 3.26667
v 0.05717 4.52000 3.43867
v -0.12895 4.52000 3.48115
v -0.27821 4.52000 3.36212
v -0.27821 4.52000 3.17121
v -0.12895 4.52000 3.05218
v 0.05717 4.52000 3.09466
v 0.13629 6.05483 3.26667
v 0.14000 4.70000 4.20000
v 0.05717 4.70000 4.37200
v -0.12895 4.70000 4.41448
v -0.27821 4.70000 4.29545
v -0.27821 4.70000 4.10455
v -0.12895 4.70000 3.98552
v 0.05717 4.70000 4.02800
v 0.13629 6.23483 4.20000
v -0.50541 0.16840 -3.91000
v -0.10639 0.14042 -3.91000
v 0.14541 3.73160 -3.91000
v -0.25361 3.75958 -3.91000
v -0.50541 0.16840 -2.89000
v -0.10639 0.14042 -2.89000
v 0.14541 3.73160 -2.89000
v -0.25361 3.75958 -2.89000
v -0.50541 0.16840 -1.66000
v -0.10639 0.14042 -1.66000
v 0.14541 3.73160 -1.66000
v -0.25361 3.75958 -1.66000
v -0.50541 0.16840 -0.64000
v -0.10639 0.14042 -0.64000
v 0.14541 3.73160 -0.64000
v -0.25361 3.75958 -0.64000
v -0.25361 0.14042 0.89000
v 0.14541 0.16840 0.89000
v -0.10639 3.75958 0.89000
v -0.50541 3.73160 0.89000
v -0.25361 0.14042 1.91000
v 0.14541 0.16840 1.91000
v -0.10639 3.75958 1.91000
v -0.50541 3.73160 1.91000
v -0.25361 0.14042 3.04000
v 0.14541 0.16840 3.04000
v -0.10639 3.75958 3.04000
v -0.50541 3.73160 3.04000
v -0.25361 0.14042 4.06000
v 0.14541 0.16840 4.06000
v -0.10639 3.75958 4.06000
v -0.50541 3.73160 4.06000
f 4 3 2 1
f 7 8 5 6
f 8 4 1 5
f 3 7 6 2
f 8 7 3 4
f 1 2 6 5
f 12 11 10 9
f 15 16 13 14
f 16 12 9 13
f 11 15 14 10
f 16 15 11 12
f 9 10 14 13
f 20 19 18 17
f 23 24 21 22
f 24 20 17 21
f 19 23 22 18
f 24 23 19 20
f 17 18 22 21
f 28 27 26 25
f 31 32 29 30
f 32 28 25 29
f 27 31 30 26
f 32 31 27 28
f 25 26 30 29
f 36 35 34 33
f 39 40 37 38
f 40 36 33 37
f 35 39 38 34
f 40 39 35 36
f 33 34 38 37
f 44 43 42 41
f 47 48 45 46
f 48 44 41 45
f 43 47 46 42
f 48 47 43 44
f 41 42 46 45
f 52 51 50 49
f 55 56 53 54
f 56 52 49 53
f 51 55 54 50
f 56 55 51 52
f 49 50 54 53
f 60 59 58 57
f 63 64 61 62
f 64 60 57 61
f 59 63 62 58
f 64 63 59 60
f 57 58 62 61
f 68 67 66 65
f 71 72 69 70
f 72 68 65 69
f 67 71 70 66
f 72 71 67 68
f 65 66 70 69
f 76 75 74 73
f 79 80 77 78
f 80 76 73 77
f 75 79 78 74
f 80 79 75 76
f 73 74 78 77
f 88 82 81
f 88 83 82
f 88 84 83
f 88 85 84
f 88 86 85
f 88 87 86
f 88 81 87
f 81 82 83 84 85 86 87
f 96 90 89
f 96 91 90
f 96 92 91
f 96 93 92
f 96 94 93
f 96 95 94
f 96 89 95
f 89 90 91 92 93 94 95
f 104 98 97
f 104 99 98
f 104 100 99
f 104 101 100
f 104 102 101
f 104 103 102
f 104 97 103
f 97 98 99 100 101 102 103
f 112 106 105
f 112 107 106
f 112 108 107
f 112 109 108
f 112 110 109
f 112 111 110
f 112 105 111
f 105 106 107 108 109 110 111
f 120 114 113
f 120 115 114
f 120 116 115
f 120 117 116
f 120 118 117
f 120 119 118
f 120 113 119
f 113 114 115 116 117 118 119
f 128 122 121
f 128 123 122
f 128 124 123
f 128 125 124
f 128 126 125
f 128 127 126
f 128 121 127
f 121 122 123 124 125 126 127
f 136 130 129
f 136 131 130
f 136 132 131
f 136 133 132
f 136 134 133
f 136 135 134
f 136 129 135
f 129 130 131 132 133 134 135
f 144 138 137
f 144 139 138
f 144 140 139
f 144 141 140
f 144 142 141
f 144 143 142
f 144 137 143
f 137 138 139 140 141 142 143
f 152 146 145
f 152 147 146
f 152 148 147
f 152 149 148
f 152 150 149
f 152 151 150
f 152 145 151
f 145 146 147 148 149 150 151
f 160 154 153
f 160 155 154
f 160 156 155
f 160 157 156
f 160 158 157
f 160 159 158
f 160 153 159
f 153 154 155 156 157 158 159
f 164 163 162 161
f 167 168 165 166
f 168 164 161 165
f 163 167 166 162
f 168 167 163 164
f 161 162 166 165
f 172 171 170 169
f 175 176 173 174
f 176 172 169 173
f 171 175 174 170
f 176 175 171 172
f 169 170 174 173
f 180 179 178 177
f 183 184 181 182
f 184 180 177 181
f 179 183 182 178
f 184 183 179 180
f 177 178 182 181
f 188 187 186 185
f 191 192 189 190
f 192 188 185 189
f 187 191 190 186
f 192 191 187 188
f 185 186 190 189
