o ogre_keep_bronze
s off
v 4.997926 0.000000 0.909470
v 4.098299 9.350000 0.745766
v 3.244037 0.000000 3.909299
v 2.660111 9.350000 3.205626
v -0.027773 0.000000 5.079924
v -0.022774 9.350000 4.165538
v -3.286587 0.000000 3.873596
v -2.695002 9.350000 3.176348
v -5.007571 0.000000 0.854769
v -4.106208 9.350000 0.700910
v -4.385457 0.000000 -2.564014
v -3.596075 9.350000 -2.102491
v -1.711339 0.000000 -4.783066
v -1.403298 9.350000 -3.922114
v 1.763534 0.000000 -4.764068
v 1.446098 9.350000 -3.906536
v 4.413230 0.000000 -2.515910
v 3.618848 9.350000 -2.063046
v 4.165235 0.338735 -0.736000
v 5.313551 0.430796 -0.736000
v 4.649968 7.131196 -0.640000
v 3.752846 7.059273 -0.640000
v 4.165235 0.338735 0.736000
v 5.313551 0.430796 0.736000
v 4.649968 7.131196 0.640000
v 3.752846 7.059273 0.640000
v 1.368128 0.344559 3.638668
v 1.619970 0.329431 4.762701
v 1.902601 7.056588 4.660785
v 1.705850 7.068407 3.782634
v -0.065552 0.430683 3.961046
v 0.186289 0.415555 5.085079
v 0.655923 7.131479 4.941113
v 0.459171 7.143298 4.062962
v -3.186197 0.467016 1.824486
v -4.284055 0.356862 2.155660
v -4.863516 7.064523 2.027491
v -4.005814 7.150581 1.768760
v -3.607250 0.424769 0.414623
v -4.705109 0.314616 0.745798
v -5.229649 7.027787 0.801523
v -4.371947 7.113845 0.542793
v -2.197669 0.434662 -3.479722
v -2.550284 0.466483 -4.575968
v -1.815670 7.159545 -4.485570
v -1.540190 7.134685 -3.629128
v -0.802580 0.308763 -3.932116
v -1.155195 0.340585 -5.028362
v -0.602549 7.050069 -4.878956
v -0.327069 7.025208 -4.022514
v 2.604655 0.324857 -3.153170
v 3.459104 0.376185 -3.924134
v 3.026102 7.094310 -3.768478
v 2.358564 7.054209 -3.166162
v 3.588003 0.383929 -2.059406
v 4.442452 0.435257 -2.830370
v 3.881188 7.145677 -2.817378
v 3.213650 7.105576 -2.215062
v 4.398092 9.145000 0.836713
v 3.998258 9.995000 0.763955
v 2.784514 9.145000 3.596556
v 2.524991 9.995000 3.283812
v -0.225551 9.145000 4.673530
v -0.223329 9.995000 4.267136
v -3.223660 9.145000 3.563708
v -2.960733 9.995000 3.253820
v -4.806966 9.145000 0.786387
v -4.406360 9.995000 0.718006
v -4.234620 9.145000 -2.358893
v -3.883784 9.995000 -2.153772
v -1.774432 9.145000 -4.400421
v -1.637524 9.995000 -4.017775
v 1.422451 9.145000 -4.382943
v 1.281369 9.995000 -4.001817
v 3.860171 9.145000 -2.314637
v 3.507113 9.995000 -2.113365
v 4.291002 9.790000 0.324773
v 4.220708 9.790000 0.494479
v 4.051002 9.790000 0.564773
v 3.881297 9.790000 0.494479
v 3.811002 9.790000 0.324773
v 3.881297 9.790000 0.155068
v 4.051002 9.790000 0.084773
v 4.220708 9.790000 0.155068
v 4.312504 11.651606 0.345738
v 3.326433 9.790000 2.643866
v 3.256138 9.790000 2.813572
v 3.086433 9.790000 2.883866
v 2.916727 9.790000 2.813572
v 2.846433 9.790000 2.643866
v 2.916727 9.790000 2.474161
v 3.086433 9.790000 2.403866
v 3.256138 9.790000 2.474161
v 3.285669 11.651606 2.814534
v 1.182951 9.790000 3.953092
v 1.112656 9.790000 4.122798
v 0.942951 9.790000 4.193092
v 0.773245 9.790000 4.122798
v 0.702951 9.790000 3.953092
v 0.773245 9.790000 3.783387
v 0.942951 9.790000 3.713092
v 1.112656 9.790000 3.783387
v 1.003820 11.651606 4.208274
v -1.320706 9.790000 3.752372
v -1.391001 9.790000 3.922077
v -1.560706 9.790000 3.992372
v -1.730412 9.790000 3.922077
v -1.800706 9.790000 3.752372
v -1.730412 9.790000 3.582666
v -1.560706 9.790000 3.512372
v -1.391001 9.790000 3.582666
v -1.661454 11.651606 3.994596
v -3.228227 9.790000 2.118372
v -3.298521 9.790000 2.288078
v -3.468227 9.790000 2.358372
v -3.637932 9.790000 2.288078
v -3.708227 9.790000 2.118372
v -3.637932 9.790000 1.948667
v -3.468227 9.790000 1.878372
v -3.298521 9.790000 1.948667
v -3.692109 11.651606 2.255118
v -3.811002 9.790000 -0.324773
v -3.881297 9.790000 -0.155068
v -4.051002 9.790000 -0.084773
v -4.220708 9.790000 -0.155068
v -4.291002 9.790000 -0.324773
v -4.220708 9.790000 -0.494479
v -4.051002 9.790000 -0.564773
v -3.881297 9.790000 -0.494479
v -4.312504 11.651606 -0.345738
v -2.846433 9.790000 -2.643866
v -2.916727 9.790000 -2.474161
v -3.086433 9.790000 -2.403866
v -3.256138 9.790000 -2.474161
v -3.326433 9.790000 -2.643866
v -3.256138 9.790000 -2.813572
v -3.086433 9.790000 -2.883866
v -2.916727 9.790000 -2.813572
v -3.285669 11.651606 -2.814534
v -0.702951 9.790000 -3.953092
v -0.773245 9.790000 -3.783387
v -0.942951 9.790000 -3.713092
v -1.112656 9.790000 -3.783387
v -1.182951 9.790000 -3.953092
v -1.112656 9.790000 -4.122798
v -0.942951 9.790000 -4.193092
v -0.773245 9.790000 -4.122798
v -1.003820 11.651606 -4.208274
v 1.800706 9.790000 -3.752372
v 1.730412 9.790000 -3.582666
v 1.560706 9.790000 -3.512372
v 1.391001 9.790000 -3.582666
v 1.320706 9.790000 -3.752372
v 1.391001 9.790000 -3.922077
v 1.560706 9.790000 -3.992372
v 1.730412 9.790000 -3.922077
v 1.661454 11.651606 -3.994596
v 3.708227 9.790000 -2.118372
v 3.637932 9.790000 -1.948667
v 3.468227 9.790000 -1.878372
v 3.298521 9.790000 -1.948667
v 3.228227 9.790000 -2.118372
v 3.298521 9.790000 -2.288078
v 3.468227 9.790000 -2.358372
v 3.637932 9.790000 -2.288078
v 3.692109 11.651606 -2.255118
v 3.478148 4.563284 -3.422634
v 3.916808 4.541333 -3.396250
v 3.975783 5.719858 -3.396250
v 3.537124 5.741809 -3.422634
v 3.441017 4.565142 -2.803750
v 3.879676 4.543191 -2.777366
v 3.938652 5.721716 -2.777366
v 3.499992 5.743667 -2.803750
v 3.478148 4.563284 -1.372634
v 3.916808 4.541333 -1.346250
v 3.975783 5.719858 -1.346250
v 3.537124 5.741809 -1.372634
v 3.441017 4.565142 -0.753750
v 3.879676 4.543191 -0.727366
v 3.938652 5.721716 -0.727366
v 3.499992 5.743667 -0.753750
v 3.537124 4.543191 0.777366
v 3.975783 4.565142 0.803750
v 3.916808 5.743667 0.803750
v 3.478148 5.721716 0.777366
v 3.499992 4.541333 1.396250
v 3.938652 4.563284 1.422634
v 3.879676 5.741809 1.422634
v 3.441017 5.719858 1.396250
v 3.537124 4.543191 2.877366
v 3.975783 4.565142 2.903750
v 3.916808 5.743667 2.903750
v 3.478148 5.721716 2.877366
v 3.499992 4.541333 3.496250
v 3.938652 4.563284 3.522634
v 3.879676 5.741809 3.522634
v 3.441017 5.719858 3.496250
f 2 4 3 1
f 4 6 5 3
f 6 8 7 5
f 8 10 9 7
f 10 12 11 9
f 12 14 13 11
f 14 16 15 13
f 16 18 17 15
f 18 2 1 17
f 1 3 5 7 9 11 13 15 17
f 18 16 14 12 10 8 6 4 2
f 22 21 20 19
f 25 26 23 24
f 26 22 19 23
f 21 25 24 20
f 26 25 21 22
f 19 20 24 23
f 30 29 28 27
f 33 34 31 32
f 34 30 27 31
f 29 33 32 28
f 34 33 29 30
f 27 28 32 31
f 38 37 36 35
f 41 42 39 40
f 42 38 35 39
f 37 41 40 36
f 42 41 37 38
f 35 36 40 39
f 46 45 44 43
f 49 50 47 48
f 50 46 43 47
f 45 49 48 44
f 50 49 45 46
f 43 44 48 47
f 54 53 52 51
f 57 58 55 56
f 58 54 51 55
f 53 57 56 52
f 58 57 53 54
f 51 52 56 55
f 60 62 61 59
f 62 64 63 61
f 64 66 65 63
f 66 68 67 65
f 68 70 69 67
f 70 72 71 69
f 72 74 73 71
f 74 76 75 73
f 76 60 59 75
f 59 61 63 65 67 69 71 73 75
f 76 74 72 70 68 66 64 62 60
f 85 78 77
f 85 79 78
f 85 80 79
f 85 81 80
f 85 82 81
f 85 83 82
f 85 84 83
f 85 77 84
f 77 78 79 80 81 82 83 84
f 94 87 86
f 94 88 87
f 94 89 88
f 94 90 89
f 94 91 90
f 94 92 91
f 94 93 92
f 94 86 93
f 86 87 88 89 90 91 92 93
f 103 96 95
f 103 97 96
f 103 98 97
f 103 99 98
f 103 100 99
f 103 101 100
f 103 102 101
f 103 95 102
f 95 96 97 98 99 100 101 102
f 112 105 104
f 112 106 105
f 112 107 106
f 112 108 107
f 112 109 108
f 112 110 109
f 112 111 110
f 112 104 111
f 104 105 106 107 108 109 110 111
f 121 114 113
f 121 115 114
f 121 116 115
f 121 117 116
f 121 118 117
f 121 119 118
f 121 120 119
f 121 113 120
f 113 114 115 116 117 118 119 120
f 130 123 122
f 130 124 123
f 130 125 124
f 130 126 125
f 130 127 126
f 130 128 127
f 130 129 128
f 130 122 129
f 122 123 124 125 126 127 128 129
f 139 132 131
f 139 133 132
f 139 134 133
f 139 135 134
f 139 136 135
f 139 137 136
f 139 138 137
f 139 131 138
f 131 132 133 134 135 136 137 138
f 148 141 140
f 148 142 141
f 148 143 142
f 148 144 143
f 148 145 144
f 148 146 145
f 148 147 146
f 148 140 147
f 140 141 142 143 144 145 146 147
f 157 150 149
f 157 151 150
f 157 152 151
f 157 153 152
f 157 154 153
f 157 155 154
f 157 156 155
f 157 149 156
f 149 150 151 152 153 154 155 156
f 166 159 158
f 166 160 159
f 166 161 160
f 166 162 161
f 166 163 162
f 166 164 163
f 166 165 164
f 166 158 165
f 158 159 160 161 162 163 164 165
f 170 169 168 167
f 173 174 171 172
f 174 170 167 171
f 169 173 172 168
f 174 173 169 170
f 167 168 172 171
f 178 177 176 175
f 181 182 179 180
f 182 178 175 179
f 177 181 180 176
f 182 181 177 178
f 175 176 180 179
f 186 185 184 183
f 189 190 187 188
f 190 186 183 187
f 185 189 188 184
f 190 189 185 186
f 183 184 188 187
f 194 193 192 191
f 197 198 195 196
f 198 194 191 195
f 193 197 196 192
f 198 197 193 194
f 191 192 196 195
