o ogre_tower_iron
s off
v 2.76424 0.00000 0.44609
v 1.91522 7.40000 0.30908
v 1.63918 0.00000 2.27004
v 1.13572 7.40000 1.57282
v -0.44609 0.00000 2.76424
v -0.30908 7.40000 1.91522
v -2.27004 0.00000 1.63918
v -1.57282 7.40000 1.13572
v -2.76424 0.00000 -0.44609
v -1.91522 7.40000 -0.30908
v -1.63918 0.00000 -2.27004
v -1.13572 7.40000 -1.57282
v 0.44609 0.00000 -2.76424
v 0.30908 7.40000 -1.91522
v 2.27004 0.00000 -1.63918
v 1.57282 7.40000 -1.13572
v 2.59871 6.70000 0.27033
v 2.92449 7.58000 0.32290
v 1.61428 6.70000 1.86629
v 1.80747 7.58000 2.13383
v -0.21033 6.70000 2.29871
v -0.26290 7.58000 2.62449
v -1.80629 6.70000 1.31428
v -2.07383 7.58000 1.50747
v -2.23871 6.70000 -0.51033
v -2.56449 7.58000 -0.56290
v -1.25428 6.70000 -2.10629
v -1.44747 7.58000 -2.37383
v 0.57033 6.70000 -2.53871
v 0.62290 7.58000 -2.86449
v 2.16629 6.70000 -1.55428
v 2.43383 7.58000 -1.74747
v 0.28455 0.92051 -1.67000
v 0.58613 1.07752 -1.67000
v -2.18455 6.39949 -1.67000
v -2.48613 6.24248 -1.67000
v 0.28455 0.92051 -1.33000
v 0.58613 1.07752 -1.33000
v -2.18455 6.39949 -1.33000
v -2.48613 6.24248 -1.33000
v -2.38163 1.01815 1.38000
v -2.07401 0.87334 1.38000
v 0.48163 6.30185 1.38000
v 0.17401 6.44666 1.38000
v -2.38163 1.01815 1.72000
v -2.07401 0.87334 1.72000
v 0.48163 6.30185 1.72000
v 0.17401 6.44666 1.72000
v -0.58016 0.67803 0.03000
v -0.24566 0.73890 0.03000
v -1.31984 6.64197 0.03000
v -1.65434 6.58110 0.03000
v -0.58016 0.67803 0.37000
v -0.24566 0.73890 0.37000
v -1.31984 6.64197 0.37000
v -1.65434 6.58110 0.37000
v 2.10573 7.68000 0.30270
v 2.01913 7.68000 0.48253
v 1.82455 7.68000 0.52694
v 1.66851 7.68000 0.40250
v 1.66851 7.68000 0.20291
v 1.82455 7.68000 0.07847
v 2.01913 7.68000 0.12288
v 2.11544 9.40298 0.34139
v 1.64431 7.68000 1.26875
v 1.55771 7.68000 1.44857
v 1.36313 7.68000 1.49298
v 1.20709 7.68000 1.36854
v 1.20709 7.68000 1.16896
v 1.36313 7.68000 1.04452
v 1.55771 7.68000 1.08893
v 1.59505 9.40298 1.43088
v 0.73386 7.68000 1.83197
v 0.64726 7.68000 2.01179
v 0.45268 7.68000 2.05621
v 0.29663 7.68000 1.93177
v 0.29663 7.68000 1.73218
v 0.45268 7.68000 1.60774
v 0.64726 7.68000 1.65215
v 0.56825 9.40298 2.06609
v -0.33657 7.68000 1.81356
v -0.42317 7.68000 1.99338
v -0.61775 7.68000 2.03779
v -0.77379 7.68000 1.91335
v -0.77379 7.68000 1.71377
v -0.61775 7.68000 1.58933
v -0.42317 7.68000 1.63374
v -0.63897 9.40298 2.04532
v -1.22711 7.68000 1.21935
v -1.31371 7.68000 1.39918
v -1.50829 7.68000 1.44359
v -1.66433 7.68000 1.31915
v -1.66433 7.68000 1.11956
v -1.50829 7.68000 0.99512
v -1.31371 7.68000 1.03953
v -1.64332 9.40298 1.37518
v -1.65503 7.68000 0.23801
v -1.74163 7.68000 0.41783
v -1.93621 7.68000 0.46225
v -2.09226 7.68000 0.33781
v -2.09226 7.68000 0.13822
v -1.93621 7.68000 0.01378
v -1.74163 7.68000 0.05819
v -2.12593 9.40298 0.26843
v -1.48447 7.68000 -0.81890
v -1.57107 7.68000 -0.63908
v -1.76565 7.68000 -0.59466
v -1.92169 7.68000 -0.71910
v -1.92169 7.68000 -0.91869
v -1.76565 7.68000 -1.04313
v -1.57107 7.68000 -0.99872
v -1.93357 9.40298 -0.92355
v -0.76957 7.68000 -1.61581
v -0.85617 7.68000 -1.43599
v -1.05075 7.68000 -1.39158
v -1.20680 7.68000 -1.51602
v -1.20680 7.68000 -1.71561
v -1.05075 7.68000 -1.84005
v -0.85617 7.68000 -1.79563
v -1.12731 9.40298 -1.82230
v 0.26268 7.68000 -1.89972
v 0.17608 7.68000 -1.71990
v -0.01850 7.68000 -1.67549
v -0.17454 7.68000 -1.79993
v -0.17454 7.68000 -1.99951
v -0.01850 7.68000 -2.12395
v 0.17608 7.68000 -2.07954
v 0.03686 9.40298 -2.14249
v 1.28456 7.68000 -1.58048
v 1.19796 7.68000 -1.40066
v 1.00338 7.68000 -1.35624
v 0.84733 7.68000 -1.48068
v 0.84733 7.68000 -1.68027
v 1.00338 7.68000 -1.80471
v 1.19796 7.68000 -1.76030
v 1.18932 9.40298 -1.78245
v 1.97162 7.68000 -0.75945
v 1.88502 7.68000 -0.57962
v 1.69044 7.68000 -0.53521
v 1.53440 7.68000 -0.65965
v 1.53440 7.68000 -0.85924
v 1.69044 7.68000 -0.98368
v 1.88502 7.68000 -0.93927
v 1.96419 9.40298 -0.85650
v 1.96040 0.88501 -0.52500
v 2.67950 0.92099 -0.52500
v 2.43960 5.71499 -0.52500
v 1.72050 5.67901 -0.52500
v 1.96040 0.88501 0.52500
v 2.67950 0.92099 0.52500
v 2.43960 5.71499 0.52500
v 1.72050 5.67901 0.52500
v 0.64429 0.92924 1.84000
v 0.64429 0.92924 2.56000
v 0.40439 5.72324 2.56000
v 0.40439 5.72324 1.84000
v -0.40439 0.87676 1.84000
v -0.40439 0.87676 2.56000
v -0.64429 5.67076 2.56000
v -0.64429 5.67076 1.84000
v -1.72050 0.92099 0.52500
v -2.43960 0.88501 0.52500
v -2.67950 5.67901 0.52500
v -1.96040 5.71499 0.52500
v -1.72050 0.92099 -0.52500
v -2.43960 0.88501 -0.52500
v -2.67950 5.67901 -0.52500
v -1.96040 5.71499 -0.52500
v -0.40439 0.87676 -1.84000
v -0.40439 0.87676 -2.56000
v -0.64429 5.67076 -2.56000
v -0.64429 5.67076 -1.84000
v 0.64429 0.92924 -1.84000
v 0.64429 0.92924 -2.56000
v 0.40439 5.72324 -2.56000
v 0.40439 5.72324 -1.84000
f 2 4 3 1
f 4 6 5 3
f 6 8 7 5
f 8 10 9 7
f 10 12 11 9
f 12 14 13 11
f 14 16 15 13
f 16 2 1 15
f 1 3 5 7 9 11 13 15
f 16 14 12 10 8 6 4 2
f 18 20 19 17
f 20 22 21 19
f 22 24 23 21
f 24 26 25 23
f 26 28 27 25
f 28 30 29 27
f 30 32 31 29
f 32 18 17 31
f 17 19 21 23 25 27 29 31
f 32 30 28 26 24 22 20 18
f 36 35 34 33
f 39 40 37 38
f 40 36 33 37
f 35 39 38 34
f 40 39 35 36
f 33 34 38 37
f 44 43 42 41
f 47 48 45 46
f 48 44 41 45
f 43 47 46 42
f 48 47 43 44
f 41 42 46 45
f 52 51 50 49
f 55 56 53 54
f 56 52 49 53
f 51 55 54 50
f 56 55 51 52
f 49 50 54 53
f 64 58 57
f 64 59 58
f 64 60 59
f 64 61 60
f 64 62 61
f 64 63 62
f 64 57 63
f 57 58 59 60 61 62 63
f 72 66 65
f 72 67 66
f 72 68 67
f 72 69 68
f 72 70 69
f 72 71 70
f 72 65 71
f 65 66 67 68 69 70 71
f 80 74 73
f 80 75 74
f 80 76 75
f 80 77 76
f 80 78 77
f 80 79 78
f 80 73 79
f 73 74 75 76 77 78 79
f 88 82 81
f 88 83 82
f 88 84 83
f 88 85 84
f 88 86 85
f 88 87 86
f 88 81 87
f 81 82 83 84 85 86 87
f 96 90 89
f 96 91 90
f 96 92 91
f 96 93 92
f 96 94 93
f 96 95 94
f 96 89 95
f 89 90 91 92 93 94 95
f 104 98 97
f 104 99 98
f 104 100 99
f 104 101 100
f 104 102 101
f 104 103 102
f 104 97 103
f 97 98 99 100 101 102 103
f 112 106 105
f 112 107 106
f 112 108 107
f 112 109 108
f 112 110 109
f 112 111 110
f 112 105 111
f 105 106 107 108 109 110 111
f 120 114 113
f 120 115 114
f 120 116 115
f 120 117 116
f 120 118 117
f 120 119 118
f 120 113 119
f 113 114 115 116 117 118 119
f 128 122 121
f 128 123 122
f 128 124 123
f 128 125 124
f 128 126 125
f 128 127 126
f 128 121 127
f 121 122 123 124 125 126 127
f 136 130 129
f 136 131 130
f 136 132 131
f 136 133 132
f 136 134 133
f 136 135 134
f 136 129 135
f 129 130 131 132 133 134 135
f 144 138 137
f 144 139 138
f 144 140 139
f 144 141 140
f 144 142 141
f 144 143 142
f 144 137 143
f 137 138 139 140 141 142 143
f 148 147 146 145
f 151 152 149 150
f 152 148 145 149
f 147 151 150 146
f 152 151 147 148
f 145 146 150 149
f 156 155 154 153
f 159 160 157 158
f 160 156 153 157
f 155 159 158 154
f 160 159 155 156
f 153 154 158 157
f 164 163 162 161
f 167 168 165 166
f 168 164 161 165
f 163 167 166 162
f 168 167 163 164
f 161 162 166 165
f 172 171 170 169
f 175 176 173 174
f 176 172 169 173
f 171 175 174 170
f 176 175 171 172
f 169 170 174 173
