o ogre_wall
s off
v -0.71001 -0.01425 -4.57661
v 0.78879 0.04573 -4.57661
v 0.71291 1.94184 -4.67157
v -0.78589 1.88186 -4.67157
v -0.71291 0.05816 -3.12843
v 0.78589 0.11814 -3.12843
v 0.71001 2.01425 -3.22339
v -0.78879 1.95427 -3.22339
v -0.80539 0.13111 -3.22500
v 0.69342 0.07113 -3.22500
v 0.80539 2.86889 -3.22500
v -0.69342 2.92887 -3.22500
v -0.80539 0.13111 -1.97500
v 0.69342 0.07113 -1.97500
v 0.80539 2.86889 -1.97500
v -0.69342 2.92887 -1.97500
v -0.70702 0.11096 -2.12901
v 0.79178 0.17095 -2.12901
v 0.70392 2.36644 -2.01905
v -0.79488 2.30646 -2.01905
v -0.70392 0.03356 -0.58095
v 0.79488 0.09354 -0.58095
v 0.70702 2.28904 -0.47099
v -0.79178 2.22905 -0.47099
v -0.81051 0.10310 -0.52428
v 0.68829 0.04312 -0.52428
v 0.80811 3.03697 -0.67422
v -0.69069 3.09696 -0.67422
v -0.80811 0.16303 0.67422
v 0.69069 0.10304 0.67422
v 0.81051 3.09690 0.52428
v -0.68829 3.15688 0.52428
v -0.70941 0.02081 0.65000
v 0.78939 0.08079 0.65000
v 0.70941 2.07919 0.65000
v -0.78939 2.01921 0.65000
v -0.70941 0.02081 2.25000
v 0.78939 0.08079 2.25000
v 0.70941 2.07919 2.25000
v -0.78939 2.01921 2.25000
v -0.80202 0.16522 2.08334
v 0.69678 0.10523 2.08334
v 0.80462 2.79970 2.21828
v -0.69418 2.85969 2.21828
v -0.80462 0.10030 3.38172
v 0.69418 0.04031 3.38172
v 0.80202 2.73478 3.51666
v -0.69678 2.79477 3.51666
v -0.70402 -0.01394 3.48088
v 0.79478 0.04604 3.48088
v 0.70692 2.24153 3.37093
v -0.79188 2.18155 3.37093
v -0.70692 0.05847 4.92907
v 0.79188 0.11845 4.92907
v 0.70402 2.31394 4.81912
v -0.79478 2.25396 4.81912
v -0.79288 3.15509 -4.75000
v 0.80662 3.19508 -4.75000
v 0.79288 3.74491 -4.75000
v -0.80662 3.70492 -4.75000
v -0.79288 3.15509 4.75000
v 0.80662 3.19508 4.75000
v 0.79288 3.74491 4.75000
v -0.80662 3.70492 4.75000
v 0.18000 3.70000 -4.20000
v 0.11223 3.70000 -4.05927
v -0.04005 3.70000 -4.02451
v -0.16217 3.70000 -4.12190
v -0.16217 3.70000 -4.27810
v -0.04005 3.70000 -4.37549
v 0.11223 3.70000 -4.34073
v -0.18322 4.83531 -4.20000
v 0.18000 3.90000 -2.80000
v 0.11223 3.90000 -2.65927
v -0.04005 3.90000 -2.62451
v -0.16217 3.90000 -2.72190
v -0.16217 3.90000 -2.87810
v -0.04005 3.90000 -2.97549
v 0.11223 3.90000 -2.94073
v -0.21189 5.21301 -2.80000
v 0.18000 3.70000 -1.30000
v 0.11223 3.70000 -1.15927
v -0.04005 3.70000 -1.12451
v -0.16217 3.70000 -1.22190
v -0.16217 3.70000 -1.37810
v -0.04005 3.70000 -1.47549
v 0.11223 3.70000 -1.44073
v -0.24057 5.19071 -1.30000
v 0.18000 3.90000 0.40000
v 0.11223 3.90000 0.54073
v -0.04005 3.90000 0.57549
v -0.16217 3.90000 0.47810
v -0.16217 3.90000 0.32190
v -0.04005 3.90000 0.22451
v 0.11223 3.90000 0.25927
v 0.18322 5.03531 0.40000
v 0.18000 3.70000 2.10000
v 0.11223 3.70000 2.24073
v -0.04005 3.70000 2.27549
v -0.16217 3.70000 2.17810
v -0.16217 3.70000 2.02190
v -0.04005 3.70000 1.92451
v 0.11223 3.70000 1.95927
v 0.21189 5.01301 2.10000
v 0.18000 3.90000 3.80000
v 0.11223 3.90000 3.94073
v -0.04005 3.90000 3.97549
v -0.16217 3.90000 3.87810
v -0.16217 3.90000 3.72190
v -0.04005 3.90000 3.62451
v 0.11223 3.90000 3.65927
v 0.24057 5.39071 3.80000
f 4 3 2 1
f 7 8 5 6
f 8 4 1 5
f 3 7 6 2
f 8 7 3 4
f 1 2 6 5
f 12 11 10 9
f 15 16 13 14
f 16 12 9 13
f 11 15 14 10
f 16 15 11 12
f 9 10 14 13
f 20 19 18 17
f 23 24 21 22
f 24 20 17 21
f 19 23 22 18
f 24 23 19 20
f 17 18 22 21
f 28 27 26 25
f 31 32 29 30
f 32 28 25 29
f 27 31 30 26
f 32 31 27 28
f 25 26 30 29
f 36 35 34 33
f 39 40 37 38
f 40 36 33 37
f 35 39 38 34
f 40 39 35 36
f 33 34 38 37
f 44 43 42 41
f 47 48 45 46
f 48 44 41 45
f 43 47 46 42
f 48 47 43 44
f 41 42 46 45
f 52 51 50 49
f 55 56 53 54
f 56 52 49 53
f 51 55 54 50
f 56 55 51 52
f 49 50 54 53
f 60 59 58 57
f 63 64 61 62
f 64 60 57 61
f 59 63 62 58
f 64 63 59 60
f 57 58 62 61
f 72 66 65
f 72 67 66
f 72 68 67
f 72 69 68
f 72 70 69
f 72 71 70
f 72 65 71
f 65 66 67 68 69 70 71
f 80 74 73
f 80 75 74
f 80 76 75
f 80 77 76
f 80 78 77
f 80 79 78
f 80 73 79
f 73 74 75 76 77 78 79
f 88 82 81
f 88 83 82
f 88 84 83
f 88 85 84
f 88 86 85
f 88 87 86
f 88 81 87
f 81 82 83 84 85 86 87
f 96 90 89
f 96 91 90
f 96 92 91
f 96 93 92
f 96 94 93
f 96 95 94
f 96 89 95
f 89 90 91 92 93 94 95
f 104 98 97
f 104 99 98
f 104 100 99
f 104 101 100
f 104 102 101
f 104 103 102
f 104 97 103
f 97 98 99 100 101 102 103
f 112 106 105
f 112 107 106
f 112 108 107
f 112 109 108
f 112 110 109
f 112 111 110
f 112 105 111
f 105 106 107 108 109 110 111
