o ogre_tower_bronze
s off
v 2.60628 0.00000 0.42060
v 1.83624 6.70000 0.29633
v 1.29615 0.00000 2.29991
v 0.91320 6.70000 1.62039
v -0.99001 0.00000 2.44734
v -0.69750 6.70000 1.72426
v -2.53067 0.00000 0.75187
v -1.78297 6.70000 0.52973
v -2.16569 0.00000 -1.50977
v -1.52582 6.70000 -1.06370
v -0.16990 0.00000 -2.63453
v -0.11970 6.70000 -1.85614
v 1.95383 0.00000 -1.77543
v 1.37656 6.70000 -1.25087
v 2.40126 6.07000 0.23847
v 2.74679 6.85000 0.29423
v 1.28467 6.07000 1.84015
v 1.45651 6.85000 2.14506
v -0.66376 6.07000 1.96580
v -0.79501 6.85000 2.29026
v -1.97682 6.07000 0.52080
v -2.31233 6.85000 0.62048
v -1.66575 6.07000 -1.40674
v -1.95287 6.85000 -1.60689
v 0.03520 6.07000 -2.36534
v 0.01268 6.85000 -2.71461
v 1.84519 6.07000 -1.63315
v 2.10422 6.85000 -1.86853
v 0.14601 0.90661 -1.67000
v 0.44759 1.06362 -1.67000
v -2.04601 5.85339 -1.67000
v -2.34759 5.69638 -1.67000
v 0.14601 0.90661 -1.33000
v 0.44759 1.06362 -1.33000
v -2.04601 5.85339 -1.33000
v -2.34759 5.69638 -1.33000
v -2.25384 1.00958 1.38000
v -1.94623 0.86476 1.38000
v 0.35384 5.75042 1.38000
v 0.04623 5.89524 1.38000
v -2.25384 1.00958 1.72000
v -1.94623 0.86476 1.72000
v 0.35384 5.75042 1.72000
v 0.04623 5.89524 1.72000
v -0.63387 0.69319 0.03000
v -0.29937 0.75406 0.03000
v -1.26613 6.06681 0.03000
v -1.60063 6.00594 0.03000
v -0.63387 0.69319 0.37000
v -0.29937 0.75406 0.37000
v -1.26613 6.06681 0.37000
v -1.60063 6.00594 0.37000
v 2.08073 6.90000 0.30270
v 2.00355 6.90000 0.46298
v 1.83012 6.90000 0.50256
v 1.69103 6.90000 0.39165
v 1.69103 6.90000 0.21376
v 1.83012 6.90000 0.10284
v 2.00355 6.90000 0.14243
v 2.08513 8.40513 0.33650
v 1.44732 6.90000 1.43758
v 1.37013 6.90000 1.59786
v 1.19670 6.90000 1.63744
v 1.05762 6.90000 1.52653
v 1.05762 6.90000 1.34864
v 1.19670 6.90000 1.23772
v 1.37013 6.90000 1.27731
v 1.38100 8.40513 1.59807
v 0.23261 6.90000 1.89980
v 0.15543 6.90000 2.06007
v -0.01801 6.90000 2.09966
v -0.15709 6.90000 1.98875
v -0.15709 6.90000 1.81085
v -0.01801 6.90000 1.69994
v 0.15543 6.90000 1.73952
v 0.03069 8.40513 2.11188
v -0.99502 6.90000 1.47308
v -1.07220 6.90000 1.63335
v -1.24563 6.90000 1.67294
v -1.38471 6.90000 1.56203
v -1.38471 6.90000 1.38413
v -1.24563 6.90000 1.27322
v -1.07220 6.90000 1.31280
v -1.33398 8.40513 1.63753
v -1.66114 6.90000 0.35709
v -1.73833 6.90000 0.51736
v -1.91176 6.90000 0.55695
v -2.05084 6.90000 0.44603
v -2.05084 6.90000 0.26814
v -1.91176 6.90000 0.15723
v -1.73833 6.90000 0.19681
v -2.07447 8.40513 0.39695
v -1.45408 6.90000 -0.92599
v -1.53126 6.90000 -0.76571
v -1.70470 6.90000 -0.72613
v -1.84378 6.90000 -0.83704
v -1.84378 6.90000 -1.01493
v -1.70470 6.90000 -1.12585
v -1.53126 6.90000 -1.08626
v -1.84429 8.40513 -1.02936
v -0.47072 6.90000 -1.77578
v -0.54790 6.90000 -1.61551
v -0.72133 6.90000 -1.57592
v -0.86041 6.90000 -1.68684
v -0.86041 6.90000 -1.86473
v -0.72133 6.90000 -1.97564
v -0.54790 6.90000 -1.93606
v -0.75115 8.40513 -1.97402
v 0.82882 6.90000 -1.79467
v 0.75164 6.90000 -1.63440
v 0.57821 6.90000 -1.59481
v 0.43912 6.90000 -1.70572
v 0.43912 6.90000 -1.88362
v 0.57821 6.90000 -1.99453
v 0.75164 6.90000 -1.95495
v 0.69346 8.40513 -1.99502
v 1.83647 6.90000 -0.97381
v 1.75928 6.90000 -0.81354
v 1.58585 6.90000 -0.77395
v 1.44677 6.90000 -0.88487
v 1.44677 6.90000 -1.06276
v 1.58585 6.90000 -1.17367
v 1.75928 6.90000 -1.13409
v 1.81360 8.40513 -1.08252
f 2 4 3 1
f 4 6 5 3
f 6 8 7 5
f 8 10 9 7
f 10 12 11 9
f 12 14 13 11
f 14 2 1 13
f 1 3 5 7 9 11 13
f 14 12 10 8 6 4 2
f 16 18 17 15
f 18 20 19 17
f 20 22 21 19
f 22 24 23 21
f 24 26 25 23
f 26 28 27 25
f 28 16 15 27
f 15 17 19 21 23 25 27
f 28 26 24 22 20 18 16
f 32 31 30 29
f 35 36 33 34
f 36 32 29 33
f 31 35 34 30
f 36 35 31 32
f 29 30 34 33
f 40 39 38 37
f 43 44 41 42
f 44 40 37 41
f 39 43 42 38
f 44 43 39 40
f 37 38 42 41
f 48 47 46 45
f 51 52 49 50
f 52 48 45 49
f 47 51 50 46
f 52 51 47 48
f 45 46 50 49
f 60 54 53
f 60 55 54
f 60 56 55
f 60 57 56
f 60 58 57
f 60 59 58
f 60 53 59
f 53 54 55 56 57 58 59
f 68 62 61
f 68 63 62
f 68 64 63
f 68 65 64
f 68 66 65
f 68 67 66
f 68 61 67
f 61 62 63 64 65 66 67
f 76 70 69
f 76 71 70
f 76 72 71
f 76 73 72
f 76 74 73
f 76 75 74
f 76 69 75
f 69 70 71 72 73 74 75
f 84 78 77
f 84 79 78
f 84 80 79
f 84 81 80
f 84 82 81
f 84 83 82
f 84 77 83
f 77 78 79 80 81 82 83
f 92 86 85
f 92 87 86
f 92 88 87
f 92 89 88
f 92 90 89
f 92 91 90
f 92 85 91
f 85 86 87 88 89 90 91
f 100 94 93
f 100 95 94
f 100 96 95
f 100 97 96
f 100 98 97
f 100 99 98
f 100 93 99
f 93 94 95 96 97 98 99
f 108 102 101
f 108 103 102
f 108 104 103
f 108 105 104
f 108 106 105
f 108 107 106
f 108 101 107
f 101 102 103 104 105 106 107
f 116 110 109
f 116 111 110
f 116 112 111
f 116 113 112
f 116 114 113
f 116 115 114
f 116 109 115
f 109 110 111 112 113 114 115
f 124 118 117
f 124 119 118
f 124 120 119
f 124 121 120
f 124 122 121
f 124 123 122
f 124 117 123
f 117 118 119 120 121 122 123
