o bent_iron
v -0.898989 0.015665 -0.060000
v -0.800604 -0.002238 -0.060000
v -0.541011 1.424335 -0.060000
v -0.639396 1.442238 -0.060000
v -0.898989 0.015665 0.060000
v -0.800604 -0.002238 0.060000
v -0.541011 1.424335 0.060000
v -0.639396 1.442238 0.060000
v -0.464960 0.002428 -0.060000
v -0.365364 -0.006560 -0.060000
v -0.235040 1.437572 -0.060000
v -0.334636 1.446560 -0.060000
v -0.464960 0.002428 0.060000
v -0.365364 -0.006560 0.060000
v -0.235040 1.437572 0.060000
v -0.334636 1.446560 0.060000
v -0.010000 -0.005000 -0.060000
v 0.090000 -0.005000 -0.060000
v 0.090000 1.445000 -0.060000
v -0.010000 1.445000 -0.060000
v -0.010000 -0.005000 0.060000
v 0.090000 -0.005000 0.060000
v 0.090000 1.445000 0.060000
v -0.010000 1.445000 0.060000
v 0.435364 -0.006560 -0.060000
v 0.534960 0.002428 -0.060000
v 0.404636 1.446560 -0.060000
v 0.305040 1.437572 -0.060000
v 0.435364 -0.006560 0.060000
v 0.534960 0.002428 0.060000
v 0.404636 1.446560 0.060000
v 0.305040 1.437572 0.060000
v 0.840604 -0.002238 -0.060000
v 0.938989 0.015665 -0.060000
v 0.679396 1.442238 -0.060000
v 0.581011 1.424335 -0.060000
v 0.840604 -0.002238 0.060000
v 0.938989 0.015665 0.060000
v 0.679396 1.442238 0.060000
v 0.581011 1.424335 0.060000
v -0.811884 0.141669 -0.035000
v 0.826250 0.339194 -0.035000
v 0.811884 0.458331 -0.035000
v -0.826250 0.260806 -0.035000
v -0.811884 0.141669 0.095000
v 0.826250 0.339194 0.095000
v 0.811884 0.458331 0.095000
v -0.826250 0.260806 0.095000
v -0.791544 1.144143 -0.080000
v 0.780562 0.986406 -0.080000
v 0.791544 1.095857 -0.080000
v -0.780562 1.253594 -0.080000
v -0.791544 1.144143 0.040000
v 0.780562 0.986406 0.040000
v 0.791544 1.095857 0.040000
v -0.780562 1.253594 0.040000
f 1 2 3 4
f 5 8 7 6
f 1 5 6 2
f 2 6 7 3
f 3 7 8 4
f 5 1 4 8
f 9 10 11 12
f 13 16 15 14
f 9 13 14 10
f 10 14 15 11
f 11 15 16 12
f 13 9 12 16
f 17 18 19 20
f 21 24 23 22
f 17 21 22 18
f 18 22 23 19
f 19 23 24 20
f 21 17 20 24
f 25 26 27 28
f 29 32 31 30
f 25 29 30 26
f 26 30 31 27
f 27 31 32 28
f 29 25 28 32
f 33 34 35 36
f 37 40 39 38
f 33 37 38 34
f 34 38 39 35
f 35 39 40 36
f 37 33 36 40
f 41 42 43 44
f 45 48 47 46
f 41 45 46 42
f 42 46 47 43
f 43 47 48 44
f 45 41 44 48
f 49 50 51 52
f 53 56 55 54
f 49 53 54 50
f 50 54 55 51
f 51 55 56 52
f 53 49 52 56
