o gate_shards
v -0.960000 -0.184949 0.066032
v -0.760000 -0.184949 0.066032
v -0.760000 -0.079447 0.186321
v -0.960000 -0.079447 0.186321
v -0.960000 0.604447 -0.626321
v -0.760000 0.426833 -0.470542
v -0.760000 0.532335 -0.350253
v -0.960000 0.709949 -0.506032
v -0.610000 -0.245309 -0.104508
v -0.430000 -0.245309 -0.104508
v -0.430000 -0.324810 0.034343
v -0.610000 -0.324810 0.034343
v -0.610000 1.099810 0.665657
v -0.430000 0.797158 0.492370
v -0.430000 0.717658 0.631221
v -0.610000 1.020309 0.804508
v -0.230000 -0.220362 -0.258052
v -0.010000 -0.220362 -0.258052
v -0.010000 -0.176145 -0.104283
v -0.230000 -0.176145 -0.104283
v -0.230000 0.606145 -0.495717
v -0.010000 0.420181 -0.442243
v -0.010000 0.464398 -0.288474
v -0.230000 0.650362 -0.341948
v 0.185000 -0.093486 -0.336201
v 0.375000 -0.093486 -0.336201
v 0.375000 -0.206011 -0.222455
v 0.185000 -0.206011 -0.222455
v 0.185000 0.916011 0.662455
v 0.375000 0.688874 0.437758
v 0.375000 0.576349 0.551504
v 0.185000 0.803486 0.776201
v 0.600000 -0.231671 0.157700
v 0.760000 -0.231671 0.157700
v 0.760000 -0.138705 0.287921
v 0.600000 -0.138705 0.287921
v 0.600000 0.728705 -0.527921
v 0.760000 0.512621 -0.373656
v 0.760000 0.605586 -0.243436
v 0.600000 0.821671 -0.397700
v 0.810000 -0.132713 0.164524
v 1.030000 -0.132713 0.164524
v 1.030000 -0.186071 0.315365
v 0.810000 -0.186071 0.315365
v 0.810000 0.546071 0.404635
v 1.030000 0.393344 0.350610
v 1.030000 0.339986 0.501451
v 0.810000 0.492713 0.555476
f 1 2 3 4
f 5 8 7 6
f 1 5 6 2
f 2 6 7 3
f 3 7 8 4
f 4 8 5 1
f 9 10 11 12
f 13 16 15 14
f 9 13 14 10
f 10 14 15 11
f 11 15 16 12
f 12 16 13 9
f 17 18 19 20
f 21 24 23 22
f 17 21 22 18
f 18 22 23 19
f 19 23 24 20
f 20 24 21 17
f 25 26 27 28
f 29 32 31 30
f 25 29 30 26
f 26 30 31 27
f 27 31 32 28
f 28 32 29 25
f 33 34 35 36
f 37 40 39 38
f 33 37 38 34
f 34 38 39 35
f 35 39 40 36
f 36 40 37 33
f 41 42 43 44
f 45 48 47 46
f 41 45 46 42
f 42 46 47 43
f 43 47 48 44
f 44 48 45 41
