o keep_debris
v 0.510000 -0.060461 -0.185107
v 0.930000 -0.060461 -0.185107
v 0.930000 0.021893 0.267461
v 0.510000 0.021893 0.267461
v 0.510000 0.392107 -0.267461
v 0.930000 0.290279 -0.248931
v 0.930000 0.372633 0.203637
v 0.510000 0.474461 0.185107
v 0.429574 -0.035842 0.246476
v 0.929574 -0.035842 0.246476
v 0.929574 0.010895 0.764372
v 0.429574 0.010895 0.764372
v 0.429574 0.223105 0.223108
v 0.929574 0.164842 0.228366
v 0.929574 0.211579 0.746261
v 0.429574 0.269842 0.741003
v 0.006656 -0.018000 0.623014
v 0.586656 -0.018000 0.623014
v 0.586656 -0.018000 1.203014
v 0.006656 -0.018000 1.203014
v 0.006656 0.342000 0.623014
v 0.586656 0.261000 0.623014
v 0.586656 0.261000 1.203014
v 0.006656 0.342000 1.203014
v -0.552492 -0.004093 0.464898
v 0.107508 -0.004093 0.464898
v 0.107508 -0.040045 0.863279
v -0.552492 -0.040045 0.863279
v -0.552492 0.454045 0.506242
v 0.107508 0.350964 0.496940
v 0.107508 0.315012 0.895321
v -0.552492 0.418093 0.904623
v -0.889574 0.030277 0.244182
v -0.469574 0.030277 0.244182
v -0.469574 -0.052076 0.696750
v -0.889574 -0.052076 0.696750
v -0.889574 0.286076 0.290729
v -0.469574 0.228522 0.280256
v -0.469574 0.146168 0.732824
v -0.889574 0.203723 0.743298
v -1.210000 -0.061640 -0.223574
v -0.710000 -0.061640 -0.223574
v -0.710000 0.031456 0.288025
v -1.210000 0.031456 0.288025
v -1.210000 0.292544 -0.288025
v -0.710000 0.212853 -0.273523
v -0.710000 0.305948 0.238075
v -1.210000 0.385640 0.223574
v -0.872492 -0.048134 -0.691360
v -0.292492 -0.048134 -0.691360
v -0.292492 0.003996 -0.113707
v -0.872492 0.003996 -0.113707
v -0.872492 0.410004 -0.732704
v -0.292492 0.306923 -0.723401
v -0.292492 0.359053 -0.145749
v -0.872492 0.462134 -0.155051
v -0.589574 -0.013000 -0.998887
v 0.070426 -0.013000 -0.998887
v 0.070426 -0.013000 -0.598887
v -0.589574 -0.013000 -0.598887
v -0.589574 0.247000 -0.998887
v 0.070426 0.188500 -0.998887
v 0.070426 0.188500 -0.598887
v -0.589574 0.247000 -0.598887
v 0.086656 0.003401 -1.158262
v 0.506656 0.003401 -1.158262
v 0.506656 -0.037944 -0.700123
v 0.086656 -0.037944 -0.700123
v 0.086656 0.361944 -1.125905
v 0.506656 0.281271 -1.133185
v 0.506656 0.239927 -0.675047
v 0.086656 0.320599 -0.667767
v 0.332492 0.027264 -0.720182
v 0.832492 0.027264 -0.720182
v 0.832492 -0.065832 -0.208583
v 0.332492 -0.065832 -0.208583
v 0.332492 0.479832 -0.637828
v 0.832492 0.378004 -0.656358
v 0.832492 0.284909 -0.144759
v 0.332492 0.386736 -0.126229
v -0.347554 0.072894 -0.060000
v -0.191346 0.162332 -0.060000
v -0.812446 1.247106 -0.060000
v -0.968654 1.157668 -0.060000
v -0.347554 0.072894 0.140000
v -0.191346 0.162332 0.140000
v -0.812446 1.247106 0.140000
v -0.968654 1.157668 0.140000
v 0.161888 0.139923 -0.060000
v 0.323177 0.060012 -0.060000
v 0.878112 1.180077 -0.060000
v 0.716823 1.259988 -0.060000
v 0.161888 0.139923 0.140000
v 0.323177 0.060012 0.140000
v 0.878112 1.180077 0.140000
v 0.716823 1.259988 0.140000
f 1 2 3 4
f 5 8 7 6
f 1 5 6 2
f 2 6 7 3
f 3 7 8 4
f 4 8 5 1
f 9 10 11 12
f 13 16 15 14
f 9 13 14 10
f 10 14 15 11
f 11 15 16 12
f 12 16 13 9
f 17 18 19 20
f 21 24 23 22
f 17 21 22 18
f 18 22 23 19
f 19 23 24 20
f 20 24 21 17
f 25 26 27 28
f 29 32 31 30
f 25 29 30 26
f 26 30 31 27
f 27 31 32 28
f 28 32 29 25
f 33 34 35 36
f 37 40 39 38
f 33 37 38 34
f 34 38 39 35
f 35 39 40 36
f 36 40 37 33
f 41 42 43 44
f 45 48 47 46
f 41 45 46 42
f 42 46 47 43
f 43 47 48 44
f 44 48 45 41
f 49 50 51 52
f 53 56 55 54
f 49 53 54 50
f 50 54 55 51
f 51 55 56 52
f 52 56 53 49
f 57 58 59 60
f 61 64 63 62
f 57 61 62 58
f 58 62 63 59
f 59 63 64 60
f 60 64 61 57
f 65 66 67 68
f 69 72 71 70
f 65 69 70 66
f 66 70 71 67
f 67 71 72 68
f 68 72 69 65
f 73 74 75 76
f 77 80 79 78
f 73 77 78 74
f 74 78 79 75
f 75 79 80 76
f 76 80 77 73
f 81 82 83 84
f 85 88 87 86
f 81 85 86 82
f 82 86 87 83
f 83 87 88 84
f 85 81 84 88
f 89 90 91 92
f 93 96 95 94
f 89 93 94 90
f 90 94 95 91
f 91 95 96 92
f 93 89 92 96
