o stone_rubble_large
v 0.305000 -0.057844 -0.221829
v 0.719800 -0.057844 -0.221829
v 0.719800 0.023791 0.284027
v 0.305000 0.023791 0.284027
v 0.305000 0.327569 -0.284027
v 0.719800 0.240851 -0.270032
v 0.719800 0.322486 0.235823
v 0.305000 0.409204 0.221829
v 0.273010 -0.047019 0.107698
v 0.773210 -0.047019 0.107698
v 0.773210 -0.000221 0.691425
v 0.273010 -0.000221 0.691425
v 0.273010 0.439421 0.068699
v 0.773210 0.329972 0.077474
v 0.773210 0.376770 0.661201
v 0.273010 0.486219 0.652426
v -0.051520 -0.014640 0.559585
v 0.534080 -0.014640 0.559585
v 0.534080 -0.014640 0.925585
v -0.051520 -0.014640 0.925585
v -0.051520 0.278160 0.559585
v 0.534080 0.212280 0.559585
v 0.534080 0.212280 0.925585
v -0.051520 0.278160 0.925585
v -0.493840 -0.001346 0.252824
v 0.177160 -0.001346 0.252824
v 0.177160 -0.036445 0.690620
v -0.493840 -0.036445 0.690620
v -0.493840 0.387805 0.284023
v 0.177160 0.300246 0.277003
v 0.177160 0.265147 0.714799
v -0.493840 0.352706 0.721818
v -0.730510 0.019534 0.088261
v -0.315710 0.019534 0.088261
v -0.315710 -0.062101 0.594116
v -0.730510 -0.062101 0.594116
v -0.730510 0.501301 0.166008
v -0.315710 0.392903 0.148515
v -0.315710 0.311269 0.654370
v -0.730510 0.419666 0.671863
v -1.030900 -0.059418 -0.265736
v -0.530700 -0.059418 -0.265736
v -0.530700 0.033878 0.312384
v -1.030900 0.033878 0.312384
v -1.030900 0.229642 -0.312384
v -0.530700 0.164603 -0.301888
v -0.530700 0.257900 0.276232
v -1.030900 0.322938 0.265736
v -0.707340 -0.033520 -0.467997
v -0.121740 -0.033520 -0.467997
v -0.121740 -0.004271 -0.103167
v -0.707340 -0.004271 -0.103167
v -0.707340 0.355631 -0.499195
v -0.121740 0.268072 -0.492176
v -0.121740 0.297321 -0.127346
v -0.707340 0.384880 -0.134366
v -0.535310 -0.024400 -0.834553
v 0.135690 -0.024400 -0.834553
v 0.135690 -0.024400 -0.395353
v -0.535310 -0.024400 -0.395353
v -0.535310 0.463600 -0.834553
v 0.135690 0.353800 -0.834553
v 0.135690 0.353800 -0.395353
v -0.535310 0.463600 -0.395353
v 0.033880 0.006302 -1.009665
v 0.448680 0.006302 -1.009665
v 0.448680 -0.034646 -0.498904
v 0.033880 -0.034646 -0.498904
v 0.033880 0.298166 -0.986266
v 0.448680 0.232497 -0.991531
v 0.448680 0.191548 -0.480770
v 0.033880 0.257218 -0.475505
v 0.164440 0.029622 -0.621340
v 0.664640 0.029622 -0.621340
v 0.664640 -0.063675 -0.043220
v 0.164440 -0.063675 -0.043220
v 0.164440 0.415035 -0.559142
v 0.664640 0.328317 -0.573137
v 0.664640 0.235020 0.004983
v 0.164440 0.321738 0.018978
f 1 2 3 4
f 5 8 7 6
f 1 5 6 2
f 2 6 7 3
f 3 7 8 4
f 4 8 5 1
f 9 10 11 12
f 13 16 15 14
f 9 13 14 10
f 10 14 15 11
f 11 15 16 12
f 12 16 13 9
f 17 18 19 20
f 21 24 23 22
f 17 21 22 18
f 18 22 23 19
f 19 23 24 20
f 20 24 21 17
f 25 26 27 28
f 29 32 31 30
f 25 29 30 26
f 26 30 31 27
f 27 31 32 28
f 28 32 29 25
f 33 34 35 36
f 37 40 39 38
f 33 37 38 34
f 34 38 39 35
f 35 39 40 36
f 36 40 37 33
f 41 42 43 44
f 45 48 47 46
f 41 45 46 42
f 42 46 47 43
f 43 47 48 44
f 44 48 45 41
f 49 50 51 52
f 53 56 55 54
f 49 53 54 50
f 50 54 55 51
f 51 55 56 52
f 52 56 53 49
f 57 58 59 60
f 61 64 63 62
f 57 61 62 58
f 58 62 63 59
f 59 63 64 60
f 60 64 61 57
f 65 66 67 68
f 69 72 71 70
f 65 69 70 66
f 66 70 71 67
f 67 71 72 68
f 68 72 69 65
f 73 74 75 76
f 77 80 79 78
f 73 77 78 74
f 74 78 79 75
f 75 79 80 76
f 76 80 77 73
