o stone_rubble_small
v 0.195000 -0.036982 -0.141825
v 0.460200 -0.036982 -0.141825
v 0.460200 0.015210 0.181591
v 0.195000 0.015210 0.181591
v 0.195000 0.209430 -0.181591
v 0.460200 0.153987 -0.172643
v 0.460200 0.206180 0.150772
v 0.195000 0.261622 0.141825
v 0.097851 -0.030061 0.149075
v 0.417651 -0.030061 0.149075
v 0.417651 -0.000141 0.522277
v 0.097851 -0.000141 0.522277
v 0.097851 0.280941 0.124141
v 0.417651 0.210966 0.129751
v 0.417651 0.240886 0.502954
v 0.097851 0.310861 0.497344
v -0.298282 -0.009360 0.369684
v 0.076118 -0.009360 0.369684
v 0.076118 -0.009360 0.603684
v -0.298282 -0.009360 0.603684
v -0.298282 0.177840 0.369684
v 0.076118 0.135720 0.369684
v 0.076118 0.135720 0.603684
v -0.298282 0.177840 0.603684
v -0.509657 -0.000861 -0.007784
v -0.080657 -0.000861 -0.007784
v -0.080657 -0.023301 0.272118
v -0.509657 -0.023301 0.272118
v -0.509657 0.247941 0.012163
v -0.080657 0.191960 0.007675
v -0.080657 0.169520 0.287577
v -0.509657 0.225501 0.292065
v -0.505061 0.012489 -0.365929
v -0.239861 0.012489 -0.365929
v -0.239861 -0.039704 -0.042513
v -0.505061 -0.039704 -0.042513
v -0.505061 0.320504 -0.316222
v -0.239861 0.251200 -0.327406
v -0.239861 0.199008 -0.003990
v -0.505061 0.268311 0.007194
v -0.270982 -0.037989 -0.656581
v 0.048818 -0.037989 -0.656581
v 0.048818 0.021660 -0.286963
v -0.270982 0.021660 -0.286963
v -0.270982 0.146820 -0.686405
v 0.048818 0.105238 -0.679695
v 0.048818 0.164887 -0.310077
v -0.270982 0.206469 -0.316787
v 0.017055 -0.021431 -0.362780
v 0.391455 -0.021431 -0.362780
v 0.391455 -0.002731 -0.129529
v 0.017055 -0.002731 -0.129529
v 0.017055 0.227371 -0.382727
v 0.391455 0.171390 -0.378239
v 0.391455 0.190090 -0.144988
v 0.017055 0.246071 -0.149476
f 1 2 3 4
f 5 8 7 6
f 1 5 6 2
f 2 6 7 3
f 3 7 8 4
f 4 8 5 1
f 9 10 11 12
f 13 16 15 14
f 9 13 14 10
f 10 14 15 11
f 11 15 16 12
f 12 16 13 9
f 17 18 19 20
f 21 24 23 22
f 17 21 22 18
f 18 22 23 19
f 19 23 24 20
f 20 24 21 17
f 25 26 27 28
f 29 32 31 30
f 25 29 30 26
f 26 30 31 27
f 27 31 32 28
f 28 32 29 25
f 33 34 35 36
f 37 40 39 38
f 33 37 38 34
f 34 38 39 35
f 35 39 40 36
f 36 40 37 33
f 41 42 43 44
f 45 48 47 46
f 41 45 46 42
f 42 46 47 43
f 43 47 48 44
f 44 48 45 41
f 49 50 51 52
f 53 56 55 54
f 49 53 54 50
f 50 54 55 51
f 51 55 56 52
f 52 56 53 49
