o timber_splinters
v -0.800000 -0.178355 0.198001
v -0.640000 -0.178355 0.198001
v -0.640000 -0.073769 0.344500
v -0.800000 -0.073769 0.344500
v -0.800000 1.001769 -0.644500
v -0.640000 0.736241 -0.454937
v -0.640000 0.840827 -0.308439
v -0.800000 1.106355 -0.498001
v -0.400000 -0.094287 -0.093808
v -0.240000 -0.094287 -0.093808
v -0.240000 -0.177407 0.065851
v -0.400000 -0.177407 0.065851
v -0.400000 0.881407 0.414149
v -0.240000 0.661876 0.299859
v -0.240000 0.578756 0.459518
v -0.400000 0.798287 0.573808
v 0.000000 -0.297769 -0.151593
v 0.160000 -0.297769 -0.151593
v 0.160000 -0.248025 0.021397
v 0.000000 -0.248025 0.021397
v 0.000000 1.336025 -0.621397
v 0.160000 0.968421 -0.515691
v 0.160000 1.018165 -0.342701
v 0.000000 1.385769 -0.448407
v 0.340000 -0.012211 -0.309669
v 0.500000 -0.012211 -0.309669
v 0.500000 -0.130900 -0.174344
v 0.340000 -0.130900 -0.174344
v 0.340000 0.950100 0.534344
v 0.500000 0.733580 0.344441
v 0.500000 0.614891 0.479766
v 0.340000 0.831411 0.669669
v 0.700000 -0.079651 0.232464
v 0.860000 -0.079651 0.232464
v 0.860000 0.054385 0.352607
v 0.700000 0.054385 0.352607
v 0.700000 0.534415 -0.452607
v 0.860000 0.396250 -0.298466
v 0.860000 0.530286 -0.178323
v 0.700000 0.668451 -0.332464
f 1 2 3 4
f 5 8 7 6
f 1 5 6 2
f 2 6 7 3
f 3 7 8 4
f 4 8 5 1
f 9 10 11 12
f 13 16 15 14
f 9 13 14 10
f 10 14 15 11
f 11 15 16 12
f 12 16 13 9
f 17 18 19 20
f 21 24 23 22
f 17 21 22 18
f 18 22 23 19
f 19 23 24 20
f 20 24 21 17
f 25 26 27 28
f 29 32 31 30
f 25 29 30 26
f 26 30 31 27
f 27 31 32 28
f 28 32 29 25
f 33 34 35 36
f 37 40 39 38
f 33 37 38 34
f 34 38 39 35
f 35 39 40 36
f 36 40 37 33
